<?xml version="1.0" encoding="utf-8" standalone="no"?>
<!DOCTYPE svg PUBLIC "-//W3C//DTD SVG 1.1//EN"
  "http://www.w3.org/Graphics/SVG/1.1/DTD/svg11.dtd">
<!-- Created with matplotlib (http://matplotlib.org/) -->
<svg height="432pt" version="1.1" viewBox="0 0 576 432" width="576pt" xmlns="http://www.w3.org/2000/svg" xmlns:xlink="http://www.w3.org/1999/xlink">
 <defs>
  <style type="text/css">
*{stroke-linecap:butt;stroke-linejoin:round;stroke-miterlimit:100000;}
  </style>
 </defs>
 <g id="figure_1">
  <g id="patch_1">
   <path d="M 0 432 
L 576 432 
L 576 0 
L 0 0 
z
" style="fill:#ffffff;"/>
  </g>
  <g id="axes_1">
   <g id="patch_2">
    <path d="M 72 358.56 
L 438.048 358.56 
L 438.048 47.52 
L 72 47.52 
z
" style="fill:#ffffff;"/>
   </g>
   <g id="patch_3">
    <path clip-path="url(#pf9b58acebe)" d="M 84.2016 358.56 
L 114.7056 358.56 
L 114.7056 319.961656 
L 84.2016 319.961656 
z
" style="fill:#bcd8e3;"/>
   </g>
   <g id="patch_4">
    <path clip-path="url(#pf9b58acebe)" d="M 145.2096 358.56 
L 175.7136 358.56 
L 175.7136 306.084599 
L 145.2096 306.084599 
z
" style="fill:#bcd8e3;"/>
   </g>
   <g id="patch_5">
    <path clip-path="url(#pf9b58acebe)" d="M 206.2176 358.56 
L 236.7216 358.56 
L 236.7216 313.482915 
L 206.2176 313.482915 
z
" style="fill:#bcd8e3;"/>
   </g>
   <g id="patch_6">
    <path clip-path="url(#pf9b58acebe)" d="M 267.2256 358.56 
L 297.7296 358.56 
L 297.7296 320.771734 
L 267.2256 320.771734 
z
" style="fill:#bcd8e3;"/>
   </g>
   <g id="patch_7">
    <path clip-path="url(#pf9b58acebe)" d="M 328.2336 358.56 
L 358.7376 358.56 
L 358.7376 320.701102 
L 328.2336 320.701102 
z
" style="fill:#bcd8e3;"/>
   </g>
   <g id="patch_8">
    <path clip-path="url(#pf9b58acebe)" d="M 389.2416 358.56 
L 419.7456 358.56 
L 419.7456 321.983503 
L 389.2416 321.983503 
z
" style="fill:#bcd8e3;"/>
   </g>
   <g id="patch_9">
    <path clip-path="url(#pf9b58acebe)" d="M 84.2016 319.961656 
L 114.7056 319.961656 
L 114.7056 319.958603 
L 84.2016 319.958603 
z
" style="fill:#afcdd8;"/>
   </g>
   <g id="patch_10">
    <path clip-path="url(#pf9b58acebe)" d="M 145.2096 306.084599 
L 175.7136 306.084599 
L 175.7136 306.079377 
L 145.2096 306.079377 
z
" style="fill:#afcdd8;"/>
   </g>
   <g id="patch_11">
    <path clip-path="url(#pf9b58acebe)" d="M 206.2176 313.482915 
L 236.7216 313.482915 
L 236.7216 313.478407 
L 206.2176 313.478407 
z
" style="fill:#afcdd8;"/>
   </g>
   <g id="patch_12">
    <path clip-path="url(#pf9b58acebe)" d="M 267.2256 320.771734 
L 297.7296 320.771734 
L 297.7296 320.764318 
L 267.2256 320.764318 
z
" style="fill:#afcdd8;"/>
   </g>
   <g id="patch_13">
    <path clip-path="url(#pf9b58acebe)" d="M 328.2336 320.701102 
L 358.7376 320.701102 
L 358.7376 320.696043 
L 328.2336 320.696043 
z
" style="fill:#afcdd8;"/>
   </g>
   <g id="patch_14">
    <path clip-path="url(#pf9b58acebe)" d="M 389.2416 321.983503 
L 419.7456 321.983503 
L 419.7456 321.977798 
L 389.2416 321.977798 
z
" style="fill:#afcdd8;"/>
   </g>
   <g id="patch_15">
    <path clip-path="url(#pf9b58acebe)" d="M 84.2016 319.958603 
L 114.7056 319.958603 
L 114.7056 319.909752 
L 84.2016 319.909752 
z
" style="fill:#f7af02;"/>
   </g>
   <g id="patch_16">
    <path clip-path="url(#pf9b58acebe)" d="M 145.2096 306.079377 
L 175.7136 306.079377 
L 175.7136 306.02193 
L 145.2096 306.02193 
z
" style="fill:#f7af02;"/>
   </g>
   <g id="patch_17">
    <path clip-path="url(#pf9b58acebe)" d="M 206.2176 313.478407 
L 236.7216 313.478407 
L 236.7216 313.428812 
L 206.2176 313.428812 
z
" style="fill:#f7af02;"/>
   </g>
   <g id="patch_18">
    <path clip-path="url(#pf9b58acebe)" d="M 267.2256 320.764318 
L 297.7296 320.764318 
L 297.7296 320.692627 
L 267.2256 320.692627 
z
" style="fill:#f7af02;"/>
   </g>
   <g id="patch_19">
    <path clip-path="url(#pf9b58acebe)" d="M 328.2336 320.696043 
L 358.7376 320.696043 
L 358.7376 320.630267 
L 328.2336 320.630267 
z
" style="fill:#f7af02;"/>
   </g>
   <g id="patch_20">
    <path clip-path="url(#pf9b58acebe)" d="M 389.2416 321.977798 
L 419.7456 321.977798 
L 419.7456 321.926451 
L 389.2416 321.926451 
z
" style="fill:#f7af02;"/>
   </g>
   <g id="patch_21">
    <path clip-path="url(#pf9b58acebe)" d="M 84.2016 319.909752 
L 114.7056 319.909752 
L 114.7056 257.038601 
L 84.2016 257.038601 
z
" style="fill:#bda09c;"/>
   </g>
   <g id="patch_22">
    <path clip-path="url(#pf9b58acebe)" d="M 145.2096 306.02193 
L 175.7136 306.02193 
L 175.7136 222.190806 
L 145.2096 222.190806 
z
" style="fill:#bda09c;"/>
   </g>
   <g id="patch_23">
    <path clip-path="url(#pf9b58acebe)" d="M 206.2176 313.428812 
L 236.7216 313.428812 
L 236.7216 238.058375 
L 206.2176 238.058375 
z
" style="fill:#bda09c;"/>
   </g>
   <g id="patch_24">
    <path clip-path="url(#pf9b58acebe)" d="M 267.2256 320.692627 
L 297.7296 320.692627 
L 297.7296 267.129997 
L 267.2256 267.129997 
z
" style="fill:#bda09c;"/>
   </g>
   <g id="patch_25">
    <path clip-path="url(#pf9b58acebe)" d="M 328.2336 320.630267 
L 358.7376 320.630267 
L 358.7376 267.820078 
L 328.2336 267.820078 
z
" style="fill:#bda09c;"/>
   </g>
   <g id="patch_26">
    <path clip-path="url(#pf9b58acebe)" d="M 389.2416 321.926451 
L 419.7456 321.926451 
L 419.7456 262.294951 
L 389.2416 262.294951 
z
" style="fill:#bda09c;"/>
   </g>
   <g id="patch_27">
    <path clip-path="url(#pf9b58acebe)" d="M 84.2016 257.038601 
L 114.7056 257.038601 
L 114.7056 250.239161 
L 84.2016 250.239161 
z
" style="fill:#7c976a;"/>
   </g>
   <g id="patch_28">
    <path clip-path="url(#pf9b58acebe)" d="M 145.2096 222.190806 
L 175.7136 222.190806 
L 175.7136 213.714733 
L 145.2096 213.714733 
z
" style="fill:#7c976a;"/>
   </g>
   <g id="patch_29">
    <path clip-path="url(#pf9b58acebe)" d="M 206.2176 238.058375 
L 236.7216 238.058375 
L 236.7216 230.831073 
L 206.2176 230.831073 
z
" style="fill:#7c976a;"/>
   </g>
   <g id="patch_30">
    <path clip-path="url(#pf9b58acebe)" d="M 267.2256 267.129997 
L 297.7296 267.129997 
L 297.7296 260.4529 
L 267.2256 260.4529 
z
" style="fill:#7c976a;"/>
   </g>
   <g id="patch_31">
    <path clip-path="url(#pf9b58acebe)" d="M 328.2336 267.820078 
L 358.7376 267.820078 
L 358.7376 261.219753 
L 328.2336 261.219753 
z
" style="fill:#7c976a;"/>
   </g>
   <g id="patch_32">
    <path clip-path="url(#pf9b58acebe)" d="M 389.2416 262.294951 
L 419.7456 262.294951 
L 419.7456 255.990626 
L 389.2416 255.990626 
z
" style="fill:#7c976a;"/>
   </g>
   <g id="patch_33">
    <path clip-path="url(#pf9b58acebe)" d="M 84.2016 250.239161 
L 114.7056 250.239161 
L 114.7056 250.208629 
L 84.2016 250.208629 
z
" style="fill:#898a82;"/>
   </g>
   <g id="patch_34">
    <path clip-path="url(#pf9b58acebe)" d="M 145.2096 213.714733 
L 175.7136 213.714733 
L 175.7136 213.667731 
L 145.2096 213.667731 
z
" style="fill:#898a82;"/>
   </g>
   <g id="patch_35">
    <path clip-path="url(#pf9b58acebe)" d="M 206.2176 230.831073 
L 236.7216 230.831073 
L 236.7216 230.799513 
L 206.2176 230.799513 
z
" style="fill:#898a82;"/>
   </g>
   <g id="patch_36">
    <path clip-path="url(#pf9b58acebe)" d="M 267.2256 260.4529 
L 297.7296 260.4529 
L 297.7296 260.425707 
L 267.2256 260.425707 
z
" style="fill:#898a82;"/>
   </g>
   <g id="patch_37">
    <path clip-path="url(#pf9b58acebe)" d="M 328.2336 261.219753 
L 358.7376 261.219753 
L 358.7376 261.202044 
L 328.2336 261.202044 
z
" style="fill:#898a82;"/>
   </g>
   <g id="patch_38">
    <path clip-path="url(#pf9b58acebe)" d="M 389.2416 255.990626 
L 419.7456 255.990626 
L 419.7456 255.97351 
L 389.2416 255.97351 
z
" style="fill:#898a82;"/>
   </g>
   <g id="patch_39">
    <path clip-path="url(#pf9b58acebe)" d="M 84.2016 250.208629 
L 114.7056 250.208629 
L 114.7056 117.361569 
L 84.2016 117.361569 
z
" style="fill:#0c5c4f;"/>
   </g>
   <g id="patch_40">
    <path clip-path="url(#pf9b58acebe)" d="M 145.2096 213.667731 
L 175.7136 213.667731 
L 175.7136 108.434916 
L 145.2096 108.434916 
z
" style="fill:#0c5c4f;"/>
   </g>
   <g id="patch_41">
    <path clip-path="url(#pf9b58acebe)" d="M 206.2176 230.799513 
L 236.7216 230.799513 
L 236.7216 112.669417 
L 206.2176 112.669417 
z
" style="fill:#0c5c4f;"/>
   </g>
   <g id="patch_42">
    <path clip-path="url(#pf9b58acebe)" d="M 267.2256 260.425707 
L 297.7296 260.425707 
L 297.7296 117.475015 
L 267.2256 117.475015 
z
" style="fill:#0c5c4f;"/>
   </g>
   <g id="patch_43">
    <path clip-path="url(#pf9b58acebe)" d="M 328.2336 261.202044 
L 358.7376 261.202044 
L 358.7376 118.658804 
L 328.2336 118.658804 
z
" style="fill:#0c5c4f;"/>
   </g>
   <g id="patch_44">
    <path clip-path="url(#pf9b58acebe)" d="M 389.2416 255.97351 
L 419.7456 255.97351 
L 419.7456 117.429546 
L 389.2416 117.429546 
z
" style="fill:#0c5c4f;"/>
   </g>
   <g id="patch_45">
    <path clip-path="url(#pf9b58acebe)" d="M 84.2016 117.361569 
L 114.7056 117.361569 
L 114.7056 114.290067 
L 84.2016 114.290067 
z
" style="fill:#75625e;"/>
   </g>
   <g id="patch_46">
    <path clip-path="url(#pf9b58acebe)" d="M 145.2096 108.434916 
L 175.7136 108.434916 
L 175.7136 105.651338 
L 145.2096 105.651338 
z
" style="fill:#75625e;"/>
   </g>
   <g id="patch_47">
    <path clip-path="url(#pf9b58acebe)" d="M 206.2176 112.669417 
L 236.7216 112.669417 
L 236.7216 109.941708 
L 206.2176 109.941708 
z
" style="fill:#75625e;"/>
   </g>
   <g id="patch_48">
    <path clip-path="url(#pf9b58acebe)" d="M 267.2256 117.475015 
L 297.7296 117.475015 
L 297.7296 114.303332 
L 267.2256 114.303332 
z
" style="fill:#75625e;"/>
   </g>
   <g id="patch_49">
    <path clip-path="url(#pf9b58acebe)" d="M 328.2336 118.658804 
L 358.7376 118.658804 
L 358.7376 115.375085 
L 328.2336 115.375085 
z
" style="fill:#75625e;"/>
   </g>
   <g id="patch_50">
    <path clip-path="url(#pf9b58acebe)" d="M 389.2416 117.429546 
L 419.7456 117.429546 
L 419.7456 114.539826 
L 389.2416 114.539826 
z
" style="fill:#75625e;"/>
   </g>
   <g id="patch_51">
    <path clip-path="url(#pf9b58acebe)" d="M 84.2016 114.290067 
L 114.7056 114.290067 
L 114.7056 106.565513 
L 84.2016 106.565513 
z
" style="fill:#8ac2bf;"/>
   </g>
   <g id="patch_52">
    <path clip-path="url(#pf9b58acebe)" d="M 145.2096 105.651338 
L 175.7136 105.651338 
L 175.7136 98.089198 
L 145.2096 98.089198 
z
" style="fill:#8ac2bf;"/>
   </g>
   <g id="patch_53">
    <path clip-path="url(#pf9b58acebe)" d="M 206.2176 109.941708 
L 236.7216 109.941708 
L 236.7216 102.682846 
L 206.2176 102.682846 
z
" style="fill:#8ac2bf;"/>
   </g>
   <g id="patch_54">
    <path clip-path="url(#pf9b58acebe)" d="M 267.2256 114.303332 
L 297.7296 114.303332 
L 297.7296 107.688037 
L 267.2256 107.688037 
z
" style="fill:#8ac2bf;"/>
   </g>
   <g id="patch_55">
    <path clip-path="url(#pf9b58acebe)" d="M 328.2336 115.375085 
L 358.7376 115.375085 
L 358.7376 108.832946 
L 328.2336 108.832946 
z
" style="fill:#8ac2bf;"/>
   </g>
   <g id="patch_56">
    <path clip-path="url(#pf9b58acebe)" d="M 389.2416 114.539826 
L 419.7456 114.539826 
L 419.7456 106.937552 
L 389.2416 106.937552 
z
" style="fill:#8ac2bf;"/>
   </g>
   <g id="patch_57">
    <path clip-path="url(#pf9b58acebe)" d="M 84.2016 106.565513 
L 114.7056 106.565513 
L 114.7056 106.397588 
L 84.2016 106.397588 
z
" style="fill:#e8e098;"/>
   </g>
   <g id="patch_58">
    <path clip-path="url(#pf9b58acebe)" d="M 145.2096 98.089198 
L 175.7136 98.089198 
L 175.7136 97.895967 
L 145.2096 97.895967 
z
" style="fill:#e8e098;"/>
   </g>
   <g id="patch_59">
    <path clip-path="url(#pf9b58acebe)" d="M 206.2176 102.682846 
L 236.7216 102.682846 
L 236.7216 102.484467 
L 206.2176 102.484467 
z
" style="fill:#e8e098;"/>
   </g>
   <g id="patch_60">
    <path clip-path="url(#pf9b58acebe)" d="M 267.2256 107.688037 
L 297.7296 107.688037 
L 297.7296 107.500158 
L 267.2256 107.500158 
z
" style="fill:#e8e098;"/>
   </g>
   <g id="patch_61">
    <path clip-path="url(#pf9b58acebe)" d="M 328.2336 108.832946 
L 358.7376 108.832946 
L 358.7376 108.602732 
L 328.2336 108.602732 
z
" style="fill:#e8e098;"/>
   </g>
   <g id="patch_62">
    <path clip-path="url(#pf9b58acebe)" d="M 389.2416 106.937552 
L 419.7456 106.937552 
L 419.7456 106.706488 
L 389.2416 106.706488 
z
" style="fill:#e8e098;"/>
   </g>
   <g id="patch_63">
    <path clip-path="url(#pf9b58acebe)" d="M 84.2016 106.397588 
L 114.7056 106.397588 
L 114.7056 47.52 
L 84.2016 47.52 
z
" style="fill:#ffe983;"/>
   </g>
   <g id="patch_64">
    <path clip-path="url(#pf9b58acebe)" d="M 145.2096 97.895967 
L 175.7136 97.895967 
L 175.7136 47.52 
L 145.2096 47.52 
z
" style="fill:#ffe983;"/>
   </g>
   <g id="patch_65">
    <path clip-path="url(#pf9b58acebe)" d="M 206.2176 102.484467 
L 236.7216 102.484467 
L 236.7216 47.52 
L 206.2176 47.52 
z
" style="fill:#ffe983;"/>
   </g>
   <g id="patch_66">
    <path clip-path="url(#pf9b58acebe)" d="M 267.2256 107.500158 
L 297.7296 107.500158 
L 297.7296 47.52 
L 267.2256 47.52 
z
" style="fill:#ffe983;"/>
   </g>
   <g id="patch_67">
    <path clip-path="url(#pf9b58acebe)" d="M 328.2336 108.602732 
L 358.7376 108.602732 
L 358.7376 47.52 
L 328.2336 47.52 
z
" style="fill:#ffe983;"/>
   </g>
   <g id="patch_68">
    <path clip-path="url(#pf9b58acebe)" d="M 389.2416 106.706488 
L 419.7456 106.706488 
L 419.7456 47.52 
L 389.2416 47.52 
z
" style="fill:#ffe983;"/>
   </g>
   <g id="patch_69">
    <path d="M 72 47.52 
L 438.048 47.52 
" style="fill:none;stroke:#000000;stroke-linecap:square;stroke-linejoin:miter;"/>
   </g>
   <g id="patch_70">
    <path d="M 438.048 358.56 
L 438.048 47.52 
" style="fill:none;stroke:#000000;stroke-linecap:square;stroke-linejoin:miter;"/>
   </g>
   <g id="patch_71">
    <path d="M 72 358.56 
L 438.048 358.56 
" style="fill:none;stroke:#000000;stroke-linecap:square;stroke-linejoin:miter;"/>
   </g>
   <g id="patch_72">
    <path d="M 72 358.56 
L 72 47.52 
" style="fill:none;stroke:#000000;stroke-linecap:square;stroke-linejoin:miter;"/>
   </g>
   <g id="matplotlib.axis_1">
    <g id="xtick_1">
     <g id="line2d_1">
      <defs>
       <path d="M 0 0 
L 0 -4 
" id="m56bf201027" style="stroke:#000000;stroke-width:0.5;"/>
      </defs>
      <g>
       <use style="stroke:#000000;stroke-width:0.5;" x="84.2016" xlink:href="#m56bf201027" y="358.56"/>
      </g>
     </g>
     <g id="line2d_2">
      <defs>
       <path d="M 0 0 
L 0 4 
" id="m5aa9061eab" style="stroke:#000000;stroke-width:0.5;"/>
      </defs>
      <g>
       <use style="stroke:#000000;stroke-width:0.5;" x="84.2016" xlink:href="#m5aa9061eab" y="47.52"/>
      </g>
     </g>
     <g id="text_1">
      <!-- HBRR2 -->
      <defs>
       <path d="M 19.1875 8.296875 
L 53.609375 8.296875 
L 53.609375 0 
L 7.328125 0 
L 7.328125 8.296875 
Q 12.9375 14.109375 22.625 23.890625 
Q 32.328125 33.6875 34.8125 36.53125 
Q 39.546875 41.84375 41.421875 45.53125 
Q 43.3125 49.21875 43.3125 52.78125 
Q 43.3125 58.59375 39.234375 62.25 
Q 35.15625 65.921875 28.609375 65.921875 
Q 23.96875 65.921875 18.8125 64.3125 
Q 13.671875 62.703125 7.8125 59.421875 
L 7.8125 69.390625 
Q 13.765625 71.78125 18.9375 73 
Q 24.125 74.21875 28.421875 74.21875 
Q 39.75 74.21875 46.484375 68.546875 
Q 53.21875 62.890625 53.21875 53.421875 
Q 53.21875 48.921875 51.53125 44.890625 
Q 49.859375 40.875 45.40625 35.40625 
Q 44.1875 33.984375 37.640625 27.21875 
Q 31.109375 20.453125 19.1875 8.296875 
" id="BitstreamVeraSans-Roman-32"/>
       <path d="M 44.390625 34.1875 
Q 47.5625 33.109375 50.5625 29.59375 
Q 53.5625 26.078125 56.59375 19.921875 
L 66.609375 0 
L 56 0 
L 46.6875 18.703125 
Q 43.0625 26.03125 39.671875 28.421875 
Q 36.28125 30.8125 30.421875 30.8125 
L 19.671875 30.8125 
L 19.671875 0 
L 9.8125 0 
L 9.8125 72.90625 
L 32.078125 72.90625 
Q 44.578125 72.90625 50.734375 67.671875 
Q 56.890625 62.453125 56.890625 51.90625 
Q 56.890625 45.015625 53.6875 40.46875 
Q 50.484375 35.9375 44.390625 34.1875 
M 19.671875 64.796875 
L 19.671875 38.921875 
L 32.078125 38.921875 
Q 39.203125 38.921875 42.84375 42.21875 
Q 46.484375 45.515625 46.484375 51.90625 
Q 46.484375 58.296875 42.84375 61.546875 
Q 39.203125 64.796875 32.078125 64.796875 
z
" id="BitstreamVeraSans-Roman-52"/>
       <path d="M 19.671875 34.8125 
L 19.671875 8.109375 
L 35.5 8.109375 
Q 43.453125 8.109375 47.28125 11.40625 
Q 51.125 14.703125 51.125 21.484375 
Q 51.125 28.328125 47.28125 31.5625 
Q 43.453125 34.8125 35.5 34.8125 
z
M 19.671875 64.796875 
L 19.671875 42.828125 
L 34.28125 42.828125 
Q 41.5 42.828125 45.03125 45.53125 
Q 48.578125 48.25 48.578125 53.8125 
Q 48.578125 59.328125 45.03125 62.0625 
Q 41.5 64.796875 34.28125 64.796875 
z
M 9.8125 72.90625 
L 35.015625 72.90625 
Q 46.296875 72.90625 52.390625 68.21875 
Q 58.5 63.53125 58.5 54.890625 
Q 58.5 48.1875 55.375 44.234375 
Q 52.25 40.28125 46.1875 39.3125 
Q 53.46875 37.75 57.5 32.78125 
Q 61.53125 27.828125 61.53125 20.40625 
Q 61.53125 10.640625 54.890625 5.3125 
Q 48.25 0 35.984375 0 
L 9.8125 0 
z
" id="BitstreamVeraSans-Roman-42"/>
       <path d="M 9.8125 72.90625 
L 19.671875 72.90625 
L 19.671875 43.015625 
L 55.515625 43.015625 
L 55.515625 72.90625 
L 65.375 72.90625 
L 65.375 0 
L 55.515625 0 
L 55.515625 34.71875 
L 19.671875 34.71875 
L 19.671875 0 
L 9.8125 0 
z
" id="BitstreamVeraSans-Roman-48"/>
      </defs>
      <g transform="translate(63.417225 371.678125)scale(0.12 -0.12)">
       <use xlink:href="#BitstreamVeraSans-Roman-48"/>
       <use x="75.1953125" xlink:href="#BitstreamVeraSans-Roman-42"/>
       <use x="143.798828125" xlink:href="#BitstreamVeraSans-Roman-52"/>
       <use x="213.28125" xlink:href="#BitstreamVeraSans-Roman-52"/>
       <use x="282.763671875" xlink:href="#BitstreamVeraSans-Roman-32"/>
      </g>
     </g>
    </g>
    <g id="xtick_2">
     <g id="line2d_3">
      <g>
       <use style="stroke:#000000;stroke-width:0.5;" x="145.2096" xlink:href="#m56bf201027" y="358.56"/>
      </g>
     </g>
     <g id="line2d_4">
      <g>
       <use style="stroke:#000000;stroke-width:0.5;" x="145.2096" xlink:href="#m5aa9061eab" y="47.52"/>
      </g>
     </g>
     <g id="text_2">
      <!-- UHRR3 -->
      <defs>
       <path d="M 40.578125 39.3125 
Q 47.65625 37.796875 51.625 33 
Q 55.609375 28.21875 55.609375 21.1875 
Q 55.609375 10.40625 48.1875 4.484375 
Q 40.765625 -1.421875 27.09375 -1.421875 
Q 22.515625 -1.421875 17.65625 -0.515625 
Q 12.796875 0.390625 7.625 2.203125 
L 7.625 11.71875 
Q 11.71875 9.328125 16.59375 8.109375 
Q 21.484375 6.890625 26.8125 6.890625 
Q 36.078125 6.890625 40.9375 10.546875 
Q 45.796875 14.203125 45.796875 21.1875 
Q 45.796875 27.640625 41.28125 31.265625 
Q 36.765625 34.90625 28.71875 34.90625 
L 20.21875 34.90625 
L 20.21875 43.015625 
L 29.109375 43.015625 
Q 36.375 43.015625 40.234375 45.921875 
Q 44.09375 48.828125 44.09375 54.296875 
Q 44.09375 59.90625 40.109375 62.90625 
Q 36.140625 65.921875 28.71875 65.921875 
Q 24.65625 65.921875 20.015625 65.03125 
Q 15.375 64.15625 9.8125 62.3125 
L 9.8125 71.09375 
Q 15.4375 72.65625 20.34375 73.4375 
Q 25.25 74.21875 29.59375 74.21875 
Q 40.828125 74.21875 47.359375 69.109375 
Q 53.90625 64.015625 53.90625 55.328125 
Q 53.90625 49.265625 50.4375 45.09375 
Q 46.96875 40.921875 40.578125 39.3125 
" id="BitstreamVeraSans-Roman-33"/>
       <path d="M 8.6875 72.90625 
L 18.609375 72.90625 
L 18.609375 28.609375 
Q 18.609375 16.890625 22.84375 11.734375 
Q 27.09375 6.59375 36.625 6.59375 
Q 46.09375 6.59375 50.34375 11.734375 
Q 54.59375 16.890625 54.59375 28.609375 
L 54.59375 72.90625 
L 64.5 72.90625 
L 64.5 27.390625 
Q 64.5 13.140625 57.4375 5.859375 
Q 50.390625 -1.421875 36.625 -1.421875 
Q 22.796875 -1.421875 15.734375 5.859375 
Q 8.6875 13.140625 8.6875 27.390625 
z
" id="BitstreamVeraSans-Roman-55"/>
      </defs>
      <g transform="translate(124.1505375 371.678125)scale(0.12 -0.12)">
       <use xlink:href="#BitstreamVeraSans-Roman-55"/>
       <use x="73.193359375" xlink:href="#BitstreamVeraSans-Roman-48"/>
       <use x="148.388671875" xlink:href="#BitstreamVeraSans-Roman-52"/>
       <use x="217.87109375" xlink:href="#BitstreamVeraSans-Roman-52"/>
       <use x="287.353515625" xlink:href="#BitstreamVeraSans-Roman-33"/>
      </g>
     </g>
    </g>
    <g id="xtick_3">
     <g id="line2d_5">
      <g>
       <use style="stroke:#000000;stroke-width:0.5;" x="206.2176" xlink:href="#m56bf201027" y="358.56"/>
      </g>
     </g>
     <g id="line2d_6">
      <g>
       <use style="stroke:#000000;stroke-width:0.5;" x="206.2176" xlink:href="#m5aa9061eab" y="47.52"/>
      </g>
     </g>
     <g id="text_3">
      <!-- HBRR1 -->
      <defs>
       <path d="M 12.40625 8.296875 
L 28.515625 8.296875 
L 28.515625 63.921875 
L 10.984375 60.40625 
L 10.984375 69.390625 
L 28.421875 72.90625 
L 38.28125 72.90625 
L 38.28125 8.296875 
L 54.390625 8.296875 
L 54.390625 0 
L 12.40625 0 
z
" id="BitstreamVeraSans-Roman-31"/>
      </defs>
      <g transform="translate(185.433225 371.678125)scale(0.12 -0.12)">
       <use xlink:href="#BitstreamVeraSans-Roman-48"/>
       <use x="75.1953125" xlink:href="#BitstreamVeraSans-Roman-42"/>
       <use x="143.798828125" xlink:href="#BitstreamVeraSans-Roman-52"/>
       <use x="213.28125" xlink:href="#BitstreamVeraSans-Roman-52"/>
       <use x="282.763671875" xlink:href="#BitstreamVeraSans-Roman-31"/>
      </g>
     </g>
    </g>
    <g id="xtick_4">
     <g id="line2d_7">
      <g>
       <use style="stroke:#000000;stroke-width:0.5;" x="267.2256" xlink:href="#m56bf201027" y="358.56"/>
      </g>
     </g>
     <g id="line2d_8">
      <g>
       <use style="stroke:#000000;stroke-width:0.5;" x="267.2256" xlink:href="#m5aa9061eab" y="47.52"/>
      </g>
     </g>
     <g id="text_4">
      <!-- UHRR1 -->
      <g transform="translate(246.1665375 371.678125)scale(0.12 -0.12)">
       <use xlink:href="#BitstreamVeraSans-Roman-55"/>
       <use x="73.193359375" xlink:href="#BitstreamVeraSans-Roman-48"/>
       <use x="148.388671875" xlink:href="#BitstreamVeraSans-Roman-52"/>
       <use x="217.87109375" xlink:href="#BitstreamVeraSans-Roman-52"/>
       <use x="287.353515625" xlink:href="#BitstreamVeraSans-Roman-31"/>
      </g>
     </g>
    </g>
    <g id="xtick_5">
     <g id="line2d_9">
      <g>
       <use style="stroke:#000000;stroke-width:0.5;" x="328.2336" xlink:href="#m56bf201027" y="358.56"/>
      </g>
     </g>
     <g id="line2d_10">
      <g>
       <use style="stroke:#000000;stroke-width:0.5;" x="328.2336" xlink:href="#m5aa9061eab" y="47.52"/>
      </g>
     </g>
     <g id="text_5">
      <!-- UHRR2 -->
      <g transform="translate(307.1745375 371.678125)scale(0.12 -0.12)">
       <use xlink:href="#BitstreamVeraSans-Roman-55"/>
       <use x="73.193359375" xlink:href="#BitstreamVeraSans-Roman-48"/>
       <use x="148.388671875" xlink:href="#BitstreamVeraSans-Roman-52"/>
       <use x="217.87109375" xlink:href="#BitstreamVeraSans-Roman-52"/>
       <use x="287.353515625" xlink:href="#BitstreamVeraSans-Roman-32"/>
      </g>
     </g>
    </g>
    <g id="xtick_6">
     <g id="line2d_11">
      <g>
       <use style="stroke:#000000;stroke-width:0.5;" x="389.2416" xlink:href="#m56bf201027" y="358.56"/>
      </g>
     </g>
     <g id="line2d_12">
      <g>
       <use style="stroke:#000000;stroke-width:0.5;" x="389.2416" xlink:href="#m5aa9061eab" y="47.52"/>
      </g>
     </g>
     <g id="text_6">
      <!-- HBRR3 -->
      <g transform="translate(368.457225 371.678125)scale(0.12 -0.12)">
       <use xlink:href="#BitstreamVeraSans-Roman-48"/>
       <use x="75.1953125" xlink:href="#BitstreamVeraSans-Roman-42"/>
       <use x="143.798828125" xlink:href="#BitstreamVeraSans-Roman-52"/>
       <use x="213.28125" xlink:href="#BitstreamVeraSans-Roman-52"/>
       <use x="282.763671875" xlink:href="#BitstreamVeraSans-Roman-33"/>
      </g>
     </g>
    </g>
    <g id="text_7">
     <!-- gene type -->
     <defs>
      <path id="BitstreamVeraSans-Roman-20"/>
      <path d="M 54.890625 33.015625 
L 54.890625 0 
L 45.90625 0 
L 45.90625 32.71875 
Q 45.90625 40.484375 42.875 44.328125 
Q 39.84375 48.1875 33.796875 48.1875 
Q 26.515625 48.1875 22.3125 43.546875 
Q 18.109375 38.921875 18.109375 30.90625 
L 18.109375 0 
L 9.078125 0 
L 9.078125 54.6875 
L 18.109375 54.6875 
L 18.109375 46.1875 
Q 21.34375 51.125 25.703125 53.5625 
Q 30.078125 56 35.796875 56 
Q 45.21875 56 50.046875 50.171875 
Q 54.890625 44.34375 54.890625 33.015625 
" id="BitstreamVeraSans-Roman-6e"/>
      <path d="M 32.171875 -5.078125 
Q 28.375 -14.84375 24.75 -17.8125 
Q 21.140625 -20.796875 15.09375 -20.796875 
L 7.90625 -20.796875 
L 7.90625 -13.28125 
L 13.1875 -13.28125 
Q 16.890625 -13.28125 18.9375 -11.515625 
Q 21 -9.765625 23.484375 -3.21875 
L 25.09375 0.875 
L 2.984375 54.6875 
L 12.5 54.6875 
L 29.59375 11.921875 
L 46.6875 54.6875 
L 56.203125 54.6875 
z
" id="BitstreamVeraSans-Roman-79"/>
      <path d="M 56.203125 29.59375 
L 56.203125 25.203125 
L 14.890625 25.203125 
Q 15.484375 15.921875 20.484375 11.0625 
Q 25.484375 6.203125 34.421875 6.203125 
Q 39.59375 6.203125 44.453125 7.46875 
Q 49.3125 8.734375 54.109375 11.28125 
L 54.109375 2.78125 
Q 49.265625 0.734375 44.1875 -0.34375 
Q 39.109375 -1.421875 33.890625 -1.421875 
Q 20.796875 -1.421875 13.15625 6.1875 
Q 5.515625 13.8125 5.515625 26.8125 
Q 5.515625 40.234375 12.765625 48.109375 
Q 20.015625 56 32.328125 56 
Q 43.359375 56 49.78125 48.890625 
Q 56.203125 41.796875 56.203125 29.59375 
M 47.21875 32.234375 
Q 47.125 39.59375 43.09375 43.984375 
Q 39.0625 48.390625 32.421875 48.390625 
Q 24.90625 48.390625 20.390625 44.140625 
Q 15.875 39.890625 15.1875 32.171875 
z
" id="BitstreamVeraSans-Roman-65"/>
      <path d="M 45.40625 27.984375 
Q 45.40625 37.75 41.375 43.109375 
Q 37.359375 48.484375 30.078125 48.484375 
Q 22.859375 48.484375 18.828125 43.109375 
Q 14.796875 37.75 14.796875 27.984375 
Q 14.796875 18.265625 18.828125 12.890625 
Q 22.859375 7.515625 30.078125 7.515625 
Q 37.359375 7.515625 41.375 12.890625 
Q 45.40625 18.265625 45.40625 27.984375 
M 54.390625 6.78125 
Q 54.390625 -7.171875 48.1875 -13.984375 
Q 42 -20.796875 29.203125 -20.796875 
Q 24.46875 -20.796875 20.265625 -20.09375 
Q 16.0625 -19.390625 12.109375 -17.921875 
L 12.109375 -9.1875 
Q 16.0625 -11.328125 19.921875 -12.34375 
Q 23.78125 -13.375 27.78125 -13.375 
Q 36.625 -13.375 41.015625 -8.765625 
Q 45.40625 -4.15625 45.40625 5.171875 
L 45.40625 9.625 
Q 42.625 4.78125 38.28125 2.390625 
Q 33.9375 0 27.875 0 
Q 17.828125 0 11.671875 7.65625 
Q 5.515625 15.328125 5.515625 27.984375 
Q 5.515625 40.671875 11.671875 48.328125 
Q 17.828125 56 27.875 56 
Q 33.9375 56 38.28125 53.609375 
Q 42.625 51.21875 45.40625 46.390625 
L 45.40625 54.6875 
L 54.390625 54.6875 
z
" id="BitstreamVeraSans-Roman-67"/>
      <path d="M 18.3125 70.21875 
L 18.3125 54.6875 
L 36.8125 54.6875 
L 36.8125 47.703125 
L 18.3125 47.703125 
L 18.3125 18.015625 
Q 18.3125 11.328125 20.140625 9.421875 
Q 21.96875 7.515625 27.59375 7.515625 
L 36.8125 7.515625 
L 36.8125 0 
L 27.59375 0 
Q 17.1875 0 13.234375 3.875 
Q 9.28125 7.765625 9.28125 18.015625 
L 9.28125 47.703125 
L 2.6875 47.703125 
L 2.6875 54.6875 
L 9.28125 54.6875 
L 9.28125 70.21875 
z
" id="BitstreamVeraSans-Roman-74"/>
      <path d="M 18.109375 8.203125 
L 18.109375 -20.796875 
L 9.078125 -20.796875 
L 9.078125 54.6875 
L 18.109375 54.6875 
L 18.109375 46.390625 
Q 20.953125 51.265625 25.265625 53.625 
Q 29.59375 56 35.59375 56 
Q 45.5625 56 51.78125 48.09375 
Q 58.015625 40.1875 58.015625 27.296875 
Q 58.015625 14.40625 51.78125 6.484375 
Q 45.5625 -1.421875 35.59375 -1.421875 
Q 29.59375 -1.421875 25.265625 0.953125 
Q 20.953125 3.328125 18.109375 8.203125 
M 48.6875 27.296875 
Q 48.6875 37.203125 44.609375 42.84375 
Q 40.53125 48.484375 33.40625 48.484375 
Q 26.265625 48.484375 22.1875 42.84375 
Q 18.109375 37.203125 18.109375 27.296875 
Q 18.109375 17.390625 22.1875 11.75 
Q 26.265625 6.109375 33.40625 6.109375 
Q 40.53125 6.109375 44.609375 11.75 
Q 48.6875 17.390625 48.6875 27.296875 
" id="BitstreamVeraSans-Roman-70"/>
     </defs>
     <g transform="translate(224.7174375 388.291875)scale(0.12 -0.12)">
      <use xlink:href="#BitstreamVeraSans-Roman-67"/>
      <use x="63.4765625" xlink:href="#BitstreamVeraSans-Roman-65"/>
      <use x="125.0" xlink:href="#BitstreamVeraSans-Roman-6e"/>
      <use x="188.37890625" xlink:href="#BitstreamVeraSans-Roman-65"/>
      <use x="249.90234375" xlink:href="#BitstreamVeraSans-Roman-20"/>
      <use x="281.689453125" xlink:href="#BitstreamVeraSans-Roman-74"/>
      <use x="320.8984375" xlink:href="#BitstreamVeraSans-Roman-79"/>
      <use x="380.078125" xlink:href="#BitstreamVeraSans-Roman-70"/>
      <use x="443.5546875" xlink:href="#BitstreamVeraSans-Roman-65"/>
     </g>
    </g>
   </g>
   <g id="matplotlib.axis_2">
    <g id="ytick_1">
     <g id="line2d_13">
      <defs>
       <path d="M 0 0 
L 4 0 
" id="m4231003c64" style="stroke:#000000;stroke-width:0.5;"/>
      </defs>
      <g>
       <use style="stroke:#000000;stroke-width:0.5;" x="72.0" xlink:href="#m4231003c64" y="358.56"/>
      </g>
     </g>
     <g id="line2d_14">
      <defs>
       <path d="M 0 0 
L -4 0 
" id="m9218a649ea" style="stroke:#000000;stroke-width:0.5;"/>
      </defs>
      <g>
       <use style="stroke:#000000;stroke-width:0.5;" x="438.048" xlink:href="#m9218a649ea" y="358.56"/>
      </g>
     </g>
     <g id="text_8">
      <!-- 0.0 -->
      <defs>
       <path d="M 31.78125 66.40625 
Q 24.171875 66.40625 20.328125 58.90625 
Q 16.5 51.421875 16.5 36.375 
Q 16.5 21.390625 20.328125 13.890625 
Q 24.171875 6.390625 31.78125 6.390625 
Q 39.453125 6.390625 43.28125 13.890625 
Q 47.125 21.390625 47.125 36.375 
Q 47.125 51.421875 43.28125 58.90625 
Q 39.453125 66.40625 31.78125 66.40625 
M 31.78125 74.21875 
Q 44.046875 74.21875 50.515625 64.515625 
Q 56.984375 54.828125 56.984375 36.375 
Q 56.984375 17.96875 50.515625 8.265625 
Q 44.046875 -1.421875 31.78125 -1.421875 
Q 19.53125 -1.421875 13.0625 8.265625 
Q 6.59375 17.96875 6.59375 36.375 
Q 6.59375 54.828125 13.0625 64.515625 
Q 19.53125 74.21875 31.78125 74.21875 
" id="BitstreamVeraSans-Roman-30"/>
       <path d="M 10.6875 12.40625 
L 21 12.40625 
L 21 0 
L 10.6875 0 
z
" id="BitstreamVeraSans-Roman-2e"/>
      </defs>
      <g transform="translate(48.91625 361.87125)scale(0.12 -0.12)">
       <use xlink:href="#BitstreamVeraSans-Roman-30"/>
       <use x="63.623046875" xlink:href="#BitstreamVeraSans-Roman-2e"/>
       <use x="95.41015625" xlink:href="#BitstreamVeraSans-Roman-30"/>
      </g>
     </g>
    </g>
    <g id="ytick_2">
     <g id="line2d_15">
      <g>
       <use style="stroke:#000000;stroke-width:0.5;" x="72.0" xlink:href="#m4231003c64" y="296.352"/>
      </g>
     </g>
     <g id="line2d_16">
      <g>
       <use style="stroke:#000000;stroke-width:0.5;" x="438.048" xlink:href="#m9218a649ea" y="296.352"/>
      </g>
     </g>
     <g id="text_9">
      <!-- 0.2 -->
      <g transform="translate(48.91625 299.66325)scale(0.12 -0.12)">
       <use xlink:href="#BitstreamVeraSans-Roman-30"/>
       <use x="63.623046875" xlink:href="#BitstreamVeraSans-Roman-2e"/>
       <use x="95.41015625" xlink:href="#BitstreamVeraSans-Roman-32"/>
      </g>
     </g>
    </g>
    <g id="ytick_3">
     <g id="line2d_17">
      <g>
       <use style="stroke:#000000;stroke-width:0.5;" x="72.0" xlink:href="#m4231003c64" y="234.144"/>
      </g>
     </g>
     <g id="line2d_18">
      <g>
       <use style="stroke:#000000;stroke-width:0.5;" x="438.048" xlink:href="#m9218a649ea" y="234.144"/>
      </g>
     </g>
     <g id="text_10">
      <!-- 0.4 -->
      <defs>
       <path d="M 37.796875 64.3125 
L 12.890625 25.390625 
L 37.796875 25.390625 
z
M 35.203125 72.90625 
L 47.609375 72.90625 
L 47.609375 25.390625 
L 58.015625 25.390625 
L 58.015625 17.1875 
L 47.609375 17.1875 
L 47.609375 0 
L 37.796875 0 
L 37.796875 17.1875 
L 4.890625 17.1875 
L 4.890625 26.703125 
z
" id="BitstreamVeraSans-Roman-34"/>
      </defs>
      <g transform="translate(48.91625 237.45525)scale(0.12 -0.12)">
       <use xlink:href="#BitstreamVeraSans-Roman-30"/>
       <use x="63.623046875" xlink:href="#BitstreamVeraSans-Roman-2e"/>
       <use x="95.41015625" xlink:href="#BitstreamVeraSans-Roman-34"/>
      </g>
     </g>
    </g>
    <g id="ytick_4">
     <g id="line2d_19">
      <g>
       <use style="stroke:#000000;stroke-width:0.5;" x="72.0" xlink:href="#m4231003c64" y="171.936"/>
      </g>
     </g>
     <g id="line2d_20">
      <g>
       <use style="stroke:#000000;stroke-width:0.5;" x="438.048" xlink:href="#m9218a649ea" y="171.936"/>
      </g>
     </g>
     <g id="text_11">
      <!-- 0.6 -->
      <defs>
       <path d="M 33.015625 40.375 
Q 26.375 40.375 22.484375 35.828125 
Q 18.609375 31.296875 18.609375 23.390625 
Q 18.609375 15.53125 22.484375 10.953125 
Q 26.375 6.390625 33.015625 6.390625 
Q 39.65625 6.390625 43.53125 10.953125 
Q 47.40625 15.53125 47.40625 23.390625 
Q 47.40625 31.296875 43.53125 35.828125 
Q 39.65625 40.375 33.015625 40.375 
M 52.59375 71.296875 
L 52.59375 62.3125 
Q 48.875 64.0625 45.09375 64.984375 
Q 41.3125 65.921875 37.59375 65.921875 
Q 27.828125 65.921875 22.671875 59.328125 
Q 17.53125 52.734375 16.796875 39.40625 
Q 19.671875 43.65625 24.015625 45.921875 
Q 28.375 48.1875 33.59375 48.1875 
Q 44.578125 48.1875 50.953125 41.515625 
Q 57.328125 34.859375 57.328125 23.390625 
Q 57.328125 12.15625 50.6875 5.359375 
Q 44.046875 -1.421875 33.015625 -1.421875 
Q 20.359375 -1.421875 13.671875 8.265625 
Q 6.984375 17.96875 6.984375 36.375 
Q 6.984375 53.65625 15.1875 63.9375 
Q 23.390625 74.21875 37.203125 74.21875 
Q 40.921875 74.21875 44.703125 73.484375 
Q 48.484375 72.75 52.59375 71.296875 
" id="BitstreamVeraSans-Roman-36"/>
      </defs>
      <g transform="translate(48.91625 175.24725)scale(0.12 -0.12)">
       <use xlink:href="#BitstreamVeraSans-Roman-30"/>
       <use x="63.623046875" xlink:href="#BitstreamVeraSans-Roman-2e"/>
       <use x="95.41015625" xlink:href="#BitstreamVeraSans-Roman-36"/>
      </g>
     </g>
    </g>
    <g id="ytick_5">
     <g id="line2d_21">
      <g>
       <use style="stroke:#000000;stroke-width:0.5;" x="72.0" xlink:href="#m4231003c64" y="109.728"/>
      </g>
     </g>
     <g id="line2d_22">
      <g>
       <use style="stroke:#000000;stroke-width:0.5;" x="438.048" xlink:href="#m9218a649ea" y="109.728"/>
      </g>
     </g>
     <g id="text_12">
      <!-- 0.8 -->
      <defs>
       <path d="M 31.78125 34.625 
Q 24.75 34.625 20.71875 30.859375 
Q 16.703125 27.09375 16.703125 20.515625 
Q 16.703125 13.921875 20.71875 10.15625 
Q 24.75 6.390625 31.78125 6.390625 
Q 38.8125 6.390625 42.859375 10.171875 
Q 46.921875 13.96875 46.921875 20.515625 
Q 46.921875 27.09375 42.890625 30.859375 
Q 38.875 34.625 31.78125 34.625 
M 21.921875 38.8125 
Q 15.578125 40.375 12.03125 44.71875 
Q 8.5 49.078125 8.5 55.328125 
Q 8.5 64.0625 14.71875 69.140625 
Q 20.953125 74.21875 31.78125 74.21875 
Q 42.671875 74.21875 48.875 69.140625 
Q 55.078125 64.0625 55.078125 55.328125 
Q 55.078125 49.078125 51.53125 44.71875 
Q 48 40.375 41.703125 38.8125 
Q 48.828125 37.15625 52.796875 32.3125 
Q 56.78125 27.484375 56.78125 20.515625 
Q 56.78125 9.90625 50.3125 4.234375 
Q 43.84375 -1.421875 31.78125 -1.421875 
Q 19.734375 -1.421875 13.25 4.234375 
Q 6.78125 9.90625 6.78125 20.515625 
Q 6.78125 27.484375 10.78125 32.3125 
Q 14.796875 37.15625 21.921875 38.8125 
M 18.3125 54.390625 
Q 18.3125 48.734375 21.84375 45.5625 
Q 25.390625 42.390625 31.78125 42.390625 
Q 38.140625 42.390625 41.71875 45.5625 
Q 45.3125 48.734375 45.3125 54.390625 
Q 45.3125 60.0625 41.71875 63.234375 
Q 38.140625 66.40625 31.78125 66.40625 
Q 25.390625 66.40625 21.84375 63.234375 
Q 18.3125 60.0625 18.3125 54.390625 
" id="BitstreamVeraSans-Roman-38"/>
      </defs>
      <g transform="translate(48.91625 113.03925)scale(0.12 -0.12)">
       <use xlink:href="#BitstreamVeraSans-Roman-30"/>
       <use x="63.623046875" xlink:href="#BitstreamVeraSans-Roman-2e"/>
       <use x="95.41015625" xlink:href="#BitstreamVeraSans-Roman-38"/>
      </g>
     </g>
    </g>
    <g id="ytick_6">
     <g id="line2d_23">
      <g>
       <use style="stroke:#000000;stroke-width:0.5;" x="72.0" xlink:href="#m4231003c64" y="47.52"/>
      </g>
     </g>
     <g id="line2d_24">
      <g>
       <use style="stroke:#000000;stroke-width:0.5;" x="438.048" xlink:href="#m9218a649ea" y="47.52"/>
      </g>
     </g>
     <g id="text_13">
      <!-- 1.0 -->
      <g transform="translate(48.91625 50.83125)scale(0.12 -0.12)">
       <use xlink:href="#BitstreamVeraSans-Roman-31"/>
       <use x="63.623046875" xlink:href="#BitstreamVeraSans-Roman-2e"/>
       <use x="95.41015625" xlink:href="#BitstreamVeraSans-Roman-30"/>
      </g>
     </g>
    </g>
    <g id="text_14">
     <!-- expression -->
     <defs>
      <path d="M 9.421875 54.6875 
L 18.40625 54.6875 
L 18.40625 0 
L 9.421875 0 
z
M 9.421875 75.984375 
L 18.40625 75.984375 
L 18.40625 64.59375 
L 9.421875 64.59375 
z
" id="BitstreamVeraSans-Roman-69"/>
      <path d="M 30.609375 48.390625 
Q 23.390625 48.390625 19.1875 42.75 
Q 14.984375 37.109375 14.984375 27.296875 
Q 14.984375 17.484375 19.15625 11.84375 
Q 23.34375 6.203125 30.609375 6.203125 
Q 37.796875 6.203125 41.984375 11.859375 
Q 46.1875 17.53125 46.1875 27.296875 
Q 46.1875 37.015625 41.984375 42.703125 
Q 37.796875 48.390625 30.609375 48.390625 
M 30.609375 56 
Q 42.328125 56 49.015625 48.375 
Q 55.71875 40.765625 55.71875 27.296875 
Q 55.71875 13.875 49.015625 6.21875 
Q 42.328125 -1.421875 30.609375 -1.421875 
Q 18.84375 -1.421875 12.171875 6.21875 
Q 5.515625 13.875 5.515625 27.296875 
Q 5.515625 40.765625 12.171875 48.375 
Q 18.84375 56 30.609375 56 
" id="BitstreamVeraSans-Roman-6f"/>
      <path d="M 41.109375 46.296875 
Q 39.59375 47.171875 37.8125 47.578125 
Q 36.03125 48 33.890625 48 
Q 26.265625 48 22.1875 43.046875 
Q 18.109375 38.09375 18.109375 28.8125 
L 18.109375 0 
L 9.078125 0 
L 9.078125 54.6875 
L 18.109375 54.6875 
L 18.109375 46.1875 
Q 20.953125 51.171875 25.484375 53.578125 
Q 30.03125 56 36.53125 56 
Q 37.453125 56 38.578125 55.875 
Q 39.703125 55.765625 41.0625 55.515625 
z
" id="BitstreamVeraSans-Roman-72"/>
      <path d="M 44.28125 53.078125 
L 44.28125 44.578125 
Q 40.484375 46.53125 36.375 47.5 
Q 32.28125 48.484375 27.875 48.484375 
Q 21.1875 48.484375 17.84375 46.4375 
Q 14.5 44.390625 14.5 40.28125 
Q 14.5 37.15625 16.890625 35.375 
Q 19.28125 33.59375 26.515625 31.984375 
L 29.59375 31.296875 
Q 39.15625 29.25 43.1875 25.515625 
Q 47.21875 21.78125 47.21875 15.09375 
Q 47.21875 7.46875 41.1875 3.015625 
Q 35.15625 -1.421875 24.609375 -1.421875 
Q 20.21875 -1.421875 15.453125 -0.5625 
Q 10.6875 0.296875 5.421875 2 
L 5.421875 11.28125 
Q 10.40625 8.6875 15.234375 7.390625 
Q 20.0625 6.109375 24.8125 6.109375 
Q 31.15625 6.109375 34.5625 8.28125 
Q 37.984375 10.453125 37.984375 14.40625 
Q 37.984375 18.0625 35.515625 20.015625 
Q 33.0625 21.96875 24.703125 23.78125 
L 21.578125 24.515625 
Q 13.234375 26.265625 9.515625 29.90625 
Q 5.8125 33.546875 5.8125 39.890625 
Q 5.8125 47.609375 11.28125 51.796875 
Q 16.75 56 26.8125 56 
Q 31.78125 56 36.171875 55.265625 
Q 40.578125 54.546875 44.28125 53.078125 
" id="BitstreamVeraSans-Roman-73"/>
      <path d="M 54.890625 54.6875 
L 35.109375 28.078125 
L 55.90625 0 
L 45.3125 0 
L 29.390625 21.484375 
L 13.484375 0 
L 2.875 0 
L 24.125 28.609375 
L 4.6875 54.6875 
L 15.28125 54.6875 
L 29.78125 35.203125 
L 44.28125 54.6875 
z
" id="BitstreamVeraSans-Roman-78"/>
     </defs>
     <g transform="translate(41.420625 235.6396875)rotate(-90.0)scale(0.12 -0.12)">
      <use xlink:href="#BitstreamVeraSans-Roman-65"/>
      <use x="61.5078125" xlink:href="#BitstreamVeraSans-Roman-78"/>
      <use x="120.6875" xlink:href="#BitstreamVeraSans-Roman-70"/>
      <use x="184.1640625" xlink:href="#BitstreamVeraSans-Roman-72"/>
      <use x="225.24609375" xlink:href="#BitstreamVeraSans-Roman-65"/>
      <use x="286.76953125" xlink:href="#BitstreamVeraSans-Roman-73"/>
      <use x="338.869140625" xlink:href="#BitstreamVeraSans-Roman-73"/>
      <use x="390.96875" xlink:href="#BitstreamVeraSans-Roman-69"/>
      <use x="418.751953125" xlink:href="#BitstreamVeraSans-Roman-6f"/>
      <use x="479.93359375" xlink:href="#BitstreamVeraSans-Roman-6e"/>
     </g>
    </g>
   </g>
   <g id="text_15">
    <!-- Expression of different gene -->
    <defs>
     <path d="M 45.40625 46.390625 
L 45.40625 75.984375 
L 54.390625 75.984375 
L 54.390625 0 
L 45.40625 0 
L 45.40625 8.203125 
Q 42.578125 3.328125 38.25 0.953125 
Q 33.9375 -1.421875 27.875 -1.421875 
Q 17.96875 -1.421875 11.734375 6.484375 
Q 5.515625 14.40625 5.515625 27.296875 
Q 5.515625 40.1875 11.734375 48.09375 
Q 17.96875 56 27.875 56 
Q 33.9375 56 38.25 53.625 
Q 42.578125 51.265625 45.40625 46.390625 
M 14.796875 27.296875 
Q 14.796875 17.390625 18.875 11.75 
Q 22.953125 6.109375 30.078125 6.109375 
Q 37.203125 6.109375 41.296875 11.75 
Q 45.40625 17.390625 45.40625 27.296875 
Q 45.40625 37.203125 41.296875 42.84375 
Q 37.203125 48.484375 30.078125 48.484375 
Q 22.953125 48.484375 18.875 42.84375 
Q 14.796875 37.203125 14.796875 27.296875 
" id="BitstreamVeraSans-Roman-64"/>
     <path d="M 9.8125 72.90625 
L 55.90625 72.90625 
L 55.90625 64.59375 
L 19.671875 64.59375 
L 19.671875 43.015625 
L 54.390625 43.015625 
L 54.390625 34.71875 
L 19.671875 34.71875 
L 19.671875 8.296875 
L 56.78125 8.296875 
L 56.78125 0 
L 9.8125 0 
z
" id="BitstreamVeraSans-Roman-45"/>
     <path d="M 37.109375 75.984375 
L 37.109375 68.5 
L 28.515625 68.5 
Q 23.6875 68.5 21.796875 66.546875 
Q 19.921875 64.59375 19.921875 59.515625 
L 19.921875 54.6875 
L 34.71875 54.6875 
L 34.71875 47.703125 
L 19.921875 47.703125 
L 19.921875 0 
L 10.890625 0 
L 10.890625 47.703125 
L 2.296875 47.703125 
L 2.296875 54.6875 
L 10.890625 54.6875 
L 10.890625 58.5 
Q 10.890625 67.625 15.140625 71.796875 
Q 19.390625 75.984375 28.609375 75.984375 
z
" id="BitstreamVeraSans-Roman-66"/>
    </defs>
    <g transform="translate(153.140625 42.52)scale(0.144 -0.144)">
     <use xlink:href="#BitstreamVeraSans-Roman-45"/>
     <use x="63.18359375" xlink:href="#BitstreamVeraSans-Roman-78"/>
     <use x="122.36328125" xlink:href="#BitstreamVeraSans-Roman-70"/>
     <use x="185.83984375" xlink:href="#BitstreamVeraSans-Roman-72"/>
     <use x="226.921875" xlink:href="#BitstreamVeraSans-Roman-65"/>
     <use x="288.4453125" xlink:href="#BitstreamVeraSans-Roman-73"/>
     <use x="340.544921875" xlink:href="#BitstreamVeraSans-Roman-73"/>
     <use x="392.64453125" xlink:href="#BitstreamVeraSans-Roman-69"/>
     <use x="420.427734375" xlink:href="#BitstreamVeraSans-Roman-6f"/>
     <use x="481.609375" xlink:href="#BitstreamVeraSans-Roman-6e"/>
     <use x="544.98828125" xlink:href="#BitstreamVeraSans-Roman-20"/>
     <use x="576.775390625" xlink:href="#BitstreamVeraSans-Roman-6f"/>
     <use x="637.95703125" xlink:href="#BitstreamVeraSans-Roman-66"/>
     <use x="673.162109375" xlink:href="#BitstreamVeraSans-Roman-20"/>
     <use x="704.94921875" xlink:href="#BitstreamVeraSans-Roman-64"/>
     <use x="768.42578125" xlink:href="#BitstreamVeraSans-Roman-69"/>
     <use x="796.208984375" xlink:href="#BitstreamVeraSans-Roman-66"/>
     <use x="831.4140625" xlink:href="#BitstreamVeraSans-Roman-66"/>
     <use x="866.619140625" xlink:href="#BitstreamVeraSans-Roman-65"/>
     <use x="928.142578125" xlink:href="#BitstreamVeraSans-Roman-72"/>
     <use x="969.224609375" xlink:href="#BitstreamVeraSans-Roman-65"/>
     <use x="1030.74804688" xlink:href="#BitstreamVeraSans-Roman-6e"/>
     <use x="1094.12695312" xlink:href="#BitstreamVeraSans-Roman-74"/>
     <use x="1133.3359375" xlink:href="#BitstreamVeraSans-Roman-20"/>
     <use x="1165.12304688" xlink:href="#BitstreamVeraSans-Roman-67"/>
     <use x="1228.59960938" xlink:href="#BitstreamVeraSans-Roman-65"/>
     <use x="1290.12304688" xlink:href="#BitstreamVeraSans-Roman-6e"/>
     <use x="1353.50195312" xlink:href="#BitstreamVeraSans-Roman-65"/>
    </g>
   </g>
  </g>
  <g id="legend_1">
   <g id="patch_73">
    <path d="M 440.753438 298.229687 
L 559.48 298.229687 
L 559.48 133.770312 
L 440.753438 133.770312 
z
" style="fill:#ffffff;stroke:#000000;stroke-linejoin:miter;"/>
   </g>
   <g id="patch_74">
    <path d="M 444.753438 145.36875 
L 464.753438 145.36875 
L 464.753438 138.36875 
L 444.753438 138.36875 
z
" style="fill:#bcd8e3;"/>
   </g>
   <g id="text_16">
    <!-- exonic -->
    <defs>
     <path d="M 48.78125 52.59375 
L 48.78125 44.1875 
Q 44.96875 46.296875 41.140625 47.34375 
Q 37.3125 48.390625 33.40625 48.390625 
Q 24.65625 48.390625 19.8125 42.84375 
Q 14.984375 37.3125 14.984375 27.296875 
Q 14.984375 17.28125 19.8125 11.734375 
Q 24.65625 6.203125 33.40625 6.203125 
Q 37.3125 6.203125 41.140625 7.25 
Q 44.96875 8.296875 48.78125 10.40625 
L 48.78125 2.09375 
Q 45.015625 0.34375 40.984375 -0.53125 
Q 36.96875 -1.421875 32.421875 -1.421875 
Q 20.0625 -1.421875 12.78125 6.34375 
Q 5.515625 14.109375 5.515625 27.296875 
Q 5.515625 40.671875 12.859375 48.328125 
Q 20.21875 56 33.015625 56 
Q 37.15625 56 41.109375 55.140625 
Q 45.0625 54.296875 48.78125 52.59375 
" id="BitstreamVeraSans-Roman-63"/>
    </defs>
    <g transform="translate(472.7534375 145.36875)scale(0.1 -0.1)">
     <use xlink:href="#BitstreamVeraSans-Roman-65"/>
     <use x="61.5078125" xlink:href="#BitstreamVeraSans-Roman-78"/>
     <use x="120.640625" xlink:href="#BitstreamVeraSans-Roman-6f"/>
     <use x="181.822265625" xlink:href="#BitstreamVeraSans-Roman-6e"/>
     <use x="245.201171875" xlink:href="#BitstreamVeraSans-Roman-69"/>
     <use x="272.984375" xlink:href="#BitstreamVeraSans-Roman-63"/>
    </g>
   </g>
   <g id="patch_75">
    <path d="M 444.753438 160.046875 
L 464.753438 160.046875 
L 464.753438 153.046875 
L 444.753438 153.046875 
z
" style="fill:#afcdd8;"/>
   </g>
   <g id="text_17">
    <!-- exonic&amp;splicing -->
    <defs>
     <path d="M 9.421875 75.984375 
L 18.40625 75.984375 
L 18.40625 0 
L 9.421875 0 
z
" id="BitstreamVeraSans-Roman-6c"/>
     <path d="M 24.3125 39.203125 
Q 19.875 35.25 17.796875 31.3125 
Q 15.71875 27.390625 15.71875 23.09375 
Q 15.71875 15.96875 20.890625 11.234375 
Q 26.078125 6.5 33.890625 6.5 
Q 38.53125 6.5 42.578125 8.03125 
Q 46.625 9.578125 50.203125 12.703125 
z
M 31.203125 44.671875 
L 56 19.28125 
Q 58.890625 23.640625 60.5 28.59375 
Q 62.109375 33.546875 62.40625 39.109375 
L 71.484375 39.109375 
Q 70.90625 32.671875 68.359375 26.359375 
Q 65.828125 20.0625 61.28125 13.921875 
L 74.90625 0 
L 62.59375 0 
L 55.609375 7.171875 
Q 50.53125 2.828125 44.96875 0.703125 
Q 39.40625 -1.421875 33.015625 -1.421875 
Q 21.234375 -1.421875 13.765625 5.296875 
Q 6.296875 12.015625 6.296875 22.515625 
Q 6.296875 28.765625 9.5625 34.25 
Q 12.84375 39.75 19.390625 44.578125 
Q 17.046875 47.65625 15.8125 50.703125 
Q 14.59375 53.765625 14.59375 56.6875 
Q 14.59375 64.59375 20.015625 69.40625 
Q 25.4375 74.21875 34.421875 74.21875 
Q 38.484375 74.21875 42.5 73.34375 
Q 46.53125 72.46875 50.6875 70.703125 
L 50.6875 61.8125 
Q 46.4375 64.109375 42.578125 65.296875 
Q 38.71875 66.5 35.40625 66.5 
Q 30.28125 66.5 27.078125 63.78125 
Q 23.875 61.078125 23.875 56.78125 
Q 23.875 54.296875 25.3125 51.78125 
Q 26.765625 49.265625 31.203125 44.671875 
" id="BitstreamVeraSans-Roman-26"/>
    </defs>
    <g transform="translate(472.7534375 160.046875)scale(0.1 -0.1)">
     <use xlink:href="#BitstreamVeraSans-Roman-65"/>
     <use x="61.5078125" xlink:href="#BitstreamVeraSans-Roman-78"/>
     <use x="120.640625" xlink:href="#BitstreamVeraSans-Roman-6f"/>
     <use x="181.822265625" xlink:href="#BitstreamVeraSans-Roman-6e"/>
     <use x="245.201171875" xlink:href="#BitstreamVeraSans-Roman-69"/>
     <use x="272.984375" xlink:href="#BitstreamVeraSans-Roman-63"/>
     <use x="327.96484375" xlink:href="#BitstreamVeraSans-Roman-26"/>
     <use x="405.943359375" xlink:href="#BitstreamVeraSans-Roman-73"/>
     <use x="458.04296875" xlink:href="#BitstreamVeraSans-Roman-70"/>
     <use x="521.51953125" xlink:href="#BitstreamVeraSans-Roman-6c"/>
     <use x="549.302734375" xlink:href="#BitstreamVeraSans-Roman-69"/>
     <use x="577.0859375" xlink:href="#BitstreamVeraSans-Roman-63"/>
     <use x="632.06640625" xlink:href="#BitstreamVeraSans-Roman-69"/>
     <use x="659.849609375" xlink:href="#BitstreamVeraSans-Roman-6e"/>
     <use x="723.228515625" xlink:href="#BitstreamVeraSans-Roman-67"/>
    </g>
   </g>
   <g id="patch_76">
    <path d="M 444.753438 174.725 
L 464.753438 174.725 
L 464.753438 167.725 
L 444.753438 167.725 
z
" style="fill:#f7af02;"/>
   </g>
   <g id="text_18">
    <!-- splicing -->
    <g transform="translate(472.7534375 174.725)scale(0.1 -0.1)">
     <use xlink:href="#BitstreamVeraSans-Roman-73"/>
     <use x="52.099609375" xlink:href="#BitstreamVeraSans-Roman-70"/>
     <use x="115.576171875" xlink:href="#BitstreamVeraSans-Roman-6c"/>
     <use x="143.359375" xlink:href="#BitstreamVeraSans-Roman-69"/>
     <use x="171.142578125" xlink:href="#BitstreamVeraSans-Roman-63"/>
     <use x="226.123046875" xlink:href="#BitstreamVeraSans-Roman-69"/>
     <use x="253.90625" xlink:href="#BitstreamVeraSans-Roman-6e"/>
     <use x="317.28515625" xlink:href="#BitstreamVeraSans-Roman-67"/>
    </g>
   </g>
   <g id="patch_77">
    <path d="M 444.753438 189.403125 
L 464.753438 189.403125 
L 464.753438 182.403125 
L 444.753438 182.403125 
z
" style="fill:#bda09c;"/>
   </g>
   <g id="text_19">
    <!-- UTR3 -->
    <defs>
     <path d="M -0.296875 72.90625 
L 61.375 72.90625 
L 61.375 64.59375 
L 35.5 64.59375 
L 35.5 0 
L 25.59375 0 
L 25.59375 64.59375 
L -0.296875 64.59375 
z
" id="BitstreamVeraSans-Roman-54"/>
    </defs>
    <g transform="translate(472.7534375 189.403125)scale(0.1 -0.1)">
     <use xlink:href="#BitstreamVeraSans-Roman-55"/>
     <use x="73.193359375" xlink:href="#BitstreamVeraSans-Roman-54"/>
     <use x="134.27734375" xlink:href="#BitstreamVeraSans-Roman-52"/>
     <use x="203.759765625" xlink:href="#BitstreamVeraSans-Roman-33"/>
    </g>
   </g>
   <g id="patch_78">
    <path d="M 444.753438 204.08125 
L 464.753438 204.08125 
L 464.753438 197.08125 
L 444.753438 197.08125 
z
" style="fill:#7c976a;"/>
   </g>
   <g id="text_20">
    <!-- UTR5 -->
    <defs>
     <path d="M 10.796875 72.90625 
L 49.515625 72.90625 
L 49.515625 64.59375 
L 19.828125 64.59375 
L 19.828125 46.734375 
Q 21.96875 47.46875 24.109375 47.828125 
Q 26.265625 48.1875 28.421875 48.1875 
Q 40.625 48.1875 47.75 41.5 
Q 54.890625 34.8125 54.890625 23.390625 
Q 54.890625 11.625 47.5625 5.09375 
Q 40.234375 -1.421875 26.90625 -1.421875 
Q 22.3125 -1.421875 17.546875 -0.640625 
Q 12.796875 0.140625 7.71875 1.703125 
L 7.71875 11.625 
Q 12.109375 9.234375 16.796875 8.0625 
Q 21.484375 6.890625 26.703125 6.890625 
Q 35.15625 6.890625 40.078125 11.328125 
Q 45.015625 15.765625 45.015625 23.390625 
Q 45.015625 31 40.078125 35.4375 
Q 35.15625 39.890625 26.703125 39.890625 
Q 22.75 39.890625 18.8125 39.015625 
Q 14.890625 38.140625 10.796875 36.28125 
z
" id="BitstreamVeraSans-Roman-35"/>
    </defs>
    <g transform="translate(472.7534375 204.08125)scale(0.1 -0.1)">
     <use xlink:href="#BitstreamVeraSans-Roman-55"/>
     <use x="73.193359375" xlink:href="#BitstreamVeraSans-Roman-54"/>
     <use x="134.27734375" xlink:href="#BitstreamVeraSans-Roman-52"/>
     <use x="203.759765625" xlink:href="#BitstreamVeraSans-Roman-35"/>
    </g>
   </g>
   <g id="patch_79">
    <path d="M 444.753438 218.759375 
L 464.753438 218.759375 
L 464.753438 211.759375 
L 444.753438 211.759375 
z
" style="fill:#898a82;"/>
   </g>
   <g id="text_21">
    <!-- UTR5&amp;UTR3 -->
    <g transform="translate(472.7534375 218.759375)scale(0.1 -0.1)">
     <use xlink:href="#BitstreamVeraSans-Roman-55"/>
     <use x="73.193359375" xlink:href="#BitstreamVeraSans-Roman-54"/>
     <use x="134.27734375" xlink:href="#BitstreamVeraSans-Roman-52"/>
     <use x="203.759765625" xlink:href="#BitstreamVeraSans-Roman-35"/>
     <use x="267.3828125" xlink:href="#BitstreamVeraSans-Roman-26"/>
     <use x="345.361328125" xlink:href="#BitstreamVeraSans-Roman-55"/>
     <use x="418.5546875" xlink:href="#BitstreamVeraSans-Roman-54"/>
     <use x="479.638671875" xlink:href="#BitstreamVeraSans-Roman-52"/>
     <use x="549.12109375" xlink:href="#BitstreamVeraSans-Roman-33"/>
    </g>
   </g>
   <g id="patch_80">
    <path d="M 444.753438 233.4375 
L 464.753438 233.4375 
L 464.753438 226.4375 
L 444.753438 226.4375 
z
" style="fill:#0c5c4f;"/>
   </g>
   <g id="text_22">
    <!-- intronic -->
    <g transform="translate(472.7534375 233.4375)scale(0.1 -0.1)">
     <use xlink:href="#BitstreamVeraSans-Roman-69"/>
     <use x="27.783203125" xlink:href="#BitstreamVeraSans-Roman-6e"/>
     <use x="91.162109375" xlink:href="#BitstreamVeraSans-Roman-74"/>
     <use x="130.37109375" xlink:href="#BitstreamVeraSans-Roman-72"/>
     <use x="171.453125" xlink:href="#BitstreamVeraSans-Roman-6f"/>
     <use x="232.634765625" xlink:href="#BitstreamVeraSans-Roman-6e"/>
     <use x="296.013671875" xlink:href="#BitstreamVeraSans-Roman-69"/>
     <use x="323.796875" xlink:href="#BitstreamVeraSans-Roman-63"/>
    </g>
   </g>
   <g id="patch_81">
    <path d="M 444.753438 248.115625 
L 464.753438 248.115625 
L 464.753438 241.115625 
L 444.753438 241.115625 
z
" style="fill:#75625e;"/>
   </g>
   <g id="text_23">
    <!-- upstream -->
    <defs>
     <path d="M 52 44.1875 
Q 55.375 50.25 60.0625 53.125 
Q 64.75 56 71.09375 56 
Q 79.640625 56 84.28125 50.015625 
Q 88.921875 44.046875 88.921875 33.015625 
L 88.921875 0 
L 79.890625 0 
L 79.890625 32.71875 
Q 79.890625 40.578125 77.09375 44.375 
Q 74.3125 48.1875 68.609375 48.1875 
Q 61.625 48.1875 57.5625 43.546875 
Q 53.515625 38.921875 53.515625 30.90625 
L 53.515625 0 
L 44.484375 0 
L 44.484375 32.71875 
Q 44.484375 40.625 41.703125 44.40625 
Q 38.921875 48.1875 33.109375 48.1875 
Q 26.21875 48.1875 22.15625 43.53125 
Q 18.109375 38.875 18.109375 30.90625 
L 18.109375 0 
L 9.078125 0 
L 9.078125 54.6875 
L 18.109375 54.6875 
L 18.109375 46.1875 
Q 21.1875 51.21875 25.484375 53.609375 
Q 29.78125 56 35.6875 56 
Q 41.65625 56 45.828125 52.96875 
Q 50 49.953125 52 44.1875 
" id="BitstreamVeraSans-Roman-6d"/>
     <path d="M 8.5 21.578125 
L 8.5 54.6875 
L 17.484375 54.6875 
L 17.484375 21.921875 
Q 17.484375 14.15625 20.5 10.265625 
Q 23.53125 6.390625 29.59375 6.390625 
Q 36.859375 6.390625 41.078125 11.03125 
Q 45.3125 15.671875 45.3125 23.6875 
L 45.3125 54.6875 
L 54.296875 54.6875 
L 54.296875 0 
L 45.3125 0 
L 45.3125 8.40625 
Q 42.046875 3.421875 37.71875 1 
Q 33.40625 -1.421875 27.6875 -1.421875 
Q 18.265625 -1.421875 13.375 4.4375 
Q 8.5 10.296875 8.5 21.578125 
" id="BitstreamVeraSans-Roman-75"/>
     <path d="M 34.28125 27.484375 
Q 23.390625 27.484375 19.1875 25 
Q 14.984375 22.515625 14.984375 16.5 
Q 14.984375 11.71875 18.140625 8.90625 
Q 21.296875 6.109375 26.703125 6.109375 
Q 34.1875 6.109375 38.703125 11.40625 
Q 43.21875 16.703125 43.21875 25.484375 
L 43.21875 27.484375 
z
M 52.203125 31.203125 
L 52.203125 0 
L 43.21875 0 
L 43.21875 8.296875 
Q 40.140625 3.328125 35.546875 0.953125 
Q 30.953125 -1.421875 24.3125 -1.421875 
Q 15.921875 -1.421875 10.953125 3.296875 
Q 6 8.015625 6 15.921875 
Q 6 25.140625 12.171875 29.828125 
Q 18.359375 34.515625 30.609375 34.515625 
L 43.21875 34.515625 
L 43.21875 35.40625 
Q 43.21875 41.609375 39.140625 45 
Q 35.0625 48.390625 27.6875 48.390625 
Q 23 48.390625 18.546875 47.265625 
Q 14.109375 46.140625 10.015625 43.890625 
L 10.015625 52.203125 
Q 14.9375 54.109375 19.578125 55.046875 
Q 24.21875 56 28.609375 56 
Q 40.484375 56 46.34375 49.84375 
Q 52.203125 43.703125 52.203125 31.203125 
" id="BitstreamVeraSans-Roman-61"/>
    </defs>
    <g transform="translate(472.7534375 248.115625)scale(0.1 -0.1)">
     <use xlink:href="#BitstreamVeraSans-Roman-75"/>
     <use x="63.37890625" xlink:href="#BitstreamVeraSans-Roman-70"/>
     <use x="126.85546875" xlink:href="#BitstreamVeraSans-Roman-73"/>
     <use x="178.955078125" xlink:href="#BitstreamVeraSans-Roman-74"/>
     <use x="218.1640625" xlink:href="#BitstreamVeraSans-Roman-72"/>
     <use x="259.24609375" xlink:href="#BitstreamVeraSans-Roman-65"/>
     <use x="320.76953125" xlink:href="#BitstreamVeraSans-Roman-61"/>
     <use x="382.048828125" xlink:href="#BitstreamVeraSans-Roman-6d"/>
    </g>
   </g>
   <g id="patch_82">
    <path d="M 444.753438 262.79375 
L 464.753438 262.79375 
L 464.753438 255.79375 
L 444.753438 255.79375 
z
" style="fill:#8ac2bf;"/>
   </g>
   <g id="text_24">
    <!-- downstream -->
    <defs>
     <path d="M 4.203125 54.6875 
L 13.1875 54.6875 
L 24.421875 12.015625 
L 35.59375 54.6875 
L 46.1875 54.6875 
L 57.421875 12.015625 
L 68.609375 54.6875 
L 77.59375 54.6875 
L 63.28125 0 
L 52.6875 0 
L 40.921875 44.828125 
L 29.109375 0 
L 18.5 0 
z
" id="BitstreamVeraSans-Roman-77"/>
    </defs>
    <g transform="translate(472.7534375 262.79375)scale(0.1 -0.1)">
     <use xlink:href="#BitstreamVeraSans-Roman-64"/>
     <use x="63.4765625" xlink:href="#BitstreamVeraSans-Roman-6f"/>
     <use x="124.658203125" xlink:href="#BitstreamVeraSans-Roman-77"/>
     <use x="206.4453125" xlink:href="#BitstreamVeraSans-Roman-6e"/>
     <use x="269.82421875" xlink:href="#BitstreamVeraSans-Roman-73"/>
     <use x="321.923828125" xlink:href="#BitstreamVeraSans-Roman-74"/>
     <use x="361.1328125" xlink:href="#BitstreamVeraSans-Roman-72"/>
     <use x="402.21484375" xlink:href="#BitstreamVeraSans-Roman-65"/>
     <use x="463.73828125" xlink:href="#BitstreamVeraSans-Roman-61"/>
     <use x="525.017578125" xlink:href="#BitstreamVeraSans-Roman-6d"/>
    </g>
   </g>
   <g id="patch_83">
    <path d="M 444.753438 277.471875 
L 464.753438 277.471875 
L 464.753438 270.471875 
L 444.753438 270.471875 
z
" style="fill:#e8e098;"/>
   </g>
   <g id="text_25">
    <!-- up&amp;downstream -->
    <g transform="translate(472.7534375 277.471875)scale(0.1 -0.1)">
     <use xlink:href="#BitstreamVeraSans-Roman-75"/>
     <use x="63.37890625" xlink:href="#BitstreamVeraSans-Roman-70"/>
     <use x="126.85546875" xlink:href="#BitstreamVeraSans-Roman-26"/>
     <use x="204.833984375" xlink:href="#BitstreamVeraSans-Roman-64"/>
     <use x="268.310546875" xlink:href="#BitstreamVeraSans-Roman-6f"/>
     <use x="329.4921875" xlink:href="#BitstreamVeraSans-Roman-77"/>
     <use x="411.279296875" xlink:href="#BitstreamVeraSans-Roman-6e"/>
     <use x="474.658203125" xlink:href="#BitstreamVeraSans-Roman-73"/>
     <use x="526.7578125" xlink:href="#BitstreamVeraSans-Roman-74"/>
     <use x="565.966796875" xlink:href="#BitstreamVeraSans-Roman-72"/>
     <use x="607.048828125" xlink:href="#BitstreamVeraSans-Roman-65"/>
     <use x="668.572265625" xlink:href="#BitstreamVeraSans-Roman-61"/>
     <use x="729.8515625" xlink:href="#BitstreamVeraSans-Roman-6d"/>
    </g>
   </g>
   <g id="patch_84">
    <path d="M 444.753438 292.15 
L 464.753438 292.15 
L 464.753438 285.15 
L 444.753438 285.15 
z
" style="fill:#ffe983;"/>
   </g>
   <g id="text_26">
    <!-- intergenic -->
    <g transform="translate(472.7534375 292.15)scale(0.1 -0.1)">
     <use xlink:href="#BitstreamVeraSans-Roman-69"/>
     <use x="27.783203125" xlink:href="#BitstreamVeraSans-Roman-6e"/>
     <use x="91.162109375" xlink:href="#BitstreamVeraSans-Roman-74"/>
     <use x="130.37109375" xlink:href="#BitstreamVeraSans-Roman-65"/>
     <use x="191.89453125" xlink:href="#BitstreamVeraSans-Roman-72"/>
     <use x="232.9921875" xlink:href="#BitstreamVeraSans-Roman-67"/>
     <use x="296.46875" xlink:href="#BitstreamVeraSans-Roman-65"/>
     <use x="357.9921875" xlink:href="#BitstreamVeraSans-Roman-6e"/>
     <use x="421.37109375" xlink:href="#BitstreamVeraSans-Roman-69"/>
     <use x="449.154296875" xlink:href="#BitstreamVeraSans-Roman-63"/>
    </g>
   </g>
  </g>
 </g>
 <defs>
  <clipPath id="pf9b58acebe">
   <rect height="311.04" width="366.048" x="72.0" y="47.52"/>
  </clipPath>
 </defs>
</svg>
