<?xml version="1.0" encoding="utf-8" standalone="no"?>
<!DOCTYPE svg PUBLIC "-//W3C//DTD SVG 1.1//EN"
  "http://www.w3.org/Graphics/SVG/1.1/DTD/svg11.dtd">
<!-- Created with matplotlib (http://matplotlib.org/) -->
<svg height="432pt" version="1.1" viewBox="0 0 576 432" width="576pt" xmlns="http://www.w3.org/2000/svg" xmlns:xlink="http://www.w3.org/1999/xlink">
 <defs>
  <style type="text/css">
*{stroke-linecap:butt;stroke-linejoin:round;}
  </style>
 </defs>
 <g id="figure_1">
  <g id="patch_1">
   <path d="
M0 432
L576 432
L576 0
L0 0
z
" style="fill:#ffffff;"/>
  </g>
  <g id="patch_2">
   <path d="
M72 388.8
L518.4 388.8
L518.4 43.2
L72 43.2
z
" style="fill:#ffffff;"/>
  </g>
  <g id="pane3d_1">
   <g id="patch_3">
    <path d="
M131.177 312.435
L258.939 227.701
L256.812 65.7899
L121.927 141.921" style="fill:#f2f2f2;opacity:0.5;stroke:#f2f2f2;"/>
   </g>
  </g>
  <g id="pane3d_2">
   <g id="patch_4">
    <path d="
M258.939 227.701
L465.902 275.073
L474.561 108.279
L256.812 65.7899" style="fill:#e6e6e6;opacity:0.5;stroke:#e6e6e6;"/>
   </g>
  </g>
  <g id="pane3d_3">
   <g id="patch_5">
    <path d="
M131.177 312.435
L348.93 367.606
L465.902 275.073
L258.939 227.701" style="fill:#ececec;opacity:0.5;stroke:#ececec;"/>
   </g>
  </g>
  <g id="axis3d_1">
   <g id="line2d_1">
    <path d="
M131.177 312.435
L348.93 367.606" style="fill:none;stroke:#000000;stroke-linecap:square;stroke-width:0.75;"/>
   </g>
   <g id="text_1">
    <!-- X -->
    <defs>
     <path d="
M6.29688 72.9062
L16.8906 72.9062
L35.0156 45.7969
L53.2188 72.9062
L63.8125 72.9062
L40.375 37.8906
L65.375 0
L54.7812 0
L34.2812 31
L13.625 0
L2.98438 0
L29 38.9219
z
" id="BitstreamVeraSans-Roman-58"/>
    </defs>
    <g transform="translate(217.252469092 376.029838363)scale(0.12 -0.12)">
     <use xlink:href="#BitstreamVeraSans-Roman-58"/>
    </g>
   </g>
   <g id="Line3DCollection_1">
    <defs>
     <path d="
M135.341 -118.51
L262.91 -203.39
L260.981 -365.397" id="C0_0_07aeb28047"/>
     <path d="
M175.7 -108.285
L301.369 -194.587
L301.376 -357.514" id="C0_1_9dc335ff6c"/>
     <path d="
M216.764 -97.8805
L340.45 -185.642
L342.458 -349.498" id="C0_2_0eaf49ab41"/>
     <path d="
M258.551 -87.2929
L380.17 -176.55
L384.246 -341.344" id="C0_3_a9f5a67d51"/>
     <path d="
M301.082 -76.517
L420.543 -167.309
L426.757 -333.049" id="C0_4_15922f999f"/>
     <path d="
M344.375 -65.5477
L461.587 -157.915
L470.012 -324.609" id="C0_5_01854ad9a3"/>
    </defs>
    <use style="fill:none;stroke:#e6e6e6;" x="0.0" xlink:href="#C0_0_07aeb28047" y="432.0"/>
    <use style="fill:none;stroke:#e6e6e6;" x="0.0" xlink:href="#C0_1_9dc335ff6c" y="432.0"/>
    <use style="fill:none;stroke:#e6e6e6;" x="0.0" xlink:href="#C0_2_0eaf49ab41" y="432.0"/>
    <use style="fill:none;stroke:#e6e6e6;" x="0.0" xlink:href="#C0_3_a9f5a67d51" y="432.0"/>
    <use style="fill:none;stroke:#e6e6e6;" x="0.0" xlink:href="#C0_4_15922f999f" y="432.0"/>
    <use style="fill:none;stroke:#e6e6e6;" x="0.0" xlink:href="#C0_5_01854ad9a3" y="432.0"/>
   </g>
   <g id="xtick_1">
    <g id="line2d_2">
     <path d="
M136.44 312.758
L133.139 314.955" style="fill:none;stroke:#000000;stroke-linecap:square;"/>
    </g>
    <g id="text_2">
     <!-- 0 -->
     <defs>
      <path d="
M31.7812 66.4062
Q24.1719 66.4062 20.3281 58.9062
Q16.5 51.4219 16.5 36.375
Q16.5 21.3906 20.3281 13.8906
Q24.1719 6.39062 31.7812 6.39062
Q39.4531 6.39062 43.2812 13.8906
Q47.125 21.3906 47.125 36.375
Q47.125 51.4219 43.2812 58.9062
Q39.4531 66.4062 31.7812 66.4062
M31.7812 74.2188
Q44.0469 74.2188 50.5156 64.5156
Q56.9844 54.8281 56.9844 36.375
Q56.9844 17.9688 50.5156 8.26562
Q44.0469 -1.42188 31.7812 -1.42188
Q19.5312 -1.42188 13.0625 8.26562
Q6.59375 17.9688 6.59375 36.375
Q6.59375 54.8281 13.0625 64.5156
Q19.5312 74.2188 31.7812 74.2188" id="BitstreamVeraSans-Roman-30"/>
     </defs>
     <g transform="translate(125.090041702 336.810910604)scale(0.12 -0.12)">
      <use xlink:href="#BitstreamVeraSans-Roman-30"/>
     </g>
    </g>
   </g>
   <g id="xtick_2">
    <g id="line2d_3">
     <path d="
M176.783 322.971
L173.529 325.206" style="fill:none;stroke:#000000;stroke-linecap:square;"/>
    </g>
    <g id="text_3">
     <!-- 2 -->
     <defs>
      <path d="
M19.1875 8.29688
L53.6094 8.29688
L53.6094 0
L7.32812 0
L7.32812 8.29688
Q12.9375 14.1094 22.625 23.8906
Q32.3281 33.6875 34.8125 36.5312
Q39.5469 41.8438 41.4219 45.5312
Q43.3125 49.2188 43.3125 52.7812
Q43.3125 58.5938 39.2344 62.25
Q35.1562 65.9219 28.6094 65.9219
Q23.9688 65.9219 18.8125 64.3125
Q13.6719 62.7031 7.8125 59.4219
L7.8125 69.3906
Q13.7656 71.7812 18.9375 73
Q24.125 74.2188 28.4219 74.2188
Q39.75 74.2188 46.4844 68.5469
Q53.2188 62.8906 53.2188 53.4219
Q53.2188 48.9219 51.5312 44.8906
Q49.8594 40.875 45.4062 35.4062
Q44.1875 33.9844 37.6406 27.2188
Q31.1094 20.4531 19.1875 8.29688" id="BitstreamVeraSans-Roman-32"/>
     </defs>
     <g transform="translate(165.691347514 347.174614101)scale(0.12 -0.12)">
      <use xlink:href="#BitstreamVeraSans-Roman-32"/>
     </g>
    </g>
   </g>
   <g id="xtick_3">
    <g id="line2d_4">
     <path d="
M217.83 333.363
L214.626 335.636" style="fill:none;stroke:#000000;stroke-linecap:square;"/>
    </g>
    <g id="text_4">
     <!-- 4 -->
     <defs>
      <path d="
M37.7969 64.3125
L12.8906 25.3906
L37.7969 25.3906
z

M35.2031 72.9062
L47.6094 72.9062
L47.6094 25.3906
L58.0156 25.3906
L58.0156 17.1875
L47.6094 17.1875
L47.6094 0
L37.7969 0
L37.7969 17.1875
L4.89062 17.1875
L4.89062 26.7031
z
" id="BitstreamVeraSans-Roman-34"/>
     </defs>
     <g transform="translate(206.341597038 357.719662688)scale(0.12 -0.12)">
      <use xlink:href="#BitstreamVeraSans-Roman-34"/>
     </g>
    </g>
   </g>
   <g id="xtick_4">
    <g id="line2d_5">
     <path d="
M259.601 343.937
L256.448 346.251" style="fill:none;stroke:#000000;stroke-linecap:square;"/>
    </g>
    <g id="text_5">
     <!-- 6 -->
     <defs>
      <path d="
M33.0156 40.375
Q26.375 40.375 22.4844 35.8281
Q18.6094 31.2969 18.6094 23.3906
Q18.6094 15.5312 22.4844 10.9531
Q26.375 6.39062 33.0156 6.39062
Q39.6562 6.39062 43.5312 10.9531
Q47.4062 15.5312 47.4062 23.3906
Q47.4062 31.2969 43.5312 35.8281
Q39.6562 40.375 33.0156 40.375
M52.5938 71.2969
L52.5938 62.3125
Q48.875 64.0625 45.0938 64.9844
Q41.3125 65.9219 37.5938 65.9219
Q27.8281 65.9219 22.6719 59.3281
Q17.5312 52.7344 16.7969 39.4062
Q19.6719 43.6562 24.0156 45.9219
Q28.375 48.1875 33.5938 48.1875
Q44.5781 48.1875 50.9531 41.5156
Q57.3281 34.8594 57.3281 23.3906
Q57.3281 12.1562 50.6875 5.35938
Q44.0469 -1.42188 33.0156 -1.42188
Q20.3594 -1.42188 13.6719 8.26562
Q6.98438 17.9688 6.98438 36.375
Q6.98438 53.6562 15.1875 63.9375
Q23.3906 74.2188 37.2031 74.2188
Q40.9219 74.2188 44.7031 73.4844
Q48.4844 72.75 52.5938 71.2969" id="BitstreamVeraSans-Roman-36"/>
     </defs>
     <g transform="translate(248.294175286 368.450858165)scale(0.12 -0.12)">
      <use xlink:href="#BitstreamVeraSans-Roman-36"/>
     </g>
    </g>
   </g>
   <g id="xtick_5">
    <g id="line2d_6">
     <path d="
M302.113 354.699
L299.014 357.054" style="fill:none;stroke:#000000;stroke-linecap:square;"/>
    </g>
    <g id="text_6">
     <!-- 8 -->
     <defs>
      <path d="
M31.7812 34.625
Q24.75 34.625 20.7188 30.8594
Q16.7031 27.0938 16.7031 20.5156
Q16.7031 13.9219 20.7188 10.1562
Q24.75 6.39062 31.7812 6.39062
Q38.8125 6.39062 42.8594 10.1719
Q46.9219 13.9688 46.9219 20.5156
Q46.9219 27.0938 42.8906 30.8594
Q38.875 34.625 31.7812 34.625
M21.9219 38.8125
Q15.5781 40.375 12.0312 44.7188
Q8.5 49.0781 8.5 55.3281
Q8.5 64.0625 14.7188 69.1406
Q20.9531 74.2188 31.7812 74.2188
Q42.6719 74.2188 48.875 69.1406
Q55.0781 64.0625 55.0781 55.3281
Q55.0781 49.0781 51.5312 44.7188
Q48 40.375 41.7031 38.8125
Q48.8281 37.1562 52.7969 32.3125
Q56.7812 27.4844 56.7812 20.5156
Q56.7812 9.90625 50.3125 4.23438
Q43.8438 -1.42188 31.7812 -1.42188
Q19.7344 -1.42188 13.25 4.23438
Q6.78125 9.90625 6.78125 20.5156
Q6.78125 27.4844 10.7812 32.3125
Q14.7969 37.1562 21.9219 38.8125
M18.3125 54.3906
Q18.3125 48.7344 21.8438 45.5625
Q25.3906 42.3906 31.7812 42.3906
Q38.1406 42.3906 41.7188 45.5625
Q45.3125 48.7344 45.3125 54.3906
Q45.3125 60.0625 41.7188 63.2344
Q38.1406 66.4062 31.7812 66.4062
Q25.3906 66.4062 21.8438 63.2344
Q18.3125 60.0625 18.3125 54.3906" id="BitstreamVeraSans-Roman-38"/>
     </defs>
     <g transform="translate(290.844695769 379.373173372)scale(0.12 -0.12)">
      <use xlink:href="#BitstreamVeraSans-Roman-38"/>
     </g>
    </g>
   </g>
   <g id="xtick_6">
    <g id="line2d_7">
     <path d="
M345.388 365.654
L342.345 368.052" style="fill:none;stroke:#000000;stroke-linecap:square;"/>
    </g>
    <g id="text_7">
     <!-- 10 -->
     <defs>
      <path d="
M12.4062 8.29688
L28.5156 8.29688
L28.5156 63.9219
L10.9844 60.4062
L10.9844 69.3906
L28.4219 72.9062
L38.2812 72.9062
L38.2812 8.29688
L54.3906 8.29688
L54.3906 0
L12.4062 0
z
" id="BitstreamVeraSans-Roman-31"/>
     </defs>
     <g transform="translate(330.561342911 390.491759871)scale(0.12 -0.12)">
      <use xlink:href="#BitstreamVeraSans-Roman-31"/>
      <use x="63.623046875" xlink:href="#BitstreamVeraSans-Roman-30"/>
     </g>
    </g>
   </g>
  </g>
  <g id="axis3d_2">
   <g id="line2d_8">
    <path d="
M465.902 275.073
L348.93 367.606" style="fill:none;stroke:#000000;stroke-linecap:square;stroke-width:0.75;"/>
   </g>
   <g id="text_8">
    <!-- Y -->
    <defs>
     <path d="
M-0.203125 72.9062
L10.4062 72.9062
L30.6094 42.9219
L50.6875 72.9062
L61.2812 72.9062
L35.5 34.7188
L35.5 0
L25.5938 0
L25.5938 34.7188
z
" id="BitstreamVeraSans-Roman-59"/>
    </defs>
    <g transform="translate(433.647887946 350.4302763)scale(0.12 -0.12)">
     <use xlink:href="#BitstreamVeraSans-Roman-59"/>
    </g>
   </g>
   <g id="Line3DCollection_2">
    <defs>
     <path d="
M124.84 -291.723
L133.926 -121.388
L351.455 -66.3911" id="C1_0_a86e1d9d19"/>
     <path d="
M152.33 -307.239
L159.888 -138.607
L375.284 -85.2419" id="C1_1_4370ae0a0f"/>
     <path d="
M178.986 -322.284
L185.102 -155.329
L398.396 -103.525" id="C1_2_2e9f36dd3c"/>
     <path d="
M204.846 -336.88
L209.599 -171.576
L420.821 -121.266" id="C1_3_67d73c65ec"/>
     <path d="
M229.944 -351.045
L233.41 -187.368
L442.592 -138.487" id="C1_4_ecef98b17c"/>
     <path d="
M254.314 -364.8
L256.564 -202.724
L463.734 -155.213" id="C1_5_4fc8a8dc00"/>
    </defs>
    <use style="fill:none;stroke:#e6e6e6;" x="0.0" xlink:href="#C1_0_a86e1d9d19" y="432.0"/>
    <use style="fill:none;stroke:#e6e6e6;" x="0.0" xlink:href="#C1_1_4370ae0a0f" y="432.0"/>
    <use style="fill:none;stroke:#e6e6e6;" x="0.0" xlink:href="#C1_2_2e9f36dd3c" y="432.0"/>
    <use style="fill:none;stroke:#e6e6e6;" x="0.0" xlink:href="#C1_3_67d73c65ec" y="432.0"/>
    <use style="fill:none;stroke:#e6e6e6;" x="0.0" xlink:href="#C1_4_ecef98b17c" y="432.0"/>
    <use style="fill:none;stroke:#e6e6e6;" x="0.0" xlink:href="#C1_5_4fc8a8dc00" y="432.0"/>
   </g>
   <g id="xtick_7">
    <g id="line2d_9">
     <path d="
M349.634 365.149
L355.1 366.531" style="fill:none;stroke:#000000;stroke-linecap:square;"/>
    </g>
    <g id="text_9">
     <!-- 0 -->
     <g transform="translate(361.024777747 387.249419635)scale(0.12 -0.12)">
      <use xlink:href="#BitstreamVeraSans-Roman-30"/>
     </g>
    </g>
   </g>
   <g id="xtick_8">
    <g id="line2d_10">
     <path d="
M373.482 346.312
L378.891 347.652" style="fill:none;stroke:#000000;stroke-linecap:square;"/>
    </g>
    <g id="text_10">
     <!-- 2 -->
     <g transform="translate(384.89878377 368.214672308)scale(0.12 -0.12)">
      <use xlink:href="#BitstreamVeraSans-Roman-32"/>
     </g>
    </g>
   </g>
   <g id="xtick_9">
    <g id="line2d_11">
     <path d="
M396.613 328.042
L401.965 329.342" style="fill:none;stroke:#000000;stroke-linecap:square;"/>
    </g>
    <g id="text_11">
     <!-- 4 -->
     <g transform="translate(407.404203496 349.753042268)scale(0.12 -0.12)">
      <use xlink:href="#BitstreamVeraSans-Roman-34"/>
     </g>
    </g>
   </g>
   <g id="xtick_10">
    <g id="line2d_12">
     <path d="
M419.057 310.314
L424.354 311.576" style="fill:none;stroke:#000000;stroke-linecap:square;"/>
    </g>
    <g id="text_12">
     <!-- 6 -->
     <g transform="translate(429.807377174 331.83902942)scale(0.12 -0.12)">
      <use xlink:href="#BitstreamVeraSans-Roman-36"/>
     </g>
    </g>
   </g>
   <g id="xtick_11">
    <g id="line2d_13">
     <path d="
M440.845 293.105
L446.088 294.33" style="fill:none;stroke:#000000;stroke-linecap:square;"/>
    </g>
    <g id="text_13">
     <!-- 8 -->
     <g transform="translate(451.414357198 314.448624352)scale(0.12 -0.12)">
      <use xlink:href="#BitstreamVeraSans-Roman-38"/>
     </g>
    </g>
   </g>
   <g id="xtick_12">
    <g id="line2d_14">
     <path d="
M462.006 276.391
L467.195 277.581" style="fill:none;stroke:#000000;stroke-linecap:square;"/>
    </g>
    <g id="text_14">
     <!-- 10 -->
     <g transform="translate(468.801353871 297.559200973)scale(0.12 -0.12)">
      <use xlink:href="#BitstreamVeraSans-Roman-31"/>
      <use x="63.623046875" xlink:href="#BitstreamVeraSans-Roman-30"/>
     </g>
    </g>
   </g>
  </g>
  <g id="axis3d_3">
   <g id="line2d_15">
    <path d="
M465.902 275.073
L474.561 108.279" style="fill:none;stroke:#000000;stroke-linecap:square;stroke-width:0.75;"/>
   </g>
   <g id="text_15">
    <!-- Height -->
    <defs>
     <path d="
M9.42188 54.6875
L18.4062 54.6875
L18.4062 0
L9.42188 0
z

M9.42188 75.9844
L18.4062 75.9844
L18.4062 64.5938
L9.42188 64.5938
z
" id="BitstreamVeraSans-Roman-69"/>
     <path d="
M54.8906 33.0156
L54.8906 0
L45.9062 0
L45.9062 32.7188
Q45.9062 40.4844 42.875 44.3281
Q39.8438 48.1875 33.7969 48.1875
Q26.5156 48.1875 22.3125 43.5469
Q18.1094 38.9219 18.1094 30.9062
L18.1094 0
L9.07812 0
L9.07812 75.9844
L18.1094 75.9844
L18.1094 46.1875
Q21.3438 51.125 25.7031 53.5625
Q30.0781 56 35.7969 56
Q45.2188 56 50.0469 50.1719
Q54.8906 44.3438 54.8906 33.0156" id="BitstreamVeraSans-Roman-68"/>
     <path d="
M56.2031 29.5938
L56.2031 25.2031
L14.8906 25.2031
Q15.4844 15.9219 20.4844 11.0625
Q25.4844 6.20312 34.4219 6.20312
Q39.5938 6.20312 44.4531 7.46875
Q49.3125 8.73438 54.1094 11.2812
L54.1094 2.78125
Q49.2656 0.734375 44.1875 -0.34375
Q39.1094 -1.42188 33.8906 -1.42188
Q20.7969 -1.42188 13.1562 6.1875
Q5.51562 13.8125 5.51562 26.8125
Q5.51562 40.2344 12.7656 48.1094
Q20.0156 56 32.3281 56
Q43.3594 56 49.7812 48.8906
Q56.2031 41.7969 56.2031 29.5938
M47.2188 32.2344
Q47.125 39.5938 43.0938 43.9844
Q39.0625 48.3906 32.4219 48.3906
Q24.9062 48.3906 20.3906 44.1406
Q15.875 39.8906 15.1875 32.1719
z
" id="BitstreamVeraSans-Roman-65"/>
     <path d="
M18.3125 70.2188
L18.3125 54.6875
L36.8125 54.6875
L36.8125 47.7031
L18.3125 47.7031
L18.3125 18.0156
Q18.3125 11.3281 20.1406 9.42188
Q21.9688 7.51562 27.5938 7.51562
L36.8125 7.51562
L36.8125 0
L27.5938 0
Q17.1875 0 13.2344 3.875
Q9.28125 7.76562 9.28125 18.0156
L9.28125 47.7031
L2.6875 47.7031
L2.6875 54.6875
L9.28125 54.6875
L9.28125 70.2188
z
" id="BitstreamVeraSans-Roman-74"/>
     <path d="
M45.4062 27.9844
Q45.4062 37.75 41.375 43.1094
Q37.3594 48.4844 30.0781 48.4844
Q22.8594 48.4844 18.8281 43.1094
Q14.7969 37.75 14.7969 27.9844
Q14.7969 18.2656 18.8281 12.8906
Q22.8594 7.51562 30.0781 7.51562
Q37.3594 7.51562 41.375 12.8906
Q45.4062 18.2656 45.4062 27.9844
M54.3906 6.78125
Q54.3906 -7.17188 48.1875 -13.9844
Q42 -20.7969 29.2031 -20.7969
Q24.4688 -20.7969 20.2656 -20.0938
Q16.0625 -19.3906 12.1094 -17.9219
L12.1094 -9.1875
Q16.0625 -11.3281 19.9219 -12.3438
Q23.7812 -13.375 27.7812 -13.375
Q36.625 -13.375 41.0156 -8.76562
Q45.4062 -4.15625 45.4062 5.17188
L45.4062 9.625
Q42.625 4.78125 38.2812 2.39062
Q33.9375 0 27.875 0
Q17.8281 0 11.6719 7.65625
Q5.51562 15.3281 5.51562 27.9844
Q5.51562 40.6719 11.6719 48.3281
Q17.8281 56 27.875 56
Q33.9375 56 38.2812 53.6094
Q42.625 51.2188 45.4062 46.3906
L45.4062 54.6875
L54.3906 54.6875
z
" id="BitstreamVeraSans-Roman-67"/>
     <path d="
M9.8125 72.9062
L19.6719 72.9062
L19.6719 43.0156
L55.5156 43.0156
L55.5156 72.9062
L65.375 72.9062
L65.375 0
L55.5156 0
L55.5156 34.7188
L19.6719 34.7188
L19.6719 0
L9.8125 0
z
" id="BitstreamVeraSans-Roman-48"/>
    </defs>
    <g transform="translate(514.793698781 208.667417581)rotate(-87.028170603)scale(0.12 -0.12)">
     <use xlink:href="#BitstreamVeraSans-Roman-48"/>
     <use x="75.1953125" xlink:href="#BitstreamVeraSans-Roman-65"/>
     <use x="136.71875" xlink:href="#BitstreamVeraSans-Roman-69"/>
     <use x="164.501953125" xlink:href="#BitstreamVeraSans-Roman-67"/>
     <use x="227.978515625" xlink:href="#BitstreamVeraSans-Roman-68"/>
     <use x="291.357421875" xlink:href="#BitstreamVeraSans-Roman-74"/>
    </g>
   </g>
   <g id="Line3DCollection_3">
    <defs>
     <path d="
M466.5 -168.452
L258.792 -215.509
L130.539 -131.328" id="C2_0_d8beec6c01"/>
     <path d="
M467.517 -188.035
L258.542 -234.549
L129.454 -151.322" id="C2_1_1287c5131f"/>
     <path d="
M468.546 -207.86
L258.289 -253.816
L128.356 -171.572" id="C2_2_46767154bb"/>
     <path d="
M469.588 -227.933
L258.033 -273.312
L127.243 -192.083" id="C2_3_7945fc97ef"/>
     <path d="
M470.643 -248.257
L257.773 -293.042
L126.116 -212.859" id="C2_4_6f8df28d02"/>
     <path d="
M471.711 -268.837
L257.511 -313.01
L124.974 -233.906" id="C2_5_b1d1089835"/>
     <path d="
M472.793 -289.678
L257.246 -333.221
L123.817 -255.229" id="C2_6_70ddfb3de4"/>
     <path d="
M473.889 -310.786
L256.977 -353.679
L122.645 -276.835" id="C2_7_2c6fbbbc43"/>
    </defs>
    <use style="fill:none;stroke:#e6e6e6;" x="0.0" xlink:href="#C2_0_d8beec6c01" y="432.0"/>
    <use style="fill:none;stroke:#e6e6e6;" x="0.0" xlink:href="#C2_1_1287c5131f" y="432.0"/>
    <use style="fill:none;stroke:#e6e6e6;" x="0.0" xlink:href="#C2_2_46767154bb" y="432.0"/>
    <use style="fill:none;stroke:#e6e6e6;" x="0.0" xlink:href="#C2_3_7945fc97ef" y="432.0"/>
    <use style="fill:none;stroke:#e6e6e6;" x="0.0" xlink:href="#C2_4_6f8df28d02" y="432.0"/>
    <use style="fill:none;stroke:#e6e6e6;" x="0.0" xlink:href="#C2_5_b1d1089835" y="432.0"/>
    <use style="fill:none;stroke:#e6e6e6;" x="0.0" xlink:href="#C2_6_70ddfb3de4" y="432.0"/>
    <use style="fill:none;stroke:#e6e6e6;" x="0.0" xlink:href="#C2_7_2c6fbbbc43" y="432.0"/>
   </g>
   <g id="xtick_13">
    <g id="line2d_16">
     <path d="
M464.767 263.155
L469.97 264.334" style="fill:none;stroke:#000000;stroke-linecap:square;"/>
    </g>
    <g id="text_16">
     <!-- −60 -->
     <defs>
      <path d="
M10.5938 35.5
L73.1875 35.5
L73.1875 27.2031
L10.5938 27.2031
z
" id="BitstreamVeraSans-Roman-2212"/>
     </defs>
     <g transform="translate(473.054645626 270.656909617)scale(0.12 -0.12)">
      <use xlink:href="#BitstreamVeraSans-Roman-2212"/>
      <use x="83.7890625" xlink:href="#BitstreamVeraSans-Roman-36"/>
      <use x="147.412109375" xlink:href="#BitstreamVeraSans-Roman-30"/>
     </g>
    </g>
   </g>
   <g id="xtick_14">
    <g id="line2d_17">
     <path d="
M465.772 243.577
L471.009 244.742" style="fill:none;stroke:#000000;stroke-linecap:square;"/>
    </g>
    <g id="text_17">
     <!-- −40 -->
     <g transform="translate(474.181129367 251.096605547)scale(0.12 -0.12)">
      <use xlink:href="#BitstreamVeraSans-Roman-2212"/>
      <use x="83.7890625" xlink:href="#BitstreamVeraSans-Roman-34"/>
      <use x="147.412109375" xlink:href="#BitstreamVeraSans-Roman-30"/>
     </g>
    </g>
   </g>
   <g id="xtick_15">
    <g id="line2d_18">
     <path d="
M466.79 223.756
L472.06 224.908" style="fill:none;stroke:#000000;stroke-linecap:square;"/>
    </g>
    <g id="text_18">
     <!-- −20 -->
     <g transform="translate(475.321532968 231.294596527)scale(0.12 -0.12)">
      <use xlink:href="#BitstreamVeraSans-Roman-2212"/>
      <use x="83.7890625" xlink:href="#BitstreamVeraSans-Roman-32"/>
      <use x="147.412109375" xlink:href="#BitstreamVeraSans-Roman-30"/>
     </g>
    </g>
   </g>
   <g id="xtick_16">
    <g id="line2d_19">
     <path d="
M467.821 203.688
L473.125 204.826" style="fill:none;stroke:#000000;stroke-linecap:square;"/>
    </g>
    <g id="text_19">
     <!-- 0 -->
     <g transform="translate(485.081428543 211.246374616)scale(0.12 -0.12)">
      <use xlink:href="#BitstreamVeraSans-Roman-30"/>
     </g>
    </g>
   </g>
   <g id="xtick_17">
    <g id="line2d_20">
     <path d="
M468.865 183.369
L474.203 184.492" style="fill:none;stroke:#000000;stroke-linecap:square;"/>
    </g>
    <g id="text_20">
     <!-- 20 -->
     <g transform="translate(482.477019702 190.94731907)scale(0.12 -0.12)">
      <use xlink:href="#BitstreamVeraSans-Roman-32"/>
      <use x="63.623046875" xlink:href="#BitstreamVeraSans-Roman-30"/>
     </g>
    </g>
   </g>
   <g id="xtick_18">
    <g id="line2d_21">
     <path d="
M469.922 162.794
L475.295 163.902" style="fill:none;stroke:#000000;stroke-linecap:square;"/>
    </g>
    <g id="text_21">
     <!-- 40 -->
     <g transform="translate(483.514516756 170.39269279)scale(0.12 -0.12)">
      <use xlink:href="#BitstreamVeraSans-Roman-34"/>
      <use x="63.623046875" xlink:href="#BitstreamVeraSans-Roman-30"/>
     </g>
    </g>
   </g>
   <g id="xtick_19">
    <g id="line2d_22">
     <path d="
M470.992 141.958
L476.4 143.05" style="fill:none;stroke:#000000;stroke-linecap:square;"/>
    </g>
    <g id="text_22">
     <!-- 60 -->
     <g transform="translate(484.838886928 149.577638641)scale(0.12 -0.12)">
      <use xlink:href="#BitstreamVeraSans-Roman-36"/>
      <use x="63.623046875" xlink:href="#BitstreamVeraSans-Roman-30"/>
     </g>
    </g>
   </g>
   <g id="xtick_20">
    <g id="line2d_23">
     <path d="
M472.076 120.855
L477.52 121.932" style="fill:none;stroke:#000000;stroke-linecap:square;"/>
    </g>
    <g id="text_23">
     <!-- 80 -->
     <g transform="translate(486.040729576 128.497175622)scale(0.12 -0.12)">
      <use xlink:href="#BitstreamVeraSans-Roman-38"/>
      <use x="63.623046875" xlink:href="#BitstreamVeraSans-Roman-30"/>
     </g>
    </g>
   </g>
  </g>
  <g id="axes_1">
   <g id="Line3DCollection_4">
    <defs>
     <path d="
M430.226 -166.088
L430.307 -165.668
L430.257 -163.969
L429.256 -162.079
L427.149 -160.436
L423.825 -159.067
L420.724 -158.325
L419.033 -158.032
L414.463 -157.636
L411.528 -157.621
L409.185 -157.701
L404.605 -158.293
L400.623 -159.333
L397.284 -160.849
L397.154 -160.945
L394.996 -163.144
L394.758 -163.636
L394.663 -165.786
L395.604 -167.586
L395.666 -167.676
L397.704 -169.322
L398.449 -169.712
L400.616 -170.76
L404.458 -171.981" id="C3_0_a72953121f"/>
    </defs>
    <g clip-path="url(#p7ff5b81e1d)">
     <use style="fill:none;stroke:#b40426;" x="0.0" xlink:href="#C3_0_a72953121f" y="432.0"/>
    </g>
   </g>
   <g id="Line3DCollection_5">
    <defs>
     <path d="
M259.676 -269.989
L263.52 -274.263
L267.384 -278.315
L271.271 -281.909
L275.18 -284.823
L279.11 -286.865
L283.059 -287.875
L287.024 -287.735
L291.002 -286.377
L294.987 -283.782
L298.975 -279.983
L302.961 -275.065
L306.943 -269.157
L310.917 -262.431
L314.88 -255.088
L318.832 -247.355
L322.773 -239.47
L326.704 -231.677
L330.628 -224.212
L334.547 -217.295
L338.467 -211.124
L342.392 -205.866
L346.327 -201.651
L350.278 -198.571
L354.249 -196.672
L358.245 -195.956
L362.271 -196.383
L366.327 -197.866
L370.416 -200.28
L374.538 -203.461
L378.69 -207.215
L382.87 -211.325
L387.073 -215.555
L391.292 -219.664
L395.52 -223.411
L399.749 -226.569
L403.97 -228.931
L408.174 -230.324
L412.353 -230.61
L416.5 -229.702
L420.608 -227.558
L424.674 -224.192
L428.695 -219.666
L432.67 -214.091
L436.603 -207.624
L440.498 -200.454
L444.362 -192.797
L448.205 -184.89
L452.035 -176.974
L455.865 -169.289
L459.707 -162.064" id="C4_0_cd2e62fb9a"/>
    </defs>
    <g clip-path="url(#p7ff5b81e1d)">
     <use style="fill:none;stroke:#f2cbb7;" x="0.0" xlink:href="#C4_0_cd2e62fb9a" y="432.0"/>
    </g>
   </g>
   <g id="Line3DCollection_6">
    <defs>
     <path d="
M259.665 -270.863
L263.55 -271.615
L267.446 -272.302
L271.353 -272.862
L275.271 -273.234
L279.2 -273.366
L283.14 -273.216
L287.089 -272.753
L291.046 -271.958
L295.011 -270.825
L298.982 -269.364
L302.957 -267.595
L306.937 -265.553
L310.919 -263.282
L314.904 -260.835
L318.891 -258.275
L322.88 -255.666
L326.872 -253.075
L330.867 -250.568
L334.866 -248.207
L338.87 -246.05
L342.881 -244.144
L346.9 -242.529
L350.929 -241.23
L354.968 -240.263
L359.021 -239.628
L363.087 -239.314
L367.166 -239.296
L371.261 -239.539
L375.37 -239.995
L379.493 -240.608
L383.629 -241.318
L387.777 -242.058
L391.935 -242.76
L396.101 -243.358
L400.272 -243.79
L404.447 -243.999
L408.622 -243.938
L412.797 -243.571
L416.968 -242.872
L421.134 -241.83
L425.294 -240.449
L429.446 -238.745
L433.592 -236.746
L437.732 -234.495
L441.866 -232.041
L445.998 -229.446
L450.128 -226.773
L454.261 -224.089
L458.399 -221.464
L462.546 -218.961" id="C5_0_e08459689d"/>
    </defs>
    <g clip-path="url(#p7ff5b81e1d)">
     <use style="fill:none;stroke:#3b4cc0;" x="0.0" xlink:href="#C5_0_e08459689d" y="432.0"/>
    </g>
   </g>
   <g id="Line3DCollection_7">
    <defs>
     <path d="
M259.669 -270.593
L263.489 -276.946
L267.336 -283.035
L271.21 -288.564
L275.113 -293.257
L279.043 -296.868
L282.997 -299.196
L286.971 -300.091
L290.961 -299.463
L294.961 -297.287
L298.965 -293.604
L302.968 -288.518
L306.966 -282.194
L310.954 -274.844
L314.929 -266.724
L318.89 -258.118
L322.839 -249.324
L326.775 -240.646
L330.702 -232.379
L334.624 -224.798
L338.548 -218.148
L342.478 -212.637
L346.422 -208.426
L350.385 -205.63
L354.375 -204.308
L358.396 -204.464
L362.454 -206.049
L366.552 -208.958
L370.691 -213.038
L374.871 -218.088
L379.091 -223.868
L383.345 -230.106
L387.629 -236.509
L391.935 -242.773
L396.253 -248.594
L400.573 -253.683
L404.883 -257.777
L409.173 -260.652
L413.432 -262.133
L417.651 -262.103
L421.821 -260.51
L425.938 -257.367
L429.998 -252.754
L434.002 -246.812
L437.952 -239.739
L441.855 -231.775
L445.719 -223.198
L449.556 -214.305
L453.378 -205.403
L457.201 -196.795
L461.039 -188.768" id="C6_0_a36fdaa94d"/>
    </defs>
    <g clip-path="url(#p7ff5b81e1d)">
     <use style="fill:none;stroke:#ee8468;" x="0.0" xlink:href="#C6_0_a36fdaa94d" y="432.0"/>
    </g>
   </g>
   <g id="text_24">
    <!-- Contour3d plot -->
    <defs>
     <path d="
M40.5781 39.3125
Q47.6562 37.7969 51.625 33
Q55.6094 28.2188 55.6094 21.1875
Q55.6094 10.4062 48.1875 4.48438
Q40.7656 -1.42188 27.0938 -1.42188
Q22.5156 -1.42188 17.6562 -0.515625
Q12.7969 0.390625 7.625 2.20312
L7.625 11.7188
Q11.7188 9.32812 16.5938 8.10938
Q21.4844 6.89062 26.8125 6.89062
Q36.0781 6.89062 40.9375 10.5469
Q45.7969 14.2031 45.7969 21.1875
Q45.7969 27.6406 41.2812 31.2656
Q36.7656 34.9062 28.7188 34.9062
L20.2188 34.9062
L20.2188 43.0156
L29.1094 43.0156
Q36.375 43.0156 40.2344 45.9219
Q44.0938 48.8281 44.0938 54.2969
Q44.0938 59.9062 40.1094 62.9062
Q36.1406 65.9219 28.7188 65.9219
Q24.6562 65.9219 20.0156 65.0312
Q15.375 64.1562 9.8125 62.3125
L9.8125 71.0938
Q15.4375 72.6562 20.3438 73.4375
Q25.25 74.2188 29.5938 74.2188
Q40.8281 74.2188 47.3594 69.1094
Q53.9062 64.0156 53.9062 55.3281
Q53.9062 49.2656 50.4375 45.0938
Q46.9688 40.9219 40.5781 39.3125" id="BitstreamVeraSans-Roman-33"/>
     <path id="BitstreamVeraSans-Roman-20"/>
     <path d="
M54.8906 33.0156
L54.8906 0
L45.9062 0
L45.9062 32.7188
Q45.9062 40.4844 42.875 44.3281
Q39.8438 48.1875 33.7969 48.1875
Q26.5156 48.1875 22.3125 43.5469
Q18.1094 38.9219 18.1094 30.9062
L18.1094 0
L9.07812 0
L9.07812 54.6875
L18.1094 54.6875
L18.1094 46.1875
Q21.3438 51.125 25.7031 53.5625
Q30.0781 56 35.7969 56
Q45.2188 56 50.0469 50.1719
Q54.8906 44.3438 54.8906 33.0156" id="BitstreamVeraSans-Roman-6e"/>
     <path d="
M30.6094 48.3906
Q23.3906 48.3906 19.1875 42.75
Q14.9844 37.1094 14.9844 27.2969
Q14.9844 17.4844 19.1562 11.8438
Q23.3438 6.20312 30.6094 6.20312
Q37.7969 6.20312 41.9844 11.8594
Q46.1875 17.5312 46.1875 27.2969
Q46.1875 37.0156 41.9844 42.7031
Q37.7969 48.3906 30.6094 48.3906
M30.6094 56
Q42.3281 56 49.0156 48.375
Q55.7188 40.7656 55.7188 27.2969
Q55.7188 13.875 49.0156 6.21875
Q42.3281 -1.42188 30.6094 -1.42188
Q18.8438 -1.42188 12.1719 6.21875
Q5.51562 13.875 5.51562 27.2969
Q5.51562 40.7656 12.1719 48.375
Q18.8438 56 30.6094 56" id="BitstreamVeraSans-Roman-6f"/>
     <path d="
M9.42188 75.9844
L18.4062 75.9844
L18.4062 0
L9.42188 0
z
" id="BitstreamVeraSans-Roman-6c"/>
     <path d="
M64.4062 67.2812
L64.4062 56.8906
Q59.4219 61.5312 53.7812 63.8125
Q48.1406 66.1094 41.7969 66.1094
Q29.2969 66.1094 22.6562 58.4688
Q16.0156 50.8281 16.0156 36.375
Q16.0156 21.9688 22.6562 14.3281
Q29.2969 6.6875 41.7969 6.6875
Q48.1406 6.6875 53.7812 8.98438
Q59.4219 11.2812 64.4062 15.9219
L64.4062 5.60938
Q59.2344 2.09375 53.4375 0.328125
Q47.6562 -1.42188 41.2188 -1.42188
Q24.6562 -1.42188 15.125 8.70312
Q5.60938 18.8438 5.60938 36.375
Q5.60938 53.9531 15.125 64.0781
Q24.6562 74.2188 41.2188 74.2188
Q47.75 74.2188 53.5312 72.4844
Q59.3281 70.75 64.4062 67.2812" id="BitstreamVeraSans-Roman-43"/>
     <path d="
M45.4062 46.3906
L45.4062 75.9844
L54.3906 75.9844
L54.3906 0
L45.4062 0
L45.4062 8.20312
Q42.5781 3.32812 38.25 0.953125
Q33.9375 -1.42188 27.875 -1.42188
Q17.9688 -1.42188 11.7344 6.48438
Q5.51562 14.4062 5.51562 27.2969
Q5.51562 40.1875 11.7344 48.0938
Q17.9688 56 27.875 56
Q33.9375 56 38.25 53.625
Q42.5781 51.2656 45.4062 46.3906
M14.7969 27.2969
Q14.7969 17.3906 18.875 11.75
Q22.9531 6.10938 30.0781 6.10938
Q37.2031 6.10938 41.2969 11.75
Q45.4062 17.3906 45.4062 27.2969
Q45.4062 37.2031 41.2969 42.8438
Q37.2031 48.4844 30.0781 48.4844
Q22.9531 48.4844 18.875 42.8438
Q14.7969 37.2031 14.7969 27.2969" id="BitstreamVeraSans-Roman-64"/>
     <path d="
M8.5 21.5781
L8.5 54.6875
L17.4844 54.6875
L17.4844 21.9219
Q17.4844 14.1562 20.5 10.2656
Q23.5312 6.39062 29.5938 6.39062
Q36.8594 6.39062 41.0781 11.0312
Q45.3125 15.6719 45.3125 23.6875
L45.3125 54.6875
L54.2969 54.6875
L54.2969 0
L45.3125 0
L45.3125 8.40625
Q42.0469 3.42188 37.7188 1
Q33.4062 -1.42188 27.6875 -1.42188
Q18.2656 -1.42188 13.375 4.4375
Q8.5 10.2969 8.5 21.5781" id="BitstreamVeraSans-Roman-75"/>
     <path d="
M41.1094 46.2969
Q39.5938 47.1719 37.8125 47.5781
Q36.0312 48 33.8906 48
Q26.2656 48 22.1875 43.0469
Q18.1094 38.0938 18.1094 28.8125
L18.1094 0
L9.07812 0
L9.07812 54.6875
L18.1094 54.6875
L18.1094 46.1875
Q20.9531 51.1719 25.4844 53.5781
Q30.0312 56 36.5312 56
Q37.4531 56 38.5781 55.875
Q39.7031 55.7656 41.0625 55.5156
z
" id="BitstreamVeraSans-Roman-72"/>
     <path d="
M18.1094 8.20312
L18.1094 -20.7969
L9.07812 -20.7969
L9.07812 54.6875
L18.1094 54.6875
L18.1094 46.3906
Q20.9531 51.2656 25.2656 53.625
Q29.5938 56 35.5938 56
Q45.5625 56 51.7812 48.0938
Q58.0156 40.1875 58.0156 27.2969
Q58.0156 14.4062 51.7812 6.48438
Q45.5625 -1.42188 35.5938 -1.42188
Q29.5938 -1.42188 25.2656 0.953125
Q20.9531 3.32812 18.1094 8.20312
M48.6875 27.2969
Q48.6875 37.2031 44.6094 42.8438
Q40.5312 48.4844 33.4062 48.4844
Q26.2656 48.4844 22.1875 42.8438
Q18.1094 37.2031 18.1094 27.2969
Q18.1094 17.3906 22.1875 11.75
Q26.2656 6.10938 33.4062 6.10938
Q40.5312 6.10938 44.6094 11.75
Q48.6875 17.3906 48.6875 27.2969" id="BitstreamVeraSans-Roman-70"/>
    </defs>
    <g transform="translate(241.385625 65.848)scale(0.144 -0.144)">
     <use xlink:href="#BitstreamVeraSans-Roman-43"/>
     <use x="69.82421875" xlink:href="#BitstreamVeraSans-Roman-6f"/>
     <use x="131.005859375" xlink:href="#BitstreamVeraSans-Roman-6e"/>
     <use x="194.384765625" xlink:href="#BitstreamVeraSans-Roman-74"/>
     <use x="233.59375" xlink:href="#BitstreamVeraSans-Roman-6f"/>
     <use x="294.775390625" xlink:href="#BitstreamVeraSans-Roman-75"/>
     <use x="358.154296875" xlink:href="#BitstreamVeraSans-Roman-72"/>
     <use x="399.267578125" xlink:href="#BitstreamVeraSans-Roman-33"/>
     <use x="462.890625" xlink:href="#BitstreamVeraSans-Roman-64"/>
     <use x="526.3671875" xlink:href="#BitstreamVeraSans-Roman-20"/>
     <use x="558.154296875" xlink:href="#BitstreamVeraSans-Roman-70"/>
     <use x="621.630859375" xlink:href="#BitstreamVeraSans-Roman-6c"/>
     <use x="649.4140625" xlink:href="#BitstreamVeraSans-Roman-6f"/>
     <use x="710.595703125" xlink:href="#BitstreamVeraSans-Roman-74"/>
    </g>
   </g>
   <g id="Line3DCollection_8">
    <defs>
     <path d="
M259.662 -271.138
L263.51 -275.101
L267.378 -278.898
L271.267 -282.35
L275.176 -285.29
L279.105 -287.571
L283.053 -289.073
L287.016 -289.704
L290.992 -289.412
L294.978 -288.181
L298.97 -286.033
L302.966 -283.031
L306.961 -279.269
L310.954 -274.877
L314.943 -270.005
L318.927 -264.825
L322.906 -259.518
L326.881 -254.272
L330.855 -249.267
L334.829 -244.676
L338.808 -240.652
L342.794 -237.328
L346.792 -234.806
L350.805 -233.159
L354.839 -232.427
L358.896 -232.613
L362.98 -233.687
L367.091 -235.583
L371.232 -238.203
L375.403 -241.422
L379.601 -245.09
L383.824 -249.036
L388.07 -253.079
L392.332 -257.031
L396.606 -260.705
L400.884 -263.925
L405.16 -266.532
L409.428 -268.389
L413.681 -269.392
L417.913 -269.468
L422.119 -268.585
L426.296 -266.751
L430.442 -264.012
L434.557 -260.452
L438.643 -256.189
L442.704 -251.368
L446.743 -246.159
L450.77 -240.741
L454.791 -235.307
L458.815 -230.043
L462.853 -225.131" id="C7_0_b7d1c08188"/>
    </defs>
    <g clip-path="url(#p7ff5b81e1d)">
     <use style="fill:none;stroke:#c0d4f5;" x="0.0" xlink:href="#C7_0_b7d1c08188" y="432.0"/>
    </g>
   </g>
   <g id="Line3DCollection_9">
    <defs>
     <path d="
M259.652 -271.904
L263.509 -275.17
L267.384 -278.324
L271.277 -281.245
L275.188 -283.819
L279.116 -285.947
L283.061 -287.546
L287.021 -288.555
L290.994 -288.937
L294.977 -288.681
L298.969 -287.801
L302.967 -286.337
L306.97 -284.355
L310.975 -281.938
L314.981 -279.19
L318.988 -276.227
L322.996 -273.172
L327.006 -270.154
L331.019 -267.298
L335.036 -264.722
L339.06 -262.534
L343.094 -260.827
L347.14 -259.673
L351.202 -259.124
L355.281 -259.208
L359.381 -259.929
L363.504 -261.266
L367.65 -263.175
L371.821 -265.587
L376.017 -268.416
L380.237 -271.557
L384.479 -274.892
L388.74 -278.295
L393.017 -281.637
L397.307 -284.789
L401.604 -287.629
L405.905 -290.047
L410.205 -291.95
L414.498 -293.264
L418.782 -293.94
L423.053 -293.955
L427.308 -293.313
L431.547 -292.045
L435.768 -290.206
L439.974 -287.878
L444.167 -285.159
L448.35 -282.165
L452.528 -279.022
L456.707 -275.862
L460.892 -272.816
L465.092 -270.011" id="C8_0_f30e885971"/>
    </defs>
    <g clip-path="url(#p7ff5b81e1d)">
     <use style="fill:none;stroke:#7b9ff9;" x="0.0" xlink:href="#C8_0_f30e885971" y="432.0"/>
    </g>
   </g>
   <g id="Line3DCollection_10">
    <defs>
     <path d="
M259.653 -271.827
L263.444 -280.9
L267.267 -289.68
L271.126 -297.811
L275.021 -304.957
L278.95 -310.817
L282.909 -315.144
L286.895 -317.75
L290.902 -318.522
L294.923 -317.426
L298.951 -314.506
L302.98 -309.888
L307.003 -303.767
L311.017 -296.401
L315.018 -288.1
L319.004 -279.206
L322.976 -270.081
L326.935 -261.094
L330.885 -252.601
L334.832 -244.933
L338.781 -238.389
L342.741 -233.218
L346.719 -229.62
L350.723 -227.732
L354.76 -227.63
L358.838 -229.324
L362.962 -232.759
L367.136 -237.813
L371.364 -244.305
L375.643 -251.997
L379.974 -260.602
L384.35 -269.791
L388.764 -279.209
L393.208 -288.482
L397.669 -297.236
L402.136 -305.112
L406.593 -311.781
L411.029 -316.96
L415.428 -320.428
L419.78 -322.034
L424.074 -321.706
L428.304 -319.457
L432.466 -315.382
L436.56 -309.656
L440.589 -302.52
L444.562 -294.277
L448.488 -285.268
L452.383 -275.864
L456.262 -266.445
L460.143 -257.388
L464.046 -249.048" id="C9_0_cfac3f89bf"/>
    </defs>
    <g clip-path="url(#p7ff5b81e1d)">
     <use style="fill:none;stroke:#b40426;" x="0.0" xlink:href="#C9_0_cfac3f89bf" y="432.0"/>
    </g>
   </g>
   <g id="Line3DCollection_11">
    <defs>
     <path d="
M135.977 -160.874
L138.623 -162.926
L141.201 -166.195
L143.717 -170.609
L146.179 -176.049
L148.598 -182.359
L150.984 -189.348
L153.351 -196.795
L155.709 -204.462
L158.071 -212.097
L160.447 -219.449
L162.847 -226.276
L165.278 -232.353
L167.748 -237.486
L170.26 -241.521
L172.816 -244.346
L175.414 -245.9
L178.053 -246.179
L180.727 -245.227
L183.431 -243.144
L186.155 -240.074
L188.892 -236.201
L191.633 -231.739
L194.368 -226.924
L197.089 -222.003
L199.787 -217.224
L202.457 -212.826
L205.092 -209.028
L207.688 -206.025
L210.243 -203.979
L212.756 -203.014
L215.226 -203.211
L217.656 -204.609
L220.049 -207.199
L222.408 -210.928
L224.739 -215.701
L227.047 -221.381
L229.338 -227.796
L231.618 -234.745
L233.893 -242.002
L236.168 -249.331
L238.448 -256.487
L240.737 -263.231
L243.038 -269.339
L245.353 -274.612
L247.683 -278.883
L250.028 -282.027
L252.387 -283.965
L254.757 -284.67
L257.135 -284.165
L259.518 -282.524" id="Ca_0_066b0c03e6"/>
    </defs>
    <g clip-path="url(#p7ff5b81e1d)">
     <use style="fill:none;stroke:#f2cbb7;" x="0.0" xlink:href="#Ca_0_066b0c03e6" y="432.0"/>
    </g>
   </g>
   <g id="Line3DCollection_12">
    <defs>
     <path d="
M135.618 -167.772
L138.314 -168.964
L140.955 -171.082
L143.545 -174.068
L146.092 -177.831
L148.603 -182.251
L151.086 -187.178
L153.551 -192.446
L156.007 -197.872
L158.462 -203.267
L160.926 -208.441
L163.404 -213.212
L165.904 -217.415
L168.429 -220.905
L170.982 -223.567
L173.565 -225.322
L176.177 -226.125
L178.816 -225.974
L181.478 -224.903
L184.159 -222.987
L186.853 -220.334
L189.553 -217.08
L192.252 -213.386
L194.945 -209.428
L197.623 -205.391
L200.282 -201.46
L202.916 -197.816
L205.522 -194.623
L208.095 -192.029
L210.634 -190.155
L213.138 -189.096
L215.608 -188.911
L218.045 -189.629
L220.451 -191.243
L222.829 -193.711
L225.183 -196.96
L227.517 -200.885
L229.835 -205.356
L232.143 -210.219
L234.445 -215.307
L236.743 -220.44
L239.043 -225.438
L241.348 -230.124
L243.658 -234.332
L245.976 -237.916
L248.303 -240.755
L250.638 -242.758
L252.981 -243.868
L255.329 -244.066
L257.68 -243.371
L260.032 -241.837" id="Cb_0_b78ed1a31e"/>
    </defs>
    <g clip-path="url(#p7ff5b81e1d)">
     <use style="fill:none;stroke:#c0d4f5;" x="0.0" xlink:href="#Cb_0_b78ed1a31e" y="432.0"/>
    </g>
   </g>
   <g id="Line3DCollection_13">
    <defs>
     <path d="
M136.726 -146.471
L139.309 -149.525
L141.796 -154.375
L144.196 -160.916
L146.522 -168.983
L148.789 -178.351
L151.013 -188.743
L153.211 -199.839
L155.401 -211.288
L157.6 -222.716
L159.824 -233.747
L162.089 -244.014
L164.407 -253.177
L166.786 -260.936
L169.233 -267.051
L171.752 -271.348
L174.34 -273.731
L176.995 -274.188
L179.709 -272.789
L182.471 -269.684
L185.271 -265.093
L188.094 -259.296
L190.928 -252.621
L193.758 -245.425
L196.571 -238.081
L199.356 -230.96
L202.102 -224.416
L204.801 -218.778
L207.447 -214.331
L210.036 -211.315
L212.566 -209.91
L215.038 -210.239
L217.455 -212.356
L219.82 -216.253
L222.141 -221.855
L224.423 -229.025
L226.676 -237.564
L228.907 -247.222
L231.126 -257.701
L233.341 -268.67
L235.561 -279.77
L237.792 -290.633
L240.042 -300.895
L242.314 -310.211
L244.611 -318.273
L246.937 -324.818
L249.289 -329.651
L251.666 -332.647
L254.065 -333.758
L256.482 -333.02
L258.91 -330.548" id="Cc_0_359fb12cdc"/>
    </defs>
    <g clip-path="url(#p7ff5b81e1d)">
     <use style="fill:none;stroke:#b40426;" x="0.0" xlink:href="#Cc_0_359fb12cdc" y="432.0"/>
    </g>
   </g>
   <g id="Line3DCollection_14">
    <defs>
     <path d="
M135.161 -176.545
L137.816 -178.709
L140.431 -181.504
L143.01 -184.893
L145.559 -188.812
L148.081 -193.179
L150.584 -197.892
L153.073 -202.836
L155.554 -207.887
L158.034 -212.915
L160.519 -217.789
L163.013 -222.385
L165.52 -226.59
L168.043 -230.305
L170.585 -233.452
L173.145 -235.974
L175.725 -237.842
L178.322 -239.05
L180.934 -239.623
L183.558 -239.609
L186.19 -239.081
L188.826 -238.13
L191.46 -236.867
L194.088 -235.411
L196.706 -233.889
L199.31 -232.432
L201.896 -231.162
L204.461 -230.198
L207.002 -229.642
L209.52 -229.581
L212.011 -230.082
L214.478 -231.19
L216.921 -232.926
L219.341 -235.285
L221.741 -238.239
L224.122 -241.738
L226.489 -245.709
L228.844 -250.06
L231.191 -254.684
L233.532 -259.463
L235.87 -264.272
L238.208 -268.985
L240.548 -273.477
L242.891 -277.634
L245.239 -281.353
L247.591 -284.549
L249.949 -287.158
L252.31 -289.14
L254.675 -290.482
L257.041 -291.193
L259.407 -291.312" id="Cd_0_c0aef31f00"/>
    </defs>
    <g clip-path="url(#p7ff5b81e1d)">
     <use style="fill:none;stroke:#7b9ff9;" x="0.0" xlink:href="#Cd_0_c0aef31f00" y="432.0"/>
    </g>
   </g>
   <g id="Line3DCollection_15">
    <defs>
     <path d="
M136.307 -154.529
L138.878 -157.957
L141.367 -162.895
L143.783 -169.255
L146.137 -176.898
L148.441 -185.634
L150.709 -195.228
L152.954 -205.411
L155.193 -215.886
L157.439 -226.34
L159.706 -236.458
L162.007 -245.932
L164.352 -254.479
L166.748 -261.849
L169.202 -267.84
L171.714 -272.308
L174.285 -275.173
L176.911 -276.423
L179.586 -276.114
L182.302 -274.368
L185.049 -271.367
L187.816 -267.344
L190.592 -262.57
L193.365 -257.346
L196.124 -251.982
L198.859 -246.794
L201.562 -242.081
L204.224 -238.123
L206.842 -235.166
L209.411 -233.413
L211.931 -233.024
L214.4 -234.102
L216.823 -236.698
L219.202 -240.805
L221.542 -246.361
L223.85 -253.247
L226.132 -261.296
L228.396 -270.293
L230.649 -279.984
L232.898 -290.088
L235.152 -300.299
L237.415 -310.306
L239.693 -319.801
L241.99 -328.493
L244.308 -336.121
L246.65 -342.467
L249.014 -347.363
L251.399 -350.704
L253.802 -352.449
L256.22 -352.627
L258.647 -351.332" id="Ce_0_95a356d877"/>
    </defs>
    <g clip-path="url(#p7ff5b81e1d)">
     <use style="fill:none;stroke:#ee8468;" x="0.0" xlink:href="#Ce_0_95a356d877" y="432.0"/>
    </g>
   </g>
   <g id="Line3DCollection_16">
    <defs>
     <path d="
M303.772 -195.007
L301.756 -193.411
L299.43 -191.88
L296.744 -190.425
L294.517 -189.429
L293.583 -189.075
L289.658 -187.897
L285.62 -186.906
L285.14 -186.851
L279.607 -186.368
L276.115 -186.845
L275.259 -186.966
L275.075 -187.086
L272.812 -188.85
L272.74 -189.718
L273.022 -191.737
L273.405 -192.777
L273.984 -193.591
L275.477 -195.316
L277.184 -196.986
L279.077 -198.607
L281.137 -200.183" id="Cf_0_1ed01be1fd"/>
     <path d="
M324.9 -115.284
L327.739 -116.939
L327.885 -116.979
L332.689 -118.074
L335.227 -118.32
L340.501 -118.51
L341.009 -118.497
L345.933 -118.027
L350.415 -117.219
L354.494 -116.099
L358.24 -114.717
L360.623 -113.627
L361.657 -113.072
L364.689 -111.119
L366.483 -109.857
L367.359 -108.874
L369.095 -106.863
L369.039 -105.845
L369.004 -104.517
L365.583 -102.976
L365.304 -102.952
L359.213 -102.587
L357.554 -102.559
L353.898 -102.822
L348.967 -103.35
L344.276 -104.057
L339.849 -104.959
L335.709 -106.073
L331.881 -107.415
L328.398 -109.006
L326.407 -110.193
L325.514 -111.036
L324.121 -113.119
L324.516 -114.46
L324.9 -115.284" id="Cf_1_ed9cb0e874"/>
     <path d="
M443.397 -163.076
L443.171 -161.01
L442.225 -159.102
L440.426 -157.383
L437.688 -155.873
L433.983 -154.581
L431.093 -153.905
L429.294 -153.512
L424.21 -152.745
L423.61 -152.669
L418.109 -152.194
L416.659 -152.118
L412.451 -151.987
L407.674 -152.037
L407.142 -152.048
L402.225 -152.406
L397.672 -153.038
L393.517 -153.966
L389.791 -155.211
L386.524 -156.79
L386.147 -157.044
L383.817 -158.777
L382.669 -160.008
L381.772 -161.243
L381.185 -162.5
L380.779 -164.473
L380.765 -164.735
L381.222 -166.76
L382.305 -168.634
L383.987 -170.362
L386.235 -171.954
L389.012 -173.419
L392.275 -174.767" id="Cf_2_073b016517"/>
    </defs>
    <g clip-path="url(#p7ff5b81e1d)">
     <use style="fill:none;stroke:#ee8468;" x="0.0" xlink:href="#Cf_0_1ed01be1fd" y="432.0"/>
    </g>
    <g clip-path="url(#p7ff5b81e1d)">
     <use style="fill:none;stroke:#ee8468;" x="0.0" xlink:href="#Cf_1_ed9cb0e874" y="432.0"/>
    </g>
    <g clip-path="url(#p7ff5b81e1d)">
     <use style="fill:none;stroke:#ee8468;" x="0.0" xlink:href="#Cf_2_073b016517" y="432.0"/>
    </g>
   </g>
   <g id="Line3DCollection_17">
    <defs>
     <path d="
M134.716 -185.096
L137.342 -187.975
L139.944 -191.187
L142.525 -194.713
L145.087 -198.52
L147.633 -202.563
L150.167 -206.788
L152.691 -211.134
L155.209 -215.532
L157.724 -219.915
L160.239 -224.213
L162.758 -228.36
L165.281 -232.295
L167.811 -235.965
L170.348 -239.33
L172.894 -242.358
L175.448 -245.035
L178.009 -247.355
L180.576 -249.333
L183.147 -250.992
L185.72 -252.371
L188.294 -253.518
L190.865 -254.491
L193.431 -255.354
L195.989 -256.175
L198.538 -257.024
L201.076 -257.968
L203.6 -259.07
L206.11 -260.388
L208.604 -261.969
L211.083 -263.85
L213.546 -266.056
L215.995 -268.599
L218.429 -271.478
L220.85 -274.678
L223.26 -278.17
L225.659 -281.916
L228.05 -285.865
L230.435 -289.96
L232.815 -294.136
L235.191 -298.326
L237.565 -302.46
L239.939 -306.471
L242.312 -310.298
L244.686 -313.885
L247.061 -317.186
L249.436 -320.166
L251.812 -322.804
L254.187 -325.091
L256.562 -327.033
L258.934 -328.65" id="C10_0_081c77950e"/>
    </defs>
    <g clip-path="url(#p7ff5b81e1d)">
     <use style="fill:none;stroke:#3b4cc0;" x="0.0" xlink:href="#C10_0_081c77950e" y="432.0"/>
    </g>
   </g>
   <g id="Line3DCollection_18">
    <defs>
     <path d="
M208.351 -146.028
L209.934 -147.924
L212.055 -149.682
L214.667 -151.315
L217.754 -152.826
L221.317 -154.217
L222.163 -154.496
L228.042 -154.838
L230.76 -153.024
L231.181 -151.837
L232.011 -150.194
L232.051 -149.37
L232.2 -147.068
L232.169 -146.595
L231.657 -144.925
L230.547 -142.912
L228.571 -141.101
L225.159 -139.634
L220.883 -138.841
L219.192 -138.786
L215.603 -138.958
L211.527 -139.896
L209.02 -141.274
L208.574 -141.591
L207.684 -143.9
L207.728 -144.705
L208.351 -146.028" id="C11_0_9fe6643d14"/>
     <path d="
M316.638 -192.065
L314.933 -190.391
L312.989 -188.767
L310.764 -187.201
L308.23 -185.701
L305.381 -184.267
L302.227 -182.899
L298.918 -181.634
L298.797 -181.589
L295.034 -180.352
L291.095 -179.151
L289.34 -178.64
L286.916 -178.002
L282.599 -176.88
L280.856 -176.42
L278.089 -175.799
L273.551 -174.721
L272.844 -174.54
L268.724 -173.706
L265.133 -172.876
L263.898 -172.687
L258.817 -171.725
L257.809 -171.488
L252.966 -170.94
L251.292 -170.658
L246.49 -170.996
L244.105 -172.967
L244.108 -173.032
L243.933 -175.233
L243.812 -176.335
L244.188 -177.324
L244.924 -179.295
L245.712 -181.154
L245.763 -181.233
L246.988 -183.074
L248.306 -184.886
L249.726 -186.668
L251.167 -188.325
L251.256 -188.417
L252.966 -190.118
L254.759 -191.793
L256.629 -193.444
L258.572 -195.072
L260.583 -196.679
L262.655 -198.265
L264.784 -199.832
L266.963 -201.382
L269.186 -202.916" id="C11_1_8f4141a4bb"/>
     <path d="
M454.627 -160.508
L454.692 -159.747
L455.001 -158.3
L454.607 -156.26
L453.205 -154.444
L450.683 -152.879
L447.004 -151.576
L443.185 -150.736
L442.256 -150.514
L436.768 -149.621
L436.289 -149.565
L430.658 -148.868
L429.9 -148.796
L423.987 -148.243
L423.76 -148.225
L417.834 -147.825
L416.662 -147.768
L412.094 -147.57
L408.401 -147.509
L406.56 -147.474
L401.272 -147.566
L397.851 -147.786
L396.266 -147.874
L391.582 -148.422
L387.28 -149.255
L383.386 -150.39
L379.926 -151.842
L379.529 -152.071
L376.879 -153.592
L374.588 -155.404
L374.275 -155.66
L372.119 -158.046
L372.035 -158.167
L370.562 -160.669
L370.499 -160.812
L369.819 -162.991
L369.692 -164.158
L369.647 -165.173
L370.037 -167.217
L370.854 -168.926
L370.953 -169.131
L372.379 -170.921
L374.313 -172.587
L376.731 -174.136
L379.602 -175.575
L380.281 -175.851
L382.875 -176.917" id="C11_2_218374ff92"/>
     <path d="
M373.71 -91.894
L368.968 -92.5428
L368.884 -92.5556
L364.088 -93.2358
L359.277 -93.8993
L354.478 -94.5671
L349.716 -95.2583
L345.521 -95.9106
L345.016 -95.9926
L340.418 -96.8003
L335.908 -97.6684
L331.498 -98.6069
L327.201 -99.6242
L323.027 -100.728
L318.988 -101.924
L315.093 -103.22
L313.422 -103.841
L311.374 -104.639
L307.85 -106.194
L304.514 -107.877
L302.774 -108.865
L301.449 -109.748
L298.71 -111.847
L298.054 -112.41
L296.548 -114.355
L295.907 -115.308
L295.592 -117.728
L295.59 -117.746
L296.737 -119.817
L299.221 -121.553
L302.7 -122.931
L302.866 -122.999
L307.445 -124.213
L310.793 -124.817
L312.888 -125.212
L317.704 -125.844
L319.087 -126.024
L324.07 -126.477
L326.093 -126.637
L330.087 -126.854
L334.178 -126.988
L335.813 -127.018
L341.221 -126.945
L344.724 -126.745
L346.327 -126.644
L351.096 -126.088
L355.533 -125.278
L359.651 -124.22
L363.483 -122.936
L367.077 -121.462
L367.483 -121.265
L370.474 -119.827
L373.75 -118.087
L375.743 -116.96
L376.943 -116.269
L380.091 -114.404
L382.518 -112.998
L383.261 -112.543
L386.44 -110.674
L389.746 -108.91
L389.759 -108.902
L393.103 -107.135" id="C11_3_8c02f09751"/>
    </defs>
    <g clip-path="url(#p7ff5b81e1d)">
     <use style="fill:none;stroke:#f2cbb7;" x="0.0" xlink:href="#C11_0_9fe6643d14" y="432.0"/>
    </g>
    <g clip-path="url(#p7ff5b81e1d)">
     <use style="fill:none;stroke:#f2cbb7;" x="0.0" xlink:href="#C11_1_8f4141a4bb" y="432.0"/>
    </g>
    <g clip-path="url(#p7ff5b81e1d)">
     <use style="fill:none;stroke:#f2cbb7;" x="0.0" xlink:href="#C11_2_218374ff92" y="432.0"/>
    </g>
    <g clip-path="url(#p7ff5b81e1d)">
     <use style="fill:none;stroke:#f2cbb7;" x="0.0" xlink:href="#C11_3_8c02f09751" y="432.0"/>
    </g>
   </g>
   <g id="Line3DCollection_19">
    <defs>
     <path d="
M158.364 -137.138
L156.641 -135.561
L154.984 -133.616
L154.294 -131.421
L154.412 -130.875
L156.81 -128.813
L159.569 -127.726
L160.294 -127.464
L164.196 -126.388
L168.366 -125.486
L168.856 -125.403
L172.71 -124.695
L177.209 -124.005
L181.862 -123.415
L186.669 -122.927
L189.033 -122.751
L191.596 -122.518
L196.632 -122.18
L201.81 -121.938
L201.873 -121.937
L207.048 -121.737
L212.391 -121.607
L212.802 -121.601
L217.774 -121.503
L223.1 -121.423
L223.189 -121.422
L228.596 -121.334
L233.575 -121.202
L233.931 -121.195
L239.179 -120.994
L244.208 -120.637
L246.537 -120.367
L249 -120.109
L253.482 -119.357
L257.607 -118.344
L261.406 -117.091
L263.767 -116.11
L264.959 -115.652
L268.385 -114.112
L271.705 -112.484
L274.421 -111.089
L274.989 -110.82
L278.316 -109.175
L281.685 -107.55
L284.762 -106.126
L285.124 -105.965
L288.653 -104.435
L292.28 -102.967
L296.01 -101.565
L299.844 -100.232
L303.524 -99.0496
L303.783 -98.9667
L307.819 -97.7657
L311.958 -96.6333
L316.195 -95.5671
L320.525 -94.5641
L324.943 -93.6209
L326.971 -93.2213
L329.439 -92.7302
L334.003 -91.8855
L338.63 -91.083
L343.31 -90.3147
L348.028 -89.5712
L352.77 -88.8412
L357.148 -88.1692
L357.521 -88.1122
L362.264 -87.3717
L366.978 -86.6033" id="C12_0_744257e576"/>
     <path d="
M197.876 -163.354
L199.023 -164.051
L201.632 -165.64
L204.224 -167.227
L206.79 -168.814
L209.325 -170.403
L211.823 -171.994
L214.279 -173.589
L216.693 -175.187
L219.068 -176.789
L221.406 -178.393
L223.715 -179.999
L226 -181.603
L228.269 -183.205
L230.528 -184.803
L232.782 -186.397
L235.036 -187.984
L235.646 -188.413" id="C12_1_5a9c759f97"/>
     <path d="
M327.311 -189.624
L326.007 -187.854
L324.427 -186.142
L322.516 -184.499
L320.238 -182.934
L317.578 -181.452
L314.548 -180.049
L311.184 -178.719
L309.831 -178.246
L307.59 -177.437
L303.823 -176.191
L299.927 -174.97
L299.832 -174.941
L295.991 -173.753
L292.065 -172.53
L290.243 -171.942
L288.185 -171.291
L284.41 -170.023
L280.805 -168.71
L279.573 -168.213
L277.361 -167.354
L274.144 -165.939
L271.205 -164.453
L268.567 -162.89
L266.251 -161.244
L264.28 -159.51
L262.679 -157.681
L261.475 -155.75
L261.418 -155.618
L260.602 -153.732
L260.145 -151.606
L260.105 -150.966
L260.086 -149.377
L260.372 -147.386
L260.46 -147.034
L261.315 -144.567
L261.41 -144.323
L262.807 -141.935
L262.99 -141.621
L265.055 -139.242
L265.295 -139.052
L267.54 -137.146
L270.551 -135.486
L270.61 -135.45
L274.112 -134.051
L278.187 -133.053
L282.786 -132.423
L283.282 -132.397
L287.716 -132.026
L293.006 -131.888
L294.722 -131.925
L298.507 -131.9
L303.696 -132.051
L304.204 -132.056
L309.971 -132.264
L311.874 -132.369
L315.826 -132.537
L319.784 -132.75
L321.725 -132.846
L327.593 -133.154
L327.625 -133.156
L333.51 -133.458
L335.505 -133.532
L339.342 -133.722
L343.745 -133.829
L345.042 -133.89
L350.569 -133.931
L353.378 -133.793
L355.797 -133.747
L360.602 -133.243
L364.845 -132.311
L368.55 -130.965
L371.266 -129.519
L371.809 -129.27
L374.899 -127.434
L377.148 -125.834
L377.795 -125.436
L380.687 -123.42
L382.123 -122.351
L383.568 -121.381
L386.504 -119.371
L387.361 -118.791
L389.519 -117.407
L392.642 -115.513
L393.582 -114.981
L395.882 -113.696
L399.273 -111.985" id="C12_2_58b9f14252"/>
     <path d="
M441.892 -145.481
L437.253 -145.158
L435.972 -145.088
L430.006 -144.663
L429.992 -144.662
L424.023 -144.228
L422.825 -144.142
L418.029 -143.787
L415.611 -143.631
L412.053 -143.364
L408.275 -143.147
L406.129 -142.983
L400.708 -142.716
L400.308 -142.684
L394.58 -142.458
L392.285 -142.484
L389.069 -142.399
L383.937 -142.628
L380.001 -143.161
L379.307 -143.234
L375.863 -144.137
L375.277 -144.287
L371.809 -145.754
L368.962 -147.676
L368.594 -148.057
L366.481 -149.856
L365.574 -150.965
L364.346 -152.278
L363.382 -153.668
L362.481 -154.883
L361.689 -156.244
L360.878 -157.662
L360.371 -158.723
L359.574 -160.643
L359.398 -161.112
L358.769 -163.412
L358.705 -163.921
L358.472 -165.626
L358.636 -167.724
L358.65 -167.77
L359.155 -169.733
L360.229 -171.607
L361.848 -173.347
L363.995 -174.96
L366.647 -176.45
L369.775 -177.826
L373.346 -179.096" id="C12_3_ca6f3170e8"/>
    </defs>
    <g clip-path="url(#p7ff5b81e1d)">
     <use style="fill:none;stroke:#c0d4f5;" x="0.0" xlink:href="#C12_0_744257e576" y="432.0"/>
    </g>
    <g clip-path="url(#p7ff5b81e1d)">
     <use style="fill:none;stroke:#c0d4f5;" x="0.0" xlink:href="#C12_1_5a9c759f97" y="432.0"/>
    </g>
    <g clip-path="url(#p7ff5b81e1d)">
     <use style="fill:none;stroke:#c0d4f5;" x="0.0" xlink:href="#C12_2_58b9f14252" y="432.0"/>
    </g>
    <g clip-path="url(#p7ff5b81e1d)">
     <use style="fill:none;stroke:#c0d4f5;" x="0.0" xlink:href="#C12_3_ca6f3170e8" y="432.0"/>
    </g>
   </g>
   <g id="Line3DCollection_20">
    <defs>
     <path d="
M280.557 -157.846
L280.372 -157.608
L279.179 -155.964
L278.307 -153.954
L278.025 -152.189
L278.019 -151.797
L278.553 -149.435
L278.775 -148.919
L280.299 -146.773
L280.622 -146.403
L283.193 -144.384
L285.101 -143.365
L286.318 -142.746
L289.93 -141.445
L293.97 -140.443
L298.396 -139.711
L301.708 -139.375
L303.17 -139.226
L308.264 -138.969
L313.06 -138.915
L313.637 -138.913
L319.311 -139.077
L321.38 -139.183
L325.292 -139.466
L328.471 -139.744
L331.66 -140.142
L334.606 -140.53
L338.718 -141.331
L339.794 -141.539
L343.971 -142.784
L347.031 -144.288
L349.02 -146.041
L350.062 -148.011
L350.287 -149.857
L350.343 -150.152
L350.126 -152.402
L349.83 -153.486
L349.539 -154.731
L348.873 -156.725
L348.744 -157.099
L347.805 -159.492
L347.694 -159.779
L346.736 -161.906
L346.417 -162.741
L345.606 -164.326
L345.096 -165.651
L344.432 -166.746
L343.715 -168.498
L343.194 -169.172
L342.201 -171.23
L341.734 -171.641
L340.317 -173.678
L338.183 -174.583
L337.155 -175.197
L335.838 -175.126
L331.879 -175.199
L328.762 -174.646
L325.192 -174.2
L323.341 -173.781
L318.345 -172.813
L317.816 -172.72
L313.733 -171.753
L309.888 -170.86
L309.191 -170.672
L304.967 -169.512
L301.056 -168.377
L300.868 -168.319
L297.09 -167.046
L293.532 -165.716
L290.242 -164.318
L289.234 -163.817
L287.282 -162.836
L284.663 -161.269
L282.41 -159.608
L280.557 -157.846" id="C13_0_d122201c50"/>
     <path d="
M341.36 -186.411
L341.382 -185.694
L342.369 -184.106
L342.707 -182.912
L345.437 -181.319
L345.557 -181.201
L345.921 -181.208
L350.385 -180.898
L354.039 -181.432
L356.634 -181.615
L359.783 -182.198" id="C13_1_eebff74efe"/>
     <path d="
M360.626 -81.6108
L355.838 -82.3398
L351.03 -83.0478
L346.217 -83.747
L344.033 -84.0657
L341.378 -84.421
L336.536 -85.0879
L331.733 -85.7793
L326.976 -86.5015
L322.271 -87.2585
L319.446 -87.7423
L317.597 -88.0329
L312.951 -88.8233
L308.374 -89.6603
L303.865 -90.5426
L299.422 -91.4682
L295.043 -92.4347
L290.723 -93.4392
L286.459 -94.4779
L282.245 -95.5458
L278.07 -96.636
L273.924 -97.739
L269.786 -98.8411
L265.633 -99.9239
L261.428 -100.962
L257.129 -101.925
L252.681 -102.774
L248.029 -103.47
L245.906 -103.702
L242.868 -103.797
L237.043 -103.647
L236.532 -103.613
L232.354 -102.217
L231.833 -99.923
L231.828 -99.8941" id="C13_2_85b0b78547"/>
     <path d="
M436.102 -140.93
L430.28 -140.631
L428.852 -140.534
L424.245 -140.169
L421.864 -139.963
L418 -139.546
L415.389 -139.269
L411.491 -138.723
L409.409 -138.455
L404.572 -137.591
L404.01 -137.502
L399.259 -136.392
L396.078 -135.255
L395.456 -135.054
L392.684 -133.466
L391.205 -131.564
L391.2 -131.504
L390.882 -129.38
L391.584 -127.568
L391.823 -126.887
L393.422 -124.729
L393.888 -124.115
L395.796 -122.286
L397.197 -121.034
L398.477 -120.065
L401.419 -118.032
L402.234 -117.527
L404.598 -116.17" id="C13_3_88729eb98f"/>
    </defs>
    <g clip-path="url(#p7ff5b81e1d)">
     <use style="fill:none;stroke:#7b9ff9;" x="0.0" xlink:href="#C13_0_d122201c50" y="432.0"/>
    </g>
    <g clip-path="url(#p7ff5b81e1d)">
     <use style="fill:none;stroke:#7b9ff9;" x="0.0" xlink:href="#C13_1_eebff74efe" y="432.0"/>
    </g>
    <g clip-path="url(#p7ff5b81e1d)">
     <use style="fill:none;stroke:#7b9ff9;" x="0.0" xlink:href="#C13_2_85b0b78547" y="432.0"/>
    </g>
    <g clip-path="url(#p7ff5b81e1d)">
     <use style="fill:none;stroke:#7b9ff9;" x="0.0" xlink:href="#C13_3_88729eb98f" y="432.0"/>
    </g>
   </g>
   <g id="Line3DCollection_21">
    <defs>
     <path d="
M300.884 -157.431
L299.615 -156.042
L299.284 -155.608
L298.918 -153.485
L299.39 -152.057
L300.482 -150.894
L301.801 -149.929
L305.276 -148.55
L309.502 -147.702
L314.41 -147.341
L315.349 -147.356
L320.367 -147.737
L322.045 -147.991
L326.388 -149.182
L329.319 -150.703
L330.983 -152.516
L331.622 -154.564
L331.531 -155.824
L331.181 -156.859
L330.092 -158.663
L329.115 -159.526
L327.573 -160.705
L324.139 -162.077
L319.677 -162.705
L316.126 -162.576
L313.881 -162.379
L310.585 -161.704
L306.433 -160.502
L305.092 -159.931
L303.272 -159.06
L300.884 -157.431" id="C14_0_d2c0c15e4e"/>
     <path d="
M341.25 -72.3041
L344.003 -73.0726
L345.879 -73.651
L350.429 -73.5965" id="C14_1_da683441e7"/>
     <path d="
M430.019 -136.149
L429.033 -136.065
L423.603 -135.403
L422.835 -135.297
L417.644 -134.289
L416.171 -133.87
L413.368 -133.06
L410.057 -131.599
L407.78 -129.887
L406.629 -127.901
L406.654 -126.444
L406.727 -125.609
L408.074 -123.243
L408.272 -122.964
L410.547 -120.845" id="C14_2_2c5d6c07a6"/>
    </defs>
    <g clip-path="url(#p7ff5b81e1d)">
     <use style="fill:none;stroke:#3b4cc0;" x="0.0" xlink:href="#C14_0_d2c0c15e4e" y="432.0"/>
    </g>
    <g clip-path="url(#p7ff5b81e1d)">
     <use style="fill:none;stroke:#3b4cc0;" x="0.0" xlink:href="#C14_1_da683441e7" y="432.0"/>
    </g>
    <g clip-path="url(#p7ff5b81e1d)">
     <use style="fill:none;stroke:#3b4cc0;" x="0.0" xlink:href="#C14_2_2c5d6c07a6" y="432.0"/>
    </g>
   </g>
   <g id="Poly3DCollection_1">
    <defs>
     <path d="
M236.028 -256.349
L238.418 -258.033
L240.802 -259.698
L243.18 -261.338
L245.551 -262.948
L247.917 -264.52
L250.276 -266.053
L252.63 -267.543
L254.977 -268.989
L257.319 -270.393
L259.654 -271.756
L263.434 -281.74
L267.25 -291.405
L271.103 -300.352
L274.995 -308.209
L278.924 -314.64
L282.886 -319.369
L286.876 -322.185
L290.888 -322.963
L294.915 -321.663
L298.948 -318.337
L296.612 -317.013
L294.27 -315.267
L291.923 -313.074
L289.572 -310.426
L287.218 -307.334
L284.861 -303.827
L282.502 -299.951
L280.142 -295.763
L277.78 -291.338
L275.417 -286.756
L271.347 -290.165
L267.294 -291.945
L263.265 -292.053
L259.265 -290.519
L255.3 -287.44
L251.372 -282.98
L247.482 -277.36
L243.63 -270.845
L239.813 -263.735
L236.028 -256.349
z
" id="C15_0_7ca309c770"/>
     <path d="
M315.957 -210.847
L318.272 -215.68
L320.584 -220.228
L322.89 -224.342
L325.189 -227.888
L327.479 -230.757
L329.757 -232.866
L332.023 -234.165
L334.273 -234.634
L336.506 -234.291
L338.721 -233.185
L342.667 -227.394
L346.631 -223.34
L350.623 -221.177
L354.65 -220.986
L358.722 -222.777
L362.843 -226.491
L367.019 -231.994
L371.251 -239.087
L375.541 -247.51
L379.886 -256.945
L377.733 -258.565
L375.544 -259.03
L373.319 -258.264
L371.059 -256.243
L368.768 -252.995
L366.45 -248.6
L364.11 -243.186
L361.753 -236.922
L359.384 -230.012
L357.008 -222.683
L352.758 -215.843
L348.546 -209.803
L344.373 -204.82
L340.237 -201.109
L336.136 -198.835
L332.064 -198.109
L328.016 -198.984
L323.987 -201.451
L319.969 -205.447
L315.957 -210.847
z
" id="C15_1_9bea6e4e67"/>
     <path d="
M275.417 -286.756
L277.78 -291.338
L280.142 -295.763
L282.502 -299.951
L284.861 -303.827
L287.218 -307.334
L289.572 -310.426
L291.923 -313.074
L294.27 -315.267
L296.612 -317.013
L298.948 -318.337
L302.981 -313.125
L307.008 -306.246
L311.022 -297.989
L315.021 -288.699
L319.002 -278.757
L322.966 -268.567
L326.915 -258.536
L330.853 -249.058
L334.786 -240.498
L338.721 -233.185
L336.506 -234.291
L334.273 -234.634
L332.023 -234.165
L329.757 -232.866
L327.479 -230.757
L325.189 -227.888
L322.89 -224.342
L320.584 -220.228
L318.272 -215.68
L315.957 -210.847
L311.944 -217.477
L307.926 -225.111
L303.898 -233.485
L299.859 -242.301
L295.806 -251.242
L291.74 -259.979
L287.664 -268.189
L283.582 -275.564
L279.497 -281.83
L275.417 -286.756
z
" id="C15_2_ba3e187f8a"/>
     <path d="
M292.648 -179.398
L295.006 -179.531
L297.353 -180.484
L299.692 -182.249
L302.024 -184.79
L304.352 -188.039
L306.677 -191.902
L308.999 -196.26
L311.32 -200.974
L313.639 -205.89
L315.957 -210.847
L319.969 -205.447
L323.987 -201.451
L328.016 -198.984
L332.064 -198.109
L336.136 -198.835
L340.237 -201.109
L344.373 -204.82
L348.546 -209.803
L352.758 -215.843
L357.008 -222.683
L354.631 -215.178
L352.257 -207.745
L349.889 -200.627
L347.531 -194.052
L345.182 -188.224
L342.845 -183.317
L340.52 -179.472
L338.204 -176.784
L335.895 -175.309
L333.593 -175.053
L329.424 -171.263
L325.278 -168.058
L321.155 -165.636
L317.053 -164.161
L312.968 -163.762
L308.896 -164.527
L304.832 -166.499
L300.773 -169.674
L296.713 -174.004
L292.648 -179.398
z
" id="C15_3_4a5e2bd9d9"/>
     <path d="
M211.736 -240.089
L214.2 -241.589
L216.656 -243.124
L219.104 -244.694
L221.544 -246.298
L223.976 -247.931
L226.4 -249.59
L228.817 -251.268
L231.228 -252.959
L233.631 -254.655
L236.028 -256.349
L239.813 -263.735
L243.63 -270.845
L247.482 -277.36
L251.372 -282.98
L255.3 -287.44
L259.265 -290.519
L263.265 -292.053
L267.294 -291.945
L271.347 -290.165
L275.417 -286.756
L273.051 -282.104
L270.684 -277.471
L268.312 -272.946
L265.937 -268.611
L263.555 -264.543
L261.165 -260.806
L258.767 -257.45
L256.359 -254.512
L253.939 -252.012
L251.507 -249.95
L247.398 -253.858
L243.31 -256.539
L239.249 -257.957
L235.218 -258.133
L231.22 -257.136
L227.258 -255.086
L223.332 -252.146
L219.438 -248.514
L215.575 -244.415
L211.736 -240.089
z
" id="C15_4_525bbed3b2"/>
     <path d="
M251.507 -249.95
L253.939 -252.012
L256.359 -254.512
L258.767 -257.45
L261.165 -260.806
L263.555 -264.543
L265.937 -268.611
L268.312 -272.946
L270.684 -277.471
L273.051 -282.104
L275.417 -286.756
L279.497 -281.83
L283.582 -275.564
L287.664 -268.189
L291.74 -259.979
L295.806 -251.242
L299.859 -242.301
L303.898 -233.485
L307.926 -225.111
L311.944 -217.477
L315.957 -210.847
L313.639 -205.89
L311.32 -200.974
L308.999 -196.26
L306.677 -191.902
L304.352 -188.039
L302.024 -184.79
L299.692 -182.249
L297.353 -180.484
L295.006 -179.531
L292.648 -179.398
L288.576 -185.722
L284.492 -192.807
L280.397 -200.452
L276.288 -208.431
L272.168 -216.504
L268.038 -224.424
L263.902 -231.946
L259.765 -238.84
L255.631 -244.899
L251.507 -249.95
z
" id="C15_5_8c8b7ad6d7"/>
     <path d="
M186.649 -226.11
L189.192 -227.525
L191.728 -228.916
L194.257 -230.29
L196.778 -231.656
L199.292 -233.021
L201.797 -234.393
L204.294 -235.78
L206.783 -237.188
L209.264 -238.623
L211.736 -240.089
L215.575 -244.415
L219.438 -248.514
L223.332 -252.146
L227.258 -255.086
L231.22 -257.136
L235.218 -258.133
L239.249 -257.957
L243.31 -256.539
L247.398 -253.858
L251.507 -249.95
L249.061 -248.312
L246.602 -247.065
L244.129 -246.162
L241.643 -245.541
L239.143 -245.129
L236.632 -244.842
L234.111 -244.594
L231.581 -244.294
L229.044 -243.855
L226.503 -243.191
L222.376 -244.83
L218.276 -245.624
L214.206 -245.553
L210.169 -244.631
L206.167 -242.91
L202.2 -240.472
L198.268 -237.429
L194.368 -233.916
L190.497 -230.088
L186.649 -226.11
z
" id="C15_6_b958c4173f"/>
     <path d="
M226.503 -243.191
L229.044 -243.855
L231.581 -244.294
L234.111 -244.594
L236.632 -244.842
L239.143 -245.129
L241.643 -245.541
L244.129 -246.162
L246.602 -247.065
L249.061 -248.312
L251.507 -249.95
L255.631 -244.899
L259.765 -238.84
L263.902 -231.946
L268.038 -224.424
L272.168 -216.504
L276.288 -208.431
L280.397 -200.452
L284.492 -192.807
L288.576 -185.722
L292.648 -179.398
L290.279 -180.059
L287.897 -181.457
L285.5 -183.507
L283.087 -186.098
L280.658 -189.097
L278.213 -192.352
L275.753 -195.7
L273.279 -198.974
L270.792 -202.006
L268.295 -204.636
L264.122 -208.025
L259.944 -211.938
L255.76 -216.23
L251.571 -220.744
L247.38 -225.311
L243.188 -229.758
L239 -233.917
L234.82 -237.632
L230.653 -240.762
L226.503 -243.191
z
" id="C15_7_675b6fbe2f"/>
     <path d="
M357.008 -222.683
L359.384 -230.012
L361.753 -236.922
L364.11 -243.186
L366.45 -248.6
L368.768 -252.995
L371.059 -256.243
L373.319 -258.264
L375.544 -259.03
L377.733 -258.565
L379.886 -256.945
L384.28 -267.031
L388.715 -277.375
L393.182 -287.564
L397.668 -297.182
L402.158 -305.831
L406.637 -313.145
L411.09 -318.807
L415.502 -322.57
L419.859 -324.266
L424.152 -323.815
L422.028 -325.277
L419.836 -325.126
L417.575 -323.258
L415.25 -319.645
L412.863 -314.33
L410.422 -307.429
L407.937 -299.126
L405.417 -289.663
L402.875 -279.325
L400.321 -268.432
L396.058 -269.567
L391.754 -268.997
L387.419 -266.783
L383.061 -263.052
L378.691 -258
L374.32 -251.87
L369.958 -244.952
L365.613 -237.561
L361.295 -230.028
L357.008 -222.683
z
" id="C15_8_b981aeff2a"/>
     <path d="
M333.593 -175.053
L335.895 -175.309
L338.204 -176.784
L340.52 -179.472
L342.845 -183.317
L345.182 -188.224
L347.531 -194.052
L349.889 -200.627
L352.257 -207.745
L354.631 -215.178
L357.008 -222.683
L361.295 -230.028
L365.613 -237.561
L369.958 -244.952
L374.32 -251.87
L378.691 -258
L383.061 -263.052
L387.419 -266.783
L391.754 -268.997
L396.058 -269.567
L400.321 -268.432
L397.767 -257.32
L395.222 -246.332
L392.696 -235.796
L390.197 -226.023
L387.73 -217.286
L385.3 -209.817
L382.907 -203.8
L380.553 -199.36
L378.236 -196.566
L375.952 -195.424
L371.741 -197.647
L367.509 -198.61
L363.26 -198.355
L359.002 -196.971
L354.74 -194.599
L350.482 -191.416
L346.234 -187.633
L342 -183.481
L337.785 -179.205
L333.593 -175.053
z
" id="C15_9_7b0608621c"/>
     <path d="
M268.295 -204.636
L270.792 -202.006
L273.279 -198.974
L275.753 -195.7
L278.213 -192.352
L280.658 -189.097
L283.087 -186.098
L285.5 -183.507
L287.897 -181.457
L290.279 -180.059
L292.648 -179.398
L296.713 -174.004
L300.773 -169.674
L304.832 -166.499
L308.896 -164.527
L312.968 -163.762
L317.053 -164.161
L321.155 -165.636
L325.278 -168.058
L329.424 -171.263
L333.593 -175.053
L331.292 -175.979
L328.991 -178.003
L326.685 -181.001
L324.371 -184.807
L322.046 -189.225
L319.708 -194.029
L317.353 -198.978
L314.981 -203.82
L312.591 -208.304
L310.183 -212.189
L305.936 -208.434
L301.71 -205.098
L297.501 -202.32
L293.308 -200.218
L289.128 -198.879
L284.956 -198.366
L280.79 -198.706
L276.627 -199.894
L272.462 -201.894
L268.295 -204.636
z
" id="C15_a_fc3ff6bcd7"/>
     <path d="
M375.952 -195.424
L378.236 -196.566
L380.553 -199.36
L382.907 -203.8
L385.3 -209.817
L387.73 -217.286
L390.197 -226.023
L392.696 -235.796
L395.222 -246.332
L397.767 -257.32
L400.321 -268.432
L404.538 -265.605
L408.705 -261.174
L412.82 -255.29
L416.886 -248.17
L420.907 -240.076
L424.891 -231.312
L428.848 -222.201
L432.79 -213.079
L436.731 -204.277
L440.686 -196.108
L438.083 -184.753
L435.492 -173.543
L432.93 -162.875
L430.412 -153.12
L427.947 -144.608
L425.546 -137.618
L423.212 -132.371
L420.95 -129.022
L418.758 -127.655
L416.632 -128.286
L412.624 -135.687
L408.623 -143.556
L404.618 -151.661
L400.601 -159.759
L396.565 -167.601
L392.503 -174.949
L388.412 -181.58
L384.29 -187.301
L380.136 -191.954
L375.952 -195.424
z
" id="C15_b_961aa5dea5"/>
     <path d="
M400.321 -268.432
L402.875 -279.325
L405.417 -289.663
L407.937 -299.126
L410.422 -307.429
L412.863 -314.33
L415.25 -319.645
L417.575 -323.258
L419.836 -325.126
L422.028 -325.277
L424.152 -323.815
L428.372 -321.232
L432.515 -316.623
L436.582 -310.184
L440.575 -302.186
L444.505 -292.965
L448.383 -282.902
L452.224 -272.408
L456.047 -261.906
L459.872 -251.81
L463.72 -242.513
L461.84 -246.268
L459.854 -248.102
L457.759 -247.884
L455.557 -245.57
L453.254 -241.209
L450.86 -234.938
L448.389 -226.977
L445.858 -217.615
L443.284 -207.197
L440.686 -196.108
L436.731 -204.277
L432.79 -213.079
L428.848 -222.201
L424.891 -231.312
L420.907 -240.076
L416.886 -248.17
L412.82 -255.29
L408.705 -261.174
L404.538 -265.605
L400.321 -268.432
z
" id="C15_c_6c835141d3"/>
     <path d="
M160.866 -209.805
L163.473 -211.609
L166.072 -213.384
L168.666 -215.124
L171.253 -216.824
L173.835 -218.48
L176.41 -220.092
L178.979 -221.659
L181.542 -223.182
L184.099 -224.664
L186.649 -226.11
L190.497 -230.088
L194.368 -233.916
L198.268 -237.429
L202.2 -240.472
L206.167 -242.91
L210.169 -244.631
L214.206 -245.553
L218.276 -245.624
L222.376 -244.83
L226.503 -243.191
L223.961 -242.227
L221.418 -240.901
L218.878 -239.162
L216.342 -236.978
L213.811 -234.333
L211.287 -231.231
L208.769 -227.693
L206.259 -223.758
L203.754 -219.481
L201.255 -214.93
L197.11 -216.184
L192.988 -216.992
L188.888 -217.346
L184.813 -217.252
L180.764 -216.737
L176.74 -215.842
L172.74 -214.627
L168.763 -213.161
L164.806 -211.525
L160.866 -209.805
z
" id="C15_d_047b267fe2"/>
     <path d="
M201.255 -214.93
L203.754 -219.481
L206.259 -223.758
L208.769 -227.693
L211.287 -231.231
L213.811 -234.333
L216.342 -236.978
L218.878 -239.162
L221.418 -240.901
L223.961 -242.227
L226.503 -243.191
L230.653 -240.762
L234.82 -237.632
L239 -233.917
L243.188 -229.758
L247.38 -225.311
L251.571 -220.744
L255.76 -216.23
L259.944 -211.938
L264.122 -208.025
L268.295 -204.636
L265.789 -206.721
L263.279 -208.135
L260.766 -208.783
L258.252 -208.597
L255.741 -207.547
L253.234 -205.635
L250.733 -202.901
L248.238 -199.418
L245.75 -195.289
L243.266 -190.645
L239.054 -192.836
L234.84 -195.303
L230.625 -197.968
L226.411 -200.748
L222.198 -203.552
L217.99 -206.291
L213.788 -208.875
L209.597 -211.223
L205.418 -213.262
L201.255 -214.93
z
" id="C15_e_60bb2b3c3d"/>
     <path d="
M310.183 -212.189
L312.591 -208.304
L314.981 -203.82
L317.353 -198.978
L319.708 -194.029
L322.046 -189.225
L324.371 -184.807
L326.685 -181.001
L328.991 -178.003
L331.292 -175.979
L333.593 -175.053
L337.785 -179.205
L342 -183.481
L346.234 -187.633
L350.482 -191.416
L354.74 -194.599
L359.002 -196.971
L363.26 -198.355
L367.509 -198.61
L371.741 -197.647
L375.952 -195.424
L373.696 -195.881
L371.463 -197.822
L369.246 -201.077
L367.038 -205.423
L364.83 -210.595
L362.615 -216.289
L360.385 -222.177
L358.136 -227.917
L355.859 -233.168
L353.553 -237.601
L349.183 -238.059
L344.811 -237.625
L340.44 -236.331
L336.074 -234.244
L331.717 -231.461
L327.374 -228.11
L323.047 -224.339
L318.738 -220.313
L314.45 -216.205
L310.183 -212.189
z
" id="C15_f_58919f43f6"/>
     <path d="
M134.368 -191.792
L137.059 -193.492
L139.741 -195.226
L142.412 -196.994
L145.074 -198.79
L147.726 -200.609
L150.37 -202.445
L153.006 -204.291
L155.633 -206.138
L158.253 -207.979
L160.866 -209.805
L164.806 -211.525
L168.763 -213.161
L172.74 -214.627
L176.74 -215.842
L180.764 -216.737
L184.813 -217.252
L188.888 -217.346
L192.988 -216.992
L197.11 -216.184
L201.255 -214.93
L198.758 -210.185
L196.262 -205.332
L193.763 -200.46
L191.26 -195.659
L188.748 -191.018
L186.224 -186.616
L183.685 -182.522
L181.128 -178.795
L178.551 -175.478
L175.951 -172.597
L171.764 -174.687
L167.583 -176.734
L163.409 -178.739
L159.241 -180.7
L155.08 -182.621
L150.926 -184.505
L146.777 -186.358
L142.635 -188.185
L138.499 -189.993
L134.368 -191.792
z
" id="C15_10_8e0cbf3ce3"/>
     <path d="
M243.266 -190.645
L245.75 -195.289
L248.238 -199.418
L250.733 -202.901
L253.234 -205.635
L255.741 -207.547
L258.252 -208.597
L260.766 -208.783
L263.279 -208.135
L265.789 -206.721
L268.295 -204.636
L272.462 -201.894
L276.627 -199.894
L280.79 -198.706
L284.956 -198.366
L289.128 -198.879
L293.308 -200.218
L297.501 -202.32
L301.71 -205.098
L305.936 -208.434
L310.183 -212.189
L307.757 -215.257
L305.315 -217.32
L302.86 -218.232
L300.393 -217.892
L297.919 -216.252
L295.439 -213.32
L292.956 -209.156
L290.473 -203.874
L287.992 -197.631
L285.515 -190.625
L281.254 -189.049
L277.006 -187.689
L272.77 -186.622
L268.543 -185.91
L264.323 -185.602
L260.108 -185.729
L255.897 -186.308
L251.687 -187.336
L247.477 -188.794
L243.266 -190.645
z
" id="C15_11_4529d314b7"/>
     <path d="
M353.553 -237.601
L355.859 -233.168
L358.136 -227.917
L360.385 -222.177
L362.615 -216.289
L364.83 -210.595
L367.038 -205.423
L369.246 -201.077
L371.463 -197.822
L373.696 -195.881
L375.952 -195.424
L380.136 -191.954
L384.29 -187.301
L388.412 -181.58
L392.503 -174.949
L396.565 -167.601
L400.601 -159.759
L404.618 -151.661
L408.623 -143.556
L412.624 -135.687
L416.632 -128.286
L414.566 -130.854
L412.552 -135.231
L410.578 -141.218
L408.633 -148.555
L406.703 -156.924
L404.775 -165.964
L402.832 -175.277
L400.863 -184.446
L398.855 -193.05
L396.796 -200.685
L392.485 -204.916
L388.181 -209.472
L383.88 -214.186
L379.576 -218.879
L375.265 -223.377
L370.945 -227.509
L366.613 -231.118
L362.27 -234.071
L357.916 -236.257
L353.553 -237.601
z
" id="C15_12_7953ffb46c"/>
     <path d="
M175.951 -172.597
L178.551 -175.478
L181.128 -178.795
L183.685 -182.522
L186.224 -186.616
L188.748 -191.018
L191.26 -195.659
L193.763 -200.46
L196.262 -205.332
L198.758 -210.185
L201.255 -214.93
L205.418 -213.262
L209.597 -211.223
L213.788 -208.875
L217.99 -206.291
L222.198 -203.552
L226.411 -200.748
L230.625 -197.968
L234.84 -195.303
L239.054 -192.836
L243.266 -190.645
L240.787 -185.635
L238.309 -180.425
L235.829 -175.184
L233.345 -170.086
L230.851 -165.295
L228.343 -160.963
L225.818 -157.224
L223.271 -154.187
L220.698 -151.936
L218.095 -150.522
L213.862 -152.718
L209.633 -154.936
L205.407 -157.17
L201.185 -159.412
L196.967 -161.654
L192.754 -163.889
L188.545 -166.107
L184.342 -168.302
L180.143 -170.467
L175.951 -172.597
z
" id="C15_13_df4d507811"/>
     <path d="
M218.095 -150.522
L220.698 -151.936
L223.271 -154.187
L225.818 -157.224
L228.343 -160.963
L230.851 -165.295
L233.345 -170.086
L235.829 -175.184
L238.309 -180.425
L240.787 -185.635
L243.266 -190.645
L247.477 -188.794
L251.687 -187.336
L255.897 -186.308
L260.108 -185.729
L264.323 -185.602
L268.543 -185.91
L272.77 -186.622
L277.006 -187.689
L281.254 -189.049
L285.515 -190.625
L283.04 -183.085
L280.569 -175.257
L278.101 -167.397
L275.632 -159.76
L273.161 -152.59
L270.684 -146.11
L268.197 -140.515
L265.697 -135.964
L263.18 -132.576
L260.641 -130.426
L256.366 -132.305
L252.096 -134.2
L247.831 -136.119
L243.571 -138.068
L239.315 -140.05
L235.064 -142.069
L230.816 -144.127
L226.572 -146.223
L222.332 -148.356
L218.095 -150.522
z
" id="C15_14_16b84c0dbe"/>
     <path d="
M285.515 -190.625
L287.992 -197.631
L290.473 -203.874
L292.956 -209.156
L295.439 -213.32
L297.919 -216.252
L300.393 -217.892
L302.86 -218.232
L305.315 -217.32
L307.757 -215.257
L310.183 -212.189
L314.45 -216.205
L318.738 -220.313
L323.047 -224.339
L327.374 -228.11
L331.717 -231.461
L336.074 -234.244
L340.44 -236.331
L344.811 -237.625
L349.183 -238.059
L353.553 -237.601
L351.213 -240.919
L348.838 -242.867
L346.428 -243.245
L343.986 -241.918
L341.513 -238.825
L339.015 -233.979
L336.496 -227.469
L333.961 -219.453
L331.416 -210.155
L328.866 -199.847
L324.484 -200.504
L320.108 -200.694
L315.739 -200.433
L311.381 -199.755
L307.035 -198.711
L302.701 -197.366
L298.382 -195.798
L294.078 -194.091
L289.789 -192.336
L285.515 -190.625
z
" id="C15_15_54d31edf4c"/>
     <path d="
M260.641 -130.426
L263.18 -132.576
L265.697 -135.964
L268.197 -140.515
L270.684 -146.11
L273.161 -152.59
L275.632 -159.76
L278.101 -167.397
L280.569 -175.257
L283.04 -183.085
L285.515 -190.625
L289.789 -192.336
L294.078 -194.091
L298.382 -195.798
L302.701 -197.366
L307.035 -198.711
L311.381 -199.755
L315.739 -200.433
L320.108 -200.694
L324.484 -200.504
L328.866 -199.847
L326.316 -188.841
L323.77 -177.472
L321.231 -166.086
L318.701 -155.023
L316.181 -144.606
L313.671 -135.128
L311.169 -126.84
L308.672 -119.95
L306.178 -114.608
L303.684 -110.908
L299.356 -113.01
L295.033 -115.069
L290.715 -117.087
L286.402 -119.064
L282.095 -121.007
L277.793 -122.921
L273.497 -124.812
L269.206 -126.687
L264.921 -128.556
L260.641 -130.426
z
" id="C15_16_be4b3d8809"/>
     <path d="
M303.684 -110.908
L306.178 -114.608
L308.672 -119.95
L311.169 -126.84
L313.671 -135.128
L316.181 -144.606
L318.701 -155.023
L321.231 -166.086
L323.77 -177.472
L326.316 -188.841
L328.866 -199.847
L333.252 -198.727
L337.641 -197.165
L342.032 -195.201
L346.422 -192.892
L350.813 -190.308
L355.205 -187.529
L359.597 -184.644
L363.992 -181.746
L368.392 -178.927
L372.799 -176.276
L370.17 -164.872
L367.538 -153.015
L364.914 -141.134
L362.305 -129.65
L359.718 -118.964
L357.158 -109.437
L354.628 -101.382
L352.127 -95.0552
L349.657 -90.6458
L347.212 -88.273
L342.839 -90.5719
L338.471 -92.8835
L334.107 -95.1999
L329.748 -97.5129
L325.393 -99.8145
L321.042 -102.097
L316.696 -104.353
L312.354 -106.576
L308.017 -108.763
L303.684 -110.908
z
" id="C15_17_b60e9e28be"/>
     <path d="
M328.866 -199.847
L331.416 -210.155
L333.961 -219.453
L336.496 -227.469
L339.015 -233.979
L341.513 -238.825
L343.986 -241.918
L346.428 -243.245
L348.838 -242.867
L351.213 -240.919
L353.553 -237.601
L357.916 -236.257
L362.27 -234.071
L366.613 -231.118
L370.945 -227.509
L375.265 -223.377
L379.576 -218.879
L383.88 -214.186
L388.181 -209.472
L392.485 -204.916
L396.796 -200.685
L394.677 -206.976
L392.493 -211.6
L390.239 -214.302
L387.916 -214.907
L385.524 -213.33
L383.07 -209.583
L380.561 -203.771
L378.005 -196.089
L375.414 -186.811
L372.799 -176.276
L368.392 -178.927
L363.992 -181.746
L359.597 -184.644
L355.205 -187.529
L350.813 -190.308
L346.422 -192.892
L342.032 -195.201
L337.641 -197.165
L333.252 -198.727
L328.866 -199.847
z
" id="C15_18_adaae9435b"/>
    </defs>
    <g clip-path="url(#p7ff5b81e1d)">
     <use style="fill:#848400;fill-opacity:0.5;stroke:#000000;" x="0.0" xlink:href="#C15_0_7ca309c770" y="432.0"/>
    </g>
    <g clip-path="url(#p7ff5b81e1d)">
     <use style="fill:#a5a500;fill-opacity:0.5;stroke:#000000;" x="0.0" xlink:href="#C15_1_9bea6e4e67" y="432.0"/>
    </g>
    <g clip-path="url(#p7ff5b81e1d)">
     <use style="fill:#dfdf00;fill-opacity:0.5;stroke:#000000;" x="0.0" xlink:href="#C15_2_ba3e187f8a" y="432.0"/>
    </g>
    <g clip-path="url(#p7ff5b81e1d)">
     <use style="fill:#808000;fill-opacity:0.5;stroke:#000000;" x="0.0" xlink:href="#C15_3_4a5e2bd9d9" y="432.0"/>
    </g>
    <g clip-path="url(#p7ff5b81e1d)">
     <use style="fill:#808000;fill-opacity:0.5;stroke:#000000;" x="0.0" xlink:href="#C15_4_525bbed3b2" y="432.0"/>
    </g>
    <g clip-path="url(#p7ff5b81e1d)">
     <use style="fill:#dbdb00;fill-opacity:0.5;stroke:#000000;" x="0.0" xlink:href="#C15_5_8c8b7ad6d7" y="432.0"/>
    </g>
    <g clip-path="url(#p7ff5b81e1d)">
     <use style="fill:#868600;fill-opacity:0.5;stroke:#000000;" x="0.0" xlink:href="#C15_6_b958c4173f" y="432.0"/>
    </g>
    <g clip-path="url(#p7ff5b81e1d)">
     <use style="fill:#f8f800;fill-opacity:0.5;stroke:#000000;" x="0.0" xlink:href="#C15_7_675b6fbe2f" y="432.0"/>
    </g>
    <g clip-path="url(#p7ff5b81e1d)">
     <use style="fill:#858500;fill-opacity:0.5;stroke:#000000;" x="0.0" xlink:href="#C15_8_b981aeff2a" y="432.0"/>
    </g>
    <g clip-path="url(#p7ff5b81e1d)">
     <use style="fill:#868600;fill-opacity:0.5;stroke:#000000;" x="0.0" xlink:href="#C15_9_7b0608621c" y="432.0"/>
    </g>
    <g clip-path="url(#p7ff5b81e1d)">
     <use style="fill:#dfdf00;fill-opacity:0.5;stroke:#000000;" x="0.0" xlink:href="#C15_a_fc3ff6bcd7" y="432.0"/>
    </g>
    <g clip-path="url(#p7ff5b81e1d)">
     <use style="fill:#c5c500;fill-opacity:0.5;stroke:#000000;" x="0.0" xlink:href="#C15_b_961aa5dea5" y="432.0"/>
    </g>
    <g clip-path="url(#p7ff5b81e1d)">
     <use style="fill:#c4c400;fill-opacity:0.5;stroke:#000000;" x="0.0" xlink:href="#C15_c_6c835141d3" y="432.0"/>
    </g>
    <g clip-path="url(#p7ff5b81e1d)">
     <use style="fill:#848400;fill-opacity:0.5;stroke:#000000;" x="0.0" xlink:href="#C15_d_047b267fe2" y="432.0"/>
    </g>
    <g clip-path="url(#p7ff5b81e1d)">
     <use style="fill:#c2c200;fill-opacity:0.5;stroke:#000000;" x="0.0" xlink:href="#C15_e_60bb2b3c3d" y="432.0"/>
    </g>
    <g clip-path="url(#p7ff5b81e1d)">
     <use style="fill:#cfcf00;fill-opacity:0.5;stroke:#000000;" x="0.0" xlink:href="#C15_f_58919f43f6" y="432.0"/>
    </g>
    <g clip-path="url(#p7ff5b81e1d)">
     <use style="fill:#b2b200;fill-opacity:0.5;stroke:#000000;" x="0.0" xlink:href="#C15_10_8e0cbf3ce3" y="432.0"/>
    </g>
    <g clip-path="url(#p7ff5b81e1d)">
     <use style="fill:#acac00;fill-opacity:0.5;stroke:#000000;" x="0.0" xlink:href="#C15_11_4529d314b7" y="432.0"/>
    </g>
    <g clip-path="url(#p7ff5b81e1d)">
     <use style="fill:#ffff00;fill-opacity:0.5;stroke:#000000;" x="0.0" xlink:href="#C15_12_7953ffb46c" y="432.0"/>
    </g>
    <g clip-path="url(#p7ff5b81e1d)">
     <use style="fill:#b4b400;fill-opacity:0.5;stroke:#000000;" x="0.0" xlink:href="#C15_13_df4d507811" y="432.0"/>
    </g>
    <g clip-path="url(#p7ff5b81e1d)">
     <use style="fill:#abab00;fill-opacity:0.5;stroke:#000000;" x="0.0" xlink:href="#C15_14_16b84c0dbe" y="432.0"/>
    </g>
    <g clip-path="url(#p7ff5b81e1d)">
     <use style="fill:#8a8a00;fill-opacity:0.5;stroke:#000000;" x="0.0" xlink:href="#C15_15_54d31edf4c" y="432.0"/>
    </g>
    <g clip-path="url(#p7ff5b81e1d)">
     <use style="fill:#a0a000;fill-opacity:0.5;stroke:#000000;" x="0.0" xlink:href="#C15_16_be4b3d8809" y="432.0"/>
    </g>
    <g clip-path="url(#p7ff5b81e1d)">
     <use style="fill:#a5a500;fill-opacity:0.5;stroke:#000000;" x="0.0" xlink:href="#C15_17_b60e9e28be" y="432.0"/>
    </g>
    <g clip-path="url(#p7ff5b81e1d)">
     <use style="fill:#888800;fill-opacity:0.5;stroke:#000000;" x="0.0" xlink:href="#C15_18_adaae9435b" y="432.0"/>
    </g>
   </g>
  </g>
 </g>
 <defs>
  <clipPath id="p7ff5b81e1d">
   <rect height="345.6" width="446.4" x="72.0" y="43.2"/>
  </clipPath>
 </defs>
</svg>
