<?xml version="1.0" encoding="utf-8" standalone="no"?>
<!DOCTYPE svg PUBLIC "-//W3C//DTD SVG 1.1//EN"
  "http://www.w3.org/Graphics/SVG/1.1/DTD/svg11.dtd">
<!-- Created with matplotlib (http://matplotlib.org/) -->
<svg height="432pt" version="1.1" viewBox="0 0 720 432" width="720pt" xmlns="http://www.w3.org/2000/svg" xmlns:xlink="http://www.w3.org/1999/xlink">
 <defs>
  <style type="text/css">
*{stroke-linecap:butt;stroke-linejoin:round;stroke-miterlimit:100000;}
  </style>
 </defs>
 <g id="figure_1">
  <g id="patch_1">
   <path d="M 0 432 
L 720 432 
L 720 0 
L 0 0 
z
" style="fill:#ffffff;"/>
  </g>
  <g id="axes_1">
   <g id="patch_2">
    <path d="M 189.469565 216 
C 189.469565 210.902547 188.465478 205.85466 186.514767 201.145227 
C 184.564056 196.435795 181.704658 192.156403 178.100215 188.551959 
C 174.495771 184.947516 170.216379 182.088118 165.506946 180.137407 
C 160.797514 178.186696 155.749627 177.182609 150.652174 177.182609 
C 145.554721 177.182609 140.506834 178.186696 135.797401 180.137407 
C 131.087969 182.088118 126.808577 184.947516 123.204133 188.551959 
C 119.59969 192.156403 116.740291 196.435795 114.789581 201.145227 
C 112.83887 205.85466 111.834783 210.902547 111.834783 216 
C 111.834783 221.097453 112.83887 226.14534 114.789581 230.854773 
C 116.740291 235.564205 119.59969 239.843597 123.204133 243.448041 
C 126.808577 247.052484 131.087969 249.911882 135.797401 251.862593 
C 140.506834 253.813304 145.554721 254.817391 150.652174 254.817391 
C 155.749627 254.817391 160.797514 253.813304 165.506946 251.862593 
C 170.216379 249.911882 174.495771 247.052484 178.100215 243.448041 
C 181.704658 239.843597 184.564056 235.564205 186.514767 230.854773 
C 188.465478 226.14534 189.469565 221.097453 189.469565 216 
M 150.652174 216 
M 189.469565 216 
z
" style="fill:#ffffff;stroke:#215c58;stroke-linejoin:miter;"/>
   </g>
   <g id="patch_3">
    <path d="M 150.652174 167.478261 
C 138.853008 167.478261 127.449629 171.782115 118.59281 179.578079 
C 109.73599 187.374043 104.01991 198.139109 102.522669 209.842894 
C 101.025429 221.546679 103.847474 233.404009 110.456543 243.178492 
C 117.065612 252.952975 127.018321 259.988868 138.437506 262.959142 
L 150.652174 216 
L 150.652174 167.478261 
z
" style="fill:#ffffff;opacity:0.1;stroke:#ffffff;stroke-linejoin:miter;"/>
   </g>
   <g id="patch_4">
    <path d="M 138.437506 262.959142 
C 145.107201 264.694015 152.070607 264.98818 158.862856 263.822002 
C 165.655104 262.655823 172.121607 260.055842 177.830668 256.19563 
C 183.539728 252.335417 188.361411 247.30283 191.973827 241.433839 
C 195.586243 235.564847 197.907174 228.993025 198.781679 222.157102 
C 199.656184 215.321178 199.064358 208.376734 197.045712 201.787373 
C 195.027066 195.198012 191.627543 189.113704 187.07409 183.940631 
C 182.520638 178.767558 176.916891 174.623456 170.636949 171.784981 
C 164.357007 168.946506 157.543798 167.47826 150.652165 167.478261 
L 150.652174 216 
L 138.437506 262.959142 
z
" style="fill:#215c58;stroke:#ffffff;stroke-linejoin:miter;"/>
   </g>
   <g id="patch_5">
    <path d="M 179.765217 216 
C 179.765217 212.17691 179.012152 208.390995 177.549119 204.858921 
C 176.086086 201.326846 173.941537 198.117302 171.238204 195.41397 
C 168.534872 192.710637 165.325328 190.566088 161.793253 189.103055 
C 158.261179 187.640022 154.475264 186.886957 150.652174 186.886957 
C 146.829084 186.886957 143.043169 187.640022 139.511095 189.103055 
C 135.97902 190.566088 132.769476 192.710637 130.066143 195.41397 
C 127.362811 198.117302 125.218262 201.326846 123.755229 204.858921 
C 122.292196 208.390995 121.53913 212.17691 121.53913 216 
C 121.53913 219.82309 122.292196 223.609005 123.755229 227.141079 
C 125.218262 230.673154 127.362811 233.882698 130.066143 236.58603 
C 132.769476 239.289363 135.97902 241.433912 139.511095 242.896945 
C 143.043169 244.359978 146.829084 245.113043 150.652174 245.113043 
C 154.475264 245.113043 158.261179 244.359978 161.793253 242.896945 
C 165.325328 241.433912 168.534872 239.289363 171.238204 236.58603 
C 173.941537 233.882698 176.086086 230.673154 177.549119 227.141079 
C 179.012152 223.609005 179.765217 219.82309 179.765217 216 
M 150.652174 216 
M 179.765217 216 
z
" style="fill:#ffffff;stroke:#ffffff;stroke-linejoin:miter;"/>
   </g>
   <g id="matplotlib.axis_1"/>
   <g id="matplotlib.axis_2"/>
   <g id="text_1">
    <!-- Western - 54.05 % -->
    <defs>
     <path id="BitstreamVeraSans-Roman-20"/>
     <path d="M 31.78125 66.40625 
Q 24.171875 66.40625 20.328125 58.90625 
Q 16.5 51.421875 16.5 36.375 
Q 16.5 21.390625 20.328125 13.890625 
Q 24.171875 6.390625 31.78125 6.390625 
Q 39.453125 6.390625 43.28125 13.890625 
Q 47.125 21.390625 47.125 36.375 
Q 47.125 51.421875 43.28125 58.90625 
Q 39.453125 66.40625 31.78125 66.40625 
M 31.78125 74.21875 
Q 44.046875 74.21875 50.515625 64.515625 
Q 56.984375 54.828125 56.984375 36.375 
Q 56.984375 17.96875 50.515625 8.265625 
Q 44.046875 -1.421875 31.78125 -1.421875 
Q 19.53125 -1.421875 13.0625 8.265625 
Q 6.59375 17.96875 6.59375 36.375 
Q 6.59375 54.828125 13.0625 64.515625 
Q 19.53125 74.21875 31.78125 74.21875 
" id="BitstreamVeraSans-Roman-30"/>
     <path d="M 72.703125 32.078125 
Q 68.453125 32.078125 66.03125 28.46875 
Q 63.625 24.859375 63.625 18.40625 
Q 63.625 12.0625 66.03125 8.421875 
Q 68.453125 4.78125 72.703125 4.78125 
Q 76.859375 4.78125 79.265625 8.421875 
Q 81.6875 12.0625 81.6875 18.40625 
Q 81.6875 24.8125 79.265625 28.4375 
Q 76.859375 32.078125 72.703125 32.078125 
M 72.703125 38.28125 
Q 80.421875 38.28125 84.953125 32.90625 
Q 89.5 27.546875 89.5 18.40625 
Q 89.5 9.28125 84.9375 3.921875 
Q 80.375 -1.421875 72.703125 -1.421875 
Q 64.890625 -1.421875 60.34375 3.921875 
Q 55.8125 9.28125 55.8125 18.40625 
Q 55.8125 27.59375 60.375 32.9375 
Q 64.9375 38.28125 72.703125 38.28125 
M 22.3125 68.015625 
Q 18.109375 68.015625 15.6875 64.375 
Q 13.28125 60.75 13.28125 54.390625 
Q 13.28125 47.953125 15.671875 44.328125 
Q 18.0625 40.71875 22.3125 40.71875 
Q 26.5625 40.71875 28.96875 44.328125 
Q 31.390625 47.953125 31.390625 54.390625 
Q 31.390625 60.6875 28.953125 64.34375 
Q 26.515625 68.015625 22.3125 68.015625 
M 66.40625 74.21875 
L 74.21875 74.21875 
L 28.609375 -1.421875 
L 20.796875 -1.421875 
z
M 22.3125 74.21875 
Q 30.03125 74.21875 34.609375 68.875 
Q 39.203125 63.53125 39.203125 54.390625 
Q 39.203125 45.171875 34.640625 39.84375 
Q 30.078125 34.515625 22.3125 34.515625 
Q 14.546875 34.515625 10.03125 39.859375 
Q 5.515625 45.21875 5.515625 54.390625 
Q 5.515625 63.484375 10.046875 68.84375 
Q 14.59375 74.21875 22.3125 74.21875 
" id="BitstreamVeraSans-Roman-25"/>
     <path d="M 37.796875 64.3125 
L 12.890625 25.390625 
L 37.796875 25.390625 
z
M 35.203125 72.90625 
L 47.609375 72.90625 
L 47.609375 25.390625 
L 58.015625 25.390625 
L 58.015625 17.1875 
L 47.609375 17.1875 
L 47.609375 0 
L 37.796875 0 
L 37.796875 17.1875 
L 4.890625 17.1875 
L 4.890625 26.703125 
z
" id="BitstreamVeraSans-Roman-34"/>
     <path d="M 10.796875 72.90625 
L 49.515625 72.90625 
L 49.515625 64.59375 
L 19.828125 64.59375 
L 19.828125 46.734375 
Q 21.96875 47.46875 24.109375 47.828125 
Q 26.265625 48.1875 28.421875 48.1875 
Q 40.625 48.1875 47.75 41.5 
Q 54.890625 34.8125 54.890625 23.390625 
Q 54.890625 11.625 47.5625 5.09375 
Q 40.234375 -1.421875 26.90625 -1.421875 
Q 22.3125 -1.421875 17.546875 -0.640625 
Q 12.796875 0.140625 7.71875 1.703125 
L 7.71875 11.625 
Q 12.109375 9.234375 16.796875 8.0625 
Q 21.484375 6.890625 26.703125 6.890625 
Q 35.15625 6.890625 40.078125 11.328125 
Q 45.015625 15.765625 45.015625 23.390625 
Q 45.015625 31 40.078125 35.4375 
Q 35.15625 39.890625 26.703125 39.890625 
Q 22.75 39.890625 18.8125 39.015625 
Q 14.890625 38.140625 10.796875 36.28125 
z
" id="BitstreamVeraSans-Roman-35"/>
     <path d="M 54.890625 33.015625 
L 54.890625 0 
L 45.90625 0 
L 45.90625 32.71875 
Q 45.90625 40.484375 42.875 44.328125 
Q 39.84375 48.1875 33.796875 48.1875 
Q 26.515625 48.1875 22.3125 43.546875 
Q 18.109375 38.921875 18.109375 30.90625 
L 18.109375 0 
L 9.078125 0 
L 9.078125 54.6875 
L 18.109375 54.6875 
L 18.109375 46.1875 
Q 21.34375 51.125 25.703125 53.5625 
Q 30.078125 56 35.796875 56 
Q 45.21875 56 50.046875 50.171875 
Q 54.890625 44.34375 54.890625 33.015625 
" id="BitstreamVeraSans-Roman-6e"/>
     <path d="M 10.6875 12.40625 
L 21 12.40625 
L 21 0 
L 10.6875 0 
z
" id="BitstreamVeraSans-Roman-2e"/>
     <path d="M 4.890625 31.390625 
L 31.203125 31.390625 
L 31.203125 23.390625 
L 4.890625 23.390625 
z
" id="BitstreamVeraSans-Roman-2d"/>
     <path d="M 3.328125 72.90625 
L 13.28125 72.90625 
L 28.609375 11.28125 
L 43.890625 72.90625 
L 54.984375 72.90625 
L 70.3125 11.28125 
L 85.59375 72.90625 
L 95.609375 72.90625 
L 77.296875 0 
L 64.890625 0 
L 49.515625 63.28125 
L 33.984375 0 
L 21.578125 0 
z
" id="BitstreamVeraSans-Roman-57"/>
     <path d="M 56.203125 29.59375 
L 56.203125 25.203125 
L 14.890625 25.203125 
Q 15.484375 15.921875 20.484375 11.0625 
Q 25.484375 6.203125 34.421875 6.203125 
Q 39.59375 6.203125 44.453125 7.46875 
Q 49.3125 8.734375 54.109375 11.28125 
L 54.109375 2.78125 
Q 49.265625 0.734375 44.1875 -0.34375 
Q 39.109375 -1.421875 33.890625 -1.421875 
Q 20.796875 -1.421875 13.15625 6.1875 
Q 5.515625 13.8125 5.515625 26.8125 
Q 5.515625 40.234375 12.765625 48.109375 
Q 20.015625 56 32.328125 56 
Q 43.359375 56 49.78125 48.890625 
Q 56.203125 41.796875 56.203125 29.59375 
M 47.21875 32.234375 
Q 47.125 39.59375 43.09375 43.984375 
Q 39.0625 48.390625 32.421875 48.390625 
Q 24.90625 48.390625 20.390625 44.140625 
Q 15.875 39.890625 15.1875 32.171875 
z
" id="BitstreamVeraSans-Roman-65"/>
     <path d="M 18.3125 70.21875 
L 18.3125 54.6875 
L 36.8125 54.6875 
L 36.8125 47.703125 
L 18.3125 47.703125 
L 18.3125 18.015625 
Q 18.3125 11.328125 20.140625 9.421875 
Q 21.96875 7.515625 27.59375 7.515625 
L 36.8125 7.515625 
L 36.8125 0 
L 27.59375 0 
Q 17.1875 0 13.234375 3.875 
Q 9.28125 7.765625 9.28125 18.015625 
L 9.28125 47.703125 
L 2.6875 47.703125 
L 2.6875 54.6875 
L 9.28125 54.6875 
L 9.28125 70.21875 
z
" id="BitstreamVeraSans-Roman-74"/>
     <path d="M 41.109375 46.296875 
Q 39.59375 47.171875 37.8125 47.578125 
Q 36.03125 48 33.890625 48 
Q 26.265625 48 22.1875 43.046875 
Q 18.109375 38.09375 18.109375 28.8125 
L 18.109375 0 
L 9.078125 0 
L 9.078125 54.6875 
L 18.109375 54.6875 
L 18.109375 46.1875 
Q 20.953125 51.171875 25.484375 53.578125 
Q 30.03125 56 36.53125 56 
Q 37.453125 56 38.578125 55.875 
Q 39.703125 55.765625 41.0625 55.515625 
z
" id="BitstreamVeraSans-Roman-72"/>
     <path d="M 44.28125 53.078125 
L 44.28125 44.578125 
Q 40.484375 46.53125 36.375 47.5 
Q 32.28125 48.484375 27.875 48.484375 
Q 21.1875 48.484375 17.84375 46.4375 
Q 14.5 44.390625 14.5 40.28125 
Q 14.5 37.15625 16.890625 35.375 
Q 19.28125 33.59375 26.515625 31.984375 
L 29.59375 31.296875 
Q 39.15625 29.25 43.1875 25.515625 
Q 47.21875 21.78125 47.21875 15.09375 
Q 47.21875 7.46875 41.1875 3.015625 
Q 35.15625 -1.421875 24.609375 -1.421875 
Q 20.21875 -1.421875 15.453125 -0.5625 
Q 10.6875 0.296875 5.421875 2 
L 5.421875 11.28125 
Q 10.40625 8.6875 15.234375 7.390625 
Q 20.0625 6.109375 24.8125 6.109375 
Q 31.15625 6.109375 34.5625 8.28125 
Q 37.984375 10.453125 37.984375 14.40625 
Q 37.984375 18.0625 35.515625 20.015625 
Q 33.0625 21.96875 24.703125 23.78125 
L 21.578125 24.515625 
Q 13.234375 26.265625 9.515625 29.90625 
Q 5.8125 33.546875 5.8125 39.890625 
Q 5.8125 47.609375 11.28125 51.796875 
Q 16.75 56 26.8125 56 
Q 31.78125 56 36.171875 55.265625 
Q 40.578125 54.546875 44.28125 53.078125 
" id="BitstreamVeraSans-Roman-73"/>
    </defs>
    <g transform="translate(83.667423913 150.347826087)scale(0.144 -0.144)">
     <use xlink:href="#BitstreamVeraSans-Roman-57"/>
     <use x="98.798828125" xlink:href="#BitstreamVeraSans-Roman-65"/>
     <use x="160.322265625" xlink:href="#BitstreamVeraSans-Roman-73"/>
     <use x="212.421875" xlink:href="#BitstreamVeraSans-Roman-74"/>
     <use x="251.630859375" xlink:href="#BitstreamVeraSans-Roman-65"/>
     <use x="313.154296875" xlink:href="#BitstreamVeraSans-Roman-72"/>
     <use x="354.251953125" xlink:href="#BitstreamVeraSans-Roman-6e"/>
     <use x="417.630859375" xlink:href="#BitstreamVeraSans-Roman-20"/>
     <use x="449.41796875" xlink:href="#BitstreamVeraSans-Roman-2d"/>
     <use x="485.501953125" xlink:href="#BitstreamVeraSans-Roman-20"/>
     <use x="517.2890625" xlink:href="#BitstreamVeraSans-Roman-35"/>
     <use x="580.912109375" xlink:href="#BitstreamVeraSans-Roman-34"/>
     <use x="644.53515625" xlink:href="#BitstreamVeraSans-Roman-2e"/>
     <use x="676.322265625" xlink:href="#BitstreamVeraSans-Roman-30"/>
     <use x="739.9453125" xlink:href="#BitstreamVeraSans-Roman-35"/>
     <use x="803.568359375" xlink:href="#BitstreamVeraSans-Roman-20"/>
     <use x="835.35546875" xlink:href="#BitstreamVeraSans-Roman-25"/>
    </g>
   </g>
  </g>
  <g id="axes_2">
   <g id="patch_6">
    <path d="M 335.034783 216 
C 335.034783 210.902547 334.030695 205.85466 332.079985 201.145227 
C 330.129274 196.435795 327.269876 192.156403 323.665432 188.551959 
C 320.060988 184.947516 315.781596 182.088118 311.072164 180.137407 
C 306.362731 178.186696 301.314844 177.182609 296.217391 177.182609 
C 291.119938 177.182609 286.072051 178.186696 281.362619 180.137407 
C 276.653186 182.088118 272.373794 184.947516 268.769351 188.551959 
C 265.164907 192.156403 262.305509 196.435795 260.354798 201.145227 
C 258.404087 205.85466 257.4 210.902547 257.4 216 
C 257.4 221.097453 258.404087 226.14534 260.354798 230.854773 
C 262.305509 235.564205 265.164907 239.843597 268.769351 243.448041 
C 272.373794 247.052484 276.653186 249.911882 281.362619 251.862593 
C 286.072051 253.813304 291.119938 254.817391 296.217391 254.817391 
C 301.314844 254.817391 306.362731 253.813304 311.072164 251.862593 
C 315.781596 249.911882 320.060988 247.052484 323.665432 243.448041 
C 327.269876 239.843597 330.129274 235.564205 332.079985 230.854773 
C 334.030695 226.14534 335.034783 221.097453 335.034783 216 
M 296.217391 216 
M 335.034783 216 
z
" style="fill:#ffffff;stroke:#0ba895;stroke-linejoin:miter;"/>
   </g>
   <g id="patch_7">
    <path d="M 296.217391 167.478261 
C 290.769867 167.478261 285.361034 168.395649 280.218167 170.191878 
C 275.0753 171.988108 270.271454 174.637661 266.008483 178.029209 
C 261.745511 181.420756 258.083969 185.506118 255.177713 190.113633 
C 252.271457 194.721148 250.16177 199.785365 248.937298 205.09349 
C 247.712827 210.401615 247.390965 215.878245 247.985238 221.293257 
C 248.579511 226.70827 250.081476 231.984743 252.428023 236.900966 
C 254.774569 241.817188 257.932364 246.303322 261.768719 250.170867 
C 265.605074 254.038411 270.065494 257.232426 274.962555 259.618701 
C 279.859616 262.004977 285.123756 263.549616 290.533779 264.187713 
C 295.943802 264.825811 301.422859 264.548304 306.740724 263.366852 
C 312.05859 262.1854 317.139722 260.116786 321.770618 257.247931 
C 326.401513 254.379076 330.516389 250.750733 333.942341 246.515362 
C 337.368294 242.279991 340.056657 237.497756 341.894468 232.369601 
C 343.732279 227.241446 344.693432 221.840219 344.73754 216.392873 
C 344.781648 210.945527 343.908084 205.529444 342.153555 200.372202 
C 340.399025 195.21496 337.788454 190.389818 334.431535 186.099525 
L 296.217391 216 
L 296.217391 167.478261 
z
" style="fill:#ffffff;opacity:0.1;stroke:#ffffff;stroke-linejoin:miter;"/>
   </g>
   <g id="patch_8">
    <path d="M 334.431535 186.099525 
C 329.893053 180.299142 324.092951 175.607493 317.47223 172.3813 
C 310.851509 169.155107 303.582331 167.478262 296.217396 167.478261 
L 296.217391 216 
L 334.431535 186.099525 
z
" style="fill:#0ba895;stroke:#ffffff;stroke-linejoin:miter;"/>
   </g>
   <g id="patch_9">
    <path d="M 325.330435 216 
C 325.330435 212.17691 324.577369 208.390995 323.114336 204.858921 
C 321.651303 201.326846 319.506755 198.117302 316.803422 195.41397 
C 314.100089 192.710637 310.890545 190.566088 307.358471 189.103055 
C 303.826396 187.640022 300.040481 186.886957 296.217391 186.886957 
C 292.394301 186.886957 288.608386 187.640022 285.076312 189.103055 
C 281.544237 190.566088 278.334694 192.710637 275.631361 195.41397 
C 272.928028 198.117302 270.783479 201.326846 269.320446 204.858921 
C 267.857413 208.390995 267.104348 212.17691 267.104348 216 
C 267.104348 219.82309 267.857413 223.609005 269.320446 227.141079 
C 270.783479 230.673154 272.928028 233.882698 275.631361 236.58603 
C 278.334694 239.289363 281.544237 241.433912 285.076312 242.896945 
C 288.608386 244.359978 292.394301 245.113043 296.217391 245.113043 
C 300.040481 245.113043 303.826396 244.359978 307.358471 242.896945 
C 310.890545 241.433912 314.100089 239.289363 316.803422 236.58603 
C 319.506755 233.882698 321.651303 230.673154 323.114336 227.141079 
C 324.577369 223.609005 325.330435 219.82309 325.330435 216 
M 296.217391 216 
M 325.330435 216 
z
" style="fill:#ffffff;stroke:#ffffff;stroke-linejoin:miter;"/>
   </g>
   <g id="matplotlib.axis_3"/>
   <g id="matplotlib.axis_4"/>
   <g id="text_2">
    <!-- USA - 14.43 % -->
    <defs>
     <path d="M 40.578125 39.3125 
Q 47.65625 37.796875 51.625 33 
Q 55.609375 28.21875 55.609375 21.1875 
Q 55.609375 10.40625 48.1875 4.484375 
Q 40.765625 -1.421875 27.09375 -1.421875 
Q 22.515625 -1.421875 17.65625 -0.515625 
Q 12.796875 0.390625 7.625 2.203125 
L 7.625 11.71875 
Q 11.71875 9.328125 16.59375 8.109375 
Q 21.484375 6.890625 26.8125 6.890625 
Q 36.078125 6.890625 40.9375 10.546875 
Q 45.796875 14.203125 45.796875 21.1875 
Q 45.796875 27.640625 41.28125 31.265625 
Q 36.765625 34.90625 28.71875 34.90625 
L 20.21875 34.90625 
L 20.21875 43.015625 
L 29.109375 43.015625 
Q 36.375 43.015625 40.234375 45.921875 
Q 44.09375 48.828125 44.09375 54.296875 
Q 44.09375 59.90625 40.109375 62.90625 
Q 36.140625 65.921875 28.71875 65.921875 
Q 24.65625 65.921875 20.015625 65.03125 
Q 15.375 64.15625 9.8125 62.3125 
L 9.8125 71.09375 
Q 15.4375 72.65625 20.34375 73.4375 
Q 25.25 74.21875 29.59375 74.21875 
Q 40.828125 74.21875 47.359375 69.109375 
Q 53.90625 64.015625 53.90625 55.328125 
Q 53.90625 49.265625 50.4375 45.09375 
Q 46.96875 40.921875 40.578125 39.3125 
" id="BitstreamVeraSans-Roman-33"/>
     <path d="M 12.40625 8.296875 
L 28.515625 8.296875 
L 28.515625 63.921875 
L 10.984375 60.40625 
L 10.984375 69.390625 
L 28.421875 72.90625 
L 38.28125 72.90625 
L 38.28125 8.296875 
L 54.390625 8.296875 
L 54.390625 0 
L 12.40625 0 
z
" id="BitstreamVeraSans-Roman-31"/>
     <path d="M 53.515625 70.515625 
L 53.515625 60.890625 
Q 47.90625 63.578125 42.921875 64.890625 
Q 37.9375 66.21875 33.296875 66.21875 
Q 25.25 66.21875 20.875 63.09375 
Q 16.5 59.96875 16.5 54.203125 
Q 16.5 49.359375 19.40625 46.890625 
Q 22.3125 44.4375 30.421875 42.921875 
L 36.375 41.703125 
Q 47.40625 39.59375 52.65625 34.296875 
Q 57.90625 29 57.90625 20.125 
Q 57.90625 9.515625 50.796875 4.046875 
Q 43.703125 -1.421875 29.984375 -1.421875 
Q 24.8125 -1.421875 18.96875 -0.25 
Q 13.140625 0.921875 6.890625 3.21875 
L 6.890625 13.375 
Q 12.890625 10.015625 18.65625 8.296875 
Q 24.421875 6.59375 29.984375 6.59375 
Q 38.421875 6.59375 43.015625 9.90625 
Q 47.609375 13.234375 47.609375 19.390625 
Q 47.609375 24.75 44.3125 27.78125 
Q 41.015625 30.8125 33.5 32.328125 
L 27.484375 33.5 
Q 16.453125 35.6875 11.515625 40.375 
Q 6.59375 45.0625 6.59375 53.421875 
Q 6.59375 63.09375 13.40625 68.65625 
Q 20.21875 74.21875 32.171875 74.21875 
Q 37.3125 74.21875 42.625 73.28125 
Q 47.953125 72.359375 53.515625 70.515625 
" id="BitstreamVeraSans-Roman-53"/>
     <path d="M 8.6875 72.90625 
L 18.609375 72.90625 
L 18.609375 28.609375 
Q 18.609375 16.890625 22.84375 11.734375 
Q 27.09375 6.59375 36.625 6.59375 
Q 46.09375 6.59375 50.34375 11.734375 
Q 54.59375 16.890625 54.59375 28.609375 
L 54.59375 72.90625 
L 64.5 72.90625 
L 64.5 27.390625 
Q 64.5 13.140625 57.4375 5.859375 
Q 50.390625 -1.421875 36.625 -1.421875 
Q 22.796875 -1.421875 15.734375 5.859375 
Q 8.6875 13.140625 8.6875 27.390625 
z
" id="BitstreamVeraSans-Roman-55"/>
     <path d="M 34.1875 63.1875 
L 20.796875 26.90625 
L 47.609375 26.90625 
z
M 28.609375 72.90625 
L 39.796875 72.90625 
L 67.578125 0 
L 57.328125 0 
L 50.6875 18.703125 
L 17.828125 18.703125 
L 11.1875 0 
L 0.78125 0 
z
" id="BitstreamVeraSans-Roman-41"/>
    </defs>
    <g transform="translate(244.534891304 150.347826087)scale(0.144 -0.144)">
     <use xlink:href="#BitstreamVeraSans-Roman-55"/>
     <use x="73.193359375" xlink:href="#BitstreamVeraSans-Roman-53"/>
     <use x="136.685546875" xlink:href="#BitstreamVeraSans-Roman-41"/>
     <use x="205.09375" xlink:href="#BitstreamVeraSans-Roman-20"/>
     <use x="236.880859375" xlink:href="#BitstreamVeraSans-Roman-2d"/>
     <use x="272.96484375" xlink:href="#BitstreamVeraSans-Roman-20"/>
     <use x="304.751953125" xlink:href="#BitstreamVeraSans-Roman-31"/>
     <use x="368.375" xlink:href="#BitstreamVeraSans-Roman-34"/>
     <use x="431.998046875" xlink:href="#BitstreamVeraSans-Roman-2e"/>
     <use x="463.78515625" xlink:href="#BitstreamVeraSans-Roman-34"/>
     <use x="527.408203125" xlink:href="#BitstreamVeraSans-Roman-33"/>
     <use x="591.03125" xlink:href="#BitstreamVeraSans-Roman-20"/>
     <use x="622.818359375" xlink:href="#BitstreamVeraSans-Roman-25"/>
    </g>
   </g>
  </g>
  <g id="axes_3">
   <g id="patch_10">
    <path d="M 480.6 216 
C 480.6 210.902547 479.595913 205.85466 477.645202 201.145227 
C 475.694491 196.435795 472.835093 192.156403 469.230649 188.551959 
C 465.626206 184.947516 461.346814 182.088118 456.637381 180.137407 
C 451.927949 178.186696 446.880062 177.182609 441.782609 177.182609 
C 436.685156 177.182609 431.637269 178.186696 426.927836 180.137407 
C 422.218404 182.088118 417.939012 184.947516 414.334568 188.551959 
C 410.730124 192.156403 407.870726 196.435795 405.920015 201.145227 
C 403.969305 205.85466 402.965217 210.902547 402.965217 216 
C 402.965217 221.097453 403.969305 226.14534 405.920015 230.854773 
C 407.870726 235.564205 410.730124 239.843597 414.334568 243.448041 
C 417.939012 247.052484 422.218404 249.911882 426.927836 251.862593 
C 431.637269 253.813304 436.685156 254.817391 441.782609 254.817391 
C 446.880062 254.817391 451.927949 253.813304 456.637381 251.862593 
C 461.346814 249.911882 465.626206 247.052484 469.230649 243.448041 
C 472.835093 239.843597 475.694491 235.564205 477.645202 230.854773 
C 479.595913 226.14534 480.6 221.097453 480.6 216 
M 441.782609 216 
M 480.6 216 
z
" style="fill:#ffffff;stroke:#7c976a;stroke-linejoin:miter;"/>
   </g>
   <g id="patch_11">
    <path d="M 441.782609 167.478261 
C 435.646806 167.478261 429.566319 168.642112 423.864221 170.907977 
C 418.162122 173.173841 412.941223 176.500864 408.478924 180.712272 
C 404.016625 184.92368 400.393382 189.943539 397.801709 195.505131 
C 395.210037 201.066722 393.696663 207.069769 393.341997 213.195313 
C 392.987331 219.320856 393.797768 225.45845 395.730247 231.281988 
C 397.662726 237.105526 400.682405 242.510007 404.628838 247.208276 
C 408.575272 251.906545 413.377305 255.813891 418.779792 258.722706 
C 424.182279 261.63152 430.087812 263.489356 436.182613 264.197502 
C 442.277414 264.905648 448.451592 264.451335 454.377095 262.858703 
C 460.302599 261.266071 465.872589 258.563835 470.791117 254.895573 
C 475.709646 251.227311 479.888029 246.659161 483.104258 241.433844 
C 486.320488 236.208527 488.516573 230.420256 489.575831 224.376579 
C 490.635089 218.332901 490.53842 212.142785 489.290961 206.135131 
C 488.043502 200.127476 485.667744 194.410602 482.289919 189.288262 
C 478.912094 184.165922 474.593105 179.730473 469.562431 176.217584 
C 464.531758 172.704695 458.880104 170.177703 452.907759 168.770876 
L 441.782609 216 
L 441.782609 167.478261 
z
" style="fill:#ffffff;opacity:0.1;stroke:#ffffff;stroke-linejoin:miter;"/>
   </g>
   <g id="patch_12">
    <path d="M 452.907759 168.770876 
C 451.086257 168.341808 449.241457 168.018475 447.382606 167.802498 
C 445.523756 167.586521 443.653967 167.478261 441.782612 167.478261 
L 441.782609 216 
L 452.907759 168.770876 
z
" style="fill:#7c976a;stroke:#ffffff;stroke-linejoin:miter;"/>
   </g>
   <g id="patch_13">
    <path d="M 470.895652 216 
C 470.895652 212.17691 470.142587 208.390995 468.679554 204.858921 
C 467.216521 201.326846 465.071972 198.117302 462.368639 195.41397 
C 459.665306 192.710637 456.455763 190.566088 452.923688 189.103055 
C 449.391614 187.640022 445.605699 186.886957 441.782609 186.886957 
C 437.959519 186.886957 434.173604 187.640022 430.641529 189.103055 
C 427.109455 190.566088 423.899911 192.710637 421.196578 195.41397 
C 418.493245 198.117302 416.348697 201.326846 414.885664 204.858921 
C 413.422631 208.390995 412.669565 212.17691 412.669565 216 
C 412.669565 219.82309 413.422631 223.609005 414.885664 227.141079 
C 416.348697 230.673154 418.493245 233.882698 421.196578 236.58603 
C 423.899911 239.289363 427.109455 241.433912 430.641529 242.896945 
C 434.173604 244.359978 437.959519 245.113043 441.782609 245.113043 
C 445.605699 245.113043 449.391614 244.359978 452.923688 242.896945 
C 456.455763 241.433912 459.665306 239.289363 462.368639 236.58603 
C 465.071972 233.882698 467.216521 230.673154 468.679554 227.141079 
C 470.142587 223.609005 470.895652 219.82309 470.895652 216 
M 441.782609 216 
M 470.895652 216 
z
" style="fill:#ffffff;stroke:#ffffff;stroke-linejoin:miter;"/>
   </g>
   <g id="matplotlib.axis_5"/>
   <g id="matplotlib.axis_6"/>
   <g id="text_3">
    <!-- Japan - 3.68 % -->
    <defs>
     <path d="M 33.015625 40.375 
Q 26.375 40.375 22.484375 35.828125 
Q 18.609375 31.296875 18.609375 23.390625 
Q 18.609375 15.53125 22.484375 10.953125 
Q 26.375 6.390625 33.015625 6.390625 
Q 39.65625 6.390625 43.53125 10.953125 
Q 47.40625 15.53125 47.40625 23.390625 
Q 47.40625 31.296875 43.53125 35.828125 
Q 39.65625 40.375 33.015625 40.375 
M 52.59375 71.296875 
L 52.59375 62.3125 
Q 48.875 64.0625 45.09375 64.984375 
Q 41.3125 65.921875 37.59375 65.921875 
Q 27.828125 65.921875 22.671875 59.328125 
Q 17.53125 52.734375 16.796875 39.40625 
Q 19.671875 43.65625 24.015625 45.921875 
Q 28.375 48.1875 33.59375 48.1875 
Q 44.578125 48.1875 50.953125 41.515625 
Q 57.328125 34.859375 57.328125 23.390625 
Q 57.328125 12.15625 50.6875 5.359375 
Q 44.046875 -1.421875 33.015625 -1.421875 
Q 20.359375 -1.421875 13.671875 8.265625 
Q 6.984375 17.96875 6.984375 36.375 
Q 6.984375 53.65625 15.1875 63.9375 
Q 23.390625 74.21875 37.203125 74.21875 
Q 40.921875 74.21875 44.703125 73.484375 
Q 48.484375 72.75 52.59375 71.296875 
" id="BitstreamVeraSans-Roman-36"/>
     <path d="M 31.78125 34.625 
Q 24.75 34.625 20.71875 30.859375 
Q 16.703125 27.09375 16.703125 20.515625 
Q 16.703125 13.921875 20.71875 10.15625 
Q 24.75 6.390625 31.78125 6.390625 
Q 38.8125 6.390625 42.859375 10.171875 
Q 46.921875 13.96875 46.921875 20.515625 
Q 46.921875 27.09375 42.890625 30.859375 
Q 38.875 34.625 31.78125 34.625 
M 21.921875 38.8125 
Q 15.578125 40.375 12.03125 44.71875 
Q 8.5 49.078125 8.5 55.328125 
Q 8.5 64.0625 14.71875 69.140625 
Q 20.953125 74.21875 31.78125 74.21875 
Q 42.671875 74.21875 48.875 69.140625 
Q 55.078125 64.0625 55.078125 55.328125 
Q 55.078125 49.078125 51.53125 44.71875 
Q 48 40.375 41.703125 38.8125 
Q 48.828125 37.15625 52.796875 32.3125 
Q 56.78125 27.484375 56.78125 20.515625 
Q 56.78125 9.90625 50.3125 4.234375 
Q 43.84375 -1.421875 31.78125 -1.421875 
Q 19.734375 -1.421875 13.25 4.234375 
Q 6.78125 9.90625 6.78125 20.515625 
Q 6.78125 27.484375 10.78125 32.3125 
Q 14.796875 37.15625 21.921875 38.8125 
M 18.3125 54.390625 
Q 18.3125 48.734375 21.84375 45.5625 
Q 25.390625 42.390625 31.78125 42.390625 
Q 38.140625 42.390625 41.71875 45.5625 
Q 45.3125 48.734375 45.3125 54.390625 
Q 45.3125 60.0625 41.71875 63.234375 
Q 38.140625 66.40625 31.78125 66.40625 
Q 25.390625 66.40625 21.84375 63.234375 
Q 18.3125 60.0625 18.3125 54.390625 
" id="BitstreamVeraSans-Roman-38"/>
     <path d="M 34.28125 27.484375 
Q 23.390625 27.484375 19.1875 25 
Q 14.984375 22.515625 14.984375 16.5 
Q 14.984375 11.71875 18.140625 8.90625 
Q 21.296875 6.109375 26.703125 6.109375 
Q 34.1875 6.109375 38.703125 11.40625 
Q 43.21875 16.703125 43.21875 25.484375 
L 43.21875 27.484375 
z
M 52.203125 31.203125 
L 52.203125 0 
L 43.21875 0 
L 43.21875 8.296875 
Q 40.140625 3.328125 35.546875 0.953125 
Q 30.953125 -1.421875 24.3125 -1.421875 
Q 15.921875 -1.421875 10.953125 3.296875 
Q 6 8.015625 6 15.921875 
Q 6 25.140625 12.171875 29.828125 
Q 18.359375 34.515625 30.609375 34.515625 
L 43.21875 34.515625 
L 43.21875 35.40625 
Q 43.21875 41.609375 39.140625 45 
Q 35.0625 48.390625 27.6875 48.390625 
Q 23 48.390625 18.546875 47.265625 
Q 14.109375 46.140625 10.015625 43.890625 
L 10.015625 52.203125 
Q 14.9375 54.109375 19.578125 55.046875 
Q 24.21875 56 28.609375 56 
Q 40.484375 56 46.34375 49.84375 
Q 52.203125 43.703125 52.203125 31.203125 
" id="BitstreamVeraSans-Roman-61"/>
     <path d="M 18.109375 8.203125 
L 18.109375 -20.796875 
L 9.078125 -20.796875 
L 9.078125 54.6875 
L 18.109375 54.6875 
L 18.109375 46.390625 
Q 20.953125 51.265625 25.265625 53.625 
Q 29.59375 56 35.59375 56 
Q 45.5625 56 51.78125 48.09375 
Q 58.015625 40.1875 58.015625 27.296875 
Q 58.015625 14.40625 51.78125 6.484375 
Q 45.5625 -1.421875 35.59375 -1.421875 
Q 29.59375 -1.421875 25.265625 0.953125 
Q 20.953125 3.328125 18.109375 8.203125 
M 48.6875 27.296875 
Q 48.6875 37.203125 44.609375 42.84375 
Q 40.53125 48.484375 33.40625 48.484375 
Q 26.265625 48.484375 22.1875 42.84375 
Q 18.109375 37.203125 18.109375 27.296875 
Q 18.109375 17.390625 22.1875 11.75 
Q 26.265625 6.109375 33.40625 6.109375 
Q 40.53125 6.109375 44.609375 11.75 
Q 48.6875 17.390625 48.6875 27.296875 
" id="BitstreamVeraSans-Roman-70"/>
     <path d="M 9.8125 72.90625 
L 19.671875 72.90625 
L 19.671875 5.078125 
Q 19.671875 -8.109375 14.671875 -14.0625 
Q 9.671875 -20.015625 -1.421875 -20.015625 
L -5.171875 -20.015625 
L -5.171875 -11.71875 
L -2.09375 -11.71875 
Q 4.4375 -11.71875 7.125 -8.046875 
Q 9.8125 -4.390625 9.8125 5.078125 
z
" id="BitstreamVeraSans-Roman-4a"/>
    </defs>
    <g transform="translate(389.365483696 150.347826087)scale(0.144 -0.144)">
     <use xlink:href="#BitstreamVeraSans-Roman-4a"/>
     <use x="29.4921875" xlink:href="#BitstreamVeraSans-Roman-61"/>
     <use x="90.771484375" xlink:href="#BitstreamVeraSans-Roman-70"/>
     <use x="154.248046875" xlink:href="#BitstreamVeraSans-Roman-61"/>
     <use x="215.52734375" xlink:href="#BitstreamVeraSans-Roman-6e"/>
     <use x="278.90625" xlink:href="#BitstreamVeraSans-Roman-20"/>
     <use x="310.693359375" xlink:href="#BitstreamVeraSans-Roman-2d"/>
     <use x="346.77734375" xlink:href="#BitstreamVeraSans-Roman-20"/>
     <use x="378.564453125" xlink:href="#BitstreamVeraSans-Roman-33"/>
     <use x="442.1875" xlink:href="#BitstreamVeraSans-Roman-2e"/>
     <use x="473.974609375" xlink:href="#BitstreamVeraSans-Roman-36"/>
     <use x="537.59765625" xlink:href="#BitstreamVeraSans-Roman-38"/>
     <use x="601.220703125" xlink:href="#BitstreamVeraSans-Roman-20"/>
     <use x="633.0078125" xlink:href="#BitstreamVeraSans-Roman-25"/>
    </g>
   </g>
  </g>
  <g id="axes_4">
   <g id="patch_14">
    <path d="M 626.165217 216 
C 626.165217 210.902547 625.16113 205.85466 623.210419 201.145227 
C 621.259709 196.435795 618.40031 192.156403 614.795867 188.551959 
C 611.191423 184.947516 606.912031 182.088118 602.202599 180.137407 
C 597.493166 178.186696 592.445279 177.182609 587.347826 177.182609 
C 582.250373 177.182609 577.202486 178.186696 572.493054 180.137407 
C 567.783621 182.088118 563.504229 184.947516 559.899785 188.551959 
C 556.295342 192.156403 553.435944 196.435795 551.485233 201.145227 
C 549.534522 205.85466 548.530435 210.902547 548.530435 216 
C 548.530435 221.097453 549.534522 226.14534 551.485233 230.854773 
C 553.435944 235.564205 556.295342 239.843597 559.899785 243.448041 
C 563.504229 247.052484 567.783621 249.911882 572.493054 251.862593 
C 577.202486 253.813304 582.250373 254.817391 587.347826 254.817391 
C 592.445279 254.817391 597.493166 253.813304 602.202599 251.862593 
C 606.912031 249.911882 611.191423 247.052484 614.795867 243.448041 
C 618.40031 239.843597 621.259709 235.564205 623.210419 230.854773 
C 625.16113 226.14534 626.165217 221.097453 626.165217 216 
M 587.347826 216 
M 626.165217 216 
z
" style="fill:#ffffff;stroke:#d4643f;stroke-linejoin:miter;"/>
   </g>
   <g id="patch_15">
    <path d="M 587.347826 167.478261 
C 578.119838 167.478261 569.080562 170.110764 561.295526 175.065457 
C 553.510491 180.020149 547.298102 187.094386 543.390663 195.454271 
C 539.483224 203.814156 538.040548 213.117773 539.232694 222.268431 
C 540.42484 231.419089 544.20305 240.04253 550.121957 247.12224 
C 556.040864 254.201951 563.858386 259.448373 572.653011 262.24307 
C 581.447635 265.037768 590.859665 265.266438 599.779631 262.902126 
C 608.699596 260.537813 616.762674 255.677218 623.018405 248.893297 
C 629.274135 242.109376 633.466663 233.679588 635.10178 224.59762 
L 587.347826 216 
L 587.347826 167.478261 
z
" style="fill:#ffffff;opacity:0.1;stroke:#ffffff;stroke-linejoin:miter;"/>
   </g>
   <g id="patch_16">
    <path d="M 635.10178 224.59762 
C 636.3598 217.610168 636.068998 210.431008 634.249952 203.568197 
C 632.430907 196.705386 629.127565 190.324726 624.573698 184.877763 
C 620.019831 179.430801 614.325459 175.049132 607.893561 172.04284 
C 601.461663 169.036548 594.447631 167.478262 587.347835 167.478261 
L 587.347826 216 
L 635.10178 224.59762 
z
" style="fill:#d4643f;stroke:#ffffff;stroke-linejoin:miter;"/>
   </g>
   <g id="patch_17">
    <path d="M 616.46087 216 
C 616.46087 212.17691 615.707804 208.390995 614.244771 204.858921 
C 612.781738 201.326846 610.637189 198.117302 607.933857 195.41397 
C 605.230524 192.710637 602.02098 190.566088 598.488905 189.103055 
C 594.956831 187.640022 591.170916 186.886957 587.347826 186.886957 
C 583.524736 186.886957 579.738821 187.640022 576.206747 189.103055 
C 572.674672 190.566088 569.465128 192.710637 566.761796 195.41397 
C 564.058463 198.117302 561.913914 201.326846 560.450881 204.858921 
C 558.987848 208.390995 558.234783 212.17691 558.234783 216 
C 558.234783 219.82309 558.987848 223.609005 560.450881 227.141079 
C 561.913914 230.673154 564.058463 233.882698 566.761796 236.58603 
C 569.465128 239.289363 572.674672 241.433912 576.206747 242.896945 
C 579.738821 244.359978 583.524736 245.113043 587.347826 245.113043 
C 591.170916 245.113043 594.956831 244.359978 598.488905 242.896945 
C 602.02098 241.433912 605.230524 239.289363 607.933857 236.58603 
C 610.637189 233.882698 612.781738 230.673154 614.244771 227.141079 
C 615.707804 223.609005 616.46087 219.82309 616.46087 216 
M 587.347826 216 
M 616.46087 216 
z
" style="fill:#ffffff;stroke:#ffffff;stroke-linejoin:miter;"/>
   </g>
   <g id="matplotlib.axis_7"/>
   <g id="matplotlib.axis_8"/>
   <g id="text_4">
    <!-- China - 27.84 % -->
    <defs>
     <path d="M 19.1875 8.296875 
L 53.609375 8.296875 
L 53.609375 0 
L 7.328125 0 
L 7.328125 8.296875 
Q 12.9375 14.109375 22.625 23.890625 
Q 32.328125 33.6875 34.8125 36.53125 
Q 39.546875 41.84375 41.421875 45.53125 
Q 43.3125 49.21875 43.3125 52.78125 
Q 43.3125 58.59375 39.234375 62.25 
Q 35.15625 65.921875 28.609375 65.921875 
Q 23.96875 65.921875 18.8125 64.3125 
Q 13.671875 62.703125 7.8125 59.421875 
L 7.8125 69.390625 
Q 13.765625 71.78125 18.9375 73 
Q 24.125 74.21875 28.421875 74.21875 
Q 39.75 74.21875 46.484375 68.546875 
Q 53.21875 62.890625 53.21875 53.421875 
Q 53.21875 48.921875 51.53125 44.890625 
Q 49.859375 40.875 45.40625 35.40625 
Q 44.1875 33.984375 37.640625 27.21875 
Q 31.109375 20.453125 19.1875 8.296875 
" id="BitstreamVeraSans-Roman-32"/>
     <path d="M 9.421875 54.6875 
L 18.40625 54.6875 
L 18.40625 0 
L 9.421875 0 
z
M 9.421875 75.984375 
L 18.40625 75.984375 
L 18.40625 64.59375 
L 9.421875 64.59375 
z
" id="BitstreamVeraSans-Roman-69"/>
     <path d="M 64.40625 67.28125 
L 64.40625 56.890625 
Q 59.421875 61.53125 53.78125 63.8125 
Q 48.140625 66.109375 41.796875 66.109375 
Q 29.296875 66.109375 22.65625 58.46875 
Q 16.015625 50.828125 16.015625 36.375 
Q 16.015625 21.96875 22.65625 14.328125 
Q 29.296875 6.6875 41.796875 6.6875 
Q 48.140625 6.6875 53.78125 8.984375 
Q 59.421875 11.28125 64.40625 15.921875 
L 64.40625 5.609375 
Q 59.234375 2.09375 53.4375 0.328125 
Q 47.65625 -1.421875 41.21875 -1.421875 
Q 24.65625 -1.421875 15.125 8.703125 
Q 5.609375 18.84375 5.609375 36.375 
Q 5.609375 53.953125 15.125 64.078125 
Q 24.65625 74.21875 41.21875 74.21875 
Q 47.75 74.21875 53.53125 72.484375 
Q 59.328125 70.75 64.40625 67.28125 
" id="BitstreamVeraSans-Roman-43"/>
     <path d="M 54.890625 33.015625 
L 54.890625 0 
L 45.90625 0 
L 45.90625 32.71875 
Q 45.90625 40.484375 42.875 44.328125 
Q 39.84375 48.1875 33.796875 48.1875 
Q 26.515625 48.1875 22.3125 43.546875 
Q 18.109375 38.921875 18.109375 30.90625 
L 18.109375 0 
L 9.078125 0 
L 9.078125 75.984375 
L 18.109375 75.984375 
L 18.109375 46.1875 
Q 21.34375 51.125 25.703125 53.5625 
Q 30.078125 56 35.796875 56 
Q 45.21875 56 50.046875 50.171875 
Q 54.890625 44.34375 54.890625 33.015625 
" id="BitstreamVeraSans-Roman-68"/>
     <path d="M 8.203125 72.90625 
L 55.078125 72.90625 
L 55.078125 68.703125 
L 28.609375 0 
L 18.3125 0 
L 43.21875 64.59375 
L 8.203125 64.59375 
z
" id="BitstreamVeraSans-Roman-37"/>
    </defs>
    <g transform="translate(529.865951087 150.347826087)scale(0.144 -0.144)">
     <use xlink:href="#BitstreamVeraSans-Roman-43"/>
     <use x="69.82421875" xlink:href="#BitstreamVeraSans-Roman-68"/>
     <use x="133.203125" xlink:href="#BitstreamVeraSans-Roman-69"/>
     <use x="160.986328125" xlink:href="#BitstreamVeraSans-Roman-6e"/>
     <use x="224.365234375" xlink:href="#BitstreamVeraSans-Roman-61"/>
     <use x="285.64453125" xlink:href="#BitstreamVeraSans-Roman-20"/>
     <use x="317.431640625" xlink:href="#BitstreamVeraSans-Roman-2d"/>
     <use x="353.515625" xlink:href="#BitstreamVeraSans-Roman-20"/>
     <use x="385.302734375" xlink:href="#BitstreamVeraSans-Roman-32"/>
     <use x="448.92578125" xlink:href="#BitstreamVeraSans-Roman-37"/>
     <use x="512.548828125" xlink:href="#BitstreamVeraSans-Roman-2e"/>
     <use x="544.3359375" xlink:href="#BitstreamVeraSans-Roman-38"/>
     <use x="607.958984375" xlink:href="#BitstreamVeraSans-Roman-34"/>
     <use x="671.58203125" xlink:href="#BitstreamVeraSans-Roman-20"/>
     <use x="703.369140625" xlink:href="#BitstreamVeraSans-Roman-25"/>
    </g>
   </g>
  </g>
  <g id="text_5">
   <!-- Countries' PastGDP in 1870 -->
   <defs>
    <path d="M 59.515625 10.40625 
L 59.515625 29.984375 
L 43.40625 29.984375 
L 43.40625 38.09375 
L 69.28125 38.09375 
L 69.28125 6.78125 
Q 63.578125 2.734375 56.6875 0.65625 
Q 49.8125 -1.421875 42 -1.421875 
Q 24.90625 -1.421875 15.25 8.5625 
Q 5.609375 18.5625 5.609375 36.375 
Q 5.609375 54.25 15.25 64.234375 
Q 24.90625 74.21875 42 74.21875 
Q 49.125 74.21875 55.546875 72.453125 
Q 61.96875 70.703125 67.390625 67.28125 
L 67.390625 56.78125 
Q 61.921875 61.421875 55.765625 63.765625 
Q 49.609375 66.109375 42.828125 66.109375 
Q 29.4375 66.109375 22.71875 58.640625 
Q 16.015625 51.171875 16.015625 36.375 
Q 16.015625 21.625 22.71875 14.15625 
Q 29.4375 6.6875 42.828125 6.6875 
Q 48.046875 6.6875 52.140625 7.59375 
Q 56.25 8.5 59.515625 10.40625 
" id="BitstreamVeraSans-Roman-47"/>
    <path d="M 17.921875 72.90625 
L 17.921875 45.796875 
L 9.625 45.796875 
L 9.625 72.90625 
z
" id="BitstreamVeraSans-Roman-27"/>
    <path d="M 30.609375 48.390625 
Q 23.390625 48.390625 19.1875 42.75 
Q 14.984375 37.109375 14.984375 27.296875 
Q 14.984375 17.484375 19.15625 11.84375 
Q 23.34375 6.203125 30.609375 6.203125 
Q 37.796875 6.203125 41.984375 11.859375 
Q 46.1875 17.53125 46.1875 27.296875 
Q 46.1875 37.015625 41.984375 42.703125 
Q 37.796875 48.390625 30.609375 48.390625 
M 30.609375 56 
Q 42.328125 56 49.015625 48.375 
Q 55.71875 40.765625 55.71875 27.296875 
Q 55.71875 13.875 49.015625 6.21875 
Q 42.328125 -1.421875 30.609375 -1.421875 
Q 18.84375 -1.421875 12.171875 6.21875 
Q 5.515625 13.875 5.515625 27.296875 
Q 5.515625 40.765625 12.171875 48.375 
Q 18.84375 56 30.609375 56 
" id="BitstreamVeraSans-Roman-6f"/>
    <path d="M 19.671875 64.796875 
L 19.671875 37.40625 
L 32.078125 37.40625 
Q 38.96875 37.40625 42.71875 40.96875 
Q 46.484375 44.53125 46.484375 51.125 
Q 46.484375 57.671875 42.71875 61.234375 
Q 38.96875 64.796875 32.078125 64.796875 
z
M 9.8125 72.90625 
L 32.078125 72.90625 
Q 44.34375 72.90625 50.609375 67.359375 
Q 56.890625 61.8125 56.890625 51.125 
Q 56.890625 40.328125 50.609375 34.8125 
Q 44.34375 29.296875 32.078125 29.296875 
L 19.671875 29.296875 
L 19.671875 0 
L 9.8125 0 
z
" id="BitstreamVeraSans-Roman-50"/>
    <path d="M 19.671875 64.796875 
L 19.671875 8.109375 
L 31.59375 8.109375 
Q 46.6875 8.109375 53.6875 14.9375 
Q 60.6875 21.78125 60.6875 36.53125 
Q 60.6875 51.171875 53.6875 57.984375 
Q 46.6875 64.796875 31.59375 64.796875 
z
M 9.8125 72.90625 
L 30.078125 72.90625 
Q 51.265625 72.90625 61.171875 64.09375 
Q 71.09375 55.28125 71.09375 36.53125 
Q 71.09375 17.671875 61.125 8.828125 
Q 51.171875 0 30.078125 0 
L 9.8125 0 
z
" id="BitstreamVeraSans-Roman-44"/>
    <path d="M 8.5 21.578125 
L 8.5 54.6875 
L 17.484375 54.6875 
L 17.484375 21.921875 
Q 17.484375 14.15625 20.5 10.265625 
Q 23.53125 6.390625 29.59375 6.390625 
Q 36.859375 6.390625 41.078125 11.03125 
Q 45.3125 15.671875 45.3125 23.6875 
L 45.3125 54.6875 
L 54.296875 54.6875 
L 54.296875 0 
L 45.3125 0 
L 45.3125 8.40625 
Q 42.046875 3.421875 37.71875 1 
Q 33.40625 -1.421875 27.6875 -1.421875 
Q 18.265625 -1.421875 13.375 4.4375 
Q 8.5 10.296875 8.5 21.578125 
" id="BitstreamVeraSans-Roman-75"/>
   </defs>
   <g transform="translate(288.0 86.4)scale(0.12 -0.12)">
    <use xlink:href="#BitstreamVeraSans-Roman-43"/>
    <use x="69.82421875" xlink:href="#BitstreamVeraSans-Roman-6f"/>
    <use x="131.005859375" xlink:href="#BitstreamVeraSans-Roman-75"/>
    <use x="194.384765625" xlink:href="#BitstreamVeraSans-Roman-6e"/>
    <use x="257.763671875" xlink:href="#BitstreamVeraSans-Roman-74"/>
    <use x="296.97265625" xlink:href="#BitstreamVeraSans-Roman-72"/>
    <use x="338.0859375" xlink:href="#BitstreamVeraSans-Roman-69"/>
    <use x="365.869140625" xlink:href="#BitstreamVeraSans-Roman-65"/>
    <use x="427.392578125" xlink:href="#BitstreamVeraSans-Roman-73"/>
    <use x="479.4921875" xlink:href="#BitstreamVeraSans-Roman-27"/>
    <use x="506.982421875" xlink:href="#BitstreamVeraSans-Roman-20"/>
    <use x="538.76953125" xlink:href="#BitstreamVeraSans-Roman-50"/>
    <use x="599.009765625" xlink:href="#BitstreamVeraSans-Roman-61"/>
    <use x="660.2890625" xlink:href="#BitstreamVeraSans-Roman-73"/>
    <use x="712.388671875" xlink:href="#BitstreamVeraSans-Roman-74"/>
    <use x="751.59765625" xlink:href="#BitstreamVeraSans-Roman-47"/>
    <use x="829.087890625" xlink:href="#BitstreamVeraSans-Roman-44"/>
    <use x="906.08984375" xlink:href="#BitstreamVeraSans-Roman-50"/>
    <use x="966.392578125" xlink:href="#BitstreamVeraSans-Roman-20"/>
    <use x="998.1796875" xlink:href="#BitstreamVeraSans-Roman-69"/>
    <use x="1025.96289062" xlink:href="#BitstreamVeraSans-Roman-6e"/>
    <use x="1089.34179688" xlink:href="#BitstreamVeraSans-Roman-20"/>
    <use x="1121.12890625" xlink:href="#BitstreamVeraSans-Roman-31"/>
    <use x="1184.75195312" xlink:href="#BitstreamVeraSans-Roman-38"/>
    <use x="1248.375" xlink:href="#BitstreamVeraSans-Roman-37"/>
    <use x="1311.99804688" xlink:href="#BitstreamVeraSans-Roman-30"/>
   </g>
  </g>
  <g id="legend_1">
   <g id="patch_18">
    <path d="M 504 388.8 
L 632.982761 388.8 
L 632.982761 327.112185 
L 504 327.112185 
z
" style="fill:#ffffff;stroke:#000000;stroke-linejoin:miter;"/>
   </g>
   <g id="patch_19">
    <path d="M 507.9984 338.705983 
L 527.9904 338.705983 
L 527.9904 331.708783 
L 507.9984 331.708783 
z
" style="fill:#215c58;stroke:#ffffff;stroke-linejoin:miter;"/>
   </g>
   <g id="text_6">
    <!-- Western - 54.05 % -->
    <g transform="translate(535.9872 338.705983125)scale(0.09996 -0.09996)">
     <use xlink:href="#BitstreamVeraSans-Roman-57"/>
     <use x="98.798828125" xlink:href="#BitstreamVeraSans-Roman-65"/>
     <use x="160.322265625" xlink:href="#BitstreamVeraSans-Roman-73"/>
     <use x="212.421875" xlink:href="#BitstreamVeraSans-Roman-74"/>
     <use x="251.630859375" xlink:href="#BitstreamVeraSans-Roman-65"/>
     <use x="313.154296875" xlink:href="#BitstreamVeraSans-Roman-72"/>
     <use x="354.251953125" xlink:href="#BitstreamVeraSans-Roman-6e"/>
     <use x="417.630859375" xlink:href="#BitstreamVeraSans-Roman-20"/>
     <use x="449.41796875" xlink:href="#BitstreamVeraSans-Roman-2d"/>
     <use x="485.501953125" xlink:href="#BitstreamVeraSans-Roman-20"/>
     <use x="517.2890625" xlink:href="#BitstreamVeraSans-Roman-35"/>
     <use x="580.912109375" xlink:href="#BitstreamVeraSans-Roman-34"/>
     <use x="644.53515625" xlink:href="#BitstreamVeraSans-Roman-2e"/>
     <use x="676.322265625" xlink:href="#BitstreamVeraSans-Roman-30"/>
     <use x="739.9453125" xlink:href="#BitstreamVeraSans-Roman-35"/>
     <use x="803.568359375" xlink:href="#BitstreamVeraSans-Roman-20"/>
     <use x="835.35546875" xlink:href="#BitstreamVeraSans-Roman-25"/>
    </g>
   </g>
   <g id="patch_20">
    <path d="M 507.9984 353.378237 
L 527.9904 353.378237 
L 527.9904 346.381037 
L 507.9984 346.381037 
z
" style="fill:#0ba895;stroke:#ffffff;stroke-linejoin:miter;"/>
   </g>
   <g id="text_7">
    <!-- USA - 14.43 % -->
    <g transform="translate(535.9872 353.378236875)scale(0.09996 -0.09996)">
     <use xlink:href="#BitstreamVeraSans-Roman-55"/>
     <use x="73.193359375" xlink:href="#BitstreamVeraSans-Roman-53"/>
     <use x="136.685546875" xlink:href="#BitstreamVeraSans-Roman-41"/>
     <use x="205.09375" xlink:href="#BitstreamVeraSans-Roman-20"/>
     <use x="236.880859375" xlink:href="#BitstreamVeraSans-Roman-2d"/>
     <use x="272.96484375" xlink:href="#BitstreamVeraSans-Roman-20"/>
     <use x="304.751953125" xlink:href="#BitstreamVeraSans-Roman-31"/>
     <use x="368.375" xlink:href="#BitstreamVeraSans-Roman-34"/>
     <use x="431.998046875" xlink:href="#BitstreamVeraSans-Roman-2e"/>
     <use x="463.78515625" xlink:href="#BitstreamVeraSans-Roman-34"/>
     <use x="527.408203125" xlink:href="#BitstreamVeraSans-Roman-33"/>
     <use x="591.03125" xlink:href="#BitstreamVeraSans-Roman-20"/>
     <use x="622.818359375" xlink:href="#BitstreamVeraSans-Roman-25"/>
    </g>
   </g>
   <g id="patch_21">
    <path d="M 507.9984 368.050491 
L 527.9904 368.050491 
L 527.9904 361.053291 
L 507.9984 361.053291 
z
" style="fill:#7c976a;stroke:#ffffff;stroke-linejoin:miter;"/>
   </g>
   <g id="text_8">
    <!-- Japan - 3.68 % -->
    <g transform="translate(535.9872 368.050490625)scale(0.09996 -0.09996)">
     <use xlink:href="#BitstreamVeraSans-Roman-4a"/>
     <use x="29.4921875" xlink:href="#BitstreamVeraSans-Roman-61"/>
     <use x="90.771484375" xlink:href="#BitstreamVeraSans-Roman-70"/>
     <use x="154.248046875" xlink:href="#BitstreamVeraSans-Roman-61"/>
     <use x="215.52734375" xlink:href="#BitstreamVeraSans-Roman-6e"/>
     <use x="278.90625" xlink:href="#BitstreamVeraSans-Roman-20"/>
     <use x="310.693359375" xlink:href="#BitstreamVeraSans-Roman-2d"/>
     <use x="346.77734375" xlink:href="#BitstreamVeraSans-Roman-20"/>
     <use x="378.564453125" xlink:href="#BitstreamVeraSans-Roman-33"/>
     <use x="442.1875" xlink:href="#BitstreamVeraSans-Roman-2e"/>
     <use x="473.974609375" xlink:href="#BitstreamVeraSans-Roman-36"/>
     <use x="537.59765625" xlink:href="#BitstreamVeraSans-Roman-38"/>
     <use x="601.220703125" xlink:href="#BitstreamVeraSans-Roman-20"/>
     <use x="633.0078125" xlink:href="#BitstreamVeraSans-Roman-25"/>
    </g>
   </g>
   <g id="patch_22">
    <path d="M 507.9984 382.722744 
L 527.9904 382.722744 
L 527.9904 375.725544 
L 507.9984 375.725544 
z
" style="fill:#d4643f;stroke:#ffffff;stroke-linejoin:miter;"/>
   </g>
   <g id="text_9">
    <!-- China - 27.84 % -->
    <g transform="translate(535.9872 382.722744375)scale(0.09996 -0.09996)">
     <use xlink:href="#BitstreamVeraSans-Roman-43"/>
     <use x="69.82421875" xlink:href="#BitstreamVeraSans-Roman-68"/>
     <use x="133.203125" xlink:href="#BitstreamVeraSans-Roman-69"/>
     <use x="160.986328125" xlink:href="#BitstreamVeraSans-Roman-6e"/>
     <use x="224.365234375" xlink:href="#BitstreamVeraSans-Roman-61"/>
     <use x="285.64453125" xlink:href="#BitstreamVeraSans-Roman-20"/>
     <use x="317.431640625" xlink:href="#BitstreamVeraSans-Roman-2d"/>
     <use x="353.515625" xlink:href="#BitstreamVeraSans-Roman-20"/>
     <use x="385.302734375" xlink:href="#BitstreamVeraSans-Roman-32"/>
     <use x="448.92578125" xlink:href="#BitstreamVeraSans-Roman-37"/>
     <use x="512.548828125" xlink:href="#BitstreamVeraSans-Roman-2e"/>
     <use x="544.3359375" xlink:href="#BitstreamVeraSans-Roman-38"/>
     <use x="607.958984375" xlink:href="#BitstreamVeraSans-Roman-34"/>
     <use x="671.58203125" xlink:href="#BitstreamVeraSans-Roman-20"/>
     <use x="703.369140625" xlink:href="#BitstreamVeraSans-Roman-25"/>
    </g>
   </g>
  </g>
 </g>
</svg>
