<?xml version="1.0" encoding="utf-8" standalone="no"?>
<!DOCTYPE svg PUBLIC "-//W3C//DTD SVG 1.1//EN"
  "http://www.w3.org/Graphics/SVG/1.1/DTD/svg11.dtd">
<!-- Created with matplotlib (http://matplotlib.org/) -->
<svg height="432pt" version="1.1" viewBox="0 0 576 432" width="576pt" xmlns="http://www.w3.org/2000/svg" xmlns:xlink="http://www.w3.org/1999/xlink">
 <defs>
  <style type="text/css">
*{stroke-linecap:butt;stroke-linejoin:round;stroke-miterlimit:100000;}
  </style>
 </defs>
 <g id="figure_1">
  <g id="patch_1">
   <path d="M 0 432 
L 576 432 
L 576 0 
L 0 0 
z
" style="fill:#ffffff;"/>
  </g>
  <g id="axes_1">
   <g id="patch_2">
    <path d="M 180.173186 54.432006 
C 157.303634 54.432006 134.726178 59.59293 114.127916 69.529127 
C 93.529654 79.465325 75.436759 93.92298 61.201221 111.821748 
C 46.965683 129.720515 36.951142 150.603179 31.905933 172.909283 
C 26.860725 195.215387 26.913726 218.375134 32.060977 240.657912 
C 37.208228 262.940691 47.318245 283.777299 61.635557 301.610722 
C 75.952869 319.444146 94.111748 333.818839 114.755272 343.660653 
C 135.398797 353.502468 157.999638 358.56 180.868951 358.455326 
C 203.738264 358.350651 226.291861 353.086444 246.84443 343.056072 
L 180.173186 206.444462 
L 180.173186 54.432006 
z
" style="fill:#ffffff;stroke:#ffffff;stroke-linejoin:miter;"/>
   </g>
   <g id="patch_3">
    <path d="M 246.84443 343.056072 
C 277.725203 327.985175 302.601798 302.879808 317.389381 271.86237 
C 332.176964 240.844932 336.019275 205.711457 328.285392 172.230998 
C 320.551509 138.750539 301.689255 108.861749 274.795884 87.472483 
C 247.902513 66.083217 214.53526 54.432 180.173158 54.432006 
L 180.173186 206.444462 
L 246.84443 343.056072 
z
" style="fill:#215c58;stroke:#ffffff;stroke-linejoin:miter;"/>
   </g>
   <g id="patch_4">
    <path d="M 319.517938 206.444462 
C 319.517938 188.145877 315.913515 170.025223 308.91095 153.119535 
C 301.908385 136.213846 291.643858 120.851897 278.704805 107.912844 
C 265.765751 94.97379 250.403802 84.709264 233.498114 77.706699 
C 216.592426 70.704133 198.471772 67.099711 180.173186 67.099711 
C 161.874601 67.099711 143.753947 70.704133 126.848259 77.706699 
C 109.942571 84.709264 94.580622 94.97379 81.641568 107.912844 
C 68.702515 120.851897 58.437988 136.213846 51.435423 153.119535 
C 44.432858 170.025223 40.828435 188.145877 40.828435 206.444462 
C 40.828435 224.743047 44.432858 242.863702 51.435423 259.76939 
C 58.437988 276.675078 68.702515 292.037027 81.641568 304.976081 
C 94.580622 317.915134 109.942571 328.17966 126.848259 335.182226 
C 143.753947 342.184791 161.874601 345.789213 180.173186 345.789213 
C 198.471772 345.789213 216.592426 342.184791 233.498114 335.182226 
C 250.403802 328.17966 265.765751 317.915134 278.704805 304.976081 
C 291.643858 292.037027 301.908385 276.675078 308.91095 259.76939 
C 315.913515 242.863702 319.517938 224.743047 319.517938 206.444462 
M 180.173186 206.444462 
M 319.517938 206.444462 
z
" style="fill:#ffffff;stroke:#ffffff;stroke-linejoin:miter;"/>
   </g>
   <g id="patch_5">
    <path d="M 180.173186 79.767416 
C 165.448255 79.767416 150.835451 82.334853 136.992404 87.354185 
C 123.149358 92.373516 110.286894 99.768299 98.983871 109.205739 
C 87.680848 118.64318 78.109407 129.979551 70.700298 142.704672 
C 63.291189 155.429794 58.15725 169.349868 55.529527 183.838439 
C 52.901804 198.32701 52.820317 213.163422 55.288733 227.679983 
C 57.757149 242.196544 62.737874 256.172171 70.006758 268.97791 
C 77.275642 281.783649 86.721982 293.224472 97.920658 302.785501 
C 109.119335 312.346529 121.899795 319.882152 135.686872 325.053239 
C 149.473948 330.224325 164.057669 332.952121 178.781712 333.113866 
C 193.505756 333.275611 208.14588 330.868841 222.043226 326.001871 
C 235.940571 321.1349 248.883486 313.88185 260.289492 304.569136 
C 271.695498 295.256422 281.390885 284.025872 288.939326 271.382903 
C 296.487766 258.739934 301.774299 244.877093 304.561012 230.41826 
C 307.347725 215.959427 307.592176 201.124805 305.283366 186.582006 
C 302.974555 172.039206 298.147644 158.009712 291.019862 145.124901 
C 283.89208 132.240091 274.571981 120.696195 263.479003 111.012732 
L 180.173186 206.444462 
L 180.173186 79.767416 
z
" style="fill:#ffffff;stroke:#ffffff;stroke-linejoin:miter;"/>
   </g>
   <g id="patch_6">
    <path d="M 263.479003 111.012732 
C 252.033884 101.021873 238.884246 93.170928 224.659507 87.835688 
C 210.434767 82.500447 195.365565 79.767417 180.173198 79.767416 
L 180.173186 206.444462 
L 263.479003 111.012732 
z
" style="fill:#0ba895;stroke:#ffffff;stroke-linejoin:miter;"/>
   </g>
   <g id="patch_7">
    <path d="M 294.182528 206.444462 
C 294.182528 191.472893 291.233455 176.646903 285.504084 162.814976 
C 279.774712 148.983049 271.376464 136.414182 260.789965 125.827683 
C 250.203467 115.241185 237.634599 106.842936 223.802673 101.113565 
C 209.970746 95.384193 195.144756 92.43512 180.173186 92.43512 
C 165.201617 92.43512 150.375627 95.384193 136.5437 101.113565 
C 122.711774 106.842936 110.142906 115.241185 99.556408 125.827683 
C 88.969909 136.414182 80.571661 148.983049 74.842289 162.814976 
C 69.112917 176.646903 66.163845 191.472893 66.163845 206.444462 
C 66.163845 221.416032 69.112917 236.242022 74.842289 250.073948 
C 80.571661 263.905875 88.969909 276.474742 99.556408 287.061241 
C 110.142906 297.647739 122.711774 306.045988 136.5437 311.77536 
C 150.375627 317.504731 165.201617 320.453804 180.173186 320.453804 
C 195.144756 320.453804 209.970746 317.504731 223.802673 311.77536 
C 237.634599 306.045988 250.203467 297.647739 260.789965 287.061241 
C 271.376464 276.474742 279.774712 263.905875 285.504084 250.073948 
C 291.233455 236.242022 294.182528 221.416032 294.182528 206.444462 
M 180.173186 206.444462 
M 294.182528 206.444462 
z
" style="fill:#ffffff;stroke:#ffffff;stroke-linejoin:miter;"/>
   </g>
   <g id="patch_8">
    <path d="M 180.173186 105.102825 
C 167.255249 105.102825 154.455649 107.572784 142.465249 112.379384 
C 130.474849 117.185985 119.513329 124.241164 110.172342 133.164115 
C 100.831355 142.087067 93.28204 152.71431 87.931874 164.472237 
C 82.581708 176.230163 79.528714 188.90335 78.937677 201.80776 
C 78.34664 214.712169 80.22839 227.611374 84.481358 239.809134 
C 88.734326 252.006895 95.280592 263.279732 103.766819 273.019191 
C 112.253047 282.758649 122.523756 290.786289 134.024582 296.668814 
C 145.525408 302.55134 158.045639 306.180976 170.909493 307.361812 
C 183.773347 308.542647 196.745139 307.253048 209.124713 303.56262 
C 221.504287 299.872192 233.064831 293.848549 243.182362 285.81682 
C 253.299893 277.785091 261.789043 267.892428 268.191608 256.67279 
C 274.594173 245.453152 278.792848 233.112099 280.561009 220.315744 
C 282.32917 207.519389 281.634422 194.502178 278.514264 181.966719 
C 275.394106 169.431261 269.905703 157.607222 262.345294 147.132809 
C 254.784885 136.658396 245.290987 127.725516 234.376037 120.816322 
C 223.461086 113.907128 211.32506 109.148207 198.623004 106.796423 
L 180.173186 206.444462 
L 180.173186 105.102825 
z
" style="fill:#ffffff;stroke:#ffffff;stroke-linejoin:miter;"/>
   </g>
   <g id="patch_9">
    <path d="M 198.623004 106.796423 
C 195.581938 106.23337 192.51669 105.809824 189.436887 105.527113 
C 186.357084 105.244403 183.265952 105.102825 180.173201 105.102825 
L 180.173186 206.444462 
L 198.623004 106.796423 
z
" style="fill:#7c976a;stroke:#ffffff;stroke-linejoin:miter;"/>
   </g>
   <g id="patch_10">
    <path d="M 268.847119 206.444462 
C 268.847119 194.799908 266.553396 183.268583 262.097218 172.510417 
C 257.64104 161.752252 251.109069 151.976466 242.875125 143.742523 
C 234.641182 135.50858 224.865397 128.976609 214.107231 124.520431 
C 203.349066 120.064253 191.817741 117.77053 180.173186 117.77053 
C 168.528632 117.77053 156.997307 120.064253 146.239142 124.520431 
C 135.480976 128.976609 125.705191 135.50858 117.471247 143.742523 
C 109.237304 151.976466 102.705333 161.752252 98.249155 172.510417 
C 93.792977 183.268583 91.499254 194.799908 91.499254 206.444462 
C 91.499254 218.089016 93.792977 229.620342 98.249155 240.378507 
C 102.705333 251.136672 109.237304 260.912458 117.471247 269.146401 
C 125.705191 277.380344 135.480976 283.912315 146.239142 288.368493 
C 156.997307 292.824671 168.528632 295.118395 180.173186 295.118395 
C 191.817741 295.118395 203.349066 292.824671 214.107231 288.368493 
C 224.865397 283.912315 234.641182 277.380344 242.875125 269.146401 
C 251.109069 260.912458 257.64104 251.136672 262.097218 240.378507 
C 266.553396 229.620342 268.847119 218.089016 268.847119 206.444462 
M 180.173186 206.444462 
M 268.847119 206.444462 
z
" style="fill:#ffffff;stroke:#ffffff;stroke-linejoin:miter;"/>
   </g>
   <g id="patch_11">
    <path d="M 180.173186 130.438234 
C 172.400478 130.438234 164.673562 131.630538 157.262383 133.97349 
C 149.851205 136.316443 142.843088 139.782438 136.482867 144.250389 
C 130.122647 148.71834 124.485263 154.135602 119.767662 160.312919 
C 115.050062 166.490235 111.30783 173.35482 108.671707 180.666855 
C 106.035583 187.978889 104.536627 195.652217 104.227207 203.418763 
C 103.917787 211.18531 104.801547 218.953566 106.847614 226.452139 
C 108.893681 233.950712 112.077946 241.091251 116.289164 247.624292 
C 120.500382 254.157334 125.688934 260.005903 131.673553 264.965674 
C 137.658172 269.925445 144.368343 273.937979 151.569641 276.863095 
C 158.770939 279.788211 166.378513 281.591442 174.126586 282.209793 
C 181.874659 282.828143 189.671938 282.254325 197.246018 280.508388 
C 204.820098 278.76245 212.081738 275.864964 218.777243 271.917155 
C 225.472749 267.969346 231.523231 263.01773 236.717309 257.235296 
C 241.911388 251.452863 246.187864 244.907744 249.397334 237.828599 
C 252.606804 230.749454 254.711453 223.219694 255.637753 215.502379 
C 256.564053 207.785063 256.301089 199.971122 254.858048 192.333542 
L 180.173186 206.444462 
L 180.173186 130.438234 
z
" style="fill:#ffffff;stroke:#ffffff;stroke-linejoin:miter;"/>
   </g>
   <g id="patch_12">
    <path d="M 254.858048 192.333542 
C 251.570877 174.935533 242.305466 159.221345 228.672814 147.923246 
C 215.040163 136.625146 197.878997 130.438231 180.173172 130.438234 
L 180.173186 206.444462 
L 254.858048 192.333542 
z
" style="fill:#d4643f;stroke:#ffffff;stroke-linejoin:miter;"/>
   </g>
   <g id="patch_13">
    <path d="M 243.51171 206.444462 
C 243.51171 198.126923 241.873336 189.890262 238.690352 182.205859 
C 235.507367 174.521455 230.841674 167.538751 224.960286 161.657363 
C 219.078898 155.775975 212.096194 151.110281 204.41179 147.927297 
C 196.727386 144.744313 188.490725 143.105939 180.173186 143.105939 
C 171.855648 143.105939 163.618987 144.744313 155.934583 147.927297 
C 148.250179 151.110281 141.267475 155.775975 135.386087 161.657363 
C 129.504699 167.538751 124.839006 174.521455 121.656021 182.205859 
C 118.473037 189.890262 116.834663 198.126923 116.834663 206.444462 
C 116.834663 214.762001 118.473037 222.998662 121.656021 230.683066 
C 124.839006 238.367469 129.504699 245.350173 135.386087 251.231561 
C 141.267475 257.112949 148.250179 261.778643 155.934583 264.961627 
C 163.618987 268.144612 171.855648 269.782985 180.173186 269.782985 
C 188.490725 269.782985 196.727386 268.144612 204.41179 264.961627 
C 212.096194 261.778643 219.078898 257.112949 224.960286 251.231561 
C 230.841674 245.350173 235.507367 238.367469 238.690352 230.683066 
C 241.873336 222.998662 243.51171 214.762001 243.51171 206.444462 
M 180.173186 206.444462 
M 243.51171 206.444462 
z
" style="fill:#ffffff;stroke:#ffffff;stroke-linejoin:miter;"/>
   </g>
   <g id="patch_14">
    <path d="M 180.173186 155.773644 
C 174.563511 155.773644 168.992576 156.705199 163.688077 158.530236 
C 158.383579 160.355273 153.418784 163.048584 148.996613 166.500087 
C 144.574443 169.95159 140.755977 174.113612 137.697284 178.816043 
C 134.638591 183.518475 132.381918 188.696364 131.019501 194.138081 
C 129.657083 199.579798 129.207739 205.21018 129.689833 210.799102 
C 130.171928 216.388024 131.578802 221.858291 133.852954 226.986321 
C 136.127107 232.114351 139.237127 236.829316 143.0559 240.938504 
C 146.874674 245.047693 151.349457 248.494348 156.297354 251.137599 
C 161.245252 253.78085 166.597923 255.584187 172.136593 256.473904 
C 177.675263 257.363621 183.323431 257.327429 188.850245 256.366807 
C 194.377059 255.406185 199.706181 253.534402 204.619799 250.827961 
C 209.533417 248.121521 213.963663 244.617804 217.729464 240.460015 
C 221.495265 236.302227 224.544607 231.547795 226.752858 226.391043 
C 228.961108 221.23429 230.297766 215.746444 230.708199 210.151803 
C 231.118632 204.557162 230.597171 198.933 229.16513 193.50919 
C 227.73309 188.085379 225.410248 182.936834 222.291545 178.273985 
L 180.173186 206.444462 
L 180.173186 155.773644 
z
" style="fill:#ffffff;stroke:#ffffff;stroke-linejoin:miter;"/>
   </g>
   <g id="patch_15">
    <path d="M 222.291545 178.273985 
C 217.661329 171.351238 211.394967 165.675656 204.049019 161.751325 
C 196.70307 157.826995 188.501651 155.773644 180.173186 155.773644 
L 180.173186 206.444462 
L 222.291545 178.273985 
z
" style="fill:#f29653;stroke:#ffffff;stroke-linejoin:miter;"/>
   </g>
   <g id="patch_16">
    <path d="M 218.1763 206.444462 
C 218.1763 201.453939 217.193276 196.511942 215.283486 191.9013 
C 213.373695 187.290658 210.574279 183.101035 207.045446 179.572203 
C 203.516613 176.04337 199.326991 173.243954 194.716349 171.334163 
C 190.105706 169.424372 185.16371 168.441348 180.173186 168.441348 
C 175.182663 168.441348 170.240667 169.424372 165.630024 171.334163 
C 161.019382 173.243954 156.82976 176.04337 153.300927 179.572203 
C 149.772094 183.101035 146.972678 187.290658 145.062887 191.9013 
C 143.153097 196.511942 142.170073 201.453939 142.170073 206.444462 
C 142.170073 211.434985 143.153097 216.376982 145.062887 220.987624 
C 146.972678 225.598266 149.772094 229.787889 153.300927 233.316722 
C 156.82976 236.845554 161.019382 239.644971 165.630024 241.554761 
C 170.240667 243.464552 175.182663 244.447576 180.173186 244.447576 
C 185.16371 244.447576 190.105706 243.464552 194.716349 241.554761 
C 199.326991 239.644971 203.516613 236.845554 207.045446 233.316722 
C 210.574279 229.787889 213.373695 225.598266 215.283486 220.987624 
C 217.193276 216.376982 218.1763 211.434985 218.1763 206.444462 
M 180.173186 206.444462 
M 218.1763 206.444462 
z
" style="fill:#ffffff;stroke:#ffffff;stroke-linejoin:miter;"/>
   </g>
   <g id="patch_17">
    <path d="M 180.173186 181.109053 
C 177.021689 181.109053 173.897682 181.69708 170.961858 182.842886 
C 168.026034 183.988693 165.32961 185.67229 163.011287 187.807076 
C 160.692964 189.941862 158.793184 192.490595 157.409671 195.322172 
C 156.026158 198.153748 155.183047 201.218771 154.923707 204.359579 
C 154.664366 207.500387 154.99332 210.662189 155.893648 213.682345 
C 156.793975 216.702502 158.24997 219.528325 160.186738 222.01446 
C 162.123506 224.500595 164.507259 226.603669 167.215381 228.215503 
C 169.923502 229.827338 172.908749 230.919814 176.017563 231.436736 
C 179.126377 231.953658 182.304525 231.886009 185.388527 231.237267 
C 188.472529 230.588526 191.408584 229.37001 194.045666 227.644398 
C 196.682747 225.918786 198.97485 223.716183 200.804073 221.149886 
C 202.633295 218.583589 203.967726 215.698369 204.738723 212.642637 
C 205.50972 209.586905 205.703834 206.41397 205.311079 203.287042 
C 204.918325 200.160114 203.945553 197.133744 202.442803 194.363604 
C 200.940053 191.593463 198.93354 189.127879 196.526476 187.093677 
C 194.119412 185.059475 191.35379 183.492142 188.371868 182.4723 
L 180.173186 206.444462 
L 180.173186 181.109053 
z
" style="fill:#ffffff;stroke:#ffffff;stroke-linejoin:miter;"/>
   </g>
   <g id="patch_18">
    <path d="M 188.371868 182.4723 
C 187.054502 182.021749 185.702236 181.680556 184.32881 181.452188 
C 182.955385 181.22382 181.565469 181.109053 180.173187 181.109053 
L 180.173186 206.444462 
L 188.371868 182.4723 
z
" style="fill:#cdb56f;stroke:#ffffff;stroke-linejoin:miter;"/>
   </g>
   <g id="patch_19">
    <path d="M 192.840891 206.444462 
C 192.840891 204.780954 192.513216 203.133622 191.87662 201.596741 
C 191.240023 200.059861 190.306884 198.66332 189.130606 197.487042 
C 187.954329 196.310765 186.557788 195.377626 185.020907 194.741029 
C 183.484026 194.104432 181.836694 193.776757 180.173186 193.776757 
C 178.509679 193.776757 176.862347 194.104432 175.325466 194.741029 
C 173.788585 195.377626 172.392044 196.310765 171.215767 197.487042 
C 170.039489 198.66332 169.10635 200.059861 168.469753 201.596741 
C 167.833157 203.133622 167.505482 204.780954 167.505482 206.444462 
C 167.505482 208.10797 167.833157 209.755302 168.469753 211.292183 
C 169.10635 212.829064 170.039489 214.225604 171.215767 215.401882 
C 172.392044 216.57816 173.788585 217.511298 175.325466 218.147895 
C 176.862347 218.784492 178.509679 219.112167 180.173186 219.112167 
C 181.836694 219.112167 183.484026 218.784492 185.020907 218.147895 
C 186.557788 217.511298 187.954329 216.57816 189.130606 215.401882 
C 190.306884 214.225604 191.240023 212.829064 191.87662 211.292183 
C 192.513216 209.755302 192.840891 208.10797 192.840891 206.444462 
M 180.173186 206.444462 
M 192.840891 206.444462 
z
" style="fill:#ffffff;stroke:#ffffff;stroke-linejoin:miter;"/>
   </g>
   <g id="matplotlib.axis_1"/>
   <g id="matplotlib.axis_2"/>
   <g id="text_1">
    <!-- Countries' PastGDP in 1870 -->
    <defs>
     <path id="BitstreamVeraSans-Roman-20"/>
     <path d="M 31.78125 66.40625 
Q 24.171875 66.40625 20.328125 58.90625 
Q 16.5 51.421875 16.5 36.375 
Q 16.5 21.390625 20.328125 13.890625 
Q 24.171875 6.390625 31.78125 6.390625 
Q 39.453125 6.390625 43.28125 13.890625 
Q 47.125 21.390625 47.125 36.375 
Q 47.125 51.421875 43.28125 58.90625 
Q 39.453125 66.40625 31.78125 66.40625 
M 31.78125 74.21875 
Q 44.046875 74.21875 50.515625 64.515625 
Q 56.984375 54.828125 56.984375 36.375 
Q 56.984375 17.96875 50.515625 8.265625 
Q 44.046875 -1.421875 31.78125 -1.421875 
Q 19.53125 -1.421875 13.0625 8.265625 
Q 6.59375 17.96875 6.59375 36.375 
Q 6.59375 54.828125 13.0625 64.515625 
Q 19.53125 74.21875 31.78125 74.21875 
" id="BitstreamVeraSans-Roman-30"/>
     <path d="M 12.40625 8.296875 
L 28.515625 8.296875 
L 28.515625 63.921875 
L 10.984375 60.40625 
L 10.984375 69.390625 
L 28.421875 72.90625 
L 38.28125 72.90625 
L 38.28125 8.296875 
L 54.390625 8.296875 
L 54.390625 0 
L 12.40625 0 
z
" id="BitstreamVeraSans-Roman-31"/>
     <path d="M 8.203125 72.90625 
L 55.078125 72.90625 
L 55.078125 68.703125 
L 28.609375 0 
L 18.3125 0 
L 43.21875 64.59375 
L 8.203125 64.59375 
z
" id="BitstreamVeraSans-Roman-37"/>
     <path d="M 17.921875 72.90625 
L 17.921875 45.796875 
L 9.625 45.796875 
L 9.625 72.90625 
z
" id="BitstreamVeraSans-Roman-27"/>
     <path d="M 54.890625 33.015625 
L 54.890625 0 
L 45.90625 0 
L 45.90625 32.71875 
Q 45.90625 40.484375 42.875 44.328125 
Q 39.84375 48.1875 33.796875 48.1875 
Q 26.515625 48.1875 22.3125 43.546875 
Q 18.109375 38.921875 18.109375 30.90625 
L 18.109375 0 
L 9.078125 0 
L 9.078125 54.6875 
L 18.109375 54.6875 
L 18.109375 46.1875 
Q 21.34375 51.125 25.703125 53.5625 
Q 30.078125 56 35.796875 56 
Q 45.21875 56 50.046875 50.171875 
Q 54.890625 44.34375 54.890625 33.015625 
" id="BitstreamVeraSans-Roman-6e"/>
     <path d="M 34.28125 27.484375 
Q 23.390625 27.484375 19.1875 25 
Q 14.984375 22.515625 14.984375 16.5 
Q 14.984375 11.71875 18.140625 8.90625 
Q 21.296875 6.109375 26.703125 6.109375 
Q 34.1875 6.109375 38.703125 11.40625 
Q 43.21875 16.703125 43.21875 25.484375 
L 43.21875 27.484375 
z
M 52.203125 31.203125 
L 52.203125 0 
L 43.21875 0 
L 43.21875 8.296875 
Q 40.140625 3.328125 35.546875 0.953125 
Q 30.953125 -1.421875 24.3125 -1.421875 
Q 15.921875 -1.421875 10.953125 3.296875 
Q 6 8.015625 6 15.921875 
Q 6 25.140625 12.171875 29.828125 
Q 18.359375 34.515625 30.609375 34.515625 
L 43.21875 34.515625 
L 43.21875 35.40625 
Q 43.21875 41.609375 39.140625 45 
Q 35.0625 48.390625 27.6875 48.390625 
Q 23 48.390625 18.546875 47.265625 
Q 14.109375 46.140625 10.015625 43.890625 
L 10.015625 52.203125 
Q 14.9375 54.109375 19.578125 55.046875 
Q 24.21875 56 28.609375 56 
Q 40.484375 56 46.34375 49.84375 
Q 52.203125 43.703125 52.203125 31.203125 
" id="BitstreamVeraSans-Roman-61"/>
     <path d="M 31.78125 34.625 
Q 24.75 34.625 20.71875 30.859375 
Q 16.703125 27.09375 16.703125 20.515625 
Q 16.703125 13.921875 20.71875 10.15625 
Q 24.75 6.390625 31.78125 6.390625 
Q 38.8125 6.390625 42.859375 10.171875 
Q 46.921875 13.96875 46.921875 20.515625 
Q 46.921875 27.09375 42.890625 30.859375 
Q 38.875 34.625 31.78125 34.625 
M 21.921875 38.8125 
Q 15.578125 40.375 12.03125 44.71875 
Q 8.5 49.078125 8.5 55.328125 
Q 8.5 64.0625 14.71875 69.140625 
Q 20.953125 74.21875 31.78125 74.21875 
Q 42.671875 74.21875 48.875 69.140625 
Q 55.078125 64.0625 55.078125 55.328125 
Q 55.078125 49.078125 51.53125 44.71875 
Q 48 40.375 41.703125 38.8125 
Q 48.828125 37.15625 52.796875 32.3125 
Q 56.78125 27.484375 56.78125 20.515625 
Q 56.78125 9.90625 50.3125 4.234375 
Q 43.84375 -1.421875 31.78125 -1.421875 
Q 19.734375 -1.421875 13.25 4.234375 
Q 6.78125 9.90625 6.78125 20.515625 
Q 6.78125 27.484375 10.78125 32.3125 
Q 14.796875 37.15625 21.921875 38.8125 
M 18.3125 54.390625 
Q 18.3125 48.734375 21.84375 45.5625 
Q 25.390625 42.390625 31.78125 42.390625 
Q 38.140625 42.390625 41.71875 45.5625 
Q 45.3125 48.734375 45.3125 54.390625 
Q 45.3125 60.0625 41.71875 63.234375 
Q 38.140625 66.40625 31.78125 66.40625 
Q 25.390625 66.40625 21.84375 63.234375 
Q 18.3125 60.0625 18.3125 54.390625 
" id="BitstreamVeraSans-Roman-38"/>
     <path d="M 30.609375 48.390625 
Q 23.390625 48.390625 19.1875 42.75 
Q 14.984375 37.109375 14.984375 27.296875 
Q 14.984375 17.484375 19.15625 11.84375 
Q 23.34375 6.203125 30.609375 6.203125 
Q 37.796875 6.203125 41.984375 11.859375 
Q 46.1875 17.53125 46.1875 27.296875 
Q 46.1875 37.015625 41.984375 42.703125 
Q 37.796875 48.390625 30.609375 48.390625 
M 30.609375 56 
Q 42.328125 56 49.015625 48.375 
Q 55.71875 40.765625 55.71875 27.296875 
Q 55.71875 13.875 49.015625 6.21875 
Q 42.328125 -1.421875 30.609375 -1.421875 
Q 18.84375 -1.421875 12.171875 6.21875 
Q 5.515625 13.875 5.515625 27.296875 
Q 5.515625 40.765625 12.171875 48.375 
Q 18.84375 56 30.609375 56 
" id="BitstreamVeraSans-Roman-6f"/>
     <path d="M 19.671875 64.796875 
L 19.671875 37.40625 
L 32.078125 37.40625 
Q 38.96875 37.40625 42.71875 40.96875 
Q 46.484375 44.53125 46.484375 51.125 
Q 46.484375 57.671875 42.71875 61.234375 
Q 38.96875 64.796875 32.078125 64.796875 
z
M 9.8125 72.90625 
L 32.078125 72.90625 
Q 44.34375 72.90625 50.609375 67.359375 
Q 56.890625 61.8125 56.890625 51.125 
Q 56.890625 40.328125 50.609375 34.8125 
Q 44.34375 29.296875 32.078125 29.296875 
L 19.671875 29.296875 
L 19.671875 0 
L 9.8125 0 
z
" id="BitstreamVeraSans-Roman-50"/>
     <path d="M 19.671875 64.796875 
L 19.671875 8.109375 
L 31.59375 8.109375 
Q 46.6875 8.109375 53.6875 14.9375 
Q 60.6875 21.78125 60.6875 36.53125 
Q 60.6875 51.171875 53.6875 57.984375 
Q 46.6875 64.796875 31.59375 64.796875 
z
M 9.8125 72.90625 
L 30.078125 72.90625 
Q 51.265625 72.90625 61.171875 64.09375 
Q 71.09375 55.28125 71.09375 36.53125 
Q 71.09375 17.671875 61.125 8.828125 
Q 51.171875 0 30.078125 0 
L 9.8125 0 
z
" id="BitstreamVeraSans-Roman-44"/>
     <path d="M 64.40625 67.28125 
L 64.40625 56.890625 
Q 59.421875 61.53125 53.78125 63.8125 
Q 48.140625 66.109375 41.796875 66.109375 
Q 29.296875 66.109375 22.65625 58.46875 
Q 16.015625 50.828125 16.015625 36.375 
Q 16.015625 21.96875 22.65625 14.328125 
Q 29.296875 6.6875 41.796875 6.6875 
Q 48.140625 6.6875 53.78125 8.984375 
Q 59.421875 11.28125 64.40625 15.921875 
L 64.40625 5.609375 
Q 59.234375 2.09375 53.4375 0.328125 
Q 47.65625 -1.421875 41.21875 -1.421875 
Q 24.65625 -1.421875 15.125 8.703125 
Q 5.609375 18.84375 5.609375 36.375 
Q 5.609375 53.953125 15.125 64.078125 
Q 24.65625 74.21875 41.21875 74.21875 
Q 47.75 74.21875 53.53125 72.484375 
Q 59.328125 70.75 64.40625 67.28125 
" id="BitstreamVeraSans-Roman-43"/>
     <path d="M 59.515625 10.40625 
L 59.515625 29.984375 
L 43.40625 29.984375 
L 43.40625 38.09375 
L 69.28125 38.09375 
L 69.28125 6.78125 
Q 63.578125 2.734375 56.6875 0.65625 
Q 49.8125 -1.421875 42 -1.421875 
Q 24.90625 -1.421875 15.25 8.5625 
Q 5.609375 18.5625 5.609375 36.375 
Q 5.609375 54.25 15.25 64.234375 
Q 24.90625 74.21875 42 74.21875 
Q 49.125 74.21875 55.546875 72.453125 
Q 61.96875 70.703125 67.390625 67.28125 
L 67.390625 56.78125 
Q 61.921875 61.421875 55.765625 63.765625 
Q 49.609375 66.109375 42.828125 66.109375 
Q 29.4375 66.109375 22.71875 58.640625 
Q 16.015625 51.171875 16.015625 36.375 
Q 16.015625 21.625 22.71875 14.15625 
Q 29.4375 6.6875 42.828125 6.6875 
Q 48.046875 6.6875 52.140625 7.59375 
Q 56.25 8.5 59.515625 10.40625 
" id="BitstreamVeraSans-Roman-47"/>
     <path d="M 56.203125 29.59375 
L 56.203125 25.203125 
L 14.890625 25.203125 
Q 15.484375 15.921875 20.484375 11.0625 
Q 25.484375 6.203125 34.421875 6.203125 
Q 39.59375 6.203125 44.453125 7.46875 
Q 49.3125 8.734375 54.109375 11.28125 
L 54.109375 2.78125 
Q 49.265625 0.734375 44.1875 -0.34375 
Q 39.109375 -1.421875 33.890625 -1.421875 
Q 20.796875 -1.421875 13.15625 6.1875 
Q 5.515625 13.8125 5.515625 26.8125 
Q 5.515625 40.234375 12.765625 48.109375 
Q 20.015625 56 32.328125 56 
Q 43.359375 56 49.78125 48.890625 
Q 56.203125 41.796875 56.203125 29.59375 
M 47.21875 32.234375 
Q 47.125 39.59375 43.09375 43.984375 
Q 39.0625 48.390625 32.421875 48.390625 
Q 24.90625 48.390625 20.390625 44.140625 
Q 15.875 39.890625 15.1875 32.171875 
z
" id="BitstreamVeraSans-Roman-65"/>
     <path d="M 9.421875 54.6875 
L 18.40625 54.6875 
L 18.40625 0 
L 9.421875 0 
z
M 9.421875 75.984375 
L 18.40625 75.984375 
L 18.40625 64.59375 
L 9.421875 64.59375 
z
" id="BitstreamVeraSans-Roman-69"/>
     <path d="M 18.3125 70.21875 
L 18.3125 54.6875 
L 36.8125 54.6875 
L 36.8125 47.703125 
L 18.3125 47.703125 
L 18.3125 18.015625 
Q 18.3125 11.328125 20.140625 9.421875 
Q 21.96875 7.515625 27.59375 7.515625 
L 36.8125 7.515625 
L 36.8125 0 
L 27.59375 0 
Q 17.1875 0 13.234375 3.875 
Q 9.28125 7.765625 9.28125 18.015625 
L 9.28125 47.703125 
L 2.6875 47.703125 
L 2.6875 54.6875 
L 9.28125 54.6875 
L 9.28125 70.21875 
z
" id="BitstreamVeraSans-Roman-74"/>
     <path d="M 8.5 21.578125 
L 8.5 54.6875 
L 17.484375 54.6875 
L 17.484375 21.921875 
Q 17.484375 14.15625 20.5 10.265625 
Q 23.53125 6.390625 29.59375 6.390625 
Q 36.859375 6.390625 41.078125 11.03125 
Q 45.3125 15.671875 45.3125 23.6875 
L 45.3125 54.6875 
L 54.296875 54.6875 
L 54.296875 0 
L 45.3125 0 
L 45.3125 8.40625 
Q 42.046875 3.421875 37.71875 1 
Q 33.40625 -1.421875 27.6875 -1.421875 
Q 18.265625 -1.421875 13.375 4.4375 
Q 8.5 10.296875 8.5 21.578125 
" id="BitstreamVeraSans-Roman-75"/>
     <path d="M 41.109375 46.296875 
Q 39.59375 47.171875 37.8125 47.578125 
Q 36.03125 48 33.890625 48 
Q 26.265625 48 22.1875 43.046875 
Q 18.109375 38.09375 18.109375 28.8125 
L 18.109375 0 
L 9.078125 0 
L 9.078125 54.6875 
L 18.109375 54.6875 
L 18.109375 46.1875 
Q 20.953125 51.171875 25.484375 53.578125 
Q 30.03125 56 36.53125 56 
Q 37.453125 56 38.578125 55.875 
Q 39.703125 55.765625 41.0625 55.515625 
z
" id="BitstreamVeraSans-Roman-72"/>
     <path d="M 44.28125 53.078125 
L 44.28125 44.578125 
Q 40.484375 46.53125 36.375 47.5 
Q 32.28125 48.484375 27.875 48.484375 
Q 21.1875 48.484375 17.84375 46.4375 
Q 14.5 44.390625 14.5 40.28125 
Q 14.5 37.15625 16.890625 35.375 
Q 19.28125 33.59375 26.515625 31.984375 
L 29.59375 31.296875 
Q 39.15625 29.25 43.1875 25.515625 
Q 47.21875 21.78125 47.21875 15.09375 
Q 47.21875 7.46875 41.1875 3.015625 
Q 35.15625 -1.421875 24.609375 -1.421875 
Q 20.21875 -1.421875 15.453125 -0.5625 
Q 10.6875 0.296875 5.421875 2 
L 5.421875 11.28125 
Q 10.40625 8.6875 15.234375 7.390625 
Q 20.0625 6.109375 24.8125 6.109375 
Q 31.15625 6.109375 34.5625 8.28125 
Q 37.984375 10.453125 37.984375 14.40625 
Q 37.984375 18.0625 35.515625 20.015625 
Q 33.0625 21.96875 24.703125 23.78125 
L 21.578125 24.515625 
Q 13.234375 26.265625 9.515625 29.90625 
Q 5.8125 33.546875 5.8125 39.890625 
Q 5.8125 47.609375 11.28125 51.796875 
Q 16.75 56 26.8125 56 
Q 31.78125 56 36.171875 55.265625 
Q 40.578125 54.546875 44.28125 53.078125 
" id="BitstreamVeraSans-Roman-73"/>
    </defs>
    <g transform="translate(82.3995 49.432)scale(0.144 -0.144)">
     <use xlink:href="#BitstreamVeraSans-Roman-43"/>
     <use x="69.82421875" xlink:href="#BitstreamVeraSans-Roman-6f"/>
     <use x="131.005859375" xlink:href="#BitstreamVeraSans-Roman-75"/>
     <use x="194.384765625" xlink:href="#BitstreamVeraSans-Roman-6e"/>
     <use x="257.763671875" xlink:href="#BitstreamVeraSans-Roman-74"/>
     <use x="296.97265625" xlink:href="#BitstreamVeraSans-Roman-72"/>
     <use x="338.0859375" xlink:href="#BitstreamVeraSans-Roman-69"/>
     <use x="365.869140625" xlink:href="#BitstreamVeraSans-Roman-65"/>
     <use x="427.392578125" xlink:href="#BitstreamVeraSans-Roman-73"/>
     <use x="479.4921875" xlink:href="#BitstreamVeraSans-Roman-27"/>
     <use x="506.982421875" xlink:href="#BitstreamVeraSans-Roman-20"/>
     <use x="538.76953125" xlink:href="#BitstreamVeraSans-Roman-50"/>
     <use x="599.009765625" xlink:href="#BitstreamVeraSans-Roman-61"/>
     <use x="660.2890625" xlink:href="#BitstreamVeraSans-Roman-73"/>
     <use x="712.388671875" xlink:href="#BitstreamVeraSans-Roman-74"/>
     <use x="751.59765625" xlink:href="#BitstreamVeraSans-Roman-47"/>
     <use x="829.087890625" xlink:href="#BitstreamVeraSans-Roman-44"/>
     <use x="906.08984375" xlink:href="#BitstreamVeraSans-Roman-50"/>
     <use x="966.392578125" xlink:href="#BitstreamVeraSans-Roman-20"/>
     <use x="998.1796875" xlink:href="#BitstreamVeraSans-Roman-69"/>
     <use x="1025.96289062" xlink:href="#BitstreamVeraSans-Roman-6e"/>
     <use x="1089.34179688" xlink:href="#BitstreamVeraSans-Roman-20"/>
     <use x="1121.12890625" xlink:href="#BitstreamVeraSans-Roman-31"/>
     <use x="1184.75195312" xlink:href="#BitstreamVeraSans-Roman-38"/>
     <use x="1248.375" xlink:href="#BitstreamVeraSans-Roman-37"/>
     <use x="1311.99804688" xlink:href="#BitstreamVeraSans-Roman-30"/>
    </g>
   </g>
  </g>
  <g id="legend_1">
   <g id="patch_20">
    <path d="M 357.55875 378.64125 
L 512.4 378.64125 
L 512.4 269.35875 
L 357.55875 269.35875 
z
" style="fill:#ffffff;stroke:#000000;stroke-linejoin:miter;"/>
   </g>
   <g id="patch_21">
    <path d="M 362.35875 283.276875 
L 386.35875 283.276875 
L 386.35875 274.876875 
L 362.35875 274.876875 
z
" style="fill:#215c58;stroke:#ffffff;stroke-linejoin:miter;"/>
   </g>
   <g id="text_2">
    <!-- Western - 42.77 % -->
    <defs>
     <path d="M 19.1875 8.296875 
L 53.609375 8.296875 
L 53.609375 0 
L 7.328125 0 
L 7.328125 8.296875 
Q 12.9375 14.109375 22.625 23.890625 
Q 32.328125 33.6875 34.8125 36.53125 
Q 39.546875 41.84375 41.421875 45.53125 
Q 43.3125 49.21875 43.3125 52.78125 
Q 43.3125 58.59375 39.234375 62.25 
Q 35.15625 65.921875 28.609375 65.921875 
Q 23.96875 65.921875 18.8125 64.3125 
Q 13.671875 62.703125 7.8125 59.421875 
L 7.8125 69.390625 
Q 13.765625 71.78125 18.9375 73 
Q 24.125 74.21875 28.421875 74.21875 
Q 39.75 74.21875 46.484375 68.546875 
Q 53.21875 62.890625 53.21875 53.421875 
Q 53.21875 48.921875 51.53125 44.890625 
Q 49.859375 40.875 45.40625 35.40625 
Q 44.1875 33.984375 37.640625 27.21875 
Q 31.109375 20.453125 19.1875 8.296875 
" id="BitstreamVeraSans-Roman-32"/>
     <path d="M 72.703125 32.078125 
Q 68.453125 32.078125 66.03125 28.46875 
Q 63.625 24.859375 63.625 18.40625 
Q 63.625 12.0625 66.03125 8.421875 
Q 68.453125 4.78125 72.703125 4.78125 
Q 76.859375 4.78125 79.265625 8.421875 
Q 81.6875 12.0625 81.6875 18.40625 
Q 81.6875 24.8125 79.265625 28.4375 
Q 76.859375 32.078125 72.703125 32.078125 
M 72.703125 38.28125 
Q 80.421875 38.28125 84.953125 32.90625 
Q 89.5 27.546875 89.5 18.40625 
Q 89.5 9.28125 84.9375 3.921875 
Q 80.375 -1.421875 72.703125 -1.421875 
Q 64.890625 -1.421875 60.34375 3.921875 
Q 55.8125 9.28125 55.8125 18.40625 
Q 55.8125 27.59375 60.375 32.9375 
Q 64.9375 38.28125 72.703125 38.28125 
M 22.3125 68.015625 
Q 18.109375 68.015625 15.6875 64.375 
Q 13.28125 60.75 13.28125 54.390625 
Q 13.28125 47.953125 15.671875 44.328125 
Q 18.0625 40.71875 22.3125 40.71875 
Q 26.5625 40.71875 28.96875 44.328125 
Q 31.390625 47.953125 31.390625 54.390625 
Q 31.390625 60.6875 28.953125 64.34375 
Q 26.515625 68.015625 22.3125 68.015625 
M 66.40625 74.21875 
L 74.21875 74.21875 
L 28.609375 -1.421875 
L 20.796875 -1.421875 
z
M 22.3125 74.21875 
Q 30.03125 74.21875 34.609375 68.875 
Q 39.203125 63.53125 39.203125 54.390625 
Q 39.203125 45.171875 34.640625 39.84375 
Q 30.078125 34.515625 22.3125 34.515625 
Q 14.546875 34.515625 10.03125 39.859375 
Q 5.515625 45.21875 5.515625 54.390625 
Q 5.515625 63.484375 10.046875 68.84375 
Q 14.59375 74.21875 22.3125 74.21875 
" id="BitstreamVeraSans-Roman-25"/>
     <path d="M 37.796875 64.3125 
L 12.890625 25.390625 
L 37.796875 25.390625 
z
M 35.203125 72.90625 
L 47.609375 72.90625 
L 47.609375 25.390625 
L 58.015625 25.390625 
L 58.015625 17.1875 
L 47.609375 17.1875 
L 47.609375 0 
L 37.796875 0 
L 37.796875 17.1875 
L 4.890625 17.1875 
L 4.890625 26.703125 
z
" id="BitstreamVeraSans-Roman-34"/>
     <path d="M 10.6875 12.40625 
L 21 12.40625 
L 21 0 
L 10.6875 0 
z
" id="BitstreamVeraSans-Roman-2e"/>
     <path d="M 4.890625 31.390625 
L 31.203125 31.390625 
L 31.203125 23.390625 
L 4.890625 23.390625 
z
" id="BitstreamVeraSans-Roman-2d"/>
     <path d="M 3.328125 72.90625 
L 13.28125 72.90625 
L 28.609375 11.28125 
L 43.890625 72.90625 
L 54.984375 72.90625 
L 70.3125 11.28125 
L 85.59375 72.90625 
L 95.609375 72.90625 
L 77.296875 0 
L 64.890625 0 
L 49.515625 63.28125 
L 33.984375 0 
L 21.578125 0 
z
" id="BitstreamVeraSans-Roman-57"/>
    </defs>
    <g transform="translate(395.95875 283.276875)scale(0.12 -0.12)">
     <use xlink:href="#BitstreamVeraSans-Roman-57"/>
     <use x="98.798828125" xlink:href="#BitstreamVeraSans-Roman-65"/>
     <use x="160.322265625" xlink:href="#BitstreamVeraSans-Roman-73"/>
     <use x="212.421875" xlink:href="#BitstreamVeraSans-Roman-74"/>
     <use x="251.630859375" xlink:href="#BitstreamVeraSans-Roman-65"/>
     <use x="313.154296875" xlink:href="#BitstreamVeraSans-Roman-72"/>
     <use x="354.251953125" xlink:href="#BitstreamVeraSans-Roman-6e"/>
     <use x="417.630859375" xlink:href="#BitstreamVeraSans-Roman-20"/>
     <use x="449.41796875" xlink:href="#BitstreamVeraSans-Roman-2d"/>
     <use x="485.501953125" xlink:href="#BitstreamVeraSans-Roman-20"/>
     <use x="517.2890625" xlink:href="#BitstreamVeraSans-Roman-34"/>
     <use x="580.912109375" xlink:href="#BitstreamVeraSans-Roman-32"/>
     <use x="644.53515625" xlink:href="#BitstreamVeraSans-Roman-2e"/>
     <use x="676.322265625" xlink:href="#BitstreamVeraSans-Roman-37"/>
     <use x="739.9453125" xlink:href="#BitstreamVeraSans-Roman-37"/>
     <use x="803.568359375" xlink:href="#BitstreamVeraSans-Roman-20"/>
     <use x="835.35546875" xlink:href="#BitstreamVeraSans-Roman-25"/>
    </g>
   </g>
   <g id="patch_22">
    <path d="M 362.35875 300.890625 
L 386.35875 300.890625 
L 386.35875 292.490625 
L 362.35875 292.490625 
z
" style="fill:#0ba895;stroke:#ffffff;stroke-linejoin:miter;"/>
   </g>
   <g id="text_3">
    <!-- USA - 11.42 % -->
    <defs>
     <path d="M 53.515625 70.515625 
L 53.515625 60.890625 
Q 47.90625 63.578125 42.921875 64.890625 
Q 37.9375 66.21875 33.296875 66.21875 
Q 25.25 66.21875 20.875 63.09375 
Q 16.5 59.96875 16.5 54.203125 
Q 16.5 49.359375 19.40625 46.890625 
Q 22.3125 44.4375 30.421875 42.921875 
L 36.375 41.703125 
Q 47.40625 39.59375 52.65625 34.296875 
Q 57.90625 29 57.90625 20.125 
Q 57.90625 9.515625 50.796875 4.046875 
Q 43.703125 -1.421875 29.984375 -1.421875 
Q 24.8125 -1.421875 18.96875 -0.25 
Q 13.140625 0.921875 6.890625 3.21875 
L 6.890625 13.375 
Q 12.890625 10.015625 18.65625 8.296875 
Q 24.421875 6.59375 29.984375 6.59375 
Q 38.421875 6.59375 43.015625 9.90625 
Q 47.609375 13.234375 47.609375 19.390625 
Q 47.609375 24.75 44.3125 27.78125 
Q 41.015625 30.8125 33.5 32.328125 
L 27.484375 33.5 
Q 16.453125 35.6875 11.515625 40.375 
Q 6.59375 45.0625 6.59375 53.421875 
Q 6.59375 63.09375 13.40625 68.65625 
Q 20.21875 74.21875 32.171875 74.21875 
Q 37.3125 74.21875 42.625 73.28125 
Q 47.953125 72.359375 53.515625 70.515625 
" id="BitstreamVeraSans-Roman-53"/>
     <path d="M 8.6875 72.90625 
L 18.609375 72.90625 
L 18.609375 28.609375 
Q 18.609375 16.890625 22.84375 11.734375 
Q 27.09375 6.59375 36.625 6.59375 
Q 46.09375 6.59375 50.34375 11.734375 
Q 54.59375 16.890625 54.59375 28.609375 
L 54.59375 72.90625 
L 64.5 72.90625 
L 64.5 27.390625 
Q 64.5 13.140625 57.4375 5.859375 
Q 50.390625 -1.421875 36.625 -1.421875 
Q 22.796875 -1.421875 15.734375 5.859375 
Q 8.6875 13.140625 8.6875 27.390625 
z
" id="BitstreamVeraSans-Roman-55"/>
     <path d="M 34.1875 63.1875 
L 20.796875 26.90625 
L 47.609375 26.90625 
z
M 28.609375 72.90625 
L 39.796875 72.90625 
L 67.578125 0 
L 57.328125 0 
L 50.6875 18.703125 
L 17.828125 18.703125 
L 11.1875 0 
L 0.78125 0 
z
" id="BitstreamVeraSans-Roman-41"/>
    </defs>
    <g transform="translate(395.95875 300.890625)scale(0.12 -0.12)">
     <use xlink:href="#BitstreamVeraSans-Roman-55"/>
     <use x="73.193359375" xlink:href="#BitstreamVeraSans-Roman-53"/>
     <use x="136.685546875" xlink:href="#BitstreamVeraSans-Roman-41"/>
     <use x="205.09375" xlink:href="#BitstreamVeraSans-Roman-20"/>
     <use x="236.880859375" xlink:href="#BitstreamVeraSans-Roman-2d"/>
     <use x="272.96484375" xlink:href="#BitstreamVeraSans-Roman-20"/>
     <use x="304.751953125" xlink:href="#BitstreamVeraSans-Roman-31"/>
     <use x="368.375" xlink:href="#BitstreamVeraSans-Roman-31"/>
     <use x="431.998046875" xlink:href="#BitstreamVeraSans-Roman-2e"/>
     <use x="463.78515625" xlink:href="#BitstreamVeraSans-Roman-34"/>
     <use x="527.408203125" xlink:href="#BitstreamVeraSans-Roman-32"/>
     <use x="591.03125" xlink:href="#BitstreamVeraSans-Roman-20"/>
     <use x="622.818359375" xlink:href="#BitstreamVeraSans-Roman-25"/>
    </g>
   </g>
   <g id="patch_23">
    <path d="M 362.35875 318.504375 
L 386.35875 318.504375 
L 386.35875 310.104375 
L 362.35875 310.104375 
z
" style="fill:#7c976a;stroke:#ffffff;stroke-linejoin:miter;"/>
   </g>
   <g id="text_4">
    <!-- Japan - 2.91 % -->
    <defs>
     <path d="M 10.984375 1.515625 
L 10.984375 10.5 
Q 14.703125 8.734375 18.5 7.8125 
Q 22.3125 6.890625 25.984375 6.890625 
Q 35.75 6.890625 40.890625 13.453125 
Q 46.046875 20.015625 46.78125 33.40625 
Q 43.953125 29.203125 39.59375 26.953125 
Q 35.25 24.703125 29.984375 24.703125 
Q 19.046875 24.703125 12.671875 31.3125 
Q 6.296875 37.9375 6.296875 49.421875 
Q 6.296875 60.640625 12.9375 67.421875 
Q 19.578125 74.21875 30.609375 74.21875 
Q 43.265625 74.21875 49.921875 64.515625 
Q 56.59375 54.828125 56.59375 36.375 
Q 56.59375 19.140625 48.40625 8.859375 
Q 40.234375 -1.421875 26.421875 -1.421875 
Q 22.703125 -1.421875 18.890625 -0.6875 
Q 15.09375 0.046875 10.984375 1.515625 
M 30.609375 32.421875 
Q 37.25 32.421875 41.125 36.953125 
Q 45.015625 41.5 45.015625 49.421875 
Q 45.015625 57.28125 41.125 61.84375 
Q 37.25 66.40625 30.609375 66.40625 
Q 23.96875 66.40625 20.09375 61.84375 
Q 16.21875 57.28125 16.21875 49.421875 
Q 16.21875 41.5 20.09375 36.953125 
Q 23.96875 32.421875 30.609375 32.421875 
" id="BitstreamVeraSans-Roman-39"/>
     <path d="M 18.109375 8.203125 
L 18.109375 -20.796875 
L 9.078125 -20.796875 
L 9.078125 54.6875 
L 18.109375 54.6875 
L 18.109375 46.390625 
Q 20.953125 51.265625 25.265625 53.625 
Q 29.59375 56 35.59375 56 
Q 45.5625 56 51.78125 48.09375 
Q 58.015625 40.1875 58.015625 27.296875 
Q 58.015625 14.40625 51.78125 6.484375 
Q 45.5625 -1.421875 35.59375 -1.421875 
Q 29.59375 -1.421875 25.265625 0.953125 
Q 20.953125 3.328125 18.109375 8.203125 
M 48.6875 27.296875 
Q 48.6875 37.203125 44.609375 42.84375 
Q 40.53125 48.484375 33.40625 48.484375 
Q 26.265625 48.484375 22.1875 42.84375 
Q 18.109375 37.203125 18.109375 27.296875 
Q 18.109375 17.390625 22.1875 11.75 
Q 26.265625 6.109375 33.40625 6.109375 
Q 40.53125 6.109375 44.609375 11.75 
Q 48.6875 17.390625 48.6875 27.296875 
" id="BitstreamVeraSans-Roman-70"/>
     <path d="M 9.8125 72.90625 
L 19.671875 72.90625 
L 19.671875 5.078125 
Q 19.671875 -8.109375 14.671875 -14.0625 
Q 9.671875 -20.015625 -1.421875 -20.015625 
L -5.171875 -20.015625 
L -5.171875 -11.71875 
L -2.09375 -11.71875 
Q 4.4375 -11.71875 7.125 -8.046875 
Q 9.8125 -4.390625 9.8125 5.078125 
z
" id="BitstreamVeraSans-Roman-4a"/>
    </defs>
    <g transform="translate(395.95875 318.504375)scale(0.12 -0.12)">
     <use xlink:href="#BitstreamVeraSans-Roman-4a"/>
     <use x="29.4921875" xlink:href="#BitstreamVeraSans-Roman-61"/>
     <use x="90.771484375" xlink:href="#BitstreamVeraSans-Roman-70"/>
     <use x="154.248046875" xlink:href="#BitstreamVeraSans-Roman-61"/>
     <use x="215.52734375" xlink:href="#BitstreamVeraSans-Roman-6e"/>
     <use x="278.90625" xlink:href="#BitstreamVeraSans-Roman-20"/>
     <use x="310.693359375" xlink:href="#BitstreamVeraSans-Roman-2d"/>
     <use x="346.77734375" xlink:href="#BitstreamVeraSans-Roman-20"/>
     <use x="378.564453125" xlink:href="#BitstreamVeraSans-Roman-32"/>
     <use x="442.1875" xlink:href="#BitstreamVeraSans-Roman-2e"/>
     <use x="473.974609375" xlink:href="#BitstreamVeraSans-Roman-39"/>
     <use x="537.59765625" xlink:href="#BitstreamVeraSans-Roman-31"/>
     <use x="601.220703125" xlink:href="#BitstreamVeraSans-Roman-20"/>
     <use x="633.0078125" xlink:href="#BitstreamVeraSans-Roman-25"/>
    </g>
   </g>
   <g id="patch_24">
    <path d="M 362.35875 336.118125 
L 386.35875 336.118125 
L 386.35875 327.718125 
L 362.35875 327.718125 
z
" style="fill:#d4643f;stroke:#ffffff;stroke-linejoin:miter;"/>
   </g>
   <g id="text_5">
    <!-- China - 22.03 % -->
    <defs>
     <path d="M 40.578125 39.3125 
Q 47.65625 37.796875 51.625 33 
Q 55.609375 28.21875 55.609375 21.1875 
Q 55.609375 10.40625 48.1875 4.484375 
Q 40.765625 -1.421875 27.09375 -1.421875 
Q 22.515625 -1.421875 17.65625 -0.515625 
Q 12.796875 0.390625 7.625 2.203125 
L 7.625 11.71875 
Q 11.71875 9.328125 16.59375 8.109375 
Q 21.484375 6.890625 26.8125 6.890625 
Q 36.078125 6.890625 40.9375 10.546875 
Q 45.796875 14.203125 45.796875 21.1875 
Q 45.796875 27.640625 41.28125 31.265625 
Q 36.765625 34.90625 28.71875 34.90625 
L 20.21875 34.90625 
L 20.21875 43.015625 
L 29.109375 43.015625 
Q 36.375 43.015625 40.234375 45.921875 
Q 44.09375 48.828125 44.09375 54.296875 
Q 44.09375 59.90625 40.109375 62.90625 
Q 36.140625 65.921875 28.71875 65.921875 
Q 24.65625 65.921875 20.015625 65.03125 
Q 15.375 64.15625 9.8125 62.3125 
L 9.8125 71.09375 
Q 15.4375 72.65625 20.34375 73.4375 
Q 25.25 74.21875 29.59375 74.21875 
Q 40.828125 74.21875 47.359375 69.109375 
Q 53.90625 64.015625 53.90625 55.328125 
Q 53.90625 49.265625 50.4375 45.09375 
Q 46.96875 40.921875 40.578125 39.3125 
" id="BitstreamVeraSans-Roman-33"/>
     <path d="M 54.890625 33.015625 
L 54.890625 0 
L 45.90625 0 
L 45.90625 32.71875 
Q 45.90625 40.484375 42.875 44.328125 
Q 39.84375 48.1875 33.796875 48.1875 
Q 26.515625 48.1875 22.3125 43.546875 
Q 18.109375 38.921875 18.109375 30.90625 
L 18.109375 0 
L 9.078125 0 
L 9.078125 75.984375 
L 18.109375 75.984375 
L 18.109375 46.1875 
Q 21.34375 51.125 25.703125 53.5625 
Q 30.078125 56 35.796875 56 
Q 45.21875 56 50.046875 50.171875 
Q 54.890625 44.34375 54.890625 33.015625 
" id="BitstreamVeraSans-Roman-68"/>
    </defs>
    <g transform="translate(395.95875 336.118125)scale(0.12 -0.12)">
     <use xlink:href="#BitstreamVeraSans-Roman-43"/>
     <use x="69.82421875" xlink:href="#BitstreamVeraSans-Roman-68"/>
     <use x="133.203125" xlink:href="#BitstreamVeraSans-Roman-69"/>
     <use x="160.986328125" xlink:href="#BitstreamVeraSans-Roman-6e"/>
     <use x="224.365234375" xlink:href="#BitstreamVeraSans-Roman-61"/>
     <use x="285.64453125" xlink:href="#BitstreamVeraSans-Roman-20"/>
     <use x="317.431640625" xlink:href="#BitstreamVeraSans-Roman-2d"/>
     <use x="353.515625" xlink:href="#BitstreamVeraSans-Roman-20"/>
     <use x="385.302734375" xlink:href="#BitstreamVeraSans-Roman-32"/>
     <use x="448.92578125" xlink:href="#BitstreamVeraSans-Roman-32"/>
     <use x="512.548828125" xlink:href="#BitstreamVeraSans-Roman-2e"/>
     <use x="544.3359375" xlink:href="#BitstreamVeraSans-Roman-30"/>
     <use x="607.958984375" xlink:href="#BitstreamVeraSans-Roman-33"/>
     <use x="671.58203125" xlink:href="#BitstreamVeraSans-Roman-20"/>
     <use x="703.369140625" xlink:href="#BitstreamVeraSans-Roman-25"/>
    </g>
   </g>
   <g id="patch_25">
    <path d="M 362.35875 353.731875 
L 386.35875 353.731875 
L 386.35875 345.331875 
L 362.35875 345.331875 
z
" style="fill:#f29653;stroke:#ffffff;stroke-linejoin:miter;"/>
   </g>
   <g id="text_6">
    <!-- India - 15.62 % -->
    <defs>
     <path d="M 45.40625 46.390625 
L 45.40625 75.984375 
L 54.390625 75.984375 
L 54.390625 0 
L 45.40625 0 
L 45.40625 8.203125 
Q 42.578125 3.328125 38.25 0.953125 
Q 33.9375 -1.421875 27.875 -1.421875 
Q 17.96875 -1.421875 11.734375 6.484375 
Q 5.515625 14.40625 5.515625 27.296875 
Q 5.515625 40.1875 11.734375 48.09375 
Q 17.96875 56 27.875 56 
Q 33.9375 56 38.25 53.625 
Q 42.578125 51.265625 45.40625 46.390625 
M 14.796875 27.296875 
Q 14.796875 17.390625 18.875 11.75 
Q 22.953125 6.109375 30.078125 6.109375 
Q 37.203125 6.109375 41.296875 11.75 
Q 45.40625 17.390625 45.40625 27.296875 
Q 45.40625 37.203125 41.296875 42.84375 
Q 37.203125 48.484375 30.078125 48.484375 
Q 22.953125 48.484375 18.875 42.84375 
Q 14.796875 37.203125 14.796875 27.296875 
" id="BitstreamVeraSans-Roman-64"/>
     <path d="M 33.015625 40.375 
Q 26.375 40.375 22.484375 35.828125 
Q 18.609375 31.296875 18.609375 23.390625 
Q 18.609375 15.53125 22.484375 10.953125 
Q 26.375 6.390625 33.015625 6.390625 
Q 39.65625 6.390625 43.53125 10.953125 
Q 47.40625 15.53125 47.40625 23.390625 
Q 47.40625 31.296875 43.53125 35.828125 
Q 39.65625 40.375 33.015625 40.375 
M 52.59375 71.296875 
L 52.59375 62.3125 
Q 48.875 64.0625 45.09375 64.984375 
Q 41.3125 65.921875 37.59375 65.921875 
Q 27.828125 65.921875 22.671875 59.328125 
Q 17.53125 52.734375 16.796875 39.40625 
Q 19.671875 43.65625 24.015625 45.921875 
Q 28.375 48.1875 33.59375 48.1875 
Q 44.578125 48.1875 50.953125 41.515625 
Q 57.328125 34.859375 57.328125 23.390625 
Q 57.328125 12.15625 50.6875 5.359375 
Q 44.046875 -1.421875 33.015625 -1.421875 
Q 20.359375 -1.421875 13.671875 8.265625 
Q 6.984375 17.96875 6.984375 36.375 
Q 6.984375 53.65625 15.1875 63.9375 
Q 23.390625 74.21875 37.203125 74.21875 
Q 40.921875 74.21875 44.703125 73.484375 
Q 48.484375 72.75 52.59375 71.296875 
" id="BitstreamVeraSans-Roman-36"/>
     <path d="M 9.8125 72.90625 
L 19.671875 72.90625 
L 19.671875 0 
L 9.8125 0 
z
" id="BitstreamVeraSans-Roman-49"/>
     <path d="M 10.796875 72.90625 
L 49.515625 72.90625 
L 49.515625 64.59375 
L 19.828125 64.59375 
L 19.828125 46.734375 
Q 21.96875 47.46875 24.109375 47.828125 
Q 26.265625 48.1875 28.421875 48.1875 
Q 40.625 48.1875 47.75 41.5 
Q 54.890625 34.8125 54.890625 23.390625 
Q 54.890625 11.625 47.5625 5.09375 
Q 40.234375 -1.421875 26.90625 -1.421875 
Q 22.3125 -1.421875 17.546875 -0.640625 
Q 12.796875 0.140625 7.71875 1.703125 
L 7.71875 11.625 
Q 12.109375 9.234375 16.796875 8.0625 
Q 21.484375 6.890625 26.703125 6.890625 
Q 35.15625 6.890625 40.078125 11.328125 
Q 45.015625 15.765625 45.015625 23.390625 
Q 45.015625 31 40.078125 35.4375 
Q 35.15625 39.890625 26.703125 39.890625 
Q 22.75 39.890625 18.8125 39.015625 
Q 14.890625 38.140625 10.796875 36.28125 
z
" id="BitstreamVeraSans-Roman-35"/>
    </defs>
    <g transform="translate(395.95875 353.731875)scale(0.12 -0.12)">
     <use xlink:href="#BitstreamVeraSans-Roman-49"/>
     <use x="29.4921875" xlink:href="#BitstreamVeraSans-Roman-6e"/>
     <use x="92.87109375" xlink:href="#BitstreamVeraSans-Roman-64"/>
     <use x="156.34765625" xlink:href="#BitstreamVeraSans-Roman-69"/>
     <use x="184.130859375" xlink:href="#BitstreamVeraSans-Roman-61"/>
     <use x="245.41015625" xlink:href="#BitstreamVeraSans-Roman-20"/>
     <use x="277.197265625" xlink:href="#BitstreamVeraSans-Roman-2d"/>
     <use x="313.28125" xlink:href="#BitstreamVeraSans-Roman-20"/>
     <use x="345.068359375" xlink:href="#BitstreamVeraSans-Roman-31"/>
     <use x="408.69140625" xlink:href="#BitstreamVeraSans-Roman-35"/>
     <use x="472.314453125" xlink:href="#BitstreamVeraSans-Roman-2e"/>
     <use x="504.1015625" xlink:href="#BitstreamVeraSans-Roman-36"/>
     <use x="567.724609375" xlink:href="#BitstreamVeraSans-Roman-32"/>
     <use x="631.34765625" xlink:href="#BitstreamVeraSans-Roman-20"/>
     <use x="663.134765625" xlink:href="#BitstreamVeraSans-Roman-25"/>
    </g>
   </g>
   <g id="patch_26">
    <path d="M 362.35875 371.345625 
L 386.35875 371.345625 
L 386.35875 362.945625 
L 362.35875 362.945625 
z
" style="fill:#cdb56f;stroke:#ffffff;stroke-linejoin:miter;"/>
   </g>
   <g id="text_7">
    <!-- Africa - 5.24 % -->
    <defs>
     <path d="M 37.109375 75.984375 
L 37.109375 68.5 
L 28.515625 68.5 
Q 23.6875 68.5 21.796875 66.546875 
Q 19.921875 64.59375 19.921875 59.515625 
L 19.921875 54.6875 
L 34.71875 54.6875 
L 34.71875 47.703125 
L 19.921875 47.703125 
L 19.921875 0 
L 10.890625 0 
L 10.890625 47.703125 
L 2.296875 47.703125 
L 2.296875 54.6875 
L 10.890625 54.6875 
L 10.890625 58.5 
Q 10.890625 67.625 15.140625 71.796875 
Q 19.390625 75.984375 28.609375 75.984375 
z
" id="BitstreamVeraSans-Roman-66"/>
     <path d="M 48.78125 52.59375 
L 48.78125 44.1875 
Q 44.96875 46.296875 41.140625 47.34375 
Q 37.3125 48.390625 33.40625 48.390625 
Q 24.65625 48.390625 19.8125 42.84375 
Q 14.984375 37.3125 14.984375 27.296875 
Q 14.984375 17.28125 19.8125 11.734375 
Q 24.65625 6.203125 33.40625 6.203125 
Q 37.3125 6.203125 41.140625 7.25 
Q 44.96875 8.296875 48.78125 10.40625 
L 48.78125 2.09375 
Q 45.015625 0.34375 40.984375 -0.53125 
Q 36.96875 -1.421875 32.421875 -1.421875 
Q 20.0625 -1.421875 12.78125 6.34375 
Q 5.515625 14.109375 5.515625 27.296875 
Q 5.515625 40.671875 12.859375 48.328125 
Q 20.21875 56 33.015625 56 
Q 37.15625 56 41.109375 55.140625 
Q 45.0625 54.296875 48.78125 52.59375 
" id="BitstreamVeraSans-Roman-63"/>
    </defs>
    <g transform="translate(395.95875 371.345625)scale(0.12 -0.12)">
     <use xlink:href="#BitstreamVeraSans-Roman-41"/>
     <use x="68.361328125" xlink:href="#BitstreamVeraSans-Roman-66"/>
     <use x="103.56640625" xlink:href="#BitstreamVeraSans-Roman-72"/>
     <use x="144.6796875" xlink:href="#BitstreamVeraSans-Roman-69"/>
     <use x="172.462890625" xlink:href="#BitstreamVeraSans-Roman-63"/>
     <use x="227.443359375" xlink:href="#BitstreamVeraSans-Roman-61"/>
     <use x="288.72265625" xlink:href="#BitstreamVeraSans-Roman-20"/>
     <use x="320.509765625" xlink:href="#BitstreamVeraSans-Roman-2d"/>
     <use x="356.59375" xlink:href="#BitstreamVeraSans-Roman-20"/>
     <use x="388.380859375" xlink:href="#BitstreamVeraSans-Roman-35"/>
     <use x="452.00390625" xlink:href="#BitstreamVeraSans-Roman-2e"/>
     <use x="483.791015625" xlink:href="#BitstreamVeraSans-Roman-32"/>
     <use x="547.4140625" xlink:href="#BitstreamVeraSans-Roman-34"/>
     <use x="611.037109375" xlink:href="#BitstreamVeraSans-Roman-20"/>
     <use x="642.82421875" xlink:href="#BitstreamVeraSans-Roman-25"/>
    </g>
   </g>
  </g>
 </g>
</svg>
