<?xml version="1.0" encoding="utf-8" standalone="no"?>
<!DOCTYPE svg PUBLIC "-//W3C//DTD SVG 1.1//EN"
  "http://www.w3.org/Graphics/SVG/1.1/DTD/svg11.dtd">
<!-- Created with matplotlib (http://matplotlib.org/) -->
<svg height="504pt" version="1.1" viewBox="0 0 504 504" width="504pt" xmlns="http://www.w3.org/2000/svg" xmlns:xlink="http://www.w3.org/1999/xlink">
 <defs>
  <style type="text/css">
*{stroke-linecap:butt;stroke-linejoin:round;stroke-miterlimit:100000;}
  </style>
 </defs>
 <g id="figure_1">
  <g id="patch_1">
   <path d="M 0 504 
L 504 504 
L 504 0 
L 0 0 
z
" style="fill:#ffffff;"/>
  </g>
  <g id="axes_1">
   <g id="patch_2">
    <path d="M 258.3 472.5 
C 310.094165 472.5 359.773949 451.92196 396.397954 415.297954 
C 433.02196 378.673949 453.6 328.994165 453.6 277.2 
C 453.6 225.405835 433.02196 175.726051 396.397954 139.102046 
C 359.773949 102.47804 310.094165 81.9 258.3 81.9 
C 206.505835 81.9 156.826051 102.47804 120.202046 139.102046 
C 83.57804 175.726051 63 225.405835 63 277.2 
C 63 328.994165 83.57804 378.673949 120.202046 415.297954 
C 156.826051 451.92196 206.505835 472.5 258.3 472.5 
z
" style="fill:#ffffff;"/>
   </g>
   <g id="line2d_1">
    <path clip-path="url(#p5b311d51d0)" d="M 258.3 238.14 
L 146.855197 240.989389 
L 172.204155 395.700764 
L 327.176676 372.000611 
L 388.318936 234.954287 
L 258.3 238.14 
" style="fill:none;stroke:#e8b601;stroke-linecap:square;stroke-width:3.0;"/>
   </g>
   <g id="line2d_2">
    <path clip-path="url(#p5b311d51d0)" d="M 258.3 120.96 
L 118.993997 231.936736 
L 246.820554 293.000102 
L 276.667114 302.480163 
L 351.170669 247.02449 
L 258.3 120.96 
" style="fill:none;stroke:#7ac3b1;stroke-linecap:square;stroke-width:3.0;"/>
   </g>
   <g id="line2d_3">
    <path clip-path="url(#p5b311d51d0)" d="M 258.3 160.02 
L 211.864666 262.112245 
L 166.464432 403.600815 
L 332.916399 379.900662 
L 286.161201 268.147347 
L 258.3 160.02 
" style="fill:none;stroke:#6b7e23;stroke-linecap:square;stroke-width:3.0;"/>
   </g>
   <g id="line2d_4">
    <path clip-path="url(#p5b311d51d0)" d="M 258.3 130.725 
L 109.70693 228.919185 
L 195.163047 364.10056 
L 281.258892 308.800204 
L 323.309468 256.077143 
L 258.3 130.725 
" style="fill:none;stroke:#e53135;stroke-linecap:square;stroke-width:3.0;"/>
   </g>
   <g id="patch_3">
    <path d="M 258.3 472.5 
C 310.094165 472.5 359.773949 451.92196 396.397954 415.297954 
C 433.02196 378.673949 453.6 328.994165 453.6 277.2 
C 453.6 225.405835 433.02196 175.726051 396.397954 139.102046 
C 359.773949 102.47804 310.094165 81.9 258.3 81.9 
C 206.505835 81.9 156.826051 102.47804 120.202046 139.102046 
C 83.57804 175.726051 63 225.405835 63 277.2 
C 63 328.994165 83.57804 378.673949 120.202046 415.297954 
C 156.826051 451.92196 206.505835 472.5 258.3 472.5 
z
" style="fill:none;stroke:#000000;stroke-linecap:square;stroke-linejoin:miter;"/>
   </g>
   <g id="matplotlib.axis_1">
    <g id="xtick_1">
     <g id="line2d_5">
      <path clip-path="url(#p5b311d51d0)" d="M 258.3 277.2 
L 258.3 81.9 
" style="fill:none;stroke:#000000;stroke-dasharray:1.000000,3.000000;stroke-dashoffset:0.0;stroke-width:0.5;"/>
     </g>
     <g id="text_1">
      <!-- social -->
      <defs>
       <path d="M 30.609375 48.390625 
Q 23.390625 48.390625 19.1875 42.75 
Q 14.984375 37.109375 14.984375 27.296875 
Q 14.984375 17.484375 19.15625 11.84375 
Q 23.34375 6.203125 30.609375 6.203125 
Q 37.796875 6.203125 41.984375 11.859375 
Q 46.1875 17.53125 46.1875 27.296875 
Q 46.1875 37.015625 41.984375 42.703125 
Q 37.796875 48.390625 30.609375 48.390625 
M 30.609375 56 
Q 42.328125 56 49.015625 48.375 
Q 55.71875 40.765625 55.71875 27.296875 
Q 55.71875 13.875 49.015625 6.21875 
Q 42.328125 -1.421875 30.609375 -1.421875 
Q 18.84375 -1.421875 12.171875 6.21875 
Q 5.515625 13.875 5.515625 27.296875 
Q 5.515625 40.765625 12.171875 48.375 
Q 18.84375 56 30.609375 56 
" id="BitstreamVeraSans-Roman-6f"/>
       <path d="M 9.421875 75.984375 
L 18.40625 75.984375 
L 18.40625 0 
L 9.421875 0 
z
" id="BitstreamVeraSans-Roman-6c"/>
       <path d="M 9.421875 54.6875 
L 18.40625 54.6875 
L 18.40625 0 
L 9.421875 0 
z
M 9.421875 75.984375 
L 18.40625 75.984375 
L 18.40625 64.59375 
L 9.421875 64.59375 
z
" id="BitstreamVeraSans-Roman-69"/>
       <path d="M 34.28125 27.484375 
Q 23.390625 27.484375 19.1875 25 
Q 14.984375 22.515625 14.984375 16.5 
Q 14.984375 11.71875 18.140625 8.90625 
Q 21.296875 6.109375 26.703125 6.109375 
Q 34.1875 6.109375 38.703125 11.40625 
Q 43.21875 16.703125 43.21875 25.484375 
L 43.21875 27.484375 
z
M 52.203125 31.203125 
L 52.203125 0 
L 43.21875 0 
L 43.21875 8.296875 
Q 40.140625 3.328125 35.546875 0.953125 
Q 30.953125 -1.421875 24.3125 -1.421875 
Q 15.921875 -1.421875 10.953125 3.296875 
Q 6 8.015625 6 15.921875 
Q 6 25.140625 12.171875 29.828125 
Q 18.359375 34.515625 30.609375 34.515625 
L 43.21875 34.515625 
L 43.21875 35.40625 
Q 43.21875 41.609375 39.140625 45 
Q 35.0625 48.390625 27.6875 48.390625 
Q 23 48.390625 18.546875 47.265625 
Q 14.109375 46.140625 10.015625 43.890625 
L 10.015625 52.203125 
Q 14.9375 54.109375 19.578125 55.046875 
Q 24.21875 56 28.609375 56 
Q 40.484375 56 46.34375 49.84375 
Q 52.203125 43.703125 52.203125 31.203125 
" id="BitstreamVeraSans-Roman-61"/>
       <path d="M 44.28125 53.078125 
L 44.28125 44.578125 
Q 40.484375 46.53125 36.375 47.5 
Q 32.28125 48.484375 27.875 48.484375 
Q 21.1875 48.484375 17.84375 46.4375 
Q 14.5 44.390625 14.5 40.28125 
Q 14.5 37.15625 16.890625 35.375 
Q 19.28125 33.59375 26.515625 31.984375 
L 29.59375 31.296875 
Q 39.15625 29.25 43.1875 25.515625 
Q 47.21875 21.78125 47.21875 15.09375 
Q 47.21875 7.46875 41.1875 3.015625 
Q 35.15625 -1.421875 24.609375 -1.421875 
Q 20.21875 -1.421875 15.453125 -0.5625 
Q 10.6875 0.296875 5.421875 2 
L 5.421875 11.28125 
Q 10.40625 8.6875 15.234375 7.390625 
Q 20.0625 6.109375 24.8125 6.109375 
Q 31.15625 6.109375 34.5625 8.28125 
Q 37.984375 10.453125 37.984375 14.40625 
Q 37.984375 18.0625 35.515625 20.015625 
Q 33.0625 21.96875 24.703125 23.78125 
L 21.578125 24.515625 
Q 13.234375 26.265625 9.515625 29.90625 
Q 5.8125 33.546875 5.8125 39.890625 
Q 5.8125 47.609375 11.28125 51.796875 
Q 16.75 56 26.8125 56 
Q 31.78125 56 36.171875 55.265625 
Q 40.578125 54.546875 44.28125 53.078125 
" id="BitstreamVeraSans-Roman-73"/>
       <path d="M 48.78125 52.59375 
L 48.78125 44.1875 
Q 44.96875 46.296875 41.140625 47.34375 
Q 37.3125 48.390625 33.40625 48.390625 
Q 24.65625 48.390625 19.8125 42.84375 
Q 14.984375 37.3125 14.984375 27.296875 
Q 14.984375 17.28125 19.8125 11.734375 
Q 24.65625 6.203125 33.40625 6.203125 
Q 37.3125 6.203125 41.140625 7.25 
Q 44.96875 8.296875 48.78125 10.40625 
L 48.78125 2.09375 
Q 45.015625 0.34375 40.984375 -0.53125 
Q 36.96875 -1.421875 32.421875 -1.421875 
Q 20.0625 -1.421875 12.78125 6.34375 
Q 5.515625 14.109375 5.515625 27.296875 
Q 5.515625 40.671875 12.859375 48.328125 
Q 20.21875 56 33.015625 56 
Q 37.15625 56 41.109375 55.140625 
Q 45.0625 54.296875 48.78125 52.59375 
" id="BitstreamVeraSans-Roman-63"/>
      </defs>
      <g transform="translate(241.1934375 65.68125)scale(0.12 -0.12)">
       <use xlink:href="#BitstreamVeraSans-Roman-73"/>
       <use x="52.099609375" xlink:href="#BitstreamVeraSans-Roman-6f"/>
       <use x="113.28125" xlink:href="#BitstreamVeraSans-Roman-63"/>
       <use x="168.26171875" xlink:href="#BitstreamVeraSans-Roman-69"/>
       <use x="196.044921875" xlink:href="#BitstreamVeraSans-Roman-61"/>
       <use x="257.32421875" xlink:href="#BitstreamVeraSans-Roman-6c"/>
      </g>
     </g>
    </g>
    <g id="xtick_2">
     <g id="line2d_6">
      <path clip-path="url(#p5b311d51d0)" d="M 258.3 277.2 
L 72.558662 216.848981 
" style="fill:none;stroke:#000000;stroke-dasharray:1.000000,3.000000;stroke-dashoffset:0.0;stroke-width:0.5;"/>
     </g>
     <g id="text_2">
      <!-- enterprise -->
      <defs>
       <path d="M 56.203125 29.59375 
L 56.203125 25.203125 
L 14.890625 25.203125 
Q 15.484375 15.921875 20.484375 11.0625 
Q 25.484375 6.203125 34.421875 6.203125 
Q 39.59375 6.203125 44.453125 7.46875 
Q 49.3125 8.734375 54.109375 11.28125 
L 54.109375 2.78125 
Q 49.265625 0.734375 44.1875 -0.34375 
Q 39.109375 -1.421875 33.890625 -1.421875 
Q 20.796875 -1.421875 13.15625 6.1875 
Q 5.515625 13.8125 5.515625 26.8125 
Q 5.515625 40.234375 12.765625 48.109375 
Q 20.015625 56 32.328125 56 
Q 43.359375 56 49.78125 48.890625 
Q 56.203125 41.796875 56.203125 29.59375 
M 47.21875 32.234375 
Q 47.125 39.59375 43.09375 43.984375 
Q 39.0625 48.390625 32.421875 48.390625 
Q 24.90625 48.390625 20.390625 44.140625 
Q 15.875 39.890625 15.1875 32.171875 
z
" id="BitstreamVeraSans-Roman-65"/>
       <path d="M 54.890625 33.015625 
L 54.890625 0 
L 45.90625 0 
L 45.90625 32.71875 
Q 45.90625 40.484375 42.875 44.328125 
Q 39.84375 48.1875 33.796875 48.1875 
Q 26.515625 48.1875 22.3125 43.546875 
Q 18.109375 38.921875 18.109375 30.90625 
L 18.109375 0 
L 9.078125 0 
L 9.078125 54.6875 
L 18.109375 54.6875 
L 18.109375 46.1875 
Q 21.34375 51.125 25.703125 53.5625 
Q 30.078125 56 35.796875 56 
Q 45.21875 56 50.046875 50.171875 
Q 54.890625 44.34375 54.890625 33.015625 
" id="BitstreamVeraSans-Roman-6e"/>
       <path d="M 18.3125 70.21875 
L 18.3125 54.6875 
L 36.8125 54.6875 
L 36.8125 47.703125 
L 18.3125 47.703125 
L 18.3125 18.015625 
Q 18.3125 11.328125 20.140625 9.421875 
Q 21.96875 7.515625 27.59375 7.515625 
L 36.8125 7.515625 
L 36.8125 0 
L 27.59375 0 
Q 17.1875 0 13.234375 3.875 
Q 9.28125 7.765625 9.28125 18.015625 
L 9.28125 47.703125 
L 2.6875 47.703125 
L 2.6875 54.6875 
L 9.28125 54.6875 
L 9.28125 70.21875 
z
" id="BitstreamVeraSans-Roman-74"/>
       <path d="M 41.109375 46.296875 
Q 39.59375 47.171875 37.8125 47.578125 
Q 36.03125 48 33.890625 48 
Q 26.265625 48 22.1875 43.046875 
Q 18.109375 38.09375 18.109375 28.8125 
L 18.109375 0 
L 9.078125 0 
L 9.078125 54.6875 
L 18.109375 54.6875 
L 18.109375 46.1875 
Q 20.953125 51.171875 25.484375 53.578125 
Q 30.03125 56 36.53125 56 
Q 37.453125 56 38.578125 55.875 
Q 39.703125 55.765625 41.0625 55.515625 
z
" id="BitstreamVeraSans-Roman-72"/>
       <path d="M 18.109375 8.203125 
L 18.109375 -20.796875 
L 9.078125 -20.796875 
L 9.078125 54.6875 
L 18.109375 54.6875 
L 18.109375 46.390625 
Q 20.953125 51.265625 25.265625 53.625 
Q 29.59375 56 35.59375 56 
Q 45.5625 56 51.78125 48.09375 
Q 58.015625 40.1875 58.015625 27.296875 
Q 58.015625 14.40625 51.78125 6.484375 
Q 45.5625 -1.421875 35.59375 -1.421875 
Q 29.59375 -1.421875 25.265625 0.953125 
Q 20.953125 3.328125 18.109375 8.203125 
M 48.6875 27.296875 
Q 48.6875 37.203125 44.609375 42.84375 
Q 40.53125 48.484375 33.40625 48.484375 
Q 26.265625 48.484375 22.1875 42.84375 
Q 18.109375 37.203125 18.109375 27.296875 
Q 18.109375 17.390625 22.1875 11.75 
Q 26.265625 6.109375 33.40625 6.109375 
Q 40.53125 6.109375 44.609375 11.75 
Q 48.6875 17.390625 48.6875 27.296875 
" id="BitstreamVeraSans-Roman-70"/>
      </defs>
      <g transform="translate(23.2195286043 214.125129098)scale(0.12 -0.12)">
       <use xlink:href="#BitstreamVeraSans-Roman-65"/>
       <use x="61.5234375" xlink:href="#BitstreamVeraSans-Roman-6e"/>
       <use x="124.90234375" xlink:href="#BitstreamVeraSans-Roman-74"/>
       <use x="164.111328125" xlink:href="#BitstreamVeraSans-Roman-65"/>
       <use x="225.634765625" xlink:href="#BitstreamVeraSans-Roman-72"/>
       <use x="266.748046875" xlink:href="#BitstreamVeraSans-Roman-70"/>
       <use x="330.224609375" xlink:href="#BitstreamVeraSans-Roman-72"/>
       <use x="371.337890625" xlink:href="#BitstreamVeraSans-Roman-69"/>
       <use x="399.12109375" xlink:href="#BitstreamVeraSans-Roman-73"/>
       <use x="451.220703125" xlink:href="#BitstreamVeraSans-Roman-65"/>
      </g>
     </g>
    </g>
    <g id="xtick_3">
     <g id="line2d_7">
      <path clip-path="url(#p5b311d51d0)" d="M 258.3 277.2 
L 143.50554 435.201019 
" style="fill:none;stroke:#000000;stroke-dasharray:1.000000,3.000000;stroke-dashoffset:0.0;stroke-width:0.5;"/>
     </g>
     <g id="text_3">
      <!-- common -->
      <defs>
       <path d="M 52 44.1875 
Q 55.375 50.25 60.0625 53.125 
Q 64.75 56 71.09375 56 
Q 79.640625 56 84.28125 50.015625 
Q 88.921875 44.046875 88.921875 33.015625 
L 88.921875 0 
L 79.890625 0 
L 79.890625 32.71875 
Q 79.890625 40.578125 77.09375 44.375 
Q 74.3125 48.1875 68.609375 48.1875 
Q 61.625 48.1875 57.5625 43.546875 
Q 53.515625 38.921875 53.515625 30.90625 
L 53.515625 0 
L 44.484375 0 
L 44.484375 32.71875 
Q 44.484375 40.625 41.703125 44.40625 
Q 38.921875 48.1875 33.109375 48.1875 
Q 26.21875 48.1875 22.15625 43.53125 
Q 18.109375 38.875 18.109375 30.90625 
L 18.109375 0 
L 9.078125 0 
L 9.078125 54.6875 
L 18.109375 54.6875 
L 18.109375 46.1875 
Q 21.1875 51.21875 25.484375 53.609375 
Q 29.78125 56 35.6875 56 
Q 41.65625 56 45.828125 52.96875 
Q 50 49.953125 52 44.1875 
" id="BitstreamVeraSans-Roman-6d"/>
      </defs>
      <g transform="translate(105.89328175 454.312370902)scale(0.12 -0.12)">
       <use xlink:href="#BitstreamVeraSans-Roman-63"/>
       <use x="54.98046875" xlink:href="#BitstreamVeraSans-Roman-6f"/>
       <use x="116.162109375" xlink:href="#BitstreamVeraSans-Roman-6d"/>
       <use x="213.57421875" xlink:href="#BitstreamVeraSans-Roman-6d"/>
       <use x="310.986328125" xlink:href="#BitstreamVeraSans-Roman-6f"/>
       <use x="372.16796875" xlink:href="#BitstreamVeraSans-Roman-6e"/>
      </g>
     </g>
    </g>
    <g id="xtick_4">
     <g id="line2d_8">
      <path clip-path="url(#p5b311d51d0)" d="M 258.3 277.2 
L 373.09446 435.201019 
" style="fill:none;stroke:#000000;stroke-dasharray:1.000000,3.000000;stroke-dashoffset:0.0;stroke-width:0.5;"/>
     </g>
     <g id="text_4">
      <!-- investigation -->
      <defs>
       <path d="M 2.984375 54.6875 
L 12.5 54.6875 
L 29.59375 8.796875 
L 46.6875 54.6875 
L 56.203125 54.6875 
L 35.6875 0 
L 23.484375 0 
z
" id="BitstreamVeraSans-Roman-76"/>
       <path d="M 45.40625 27.984375 
Q 45.40625 37.75 41.375 43.109375 
Q 37.359375 48.484375 30.078125 48.484375 
Q 22.859375 48.484375 18.828125 43.109375 
Q 14.796875 37.75 14.796875 27.984375 
Q 14.796875 18.265625 18.828125 12.890625 
Q 22.859375 7.515625 30.078125 7.515625 
Q 37.359375 7.515625 41.375 12.890625 
Q 45.40625 18.265625 45.40625 27.984375 
M 54.390625 6.78125 
Q 54.390625 -7.171875 48.1875 -13.984375 
Q 42 -20.796875 29.203125 -20.796875 
Q 24.46875 -20.796875 20.265625 -20.09375 
Q 16.0625 -19.390625 12.109375 -17.921875 
L 12.109375 -9.1875 
Q 16.0625 -11.328125 19.921875 -12.34375 
Q 23.78125 -13.375 27.78125 -13.375 
Q 36.625 -13.375 41.015625 -8.765625 
Q 45.40625 -4.15625 45.40625 5.171875 
L 45.40625 9.625 
Q 42.625 4.78125 38.28125 2.390625 
Q 33.9375 0 27.875 0 
Q 17.828125 0 11.671875 7.65625 
Q 5.515625 15.328125 5.515625 27.984375 
Q 5.515625 40.671875 11.671875 48.328125 
Q 17.828125 56 27.875 56 
Q 33.9375 56 38.28125 53.609375 
Q 42.625 51.21875 45.40625 46.390625 
L 45.40625 54.6875 
L 54.390625 54.6875 
z
" id="BitstreamVeraSans-Roman-67"/>
      </defs>
      <g transform="translate(345.73796825 454.312370902)scale(0.12 -0.12)">
       <use xlink:href="#BitstreamVeraSans-Roman-69"/>
       <use x="27.783203125" xlink:href="#BitstreamVeraSans-Roman-6e"/>
       <use x="91.162109375" xlink:href="#BitstreamVeraSans-Roman-76"/>
       <use x="150.341796875" xlink:href="#BitstreamVeraSans-Roman-65"/>
       <use x="211.865234375" xlink:href="#BitstreamVeraSans-Roman-73"/>
       <use x="263.96484375" xlink:href="#BitstreamVeraSans-Roman-74"/>
       <use x="303.173828125" xlink:href="#BitstreamVeraSans-Roman-69"/>
       <use x="330.95703125" xlink:href="#BitstreamVeraSans-Roman-67"/>
       <use x="394.43359375" xlink:href="#BitstreamVeraSans-Roman-61"/>
       <use x="455.712890625" xlink:href="#BitstreamVeraSans-Roman-74"/>
       <use x="494.921875" xlink:href="#BitstreamVeraSans-Roman-69"/>
       <use x="522.705078125" xlink:href="#BitstreamVeraSans-Roman-6f"/>
       <use x="583.88671875" xlink:href="#BitstreamVeraSans-Roman-6e"/>
      </g>
     </g>
    </g>
    <g id="xtick_5">
     <g id="line2d_9">
      <path clip-path="url(#p5b311d51d0)" d="M 258.3 277.2 
L 444.041338 216.848981 
" style="fill:none;stroke:#000000;stroke-dasharray:1.000000,3.000000;stroke-dashoffset:0.0;stroke-width:0.5;"/>
     </g>
     <g id="text_5">
      <!-- other -->
      <defs>
       <path d="M 54.890625 33.015625 
L 54.890625 0 
L 45.90625 0 
L 45.90625 32.71875 
Q 45.90625 40.484375 42.875 44.328125 
Q 39.84375 48.1875 33.796875 48.1875 
Q 26.515625 48.1875 22.3125 43.546875 
Q 18.109375 38.921875 18.109375 30.90625 
L 18.109375 0 
L 9.078125 0 
L 9.078125 75.984375 
L 18.109375 75.984375 
L 18.109375 46.1875 
Q 21.34375 51.125 25.703125 53.5625 
Q 30.078125 56 35.796875 56 
Q 45.21875 56 50.046875 50.171875 
Q 54.890625 44.34375 54.890625 33.015625 
" id="BitstreamVeraSans-Roman-68"/>
      </defs>
      <g transform="translate(446.631096396 214.125129098)scale(0.12 -0.12)">
       <use xlink:href="#BitstreamVeraSans-Roman-6f"/>
       <use x="61.181640625" xlink:href="#BitstreamVeraSans-Roman-74"/>
       <use x="100.390625" xlink:href="#BitstreamVeraSans-Roman-68"/>
       <use x="163.76953125" xlink:href="#BitstreamVeraSans-Roman-65"/>
       <use x="225.29296875" xlink:href="#BitstreamVeraSans-Roman-72"/>
      </g>
     </g>
    </g>
   </g>
   <g id="matplotlib.axis_2">
    <g id="ytick_1">
     <g id="line2d_10">
      <path clip-path="url(#p5b311d51d0)" d="M 297.36 277.2 
L 297.336206 275.836826 
L 297.264852 274.475312 
L 296.979871 271.763899 
L 296.506445 269.078969 
L 295.846882 266.433605 
L 295.004394 263.840693 
L 293.983086 261.312867 
L 292.787933 258.862441 
L 291.424759 256.501354 
L 289.900204 254.241108 
L 288.221696 252.092716 
L 286.397413 250.066644 
L 284.436241 248.172763 
L 282.347737 246.4203 
L 280.142075 244.817792 
L 277.83 243.373048 
L 275.422777 242.093105 
L 272.932134 240.984199 
L 270.370204 240.051732 
L 267.749469 239.300249 
L 265.082698 238.733409 
L 262.382882 238.353975 
L 259.663174 238.163794 
L 256.936826 238.163794 
L 254.217118 238.353975 
L 251.517302 238.733409 
L 248.850531 239.300249 
L 246.229796 240.051732 
L 243.667866 240.984199 
L 241.177223 242.093105 
L 238.77 243.373048 
L 236.457925 244.817792 
L 234.252263 246.4203 
L 232.163759 248.172763 
L 230.202587 250.066644 
L 228.378304 252.092716 
L 226.699796 254.241108 
L 225.175241 256.501354 
L 223.812067 258.862441 
L 222.616914 261.312867 
L 221.595606 263.840693 
L 220.753118 266.433605 
L 220.093555 269.078969 
L 219.620129 271.763899 
L 219.335148 274.475312 
L 219.24 277.2 
L 219.335148 279.924688 
L 219.620129 282.636101 
L 220.093555 285.321031 
L 220.753118 287.966395 
L 221.595606 290.559307 
L 222.616914 293.087133 
L 223.812067 295.537559 
L 225.175241 297.898646 
L 226.699796 300.158892 
L 228.378304 302.307284 
L 230.202587 304.333356 
L 232.163759 306.227237 
L 234.252263 307.9797 
L 236.457925 309.582208 
L 238.77 311.026952 
L 241.177223 312.306895 
L 243.667866 313.415801 
L 246.229796 314.348268 
L 248.850531 315.099751 
L 251.517302 315.666591 
L 254.217118 316.046025 
L 256.936826 316.236206 
L 259.663174 316.236206 
L 262.382882 316.046025 
L 265.082698 315.666591 
L 267.749469 315.099751 
L 270.370204 314.348268 
L 272.932134 313.415801 
L 275.422777 312.306895 
L 277.83 311.026952 
L 280.142075 309.582208 
L 282.347737 307.9797 
L 284.436241 306.227237 
L 286.397413 304.333356 
L 288.221696 302.307284 
L 289.900204 300.158892 
L 291.424759 297.898646 
L 292.787933 295.537559 
L 293.983086 293.087133 
L 295.004394 290.559307 
L 295.846882 287.966395 
L 296.506445 285.321031 
L 296.979871 282.636101 
L 297.264852 279.924688 
L 297.36 277.2 
L 297.36 277.2 
" style="fill:none;stroke:#000000;stroke-dasharray:1.000000,3.000000;stroke-dashoffset:0.0;stroke-width:0.5;"/>
     </g>
     <g id="text_6">
      <!-- 0.2 -->
      <defs>
       <path d="M 19.1875 8.296875 
L 53.609375 8.296875 
L 53.609375 0 
L 7.328125 0 
L 7.328125 8.296875 
Q 12.9375 14.109375 22.625 23.890625 
Q 32.328125 33.6875 34.8125 36.53125 
Q 39.546875 41.84375 41.421875 45.53125 
Q 43.3125 49.21875 43.3125 52.78125 
Q 43.3125 58.59375 39.234375 62.25 
Q 35.15625 65.921875 28.609375 65.921875 
Q 23.96875 65.921875 18.8125 64.3125 
Q 13.671875 62.703125 7.8125 59.421875 
L 7.8125 69.390625 
Q 13.765625 71.78125 18.9375 73 
Q 24.125 74.21875 28.421875 74.21875 
Q 39.75 74.21875 46.484375 68.546875 
Q 53.21875 62.890625 53.21875 53.421875 
Q 53.21875 48.921875 51.53125 44.890625 
Q 49.859375 40.875 45.40625 35.40625 
Q 44.1875 33.984375 37.640625 27.21875 
Q 31.109375 20.453125 19.1875 8.296875 
" id="BitstreamVeraSans-Roman-32"/>
       <path d="M 31.78125 66.40625 
Q 24.171875 66.40625 20.328125 58.90625 
Q 16.5 51.421875 16.5 36.375 
Q 16.5 21.390625 20.328125 13.890625 
Q 24.171875 6.390625 31.78125 6.390625 
Q 39.453125 6.390625 43.28125 13.890625 
Q 47.125 21.390625 47.125 36.375 
Q 47.125 51.421875 43.28125 58.90625 
Q 39.453125 66.40625 31.78125 66.40625 
M 31.78125 74.21875 
Q 44.046875 74.21875 50.515625 64.515625 
Q 56.984375 54.828125 56.984375 36.375 
Q 56.984375 17.96875 50.515625 8.265625 
Q 44.046875 -1.421875 31.78125 -1.421875 
Q 19.53125 -1.421875 13.0625 8.265625 
Q 6.59375 17.96875 6.59375 36.375 
Q 6.59375 54.828125 13.0625 64.515625 
Q 19.53125 74.21875 31.78125 74.21875 
" id="BitstreamVeraSans-Roman-30"/>
       <path d="M 10.6875 12.40625 
L 21 12.40625 
L 21 0 
L 10.6875 0 
z
" id="BitstreamVeraSans-Roman-2e"/>
      </defs>
      <g transform="translate(294.38673454 259.756760132)scale(0.12 -0.12)">
       <use xlink:href="#BitstreamVeraSans-Roman-30"/>
       <use x="63.623046875" xlink:href="#BitstreamVeraSans-Roman-2e"/>
       <use x="95.41015625" xlink:href="#BitstreamVeraSans-Roman-32"/>
      </g>
     </g>
    </g>
    <g id="ytick_2">
     <g id="line2d_11">
      <path clip-path="url(#p5b311d51d0)" d="M 336.42 277.2 
L 336.372411 274.473651 
L 336.229704 271.750624 
L 335.659742 266.327797 
L 334.712891 260.957939 
L 333.393764 255.66721 
L 331.708788 250.481386 
L 329.666171 245.425733 
L 327.275866 240.524882 
L 324.549517 235.802707 
L 321.500408 231.282216 
L 318.143392 226.985432 
L 314.494825 222.933288 
L 310.572483 219.145526 
L 306.395474 215.6406 
L 301.98415 212.435585 
L 297.36 209.546095 
L 292.545554 206.986209 
L 287.564267 204.768397 
L 282.440408 202.903465 
L 277.198938 201.400498 
L 271.865396 200.266818 
L 266.465764 199.50795 
L 261.026349 199.127589 
L 255.573651 199.127589 
L 250.134236 199.50795 
L 244.734604 200.266818 
L 239.401062 201.400498 
L 234.159592 202.903465 
L 229.035733 204.768397 
L 224.054446 206.986209 
L 219.24 209.546095 
L 214.61585 212.435585 
L 210.204526 215.6406 
L 206.027517 219.145526 
L 202.105175 222.933288 
L 198.456608 226.985432 
L 195.099592 231.282216 
L 192.050483 235.802707 
L 189.324134 240.524882 
L 186.933829 245.425733 
L 184.891212 250.481386 
L 183.206236 255.66721 
L 181.887109 260.957939 
L 180.940258 266.327797 
L 180.370296 271.750624 
L 180.18 277.2 
L 180.370296 282.649376 
L 180.940258 288.072203 
L 181.887109 293.442061 
L 183.206236 298.73279 
L 184.891212 303.918614 
L 186.933829 308.974267 
L 189.324134 313.875118 
L 192.050483 318.597293 
L 195.099592 323.117784 
L 198.456608 327.414568 
L 202.105175 331.466712 
L 206.027517 335.254474 
L 210.204526 338.7594 
L 214.61585 341.964415 
L 219.24 344.853905 
L 224.054446 347.413791 
L 229.035733 349.631603 
L 234.159592 351.496535 
L 239.401062 352.999502 
L 244.734604 354.133182 
L 250.134236 354.89205 
L 255.573651 355.272411 
L 261.026349 355.272411 
L 266.465764 354.89205 
L 271.865396 354.133182 
L 277.198938 352.999502 
L 282.440408 351.496535 
L 287.564267 349.631603 
L 292.545554 347.413791 
L 297.36 344.853905 
L 301.98415 341.964415 
L 306.395474 338.7594 
L 310.572483 335.254474 
L 314.494825 331.466712 
L 318.143392 327.414568 
L 321.500408 323.117784 
L 324.549517 318.597293 
L 327.275866 313.875118 
L 329.666171 308.974267 
L 331.708788 303.918614 
L 333.393764 298.73279 
L 334.712891 293.442061 
L 335.659742 288.072203 
L 336.229704 282.649376 
L 336.42 277.2 
L 336.42 277.2 
" style="fill:none;stroke:#000000;stroke-dasharray:1.000000,3.000000;stroke-dashoffset:0.0;stroke-width:0.5;"/>
     </g>
     <g id="text_7">
      <!-- 0.4 -->
      <defs>
       <path d="M 37.796875 64.3125 
L 12.890625 25.390625 
L 37.796875 25.390625 
z
M 35.203125 72.90625 
L 47.609375 72.90625 
L 47.609375 25.390625 
L 58.015625 25.390625 
L 58.015625 17.1875 
L 47.609375 17.1875 
L 47.609375 0 
L 37.796875 0 
L 37.796875 17.1875 
L 4.890625 17.1875 
L 4.890625 26.703125 
z
" id="BitstreamVeraSans-Roman-34"/>
      </defs>
      <g transform="translate(330.47346908 244.809145264)scale(0.12 -0.12)">
       <use xlink:href="#BitstreamVeraSans-Roman-30"/>
       <use x="63.623046875" xlink:href="#BitstreamVeraSans-Roman-2e"/>
       <use x="95.41015625" xlink:href="#BitstreamVeraSans-Roman-34"/>
      </g>
     </g>
    </g>
    <g id="ytick_3">
     <g id="line2d_12">
      <path clip-path="url(#p5b311d51d0)" d="M 375.48 277.2 
L 375.408617 273.110477 
L 375.194555 269.025936 
L 374.838076 264.951355 
L 374.339612 260.891696 
L 373.699772 256.851907 
L 372.919336 252.836908 
L 371.999253 248.851592 
L 370.940646 244.900815 
L 369.744803 240.989389 
L 368.413181 237.12208 
L 366.947404 233.303599 
L 365.349257 229.5386 
L 363.620686 225.831669 
L 361.763799 222.187322 
L 359.780857 218.61 
L 357.674276 215.104061 
L 355.446623 211.673776 
L 353.100611 208.323324 
L 350.6391 205.056788 
L 348.065088 201.878148 
L 345.381711 198.791276 
L 342.592238 195.799932 
L 339.700068 192.907762 
L 336.708724 190.118289 
L 333.621852 187.434912 
L 330.443212 184.8609 
L 327.176676 182.399389 
L 323.826224 180.053377 
L 320.395939 177.825724 
L 316.89 175.719143 
L 313.312678 173.736201 
L 309.668331 171.879314 
L 305.9614 170.150743 
L 302.196401 168.552596 
L 298.37792 167.086819 
L 294.510611 165.755197 
L 290.599185 164.559354 
L 286.648408 163.500747 
L 282.663092 162.580664 
L 278.648093 161.800228 
L 274.608304 161.160388 
L 270.548645 160.661924 
L 266.474064 160.305445 
L 262.389523 160.091383 
L 258.3 160.02 
L 254.210477 160.091383 
L 250.125936 160.305445 
L 246.051355 160.661924 
L 241.991696 161.160388 
L 237.951907 161.800228 
L 233.936908 162.580664 
L 229.951592 163.500747 
L 226.000815 164.559354 
L 222.089389 165.755197 
L 218.22208 167.086819 
L 214.403599 168.552596 
L 210.6386 170.150743 
L 206.931669 171.879314 
L 203.287322 173.736201 
L 199.71 175.719143 
L 196.204061 177.825724 
L 192.773776 180.053377 
L 189.423324 182.399389 
L 186.156788 184.8609 
L 182.978148 187.434912 
L 179.891276 190.118289 
L 176.899932 192.907762 
L 174.007762 195.799932 
L 171.218289 198.791276 
L 168.534912 201.878148 
L 165.9609 205.056788 
L 163.499389 208.323324 
L 161.153377 211.673776 
L 158.925724 215.104061 
L 156.819143 218.61 
L 154.836201 222.187322 
L 152.979314 225.831669 
L 151.250743 229.5386 
L 149.652596 233.303599 
L 148.186819 237.12208 
L 146.855197 240.989389 
L 145.659354 244.900815 
L 144.600747 248.851592 
L 143.680664 252.836908 
L 142.900228 256.851907 
L 142.260388 260.891696 
L 141.761924 264.951355 
L 141.405445 269.025936 
L 141.191383 273.110477 
L 141.12 277.2 
L 141.191383 281.289523 
L 141.405445 285.374064 
L 141.761924 289.448645 
L 142.260388 293.508304 
L 142.900228 297.548093 
L 143.680664 301.563092 
L 144.600747 305.548408 
L 145.659354 309.499185 
L 146.855197 313.410611 
L 148.186819 317.27792 
L 149.652596 321.096401 
L 151.250743 324.8614 
L 152.979314 328.568331 
L 154.836201 332.212678 
L 156.819143 335.79 
L 158.925724 339.295939 
L 161.153377 342.726224 
L 163.499389 346.076676 
L 165.9609 349.343212 
L 168.534912 352.521852 
L 171.218289 355.608724 
L 174.007762 358.600068 
L 176.899932 361.492238 
L 179.891276 364.281711 
L 182.978148 366.965088 
L 186.156788 369.5391 
L 189.423324 372.000611 
L 192.773776 374.346623 
L 196.204061 376.574276 
L 199.71 378.680857 
L 203.287322 380.663799 
L 206.931669 382.520686 
L 210.6386 384.249257 
L 214.403599 385.847404 
L 218.22208 387.313181 
L 222.089389 388.644803 
L 226.000815 389.840646 
L 229.951592 390.899253 
L 233.936908 391.819336 
L 237.951907 392.599772 
L 241.991696 393.239612 
L 246.051355 393.738076 
L 250.125936 394.094555 
L 254.210477 394.308617 
L 258.3 394.38 
L 262.389523 394.308617 
L 266.474064 394.094555 
L 270.548645 393.738076 
L 274.608304 393.239612 
L 278.648093 392.599772 
L 282.663092 391.819336 
L 286.648408 390.899253 
L 290.599185 389.840646 
L 294.510611 388.644803 
L 298.37792 387.313181 
L 302.196401 385.847404 
L 305.9614 384.249257 
L 309.668331 382.520686 
L 313.312678 380.663799 
L 316.89 378.680857 
L 320.395939 376.574276 
L 323.826224 374.346623 
L 327.176676 372.000611 
L 330.443212 369.5391 
L 333.621852 366.965088 
L 336.708724 364.281711 
L 339.700068 361.492238 
L 342.592238 358.600068 
L 345.381711 355.608724 
L 348.065088 352.521852 
L 350.6391 349.343212 
L 353.100611 346.076676 
L 355.446623 342.726224 
L 357.674276 339.295939 
L 359.780857 335.79 
L 361.763799 332.212678 
L 363.620686 328.568331 
L 365.349257 324.8614 
L 366.947404 321.096401 
L 368.413181 317.27792 
L 369.744803 313.410611 
L 370.940646 309.499185 
L 371.999253 305.548408 
L 372.919336 301.563092 
L 373.699772 297.548093 
L 374.339612 293.508304 
L 374.838076 289.448645 
L 375.194555 285.374064 
L 375.408617 281.289523 
L 375.48 277.2 
L 375.48 277.2 
" style="fill:none;stroke:#000000;stroke-dasharray:1.000000,3.000000;stroke-dashoffset:0.0;stroke-width:0.5;"/>
     </g>
     <g id="text_8">
      <!-- 0.6 -->
      <defs>
       <path d="M 33.015625 40.375 
Q 26.375 40.375 22.484375 35.828125 
Q 18.609375 31.296875 18.609375 23.390625 
Q 18.609375 15.53125 22.484375 10.953125 
Q 26.375 6.390625 33.015625 6.390625 
Q 39.65625 6.390625 43.53125 10.953125 
Q 47.40625 15.53125 47.40625 23.390625 
Q 47.40625 31.296875 43.53125 35.828125 
Q 39.65625 40.375 33.015625 40.375 
M 52.59375 71.296875 
L 52.59375 62.3125 
Q 48.875 64.0625 45.09375 64.984375 
Q 41.3125 65.921875 37.59375 65.921875 
Q 27.828125 65.921875 22.671875 59.328125 
Q 17.53125 52.734375 16.796875 39.40625 
Q 19.671875 43.65625 24.015625 45.921875 
Q 28.375 48.1875 33.59375 48.1875 
Q 44.578125 48.1875 50.953125 41.515625 
Q 57.328125 34.859375 57.328125 23.390625 
Q 57.328125 12.15625 50.6875 5.359375 
Q 44.046875 -1.421875 33.015625 -1.421875 
Q 20.359375 -1.421875 13.671875 8.265625 
Q 6.984375 17.96875 6.984375 36.375 
Q 6.984375 53.65625 15.1875 63.9375 
Q 23.390625 74.21875 37.203125 74.21875 
Q 40.921875 74.21875 44.703125 73.484375 
Q 48.484375 72.75 52.59375 71.296875 
" id="BitstreamVeraSans-Roman-36"/>
      </defs>
      <g transform="translate(366.56020362 229.861530395)scale(0.12 -0.12)">
       <use xlink:href="#BitstreamVeraSans-Roman-30"/>
       <use x="63.623046875" xlink:href="#BitstreamVeraSans-Roman-2e"/>
       <use x="95.41015625" xlink:href="#BitstreamVeraSans-Roman-36"/>
      </g>
     </g>
    </g>
    <g id="ytick_4">
     <g id="line2d_13">
      <path clip-path="url(#p5b311d51d0)" d="M 414.54 277.2 
L 414.444823 271.747303 
L 414.159407 266.301249 
L 413.684101 260.868473 
L 413.019483 255.455595 
L 412.166363 250.069209 
L 411.125781 244.715877 
L 409.899004 239.402123 
L 408.487527 234.13442 
L 406.89307 228.919185 
L 405.117575 223.762773 
L 403.163205 218.671466 
L 401.032342 213.651467 
L 398.727582 208.708892 
L 396.251732 203.849763 
L 393.607809 199.08 
L 390.799035 194.405414 
L 387.82883 189.831701 
L 384.700815 185.364432 
L 381.4188 181.009051 
L 377.986784 176.770864 
L 374.408948 172.655034 
L 370.68965 168.666576 
L 366.833424 164.81035 
L 362.844966 161.091052 
L 358.729136 157.513216 
L 354.490949 154.0812 
L 350.135568 150.799185 
L 345.668299 147.67117 
L 341.094586 144.700965 
L 336.42 141.892191 
L 331.650237 139.248268 
L 326.791108 136.772418 
L 321.848533 134.467658 
L 316.828534 132.336795 
L 311.737227 130.382425 
L 306.580815 128.60693 
L 301.36558 127.012473 
L 296.097877 125.600996 
L 290.784123 124.374219 
L 285.430791 123.333637 
L 280.044405 122.480517 
L 274.631527 121.815899 
L 269.198751 121.340593 
L 263.752697 121.055177 
L 258.3 120.96 
L 252.847303 121.055177 
L 247.401249 121.340593 
L 241.968473 121.815899 
L 236.555595 122.480517 
L 231.169209 123.333637 
L 225.815877 124.374219 
L 220.502123 125.600996 
L 215.23442 127.012473 
L 210.019185 128.60693 
L 204.862773 130.382425 
L 199.771466 132.336795 
L 194.751467 134.467658 
L 189.808892 136.772418 
L 184.949763 139.248268 
L 180.18 141.892191 
L 175.505414 144.700965 
L 170.931701 147.67117 
L 166.464432 150.799185 
L 162.109051 154.0812 
L 157.870864 157.513216 
L 153.755034 161.091052 
L 149.766576 164.81035 
L 145.91035 168.666576 
L 142.191052 172.655034 
L 138.613216 176.770864 
L 135.1812 181.009051 
L 131.899185 185.364432 
L 128.77117 189.831701 
L 125.800965 194.405414 
L 122.992191 199.08 
L 120.348268 203.849763 
L 117.872418 208.708892 
L 115.567658 213.651467 
L 113.436795 218.671466 
L 111.482425 223.762773 
L 109.70693 228.919185 
L 108.112473 234.13442 
L 106.700996 239.402123 
L 105.474219 244.715877 
L 104.433637 250.069209 
L 103.580517 255.455595 
L 102.915899 260.868473 
L 102.440593 266.301249 
L 102.155177 271.747303 
L 102.06 277.2 
L 102.155177 282.652697 
L 102.440593 288.098751 
L 102.915899 293.531527 
L 103.580517 298.944405 
L 104.433637 304.330791 
L 105.474219 309.684123 
L 106.700996 314.997877 
L 108.112473 320.26558 
L 109.70693 325.480815 
L 111.482425 330.637227 
L 113.436795 335.728534 
L 115.567658 340.748533 
L 117.872418 345.691108 
L 120.348268 350.550237 
L 122.992191 355.32 
L 125.800965 359.994586 
L 128.77117 364.568299 
L 131.899185 369.035568 
L 135.1812 373.390949 
L 138.613216 377.629136 
L 142.191052 381.744966 
L 145.91035 385.733424 
L 149.766576 389.58965 
L 153.755034 393.308948 
L 157.870864 396.886784 
L 162.109051 400.3188 
L 166.464432 403.600815 
L 170.931701 406.72883 
L 175.505414 409.699035 
L 180.18 412.507809 
L 184.949763 415.151732 
L 189.808892 417.627582 
L 194.751467 419.932342 
L 199.771466 422.063205 
L 204.862773 424.017575 
L 210.019185 425.79307 
L 215.23442 427.387527 
L 220.502123 428.799004 
L 225.815877 430.025781 
L 231.169209 431.066363 
L 236.555595 431.919483 
L 241.968473 432.584101 
L 247.401249 433.059407 
L 252.847303 433.344823 
L 258.3 433.44 
L 263.752697 433.344823 
L 269.198751 433.059407 
L 274.631527 432.584101 
L 280.044405 431.919483 
L 285.430791 431.066363 
L 290.784123 430.025781 
L 296.097877 428.799004 
L 301.36558 427.387527 
L 306.580815 425.79307 
L 311.737227 424.017575 
L 316.828534 422.063205 
L 321.848533 419.932342 
L 326.791108 417.627582 
L 331.650237 415.151732 
L 336.42 412.507809 
L 341.094586 409.699035 
L 345.668299 406.72883 
L 350.135568 403.600815 
L 354.490949 400.3188 
L 358.729136 396.886784 
L 362.844966 393.308948 
L 366.833424 389.58965 
L 370.68965 385.733424 
L 374.408948 381.744966 
L 377.986784 377.629136 
L 381.4188 373.390949 
L 384.700815 369.035568 
L 387.82883 364.568299 
L 390.799035 359.994586 
L 393.607809 355.32 
L 396.251732 350.550237 
L 398.727582 345.691108 
L 401.032342 340.748533 
L 403.163205 335.728534 
L 405.117575 330.637227 
L 406.89307 325.480815 
L 408.487527 320.26558 
L 409.899004 314.997877 
L 411.125781 309.684123 
L 412.166363 304.330791 
L 413.019483 298.944405 
L 413.684101 293.531527 
L 414.159407 288.098751 
L 414.444823 282.652697 
L 414.54 277.2 
L 414.54 277.2 
" style="fill:none;stroke:#000000;stroke-dasharray:1.000000,3.000000;stroke-dashoffset:0.0;stroke-width:0.5;"/>
     </g>
     <g id="text_9">
      <!-- 0.8 -->
      <defs>
       <path d="M 31.78125 34.625 
Q 24.75 34.625 20.71875 30.859375 
Q 16.703125 27.09375 16.703125 20.515625 
Q 16.703125 13.921875 20.71875 10.15625 
Q 24.75 6.390625 31.78125 6.390625 
Q 38.8125 6.390625 42.859375 10.171875 
Q 46.921875 13.96875 46.921875 20.515625 
Q 46.921875 27.09375 42.890625 30.859375 
Q 38.875 34.625 31.78125 34.625 
M 21.921875 38.8125 
Q 15.578125 40.375 12.03125 44.71875 
Q 8.5 49.078125 8.5 55.328125 
Q 8.5 64.0625 14.71875 69.140625 
Q 20.953125 74.21875 31.78125 74.21875 
Q 42.671875 74.21875 48.875 69.140625 
Q 55.078125 64.0625 55.078125 55.328125 
Q 55.078125 49.078125 51.53125 44.71875 
Q 48 40.375 41.703125 38.8125 
Q 48.828125 37.15625 52.796875 32.3125 
Q 56.78125 27.484375 56.78125 20.515625 
Q 56.78125 9.90625 50.3125 4.234375 
Q 43.84375 -1.421875 31.78125 -1.421875 
Q 19.734375 -1.421875 13.25 4.234375 
Q 6.78125 9.90625 6.78125 20.515625 
Q 6.78125 27.484375 10.78125 32.3125 
Q 14.796875 37.15625 21.921875 38.8125 
M 18.3125 54.390625 
Q 18.3125 48.734375 21.84375 45.5625 
Q 25.390625 42.390625 31.78125 42.390625 
Q 38.140625 42.390625 41.71875 45.5625 
Q 45.3125 48.734375 45.3125 54.390625 
Q 45.3125 60.0625 41.71875 63.234375 
Q 38.140625 66.40625 31.78125 66.40625 
Q 25.390625 66.40625 21.84375 63.234375 
Q 18.3125 60.0625 18.3125 54.390625 
" id="BitstreamVeraSans-Roman-38"/>
      </defs>
      <g transform="translate(402.64693816 214.913915527)scale(0.12 -0.12)">
       <use xlink:href="#BitstreamVeraSans-Roman-30"/>
       <use x="63.623046875" xlink:href="#BitstreamVeraSans-Roman-2e"/>
       <use x="95.41015625" xlink:href="#BitstreamVeraSans-Roman-38"/>
      </g>
     </g>
    </g>
    <g id="ytick_5">
     <g id="line2d_14">
      <path clip-path="url(#p5b311d51d0)" d="M 453.6 277.2 
L 453.481029 270.384128 
L 453.124259 263.576561 
L 452.530126 256.785591 
L 451.699354 250.019493 
L 450.632954 243.286511 
L 449.332226 236.594847 
L 447.798755 229.952654 
L 446.034409 223.368024 
L 444.041338 216.848981 
L 441.821969 210.403466 
L 439.379007 204.039332 
L 436.715428 197.764334 
L 433.834477 191.586115 
L 430.739665 185.512204 
L 427.434761 179.55 
L 423.923793 173.706768 
L 420.211038 167.989626 
L 416.301019 162.40554 
L 412.1985 156.961314 
L 407.90848 151.66358 
L 403.436184 146.518793 
L 398.787063 141.53322 
L 393.96678 136.712937 
L 388.981207 132.063816 
L 383.83642 127.59152 
L 378.538686 123.3015 
L 373.09446 119.198981 
L 367.510374 115.288962 
L 361.793232 111.576207 
L 355.95 108.065239 
L 349.987796 104.760335 
L 343.913885 101.665523 
L 337.735666 98.784572 
L 331.460668 96.120993 
L 325.096534 93.678031 
L 318.651019 91.458662 
L 312.131976 89.465591 
L 305.547346 87.701245 
L 298.905153 86.167774 
L 292.213489 84.867046 
L 285.480507 83.800646 
L 278.714409 82.969874 
L 271.923439 82.375741 
L 265.115872 82.018971 
L 258.3 81.9 
L 251.484128 82.018971 
L 244.676561 82.375741 
L 237.885591 82.969874 
L 231.119493 83.800646 
L 224.386511 84.867046 
L 217.694847 86.167774 
L 211.052654 87.701245 
L 204.468024 89.465591 
L 197.948981 91.458662 
L 191.503466 93.678031 
L 185.139332 96.120993 
L 178.864334 98.784572 
L 172.686115 101.665523 
L 166.612204 104.760335 
L 160.65 108.065239 
L 154.806768 111.576207 
L 149.089626 115.288962 
L 143.50554 119.198981 
L 138.061314 123.3015 
L 132.76358 127.59152 
L 127.618793 132.063816 
L 122.63322 136.712937 
L 117.812937 141.53322 
L 113.163816 146.518793 
L 108.69152 151.66358 
L 104.4015 156.961314 
L 100.298981 162.40554 
L 96.388962 167.989626 
L 92.676207 173.706768 
L 89.165239 179.55 
L 85.860335 185.512204 
L 82.765523 191.586115 
L 79.884572 197.764334 
L 77.220993 204.039332 
L 74.778031 210.403466 
L 72.558662 216.848981 
L 70.565591 223.368024 
L 68.801245 229.952654 
L 67.267774 236.594847 
L 65.967046 243.286511 
L 64.900646 250.019493 
L 64.069874 256.785591 
L 63.475741 263.576561 
L 63.118971 270.384128 
L 63 277.2 
L 63.118971 284.015872 
L 63.475741 290.823439 
L 64.069874 297.614409 
L 64.900646 304.380507 
L 65.967046 311.113489 
L 67.267774 317.805153 
L 68.801245 324.447346 
L 70.565591 331.031976 
L 72.558662 337.551019 
L 74.778031 343.996534 
L 77.220993 350.360668 
L 79.884572 356.635666 
L 82.765523 362.813885 
L 85.860335 368.887796 
L 89.165239 374.85 
L 92.676207 380.693232 
L 96.388962 386.410374 
L 100.298981 391.99446 
L 104.4015 397.438686 
L 108.69152 402.73642 
L 113.163816 407.881207 
L 117.812937 412.86678 
L 122.63322 417.687063 
L 127.618793 422.336184 
L 132.76358 426.80848 
L 138.061314 431.0985 
L 143.50554 435.201019 
L 149.089626 439.111038 
L 154.806768 442.823793 
L 160.65 446.334761 
L 166.612204 449.639665 
L 172.686115 452.734477 
L 178.864334 455.615428 
L 185.139332 458.279007 
L 191.503466 460.721969 
L 197.948981 462.941338 
L 204.468024 464.934409 
L 211.052654 466.698755 
L 217.694847 468.232226 
L 224.386511 469.532954 
L 231.119493 470.599354 
L 237.885591 471.430126 
L 244.676561 472.024259 
L 251.484128 472.381029 
L 258.3 472.5 
L 265.115872 472.381029 
L 271.923439 472.024259 
L 278.714409 471.430126 
L 285.480507 470.599354 
L 292.213489 469.532954 
L 298.905153 468.232226 
L 305.547346 466.698755 
L 312.131976 464.934409 
L 318.651019 462.941338 
L 325.096534 460.721969 
L 331.460668 458.279007 
L 337.735666 455.615428 
L 343.913885 452.734477 
L 349.987796 449.639665 
L 355.95 446.334761 
L 361.793232 442.823793 
L 367.510374 439.111038 
L 373.09446 435.201019 
L 378.538686 431.0985 
L 383.83642 426.80848 
L 388.981207 422.336184 
L 393.96678 417.687063 
L 398.787063 412.86678 
L 403.436184 407.881207 
L 407.90848 402.73642 
L 412.1985 397.438686 
L 416.301019 391.99446 
L 420.211038 386.410374 
L 423.923793 380.693232 
L 427.434761 374.85 
L 430.739665 368.887796 
L 433.834477 362.813885 
L 436.715428 356.635666 
L 439.379007 350.360668 
L 441.821969 343.996534 
L 444.041338 337.551019 
L 446.034409 331.031976 
L 447.798755 324.447346 
L 449.332226 317.805153 
L 450.632954 311.113489 
L 451.699354 304.380507 
L 452.530126 297.614409 
L 453.124259 290.823439 
L 453.481029 284.015872 
L 453.6 277.2 
L 453.6 277.2 
" style="fill:none;stroke:#000000;stroke-dasharray:1.000000,3.000000;stroke-dashoffset:0.0;stroke-width:0.5;"/>
     </g>
     <g id="text_10">
      <!-- 1.0 -->
      <defs>
       <path d="M 12.40625 8.296875 
L 28.515625 8.296875 
L 28.515625 63.921875 
L 10.984375 60.40625 
L 10.984375 69.390625 
L 28.421875 72.90625 
L 38.28125 72.90625 
L 38.28125 8.296875 
L 54.390625 8.296875 
L 54.390625 0 
L 12.40625 0 
z
" id="BitstreamVeraSans-Roman-31"/>
      </defs>
      <g transform="translate(438.733672699 199.966300659)scale(0.12 -0.12)">
       <use xlink:href="#BitstreamVeraSans-Roman-31"/>
       <use x="63.623046875" xlink:href="#BitstreamVeraSans-Roman-2e"/>
       <use x="95.41015625" xlink:href="#BitstreamVeraSans-Roman-30"/>
      </g>
     </g>
    </g>
   </g>
   <g id="legend_1">
    <g id="patch_4">
     <path d="M 414.54 101.43 
L 491.156023 101.43 
L 491.156023 36.954578 
L 414.54 36.954578 
z
" style="fill:#ffffff;stroke:#000000;stroke-linejoin:miter;"/>
    </g>
    <g id="line2d_15">
     <path d="M 424.62 47.754578 
L 444.78 47.754578 
" style="fill:none;stroke:#e8b601;stroke-linecap:square;stroke-width:3.0;"/>
    </g>
    <g id="line2d_16"/>
    <g id="text_11">
     <!-- Mike -->
     <defs>
      <path d="M 9.8125 72.90625 
L 24.515625 72.90625 
L 43.109375 23.296875 
L 61.8125 72.90625 
L 76.515625 72.90625 
L 76.515625 0 
L 66.890625 0 
L 66.890625 64.015625 
L 48.09375 14.015625 
L 38.1875 14.015625 
L 19.390625 64.015625 
L 19.390625 0 
L 9.8125 0 
z
" id="BitstreamVeraSans-Roman-4d"/>
      <path d="M 9.078125 75.984375 
L 18.109375 75.984375 
L 18.109375 31.109375 
L 44.921875 54.6875 
L 56.390625 54.6875 
L 27.390625 29.109375 
L 57.625 0 
L 45.90625 0 
L 18.109375 26.703125 
L 18.109375 0 
L 9.078125 0 
z
" id="BitstreamVeraSans-Roman-6b"/>
     </defs>
     <g transform="translate(460.62 52.7945775)scale(0.09996 -0.09996)">
      <use xlink:href="#BitstreamVeraSans-Roman-4d"/>
      <use x="86.279296875" xlink:href="#BitstreamVeraSans-Roman-69"/>
      <use x="114.0625" xlink:href="#BitstreamVeraSans-Roman-6b"/>
      <use x="171.92578125" xlink:href="#BitstreamVeraSans-Roman-65"/>
     </g>
    </g>
    <g id="line2d_17">
     <path d="M 424.62 61.353433 
L 444.78 61.353433 
" style="fill:none;stroke:#7ac3b1;stroke-linecap:square;stroke-width:3.0;"/>
    </g>
    <g id="line2d_18"/>
    <g id="text_12">
     <!-- John -->
     <defs>
      <path d="M 9.8125 72.90625 
L 19.671875 72.90625 
L 19.671875 5.078125 
Q 19.671875 -8.109375 14.671875 -14.0625 
Q 9.671875 -20.015625 -1.421875 -20.015625 
L -5.171875 -20.015625 
L -5.171875 -11.71875 
L -2.09375 -11.71875 
Q 4.4375 -11.71875 7.125 -8.046875 
Q 9.8125 -4.390625 9.8125 5.078125 
z
" id="BitstreamVeraSans-Roman-4a"/>
     </defs>
     <g transform="translate(460.62 66.393433125)scale(0.09996 -0.09996)">
      <use xlink:href="#BitstreamVeraSans-Roman-4a"/>
      <use x="29.4921875" xlink:href="#BitstreamVeraSans-Roman-6f"/>
      <use x="90.673828125" xlink:href="#BitstreamVeraSans-Roman-68"/>
      <use x="154.052734375" xlink:href="#BitstreamVeraSans-Roman-6e"/>
     </g>
    </g>
    <g id="line2d_19">
     <path d="M 424.62 74.952289 
L 444.78 74.952289 
" style="fill:none;stroke:#6b7e23;stroke-linecap:square;stroke-width:3.0;"/>
    </g>
    <g id="line2d_20"/>
    <g id="text_13">
     <!-- Mary -->
     <defs>
      <path d="M 32.171875 -5.078125 
Q 28.375 -14.84375 24.75 -17.8125 
Q 21.140625 -20.796875 15.09375 -20.796875 
L 7.90625 -20.796875 
L 7.90625 -13.28125 
L 13.1875 -13.28125 
Q 16.890625 -13.28125 18.9375 -11.515625 
Q 21 -9.765625 23.484375 -3.21875 
L 25.09375 0.875 
L 2.984375 54.6875 
L 12.5 54.6875 
L 29.59375 11.921875 
L 46.6875 54.6875 
L 56.203125 54.6875 
z
" id="BitstreamVeraSans-Roman-79"/>
     </defs>
     <g transform="translate(460.62 79.99228875)scale(0.09996 -0.09996)">
      <use xlink:href="#BitstreamVeraSans-Roman-4d"/>
      <use x="86.279296875" xlink:href="#BitstreamVeraSans-Roman-61"/>
      <use x="147.55859375" xlink:href="#BitstreamVeraSans-Roman-72"/>
      <use x="188.671875" xlink:href="#BitstreamVeraSans-Roman-79"/>
     </g>
    </g>
    <g id="line2d_21">
     <path d="M 424.62 88.551144 
L 444.78 88.551144 
" style="fill:none;stroke:#e53135;stroke-linecap:square;stroke-width:3.0;"/>
    </g>
    <g id="line2d_22"/>
    <g id="text_14">
     <!-- Tom -->
     <defs>
      <path d="M -0.296875 72.90625 
L 61.375 72.90625 
L 61.375 64.59375 
L 35.5 64.59375 
L 35.5 0 
L 25.59375 0 
L 25.59375 64.59375 
L -0.296875 64.59375 
z
" id="BitstreamVeraSans-Roman-54"/>
     </defs>
     <g transform="translate(460.62 93.591144375)scale(0.09996 -0.09996)">
      <use xlink:href="#BitstreamVeraSans-Roman-54"/>
      <use x="60.818359375" xlink:href="#BitstreamVeraSans-Roman-6f"/>
      <use x="122.0" xlink:href="#BitstreamVeraSans-Roman-6d"/>
     </g>
    </g>
   </g>
  </g>
  <g id="text_15">
   <!-- Quality assessment -->
   <defs>
    <path d="M 1.21875 54.6875 
L 18.703125 54.6875 
L 33.40625 17.578125 
L 45.90625 54.6875 
L 63.375 54.6875 
L 40.375 -5.171875 
Q 36.921875 -14.3125 32.296875 -17.9375 
Q 27.6875 -21.578125 20.125 -21.578125 
L 10.015625 -21.578125 
L 10.015625 -10.109375 
L 15.484375 -10.109375 
Q 19.921875 -10.109375 21.9375 -8.6875 
Q 23.96875 -7.28125 25.09375 -3.609375 
L 25.59375 -2.09375 
z
" id="BitstreamVeraSans-Bold-79"/>
    <path d="M 8.40625 54.6875 
L 25.875 54.6875 
L 25.875 0 
L 8.40625 0 
z
M 8.40625 75.984375 
L 25.875 75.984375 
L 25.875 61.71875 
L 8.40625 61.71875 
z
" id="BitstreamVeraSans-Bold-69"/>
    <path id="BitstreamVeraSans-Bold-20"/>
    <path d="M 51.125 52.984375 
L 51.125 39.703125 
Q 45.515625 42.046875 40.28125 43.21875 
Q 35.0625 44.390625 30.421875 44.390625 
Q 25.4375 44.390625 23.015625 43.140625 
Q 20.609375 41.890625 20.609375 39.3125 
Q 20.609375 37.203125 22.4375 36.078125 
Q 24.265625 34.96875 29 34.421875 
L 32.078125 33.984375 
Q 45.515625 32.28125 50.140625 28.375 
Q 54.78125 24.46875 54.78125 16.109375 
Q 54.78125 7.375 48.328125 2.96875 
Q 41.890625 -1.421875 29.109375 -1.421875 
Q 23.6875 -1.421875 17.890625 -0.5625 
Q 12.109375 0.296875 6 2 
L 6 15.28125 
Q 11.234375 12.75 16.71875 11.46875 
Q 22.21875 10.203125 27.875 10.203125 
Q 33.015625 10.203125 35.59375 11.609375 
Q 38.1875 13.03125 38.1875 15.828125 
Q 38.1875 18.171875 36.40625 19.3125 
Q 34.625 20.453125 29.296875 21.09375 
L 26.21875 21.484375 
Q 14.546875 22.953125 9.859375 26.90625 
Q 5.171875 30.859375 5.171875 38.921875 
Q 5.171875 47.609375 11.125 51.796875 
Q 17.09375 56 29.390625 56 
Q 34.234375 56 39.546875 55.265625 
Q 44.875 54.546875 51.125 52.984375 
" id="BitstreamVeraSans-Bold-73"/>
    <path d="M 32.90625 24.609375 
Q 27.4375 24.609375 24.671875 22.75 
Q 21.921875 20.90625 21.921875 17.28125 
Q 21.921875 13.96875 24.140625 12.078125 
Q 26.375 10.203125 30.328125 10.203125 
Q 35.25 10.203125 38.625 13.734375 
Q 42 17.28125 42 22.609375 
L 42 24.609375 
z
M 59.625 31.203125 
L 59.625 0 
L 42 0 
L 42 8.109375 
Q 38.484375 3.125 34.078125 0.84375 
Q 29.6875 -1.421875 23.390625 -1.421875 
Q 14.890625 -1.421875 9.59375 3.53125 
Q 4.296875 8.5 4.296875 16.40625 
Q 4.296875 26.03125 10.90625 30.515625 
Q 17.53125 35.015625 31.6875 35.015625 
L 42 35.015625 
L 42 36.375 
Q 42 40.53125 38.71875 42.453125 
Q 35.453125 44.390625 28.515625 44.390625 
Q 22.90625 44.390625 18.0625 43.265625 
Q 13.234375 42.140625 9.078125 39.890625 
L 9.078125 53.21875 
Q 14.703125 54.59375 20.359375 55.296875 
Q 26.03125 56 31.6875 56 
Q 46.484375 56 53.046875 50.171875 
Q 59.625 44.34375 59.625 31.203125 
" id="BitstreamVeraSans-Bold-61"/>
    <path d="M 7.8125 21.296875 
L 7.8125 54.6875 
L 25.390625 54.6875 
L 25.390625 49.21875 
Q 25.390625 44.78125 25.34375 38.0625 
Q 25.296875 31.34375 25.296875 29.109375 
Q 25.296875 22.515625 25.640625 19.609375 
Q 25.984375 16.703125 26.8125 15.375 
Q 27.875 13.671875 29.609375 12.734375 
Q 31.34375 11.8125 33.59375 11.8125 
Q 39.0625 11.8125 42.1875 16.015625 
Q 45.3125 20.21875 45.3125 27.6875 
L 45.3125 54.6875 
L 62.796875 54.6875 
L 62.796875 0 
L 45.3125 0 
L 45.3125 7.90625 
Q 41.359375 3.125 36.9375 0.84375 
Q 32.515625 -1.421875 27.203125 -1.421875 
Q 17.71875 -1.421875 12.765625 4.390625 
Q 7.8125 10.203125 7.8125 21.296875 
" id="BitstreamVeraSans-Bold-75"/>
    <path d="M 27.484375 70.21875 
L 27.484375 54.6875 
L 45.515625 54.6875 
L 45.515625 42.1875 
L 27.484375 42.1875 
L 27.484375 19 
Q 27.484375 15.1875 29 13.84375 
Q 30.515625 12.5 35.015625 12.5 
L 44 12.5 
L 44 0 
L 29 0 
Q 18.65625 0 14.328125 4.3125 
Q 10.015625 8.640625 10.015625 19 
L 10.015625 42.1875 
L 1.3125 42.1875 
L 1.3125 54.6875 
L 10.015625 54.6875 
L 10.015625 70.21875 
z
" id="BitstreamVeraSans-Bold-74"/>
    <path d="M 44.484375 -1.3125 
L 43.015625 -1.3125 
Q 25 -1.3125 14.984375 8.640625 
Q 4.984375 18.609375 4.984375 36.375 
Q 4.984375 54.109375 14.96875 64.15625 
Q 24.953125 74.21875 42.484375 74.21875 
Q 60.203125 74.21875 70.09375 64.25 
Q 79.984375 54.296875 79.984375 36.375 
Q 79.984375 24.078125 74.734375 15.1875 
Q 69.484375 6.296875 59.625 1.8125 
L 74.3125 -14.59375 
L 56.390625 -14.59375 
z
M 42.484375 60.59375 
Q 33.890625 60.59375 29.15625 54.25 
Q 24.421875 47.90625 24.421875 36.375 
Q 24.421875 24.65625 29.046875 18.421875 
Q 33.6875 12.203125 42.484375 12.203125 
Q 51.125 12.203125 55.859375 18.546875 
Q 60.59375 24.90625 60.59375 36.375 
Q 60.59375 47.90625 55.859375 54.25 
Q 51.125 60.59375 42.484375 60.59375 
" id="BitstreamVeraSans-Bold-51"/>
    <path d="M 62.984375 27.484375 
L 62.984375 22.515625 
L 22.125 22.515625 
Q 22.75 16.359375 26.5625 13.28125 
Q 30.375 10.203125 37.203125 10.203125 
Q 42.71875 10.203125 48.5 11.84375 
Q 54.296875 13.484375 60.40625 16.796875 
L 60.40625 3.328125 
Q 54.203125 0.984375 48 -0.21875 
Q 41.796875 -1.421875 35.59375 -1.421875 
Q 20.75 -1.421875 12.515625 6.125 
Q 4.296875 13.671875 4.296875 27.296875 
Q 4.296875 40.671875 12.375 48.328125 
Q 20.453125 56 34.625 56 
Q 47.515625 56 55.25 48.234375 
Q 62.984375 40.484375 62.984375 27.484375 
M 45.015625 33.296875 
Q 45.015625 38.28125 42.109375 41.328125 
Q 39.203125 44.390625 34.515625 44.390625 
Q 29.4375 44.390625 26.265625 41.53125 
Q 23.09375 38.671875 22.3125 33.296875 
z
" id="BitstreamVeraSans-Bold-65"/>
    <path d="M 8.40625 75.984375 
L 25.875 75.984375 
L 25.875 0 
L 8.40625 0 
z
" id="BitstreamVeraSans-Bold-6c"/>
    <path d="M 59.078125 45.609375 
Q 62.40625 50.6875 66.96875 53.34375 
Q 71.53125 56 77 56 
Q 86.421875 56 91.359375 50.1875 
Q 96.296875 44.390625 96.296875 33.296875 
L 96.296875 0 
L 78.71875 0 
L 78.71875 28.515625 
Q 78.765625 29.15625 78.78125 29.828125 
Q 78.8125 30.515625 78.8125 31.78125 
Q 78.8125 37.59375 77.09375 40.203125 
Q 75.390625 42.828125 71.578125 42.828125 
Q 66.609375 42.828125 63.890625 38.71875 
Q 61.1875 34.625 61.078125 26.859375 
L 61.078125 0 
L 43.5 0 
L 43.5 28.515625 
Q 43.5 37.59375 41.9375 40.203125 
Q 40.375 42.828125 36.375 42.828125 
Q 31.34375 42.828125 28.609375 38.703125 
Q 25.875 34.578125 25.875 26.90625 
L 25.875 0 
L 8.296875 0 
L 8.296875 54.6875 
L 25.875 54.6875 
L 25.875 46.6875 
Q 29.109375 51.3125 33.28125 53.65625 
Q 37.453125 56 42.484375 56 
Q 48.140625 56 52.484375 53.265625 
Q 56.84375 50.53125 59.078125 45.609375 
" id="BitstreamVeraSans-Bold-6d"/>
    <path d="M 63.375 33.296875 
L 63.375 0 
L 45.796875 0 
L 45.796875 5.421875 
L 45.796875 25.484375 
Q 45.796875 32.5625 45.484375 35.25 
Q 45.171875 37.9375 44.390625 39.203125 
Q 43.359375 40.921875 41.59375 41.875 
Q 39.84375 42.828125 37.59375 42.828125 
Q 32.125 42.828125 29 38.59375 
Q 25.875 34.375 25.875 26.90625 
L 25.875 0 
L 8.40625 0 
L 8.40625 54.6875 
L 25.875 54.6875 
L 25.875 46.6875 
Q 29.828125 51.46875 34.265625 53.734375 
Q 38.71875 56 44.09375 56 
Q 53.5625 56 58.46875 50.1875 
Q 63.375 44.390625 63.375 33.296875 
" id="BitstreamVeraSans-Bold-6e"/>
   </defs>
   <g transform="translate(172.4805 17.64)scale(0.144 -0.144)">
    <use xlink:href="#BitstreamVeraSans-Bold-51"/>
    <use x="85.009765625" xlink:href="#BitstreamVeraSans-Bold-75"/>
    <use x="156.201171875" xlink:href="#BitstreamVeraSans-Bold-61"/>
    <use x="223.681640625" xlink:href="#BitstreamVeraSans-Bold-6c"/>
    <use x="257.958984375" xlink:href="#BitstreamVeraSans-Bold-69"/>
    <use x="292.236328125" xlink:href="#BitstreamVeraSans-Bold-74"/>
    <use x="340.0390625" xlink:href="#BitstreamVeraSans-Bold-79"/>
    <use x="405.224609375" xlink:href="#BitstreamVeraSans-Bold-20"/>
    <use x="440.0390625" xlink:href="#BitstreamVeraSans-Bold-61"/>
    <use x="507.51953125" xlink:href="#BitstreamVeraSans-Bold-73"/>
    <use x="567.041015625" xlink:href="#BitstreamVeraSans-Bold-73"/>
    <use x="626.5625" xlink:href="#BitstreamVeraSans-Bold-65"/>
    <use x="694.384765625" xlink:href="#BitstreamVeraSans-Bold-73"/>
    <use x="753.90625" xlink:href="#BitstreamVeraSans-Bold-73"/>
    <use x="813.427734375" xlink:href="#BitstreamVeraSans-Bold-6d"/>
    <use x="917.626953125" xlink:href="#BitstreamVeraSans-Bold-65"/>
    <use x="985.44921875" xlink:href="#BitstreamVeraSans-Bold-6e"/>
    <use x="1056.640625" xlink:href="#BitstreamVeraSans-Bold-74"/>
   </g>
  </g>
 </g>
 <defs>
  <clipPath id="p5b311d51d0">
   <path d="M 258.3 472.5 
C 310.094165 472.5 359.773949 451.92196 396.397954 415.297954 
C 433.02196 378.673949 453.6 328.994165 453.6 277.2 
C 453.6 225.405835 433.02196 175.726051 396.397954 139.102046 
C 359.773949 102.47804 310.094165 81.9 258.3 81.9 
C 206.505835 81.9 156.826051 102.47804 120.202046 139.102046 
C 83.57804 175.726051 63 225.405835 63 277.2 
C 63 328.994165 83.57804 378.673949 120.202046 415.297954 
C 156.826051 451.92196 206.505835 472.5 258.3 472.5 
z
"/>
  </clipPath>
 </defs>
</svg>
