<?xml version="1.0" encoding="utf-8" standalone="no"?>
<!DOCTYPE svg PUBLIC "-//W3C//DTD SVG 1.1//EN"
  "http://www.w3.org/Graphics/SVG/1.1/DTD/svg11.dtd">
<!-- Created with matplotlib (http://matplotlib.org/) -->
<svg height="720pt" version="1.1" viewBox="0 0 720 720" width="720pt" xmlns="http://www.w3.org/2000/svg" xmlns:xlink="http://www.w3.org/1999/xlink">
 <defs>
  <style type="text/css">
*{stroke-linecap:butt;stroke-linejoin:round;stroke-miterlimit:100000;}
  </style>
 </defs>
 <g id="figure_1">
  <g id="patch_1">
   <path d="M 0 720 
L 720 720 
L 720 0 
L 0 0 
z
" style="fill:#ffffff;"/>
  </g>
  <g id="axes_1">
   <g id="patch_2">
    <path d="M 214 376 
C 246.885184 376 278.427904 362.934578 301.681241 339.681241 
C 324.934578 316.427904 338 284.885184 338 252 
C 338 219.114816 324.934578 187.572096 301.681241 164.318759 
C 278.427904 141.065422 246.885184 128 214 128 
C 181.114816 128 149.572096 141.065422 126.318759 164.318759 
C 103.065422 187.572096 90 219.114816 90 252 
C 90 284.885184 103.065422 316.427904 126.318759 339.681241 
C 149.572096 362.934578 181.114816 376 214 376 
z
" style="fill:#ffffff;"/>
   </g>
   <g id="line2d_1">
    <path clip-path="url(#p22072ac2d1)" d="M 214 232.16 
L 160.931046 234.756852 
L 159.335972 327.23858 
L 259.18893 314.197227 
L 298.910326 224.410963 
L 214 232.16 
" style="fill:none;stroke:#e8b601;stroke-linecap:square;stroke-width:3.0;"/>
   </g>
   <g id="line2d_2">
    <path clip-path="url(#p22072ac2d1)" d="M 214 156.52 
L 186.875868 243.186835 
L 182.65929 295.136786 
L 263.562052 320.216313 
L 278.862054 230.925041 
L 214 156.52 
" style="fill:none;stroke:#7ac3b1;stroke-linecap:square;stroke-width:3.0;"/>
   </g>
   <g id="line2d_3">
    <path clip-path="url(#p22072ac2d1)" d="M 214 175.12 
L 153.855186 232.457765 
L 156.420557 331.251305 
L 260.646638 316.203589 
L 294.193085 225.943687 
L 214 175.12 
" style="fill:none;stroke:#6b7e23;stroke-linecap:square;stroke-width:3.0;"/>
   </g>
   <g id="line2d_4">
    <path clip-path="url(#p22072ac2d1)" d="M 214 161.48 
L 125.551744 223.26142 
L 192.863242 281.092251 
L 267.935175 326.235399 
L 236.406892 244.71956 
L 214 161.48 
" style="fill:none;stroke:#e53135;stroke-linecap:square;stroke-width:3.0;"/>
   </g>
   <g id="patch_3">
    <path d="M 214 376 
C 246.885184 376 278.427904 362.934578 301.681241 339.681241 
C 324.934578 316.427904 338 284.885184 338 252 
C 338 219.114816 324.934578 187.572096 301.681241 164.318759 
C 278.427904 141.065422 246.885184 128 214 128 
C 181.114816 128 149.572096 141.065422 126.318759 164.318759 
C 103.065422 187.572096 90 219.114816 90 252 
C 90 284.885184 103.065422 316.427904 126.318759 339.681241 
C 149.572096 362.934578 181.114816 376 214 376 
z
" style="fill:none;stroke:#000000;stroke-linecap:square;stroke-linejoin:miter;"/>
   </g>
   <g id="matplotlib.axis_1">
    <g id="xtick_1">
     <g id="line2d_5">
      <path clip-path="url(#p22072ac2d1)" d="M 214 252 
L 214 128 
" style="fill:none;stroke:#000000;stroke-dasharray:1.000000,3.000000;stroke-dashoffset:0.0;stroke-width:0.5;"/>
     </g>
     <g id="text_1">
      <!-- social -->
      <defs>
       <path d="M 30.609375 48.390625 
Q 23.390625 48.390625 19.1875 42.75 
Q 14.984375 37.109375 14.984375 27.296875 
Q 14.984375 17.484375 19.15625 11.84375 
Q 23.34375 6.203125 30.609375 6.203125 
Q 37.796875 6.203125 41.984375 11.859375 
Q 46.1875 17.53125 46.1875 27.296875 
Q 46.1875 37.015625 41.984375 42.703125 
Q 37.796875 48.390625 30.609375 48.390625 
M 30.609375 56 
Q 42.328125 56 49.015625 48.375 
Q 55.71875 40.765625 55.71875 27.296875 
Q 55.71875 13.875 49.015625 6.21875 
Q 42.328125 -1.421875 30.609375 -1.421875 
Q 18.84375 -1.421875 12.171875 6.21875 
Q 5.515625 13.875 5.515625 27.296875 
Q 5.515625 40.765625 12.171875 48.375 
Q 18.84375 56 30.609375 56 
" id="BitstreamVeraSans-Roman-6f"/>
       <path d="M 9.421875 75.984375 
L 18.40625 75.984375 
L 18.40625 0 
L 9.421875 0 
z
" id="BitstreamVeraSans-Roman-6c"/>
       <path d="M 9.421875 54.6875 
L 18.40625 54.6875 
L 18.40625 0 
L 9.421875 0 
z
M 9.421875 75.984375 
L 18.40625 75.984375 
L 18.40625 64.59375 
L 9.421875 64.59375 
z
" id="BitstreamVeraSans-Roman-69"/>
       <path d="M 34.28125 27.484375 
Q 23.390625 27.484375 19.1875 25 
Q 14.984375 22.515625 14.984375 16.5 
Q 14.984375 11.71875 18.140625 8.90625 
Q 21.296875 6.109375 26.703125 6.109375 
Q 34.1875 6.109375 38.703125 11.40625 
Q 43.21875 16.703125 43.21875 25.484375 
L 43.21875 27.484375 
z
M 52.203125 31.203125 
L 52.203125 0 
L 43.21875 0 
L 43.21875 8.296875 
Q 40.140625 3.328125 35.546875 0.953125 
Q 30.953125 -1.421875 24.3125 -1.421875 
Q 15.921875 -1.421875 10.953125 3.296875 
Q 6 8.015625 6 15.921875 
Q 6 25.140625 12.171875 29.828125 
Q 18.359375 34.515625 30.609375 34.515625 
L 43.21875 34.515625 
L 43.21875 35.40625 
Q 43.21875 41.609375 39.140625 45 
Q 35.0625 48.390625 27.6875 48.390625 
Q 23 48.390625 18.546875 47.265625 
Q 14.109375 46.140625 10.015625 43.890625 
L 10.015625 52.203125 
Q 14.9375 54.109375 19.578125 55.046875 
Q 24.21875 56 28.609375 56 
Q 40.484375 56 46.34375 49.84375 
Q 52.203125 43.703125 52.203125 31.203125 
" id="BitstreamVeraSans-Roman-61"/>
       <path d="M 44.28125 53.078125 
L 44.28125 44.578125 
Q 40.484375 46.53125 36.375 47.5 
Q 32.28125 48.484375 27.875 48.484375 
Q 21.1875 48.484375 17.84375 46.4375 
Q 14.5 44.390625 14.5 40.28125 
Q 14.5 37.15625 16.890625 35.375 
Q 19.28125 33.59375 26.515625 31.984375 
L 29.59375 31.296875 
Q 39.15625 29.25 43.1875 25.515625 
Q 47.21875 21.78125 47.21875 15.09375 
Q 47.21875 7.46875 41.1875 3.015625 
Q 35.15625 -1.421875 24.609375 -1.421875 
Q 20.21875 -1.421875 15.453125 -0.5625 
Q 10.6875 0.296875 5.421875 2 
L 5.421875 11.28125 
Q 10.40625 8.6875 15.234375 7.390625 
Q 20.0625 6.109375 24.8125 6.109375 
Q 31.15625 6.109375 34.5625 8.28125 
Q 37.984375 10.453125 37.984375 14.40625 
Q 37.984375 18.0625 35.515625 20.015625 
Q 33.0625 21.96875 24.703125 23.78125 
L 21.578125 24.515625 
Q 13.234375 26.265625 9.515625 29.90625 
Q 5.8125 33.546875 5.8125 39.890625 
Q 5.8125 47.609375 11.28125 51.796875 
Q 16.75 56 26.8125 56 
Q 31.78125 56 36.171875 55.265625 
Q 40.578125 54.546875 44.28125 53.078125 
" id="BitstreamVeraSans-Roman-73"/>
       <path d="M 48.78125 52.59375 
L 48.78125 44.1875 
Q 44.96875 46.296875 41.140625 47.34375 
Q 37.3125 48.390625 33.40625 48.390625 
Q 24.65625 48.390625 19.8125 42.84375 
Q 14.984375 37.3125 14.984375 27.296875 
Q 14.984375 17.28125 19.8125 11.734375 
Q 24.65625 6.203125 33.40625 6.203125 
Q 37.3125 6.203125 41.140625 7.25 
Q 44.96875 8.296875 48.78125 10.40625 
L 48.78125 2.09375 
Q 45.015625 0.34375 40.984375 -0.53125 
Q 36.96875 -1.421875 32.421875 -1.421875 
Q 20.0625 -1.421875 12.78125 6.34375 
Q 5.515625 14.109375 5.515625 27.296875 
Q 5.515625 40.671875 12.859375 48.328125 
Q 20.21875 56 33.015625 56 
Q 37.15625 56 41.109375 55.140625 
Q 45.0625 54.296875 48.78125 52.59375 
" id="BitstreamVeraSans-Roman-63"/>
      </defs>
      <g transform="translate(196.8934375 118.91125)scale(0.12 -0.12)">
       <use xlink:href="#BitstreamVeraSans-Roman-73"/>
       <use x="52.099609375" xlink:href="#BitstreamVeraSans-Roman-6f"/>
       <use x="113.28125" xlink:href="#BitstreamVeraSans-Roman-63"/>
       <use x="168.26171875" xlink:href="#BitstreamVeraSans-Roman-69"/>
       <use x="196.044921875" xlink:href="#BitstreamVeraSans-Roman-61"/>
       <use x="257.32421875" xlink:href="#BitstreamVeraSans-Roman-6c"/>
      </g>
     </g>
    </g>
    <g id="xtick_2">
     <g id="line2d_6">
      <path clip-path="url(#p22072ac2d1)" d="M 214 252 
L 96.068992 213.681893 
" style="fill:none;stroke:#000000;stroke-dasharray:1.000000,3.000000;stroke-dashoffset:0.0;stroke-width:0.5;"/>
     </g>
     <g id="text_2">
      <!-- enterprise -->
      <defs>
       <path d="M 56.203125 29.59375 
L 56.203125 25.203125 
L 14.890625 25.203125 
Q 15.484375 15.921875 20.484375 11.0625 
Q 25.484375 6.203125 34.421875 6.203125 
Q 39.59375 6.203125 44.453125 7.46875 
Q 49.3125 8.734375 54.109375 11.28125 
L 54.109375 2.78125 
Q 49.265625 0.734375 44.1875 -0.34375 
Q 39.109375 -1.421875 33.890625 -1.421875 
Q 20.796875 -1.421875 13.15625 6.1875 
Q 5.515625 13.8125 5.515625 26.8125 
Q 5.515625 40.234375 12.765625 48.109375 
Q 20.015625 56 32.328125 56 
Q 43.359375 56 49.78125 48.890625 
Q 56.203125 41.796875 56.203125 29.59375 
M 47.21875 32.234375 
Q 47.125 39.59375 43.09375 43.984375 
Q 39.0625 48.390625 32.421875 48.390625 
Q 24.90625 48.390625 20.390625 44.140625 
Q 15.875 39.890625 15.1875 32.171875 
z
" id="BitstreamVeraSans-Roman-65"/>
       <path d="M 54.890625 33.015625 
L 54.890625 0 
L 45.90625 0 
L 45.90625 32.71875 
Q 45.90625 40.484375 42.875 44.328125 
Q 39.84375 48.1875 33.796875 48.1875 
Q 26.515625 48.1875 22.3125 43.546875 
Q 18.109375 38.921875 18.109375 30.90625 
L 18.109375 0 
L 9.078125 0 
L 9.078125 54.6875 
L 18.109375 54.6875 
L 18.109375 46.1875 
Q 21.34375 51.125 25.703125 53.5625 
Q 30.078125 56 35.796875 56 
Q 45.21875 56 50.046875 50.171875 
Q 54.890625 44.34375 54.890625 33.015625 
" id="BitstreamVeraSans-Roman-6e"/>
       <path d="M 18.3125 70.21875 
L 18.3125 54.6875 
L 36.8125 54.6875 
L 36.8125 47.703125 
L 18.3125 47.703125 
L 18.3125 18.015625 
Q 18.3125 11.328125 20.140625 9.421875 
Q 21.96875 7.515625 27.59375 7.515625 
L 36.8125 7.515625 
L 36.8125 0 
L 27.59375 0 
Q 17.1875 0 13.234375 3.875 
Q 9.28125 7.765625 9.28125 18.015625 
L 9.28125 47.703125 
L 2.6875 47.703125 
L 2.6875 54.6875 
L 9.28125 54.6875 
L 9.28125 70.21875 
z
" id="BitstreamVeraSans-Roman-74"/>
       <path d="M 41.109375 46.296875 
Q 39.59375 47.171875 37.8125 47.578125 
Q 36.03125 48 33.890625 48 
Q 26.265625 48 22.1875 43.046875 
Q 18.109375 38.09375 18.109375 28.8125 
L 18.109375 0 
L 9.078125 0 
L 9.078125 54.6875 
L 18.109375 54.6875 
L 18.109375 46.1875 
Q 20.953125 51.171875 25.484375 53.578125 
Q 30.03125 56 36.53125 56 
Q 37.453125 56 38.578125 55.875 
Q 39.703125 55.765625 41.0625 55.515625 
z
" id="BitstreamVeraSans-Roman-72"/>
       <path d="M 18.109375 8.203125 
L 18.109375 -20.796875 
L 9.078125 -20.796875 
L 9.078125 54.6875 
L 18.109375 54.6875 
L 18.109375 46.390625 
Q 20.953125 51.265625 25.265625 53.625 
Q 29.59375 56 35.59375 56 
Q 45.5625 56 51.78125 48.09375 
Q 58.015625 40.1875 58.015625 27.296875 
Q 58.015625 14.40625 51.78125 6.484375 
Q 45.5625 -1.421875 35.59375 -1.421875 
Q 29.59375 -1.421875 25.265625 0.953125 
Q 20.953125 3.328125 18.109375 8.203125 
M 48.6875 27.296875 
Q 48.6875 37.203125 44.609375 42.84375 
Q 40.53125 48.484375 33.40625 48.484375 
Q 26.265625 48.484375 22.1875 42.84375 
Q 18.109375 37.203125 18.109375 27.296875 
Q 18.109375 17.390625 22.1875 11.75 
Q 26.265625 6.109375 33.40625 6.109375 
Q 40.53125 6.109375 44.609375 11.75 
Q 48.6875 17.390625 48.6875 27.296875 
" id="BitstreamVeraSans-Roman-70"/>
      </defs>
      <g transform="translate(53.5108911773 213.161331967)scale(0.12 -0.12)">
       <use xlink:href="#BitstreamVeraSans-Roman-65"/>
       <use x="61.5234375" xlink:href="#BitstreamVeraSans-Roman-6e"/>
       <use x="124.90234375" xlink:href="#BitstreamVeraSans-Roman-74"/>
       <use x="164.111328125" xlink:href="#BitstreamVeraSans-Roman-65"/>
       <use x="225.634765625" xlink:href="#BitstreamVeraSans-Roman-72"/>
       <use x="266.748046875" xlink:href="#BitstreamVeraSans-Roman-70"/>
       <use x="330.224609375" xlink:href="#BitstreamVeraSans-Roman-72"/>
       <use x="371.337890625" xlink:href="#BitstreamVeraSans-Roman-69"/>
       <use x="399.12109375" xlink:href="#BitstreamVeraSans-Roman-73"/>
       <use x="451.220703125" xlink:href="#BitstreamVeraSans-Roman-65"/>
      </g>
     </g>
    </g>
    <g id="xtick_3">
     <g id="line2d_7">
      <path clip-path="url(#p22072ac2d1)" d="M 214 252 
L 141.114629 352.318107 
" style="fill:none;stroke:#000000;stroke-dasharray:1.000000,3.000000;stroke-dashoffset:0.0;stroke-width:0.5;"/>
     </g>
     <g id="text_3">
      <!-- common -->
      <defs>
       <path d="M 52 44.1875 
Q 55.375 50.25 60.0625 53.125 
Q 64.75 56 71.09375 56 
Q 79.640625 56 84.28125 50.015625 
Q 88.921875 44.046875 88.921875 33.015625 
L 88.921875 0 
L 79.890625 0 
L 79.890625 32.71875 
Q 79.890625 40.578125 77.09375 44.375 
Q 74.3125 48.1875 68.609375 48.1875 
Q 61.625 48.1875 57.5625 43.546875 
Q 53.515625 38.921875 53.515625 30.90625 
L 53.515625 0 
L 44.484375 0 
L 44.484375 32.71875 
Q 44.484375 40.625 41.703125 44.40625 
Q 38.921875 48.1875 33.109375 48.1875 
Q 26.21875 48.1875 22.15625 43.53125 
Q 18.109375 38.875 18.109375 30.90625 
L 18.109375 0 
L 9.078125 0 
L 9.078125 54.6875 
L 18.109375 54.6875 
L 18.109375 46.1875 
Q 21.1875 51.21875 25.484375 53.609375 
Q 29.78125 56 35.6875 56 
Q 41.65625 56 45.828125 52.96875 
Q 50 49.953125 52 44.1875 
" id="BitstreamVeraSans-Roman-6d"/>
      </defs>
      <g transform="translate(107.693279087 365.661168033)scale(0.12 -0.12)">
       <use xlink:href="#BitstreamVeraSans-Roman-63"/>
       <use x="54.98046875" xlink:href="#BitstreamVeraSans-Roman-6f"/>
       <use x="116.162109375" xlink:href="#BitstreamVeraSans-Roman-6d"/>
       <use x="213.57421875" xlink:href="#BitstreamVeraSans-Roman-6d"/>
       <use x="310.986328125" xlink:href="#BitstreamVeraSans-Roman-6f"/>
       <use x="372.16796875" xlink:href="#BitstreamVeraSans-Roman-6e"/>
      </g>
     </g>
    </g>
    <g id="xtick_4">
     <g id="line2d_8">
      <path clip-path="url(#p22072ac2d1)" d="M 214 252 
L 286.885371 352.318107 
" style="fill:none;stroke:#000000;stroke-dasharray:1.000000,3.000000;stroke-dashoffset:0.0;stroke-width:0.5;"/>
     </g>
     <g id="text_4">
      <!-- investigation -->
      <defs>
       <path d="M 2.984375 54.6875 
L 12.5 54.6875 
L 29.59375 8.796875 
L 46.6875 54.6875 
L 56.203125 54.6875 
L 35.6875 0 
L 23.484375 0 
z
" id="BitstreamVeraSans-Roman-76"/>
       <path d="M 45.40625 27.984375 
Q 45.40625 37.75 41.375 43.109375 
Q 37.359375 48.484375 30.078125 48.484375 
Q 22.859375 48.484375 18.828125 43.109375 
Q 14.796875 37.75 14.796875 27.984375 
Q 14.796875 18.265625 18.828125 12.890625 
Q 22.859375 7.515625 30.078125 7.515625 
Q 37.359375 7.515625 41.375 12.890625 
Q 45.40625 18.265625 45.40625 27.984375 
M 54.390625 6.78125 
Q 54.390625 -7.171875 48.1875 -13.984375 
Q 42 -20.796875 29.203125 -20.796875 
Q 24.46875 -20.796875 20.265625 -20.09375 
Q 16.0625 -19.390625 12.109375 -17.921875 
L 12.109375 -9.1875 
Q 16.0625 -11.328125 19.921875 -12.34375 
Q 23.78125 -13.375 27.78125 -13.375 
Q 36.625 -13.375 41.015625 -8.765625 
Q 45.40625 -4.15625 45.40625 5.171875 
L 45.40625 9.625 
Q 42.625 4.78125 38.28125 2.390625 
Q 33.9375 0 27.875 0 
Q 17.828125 0 11.671875 7.65625 
Q 5.515625 15.328125 5.515625 27.984375 
Q 5.515625 40.671875 11.671875 48.328125 
Q 17.828125 56 27.875 56 
Q 33.9375 56 38.28125 53.609375 
Q 42.625 51.21875 45.40625 46.390625 
L 45.40625 54.6875 
L 54.390625 54.6875 
z
" id="BitstreamVeraSans-Roman-67"/>
      </defs>
      <g transform="translate(255.337970913 365.661168033)scale(0.12 -0.12)">
       <use xlink:href="#BitstreamVeraSans-Roman-69"/>
       <use x="27.783203125" xlink:href="#BitstreamVeraSans-Roman-6e"/>
       <use x="91.162109375" xlink:href="#BitstreamVeraSans-Roman-76"/>
       <use x="150.341796875" xlink:href="#BitstreamVeraSans-Roman-65"/>
       <use x="211.865234375" xlink:href="#BitstreamVeraSans-Roman-73"/>
       <use x="263.96484375" xlink:href="#BitstreamVeraSans-Roman-74"/>
       <use x="303.173828125" xlink:href="#BitstreamVeraSans-Roman-69"/>
       <use x="330.95703125" xlink:href="#BitstreamVeraSans-Roman-67"/>
       <use x="394.43359375" xlink:href="#BitstreamVeraSans-Roman-61"/>
       <use x="455.712890625" xlink:href="#BitstreamVeraSans-Roman-74"/>
       <use x="494.921875" xlink:href="#BitstreamVeraSans-Roman-69"/>
       <use x="522.705078125" xlink:href="#BitstreamVeraSans-Roman-6f"/>
       <use x="583.88671875" xlink:href="#BitstreamVeraSans-Roman-6e"/>
      </g>
     </g>
    </g>
    <g id="xtick_5">
     <g id="line2d_9">
      <path clip-path="url(#p22072ac2d1)" d="M 214 252 
L 331.931008 213.681893 
" style="fill:none;stroke:#000000;stroke-dasharray:1.000000,3.000000;stroke-dashoffset:0.0;stroke-width:0.5;"/>
     </g>
     <g id="text_5">
      <!-- other -->
      <defs>
       <path d="M 54.890625 33.015625 
L 54.890625 0 
L 45.90625 0 
L 45.90625 32.71875 
Q 45.90625 40.484375 42.875 44.328125 
Q 39.84375 48.1875 33.796875 48.1875 
Q 26.515625 48.1875 22.3125 43.546875 
Q 18.109375 38.921875 18.109375 30.90625 
L 18.109375 0 
L 9.078125 0 
L 9.078125 75.984375 
L 18.109375 75.984375 
L 18.109375 46.1875 
Q 21.34375 51.125 25.703125 53.5625 
Q 30.078125 56 35.796875 56 
Q 45.21875 56 50.046875 50.171875 
Q 54.890625 44.34375 54.890625 33.015625 
" id="BitstreamVeraSans-Roman-68"/>
      </defs>
      <g transform="translate(327.739733823 213.161331967)scale(0.12 -0.12)">
       <use xlink:href="#BitstreamVeraSans-Roman-6f"/>
       <use x="61.181640625" xlink:href="#BitstreamVeraSans-Roman-74"/>
       <use x="100.390625" xlink:href="#BitstreamVeraSans-Roman-68"/>
       <use x="163.76953125" xlink:href="#BitstreamVeraSans-Roman-65"/>
       <use x="225.29296875" xlink:href="#BitstreamVeraSans-Roman-72"/>
      </g>
     </g>
    </g>
   </g>
   <g id="matplotlib.axis_2">
    <g id="ytick_1">
     <g id="line2d_10">
      <path clip-path="url(#p22072ac2d1)" d="M 238.8 252 
L 238.664143 249.407694 
L 238.25806 246.84379 
L 237.586202 244.336379 
L 236.655927 241.912931 
L 235.47743 239.6 
L 234.063621 237.422926 
L 232.429992 235.405561 
L 230.594439 233.570008 
L 228.577074 231.936379 
L 226.4 230.52257 
L 224.087069 229.344073 
L 221.663621 228.413798 
L 219.15621 227.74194 
L 216.592306 227.335857 
L 214 227.2 
L 211.407694 227.335857 
L 208.84379 227.74194 
L 206.336379 228.413798 
L 203.912931 229.344073 
L 201.6 230.52257 
L 199.422926 231.936379 
L 197.405561 233.570008 
L 195.570008 235.405561 
L 193.936379 237.422926 
L 192.52257 239.6 
L 191.344073 241.912931 
L 190.413798 244.336379 
L 189.74194 246.84379 
L 189.335857 249.407694 
L 189.2 252 
L 189.335857 254.592306 
L 189.74194 257.15621 
L 190.413798 259.663621 
L 191.344073 262.087069 
L 192.52257 264.4 
L 193.936379 266.577074 
L 195.570008 268.594439 
L 197.405561 270.429992 
L 199.422926 272.063621 
L 201.6 273.47743 
L 203.912931 274.655927 
L 206.336379 275.586202 
L 208.84379 276.25806 
L 211.407694 276.664143 
L 214 276.8 
L 216.592306 276.664143 
L 219.15621 276.25806 
L 221.663621 275.586202 
L 224.087069 274.655927 
L 226.4 273.47743 
L 228.577074 272.063621 
L 230.594439 270.429992 
L 232.429992 268.594439 
L 234.063621 266.577074 
L 235.47743 264.4 
L 236.655927 262.087069 
L 237.586202 259.663621 
L 238.25806 257.15621 
L 238.664143 254.592306 
L 238.8 252 
L 238.8 252 
" style="fill:none;stroke:#000000;stroke-dasharray:1.000000,3.000000;stroke-dashoffset:0.0;stroke-width:0.5;"/>
     </g>
     <g id="text_6">
      <!-- 0.2 -->
      <defs>
       <path d="M 19.1875 8.296875 
L 53.609375 8.296875 
L 53.609375 0 
L 7.328125 0 
L 7.328125 8.296875 
Q 12.9375 14.109375 22.625 23.890625 
Q 32.328125 33.6875 34.8125 36.53125 
Q 39.546875 41.84375 41.421875 45.53125 
Q 43.3125 49.21875 43.3125 52.78125 
Q 43.3125 58.59375 39.234375 62.25 
Q 35.15625 65.921875 28.609375 65.921875 
Q 23.96875 65.921875 18.8125 64.3125 
Q 13.671875 62.703125 7.8125 59.421875 
L 7.8125 69.390625 
Q 13.765625 71.78125 18.9375 73 
Q 24.125 74.21875 28.421875 74.21875 
Q 39.75 74.21875 46.484375 68.546875 
Q 53.21875 62.890625 53.21875 53.421875 
Q 53.21875 48.921875 51.53125 44.890625 
Q 49.859375 40.875 45.40625 35.40625 
Q 44.1875 33.984375 37.640625 27.21875 
Q 31.109375 20.453125 19.1875 8.296875 
" id="BitstreamVeraSans-Roman-32"/>
       <path d="M 31.78125 66.40625 
Q 24.171875 66.40625 20.328125 58.90625 
Q 16.5 51.421875 16.5 36.375 
Q 16.5 21.390625 20.328125 13.890625 
Q 24.171875 6.390625 31.78125 6.390625 
Q 39.453125 6.390625 43.28125 13.890625 
Q 47.125 21.390625 47.125 36.375 
Q 47.125 51.421875 43.28125 58.90625 
Q 39.453125 66.40625 31.78125 66.40625 
M 31.78125 74.21875 
Q 44.046875 74.21875 50.515625 64.515625 
Q 56.984375 54.828125 56.984375 36.375 
Q 56.984375 17.96875 50.515625 8.265625 
Q 44.046875 -1.421875 31.78125 -1.421875 
Q 19.53125 -1.421875 13.0625 8.265625 
Q 6.59375 17.96875 6.59375 36.375 
Q 6.59375 54.828125 13.0625 64.515625 
Q 19.53125 74.21875 31.78125 74.21875 
" id="BitstreamVeraSans-Roman-30"/>
       <path d="M 10.6875 12.40625 
L 21 12.40625 
L 21 0 
L 10.6875 0 
z
" id="BitstreamVeraSans-Roman-2e"/>
      </defs>
      <g transform="translate(236.912212406 240.013825877)scale(0.12 -0.12)">
       <use xlink:href="#BitstreamVeraSans-Roman-30"/>
       <use x="63.623046875" xlink:href="#BitstreamVeraSans-Roman-2e"/>
       <use x="95.41015625" xlink:href="#BitstreamVeraSans-Roman-32"/>
      </g>
     </g>
    </g>
    <g id="ytick_2">
     <g id="line2d_11">
      <path clip-path="url(#p22072ac2d1)" d="M 263.6 252 
L 263.569785 250.268985 
L 263.479177 248.540079 
L 263.117296 245.097014 
L 262.516121 241.68758 
L 261.67858 238.328387 
L 260.608754 235.035801 
L 259.311855 231.825863 
L 257.794201 228.71421 
L 256.063186 225.716004 
L 254.127243 222.845851 
L 251.995804 220.117735 
L 249.679254 217.544945 
L 247.188878 215.140017 
L 244.536809 212.914667 
L 241.735968 210.879736 
L 238.8 209.04514 
L 235.743209 207.419815 
L 232.580487 206.011681 
L 229.327243 204.827597 
L 225.999326 203.873332 
L 222.61295 203.153535 
L 219.184612 202.671714 
L 215.731015 202.430215 
L 212.268985 202.430215 
L 208.815388 202.671714 
L 205.38705 203.153535 
L 202.000674 203.873332 
L 198.672757 204.827597 
L 195.419513 206.011681 
L 192.256791 207.419815 
L 189.2 209.04514 
L 186.264032 210.879736 
L 183.463191 212.914667 
L 180.811122 215.140017 
L 178.320746 217.544945 
L 176.004196 220.117735 
L 173.872757 222.845851 
L 171.936814 225.716004 
L 170.205799 228.71421 
L 168.688145 231.825863 
L 167.391246 235.035801 
L 166.32142 238.328387 
L 165.483879 241.68758 
L 164.882704 245.097014 
L 164.520823 248.540079 
L 164.4 252 
L 164.520823 255.459921 
L 164.882704 258.902986 
L 165.483879 262.31242 
L 166.32142 265.671613 
L 167.391246 268.964199 
L 168.688145 272.174137 
L 170.205799 275.28579 
L 171.936814 278.283996 
L 173.872757 281.154149 
L 176.004196 283.882265 
L 178.320746 286.455055 
L 180.811122 288.859983 
L 183.463191 291.085333 
L 186.264032 293.120264 
L 189.2 294.95486 
L 192.256791 296.580185 
L 195.419513 297.988319 
L 198.672757 299.172403 
L 202.000674 300.126668 
L 205.38705 300.846465 
L 208.815388 301.328286 
L 212.268985 301.569785 
L 215.731015 301.569785 
L 219.184612 301.328286 
L 222.61295 300.846465 
L 225.999326 300.126668 
L 229.327243 299.172403 
L 232.580487 297.988319 
L 235.743209 296.580185 
L 238.8 294.95486 
L 241.735968 293.120264 
L 244.536809 291.085333 
L 247.188878 288.859983 
L 249.679254 286.455055 
L 251.995804 283.882265 
L 254.127243 281.154149 
L 256.063186 278.283996 
L 257.794201 275.28579 
L 259.311855 272.174137 
L 260.608754 268.964199 
L 261.67858 265.671613 
L 262.516121 262.31242 
L 263.117296 258.902986 
L 263.479177 255.459921 
L 263.6 252 
L 263.6 252 
" style="fill:none;stroke:#000000;stroke-dasharray:1.000000,3.000000;stroke-dashoffset:0.0;stroke-width:0.5;"/>
     </g>
     <g id="text_7">
      <!-- 0.4 -->
      <defs>
       <path d="M 37.796875 64.3125 
L 12.890625 25.390625 
L 37.796875 25.390625 
z
M 35.203125 72.90625 
L 47.609375 72.90625 
L 47.609375 25.390625 
L 58.015625 25.390625 
L 58.015625 17.1875 
L 47.609375 17.1875 
L 47.609375 0 
L 37.796875 0 
L 37.796875 17.1875 
L 4.890625 17.1875 
L 4.890625 26.703125 
z
" id="BitstreamVeraSans-Roman-34"/>
      </defs>
      <g transform="translate(259.824424813 230.523276755)scale(0.12 -0.12)">
       <use xlink:href="#BitstreamVeraSans-Roman-30"/>
       <use x="63.623046875" xlink:href="#BitstreamVeraSans-Roman-2e"/>
       <use x="95.41015625" xlink:href="#BitstreamVeraSans-Roman-34"/>
      </g>
     </g>
    </g>
    <g id="ytick_3">
     <g id="line2d_12">
      <path clip-path="url(#p22072ac2d1)" d="M 288.4 252 
L 288.354678 249.403477 
L 288.218765 246.810118 
L 287.675944 241.645521 
L 286.774181 236.53137 
L 285.51787 231.492581 
L 283.913131 226.553701 
L 281.967782 221.738794 
L 279.691301 217.071316 
L 277.094778 212.574007 
L 274.190864 208.268777 
L 270.993707 204.176602 
L 267.518881 200.317417 
L 263.783317 196.710025 
L 259.805214 193.372 
L 255.603952 190.319605 
L 251.2 187.56771 
L 246.614813 185.129723 
L 241.870731 183.017521 
L 236.990864 181.241395 
L 231.998989 179.809998 
L 226.919424 178.730303 
L 221.776918 178.007571 
L 216.596523 177.645322 
L 211.403477 177.645322 
L 206.223082 178.007571 
L 201.080576 178.730303 
L 196.001011 179.809998 
L 191.009136 181.241395 
L 186.129269 183.017521 
L 181.385187 185.129723 
L 176.8 187.56771 
L 172.396048 190.319605 
L 168.194786 193.372 
L 164.216683 196.710025 
L 160.481119 200.317417 
L 157.006293 204.176602 
L 153.809136 208.268777 
L 150.905222 212.574007 
L 148.308699 217.071316 
L 146.032218 221.738794 
L 144.086869 226.553701 
L 142.48213 231.492581 
L 141.225819 236.53137 
L 140.324056 241.645521 
L 139.781235 246.810118 
L 139.6 252 
L 139.781235 257.189882 
L 140.324056 262.354479 
L 141.225819 267.46863 
L 142.48213 272.507419 
L 144.086869 277.446299 
L 146.032218 282.261206 
L 148.308699 286.928684 
L 150.905222 291.425993 
L 153.809136 295.731223 
L 157.006293 299.823398 
L 160.481119 303.682583 
L 164.216683 307.289975 
L 168.194786 310.628 
L 172.396048 313.680395 
L 176.8 316.43229 
L 181.385187 318.870277 
L 186.129269 320.982479 
L 191.009136 322.758605 
L 196.001011 324.190002 
L 201.080576 325.269697 
L 206.223082 325.992429 
L 211.403477 326.354678 
L 216.596523 326.354678 
L 221.776918 325.992429 
L 226.919424 325.269697 
L 231.998989 324.190002 
L 236.990864 322.758605 
L 241.870731 320.982479 
L 246.614813 318.870277 
L 251.2 316.43229 
L 255.603952 313.680395 
L 259.805214 310.628 
L 263.783317 307.289975 
L 267.518881 303.682583 
L 270.993707 299.823398 
L 274.190864 295.731223 
L 277.094778 291.425993 
L 279.691301 286.928684 
L 281.967782 282.261206 
L 283.913131 277.446299 
L 285.51787 272.507419 
L 286.774181 267.46863 
L 287.675944 262.354479 
L 288.218765 257.189882 
L 288.4 252 
L 288.4 252 
" style="fill:none;stroke:#000000;stroke-dasharray:1.000000,3.000000;stroke-dashoffset:0.0;stroke-width:0.5;"/>
     </g>
     <g id="text_8">
      <!-- 0.6 -->
      <defs>
       <path d="M 33.015625 40.375 
Q 26.375 40.375 22.484375 35.828125 
Q 18.609375 31.296875 18.609375 23.390625 
Q 18.609375 15.53125 22.484375 10.953125 
Q 26.375 6.390625 33.015625 6.390625 
Q 39.65625 6.390625 43.53125 10.953125 
Q 47.40625 15.53125 47.40625 23.390625 
Q 47.40625 31.296875 43.53125 35.828125 
Q 39.65625 40.375 33.015625 40.375 
M 52.59375 71.296875 
L 52.59375 62.3125 
Q 48.875 64.0625 45.09375 64.984375 
Q 41.3125 65.921875 37.59375 65.921875 
Q 27.828125 65.921875 22.671875 59.328125 
Q 17.53125 52.734375 16.796875 39.40625 
Q 19.671875 43.65625 24.015625 45.921875 
Q 28.375 48.1875 33.59375 48.1875 
Q 44.578125 48.1875 50.953125 41.515625 
Q 57.328125 34.859375 57.328125 23.390625 
Q 57.328125 12.15625 50.6875 5.359375 
Q 44.046875 -1.421875 33.015625 -1.421875 
Q 20.359375 -1.421875 13.671875 8.265625 
Q 6.984375 17.96875 6.984375 36.375 
Q 6.984375 53.65625 15.1875 63.9375 
Q 23.390625 74.21875 37.203125 74.21875 
Q 40.921875 74.21875 44.703125 73.484375 
Q 48.484375 72.75 52.59375 71.296875 
" id="BitstreamVeraSans-Roman-36"/>
      </defs>
      <g transform="translate(282.736637219 221.032727632)scale(0.12 -0.12)">
       <use xlink:href="#BitstreamVeraSans-Roman-30"/>
       <use x="63.623046875" xlink:href="#BitstreamVeraSans-Roman-2e"/>
       <use x="95.41015625" xlink:href="#BitstreamVeraSans-Roman-36"/>
      </g>
     </g>
    </g>
    <g id="ytick_4">
     <g id="line2d_13">
      <path clip-path="url(#p22072ac2d1)" d="M 313.2 252 
L 313.13957 248.53797 
L 312.958354 245.080158 
L 312.656572 241.630776 
L 312.234592 238.194028 
L 311.692929 234.774101 
L 311.032242 231.37516 
L 310.253336 228.001348 
L 309.35716 224.656774 
L 308.344806 221.345514 
L 307.217508 218.071602 
L 305.976638 214.839026 
L 304.623709 211.651725 
L 303.160369 208.513582 
L 301.588401 205.428421 
L 299.90972 202.4 
L 298.126371 199.432009 
L 296.240527 196.528064 
L 294.254486 193.691703 
L 292.170667 190.926382 
L 289.991609 188.235469 
L 287.719967 185.622244 
L 285.358508 183.08989 
L 282.91011 180.641492 
L 280.377756 178.280033 
L 277.764531 176.008391 
L 275.073618 173.829333 
L 272.308297 171.745514 
L 269.471936 169.759473 
L 266.567991 167.873629 
L 263.6 166.09028 
L 260.571579 164.411599 
L 257.486418 162.839631 
L 254.348275 161.376291 
L 251.160974 160.023362 
L 247.928398 158.782492 
L 244.654486 157.655194 
L 241.343226 156.64284 
L 237.998652 155.746664 
L 234.62484 154.967758 
L 231.225899 154.307071 
L 227.805972 153.765408 
L 224.369224 153.343428 
L 220.919842 153.041646 
L 217.46203 152.86043 
L 214 152.8 
L 210.53797 152.86043 
L 207.080158 153.041646 
L 203.630776 153.343428 
L 200.194028 153.765408 
L 196.774101 154.307071 
L 193.37516 154.967758 
L 190.001348 155.746664 
L 186.656774 156.64284 
L 183.345514 157.655194 
L 180.071602 158.782492 
L 176.839026 160.023362 
L 173.651725 161.376291 
L 170.513582 162.839631 
L 167.428421 164.411599 
L 164.4 166.09028 
L 161.432009 167.873629 
L 158.528064 169.759473 
L 155.691703 171.745514 
L 152.926382 173.829333 
L 150.235469 176.008391 
L 147.622244 178.280033 
L 145.08989 180.641492 
L 142.641492 183.08989 
L 140.280033 185.622244 
L 138.008391 188.235469 
L 135.829333 190.926382 
L 133.745514 193.691703 
L 131.759473 196.528064 
L 129.873629 199.432009 
L 128.09028 202.4 
L 126.411599 205.428421 
L 124.839631 208.513582 
L 123.376291 211.651725 
L 122.023362 214.839026 
L 120.782492 218.071602 
L 119.655194 221.345514 
L 118.64284 224.656774 
L 117.746664 228.001348 
L 116.967758 231.37516 
L 116.307071 234.774101 
L 115.765408 238.194028 
L 115.343428 241.630776 
L 115.041646 245.080158 
L 114.86043 248.53797 
L 114.8 252 
L 114.86043 255.46203 
L 115.041646 258.919842 
L 115.343428 262.369224 
L 115.765408 265.805972 
L 116.307071 269.225899 
L 116.967758 272.62484 
L 117.746664 275.998652 
L 118.64284 279.343226 
L 119.655194 282.654486 
L 120.782492 285.928398 
L 122.023362 289.160974 
L 123.376291 292.348275 
L 124.839631 295.486418 
L 126.411599 298.571579 
L 128.09028 301.6 
L 129.873629 304.567991 
L 131.759473 307.471936 
L 133.745514 310.308297 
L 135.829333 313.073618 
L 138.008391 315.764531 
L 140.280033 318.377756 
L 142.641492 320.91011 
L 145.08989 323.358508 
L 147.622244 325.719967 
L 150.235469 327.991609 
L 152.926382 330.170667 
L 155.691703 332.254486 
L 158.528064 334.240527 
L 161.432009 336.126371 
L 164.4 337.90972 
L 167.428421 339.588401 
L 170.513582 341.160369 
L 173.651725 342.623709 
L 176.839026 343.976638 
L 180.071602 345.217508 
L 183.345514 346.344806 
L 186.656774 347.35716 
L 190.001348 348.253336 
L 193.37516 349.032242 
L 196.774101 349.692929 
L 200.194028 350.234592 
L 203.630776 350.656572 
L 207.080158 350.958354 
L 210.53797 351.13957 
L 214 351.2 
L 217.46203 351.13957 
L 220.919842 350.958354 
L 224.369224 350.656572 
L 227.805972 350.234592 
L 231.225899 349.692929 
L 234.62484 349.032242 
L 237.998652 348.253336 
L 241.343226 347.35716 
L 244.654486 346.344806 
L 247.928398 345.217508 
L 251.160974 343.976638 
L 254.348275 342.623709 
L 257.486418 341.160369 
L 260.571579 339.588401 
L 263.6 337.90972 
L 266.567991 336.126371 
L 269.471936 334.240527 
L 272.308297 332.254486 
L 275.073618 330.170667 
L 277.764531 327.991609 
L 280.377756 325.719967 
L 282.91011 323.358508 
L 285.358508 320.91011 
L 287.719967 318.377756 
L 289.991609 315.764531 
L 292.170667 313.073618 
L 294.254486 310.308297 
L 296.240527 307.471936 
L 298.126371 304.567991 
L 299.90972 301.6 
L 301.588401 298.571579 
L 303.160369 295.486418 
L 304.623709 292.348275 
L 305.976638 289.160974 
L 307.217508 285.928398 
L 308.344806 282.654486 
L 309.35716 279.343226 
L 310.253336 275.998652 
L 311.032242 272.62484 
L 311.692929 269.225899 
L 312.234592 265.805972 
L 312.656572 262.369224 
L 312.958354 258.919842 
L 313.13957 255.46203 
L 313.2 252 
L 313.2 252 
" style="fill:none;stroke:#000000;stroke-dasharray:1.000000,3.000000;stroke-dashoffset:0.0;stroke-width:0.5;"/>
     </g>
     <g id="text_9">
      <!-- 0.8 -->
      <defs>
       <path d="M 31.78125 34.625 
Q 24.75 34.625 20.71875 30.859375 
Q 16.703125 27.09375 16.703125 20.515625 
Q 16.703125 13.921875 20.71875 10.15625 
Q 24.75 6.390625 31.78125 6.390625 
Q 38.8125 6.390625 42.859375 10.171875 
Q 46.921875 13.96875 46.921875 20.515625 
Q 46.921875 27.09375 42.890625 30.859375 
Q 38.875 34.625 31.78125 34.625 
M 21.921875 38.8125 
Q 15.578125 40.375 12.03125 44.71875 
Q 8.5 49.078125 8.5 55.328125 
Q 8.5 64.0625 14.71875 69.140625 
Q 20.953125 74.21875 31.78125 74.21875 
Q 42.671875 74.21875 48.875 69.140625 
Q 55.078125 64.0625 55.078125 55.328125 
Q 55.078125 49.078125 51.53125 44.71875 
Q 48 40.375 41.703125 38.8125 
Q 48.828125 37.15625 52.796875 32.3125 
Q 56.78125 27.484375 56.78125 20.515625 
Q 56.78125 9.90625 50.3125 4.234375 
Q 43.84375 -1.421875 31.78125 -1.421875 
Q 19.734375 -1.421875 13.25 4.234375 
Q 6.78125 9.90625 6.78125 20.515625 
Q 6.78125 27.484375 10.78125 32.3125 
Q 14.796875 37.15625 21.921875 38.8125 
M 18.3125 54.390625 
Q 18.3125 48.734375 21.84375 45.5625 
Q 25.390625 42.390625 31.78125 42.390625 
Q 38.140625 42.390625 41.71875 45.5625 
Q 45.3125 48.734375 45.3125 54.390625 
Q 45.3125 60.0625 41.71875 63.234375 
Q 38.140625 66.40625 31.78125 66.40625 
Q 25.390625 66.40625 21.84375 63.234375 
Q 18.3125 60.0625 18.3125 54.390625 
" id="BitstreamVeraSans-Roman-38"/>
      </defs>
      <g transform="translate(305.648849625 211.542178509)scale(0.12 -0.12)">
       <use xlink:href="#BitstreamVeraSans-Roman-30"/>
       <use x="63.623046875" xlink:href="#BitstreamVeraSans-Roman-2e"/>
       <use x="95.41015625" xlink:href="#BitstreamVeraSans-Roman-38"/>
      </g>
     </g>
    </g>
    <g id="ytick_5">
     <g id="line2d_14">
      <path clip-path="url(#p22072ac2d1)" d="M 338 252 
L 337.924463 247.672462 
L 337.697942 243.350197 
L 337.320715 239.038471 
L 336.793241 234.742535 
L 336.116161 230.467626 
L 335.290302 226.21895 
L 334.31667 222.001685 
L 333.19645 217.820968 
L 331.931008 213.681893 
L 330.521885 209.589502 
L 328.970798 205.548782 
L 327.279637 201.564656 
L 325.450462 197.641978 
L 323.485502 193.785526 
L 321.38715 190 
L 319.157964 186.290011 
L 316.800659 182.66008 
L 314.318107 179.114629 
L 311.713333 175.657977 
L 308.989511 172.294336 
L 306.149958 169.027805 
L 303.198135 165.862362 
L 300.137638 162.801865 
L 296.972195 159.850042 
L 293.705664 157.010489 
L 290.342023 154.286667 
L 286.885371 151.681893 
L 283.33992 149.199341 
L 279.709989 146.842036 
L 276 144.61285 
L 272.214474 142.514498 
L 268.358022 140.549538 
L 264.435344 138.720363 
L 260.451218 137.029202 
L 256.410498 135.478115 
L 252.318107 134.068992 
L 248.179032 132.80355 
L 243.998315 131.68333 
L 239.78105 130.709698 
L 235.532374 129.883839 
L 231.257465 129.206759 
L 226.961529 128.679285 
L 222.649803 128.302058 
L 218.327538 128.075537 
L 214 128 
L 209.672462 128.075537 
L 205.350197 128.302058 
L 201.038471 128.679285 
L 196.742535 129.206759 
L 192.467626 129.883839 
L 188.21895 130.709698 
L 184.001685 131.68333 
L 179.820968 132.80355 
L 175.681893 134.068992 
L 171.589502 135.478115 
L 167.548782 137.029202 
L 163.564656 138.720363 
L 159.641978 140.549538 
L 155.785526 142.514498 
L 152 144.61285 
L 148.290011 146.842036 
L 144.66008 149.199341 
L 141.114629 151.681893 
L 137.657977 154.286667 
L 134.294336 157.010489 
L 131.027805 159.850042 
L 127.862362 162.801865 
L 124.801865 165.862362 
L 121.850042 169.027805 
L 119.010489 172.294336 
L 116.286667 175.657977 
L 113.681893 179.114629 
L 111.199341 182.66008 
L 108.842036 186.290011 
L 106.61285 190 
L 104.514498 193.785526 
L 102.549538 197.641978 
L 100.720363 201.564656 
L 99.029202 205.548782 
L 97.478115 209.589502 
L 96.068992 213.681893 
L 94.80355 217.820968 
L 93.68333 222.001685 
L 92.709698 226.21895 
L 91.883839 230.467626 
L 91.206759 234.742535 
L 90.679285 239.038471 
L 90.302058 243.350197 
L 90.075537 247.672462 
L 90 252 
L 90.075537 256.327538 
L 90.302058 260.649803 
L 90.679285 264.961529 
L 91.206759 269.257465 
L 91.883839 273.532374 
L 92.709698 277.78105 
L 93.68333 281.998315 
L 94.80355 286.179032 
L 96.068992 290.318107 
L 97.478115 294.410498 
L 99.029202 298.451218 
L 100.720363 302.435344 
L 102.549538 306.358022 
L 104.514498 310.214474 
L 106.61285 314 
L 108.842036 317.709989 
L 111.199341 321.33992 
L 113.681893 324.885371 
L 116.286667 328.342023 
L 119.010489 331.705664 
L 121.850042 334.972195 
L 124.801865 338.137638 
L 127.862362 341.198135 
L 131.027805 344.149958 
L 134.294336 346.989511 
L 137.657977 349.713333 
L 141.114629 352.318107 
L 144.66008 354.800659 
L 148.290011 357.157964 
L 152 359.38715 
L 155.785526 361.485502 
L 159.641978 363.450462 
L 163.564656 365.279637 
L 167.548782 366.970798 
L 171.589502 368.521885 
L 175.681893 369.931008 
L 179.820968 371.19645 
L 184.001685 372.31667 
L 188.21895 373.290302 
L 192.467626 374.116161 
L 196.742535 374.793241 
L 201.038471 375.320715 
L 205.350197 375.697942 
L 209.672462 375.924463 
L 214 376 
L 218.327538 375.924463 
L 222.649803 375.697942 
L 226.961529 375.320715 
L 231.257465 374.793241 
L 235.532374 374.116161 
L 239.78105 373.290302 
L 243.998315 372.31667 
L 248.179032 371.19645 
L 252.318107 369.931008 
L 256.410498 368.521885 
L 260.451218 366.970798 
L 264.435344 365.279637 
L 268.358022 363.450462 
L 272.214474 361.485502 
L 276 359.38715 
L 279.709989 357.157964 
L 283.33992 354.800659 
L 286.885371 352.318107 
L 290.342023 349.713333 
L 293.705664 346.989511 
L 296.972195 344.149958 
L 300.137638 341.198135 
L 303.198135 338.137638 
L 306.149958 334.972195 
L 308.989511 331.705664 
L 311.713333 328.342023 
L 314.318107 324.885371 
L 316.800659 321.33992 
L 319.157964 317.709989 
L 321.38715 314 
L 323.485502 310.214474 
L 325.450462 306.358022 
L 327.279637 302.435344 
L 328.970798 298.451218 
L 330.521885 294.410498 
L 331.931008 290.318107 
L 333.19645 286.179032 
L 334.31667 281.998315 
L 335.290302 277.78105 
L 336.116161 273.532374 
L 336.793241 269.257465 
L 337.320715 264.961529 
L 337.697942 260.649803 
L 337.924463 256.327538 
L 338 252 
L 338 252 
" style="fill:none;stroke:#000000;stroke-dasharray:1.000000,3.000000;stroke-dashoffset:0.0;stroke-width:0.5;"/>
     </g>
     <g id="text_10">
      <!-- 1.0 -->
      <defs>
       <path d="M 12.40625 8.296875 
L 28.515625 8.296875 
L 28.515625 63.921875 
L 10.984375 60.40625 
L 10.984375 69.390625 
L 28.421875 72.90625 
L 38.28125 72.90625 
L 38.28125 8.296875 
L 54.390625 8.296875 
L 54.390625 0 
L 12.40625 0 
z
" id="BitstreamVeraSans-Roman-31"/>
      </defs>
      <g transform="translate(328.561062031 202.051629387)scale(0.12 -0.12)">
       <use xlink:href="#BitstreamVeraSans-Roman-31"/>
       <use x="63.623046875" xlink:href="#BitstreamVeraSans-Roman-2e"/>
       <use x="95.41015625" xlink:href="#BitstreamVeraSans-Roman-30"/>
      </g>
     </g>
    </g>
   </g>
   <g id="text_11">
    <!-- 2015 -->
    <defs>
     <path d="M 10.59375 72.90625 
L 57.328125 72.90625 
L 57.328125 59.078125 
L 25.59375 59.078125 
L 25.59375 47.796875 
Q 27.734375 48.390625 29.90625 48.703125 
Q 32.078125 49.03125 34.421875 49.03125 
Q 47.75 49.03125 55.171875 42.359375 
Q 62.59375 35.6875 62.59375 23.78125 
Q 62.59375 11.96875 54.515625 5.265625 
Q 46.4375 -1.421875 32.078125 -1.421875 
Q 25.875 -1.421875 19.796875 -0.21875 
Q 13.71875 0.984375 7.71875 3.421875 
L 7.71875 18.21875 
Q 13.671875 14.796875 19.015625 13.078125 
Q 24.359375 11.375 29.109375 11.375 
Q 35.9375 11.375 39.859375 14.71875 
Q 43.796875 18.0625 43.796875 23.78125 
Q 43.796875 29.546875 39.859375 32.859375 
Q 35.9375 36.1875 29.109375 36.1875 
Q 25.046875 36.1875 20.453125 35.125 
Q 15.875 34.078125 10.59375 31.890625 
z
" id="BitstreamVeraSans-Bold-35"/>
     <path d="M 11.71875 12.984375 
L 28.328125 12.984375 
L 28.328125 60.109375 
L 11.28125 56.59375 
L 11.28125 69.390625 
L 28.21875 72.90625 
L 46.09375 72.90625 
L 46.09375 12.984375 
L 62.703125 12.984375 
L 62.703125 0 
L 11.71875 0 
z
" id="BitstreamVeraSans-Bold-31"/>
     <path d="M 46 36.53125 
Q 46 50.203125 43.4375 55.78125 
Q 40.875 61.375 34.8125 61.375 
Q 28.765625 61.375 26.171875 55.78125 
Q 23.578125 50.203125 23.578125 36.53125 
Q 23.578125 22.703125 26.171875 17.03125 
Q 28.765625 11.375 34.8125 11.375 
Q 40.828125 11.375 43.40625 17.03125 
Q 46 22.703125 46 36.53125 
M 64.796875 36.375 
Q 64.796875 18.265625 56.984375 8.421875 
Q 49.171875 -1.421875 34.8125 -1.421875 
Q 20.40625 -1.421875 12.59375 8.421875 
Q 4.78125 18.265625 4.78125 36.375 
Q 4.78125 54.546875 12.59375 64.375 
Q 20.40625 74.21875 34.8125 74.21875 
Q 49.171875 74.21875 56.984375 64.375 
Q 64.796875 54.546875 64.796875 36.375 
" id="BitstreamVeraSans-Bold-30"/>
     <path d="M 28.8125 13.8125 
L 60.890625 13.8125 
L 60.890625 0 
L 7.90625 0 
L 7.90625 13.8125 
L 34.515625 37.3125 
Q 38.09375 40.53125 39.796875 43.609375 
Q 41.5 46.6875 41.5 50 
Q 41.5 55.125 38.0625 58.25 
Q 34.625 61.375 28.90625 61.375 
Q 24.515625 61.375 19.28125 59.5 
Q 14.0625 57.625 8.109375 53.90625 
L 8.109375 69.921875 
Q 14.453125 72.015625 20.65625 73.109375 
Q 26.859375 74.21875 32.8125 74.21875 
Q 45.90625 74.21875 53.15625 68.453125 
Q 60.40625 62.703125 60.40625 52.390625 
Q 60.40625 46.4375 57.328125 41.28125 
Q 54.25 36.140625 44.390625 27.484375 
z
" id="BitstreamVeraSans-Bold-32"/>
    </defs>
    <g transform="translate(197.30125 101.51125)scale(0.12 -0.12)">
     <use xlink:href="#BitstreamVeraSans-Bold-32"/>
     <use x="69.580078125" xlink:href="#BitstreamVeraSans-Bold-30"/>
     <use x="139.16015625" xlink:href="#BitstreamVeraSans-Bold-31"/>
     <use x="208.740234375" xlink:href="#BitstreamVeraSans-Bold-35"/>
    </g>
   </g>
   <g id="legend_1">
    <g id="patch_4">
     <path d="M 313.2 140.4 
L 389.816023 140.4 
L 389.816023 75.924577 
L 313.2 75.924577 
z
" style="fill:#ffffff;stroke:#000000;stroke-linejoin:miter;"/>
    </g>
    <g id="line2d_15">
     <path d="M 323.28 86.724577 
L 343.44 86.724577 
" style="fill:none;stroke:#e8b601;stroke-linecap:square;stroke-width:3.0;"/>
    </g>
    <g id="line2d_16"/>
    <g id="text_12">
     <!-- Mike -->
     <defs>
      <path d="M 9.8125 72.90625 
L 24.515625 72.90625 
L 43.109375 23.296875 
L 61.8125 72.90625 
L 76.515625 72.90625 
L 76.515625 0 
L 66.890625 0 
L 66.890625 64.015625 
L 48.09375 14.015625 
L 38.1875 14.015625 
L 19.390625 64.015625 
L 19.390625 0 
L 9.8125 0 
z
" id="BitstreamVeraSans-Roman-4d"/>
      <path d="M 9.078125 75.984375 
L 18.109375 75.984375 
L 18.109375 31.109375 
L 44.921875 54.6875 
L 56.390625 54.6875 
L 27.390625 29.109375 
L 57.625 0 
L 45.90625 0 
L 18.109375 26.703125 
L 18.109375 0 
L 9.078125 0 
z
" id="BitstreamVeraSans-Roman-6b"/>
     </defs>
     <g transform="translate(359.28 91.7645775)scale(0.09996 -0.09996)">
      <use xlink:href="#BitstreamVeraSans-Roman-4d"/>
      <use x="86.279296875" xlink:href="#BitstreamVeraSans-Roman-69"/>
      <use x="114.0625" xlink:href="#BitstreamVeraSans-Roman-6b"/>
      <use x="171.92578125" xlink:href="#BitstreamVeraSans-Roman-65"/>
     </g>
    </g>
    <g id="line2d_17">
     <path d="M 323.28 100.323433 
L 343.44 100.323433 
" style="fill:none;stroke:#7ac3b1;stroke-linecap:square;stroke-width:3.0;"/>
    </g>
    <g id="line2d_18"/>
    <g id="text_13">
     <!-- John -->
     <defs>
      <path d="M 9.8125 72.90625 
L 19.671875 72.90625 
L 19.671875 5.078125 
Q 19.671875 -8.109375 14.671875 -14.0625 
Q 9.671875 -20.015625 -1.421875 -20.015625 
L -5.171875 -20.015625 
L -5.171875 -11.71875 
L -2.09375 -11.71875 
Q 4.4375 -11.71875 7.125 -8.046875 
Q 9.8125 -4.390625 9.8125 5.078125 
z
" id="BitstreamVeraSans-Roman-4a"/>
     </defs>
     <g transform="translate(359.28 105.363433125)scale(0.09996 -0.09996)">
      <use xlink:href="#BitstreamVeraSans-Roman-4a"/>
      <use x="29.4921875" xlink:href="#BitstreamVeraSans-Roman-6f"/>
      <use x="90.673828125" xlink:href="#BitstreamVeraSans-Roman-68"/>
      <use x="154.052734375" xlink:href="#BitstreamVeraSans-Roman-6e"/>
     </g>
    </g>
    <g id="line2d_19">
     <path d="M 323.28 113.922289 
L 343.44 113.922289 
" style="fill:none;stroke:#6b7e23;stroke-linecap:square;stroke-width:3.0;"/>
    </g>
    <g id="line2d_20"/>
    <g id="text_14">
     <!-- Mary -->
     <defs>
      <path d="M 32.171875 -5.078125 
Q 28.375 -14.84375 24.75 -17.8125 
Q 21.140625 -20.796875 15.09375 -20.796875 
L 7.90625 -20.796875 
L 7.90625 -13.28125 
L 13.1875 -13.28125 
Q 16.890625 -13.28125 18.9375 -11.515625 
Q 21 -9.765625 23.484375 -3.21875 
L 25.09375 0.875 
L 2.984375 54.6875 
L 12.5 54.6875 
L 29.59375 11.921875 
L 46.6875 54.6875 
L 56.203125 54.6875 
z
" id="BitstreamVeraSans-Roman-79"/>
     </defs>
     <g transform="translate(359.28 118.96228875)scale(0.09996 -0.09996)">
      <use xlink:href="#BitstreamVeraSans-Roman-4d"/>
      <use x="86.279296875" xlink:href="#BitstreamVeraSans-Roman-61"/>
      <use x="147.55859375" xlink:href="#BitstreamVeraSans-Roman-72"/>
      <use x="188.671875" xlink:href="#BitstreamVeraSans-Roman-79"/>
     </g>
    </g>
    <g id="line2d_21">
     <path d="M 323.28 127.521144 
L 343.44 127.521144 
" style="fill:none;stroke:#e53135;stroke-linecap:square;stroke-width:3.0;"/>
    </g>
    <g id="line2d_22"/>
    <g id="text_15">
     <!-- Tom -->
     <defs>
      <path d="M -0.296875 72.90625 
L 61.375 72.90625 
L 61.375 64.59375 
L 35.5 64.59375 
L 35.5 0 
L 25.59375 0 
L 25.59375 64.59375 
L -0.296875 64.59375 
z
" id="BitstreamVeraSans-Roman-54"/>
     </defs>
     <g transform="translate(359.28 132.561144375)scale(0.09996 -0.09996)">
      <use xlink:href="#BitstreamVeraSans-Roman-54"/>
      <use x="60.818359375" xlink:href="#BitstreamVeraSans-Roman-6f"/>
      <use x="122.0" xlink:href="#BitstreamVeraSans-Roman-6d"/>
     </g>
    </g>
   </g>
  </g>
  <g id="axes_2">
   <g id="patch_5">
    <path d="M 524 376 
C 556.885184 376 588.427904 362.934578 611.681241 339.681241 
C 634.934578 316.427904 648 284.885184 648 252 
C 648 219.114816 634.934578 187.572096 611.681241 164.318759 
C 588.427904 141.065422 556.885184 128 524 128 
C 491.114816 128 459.572096 141.065422 436.318759 164.318759 
C 413.065422 187.572096 400 219.114816 400 252 
C 400 284.885184 413.065422 316.427904 436.318759 339.681241 
C 459.572096 362.934578 491.114816 376 524 376 
z
" style="fill:#ffffff;"/>
   </g>
   <g id="line2d_23">
    <path clip-path="url(#p512ea1c5ba)" d="M 524 192.48 
L 449.703465 227.859592 
L 472.98024 322.222675 
L 565.544662 309.181321 
L 611.268946 223.644601 
L 524 192.48 
" style="fill:none;stroke:#e8b601;stroke-linecap:square;stroke-width:3.0;"/>
   </g>
   <g id="line2d_24">
    <path clip-path="url(#p512ea1c5ba)" d="M 524 155.28 
L 442.627604 225.560506 
L 484.6419 306.171778 
L 571.375491 317.20677 
L 586.503434 231.691403 
L 524 155.28 
" style="fill:none;stroke:#7ac3b1;stroke-linecap:square;stroke-width:3.0;"/>
   </g>
   <g id="line2d_25">
    <path clip-path="url(#p512ea1c5ba)" d="M 524 223.48 
L 456.779325 230.158679 
L 466.420557 331.251305 
L 572.833199 319.213132 
L 558.199992 240.887749 
L 524 223.48 
" style="fill:none;stroke:#6b7e23;stroke-linecap:square;stroke-width:3.0;"/>
   </g>
   <g id="line2d_26">
    <path clip-path="url(#p512ea1c5ba)" d="M 524 162.72 
L 505.131039 245.869103 
L 486.099607 304.165416 
L 537.119367 270.057259 
L 592.399985 229.775498 
L 524 162.72 
" style="fill:none;stroke:#e53135;stroke-linecap:square;stroke-width:3.0;"/>
   </g>
   <g id="patch_6">
    <path d="M 524 376 
C 556.885184 376 588.427904 362.934578 611.681241 339.681241 
C 634.934578 316.427904 648 284.885184 648 252 
C 648 219.114816 634.934578 187.572096 611.681241 164.318759 
C 588.427904 141.065422 556.885184 128 524 128 
C 491.114816 128 459.572096 141.065422 436.318759 164.318759 
C 413.065422 187.572096 400 219.114816 400 252 
C 400 284.885184 413.065422 316.427904 436.318759 339.681241 
C 459.572096 362.934578 491.114816 376 524 376 
z
" style="fill:none;stroke:#000000;stroke-linecap:square;stroke-linejoin:miter;"/>
   </g>
   <g id="matplotlib.axis_3">
    <g id="xtick_6">
     <g id="line2d_27">
      <path clip-path="url(#p512ea1c5ba)" d="M 524 252 
L 524 128 
" style="fill:none;stroke:#000000;stroke-dasharray:1.000000,3.000000;stroke-dashoffset:0.0;stroke-width:0.5;"/>
     </g>
     <g id="text_16">
      <!-- social -->
      <g transform="translate(506.8934375 118.91125)scale(0.12 -0.12)">
       <use xlink:href="#BitstreamVeraSans-Roman-73"/>
       <use x="52.099609375" xlink:href="#BitstreamVeraSans-Roman-6f"/>
       <use x="113.28125" xlink:href="#BitstreamVeraSans-Roman-63"/>
       <use x="168.26171875" xlink:href="#BitstreamVeraSans-Roman-69"/>
       <use x="196.044921875" xlink:href="#BitstreamVeraSans-Roman-61"/>
       <use x="257.32421875" xlink:href="#BitstreamVeraSans-Roman-6c"/>
      </g>
     </g>
    </g>
    <g id="xtick_7">
     <g id="line2d_28">
      <path clip-path="url(#p512ea1c5ba)" d="M 524 252 
L 406.068992 213.681893 
" style="fill:none;stroke:#000000;stroke-dasharray:1.000000,3.000000;stroke-dashoffset:0.0;stroke-width:0.5;"/>
     </g>
     <g id="text_17">
      <!-- enterprise -->
      <g transform="translate(363.510891177 213.161331967)scale(0.12 -0.12)">
       <use xlink:href="#BitstreamVeraSans-Roman-65"/>
       <use x="61.5234375" xlink:href="#BitstreamVeraSans-Roman-6e"/>
       <use x="124.90234375" xlink:href="#BitstreamVeraSans-Roman-74"/>
       <use x="164.111328125" xlink:href="#BitstreamVeraSans-Roman-65"/>
       <use x="225.634765625" xlink:href="#BitstreamVeraSans-Roman-72"/>
       <use x="266.748046875" xlink:href="#BitstreamVeraSans-Roman-70"/>
       <use x="330.224609375" xlink:href="#BitstreamVeraSans-Roman-72"/>
       <use x="371.337890625" xlink:href="#BitstreamVeraSans-Roman-69"/>
       <use x="399.12109375" xlink:href="#BitstreamVeraSans-Roman-73"/>
       <use x="451.220703125" xlink:href="#BitstreamVeraSans-Roman-65"/>
      </g>
     </g>
    </g>
    <g id="xtick_8">
     <g id="line2d_29">
      <path clip-path="url(#p512ea1c5ba)" d="M 524 252 
L 451.114629 352.318107 
" style="fill:none;stroke:#000000;stroke-dasharray:1.000000,3.000000;stroke-dashoffset:0.0;stroke-width:0.5;"/>
     </g>
     <g id="text_18">
      <!-- common -->
      <g transform="translate(417.693279087 365.661168033)scale(0.12 -0.12)">
       <use xlink:href="#BitstreamVeraSans-Roman-63"/>
       <use x="54.98046875" xlink:href="#BitstreamVeraSans-Roman-6f"/>
       <use x="116.162109375" xlink:href="#BitstreamVeraSans-Roman-6d"/>
       <use x="213.57421875" xlink:href="#BitstreamVeraSans-Roman-6d"/>
       <use x="310.986328125" xlink:href="#BitstreamVeraSans-Roman-6f"/>
       <use x="372.16796875" xlink:href="#BitstreamVeraSans-Roman-6e"/>
      </g>
     </g>
    </g>
    <g id="xtick_9">
     <g id="line2d_30">
      <path clip-path="url(#p512ea1c5ba)" d="M 524 252 
L 596.885371 352.318107 
" style="fill:none;stroke:#000000;stroke-dasharray:1.000000,3.000000;stroke-dashoffset:0.0;stroke-width:0.5;"/>
     </g>
     <g id="text_19">
      <!-- investigation -->
      <g transform="translate(565.337970913 365.661168033)scale(0.12 -0.12)">
       <use xlink:href="#BitstreamVeraSans-Roman-69"/>
       <use x="27.783203125" xlink:href="#BitstreamVeraSans-Roman-6e"/>
       <use x="91.162109375" xlink:href="#BitstreamVeraSans-Roman-76"/>
       <use x="150.341796875" xlink:href="#BitstreamVeraSans-Roman-65"/>
       <use x="211.865234375" xlink:href="#BitstreamVeraSans-Roman-73"/>
       <use x="263.96484375" xlink:href="#BitstreamVeraSans-Roman-74"/>
       <use x="303.173828125" xlink:href="#BitstreamVeraSans-Roman-69"/>
       <use x="330.95703125" xlink:href="#BitstreamVeraSans-Roman-67"/>
       <use x="394.43359375" xlink:href="#BitstreamVeraSans-Roman-61"/>
       <use x="455.712890625" xlink:href="#BitstreamVeraSans-Roman-74"/>
       <use x="494.921875" xlink:href="#BitstreamVeraSans-Roman-69"/>
       <use x="522.705078125" xlink:href="#BitstreamVeraSans-Roman-6f"/>
       <use x="583.88671875" xlink:href="#BitstreamVeraSans-Roman-6e"/>
      </g>
     </g>
    </g>
    <g id="xtick_10">
     <g id="line2d_31">
      <path clip-path="url(#p512ea1c5ba)" d="M 524 252 
L 641.931008 213.681893 
" style="fill:none;stroke:#000000;stroke-dasharray:1.000000,3.000000;stroke-dashoffset:0.0;stroke-width:0.5;"/>
     </g>
     <g id="text_20">
      <!-- other -->
      <g transform="translate(637.739733823 213.161331967)scale(0.12 -0.12)">
       <use xlink:href="#BitstreamVeraSans-Roman-6f"/>
       <use x="61.181640625" xlink:href="#BitstreamVeraSans-Roman-74"/>
       <use x="100.390625" xlink:href="#BitstreamVeraSans-Roman-68"/>
       <use x="163.76953125" xlink:href="#BitstreamVeraSans-Roman-65"/>
       <use x="225.29296875" xlink:href="#BitstreamVeraSans-Roman-72"/>
      </g>
     </g>
    </g>
   </g>
   <g id="matplotlib.axis_4">
    <g id="ytick_6">
     <g id="line2d_32">
      <path clip-path="url(#p512ea1c5ba)" d="M 548.8 252 
L 548.664143 249.407694 
L 548.25806 246.84379 
L 547.586202 244.336379 
L 546.655927 241.912931 
L 545.47743 239.6 
L 544.063621 237.422926 
L 542.429992 235.405561 
L 540.594439 233.570008 
L 538.577074 231.936379 
L 536.4 230.52257 
L 534.087069 229.344073 
L 531.663621 228.413798 
L 529.15621 227.74194 
L 526.592306 227.335857 
L 524 227.2 
L 521.407694 227.335857 
L 518.84379 227.74194 
L 516.336379 228.413798 
L 513.912931 229.344073 
L 511.6 230.52257 
L 509.422926 231.936379 
L 507.405561 233.570008 
L 505.570008 235.405561 
L 503.936379 237.422926 
L 502.52257 239.6 
L 501.344073 241.912931 
L 500.413798 244.336379 
L 499.74194 246.84379 
L 499.335857 249.407694 
L 499.2 252 
L 499.335857 254.592306 
L 499.74194 257.15621 
L 500.413798 259.663621 
L 501.344073 262.087069 
L 502.52257 264.4 
L 503.936379 266.577074 
L 505.570008 268.594439 
L 507.405561 270.429992 
L 509.422926 272.063621 
L 511.6 273.47743 
L 513.912931 274.655927 
L 516.336379 275.586202 
L 518.84379 276.25806 
L 521.407694 276.664143 
L 524 276.8 
L 526.592306 276.664143 
L 529.15621 276.25806 
L 531.663621 275.586202 
L 534.087069 274.655927 
L 536.4 273.47743 
L 538.577074 272.063621 
L 540.594439 270.429992 
L 542.429992 268.594439 
L 544.063621 266.577074 
L 545.47743 264.4 
L 546.655927 262.087069 
L 547.586202 259.663621 
L 548.25806 257.15621 
L 548.664143 254.592306 
L 548.8 252 
L 548.8 252 
" style="fill:none;stroke:#000000;stroke-dasharray:1.000000,3.000000;stroke-dashoffset:0.0;stroke-width:0.5;"/>
     </g>
     <g id="text_21">
      <!-- 0.2 -->
      <g transform="translate(546.912212406 240.013825877)scale(0.12 -0.12)">
       <use xlink:href="#BitstreamVeraSans-Roman-30"/>
       <use x="63.623046875" xlink:href="#BitstreamVeraSans-Roman-2e"/>
       <use x="95.41015625" xlink:href="#BitstreamVeraSans-Roman-32"/>
      </g>
     </g>
    </g>
    <g id="ytick_7">
     <g id="line2d_33">
      <path clip-path="url(#p512ea1c5ba)" d="M 573.6 252 
L 573.569785 250.268985 
L 573.479177 248.540079 
L 573.117296 245.097014 
L 572.516121 241.68758 
L 571.67858 238.328387 
L 570.608754 235.035801 
L 569.311855 231.825863 
L 567.794201 228.71421 
L 566.063186 225.716004 
L 564.127243 222.845851 
L 561.995804 220.117735 
L 559.679254 217.544945 
L 557.188878 215.140017 
L 554.536809 212.914667 
L 551.735968 210.879736 
L 548.8 209.04514 
L 545.743209 207.419815 
L 542.580487 206.011681 
L 539.327243 204.827597 
L 535.999326 203.873332 
L 532.61295 203.153535 
L 529.184612 202.671714 
L 525.731015 202.430215 
L 522.268985 202.430215 
L 518.815388 202.671714 
L 515.38705 203.153535 
L 512.000674 203.873332 
L 508.672757 204.827597 
L 505.419513 206.011681 
L 502.256791 207.419815 
L 499.2 209.04514 
L 496.264032 210.879736 
L 493.463191 212.914667 
L 490.811122 215.140017 
L 488.320746 217.544945 
L 486.004196 220.117735 
L 483.872757 222.845851 
L 481.936814 225.716004 
L 480.205799 228.71421 
L 478.688145 231.825863 
L 477.391246 235.035801 
L 476.32142 238.328387 
L 475.483879 241.68758 
L 474.882704 245.097014 
L 474.520823 248.540079 
L 474.4 252 
L 474.520823 255.459921 
L 474.882704 258.902986 
L 475.483879 262.31242 
L 476.32142 265.671613 
L 477.391246 268.964199 
L 478.688145 272.174137 
L 480.205799 275.28579 
L 481.936814 278.283996 
L 483.872757 281.154149 
L 486.004196 283.882265 
L 488.320746 286.455055 
L 490.811122 288.859983 
L 493.463191 291.085333 
L 496.264032 293.120264 
L 499.2 294.95486 
L 502.256791 296.580185 
L 505.419513 297.988319 
L 508.672757 299.172403 
L 512.000674 300.126668 
L 515.38705 300.846465 
L 518.815388 301.328286 
L 522.268985 301.569785 
L 525.731015 301.569785 
L 529.184612 301.328286 
L 532.61295 300.846465 
L 535.999326 300.126668 
L 539.327243 299.172403 
L 542.580487 297.988319 
L 545.743209 296.580185 
L 548.8 294.95486 
L 551.735968 293.120264 
L 554.536809 291.085333 
L 557.188878 288.859983 
L 559.679254 286.455055 
L 561.995804 283.882265 
L 564.127243 281.154149 
L 566.063186 278.283996 
L 567.794201 275.28579 
L 569.311855 272.174137 
L 570.608754 268.964199 
L 571.67858 265.671613 
L 572.516121 262.31242 
L 573.117296 258.902986 
L 573.479177 255.459921 
L 573.6 252 
L 573.6 252 
" style="fill:none;stroke:#000000;stroke-dasharray:1.000000,3.000000;stroke-dashoffset:0.0;stroke-width:0.5;"/>
     </g>
     <g id="text_22">
      <!-- 0.4 -->
      <g transform="translate(569.824424813 230.523276755)scale(0.12 -0.12)">
       <use xlink:href="#BitstreamVeraSans-Roman-30"/>
       <use x="63.623046875" xlink:href="#BitstreamVeraSans-Roman-2e"/>
       <use x="95.41015625" xlink:href="#BitstreamVeraSans-Roman-34"/>
      </g>
     </g>
    </g>
    <g id="ytick_8">
     <g id="line2d_34">
      <path clip-path="url(#p512ea1c5ba)" d="M 598.4 252 
L 598.354678 249.403477 
L 598.218765 246.810118 
L 597.675944 241.645521 
L 596.774181 236.53137 
L 595.51787 231.492581 
L 593.913131 226.553701 
L 591.967782 221.738794 
L 589.691301 217.071316 
L 587.094778 212.574007 
L 584.190864 208.268777 
L 580.993707 204.176602 
L 577.518881 200.317417 
L 573.783317 196.710025 
L 569.805214 193.372 
L 565.603952 190.319605 
L 561.2 187.56771 
L 556.614813 185.129723 
L 551.870731 183.017521 
L 546.990864 181.241395 
L 541.998989 179.809998 
L 536.919424 178.730303 
L 531.776918 178.007571 
L 526.596523 177.645322 
L 521.403477 177.645322 
L 516.223082 178.007571 
L 511.080576 178.730303 
L 506.001011 179.809998 
L 501.009136 181.241395 
L 496.129269 183.017521 
L 491.385187 185.129723 
L 486.8 187.56771 
L 482.396048 190.319605 
L 478.194786 193.372 
L 474.216683 196.710025 
L 470.481119 200.317417 
L 467.006293 204.176602 
L 463.809136 208.268777 
L 460.905222 212.574007 
L 458.308699 217.071316 
L 456.032218 221.738794 
L 454.086869 226.553701 
L 452.48213 231.492581 
L 451.225819 236.53137 
L 450.324056 241.645521 
L 449.781235 246.810118 
L 449.6 252 
L 449.781235 257.189882 
L 450.324056 262.354479 
L 451.225819 267.46863 
L 452.48213 272.507419 
L 454.086869 277.446299 
L 456.032218 282.261206 
L 458.308699 286.928684 
L 460.905222 291.425993 
L 463.809136 295.731223 
L 467.006293 299.823398 
L 470.481119 303.682583 
L 474.216683 307.289975 
L 478.194786 310.628 
L 482.396048 313.680395 
L 486.8 316.43229 
L 491.385187 318.870277 
L 496.129269 320.982479 
L 501.009136 322.758605 
L 506.001011 324.190002 
L 511.080576 325.269697 
L 516.223082 325.992429 
L 521.403477 326.354678 
L 526.596523 326.354678 
L 531.776918 325.992429 
L 536.919424 325.269697 
L 541.998989 324.190002 
L 546.990864 322.758605 
L 551.870731 320.982479 
L 556.614813 318.870277 
L 561.2 316.43229 
L 565.603952 313.680395 
L 569.805214 310.628 
L 573.783317 307.289975 
L 577.518881 303.682583 
L 580.993707 299.823398 
L 584.190864 295.731223 
L 587.094778 291.425993 
L 589.691301 286.928684 
L 591.967782 282.261206 
L 593.913131 277.446299 
L 595.51787 272.507419 
L 596.774181 267.46863 
L 597.675944 262.354479 
L 598.218765 257.189882 
L 598.4 252 
L 598.4 252 
" style="fill:none;stroke:#000000;stroke-dasharray:1.000000,3.000000;stroke-dashoffset:0.0;stroke-width:0.5;"/>
     </g>
     <g id="text_23">
      <!-- 0.6 -->
      <g transform="translate(592.736637219 221.032727632)scale(0.12 -0.12)">
       <use xlink:href="#BitstreamVeraSans-Roman-30"/>
       <use x="63.623046875" xlink:href="#BitstreamVeraSans-Roman-2e"/>
       <use x="95.41015625" xlink:href="#BitstreamVeraSans-Roman-36"/>
      </g>
     </g>
    </g>
    <g id="ytick_9">
     <g id="line2d_35">
      <path clip-path="url(#p512ea1c5ba)" d="M 623.2 252 
L 623.13957 248.53797 
L 622.958354 245.080158 
L 622.656572 241.630776 
L 622.234592 238.194028 
L 621.692929 234.774101 
L 621.032242 231.37516 
L 620.253336 228.001348 
L 619.35716 224.656774 
L 618.344806 221.345514 
L 617.217508 218.071602 
L 615.976638 214.839026 
L 614.623709 211.651725 
L 613.160369 208.513582 
L 611.588401 205.428421 
L 609.90972 202.4 
L 608.126371 199.432009 
L 606.240527 196.528064 
L 604.254486 193.691703 
L 602.170667 190.926382 
L 599.991609 188.235469 
L 597.719967 185.622244 
L 595.358508 183.08989 
L 592.91011 180.641492 
L 590.377756 178.280033 
L 587.764531 176.008391 
L 585.073618 173.829333 
L 582.308297 171.745514 
L 579.471936 169.759473 
L 576.567991 167.873629 
L 573.6 166.09028 
L 570.571579 164.411599 
L 567.486418 162.839631 
L 564.348275 161.376291 
L 561.160974 160.023362 
L 557.928398 158.782492 
L 554.654486 157.655194 
L 551.343226 156.64284 
L 547.998652 155.746664 
L 544.62484 154.967758 
L 541.225899 154.307071 
L 537.805972 153.765408 
L 534.369224 153.343428 
L 530.919842 153.041646 
L 527.46203 152.86043 
L 524 152.8 
L 520.53797 152.86043 
L 517.080158 153.041646 
L 513.630776 153.343428 
L 510.194028 153.765408 
L 506.774101 154.307071 
L 503.37516 154.967758 
L 500.001348 155.746664 
L 496.656774 156.64284 
L 493.345514 157.655194 
L 490.071602 158.782492 
L 486.839026 160.023362 
L 483.651725 161.376291 
L 480.513582 162.839631 
L 477.428421 164.411599 
L 474.4 166.09028 
L 471.432009 167.873629 
L 468.528064 169.759473 
L 465.691703 171.745514 
L 462.926382 173.829333 
L 460.235469 176.008391 
L 457.622244 178.280033 
L 455.08989 180.641492 
L 452.641492 183.08989 
L 450.280033 185.622244 
L 448.008391 188.235469 
L 445.829333 190.926382 
L 443.745514 193.691703 
L 441.759473 196.528064 
L 439.873629 199.432009 
L 438.09028 202.4 
L 436.411599 205.428421 
L 434.839631 208.513582 
L 433.376291 211.651725 
L 432.023362 214.839026 
L 430.782492 218.071602 
L 429.655194 221.345514 
L 428.64284 224.656774 
L 427.746664 228.001348 
L 426.967758 231.37516 
L 426.307071 234.774101 
L 425.765408 238.194028 
L 425.343428 241.630776 
L 425.041646 245.080158 
L 424.86043 248.53797 
L 424.8 252 
L 424.86043 255.46203 
L 425.041646 258.919842 
L 425.343428 262.369224 
L 425.765408 265.805972 
L 426.307071 269.225899 
L 426.967758 272.62484 
L 427.746664 275.998652 
L 428.64284 279.343226 
L 429.655194 282.654486 
L 430.782492 285.928398 
L 432.023362 289.160974 
L 433.376291 292.348275 
L 434.839631 295.486418 
L 436.411599 298.571579 
L 438.09028 301.6 
L 439.873629 304.567991 
L 441.759473 307.471936 
L 443.745514 310.308297 
L 445.829333 313.073618 
L 448.008391 315.764531 
L 450.280033 318.377756 
L 452.641492 320.91011 
L 455.08989 323.358508 
L 457.622244 325.719967 
L 460.235469 327.991609 
L 462.926382 330.170667 
L 465.691703 332.254486 
L 468.528064 334.240527 
L 471.432009 336.126371 
L 474.4 337.90972 
L 477.428421 339.588401 
L 480.513582 341.160369 
L 483.651725 342.623709 
L 486.839026 343.976638 
L 490.071602 345.217508 
L 493.345514 346.344806 
L 496.656774 347.35716 
L 500.001348 348.253336 
L 503.37516 349.032242 
L 506.774101 349.692929 
L 510.194028 350.234592 
L 513.630776 350.656572 
L 517.080158 350.958354 
L 520.53797 351.13957 
L 524 351.2 
L 527.46203 351.13957 
L 530.919842 350.958354 
L 534.369224 350.656572 
L 537.805972 350.234592 
L 541.225899 349.692929 
L 544.62484 349.032242 
L 547.998652 348.253336 
L 551.343226 347.35716 
L 554.654486 346.344806 
L 557.928398 345.217508 
L 561.160974 343.976638 
L 564.348275 342.623709 
L 567.486418 341.160369 
L 570.571579 339.588401 
L 573.6 337.90972 
L 576.567991 336.126371 
L 579.471936 334.240527 
L 582.308297 332.254486 
L 585.073618 330.170667 
L 587.764531 327.991609 
L 590.377756 325.719967 
L 592.91011 323.358508 
L 595.358508 320.91011 
L 597.719967 318.377756 
L 599.991609 315.764531 
L 602.170667 313.073618 
L 604.254486 310.308297 
L 606.240527 307.471936 
L 608.126371 304.567991 
L 609.90972 301.6 
L 611.588401 298.571579 
L 613.160369 295.486418 
L 614.623709 292.348275 
L 615.976638 289.160974 
L 617.217508 285.928398 
L 618.344806 282.654486 
L 619.35716 279.343226 
L 620.253336 275.998652 
L 621.032242 272.62484 
L 621.692929 269.225899 
L 622.234592 265.805972 
L 622.656572 262.369224 
L 622.958354 258.919842 
L 623.13957 255.46203 
L 623.2 252 
L 623.2 252 
" style="fill:none;stroke:#000000;stroke-dasharray:1.000000,3.000000;stroke-dashoffset:0.0;stroke-width:0.5;"/>
     </g>
     <g id="text_24">
      <!-- 0.8 -->
      <g transform="translate(615.648849625 211.542178509)scale(0.12 -0.12)">
       <use xlink:href="#BitstreamVeraSans-Roman-30"/>
       <use x="63.623046875" xlink:href="#BitstreamVeraSans-Roman-2e"/>
       <use x="95.41015625" xlink:href="#BitstreamVeraSans-Roman-38"/>
      </g>
     </g>
    </g>
    <g id="ytick_10">
     <g id="line2d_36">
      <path clip-path="url(#p512ea1c5ba)" d="M 648 252 
L 647.924463 247.672462 
L 647.697942 243.350197 
L 647.320715 239.038471 
L 646.793241 234.742535 
L 646.116161 230.467626 
L 645.290302 226.21895 
L 644.31667 222.001685 
L 643.19645 217.820968 
L 641.931008 213.681893 
L 640.521885 209.589502 
L 638.970798 205.548782 
L 637.279637 201.564656 
L 635.450462 197.641978 
L 633.485502 193.785526 
L 631.38715 190 
L 629.157964 186.290011 
L 626.800659 182.66008 
L 624.318107 179.114629 
L 621.713333 175.657977 
L 618.989511 172.294336 
L 616.149958 169.027805 
L 613.198135 165.862362 
L 610.137638 162.801865 
L 606.972195 159.850042 
L 603.705664 157.010489 
L 600.342023 154.286667 
L 596.885371 151.681893 
L 593.33992 149.199341 
L 589.709989 146.842036 
L 586 144.61285 
L 582.214474 142.514498 
L 578.358022 140.549538 
L 574.435344 138.720363 
L 570.451218 137.029202 
L 566.410498 135.478115 
L 562.318107 134.068992 
L 558.179032 132.80355 
L 553.998315 131.68333 
L 549.78105 130.709698 
L 545.532374 129.883839 
L 541.257465 129.206759 
L 536.961529 128.679285 
L 532.649803 128.302058 
L 528.327538 128.075537 
L 524 128 
L 519.672462 128.075537 
L 515.350197 128.302058 
L 511.038471 128.679285 
L 506.742535 129.206759 
L 502.467626 129.883839 
L 498.21895 130.709698 
L 494.001685 131.68333 
L 489.820968 132.80355 
L 485.681893 134.068992 
L 481.589502 135.478115 
L 477.548782 137.029202 
L 473.564656 138.720363 
L 469.641978 140.549538 
L 465.785526 142.514498 
L 462 144.61285 
L 458.290011 146.842036 
L 454.66008 149.199341 
L 451.114629 151.681893 
L 447.657977 154.286667 
L 444.294336 157.010489 
L 441.027805 159.850042 
L 437.862362 162.801865 
L 434.801865 165.862362 
L 431.850042 169.027805 
L 429.010489 172.294336 
L 426.286667 175.657977 
L 423.681893 179.114629 
L 421.199341 182.66008 
L 418.842036 186.290011 
L 416.61285 190 
L 414.514498 193.785526 
L 412.549538 197.641978 
L 410.720363 201.564656 
L 409.029202 205.548782 
L 407.478115 209.589502 
L 406.068992 213.681893 
L 404.80355 217.820968 
L 403.68333 222.001685 
L 402.709698 226.21895 
L 401.883839 230.467626 
L 401.206759 234.742535 
L 400.679285 239.038471 
L 400.302058 243.350197 
L 400.075537 247.672462 
L 400 252 
L 400.075537 256.327538 
L 400.302058 260.649803 
L 400.679285 264.961529 
L 401.206759 269.257465 
L 401.883839 273.532374 
L 402.709698 277.78105 
L 403.68333 281.998315 
L 404.80355 286.179032 
L 406.068992 290.318107 
L 407.478115 294.410498 
L 409.029202 298.451218 
L 410.720363 302.435344 
L 412.549538 306.358022 
L 414.514498 310.214474 
L 416.61285 314 
L 418.842036 317.709989 
L 421.199341 321.33992 
L 423.681893 324.885371 
L 426.286667 328.342023 
L 429.010489 331.705664 
L 431.850042 334.972195 
L 434.801865 338.137638 
L 437.862362 341.198135 
L 441.027805 344.149958 
L 444.294336 346.989511 
L 447.657977 349.713333 
L 451.114629 352.318107 
L 454.66008 354.800659 
L 458.290011 357.157964 
L 462 359.38715 
L 465.785526 361.485502 
L 469.641978 363.450462 
L 473.564656 365.279637 
L 477.548782 366.970798 
L 481.589502 368.521885 
L 485.681893 369.931008 
L 489.820968 371.19645 
L 494.001685 372.31667 
L 498.21895 373.290302 
L 502.467626 374.116161 
L 506.742535 374.793241 
L 511.038471 375.320715 
L 515.350197 375.697942 
L 519.672462 375.924463 
L 524 376 
L 528.327538 375.924463 
L 532.649803 375.697942 
L 536.961529 375.320715 
L 541.257465 374.793241 
L 545.532374 374.116161 
L 549.78105 373.290302 
L 553.998315 372.31667 
L 558.179032 371.19645 
L 562.318107 369.931008 
L 566.410498 368.521885 
L 570.451218 366.970798 
L 574.435344 365.279637 
L 578.358022 363.450462 
L 582.214474 361.485502 
L 586 359.38715 
L 589.709989 357.157964 
L 593.33992 354.800659 
L 596.885371 352.318107 
L 600.342023 349.713333 
L 603.705664 346.989511 
L 606.972195 344.149958 
L 610.137638 341.198135 
L 613.198135 338.137638 
L 616.149958 334.972195 
L 618.989511 331.705664 
L 621.713333 328.342023 
L 624.318107 324.885371 
L 626.800659 321.33992 
L 629.157964 317.709989 
L 631.38715 314 
L 633.485502 310.214474 
L 635.450462 306.358022 
L 637.279637 302.435344 
L 638.970798 298.451218 
L 640.521885 294.410498 
L 641.931008 290.318107 
L 643.19645 286.179032 
L 644.31667 281.998315 
L 645.290302 277.78105 
L 646.116161 273.532374 
L 646.793241 269.257465 
L 647.320715 264.961529 
L 647.697942 260.649803 
L 647.924463 256.327538 
L 648 252 
L 648 252 
" style="fill:none;stroke:#000000;stroke-dasharray:1.000000,3.000000;stroke-dashoffset:0.0;stroke-width:0.5;"/>
     </g>
     <g id="text_25">
      <!-- 1.0 -->
      <g transform="translate(638.561062031 202.051629387)scale(0.12 -0.12)">
       <use xlink:href="#BitstreamVeraSans-Roman-31"/>
       <use x="63.623046875" xlink:href="#BitstreamVeraSans-Roman-2e"/>
       <use x="95.41015625" xlink:href="#BitstreamVeraSans-Roman-30"/>
      </g>
     </g>
    </g>
   </g>
   <g id="text_26">
    <!-- 2016 -->
    <defs>
     <path d="M 36.1875 35.984375 
Q 31.25 35.984375 28.78125 32.78125 
Q 26.3125 29.59375 26.3125 23.1875 
Q 26.3125 16.796875 28.78125 13.59375 
Q 31.25 10.40625 36.1875 10.40625 
Q 41.15625 10.40625 43.625 13.59375 
Q 46.09375 16.796875 46.09375 23.1875 
Q 46.09375 29.59375 43.625 32.78125 
Q 41.15625 35.984375 36.1875 35.984375 
M 59.421875 71 
L 59.421875 57.515625 
Q 54.78125 59.71875 50.671875 60.765625 
Q 46.578125 61.8125 42.671875 61.8125 
Q 34.28125 61.8125 29.59375 57.140625 
Q 24.90625 52.484375 24.125 43.3125 
Q 27.34375 45.703125 31.09375 46.890625 
Q 34.859375 48.09375 39.3125 48.09375 
Q 50.484375 48.09375 57.34375 41.546875 
Q 64.203125 35.015625 64.203125 24.421875 
Q 64.203125 12.703125 56.53125 5.640625 
Q 48.875 -1.421875 35.984375 -1.421875 
Q 21.78125 -1.421875 13.984375 8.171875 
Q 6.203125 17.78125 6.203125 35.40625 
Q 6.203125 53.46875 15.3125 63.796875 
Q 24.421875 74.125 40.28125 74.125 
Q 45.3125 74.125 50.046875 73.34375 
Q 54.78125 72.5625 59.421875 71 
" id="BitstreamVeraSans-Bold-36"/>
    </defs>
    <g transform="translate(507.30125 101.51125)scale(0.12 -0.12)">
     <use xlink:href="#BitstreamVeraSans-Bold-32"/>
     <use x="69.580078125" xlink:href="#BitstreamVeraSans-Bold-30"/>
     <use x="139.16015625" xlink:href="#BitstreamVeraSans-Bold-31"/>
     <use x="208.740234375" xlink:href="#BitstreamVeraSans-Bold-36"/>
    </g>
   </g>
  </g>
  <g id="text_27">
   <!-- Quality assessment in nearly two years -->
   <defs>
    <path d="M 1.21875 54.6875 
L 18.703125 54.6875 
L 33.40625 17.578125 
L 45.90625 54.6875 
L 63.375 54.6875 
L 40.375 -5.171875 
Q 36.921875 -14.3125 32.296875 -17.9375 
Q 27.6875 -21.578125 20.125 -21.578125 
L 10.015625 -21.578125 
L 10.015625 -10.109375 
L 15.484375 -10.109375 
Q 19.921875 -10.109375 21.9375 -8.6875 
Q 23.96875 -7.28125 25.09375 -3.609375 
L 25.59375 -2.09375 
z
" id="BitstreamVeraSans-Bold-79"/>
    <path d="M 8.40625 54.6875 
L 25.875 54.6875 
L 25.875 0 
L 8.40625 0 
z
M 8.40625 75.984375 
L 25.875 75.984375 
L 25.875 61.71875 
L 8.40625 61.71875 
z
" id="BitstreamVeraSans-Bold-69"/>
    <path id="BitstreamVeraSans-Bold-20"/>
    <path d="M 51.125 52.984375 
L 51.125 39.703125 
Q 45.515625 42.046875 40.28125 43.21875 
Q 35.0625 44.390625 30.421875 44.390625 
Q 25.4375 44.390625 23.015625 43.140625 
Q 20.609375 41.890625 20.609375 39.3125 
Q 20.609375 37.203125 22.4375 36.078125 
Q 24.265625 34.96875 29 34.421875 
L 32.078125 33.984375 
Q 45.515625 32.28125 50.140625 28.375 
Q 54.78125 24.46875 54.78125 16.109375 
Q 54.78125 7.375 48.328125 2.96875 
Q 41.890625 -1.421875 29.109375 -1.421875 
Q 23.6875 -1.421875 17.890625 -0.5625 
Q 12.109375 0.296875 6 2 
L 6 15.28125 
Q 11.234375 12.75 16.71875 11.46875 
Q 22.21875 10.203125 27.875 10.203125 
Q 33.015625 10.203125 35.59375 11.609375 
Q 38.1875 13.03125 38.1875 15.828125 
Q 38.1875 18.171875 36.40625 19.3125 
Q 34.625 20.453125 29.296875 21.09375 
L 26.21875 21.484375 
Q 14.546875 22.953125 9.859375 26.90625 
Q 5.171875 30.859375 5.171875 38.921875 
Q 5.171875 47.609375 11.125 51.796875 
Q 17.09375 56 29.390625 56 
Q 34.234375 56 39.546875 55.265625 
Q 44.875 54.546875 51.125 52.984375 
" id="BitstreamVeraSans-Bold-73"/>
    <path d="M 32.90625 24.609375 
Q 27.4375 24.609375 24.671875 22.75 
Q 21.921875 20.90625 21.921875 17.28125 
Q 21.921875 13.96875 24.140625 12.078125 
Q 26.375 10.203125 30.328125 10.203125 
Q 35.25 10.203125 38.625 13.734375 
Q 42 17.28125 42 22.609375 
L 42 24.609375 
z
M 59.625 31.203125 
L 59.625 0 
L 42 0 
L 42 8.109375 
Q 38.484375 3.125 34.078125 0.84375 
Q 29.6875 -1.421875 23.390625 -1.421875 
Q 14.890625 -1.421875 9.59375 3.53125 
Q 4.296875 8.5 4.296875 16.40625 
Q 4.296875 26.03125 10.90625 30.515625 
Q 17.53125 35.015625 31.6875 35.015625 
L 42 35.015625 
L 42 36.375 
Q 42 40.53125 38.71875 42.453125 
Q 35.453125 44.390625 28.515625 44.390625 
Q 22.90625 44.390625 18.0625 43.265625 
Q 13.234375 42.140625 9.078125 39.890625 
L 9.078125 53.21875 
Q 14.703125 54.59375 20.359375 55.296875 
Q 26.03125 56 31.6875 56 
Q 46.484375 56 53.046875 50.171875 
Q 59.625 44.34375 59.625 31.203125 
" id="BitstreamVeraSans-Bold-61"/>
    <path d="M 7.8125 21.296875 
L 7.8125 54.6875 
L 25.390625 54.6875 
L 25.390625 49.21875 
Q 25.390625 44.78125 25.34375 38.0625 
Q 25.296875 31.34375 25.296875 29.109375 
Q 25.296875 22.515625 25.640625 19.609375 
Q 25.984375 16.703125 26.8125 15.375 
Q 27.875 13.671875 29.609375 12.734375 
Q 31.34375 11.8125 33.59375 11.8125 
Q 39.0625 11.8125 42.1875 16.015625 
Q 45.3125 20.21875 45.3125 27.6875 
L 45.3125 54.6875 
L 62.796875 54.6875 
L 62.796875 0 
L 45.3125 0 
L 45.3125 7.90625 
Q 41.359375 3.125 36.9375 0.84375 
Q 32.515625 -1.421875 27.203125 -1.421875 
Q 17.71875 -1.421875 12.765625 4.390625 
Q 7.8125 10.203125 7.8125 21.296875 
" id="BitstreamVeraSans-Bold-75"/>
    <path d="M 27.484375 70.21875 
L 27.484375 54.6875 
L 45.515625 54.6875 
L 45.515625 42.1875 
L 27.484375 42.1875 
L 27.484375 19 
Q 27.484375 15.1875 29 13.84375 
Q 30.515625 12.5 35.015625 12.5 
L 44 12.5 
L 44 0 
L 29 0 
Q 18.65625 0 14.328125 4.3125 
Q 10.015625 8.640625 10.015625 19 
L 10.015625 42.1875 
L 1.3125 42.1875 
L 1.3125 54.6875 
L 10.015625 54.6875 
L 10.015625 70.21875 
z
" id="BitstreamVeraSans-Bold-74"/>
    <path d="M 44.484375 -1.3125 
L 43.015625 -1.3125 
Q 25 -1.3125 14.984375 8.640625 
Q 4.984375 18.609375 4.984375 36.375 
Q 4.984375 54.109375 14.96875 64.15625 
Q 24.953125 74.21875 42.484375 74.21875 
Q 60.203125 74.21875 70.09375 64.25 
Q 79.984375 54.296875 79.984375 36.375 
Q 79.984375 24.078125 74.734375 15.1875 
Q 69.484375 6.296875 59.625 1.8125 
L 74.3125 -14.59375 
L 56.390625 -14.59375 
z
M 42.484375 60.59375 
Q 33.890625 60.59375 29.15625 54.25 
Q 24.421875 47.90625 24.421875 36.375 
Q 24.421875 24.65625 29.046875 18.421875 
Q 33.6875 12.203125 42.484375 12.203125 
Q 51.125 12.203125 55.859375 18.546875 
Q 60.59375 24.90625 60.59375 36.375 
Q 60.59375 47.90625 55.859375 54.25 
Q 51.125 60.59375 42.484375 60.59375 
" id="BitstreamVeraSans-Bold-51"/>
    <path d="M 62.984375 27.484375 
L 62.984375 22.515625 
L 22.125 22.515625 
Q 22.75 16.359375 26.5625 13.28125 
Q 30.375 10.203125 37.203125 10.203125 
Q 42.71875 10.203125 48.5 11.84375 
Q 54.296875 13.484375 60.40625 16.796875 
L 60.40625 3.328125 
Q 54.203125 0.984375 48 -0.21875 
Q 41.796875 -1.421875 35.59375 -1.421875 
Q 20.75 -1.421875 12.515625 6.125 
Q 4.296875 13.671875 4.296875 27.296875 
Q 4.296875 40.671875 12.375 48.328125 
Q 20.453125 56 34.625 56 
Q 47.515625 56 55.25 48.234375 
Q 62.984375 40.484375 62.984375 27.484375 
M 45.015625 33.296875 
Q 45.015625 38.28125 42.109375 41.328125 
Q 39.203125 44.390625 34.515625 44.390625 
Q 29.4375 44.390625 26.265625 41.53125 
Q 23.09375 38.671875 22.3125 33.296875 
z
" id="BitstreamVeraSans-Bold-65"/>
    <path d="M 49.03125 39.796875 
Q 46.734375 40.875 44.453125 41.375 
Q 42.1875 41.890625 39.890625 41.890625 
Q 33.15625 41.890625 29.515625 37.5625 
Q 25.875 33.25 25.875 25.203125 
L 25.875 0 
L 8.40625 0 
L 8.40625 54.6875 
L 25.875 54.6875 
L 25.875 45.703125 
Q 29.25 51.078125 33.609375 53.53125 
Q 37.984375 56 44.09375 56 
Q 44.96875 56 45.984375 55.921875 
Q 47.015625 55.859375 48.96875 55.609375 
z
" id="BitstreamVeraSans-Bold-72"/>
    <path d="M 3.515625 54.6875 
L 20.515625 54.6875 
L 29.6875 17 
L 38.921875 54.6875 
L 53.515625 54.6875 
L 62.703125 17.390625 
L 71.921875 54.6875 
L 88.921875 54.6875 
L 74.515625 0 
L 55.421875 0 
L 46.1875 37.59375 
L 37.015625 0 
L 17.921875 0 
z
" id="BitstreamVeraSans-Bold-77"/>
    <path d="M 8.40625 75.984375 
L 25.875 75.984375 
L 25.875 0 
L 8.40625 0 
z
" id="BitstreamVeraSans-Bold-6c"/>
    <path d="M 34.421875 43.5 
Q 28.609375 43.5 25.5625 39.328125 
Q 22.515625 35.15625 22.515625 27.296875 
Q 22.515625 19.4375 25.5625 15.25 
Q 28.609375 11.078125 34.421875 11.078125 
Q 40.140625 11.078125 43.15625 15.25 
Q 46.1875 19.4375 46.1875 27.296875 
Q 46.1875 35.15625 43.15625 39.328125 
Q 40.140625 43.5 34.421875 43.5 
M 34.421875 56 
Q 48.53125 56 56.46875 48.375 
Q 64.40625 40.765625 64.40625 27.296875 
Q 64.40625 13.8125 56.46875 6.1875 
Q 48.53125 -1.421875 34.421875 -1.421875 
Q 20.265625 -1.421875 12.28125 6.1875 
Q 4.296875 13.8125 4.296875 27.296875 
Q 4.296875 40.765625 12.28125 48.375 
Q 20.265625 56 34.421875 56 
" id="BitstreamVeraSans-Bold-6f"/>
    <path d="M 59.078125 45.609375 
Q 62.40625 50.6875 66.96875 53.34375 
Q 71.53125 56 77 56 
Q 86.421875 56 91.359375 50.1875 
Q 96.296875 44.390625 96.296875 33.296875 
L 96.296875 0 
L 78.71875 0 
L 78.71875 28.515625 
Q 78.765625 29.15625 78.78125 29.828125 
Q 78.8125 30.515625 78.8125 31.78125 
Q 78.8125 37.59375 77.09375 40.203125 
Q 75.390625 42.828125 71.578125 42.828125 
Q 66.609375 42.828125 63.890625 38.71875 
Q 61.1875 34.625 61.078125 26.859375 
L 61.078125 0 
L 43.5 0 
L 43.5 28.515625 
Q 43.5 37.59375 41.9375 40.203125 
Q 40.375 42.828125 36.375 42.828125 
Q 31.34375 42.828125 28.609375 38.703125 
Q 25.875 34.578125 25.875 26.90625 
L 25.875 0 
L 8.296875 0 
L 8.296875 54.6875 
L 25.875 54.6875 
L 25.875 46.6875 
Q 29.109375 51.3125 33.28125 53.65625 
Q 37.453125 56 42.484375 56 
Q 48.140625 56 52.484375 53.265625 
Q 56.84375 50.53125 59.078125 45.609375 
" id="BitstreamVeraSans-Bold-6d"/>
    <path d="M 63.375 33.296875 
L 63.375 0 
L 45.796875 0 
L 45.796875 5.421875 
L 45.796875 25.484375 
Q 45.796875 32.5625 45.484375 35.25 
Q 45.171875 37.9375 44.390625 39.203125 
Q 43.359375 40.921875 41.59375 41.875 
Q 39.84375 42.828125 37.59375 42.828125 
Q 32.125 42.828125 29 38.59375 
Q 25.875 34.375 25.875 26.90625 
L 25.875 0 
L 8.40625 0 
L 8.40625 54.6875 
L 25.875 54.6875 
L 25.875 46.6875 
Q 29.828125 51.46875 34.265625 53.734375 
Q 38.71875 56 44.09375 56 
Q 53.5625 56 58.46875 50.1875 
Q 63.375 44.390625 63.375 33.296875 
" id="BitstreamVeraSans-Bold-6e"/>
   </defs>
   <g transform="translate(199.96875 25.2)scale(0.144 -0.144)">
    <use xlink:href="#BitstreamVeraSans-Bold-51"/>
    <use x="85.009765625" xlink:href="#BitstreamVeraSans-Bold-75"/>
    <use x="156.201171875" xlink:href="#BitstreamVeraSans-Bold-61"/>
    <use x="223.681640625" xlink:href="#BitstreamVeraSans-Bold-6c"/>
    <use x="257.958984375" xlink:href="#BitstreamVeraSans-Bold-69"/>
    <use x="292.236328125" xlink:href="#BitstreamVeraSans-Bold-74"/>
    <use x="340.0390625" xlink:href="#BitstreamVeraSans-Bold-79"/>
    <use x="405.224609375" xlink:href="#BitstreamVeraSans-Bold-20"/>
    <use x="440.0390625" xlink:href="#BitstreamVeraSans-Bold-61"/>
    <use x="507.51953125" xlink:href="#BitstreamVeraSans-Bold-73"/>
    <use x="567.041015625" xlink:href="#BitstreamVeraSans-Bold-73"/>
    <use x="626.5625" xlink:href="#BitstreamVeraSans-Bold-65"/>
    <use x="694.384765625" xlink:href="#BitstreamVeraSans-Bold-73"/>
    <use x="753.90625" xlink:href="#BitstreamVeraSans-Bold-73"/>
    <use x="813.427734375" xlink:href="#BitstreamVeraSans-Bold-6d"/>
    <use x="917.626953125" xlink:href="#BitstreamVeraSans-Bold-65"/>
    <use x="985.44921875" xlink:href="#BitstreamVeraSans-Bold-6e"/>
    <use x="1056.640625" xlink:href="#BitstreamVeraSans-Bold-74"/>
    <use x="1104.44335938" xlink:href="#BitstreamVeraSans-Bold-20"/>
    <use x="1139.2578125" xlink:href="#BitstreamVeraSans-Bold-69"/>
    <use x="1173.53515625" xlink:href="#BitstreamVeraSans-Bold-6e"/>
    <use x="1244.7265625" xlink:href="#BitstreamVeraSans-Bold-20"/>
    <use x="1279.54101562" xlink:href="#BitstreamVeraSans-Bold-6e"/>
    <use x="1350.73242188" xlink:href="#BitstreamVeraSans-Bold-65"/>
    <use x="1418.5546875" xlink:href="#BitstreamVeraSans-Bold-61"/>
    <use x="1486.03515625" xlink:href="#BitstreamVeraSans-Bold-72"/>
    <use x="1535.3515625" xlink:href="#BitstreamVeraSans-Bold-6c"/>
    <use x="1569.62890625" xlink:href="#BitstreamVeraSans-Bold-79"/>
    <use x="1634.81445312" xlink:href="#BitstreamVeraSans-Bold-20"/>
    <use x="1669.62890625" xlink:href="#BitstreamVeraSans-Bold-74"/>
    <use x="1717.43164062" xlink:href="#BitstreamVeraSans-Bold-77"/>
    <use x="1809.81445312" xlink:href="#BitstreamVeraSans-Bold-6f"/>
    <use x="1878.515625" xlink:href="#BitstreamVeraSans-Bold-20"/>
    <use x="1913.33007812" xlink:href="#BitstreamVeraSans-Bold-79"/>
    <use x="1978.515625" xlink:href="#BitstreamVeraSans-Bold-65"/>
    <use x="2046.33789062" xlink:href="#BitstreamVeraSans-Bold-61"/>
    <use x="2113.81835938" xlink:href="#BitstreamVeraSans-Bold-72"/>
    <use x="2163.13476562" xlink:href="#BitstreamVeraSans-Bold-73"/>
   </g>
  </g>
 </g>
 <defs>
  <clipPath id="p22072ac2d1">
   <path d="M 214 376 
C 246.885184 376 278.427904 362.934578 301.681241 339.681241 
C 324.934578 316.427904 338 284.885184 338 252 
C 338 219.114816 324.934578 187.572096 301.681241 164.318759 
C 278.427904 141.065422 246.885184 128 214 128 
C 181.114816 128 149.572096 141.065422 126.318759 164.318759 
C 103.065422 187.572096 90 219.114816 90 252 
C 90 284.885184 103.065422 316.427904 126.318759 339.681241 
C 149.572096 362.934578 181.114816 376 214 376 
z
"/>
  </clipPath>
  <clipPath id="p512ea1c5ba">
   <path d="M 524 376 
C 556.885184 376 588.427904 362.934578 611.681241 339.681241 
C 634.934578 316.427904 648 284.885184 648 252 
C 648 219.114816 634.934578 187.572096 611.681241 164.318759 
C 588.427904 141.065422 556.885184 128 524 128 
C 491.114816 128 459.572096 141.065422 436.318759 164.318759 
C 413.065422 187.572096 400 219.114816 400 252 
C 400 284.885184 413.065422 316.427904 436.318759 339.681241 
C 459.572096 362.934578 491.114816 376 524 376 
z
"/>
  </clipPath>
 </defs>
</svg>
