<?xml version="1.0" encoding="utf-8" standalone="no"?>
<!DOCTYPE svg PUBLIC "-//W3C//DTD SVG 1.1//EN"
  "http://www.w3.org/Graphics/SVG/1.1/DTD/svg11.dtd">
<!-- Created with matplotlib (http://matplotlib.org/) -->
<svg height="504pt" version="1.1" viewBox="0 0 504 504" width="504pt" xmlns="http://www.w3.org/2000/svg" xmlns:xlink="http://www.w3.org/1999/xlink">
 <defs>
  <style type="text/css">
*{stroke-linecap:butt;stroke-linejoin:round;}
  </style>
 </defs>
 <g id="figure_1">
  <g id="patch_1">
   <path d="M 0 504 
L 504 504 
L 504 0 
L 0 0 
z
" style="fill:#ffffff;"/>
  </g>
  <g id="axes_1">
   <g id="patch_2">
    <path d="M 45.2 461.32 
L 414.610286 461.32 
L 414.610286 89.821714 
L 45.2 89.821714 
z
" style="fill:#eaeaf2;"/>
   </g>
   <g id="matplotlib.axis_1">
    <g id="xtick_1">
     <g id="line2d_1">
      <path clip-path="url(#pdec27c5903)" d="M 45.2 461.32 
L 45.2 89.821714 
" style="fill:none;stroke:#ffffff;stroke-linecap:round;"/>
     </g>
     <g id="line2d_2"/>
     <g id="text_1">
      <!-- 0 -->
      <defs>
       <path d="M 4.15625 35.296875 
Q 4.15625 48 6.765625 55.734375 
Q 9.375 63.484375 14.515625 67.671875 
Q 19.671875 71.875 27.484375 71.875 
Q 33.25 71.875 37.59375 69.546875 
Q 41.9375 67.234375 44.765625 62.859375 
Q 47.609375 58.5 49.21875 52.21875 
Q 50.828125 45.953125 50.828125 35.296875 
Q 50.828125 22.703125 48.234375 14.96875 
Q 45.65625 7.234375 40.5 3 
Q 35.359375 -1.21875 27.484375 -1.21875 
Q 17.140625 -1.21875 11.234375 6.203125 
Q 4.15625 15.140625 4.15625 35.296875 
M 13.1875 35.296875 
Q 13.1875 17.671875 17.3125 11.828125 
Q 21.4375 6 27.484375 6 
Q 33.546875 6 37.671875 11.859375 
Q 41.796875 17.71875 41.796875 35.296875 
Q 41.796875 52.984375 37.671875 58.78125 
Q 33.546875 64.59375 27.390625 64.59375 
Q 21.34375 64.59375 17.71875 59.46875 
Q 13.1875 52.9375 13.1875 35.296875 
" id="ArialMT-30"/>
      </defs>
      <g style="fill:#262626;" transform="translate(42.419531 475.477812)scale(0.1 -0.1)">
       <use xlink:href="#ArialMT-30"/>
      </g>
     </g>
    </g>
    <g id="xtick_2">
     <g id="line2d_3">
      <path clip-path="url(#pdec27c5903)" d="M 106.768381 461.32 
L 106.768381 89.821714 
" style="fill:none;stroke:#ffffff;stroke-linecap:round;"/>
     </g>
     <g id="line2d_4"/>
     <g id="text_2">
      <!-- 10 -->
      <defs>
       <path d="M 37.25 0 
L 28.46875 0 
L 28.46875 56 
Q 25.296875 52.984375 20.140625 49.953125 
Q 14.984375 46.921875 10.890625 45.40625 
L 10.890625 53.90625 
Q 18.265625 57.375 23.78125 62.296875 
Q 29.296875 67.234375 31.59375 71.875 
L 37.25 71.875 
z
" id="ArialMT-31"/>
      </defs>
      <g style="fill:#262626;" transform="translate(101.207443 475.477812)scale(0.1 -0.1)">
       <use xlink:href="#ArialMT-31"/>
       <use x="55.615234" xlink:href="#ArialMT-30"/>
      </g>
     </g>
    </g>
    <g id="xtick_3">
     <g id="line2d_5">
      <path clip-path="url(#pdec27c5903)" d="M 168.336762 461.32 
L 168.336762 89.821714 
" style="fill:none;stroke:#ffffff;stroke-linecap:round;"/>
     </g>
     <g id="line2d_6"/>
     <g id="text_3">
      <!-- 20 -->
      <defs>
       <path d="M 50.34375 8.453125 
L 50.34375 0 
L 3.03125 0 
Q 2.9375 3.171875 4.046875 6.109375 
Q 5.859375 10.9375 9.828125 15.625 
Q 13.8125 20.3125 21.34375 26.46875 
Q 33.015625 36.03125 37.109375 41.625 
Q 41.21875 47.21875 41.21875 52.203125 
Q 41.21875 57.421875 37.46875 61 
Q 33.734375 64.59375 27.734375 64.59375 
Q 21.390625 64.59375 17.578125 60.78125 
Q 13.765625 56.984375 13.71875 50.25 
L 4.6875 51.171875 
Q 5.609375 61.28125 11.65625 66.578125 
Q 17.71875 71.875 27.9375 71.875 
Q 38.234375 71.875 44.234375 66.15625 
Q 50.25 60.453125 50.25 52 
Q 50.25 47.703125 48.484375 43.546875 
Q 46.734375 39.40625 42.65625 34.8125 
Q 38.578125 30.21875 29.109375 22.21875 
Q 21.1875 15.578125 18.9375 13.203125 
Q 16.703125 10.84375 15.234375 8.453125 
z
" id="ArialMT-32"/>
      </defs>
      <g style="fill:#262626;" transform="translate(162.775824 475.477812)scale(0.1 -0.1)">
       <use xlink:href="#ArialMT-32"/>
       <use x="55.615234" xlink:href="#ArialMT-30"/>
      </g>
     </g>
    </g>
    <g id="xtick_4">
     <g id="line2d_7">
      <path clip-path="url(#pdec27c5903)" d="M 229.905143 461.32 
L 229.905143 89.821714 
" style="fill:none;stroke:#ffffff;stroke-linecap:round;"/>
     </g>
     <g id="line2d_8"/>
     <g id="text_4">
      <!-- 30 -->
      <defs>
       <path d="M 4.203125 18.890625 
L 12.984375 20.0625 
Q 14.5 12.59375 18.140625 9.296875 
Q 21.78125 6 27 6 
Q 33.203125 6 37.46875 10.296875 
Q 41.75 14.59375 41.75 20.953125 
Q 41.75 27 37.796875 30.921875 
Q 33.84375 34.859375 27.734375 34.859375 
Q 25.25 34.859375 21.53125 33.890625 
L 22.515625 41.609375 
Q 23.390625 41.5 23.921875 41.5 
Q 29.546875 41.5 34.03125 44.421875 
Q 38.53125 47.359375 38.53125 53.46875 
Q 38.53125 58.296875 35.25 61.46875 
Q 31.984375 64.65625 26.8125 64.65625 
Q 21.6875 64.65625 18.265625 61.421875 
Q 14.84375 58.203125 13.875 51.765625 
L 5.078125 53.328125 
Q 6.6875 62.15625 12.390625 67.015625 
Q 18.109375 71.875 26.609375 71.875 
Q 32.46875 71.875 37.390625 69.359375 
Q 42.328125 66.84375 44.9375 62.5 
Q 47.5625 58.15625 47.5625 53.265625 
Q 47.5625 48.640625 45.0625 44.828125 
Q 42.578125 41.015625 37.703125 38.765625 
Q 44.046875 37.3125 47.5625 32.6875 
Q 51.078125 28.078125 51.078125 21.140625 
Q 51.078125 11.765625 44.234375 5.25 
Q 37.40625 -1.265625 26.953125 -1.265625 
Q 17.53125 -1.265625 11.296875 4.34375 
Q 5.078125 9.96875 4.203125 18.890625 
" id="ArialMT-33"/>
      </defs>
      <g style="fill:#262626;" transform="translate(224.344205 475.477812)scale(0.1 -0.1)">
       <use xlink:href="#ArialMT-33"/>
       <use x="55.615234" xlink:href="#ArialMT-30"/>
      </g>
     </g>
    </g>
    <g id="xtick_5">
     <g id="line2d_9">
      <path clip-path="url(#pdec27c5903)" d="M 291.473524 461.32 
L 291.473524 89.821714 
" style="fill:none;stroke:#ffffff;stroke-linecap:round;"/>
     </g>
     <g id="line2d_10"/>
     <g id="text_5">
      <!-- 40 -->
      <defs>
       <path d="M 32.328125 0 
L 32.328125 17.140625 
L 1.265625 17.140625 
L 1.265625 25.203125 
L 33.9375 71.578125 
L 41.109375 71.578125 
L 41.109375 25.203125 
L 50.78125 25.203125 
L 50.78125 17.140625 
L 41.109375 17.140625 
L 41.109375 0 
z
M 32.328125 25.203125 
L 32.328125 57.46875 
L 9.90625 25.203125 
z
" id="ArialMT-34"/>
      </defs>
      <g style="fill:#262626;" transform="translate(285.912586 475.477812)scale(0.1 -0.1)">
       <use xlink:href="#ArialMT-34"/>
       <use x="55.615234" xlink:href="#ArialMT-30"/>
      </g>
     </g>
    </g>
    <g id="xtick_6">
     <g id="line2d_11">
      <path clip-path="url(#pdec27c5903)" d="M 353.041905 461.32 
L 353.041905 89.821714 
" style="fill:none;stroke:#ffffff;stroke-linecap:round;"/>
     </g>
     <g id="line2d_12"/>
     <g id="text_6">
      <!-- 50 -->
      <defs>
       <path d="M 4.15625 18.75 
L 13.375 19.53125 
Q 14.40625 12.796875 18.140625 9.390625 
Q 21.875 6 27.15625 6 
Q 33.5 6 37.890625 10.78125 
Q 42.28125 15.578125 42.28125 23.484375 
Q 42.28125 31 38.0625 35.34375 
Q 33.84375 39.703125 27 39.703125 
Q 22.75 39.703125 19.328125 37.765625 
Q 15.921875 35.84375 13.96875 32.765625 
L 5.71875 33.84375 
L 12.640625 70.609375 
L 48.25 70.609375 
L 48.25 62.203125 
L 19.671875 62.203125 
L 15.828125 42.96875 
Q 22.265625 47.46875 29.34375 47.46875 
Q 38.71875 47.46875 45.15625 40.96875 
Q 51.609375 34.46875 51.609375 24.265625 
Q 51.609375 14.546875 45.953125 7.46875 
Q 39.0625 -1.21875 27.15625 -1.21875 
Q 17.390625 -1.21875 11.203125 4.25 
Q 5.03125 9.71875 4.15625 18.75 
" id="ArialMT-35"/>
      </defs>
      <g style="fill:#262626;" transform="translate(347.480967 475.477812)scale(0.1 -0.1)">
       <use xlink:href="#ArialMT-35"/>
       <use x="55.615234" xlink:href="#ArialMT-30"/>
      </g>
     </g>
    </g>
    <g id="xtick_7">
     <g id="line2d_13">
      <path clip-path="url(#pdec27c5903)" d="M 414.610286 461.32 
L 414.610286 89.821714 
" style="fill:none;stroke:#ffffff;stroke-linecap:round;"/>
     </g>
     <g id="line2d_14"/>
     <g id="text_7">
      <!-- 60 -->
      <defs>
       <path d="M 49.75 54.046875 
L 41.015625 53.375 
Q 39.84375 58.546875 37.703125 60.890625 
Q 34.125 64.65625 28.90625 64.65625 
Q 24.703125 64.65625 21.53125 62.3125 
Q 17.390625 59.28125 14.984375 53.46875 
Q 12.59375 47.65625 12.5 36.921875 
Q 15.671875 41.75 20.265625 44.09375 
Q 24.859375 46.4375 29.890625 46.4375 
Q 38.671875 46.4375 44.84375 39.96875 
Q 51.03125 33.5 51.03125 23.25 
Q 51.03125 16.5 48.125 10.71875 
Q 45.21875 4.9375 40.140625 1.859375 
Q 35.0625 -1.21875 28.609375 -1.21875 
Q 17.625 -1.21875 10.6875 6.859375 
Q 3.765625 14.9375 3.765625 33.5 
Q 3.765625 54.25 11.421875 63.671875 
Q 18.109375 71.875 29.4375 71.875 
Q 37.890625 71.875 43.28125 67.140625 
Q 48.6875 62.40625 49.75 54.046875 
M 13.875 23.1875 
Q 13.875 18.65625 15.796875 14.5 
Q 17.71875 10.359375 21.1875 8.171875 
Q 24.65625 6 28.46875 6 
Q 34.03125 6 38.03125 10.484375 
Q 42.046875 14.984375 42.046875 22.703125 
Q 42.046875 30.125 38.078125 34.390625 
Q 34.125 38.671875 28.125 38.671875 
Q 22.171875 38.671875 18.015625 34.390625 
Q 13.875 30.125 13.875 23.1875 
" id="ArialMT-36"/>
      </defs>
      <g style="fill:#262626;" transform="translate(409.049348 475.477812)scale(0.1 -0.1)">
       <use xlink:href="#ArialMT-36"/>
       <use x="55.615234" xlink:href="#ArialMT-30"/>
      </g>
     </g>
    </g>
    <g id="text_8">
     <!-- total_bill -->
     <defs>
      <path d="M 25.78125 7.859375 
L 27.046875 0.09375 
Q 23.34375 -0.6875 20.40625 -0.6875 
Q 15.625 -0.6875 12.984375 0.828125 
Q 10.359375 2.34375 9.28125 4.8125 
Q 8.203125 7.28125 8.203125 15.1875 
L 8.203125 45.015625 
L 1.765625 45.015625 
L 1.765625 51.859375 
L 8.203125 51.859375 
L 8.203125 64.703125 
L 16.9375 69.96875 
L 16.9375 51.859375 
L 25.78125 51.859375 
L 25.78125 45.015625 
L 16.9375 45.015625 
L 16.9375 14.703125 
Q 16.9375 10.9375 17.40625 9.859375 
Q 17.875 8.796875 18.921875 8.15625 
Q 19.96875 7.515625 21.921875 7.515625 
Q 23.390625 7.515625 25.78125 7.859375 
" id="ArialMT-74"/>
      <path d="M 3.328125 25.921875 
Q 3.328125 40.328125 11.328125 47.265625 
Q 18.015625 53.03125 27.640625 53.03125 
Q 38.328125 53.03125 45.109375 46.015625 
Q 51.90625 39.015625 51.90625 26.65625 
Q 51.90625 16.65625 48.90625 10.90625 
Q 45.90625 5.171875 40.15625 2 
Q 34.421875 -1.171875 27.640625 -1.171875 
Q 16.75 -1.171875 10.03125 5.8125 
Q 3.328125 12.796875 3.328125 25.921875 
M 12.359375 25.921875 
Q 12.359375 15.96875 16.703125 11.015625 
Q 21.046875 6.0625 27.640625 6.0625 
Q 34.1875 6.0625 38.53125 11.03125 
Q 42.875 16.015625 42.875 26.21875 
Q 42.875 35.84375 38.5 40.796875 
Q 34.125 45.75 27.640625 45.75 
Q 21.046875 45.75 16.703125 40.8125 
Q 12.359375 35.890625 12.359375 25.921875 
" id="ArialMT-6f"/>
      <path d="M 40.4375 6.390625 
Q 35.546875 2.25 31.03125 0.53125 
Q 26.515625 -1.171875 21.34375 -1.171875 
Q 12.796875 -1.171875 8.203125 3 
Q 3.609375 7.171875 3.609375 13.671875 
Q 3.609375 17.484375 5.34375 20.625 
Q 7.078125 23.78125 9.890625 25.6875 
Q 12.703125 27.59375 16.21875 28.5625 
Q 18.796875 29.25 24.03125 29.890625 
Q 34.671875 31.15625 39.703125 32.90625 
Q 39.75 34.71875 39.75 35.203125 
Q 39.75 40.578125 37.25 42.78125 
Q 33.890625 45.75 27.25 45.75 
Q 21.046875 45.75 18.09375 43.578125 
Q 15.140625 41.40625 13.71875 35.890625 
L 5.125 37.0625 
Q 6.296875 42.578125 8.984375 45.96875 
Q 11.671875 49.359375 16.75 51.1875 
Q 21.828125 53.03125 28.515625 53.03125 
Q 35.15625 53.03125 39.296875 51.46875 
Q 43.453125 49.90625 45.40625 47.53125 
Q 47.359375 45.171875 48.140625 41.546875 
Q 48.578125 39.3125 48.578125 33.453125 
L 48.578125 21.734375 
Q 48.578125 9.46875 49.140625 6.21875 
Q 49.703125 2.984375 51.375 0 
L 42.1875 0 
Q 40.828125 2.734375 40.4375 6.390625 
M 39.703125 26.03125 
Q 34.90625 24.078125 25.34375 22.703125 
Q 19.921875 21.921875 17.671875 20.9375 
Q 15.4375 19.96875 14.203125 18.09375 
Q 12.984375 16.21875 12.984375 13.921875 
Q 12.984375 10.40625 15.640625 8.0625 
Q 18.3125 5.71875 23.4375 5.71875 
Q 28.515625 5.71875 32.46875 7.9375 
Q 36.421875 10.15625 38.28125 14.015625 
Q 39.703125 17 39.703125 22.796875 
z
" id="ArialMT-61"/>
      <path d="M 6.390625 0 
L 6.390625 71.578125 
L 15.1875 71.578125 
L 15.1875 0 
z
" id="ArialMT-6c"/>
      <path d="M -1.515625 -19.875 
L -1.515625 -13.53125 
L 56.734375 -13.53125 
L 56.734375 -19.875 
z
" id="ArialMT-5f"/>
      <path d="M 14.703125 0 
L 6.546875 0 
L 6.546875 71.578125 
L 15.328125 71.578125 
L 15.328125 46.046875 
Q 20.90625 53.03125 29.546875 53.03125 
Q 34.328125 53.03125 38.59375 51.09375 
Q 42.875 49.171875 45.625 45.671875 
Q 48.390625 42.1875 49.953125 37.25 
Q 51.515625 32.328125 51.515625 26.703125 
Q 51.515625 13.375 44.921875 6.09375 
Q 38.328125 -1.171875 29.109375 -1.171875 
Q 19.921875 -1.171875 14.703125 6.5 
z
M 14.59375 26.3125 
Q 14.59375 17 17.140625 12.84375 
Q 21.296875 6.0625 28.375 6.0625 
Q 34.125 6.0625 38.328125 11.0625 
Q 42.53125 16.0625 42.53125 25.984375 
Q 42.53125 36.140625 38.5 40.96875 
Q 34.46875 45.796875 28.765625 45.796875 
Q 23 45.796875 18.796875 40.796875 
Q 14.59375 35.796875 14.59375 26.3125 
" id="ArialMT-62"/>
      <path d="M 6.640625 61.46875 
L 6.640625 71.578125 
L 15.4375 71.578125 
L 15.4375 61.46875 
z
M 6.640625 0 
L 6.640625 51.859375 
L 15.4375 51.859375 
L 15.4375 0 
z
" id="ArialMT-69"/>
     </defs>
     <g style="fill:#262626;" transform="translate(209.727018 489.338906)scale(0.11 -0.11)">
      <use xlink:href="#ArialMT-74"/>
      <use x="27.783203" xlink:href="#ArialMT-6f"/>
      <use x="83.398438" xlink:href="#ArialMT-74"/>
      <use x="111.181641" xlink:href="#ArialMT-61"/>
      <use x="166.796875" xlink:href="#ArialMT-6c"/>
      <use x="189.013672" xlink:href="#ArialMT-5f"/>
      <use x="244.628906" xlink:href="#ArialMT-62"/>
      <use x="300.244141" xlink:href="#ArialMT-69"/>
      <use x="322.460938" xlink:href="#ArialMT-6c"/>
      <use x="344.677734" xlink:href="#ArialMT-6c"/>
     </g>
    </g>
   </g>
   <g id="matplotlib.axis_2">
    <g id="ytick_1">
     <g id="line2d_15">
      <path clip-path="url(#pdec27c5903)" d="M 45.2 461.32 
L 414.610286 461.32 
" style="fill:none;stroke:#ffffff;stroke-linecap:round;"/>
     </g>
     <g id="line2d_16"/>
     <g id="text_9">
      <!-- 0 -->
      <g style="fill:#262626;" transform="translate(32.639063 464.898906)scale(0.1 -0.1)">
       <use xlink:href="#ArialMT-30"/>
      </g>
     </g>
    </g>
    <g id="ytick_2">
     <g id="line2d_17">
      <path clip-path="url(#pdec27c5903)" d="M 45.2 399.403619 
L 414.610286 399.403619 
" style="fill:none;stroke:#ffffff;stroke-linecap:round;"/>
     </g>
     <g id="line2d_18"/>
     <g id="text_10">
      <!-- 2 -->
      <g style="fill:#262626;" transform="translate(32.639063 402.982525)scale(0.1 -0.1)">
       <use xlink:href="#ArialMT-32"/>
      </g>
     </g>
    </g>
    <g id="ytick_3">
     <g id="line2d_19">
      <path clip-path="url(#pdec27c5903)" d="M 45.2 337.487238 
L 414.610286 337.487238 
" style="fill:none;stroke:#ffffff;stroke-linecap:round;"/>
     </g>
     <g id="line2d_20"/>
     <g id="text_11">
      <!-- 4 -->
      <g style="fill:#262626;" transform="translate(32.639063 341.066144)scale(0.1 -0.1)">
       <use xlink:href="#ArialMT-34"/>
      </g>
     </g>
    </g>
    <g id="ytick_4">
     <g id="line2d_21">
      <path clip-path="url(#pdec27c5903)" d="M 45.2 275.570857 
L 414.610286 275.570857 
" style="fill:none;stroke:#ffffff;stroke-linecap:round;"/>
     </g>
     <g id="line2d_22"/>
     <g id="text_12">
      <!-- 6 -->
      <g style="fill:#262626;" transform="translate(32.639063 279.149763)scale(0.1 -0.1)">
       <use xlink:href="#ArialMT-36"/>
      </g>
     </g>
    </g>
    <g id="ytick_5">
     <g id="line2d_23">
      <path clip-path="url(#pdec27c5903)" d="M 45.2 213.654476 
L 414.610286 213.654476 
" style="fill:none;stroke:#ffffff;stroke-linecap:round;"/>
     </g>
     <g id="line2d_24"/>
     <g id="text_13">
      <!-- 8 -->
      <defs>
       <path d="M 17.671875 38.8125 
Q 12.203125 40.828125 9.5625 44.53125 
Q 6.9375 48.25 6.9375 53.421875 
Q 6.9375 61.234375 12.546875 66.546875 
Q 18.171875 71.875 27.484375 71.875 
Q 36.859375 71.875 42.578125 66.421875 
Q 48.296875 60.984375 48.296875 53.171875 
Q 48.296875 48.1875 45.671875 44.5 
Q 43.0625 40.828125 37.75 38.8125 
Q 44.34375 36.671875 47.78125 31.875 
Q 51.21875 27.09375 51.21875 20.453125 
Q 51.21875 11.28125 44.71875 5.03125 
Q 38.234375 -1.21875 27.640625 -1.21875 
Q 17.046875 -1.21875 10.546875 5.046875 
Q 4.046875 11.328125 4.046875 20.703125 
Q 4.046875 27.6875 7.59375 32.390625 
Q 11.140625 37.109375 17.671875 38.8125 
M 15.921875 53.71875 
Q 15.921875 48.640625 19.1875 45.40625 
Q 22.46875 42.1875 27.6875 42.1875 
Q 32.765625 42.1875 36.015625 45.375 
Q 39.265625 48.578125 39.265625 53.21875 
Q 39.265625 58.0625 35.90625 61.359375 
Q 32.5625 64.65625 27.59375 64.65625 
Q 22.5625 64.65625 19.234375 61.421875 
Q 15.921875 58.203125 15.921875 53.71875 
M 13.09375 20.65625 
Q 13.09375 16.890625 14.875 13.375 
Q 16.65625 9.859375 20.171875 7.921875 
Q 23.6875 6 27.734375 6 
Q 34.03125 6 38.125 10.046875 
Q 42.234375 14.109375 42.234375 20.359375 
Q 42.234375 26.703125 38.015625 30.859375 
Q 33.796875 35.015625 27.4375 35.015625 
Q 21.234375 35.015625 17.15625 30.90625 
Q 13.09375 26.8125 13.09375 20.65625 
" id="ArialMT-38"/>
      </defs>
      <g style="fill:#262626;" transform="translate(32.639063 217.233382)scale(0.1 -0.1)">
       <use xlink:href="#ArialMT-38"/>
      </g>
     </g>
    </g>
    <g id="ytick_6">
     <g id="line2d_25">
      <path clip-path="url(#pdec27c5903)" d="M 45.2 151.738095 
L 414.610286 151.738095 
" style="fill:none;stroke:#ffffff;stroke-linecap:round;"/>
     </g>
     <g id="line2d_26"/>
     <g id="text_14">
      <!-- 10 -->
      <g style="fill:#262626;" transform="translate(27.078125 155.317001)scale(0.1 -0.1)">
       <use xlink:href="#ArialMT-31"/>
       <use x="55.615234" xlink:href="#ArialMT-30"/>
      </g>
     </g>
    </g>
    <g id="ytick_7">
     <g id="line2d_27">
      <path clip-path="url(#pdec27c5903)" d="M 45.2 89.821714 
L 414.610286 89.821714 
" style="fill:none;stroke:#ffffff;stroke-linecap:round;"/>
     </g>
     <g id="line2d_28"/>
     <g id="text_15">
      <!-- 12 -->
      <g style="fill:#262626;" transform="translate(27.078125 93.400621)scale(0.1 -0.1)">
       <use xlink:href="#ArialMT-31"/>
       <use x="55.615234" xlink:href="#ArialMT-32"/>
      </g>
     </g>
    </g>
    <g id="text_16">
     <!-- tip -->
     <defs>
      <path d="M 6.59375 -19.875 
L 6.59375 51.859375 
L 14.59375 51.859375 
L 14.59375 45.125 
Q 17.4375 49.078125 21 51.046875 
Q 24.5625 53.03125 29.640625 53.03125 
Q 36.28125 53.03125 41.359375 49.609375 
Q 46.4375 46.1875 49.015625 39.953125 
Q 51.609375 33.734375 51.609375 26.3125 
Q 51.609375 18.359375 48.75 11.984375 
Q 45.90625 5.609375 40.453125 2.21875 
Q 35.015625 -1.171875 29 -1.171875 
Q 24.609375 -1.171875 21.109375 0.6875 
Q 17.625 2.546875 15.375 5.375 
L 15.375 -19.875 
z
M 14.546875 25.640625 
Q 14.546875 15.625 18.59375 10.84375 
Q 22.65625 6.0625 28.421875 6.0625 
Q 34.28125 6.0625 38.453125 11.015625 
Q 42.625 15.96875 42.625 26.375 
Q 42.625 36.28125 38.546875 41.203125 
Q 34.46875 46.140625 28.8125 46.140625 
Q 23.1875 46.140625 18.859375 40.890625 
Q 14.546875 35.640625 14.546875 25.640625 
" id="ArialMT-70"/>
     </defs>
     <g style="fill:#262626;" transform="translate(20.891875 281.379373)rotate(-90)scale(0.11 -0.11)">
      <use xlink:href="#ArialMT-74"/>
      <use x="27.783203" xlink:href="#ArialMT-69"/>
      <use x="50" xlink:href="#ArialMT-70"/>
     </g>
    </g>
   </g>
   <g id="PathCollection_1">
    <defs>
     <path d="M 0 3.5 
C 0.928211 3.5 1.81853 3.131218 2.474874 2.474874 
C 3.131218 1.81853 3.5 0.928211 3.5 0 
C 3.5 -0.928211 3.131218 -1.81853 2.474874 -2.474874 
C 1.81853 -3.131218 0.928211 -3.5 0 -3.5 
C -0.928211 -3.5 -1.81853 -3.131218 -2.474874 -2.474874 
C -3.131218 -1.81853 -3.5 -0.928211 -3.5 0 
C -3.5 0.928211 -3.131218 1.81853 -2.474874 2.474874 
C -1.81853 3.131218 -0.928211 3.5 0 3.5 
z
" id="m1a568d5b61"/>
    </defs>
    <g clip-path="url(#pdec27c5903)">
     <use style="fill-opacity:0.8;" x="149.804679" xlink:href="#m1a568d5b61" y="430.052228"/>
     <use style="fill-opacity:0.8;" x="108.861706" xlink:href="#m1a568d5b61" y="409.929404"/>
     <use style="fill-opacity:0.8;" x="174.555168" xlink:href="#m1a568d5b61" y="352.966333"/>
     <use style="fill-opacity:0.8;" x="190.993926" xlink:href="#m1a568d5b61" y="358.84839"/>
     <use style="fill-opacity:0.8;" x="196.596649" xlink:href="#m1a568d5b61" y="349.560932"/>
     <use style="fill-opacity:0.8;" x="200.906435" xlink:href="#m1a568d5b61" y="315.506923"/>
     <use style="fill-opacity:0.8;" x="99.19547" xlink:href="#m1a568d5b61" y="399.403619"/>
     <use style="fill-opacity:0.8;" x="210.695808" xlink:href="#m1a568d5b61" y="364.730446"/>
     <use style="fill-opacity:0.8;" x="137.798845" xlink:href="#m1a568d5b61" y="400.641947"/>
     <use style="fill-opacity:0.8;" x="136.198067" xlink:href="#m1a568d5b61" y="361.325045"/>
     <use style="fill-opacity:0.8;" x="108.430727" xlink:href="#m1a568d5b61" y="408.381494"/>
     <use style="fill-opacity:0.8;" x="262.290111" xlink:href="#m1a568d5b61" y="306.529048"/>
     <use style="fill-opacity:0.8;" x="140.138443" xlink:href="#m1a568d5b61" y="412.715641"/>
     <use style="fill-opacity:0.8;" x="158.670526" xlink:href="#m1a568d5b61" y="368.445429"/>
     <use style="fill-opacity:0.8;" x="136.505909" xlink:href="#m1a568d5b61" y="367.826265"/>
     <use style="fill-opacity:0.8;" x="178.064566" xlink:href="#m1a568d5b61" y="339.963893"/>
     <use style="fill-opacity:0.8;" x="108.800138" xlink:href="#m1a568d5b61" y="409.619822"/>
     <use style="fill-opacity:0.8;" x="145.494893" xlink:href="#m1a568d5b61" y="346.465113"/>
     <use style="fill-opacity:0.8;" x="149.681542" xlink:href="#m1a568d5b61" y="352.966333"/>
     <use style="fill-opacity:0.8;" x="172.338707" xlink:href="#m1a568d5b61" y="357.610062"/>
     <use style="fill-opacity:0.8;" x="155.530539" xlink:href="#m1a568d5b61" y="335.010583"/>
     <use style="fill-opacity:0.8;" x="170.122245" xlink:href="#m1a568d5b61" y="376.184976"/>
     <use style="fill-opacity:0.8;" x="142.293337" xlink:href="#m1a568d5b61" y="392.283235"/>
     <use style="fill-opacity:0.8;" x="287.902558" xlink:href="#m1a568d5b61" y="226.656916"/>
     <use style="fill-opacity:0.8;" x="167.228531" xlink:href="#m1a568d5b61" y="362.872954"/>
     <use style="fill-opacity:0.8;" x="154.853286" xlink:href="#m1a568d5b61" y="388.877834"/>
     <use style="fill-opacity:0.8;" x="127.516925" xlink:href="#m1a568d5b61" y="399.403619"/>
     <use style="fill-opacity:0.8;" x="123.330275" xlink:href="#m1a568d5b61" y="399.403619"/>
     <use style="fill-opacity:0.8;" x="178.803387" xlink:href="#m1a568d5b61" y="328.199781"/>
     <use style="fill-opacity:0.8;" x="166.181869" xlink:href="#m1a568d5b61" y="368.445429"/>
     <use style="fill-opacity:0.8;" x="103.997804" xlink:href="#m1a568d5b61" y="416.430624"/>
     <use style="fill-opacity:0.8;" x="158.177979" xlink:href="#m1a568d5b61" y="383.924524"/>
     <use style="fill-opacity:0.8;" x="137.921982" xlink:href="#m1a568d5b61" y="368.445429"/>
     <use style="fill-opacity:0.8;" x="172.58498" xlink:href="#m1a568d5b61" y="385.472433"/>
     <use style="fill-opacity:0.8;" x="154.668581" xlink:href="#m1a568d5b61" y="360.086717"/>
     <use style="fill-opacity:0.8;" x="193.333525" xlink:href="#m1a568d5b61" y="349.870514"/>
     <use style="fill-opacity:0.8;" x="145.618029" xlink:href="#m1a568d5b61" y="399.403619"/>
     <use style="fill-opacity:0.8;" x="149.435269" xlink:href="#m1a568d5b61" y="366.278355"/>
     <use style="fill-opacity:0.8;" x="160.271304" xlink:href="#m1a568d5b61" y="389.80658"/>
     <use style="fill-opacity:0.8;" x="237.724327" xlink:href="#m1a568d5b61" y="306.529048"/>
     <use style="fill-opacity:0.8;" x="143.955683" xlink:href="#m1a568d5b61" y="391.973653"/>
     <use style="fill-opacity:0.8;" x="152.698393" xlink:href="#m1a568d5b61" y="382.686196"/>
     <use style="fill-opacity:0.8;" x="131.026323" xlink:href="#m1a568d5b61" y="366.587937"/>
     <use style="fill-opacity:0.8;" x="104.798193" xlink:href="#m1a568d5b61" y="420.455189"/>
     <use style="fill-opacity:0.8;" x="232.367878" xlink:href="#m1a568d5b61" y="287.954133"/>
     <use style="fill-opacity:0.8;" x="157.808569" xlink:href="#m1a568d5b61" y="368.445429"/>
     <use style="fill-opacity:0.8;" x="182.066511" xlink:href="#m1a568d5b61" y="306.529048"/>
     <use style="fill-opacity:0.8;" x="244.681554" xlink:href="#m1a568d5b61" y="275.570857"/>
     <use style="fill-opacity:0.8;" x="220.977728" xlink:href="#m1a568d5b61" y="397.85571"/>
     <use style="fill-opacity:0.8;" x="156.269359" xlink:href="#m1a568d5b61" y="368.445429"/>
     <use style="fill-opacity:0.8;" x="122.40675" xlink:href="#m1a568d5b61" y="383.924524"/>
     <use style="fill-opacity:0.8;" x="108.553864" xlink:href="#m1a568d5b61" y="380.828705"/>
     <use style="fill-opacity:0.8;" x="259.519534" xlink:href="#m1a568d5b61" y="300.33741"/>
     <use style="fill-opacity:0.8;" x="106.398971" xlink:href="#m1a568d5b61" y="413.025223"/>
     <use style="fill-opacity:0.8;" x="202.568782" xlink:href="#m1a568d5b61" y="326.961453"/>
     <use style="fill-opacity:0.8;" x="165.196774" xlink:href="#m1a568d5b61" y="352.656751"/>
     <use style="fill-opacity:0.8;" x="279.221416" xlink:href="#m1a568d5b61" y="368.445429"/>
     <use style="fill-opacity:0.8;" x="207.802094" xlink:href="#m1a568d5b61" y="414.882714"/>
     <use style="fill-opacity:0.8;" x="114.40286" xlink:href="#m1a568d5b61" y="406.833585"/>
     <use style="fill-opacity:0.8;" x="342.390575" xlink:href="#m1a568d5b61" y="252.971378"/>
     <use style="fill-opacity:0.8;" x="170.122245" xlink:href="#m1a568d5b61" y="361.944209"/>
     <use style="fill-opacity:0.8;" x="130.225934" xlink:href="#m1a568d5b61" y="399.403619"/>
     <use style="fill-opacity:0.8;" x="113.048356" xlink:href="#m1a568d5b61" y="400.022783"/>
     <use style="fill-opacity:0.8;" x="157.808569" xlink:href="#m1a568d5b61" y="344.917204"/>
     <use style="fill-opacity:0.8;" x="153.498782" xlink:href="#m1a568d5b61" y="379.590377"/>
     <use style="fill-opacity:0.8;" x="168.829309" xlink:href="#m1a568d5b61" y="363.8017"/>
     <use style="fill-opacity:0.8;" x="146.479987" xlink:href="#m1a568d5b61" y="384.85327"/>
     <use style="fill-opacity:0.8;" x="64.101493" xlink:href="#m1a568d5b61" y="430.36181"/>
     <use style="fill-opacity:0.8;" x="169.752835" xlink:href="#m1a568d5b61" y="399.094037"/>
     <use style="fill-opacity:0.8;" x="137.61414" xlink:href="#m1a568d5b61" y="396.617382"/>
     <use style="fill-opacity:0.8;" x="119.205194" xlink:href="#m1a568d5b61" y="400.332365"/>
     <use style="fill-opacity:0.8;" x="150.297226" xlink:href="#m1a568d5b61" y="368.445429"/>
     <use style="fill-opacity:0.8;" x="210.572671" xlink:href="#m1a568d5b61" y="364.111282"/>
     <use style="fill-opacity:0.8;" x="200.844867" xlink:href="#m1a568d5b61" y="306.529048"/>
     <use style="fill-opacity:0.8;" x="135.890225" xlink:href="#m1a568d5b61" y="393.211981"/>
     <use style="fill-opacity:0.8;" x="109.908368" xlink:href="#m1a568d5b61" y="422.622262"/>
     <use style="fill-opacity:0.8;" x="155.530539" xlink:href="#m1a568d5b61" y="365.968773"/>
     <use style="fill-opacity:0.8;" x="212.665996" xlink:href="#m1a568d5b61" y="337.487238"/>
     <use style="fill-opacity:0.8;" x="185.329635" xlink:href="#m1a568d5b61" y="368.445429"/>
     <use style="fill-opacity:0.8;" x="151.651731" xlink:href="#m1a568d5b61" y="377.423304"/>
     <use style="fill-opacity:0.8;" x="164.888933" xlink:href="#m1a568d5b61" y="368.445429"/>
     <use style="fill-opacity:0.8;" x="147.772923" xlink:href="#m1a568d5b61" y="356.062152"/>
     <use style="fill-opacity:0.8;" x="107.19936" xlink:href="#m1a568d5b61" y="404.666511"/>
     <use style="fill-opacity:0.8;" x="246.405469" xlink:href="#m1a568d5b61" y="306.529048"/>
     <use style="fill-opacity:0.8;" x="143.586273" xlink:href="#m1a568d5b61" y="398.474873"/>
     <use style="fill-opacity:0.8;" x="259.642671" xlink:href="#m1a568d5b61" y="301.266155"/>
     <use style="fill-opacity:0.8;" x="125.4236" xlink:href="#m1a568d5b61" y="399.403619"/>
     <use style="fill-opacity:0.8;" x="157.747" xlink:href="#m1a568d5b61" y="337.487238"/>
     <use style="fill-opacity:0.8;" x="197.335469" xlink:href="#m1a568d5b61" y="280.214586"/>
     <use style="fill-opacity:0.8;" x="175.478694" xlink:href="#m1a568d5b61" y="368.445429"/>
     <use style="fill-opacity:0.8;" x="223.5636" xlink:href="#m1a568d5b61" y="368.445429"/>
     <use style="fill-opacity:0.8;" x="183.667289" xlink:href="#m1a568d5b61" y="352.966333"/>
     <use style="fill-opacity:0.8;" x="80.601819" xlink:href="#m1a568d5b61" y="430.36181"/>
     <use style="fill-opacity:0.8;" x="145.679598" xlink:href="#m1a568d5b61" y="328.199781"/>
     <use style="fill-opacity:0.8;" x="185.268067" xlink:href="#m1a568d5b61" y="360.705881"/>
     <use style="fill-opacity:0.8;" x="292.520186" xlink:href="#m1a568d5b61" y="314.887759"/>
     <use style="fill-opacity:0.8;" x="213.158543" xlink:href="#m1a568d5b61" y="337.487238"/>
     <use style="fill-opacity:0.8;" x="119.266762" xlink:href="#m1a568d5b61" y="414.882714"/>
     <use style="fill-opacity:0.8;" x="174.555168" xlink:href="#m1a568d5b61" y="368.445429"/>
     <use style="fill-opacity:0.8;" x="121.914203" xlink:href="#m1a568d5b61" y="414.882714"/>
     <use style="fill-opacity:0.8;" x="115.080112" xlink:href="#m1a568d5b61" y="383.924524"/>
     <use style="fill-opacity:0.8;" x="139.89217" xlink:href="#m1a568d5b61" y="368.445429"/>
     <use style="fill-opacity:0.8;" x="317.947928" xlink:href="#m1a568d5b61" y="383.924524"/>
     <use style="fill-opacity:0.8;" x="183.23631" xlink:href="#m1a568d5b61" y="353.585497"/>
     <use style="fill-opacity:0.8;" x="174.001053" xlink:href="#m1a568d5b61" y="335.010583"/>
     <use style="fill-opacity:0.8;" x="139.769033" xlink:href="#m1a568d5b61" y="410.548568"/>
     <use style="fill-opacity:0.8;" x="171.353613" xlink:href="#m1a568d5b61" y="335.629747"/>
     <use style="fill-opacity:0.8;" x="200.413888" xlink:href="#m1a568d5b61" y="328.509363"/>
     <use style="fill-opacity:0.8;" x="157.500727" xlink:href="#m1a568d5b61" y="344.917204"/>
     <use style="fill-opacity:0.8;" x="133.304353" xlink:href="#m1a568d5b61" y="337.487238"/>
     <use style="fill-opacity:0.8;" x="131.395733" xlink:href="#m1a568d5b61" y="368.445429"/>
     <use style="fill-opacity:0.8;" x="89.837076" xlink:href="#m1a568d5b61" y="430.36181"/>
     <use style="fill-opacity:0.8;" x="279.590826" xlink:href="#m1a568d5b61" y="337.487238"/>
     <use style="fill-opacity:0.8;" x="192.656272" xlink:href="#m1a568d5b61" y="382.376614"/>
     <use style="fill-opacity:0.8;" x="203.492307" xlink:href="#m1a568d5b61" y="337.487238"/>
     <use style="fill-opacity:0.8;" x="151.774867" xlink:href="#m1a568d5b61" y="352.966333"/>
     <use style="fill-opacity:0.8;" x="229.474164" xlink:href="#m1a568d5b61" y="304.361974"/>
     <use style="fill-opacity:0.8;" x="110.770326" xlink:href="#m1a568d5b61" y="414.882714"/>
     <use style="fill-opacity:0.8;" x="121.729498" xlink:href="#m1a568d5b61" y="405.595257"/>
     <use style="fill-opacity:0.8;" x="193.456661" xlink:href="#m1a568d5b61" y="370.922084"/>
     <use style="fill-opacity:0.8;" x="117.173437" xlink:href="#m1a568d5b61" y="389.80658"/>
     <use style="fill-opacity:0.8;" x="127.824767" xlink:href="#m1a568d5b61" y="409.31024"/>
     <use style="fill-opacity:0.8;" x="132.996511" xlink:href="#m1a568d5b61" y="383.924524"/>
     <use style="fill-opacity:0.8;" x="143.401568" xlink:href="#m1a568d5b61" y="399.403619"/>
     <use style="fill-opacity:0.8;" x="122.037339" xlink:href="#m1a568d5b61" y="383.30536"/>
     <use style="fill-opacity:0.8;" x="228.673775" xlink:href="#m1a568d5b61" y="331.2956"/>
     <use style="fill-opacity:0.8;" x="97.656261" xlink:href="#m1a568d5b61" y="415.501878"/>
     <use style="fill-opacity:0.8;" x="134.597289" xlink:href="#m1a568d5b61" y="399.403619"/>
     <use style="fill-opacity:0.8;" x="115.264818" xlink:href="#m1a568d5b61" y="399.403619"/>
     <use style="fill-opacity:0.8;" x="185.699045" xlink:href="#m1a568d5b61" y="393.831145"/>
     <use style="fill-opacity:0.8;" x="162.672471" xlink:href="#m1a568d5b61" y="414.882714"/>
     <use style="fill-opacity:0.8;" x="169.999108" xlink:href="#m1a568d5b61" y="373.708321"/>
     <use style="fill-opacity:0.8;" x="113.971882" xlink:href="#m1a568d5b61" y="414.882714"/>
     <use style="fill-opacity:0.8;" x="120.682835" xlink:href="#m1a568d5b61" y="399.403619"/>
     <use style="fill-opacity:0.8;" x="157.623864" xlink:href="#m1a568d5b61" y="360.705881"/>
     <use style="fill-opacity:0.8;" x="97.594692" xlink:href="#m1a568d5b61" y="422.622262"/>
     <use style="fill-opacity:0.8;" x="108.800138" xlink:href="#m1a568d5b61" y="399.403619"/>
     <use style="fill-opacity:0.8;" x="132.319259" xlink:href="#m1a568d5b61" y="399.403619"/>
     <use style="fill-opacity:0.8;" x="143.70941" xlink:href="#m1a568d5b61" y="399.403619"/>
     <use style="fill-opacity:0.8;" x="126.223989" xlink:href="#m1a568d5b61" y="376.184976"/>
     <use style="fill-opacity:0.8;" x="152.759962" xlink:href="#m1a568d5b61" y="352.966333"/>
     <use style="fill-opacity:0.8;" x="256.379547" xlink:href="#m1a568d5b61" y="253.900124"/>
     <use style="fill-opacity:0.8;" x="298.800161" xlink:href="#m1a568d5b61" y="306.529048"/>
     <use style="fill-opacity:0.8;" x="211.74247" xlink:href="#m1a568d5b61" y="306.529048"/>
     <use style="fill-opacity:0.8;" x="146.35685" xlink:href="#m1a568d5b61" y="390.116162"/>
     <use style="fill-opacity:0.8;" x="96.609598" xlink:href="#m1a568d5b61" y="414.882714"/>
     <use style="fill-opacity:0.8;" x="159.963462" xlink:href="#m1a568d5b61" y="419.216861"/>
     <use style="fill-opacity:0.8;" x="118.281668" xlink:href="#m1a568d5b61" y="410.85815"/>
     <use style="fill-opacity:0.8;" x="105.413877" xlink:href="#m1a568d5b61" y="407.76233"/>
     <use style="fill-opacity:0.8;" x="91.437854" xlink:href="#m1a568d5b61" y="399.403619"/>
     <use style="fill-opacity:0.8;" x="131.826712" xlink:href="#m1a568d5b61" y="383.924524"/>
     <use style="fill-opacity:0.8;" x="126.039284" xlink:href="#m1a568d5b61" y="399.403619"/>
     <use style="fill-opacity:0.8;" x="151.467026" xlink:href="#m1a568d5b61" y="376.494558"/>
     <use style="fill-opacity:0.8;" x="196.350375" xlink:href="#m1a568d5b61" y="399.403619"/>
     <use style="fill-opacity:0.8;" x="166.920689" xlink:href="#m1a568d5b61" y="399.403619"/>
     <use style="fill-opacity:0.8;" x="228.981617" xlink:href="#m1a568d5b61" y="302.194901"/>
     <use style="fill-opacity:0.8;" x="341.774891" xlink:href="#m1a568d5b61" y="306.529048"/>
     <use style="fill-opacity:0.8;" x="199.120952" xlink:href="#m1a568d5b61" y="345.226786"/>
     <use style="fill-opacity:0.8;" x="127.640062" xlink:href="#m1a568d5b61" y="380.519123"/>
     <use style="fill-opacity:0.8;" x="146.72626" xlink:href="#m1a568d5b61" y="399.403619"/>
     <use style="fill-opacity:0.8;" x="177.572019" xlink:href="#m1a568d5b61" y="352.966333"/>
     <use style="fill-opacity:0.8;" x="123.14557" xlink:href="#m1a568d5b61" y="383.924524"/>
     <use style="fill-opacity:0.8;" x="145.002346" xlink:href="#m1a568d5b61" y="399.403619"/>
     <use style="fill-opacity:0.8;" x="130.225934" xlink:href="#m1a568d5b61" y="399.403619"/>
     <use style="fill-opacity:0.8;" x="153.006235" xlink:href="#m1a568d5b61" y="368.445429"/>
     <use style="fill-opacity:0.8;" x="196.16567" xlink:href="#m1a568d5b61" y="353.585497"/>
     <use style="fill-opacity:0.8;" x="173.015959" xlink:href="#m1a568d5b61" y="391.973653"/>
     <use style="fill-opacity:0.8;" x="240.433336" xlink:href="#m1a568d5b61" y="322.008143"/>
     <use style="fill-opacity:0.8;" x="110.400915" xlink:href="#m1a568d5b61" y="411.477313"/>
     <use style="fill-opacity:0.8;" x="110.647189" xlink:href="#m1a568d5b61" y="399.403619"/>
     <use style="fill-opacity:0.8;" x="358.028944" xlink:href="#m1a568d5b61" y="151.738095"/>
     <use style="fill-opacity:0.8;" x="142.53961" xlink:href="#m1a568d5b61" y="363.492118"/>
     <use style="fill-opacity:0.8;" x="89.837076" xlink:href="#m1a568d5b61" y="301.885319"/>
     <use style="fill-opacity:0.8;" x="241.295293" xlink:href="#m1a568d5b61" y="362.872954"/>
     <use style="fill-opacity:0.8;" x="148.758017" xlink:href="#m1a568d5b61" y="337.487238"/>
     <use style="fill-opacity:0.8;" x="247.759973" xlink:href="#m1a568d5b61" y="365.040028"/>
     <use style="fill-opacity:0.8;" x="155.345834" xlink:href="#m1a568d5b61" y="399.403619"/>
     <use style="fill-opacity:0.8;" x="134.351016" xlink:href="#m1a568d5b61" y="399.403619"/>
     <use style="fill-opacity:0.8;" x="104.305646" xlink:href="#m1a568d5b61" y="337.487238"/>
     <use style="fill-opacity:0.8;" x="258.411303" xlink:href="#m1a568d5b61" y="351.418424"/>
     <use style="fill-opacity:0.8;" x="258.53444" xlink:href="#m1a568d5b61" y="347.393859"/>
     <use style="fill-opacity:0.8;" x="188.839033" xlink:href="#m1a568d5b61" y="286.406224"/>
     <use style="fill-opacity:0.8;" x="324.412608" xlink:href="#m1a568d5b61" y="352.966333"/>
     <use style="fill-opacity:0.8;" x="187.853939" xlink:href="#m1a568d5b61" y="260.091762"/>
     <use style="fill-opacity:0.8;" x="294.859785" xlink:href="#m1a568d5b61" y="368.445429"/>
     <use style="fill-opacity:0.8;" x="172.58498" xlink:href="#m1a568d5b61" y="306.529048"/>
     <use style="fill-opacity:0.8;" x="173.877916" xlink:href="#m1a568d5b61" y="352.966333"/>
     <use style="fill-opacity:0.8;" x="232.737288" xlink:href="#m1a568d5b61" y="399.403619"/>
     <use style="fill-opacity:0.8;" x="156.946611" xlink:href="#m1a568d5b61" y="352.966333"/>
     <use style="fill-opacity:0.8;" x="187.42296" xlink:href="#m1a568d5b61" y="337.487238"/>
     <use style="fill-opacity:0.8;" x="141.80079" xlink:href="#m1a568d5b61" y="414.882714"/>
     <use style="fill-opacity:0.8;" x="167.166963" xlink:href="#m1a568d5b61" y="331.605182"/>
     <use style="fill-opacity:0.8;" x="220.300475" xlink:href="#m1a568d5b61" y="382.067032"/>
     <use style="fill-opacity:0.8;" x="140.507854" xlink:href="#m1a568d5b61" y="398.784455"/>
     <use style="fill-opacity:0.8;" x="147.280376" xlink:href="#m1a568d5b61" y="337.487238"/>
     <use style="fill-opacity:0.8;" x="91.745696" xlink:href="#m1a568d5b61" y="416.740206"/>
     <use style="fill-opacity:0.8;" x="108.861706" xlink:href="#m1a568d5b61" y="399.403619"/>
     <use style="fill-opacity:0.8;" x="310.62129" xlink:href="#m1a568d5b61" y="306.529048"/>
     <use style="fill-opacity:0.8;" x="125.238895" xlink:href="#m1a568d5b61" y="399.403619"/>
     <use style="fill-opacity:0.8;" x="128.378883" xlink:href="#m1a568d5b61" y="399.403619"/>
     <use style="fill-opacity:0.8;" x="160.394441" xlink:href="#m1a568d5b61" y="337.487238"/>
     <use style="fill-opacity:0.8;" x="123.638117" xlink:href="#m1a568d5b61" y="399.094037"/>
     <use style="fill-opacity:0.8;" x="125.238895" xlink:href="#m1a568d5b61" y="399.403619"/>
     <use style="fill-opacity:0.8;" x="146.172145" xlink:href="#m1a568d5b61" y="383.924524"/>
     <use style="fill-opacity:0.8;" x="171.599886" xlink:href="#m1a568d5b61" y="337.487238"/>
     <use style="fill-opacity:0.8;" x="146.603123" xlink:href="#m1a568d5b61" y="361.325045"/>
     <use style="fill-opacity:0.8;" x="208.910325" xlink:href="#m1a568d5b61" y="355.75257"/>
     <use style="fill-opacity:0.8;" x="283.654339" xlink:href="#m1a568d5b61" y="368.445429"/>
     <use style="fill-opacity:0.8;" x="194.626461" xlink:href="#m1a568d5b61" y="398.474873"/>
     <use style="fill-opacity:0.8;" x="123.761254" xlink:href="#m1a568d5b61" y="392.283235"/>
     <use style="fill-opacity:0.8;" x="230.274553" xlink:href="#m1a568d5b61" y="399.403619"/>
     <use style="fill-opacity:0.8;" x="204.600538" xlink:href="#m1a568d5b61" y="301.575737"/>
     <use style="fill-opacity:0.8;" x="342.759985" xlink:href="#m1a568d5b61" y="182.696286"/>
     <use style="fill-opacity:0.8;" x="126.901242" xlink:href="#m1a568d5b61" y="383.924524"/>
     <use style="fill-opacity:0.8;" x="218.638129" xlink:href="#m1a568d5b61" y="260.091762"/>
     <use style="fill-opacity:0.8;" x="124.623211" xlink:href="#m1a568d5b61" y="427.26599"/>
     <use style="fill-opacity:0.8;" x="218.514992" xlink:href="#m1a568d5b61" y="368.445429"/>
     <use style="fill-opacity:0.8;" x="116.557754" xlink:href="#m1a568d5b61" y="414.882714"/>
     <use style="fill-opacity:0.8;" x="92.853927" xlink:href="#m1a568d5b61" y="416.740206"/>
     <use style="fill-opacity:0.8;" x="230.7671" xlink:href="#m1a568d5b61" y="365.659191"/>
     <use style="fill-opacity:0.8;" x="120.067151" xlink:href="#m1a568d5b61" y="393.211981"/>
     <use style="fill-opacity:0.8;" x="127.824767" xlink:href="#m1a568d5b61" y="353.585497"/>
     <use style="fill-opacity:0.8;" x="98.025671" xlink:href="#m1a568d5b61" y="401.880274"/>
     <use style="fill-opacity:0.8;" x="143.586273" xlink:href="#m1a568d5b61" y="368.445429"/>
     <use style="fill-opacity:0.8;" x="127.824767" xlink:href="#m1a568d5b61" y="412.406059"/>
     <use style="fill-opacity:0.8;" x="145.371756" xlink:href="#m1a568d5b61" y="383.924524"/>
     <use style="fill-opacity:0.8;" x="107.322496" xlink:href="#m1a568d5b61" y="399.403619"/>
     <use style="fill-opacity:0.8;" x="171.107339" xlink:href="#m1a568d5b61" y="368.445429"/>
     <use style="fill-opacity:0.8;" x="126.96281" xlink:href="#m1a568d5b61" y="377.113722"/>
     <use style="fill-opacity:0.8;" x="181.389259" xlink:href="#m1a568d5b61" y="372.160411"/>
     <use style="fill-opacity:0.8;" x="193.025683" xlink:href="#m1a568d5b61" y="399.403619"/>
     <use style="fill-opacity:0.8;" x="141.80079" xlink:href="#m1a568d5b61" y="368.445429"/>
     <use style="fill-opacity:0.8;" x="116.68089" xlink:href="#m1a568d5b61" y="356.371734"/>
     <use style="fill-opacity:0.8;" x="111.509146" xlink:href="#m1a568d5b61" y="415.81146"/>
     <use style="fill-opacity:0.8;" x="140.815696" xlink:href="#m1a568d5b61" y="368.445429"/>
     <use style="fill-opacity:0.8;" x="107.19936" xlink:href="#m1a568d5b61" y="422.622262"/>
     <use style="fill-opacity:0.8;" x="122.77616" xlink:href="#m1a568d5b61" y="430.36181"/>
     <use style="fill-opacity:0.8;" x="247.328995" xlink:href="#m1a568d5b61" y="425.098917"/>
     <use style="fill-opacity:0.8;" x="265.799509" xlink:href="#m1a568d5b61" y="316.74525"/>
     <use style="fill-opacity:0.8;" x="223.93301" xlink:href="#m1a568d5b61" y="278.047512"/>
     <use style="fill-opacity:0.8;" x="212.542859" xlink:href="#m1a568d5b61" y="399.403619"/>
     <use style="fill-opacity:0.8;" x="184.77552" xlink:href="#m1a568d5b61" y="399.403619"/>
     <use style="fill-opacity:0.8;" x="154.914855" xlink:href="#m1a568d5b61" y="407.143167"/>
     <use style="fill-opacity:0.8;" x="160.825419" xlink:href="#m1a568d5b61" y="368.445429"/>
    </g>
   </g>
   <g id="PolyCollection_1">
    <path clip-path="url(#pdec27c5903)" d="M 45.2 420.634319 
L 45.2 445.006696 
L 48.931417 442.658084 
L 52.662834 440.226419 
L 56.394251 437.792914 
L 60.125668 435.357534 
L 63.857085 432.963119 
L 67.588502 430.548832 
L 71.319919 428.213123 
L 75.051336 425.842322 
L 78.782753 423.415507 
L 82.51417 421.089454 
L 86.245587 418.71744 
L 89.977004 416.385257 
L 93.708421 413.987146 
L 97.439838 411.707 
L 101.171255 409.397619 
L 104.902672 407.052997 
L 108.634089 404.724795 
L 112.365506 402.458106 
L 116.096924 400.192684 
L 119.828341 397.981896 
L 123.559758 395.66915 
L 127.291175 393.515378 
L 131.022592 391.396565 
L 134.754009 389.290676 
L 138.485426 387.115977 
L 142.216843 384.990983 
L 145.94826 382.929297 
L 149.679677 380.912965 
L 153.411094 378.958563 
L 157.142511 377.187709 
L 160.873928 375.325045 
L 164.605345 373.530462 
L 168.336762 371.723727 
L 172.068179 369.850485 
L 175.799596 368.087311 
L 179.531013 366.493268 
L 183.26243 364.959193 
L 186.993847 363.41134 
L 190.725264 361.850135 
L 194.456681 360.207975 
L 198.188098 358.684194 
L 201.919515 357.160853 
L 205.650932 355.64325 
L 209.382349 354.105925 
L 213.113766 352.582303 
L 216.845183 351.054976 
L 220.5766 349.472133 
L 224.308017 347.97628 
L 228.039434 346.432899 
L 231.770851 344.758399 
L 235.502268 343.194255 
L 239.233685 341.700959 
L 242.965102 340.207664 
L 246.696519 338.708338 
L 250.427937 337.101628 
L 254.159354 335.49374 
L 257.890771 333.885852 
L 261.622188 332.276973 
L 265.353605 330.667704 
L 269.085022 329.058435 
L 272.816439 327.497962 
L 276.547856 325.963658 
L 280.279273 324.476271 
L 284.01069 322.983139 
L 287.742107 321.390058 
L 291.473524 319.858472 
L 295.204941 318.351123 
L 298.936358 316.863879 
L 302.667775 315.376635 
L 306.399192 313.889391 
L 310.130609 312.40147 
L 313.862026 310.912825 
L 317.593443 309.424181 
L 321.32486 307.935536 
L 325.056277 306.408209 
L 328.787694 304.868917 
L 332.519111 303.329624 
L 336.250528 301.790332 
L 339.981945 300.251039 
L 343.713362 298.743113 
L 347.444779 297.235206 
L 351.176196 295.727172 
L 354.907613 294.216325 
L 358.63903 292.705479 
L 362.370447 291.194633 
L 366.101864 289.61405 
L 369.833281 288.011598 
L 373.564698 286.409145 
L 377.296115 284.846482 
L 381.027532 283.306661 
L 384.758949 281.766234 
L 388.490367 280.22528 
L 392.221784 278.684326 
L 395.953201 277.143372 
L 399.684618 275.602417 
L 403.416035 274.061463 
L 407.147452 272.520509 
L 410.878869 270.979554 
L 414.610286 269.4386 
L 414.610286 207.446127 
L 414.610286 207.446127 
L 410.878869 209.845285 
L 407.147452 212.244443 
L 403.416035 214.643601 
L 399.684618 217.046183 
L 395.953201 219.474986 
L 392.221784 221.903789 
L 388.490367 224.332592 
L 384.758949 226.761395 
L 381.027532 229.190198 
L 377.296115 231.619001 
L 373.564698 234.047804 
L 369.833281 236.476607 
L 366.101864 238.90541 
L 362.370447 241.334213 
L 358.63903 243.763016 
L 354.907613 246.191819 
L 351.176196 248.620622 
L 347.444779 251.00384 
L 343.713362 253.385912 
L 339.981945 255.767983 
L 336.250528 258.150054 
L 332.519111 260.532126 
L 328.787694 262.914197 
L 325.056277 265.296268 
L 321.32486 267.67834 
L 317.593443 270.060411 
L 313.862026 272.442482 
L 310.130609 274.824554 
L 306.399192 277.206625 
L 302.667775 279.588696 
L 298.936358 281.970768 
L 295.204941 284.334917 
L 291.473524 286.595624 
L 287.742107 288.990041 
L 284.01069 291.333737 
L 280.279273 293.665595 
L 276.547856 296.001072 
L 272.816439 298.336548 
L 269.085022 300.672024 
L 265.353605 303.0075 
L 261.622188 305.295836 
L 257.890771 307.675378 
L 254.159354 310.007937 
L 250.427937 312.340497 
L 246.696519 314.673701 
L 242.965102 317.010384 
L 239.233685 319.347067 
L 235.502268 321.751234 
L 231.770851 324.154593 
L 228.039434 326.442565 
L 224.308017 328.730651 
L 220.5766 331.114812 
L 216.845183 333.542529 
L 213.113766 335.989363 
L 209.382349 338.320034 
L 205.650932 340.604003 
L 201.919515 343.060496 
L 198.188098 345.417313 
L 194.456681 347.717286 
L 190.725264 350.002854 
L 186.993847 352.282452 
L 183.26243 354.588243 
L 179.531013 356.893256 
L 175.799596 359.044121 
L 172.068179 361.245333 
L 168.336762 363.689933 
L 164.605345 365.861459 
L 160.873928 368.084858 
L 157.142511 370.237945 
L 153.411094 372.226686 
L 149.679677 374.274307 
L 145.94826 376.259174 
L 142.216843 378.260149 
L 138.485426 380.313807 
L 134.754009 382.134583 
L 131.022592 383.818066 
L 127.291175 385.507507 
L 123.559758 387.179554 
L 119.828341 388.946323 
L 116.096924 390.627569 
L 112.365506 392.224935 
L 108.634089 393.712515 
L 104.902672 395.271102 
L 101.171255 396.78168 
L 97.439838 398.300115 
L 93.708421 399.930026 
L 89.977004 401.561214 
L 86.245587 403.208475 
L 82.51417 404.826029 
L 78.782753 406.457232 
L 75.051336 408.083775 
L 71.319919 409.712874 
L 67.588502 411.409188 
L 63.857085 412.939713 
L 60.125668 414.440062 
L 56.394251 416.005074 
L 52.662834 417.618897 
L 48.931417 419.132785 
L 45.2 420.634319 
z
" style="fill-opacity:0.15;"/>
   </g>
   <g id="line2d_29">
    <path clip-path="url(#pdec27c5903)" d="M 45.2 432.830118 
L 48.931417 430.859591 
L 52.662834 428.889065 
L 56.394251 426.918538 
L 60.125668 424.948011 
L 63.857085 422.977485 
L 67.588502 421.006958 
L 71.319919 419.036431 
L 75.051336 417.065905 
L 78.782753 415.095378 
L 82.51417 413.124851 
L 86.245587 411.154325 
L 89.977004 409.183798 
L 93.708421 407.213271 
L 97.439838 405.242745 
L 101.171255 403.272218 
L 104.902672 401.301691 
L 108.634089 399.331165 
L 112.365506 397.360638 
L 116.096924 395.390111 
L 119.828341 393.419585 
L 123.559758 391.449058 
L 127.291175 389.478531 
L 131.022592 387.508004 
L 134.754009 385.537478 
L 138.485426 383.566951 
L 142.216843 381.596424 
L 145.94826 379.625898 
L 149.679677 377.655371 
L 153.411094 375.684844 
L 157.142511 373.714318 
L 160.873928 371.743791 
L 164.605345 369.773264 
L 168.336762 367.802738 
L 172.068179 365.832211 
L 175.799596 363.861684 
L 179.531013 361.891158 
L 183.26243 359.920631 
L 186.993847 357.950104 
L 190.725264 355.979578 
L 194.456681 354.009051 
L 198.188098 352.038524 
L 201.919515 350.067998 
L 205.650932 348.097471 
L 209.382349 346.126944 
L 213.113766 344.156418 
L 216.845183 342.185891 
L 220.5766 340.215364 
L 224.308017 338.244838 
L 228.039434 336.274311 
L 231.770851 334.303784 
L 235.502268 332.333258 
L 239.233685 330.362731 
L 242.965102 328.392204 
L 246.696519 326.421678 
L 250.427937 324.451151 
L 254.159354 322.480624 
L 257.890771 320.510098 
L 261.622188 318.539571 
L 265.353605 316.569044 
L 269.085022 314.598518 
L 272.816439 312.627991 
L 276.547856 310.657464 
L 280.279273 308.686937 
L 284.01069 306.716411 
L 287.742107 304.745884 
L 291.473524 302.775357 
L 295.204941 300.804831 
L 298.936358 298.834304 
L 302.667775 296.863777 
L 306.399192 294.893251 
L 310.130609 292.922724 
L 313.862026 290.952197 
L 317.593443 288.981671 
L 321.32486 287.011144 
L 325.056277 285.040617 
L 328.787694 283.070091 
L 332.519111 281.099564 
L 336.250528 279.129037 
L 339.981945 277.158511 
L 343.713362 275.187984 
L 347.444779 273.217457 
L 351.176196 271.246931 
L 354.907613 269.276404 
L 358.63903 267.305877 
L 362.370447 265.335351 
L 366.101864 263.364824 
L 369.833281 261.394297 
L 373.564698 259.423771 
L 377.296115 257.453244 
L 381.027532 255.482717 
L 384.758949 253.512191 
L 388.490367 251.541664 
L 392.221784 249.571137 
L 395.953201 247.600611 
L 399.684618 245.630084 
L 403.416035 243.659557 
L 407.147452 241.689031 
L 410.878869 239.718504 
L 414.610286 237.747977 
" style="fill:none;stroke:#000000;stroke-linecap:round;stroke-width:2.625;"/>
   </g>
   <g id="patch_3">
    <path d="M 45.2 461.32 
L 45.2 89.821714 
" style="fill:none;"/>
   </g>
   <g id="patch_4">
    <path d="M 45.2 461.32 
L 414.610286 461.32 
" style="fill:none;"/>
   </g>
   <g id="text_17">
    <!-- Linear regression with marginal distributions -->
    <defs>
     <path d="M 7.328125 0 
L 7.328125 71.578125 
L 16.796875 71.578125 
L 16.796875 8.453125 
L 52.046875 8.453125 
L 52.046875 0 
z
" id="ArialMT-4c"/>
     <path d="M 6.59375 0 
L 6.59375 51.859375 
L 14.5 51.859375 
L 14.5 44.484375 
Q 20.21875 53.03125 31 53.03125 
Q 35.6875 53.03125 39.625 51.34375 
Q 43.5625 49.65625 45.515625 46.921875 
Q 47.46875 44.1875 48.25 40.4375 
Q 48.734375 37.984375 48.734375 31.890625 
L 48.734375 0 
L 39.9375 0 
L 39.9375 31.546875 
Q 39.9375 36.921875 38.90625 39.578125 
Q 37.890625 42.234375 35.28125 43.8125 
Q 32.671875 45.40625 29.15625 45.40625 
Q 23.53125 45.40625 19.453125 41.84375 
Q 15.375 38.28125 15.375 28.328125 
L 15.375 0 
z
" id="ArialMT-6e"/>
     <path d="M 42.09375 16.703125 
L 51.171875 15.578125 
Q 49.03125 7.625 43.21875 3.21875 
Q 37.40625 -1.171875 28.375 -1.171875 
Q 17 -1.171875 10.328125 5.828125 
Q 3.65625 12.84375 3.65625 25.484375 
Q 3.65625 38.578125 10.390625 45.796875 
Q 17.140625 53.03125 27.875 53.03125 
Q 38.28125 53.03125 44.875 45.953125 
Q 51.46875 38.875 51.46875 26.03125 
Q 51.46875 25.25 51.421875 23.6875 
L 12.75 23.6875 
Q 13.234375 15.140625 17.578125 10.59375 
Q 21.921875 6.0625 28.421875 6.0625 
Q 33.25 6.0625 36.671875 8.59375 
Q 40.09375 11.140625 42.09375 16.703125 
M 13.234375 30.90625 
L 42.1875 30.90625 
Q 41.609375 37.453125 38.875 40.71875 
Q 34.671875 45.796875 27.984375 45.796875 
Q 21.921875 45.796875 17.796875 41.75 
Q 13.671875 37.703125 13.234375 30.90625 
" id="ArialMT-65"/>
     <path d="M 6.5 0 
L 6.5 51.859375 
L 14.40625 51.859375 
L 14.40625 44 
Q 17.4375 49.515625 20 51.265625 
Q 22.5625 53.03125 25.640625 53.03125 
Q 30.078125 53.03125 34.671875 50.203125 
L 31.640625 42.046875 
Q 28.421875 43.953125 25.203125 43.953125 
Q 22.3125 43.953125 20.015625 42.21875 
Q 17.71875 40.484375 16.75 37.40625 
Q 15.28125 32.71875 15.28125 27.15625 
L 15.28125 0 
z
" id="ArialMT-72"/>
     <path id="ArialMT-20"/>
     <path d="M 4.984375 -4.296875 
L 13.53125 -5.5625 
Q 14.0625 -9.515625 16.5 -11.328125 
Q 19.78125 -13.765625 25.4375 -13.765625 
Q 31.546875 -13.765625 34.859375 -11.328125 
Q 38.1875 -8.890625 39.359375 -4.5 
Q 40.046875 -1.8125 39.984375 6.78125 
Q 34.234375 0 25.640625 0 
Q 14.9375 0 9.078125 7.71875 
Q 3.21875 15.4375 3.21875 26.21875 
Q 3.21875 33.640625 5.90625 39.90625 
Q 8.59375 46.1875 13.6875 49.609375 
Q 18.796875 53.03125 25.6875 53.03125 
Q 34.859375 53.03125 40.828125 45.609375 
L 40.828125 51.859375 
L 48.921875 51.859375 
L 48.921875 7.03125 
Q 48.921875 -5.078125 46.453125 -10.125 
Q 44 -15.1875 38.640625 -18.109375 
Q 33.296875 -21.046875 25.484375 -21.046875 
Q 16.21875 -21.046875 10.5 -16.875 
Q 4.78125 -12.703125 4.984375 -4.296875 
M 12.25 26.859375 
Q 12.25 16.65625 16.296875 11.96875 
Q 20.359375 7.28125 26.46875 7.28125 
Q 32.515625 7.28125 36.609375 11.9375 
Q 40.71875 16.609375 40.71875 26.5625 
Q 40.71875 36.078125 36.5 40.90625 
Q 32.28125 45.75 26.3125 45.75 
Q 20.453125 45.75 16.34375 40.984375 
Q 12.25 36.234375 12.25 26.859375 
" id="ArialMT-67"/>
     <path d="M 3.078125 15.484375 
L 11.765625 16.84375 
Q 12.5 11.625 15.84375 8.84375 
Q 19.1875 6.0625 25.203125 6.0625 
Q 31.25 6.0625 34.171875 8.515625 
Q 37.109375 10.984375 37.109375 14.3125 
Q 37.109375 17.28125 34.515625 19 
Q 32.71875 20.171875 25.53125 21.96875 
Q 15.875 24.421875 12.140625 26.203125 
Q 8.40625 27.984375 6.46875 31.125 
Q 4.546875 34.28125 4.546875 38.09375 
Q 4.546875 41.546875 6.125 44.5 
Q 7.71875 47.46875 10.453125 49.421875 
Q 12.5 50.921875 16.03125 51.96875 
Q 19.578125 53.03125 23.640625 53.03125 
Q 29.734375 53.03125 34.34375 51.265625 
Q 38.96875 49.515625 41.15625 46.5 
Q 43.359375 43.5 44.1875 38.484375 
L 35.59375 37.3125 
Q 35.015625 41.3125 32.203125 43.546875 
Q 29.390625 45.796875 24.265625 45.796875 
Q 18.21875 45.796875 15.625 43.796875 
Q 13.03125 41.796875 13.03125 39.109375 
Q 13.03125 37.40625 14.109375 36.03125 
Q 15.1875 34.625 17.484375 33.6875 
Q 18.796875 33.203125 25.25 31.453125 
Q 34.578125 28.953125 38.25 27.359375 
Q 41.9375 25.78125 44.03125 22.75 
Q 46.140625 19.734375 46.140625 15.234375 
Q 46.140625 10.84375 43.578125 6.953125 
Q 41.015625 3.078125 36.171875 0.953125 
Q 31.34375 -1.171875 25.25 -1.171875 
Q 15.140625 -1.171875 9.84375 3.03125 
Q 4.546875 7.234375 3.078125 15.484375 
" id="ArialMT-73"/>
     <path d="M 16.15625 0 
L 0.296875 51.859375 
L 9.375 51.859375 
L 17.625 21.921875 
L 20.703125 10.796875 
Q 20.90625 11.625 23.390625 21.484375 
L 31.640625 51.859375 
L 40.671875 51.859375 
L 48.4375 21.78125 
L 51.03125 11.859375 
L 54 21.875 
L 62.890625 51.859375 
L 71.4375 51.859375 
L 55.21875 0 
L 46.09375 0 
L 37.84375 31.0625 
L 35.84375 39.890625 
L 25.34375 0 
z
" id="ArialMT-77"/>
     <path d="M 6.59375 0 
L 6.59375 71.578125 
L 15.375 71.578125 
L 15.375 45.90625 
Q 21.53125 53.03125 30.90625 53.03125 
Q 36.671875 53.03125 40.921875 50.75 
Q 45.171875 48.484375 47 44.484375 
Q 48.828125 40.484375 48.828125 32.859375 
L 48.828125 0 
L 40.046875 0 
L 40.046875 32.859375 
Q 40.046875 39.453125 37.1875 42.453125 
Q 34.328125 45.453125 29.109375 45.453125 
Q 25.203125 45.453125 21.75 43.421875 
Q 18.3125 41.40625 16.84375 37.9375 
Q 15.375 34.46875 15.375 28.375 
L 15.375 0 
z
" id="ArialMT-68"/>
     <path d="M 6.59375 0 
L 6.59375 51.859375 
L 14.453125 51.859375 
L 14.453125 44.578125 
Q 16.890625 48.390625 20.9375 50.703125 
Q 25 53.03125 30.171875 53.03125 
Q 35.9375 53.03125 39.625 50.640625 
Q 43.3125 48.25 44.828125 43.953125 
Q 50.984375 53.03125 60.84375 53.03125 
Q 68.5625 53.03125 72.703125 48.75 
Q 76.859375 44.484375 76.859375 35.59375 
L 76.859375 0 
L 68.109375 0 
L 68.109375 32.671875 
Q 68.109375 37.9375 67.25 40.25 
Q 66.40625 42.578125 64.15625 43.984375 
Q 61.921875 45.40625 58.890625 45.40625 
Q 53.421875 45.40625 49.796875 41.765625 
Q 46.1875 38.140625 46.1875 30.125 
L 46.1875 0 
L 37.40625 0 
L 37.40625 33.6875 
Q 37.40625 39.546875 35.25 42.46875 
Q 33.109375 45.40625 28.21875 45.40625 
Q 24.515625 45.40625 21.359375 43.453125 
Q 18.21875 41.5 16.796875 37.734375 
Q 15.375 33.984375 15.375 26.90625 
L 15.375 0 
z
" id="ArialMT-6d"/>
     <path d="M 40.234375 0 
L 40.234375 6.546875 
Q 35.296875 -1.171875 25.734375 -1.171875 
Q 19.53125 -1.171875 14.328125 2.25 
Q 9.125 5.671875 6.265625 11.796875 
Q 3.421875 17.921875 3.421875 25.875 
Q 3.421875 33.640625 6 39.96875 
Q 8.59375 46.296875 13.765625 49.65625 
Q 18.953125 53.03125 25.34375 53.03125 
Q 30.03125 53.03125 33.6875 51.046875 
Q 37.359375 49.078125 39.65625 45.90625 
L 39.65625 71.578125 
L 48.390625 71.578125 
L 48.390625 0 
z
M 12.453125 25.875 
Q 12.453125 15.921875 16.640625 10.984375 
Q 20.84375 6.0625 26.5625 6.0625 
Q 32.328125 6.0625 36.34375 10.765625 
Q 40.375 15.484375 40.375 25.140625 
Q 40.375 35.796875 36.265625 40.765625 
Q 32.171875 45.75 26.171875 45.75 
Q 20.3125 45.75 16.375 40.96875 
Q 12.453125 36.1875 12.453125 25.875 
" id="ArialMT-64"/>
     <path d="M 40.578125 0 
L 40.578125 7.625 
Q 34.515625 -1.171875 24.125 -1.171875 
Q 19.53125 -1.171875 15.546875 0.578125 
Q 11.578125 2.34375 9.640625 5 
Q 7.71875 7.671875 6.9375 11.53125 
Q 6.390625 14.109375 6.390625 19.734375 
L 6.390625 51.859375 
L 15.1875 51.859375 
L 15.1875 23.09375 
Q 15.1875 16.21875 15.71875 13.8125 
Q 16.546875 10.359375 19.234375 8.375 
Q 21.921875 6.390625 25.875 6.390625 
Q 29.828125 6.390625 33.296875 8.421875 
Q 36.765625 10.453125 38.203125 13.9375 
Q 39.65625 17.4375 39.65625 24.078125 
L 39.65625 51.859375 
L 48.4375 51.859375 
L 48.4375 0 
z
" id="ArialMT-75"/>
    </defs>
    <g style="fill:#262626;" transform="translate(112.85733 83.821714)scale(0.12 -0.12)">
     <use xlink:href="#ArialMT-4c"/>
     <use x="55.615234" xlink:href="#ArialMT-69"/>
     <use x="77.832031" xlink:href="#ArialMT-6e"/>
     <use x="133.447266" xlink:href="#ArialMT-65"/>
     <use x="189.0625" xlink:href="#ArialMT-61"/>
     <use x="244.677734" xlink:href="#ArialMT-72"/>
     <use x="277.978516" xlink:href="#ArialMT-20"/>
     <use x="305.761719" xlink:href="#ArialMT-72"/>
     <use x="339.0625" xlink:href="#ArialMT-65"/>
     <use x="394.677734" xlink:href="#ArialMT-67"/>
     <use x="450.292969" xlink:href="#ArialMT-72"/>
     <use x="483.59375" xlink:href="#ArialMT-65"/>
     <use x="539.208984" xlink:href="#ArialMT-73"/>
     <use x="589.208984" xlink:href="#ArialMT-73"/>
     <use x="639.208984" xlink:href="#ArialMT-69"/>
     <use x="661.425781" xlink:href="#ArialMT-6f"/>
     <use x="717.041016" xlink:href="#ArialMT-6e"/>
     <use x="772.65625" xlink:href="#ArialMT-20"/>
     <use x="800.439453" xlink:href="#ArialMT-77"/>
     <use x="872.65625" xlink:href="#ArialMT-69"/>
     <use x="894.873047" xlink:href="#ArialMT-74"/>
     <use x="922.65625" xlink:href="#ArialMT-68"/>
     <use x="978.271484" xlink:href="#ArialMT-20"/>
     <use x="1006.054688" xlink:href="#ArialMT-6d"/>
     <use x="1089.355469" xlink:href="#ArialMT-61"/>
     <use x="1144.970703" xlink:href="#ArialMT-72"/>
     <use x="1178.271484" xlink:href="#ArialMT-67"/>
     <use x="1233.886719" xlink:href="#ArialMT-69"/>
     <use x="1256.103516" xlink:href="#ArialMT-6e"/>
     <use x="1311.71875" xlink:href="#ArialMT-61"/>
     <use x="1367.333984" xlink:href="#ArialMT-6c"/>
     <use x="1389.550781" xlink:href="#ArialMT-20"/>
     <use x="1417.333984" xlink:href="#ArialMT-64"/>
     <use x="1472.949219" xlink:href="#ArialMT-69"/>
     <use x="1495.166016" xlink:href="#ArialMT-73"/>
     <use x="1545.166016" xlink:href="#ArialMT-74"/>
     <use x="1572.949219" xlink:href="#ArialMT-72"/>
     <use x="1606.25" xlink:href="#ArialMT-69"/>
     <use x="1628.466797" xlink:href="#ArialMT-62"/>
     <use x="1684.082031" xlink:href="#ArialMT-75"/>
     <use x="1739.697266" xlink:href="#ArialMT-74"/>
     <use x="1767.480469" xlink:href="#ArialMT-69"/>
     <use x="1789.697266" xlink:href="#ArialMT-6f"/>
     <use x="1845.3125" xlink:href="#ArialMT-6e"/>
     <use x="1900.927734" xlink:href="#ArialMT-73"/>
    </g>
   </g>
   <g id="legend_1">
    <g id="line2d_30"/>
    <g id="line2d_31"/>
    <g id="text_18">
     <!-- pearsonr = 0.68; p = 6.7e-34 -->
     <defs>
      <path d="M 52.828125 42.09375 
L 5.5625 42.09375 
L 5.5625 50.296875 
L 52.828125 50.296875 
z
M 52.828125 20.359375 
L 5.5625 20.359375 
L 5.5625 28.5625 
L 52.828125 28.5625 
z
" id="ArialMT-3d"/>
      <path d="M 9.078125 0 
L 9.078125 10.015625 
L 19.09375 10.015625 
L 19.09375 0 
z
" id="ArialMT-2e"/>
      <path d="M 8.890625 41.84375 
L 8.890625 51.859375 
L 18.890625 51.859375 
L 18.890625 41.84375 
z
M 8.890625 0 
L 8.890625 10.015625 
L 18.890625 10.015625 
L 18.890625 0 
Q 18.890625 -5.515625 16.9375 -8.90625 
Q 14.984375 -12.3125 10.75 -14.15625 
L 8.296875 -10.40625 
Q 11.078125 -9.1875 12.390625 -6.8125 
Q 13.71875 -4.4375 13.875 0 
z
" id="ArialMT-3b"/>
      <path d="M 4.734375 62.203125 
L 4.734375 70.65625 
L 51.078125 70.65625 
L 51.078125 63.8125 
Q 44.234375 56.546875 37.515625 44.484375 
Q 30.8125 32.421875 27.15625 19.671875 
Q 24.515625 10.6875 23.78125 0 
L 14.75 0 
Q 14.890625 8.453125 18.0625 20.40625 
Q 21.234375 32.375 27.171875 43.484375 
Q 33.109375 54.59375 39.796875 62.203125 
z
" id="ArialMT-37"/>
      <path d="M 3.171875 21.484375 
L 3.171875 30.328125 
L 30.171875 30.328125 
L 30.171875 21.484375 
z
" id="ArialMT-2d"/>
     </defs>
     <g style="fill:#262626;" transform="translate(278.861848 106.009214)scale(0.1 -0.1)">
      <use xlink:href="#ArialMT-70"/>
      <use x="55.615234" xlink:href="#ArialMT-65"/>
      <use x="111.230469" xlink:href="#ArialMT-61"/>
      <use x="166.845703" xlink:href="#ArialMT-72"/>
      <use x="200.146484" xlink:href="#ArialMT-73"/>
      <use x="250.146484" xlink:href="#ArialMT-6f"/>
      <use x="305.761719" xlink:href="#ArialMT-6e"/>
      <use x="361.376953" xlink:href="#ArialMT-72"/>
      <use x="394.677734" xlink:href="#ArialMT-20"/>
      <use x="422.460938" xlink:href="#ArialMT-3d"/>
      <use x="480.859375" xlink:href="#ArialMT-20"/>
      <use x="508.642578" xlink:href="#ArialMT-30"/>
      <use x="564.257812" xlink:href="#ArialMT-2e"/>
      <use x="592.041016" xlink:href="#ArialMT-36"/>
      <use x="647.65625" xlink:href="#ArialMT-38"/>
      <use x="703.271484" xlink:href="#ArialMT-3b"/>
      <use x="731.054688" xlink:href="#ArialMT-20"/>
      <use x="758.837891" xlink:href="#ArialMT-70"/>
      <use x="814.453125" xlink:href="#ArialMT-20"/>
      <use x="842.236328" xlink:href="#ArialMT-3d"/>
      <use x="900.634766" xlink:href="#ArialMT-20"/>
      <use x="928.417969" xlink:href="#ArialMT-36"/>
      <use x="984.033203" xlink:href="#ArialMT-2e"/>
      <use x="1011.816406" xlink:href="#ArialMT-37"/>
      <use x="1067.431641" xlink:href="#ArialMT-65"/>
      <use x="1123.046875" xlink:href="#ArialMT-2d"/>
      <use x="1156.347656" xlink:href="#ArialMT-33"/>
      <use x="1211.962891" xlink:href="#ArialMT-34"/>
     </g>
    </g>
   </g>
  </g>
  <g id="axes_2">
   <g id="patch_5">
    <path d="M 45.2 77.011429 
L 414.610286 77.011429 
L 414.610286 12.96 
L 45.2 12.96 
z
" style="fill:#eaeaf2;"/>
   </g>
   <g id="matplotlib.axis_3">
    <g id="xtick_8">
     <g id="line2d_32">
      <path clip-path="url(#pab85dd76dd)" d="M 45.2 77.011429 
L 45.2 12.96 
" style="fill:none;stroke:#ffffff;stroke-linecap:round;"/>
     </g>
     <g id="line2d_33"/>
    </g>
    <g id="xtick_9">
     <g id="line2d_34">
      <path clip-path="url(#pab85dd76dd)" d="M 106.768381 77.011429 
L 106.768381 12.96 
" style="fill:none;stroke:#ffffff;stroke-linecap:round;"/>
     </g>
     <g id="line2d_35"/>
    </g>
    <g id="xtick_10">
     <g id="line2d_36">
      <path clip-path="url(#pab85dd76dd)" d="M 168.336762 77.011429 
L 168.336762 12.96 
" style="fill:none;stroke:#ffffff;stroke-linecap:round;"/>
     </g>
     <g id="line2d_37"/>
    </g>
    <g id="xtick_11">
     <g id="line2d_38">
      <path clip-path="url(#pab85dd76dd)" d="M 229.905143 77.011429 
L 229.905143 12.96 
" style="fill:none;stroke:#ffffff;stroke-linecap:round;"/>
     </g>
     <g id="line2d_39"/>
    </g>
    <g id="xtick_12">
     <g id="line2d_40">
      <path clip-path="url(#pab85dd76dd)" d="M 291.473524 77.011429 
L 291.473524 12.96 
" style="fill:none;stroke:#ffffff;stroke-linecap:round;"/>
     </g>
     <g id="line2d_41"/>
    </g>
    <g id="xtick_13">
     <g id="line2d_42">
      <path clip-path="url(#pab85dd76dd)" d="M 353.041905 77.011429 
L 353.041905 12.96 
" style="fill:none;stroke:#ffffff;stroke-linecap:round;"/>
     </g>
     <g id="line2d_43"/>
    </g>
    <g id="xtick_14">
     <g id="line2d_44">
      <path clip-path="url(#pab85dd76dd)" d="M 414.610286 77.011429 
L 414.610286 12.96 
" style="fill:none;stroke:#ffffff;stroke-linecap:round;"/>
     </g>
     <g id="line2d_45"/>
    </g>
   </g>
   <g id="matplotlib.axis_4">
    <g id="ytick_8"/>
    <g id="ytick_9"/>
    <g id="ytick_10"/>
   </g>
   <g id="patch_6">
    <path clip-path="url(#pab85dd76dd)" d="M 64.101493 77.011429 
L 85.096311 77.011429 
L 85.096311 74.469705 
L 64.101493 74.469705 
z
" style="opacity:0.4;"/>
   </g>
   <g id="patch_7">
    <path clip-path="url(#pab85dd76dd)" d="M 85.096311 77.011429 
L 106.091129 77.011429 
L 106.091129 59.219365 
L 85.096311 59.219365 
z
" style="opacity:0.4;"/>
   </g>
   <g id="patch_8">
    <path clip-path="url(#pab85dd76dd)" d="M 106.091129 77.011429 
L 127.085947 77.011429 
L 127.085947 19.822653 
L 106.091129 19.822653 
z
" style="opacity:0.4;"/>
   </g>
   <g id="patch_9">
    <path clip-path="url(#pab85dd76dd)" d="M 127.085947 77.011429 
L 148.080765 77.011429 
L 148.080765 16.010068 
L 127.085947 16.010068 
z
" style="opacity:0.4;"/>
   </g>
   <g id="patch_10">
    <path clip-path="url(#pab85dd76dd)" d="M 148.080765 77.011429 
L 169.075582 77.011429 
L 169.075582 27.447823 
L 148.080765 27.447823 
z
" style="opacity:0.4;"/>
   </g>
   <g id="patch_11">
    <path clip-path="url(#pab85dd76dd)" d="M 169.075582 77.011429 
L 190.0704 77.011429 
L 190.0704 38.885578 
L 169.075582 38.885578 
z
" style="opacity:0.4;"/>
   </g>
   <g id="patch_12">
    <path clip-path="url(#pab85dd76dd)" d="M 190.0704 77.011429 
L 211.065218 77.011429 
L 211.065218 50.323333 
L 190.0704 50.323333 
z
" style="opacity:0.4;"/>
   </g>
   <g id="patch_13">
    <path clip-path="url(#pab85dd76dd)" d="M 211.065218 77.011429 
L 232.060036 77.011429 
L 232.060036 57.948503 
L 211.065218 57.948503 
z
" style="opacity:0.4;"/>
   </g>
   <g id="patch_14">
    <path clip-path="url(#pab85dd76dd)" d="M 232.060036 77.011429 
L 253.054854 77.011429 
L 253.054854 65.573673 
L 232.060036 65.573673 
z
" style="opacity:0.4;"/>
   </g>
   <g id="patch_15">
    <path clip-path="url(#pab85dd76dd)" d="M 253.054854 77.011429 
L 274.049672 77.011429 
L 274.049672 68.115397 
L 253.054854 68.115397 
z
" style="opacity:0.4;"/>
   </g>
   <g id="patch_16">
    <path clip-path="url(#pab85dd76dd)" d="M 274.049672 77.011429 
L 295.04449 77.011429 
L 295.04449 69.386259 
L 274.049672 69.386259 
z
" style="opacity:0.4;"/>
   </g>
   <g id="patch_17">
    <path clip-path="url(#pab85dd76dd)" d="M 295.04449 77.011429 
L 316.039308 77.011429 
L 316.039308 74.469705 
L 295.04449 74.469705 
z
" style="opacity:0.4;"/>
   </g>
   <g id="patch_18">
    <path clip-path="url(#pab85dd76dd)" d="M 316.039308 77.011429 
L 337.034126 77.011429 
L 337.034126 74.469705 
L 316.039308 74.469705 
z
" style="opacity:0.4;"/>
   </g>
   <g id="patch_19">
    <path clip-path="url(#pab85dd76dd)" d="M 337.034126 77.011429 
L 358.028944 77.011429 
L 358.028944 71.927982 
L 337.034126 71.927982 
z
" style="opacity:0.4;"/>
   </g>
   <g id="line2d_46">
    <path clip-path="url(#pab85dd76dd)" d="M 9.448125 77.004371 
L 13.521197 76.997746 
L 17.59427 76.986046 
L 21.667342 76.966293 
L 25.740415 76.934321 
L 29.813488 76.88451 
L 33.88656 76.809444 
L 37.959633 76.699356 
L 42.032705 76.541204 
L 46.105778 76.317252 
L 50.178851 76.003165 
L 54.251923 75.565941 
L 58.324996 74.962273 
L 62.398068 74.138254 
L 66.471141 73.031318 
L 70.544214 71.575036 
L 74.617286 69.706801 
L 78.690359 67.377602 
L 82.763431 64.562409 
L 86.836504 61.269163 
L 90.909577 57.544338 
L 94.982649 53.473462 
L 99.055722 49.175828 
L 103.128794 44.793856 
L 107.201867 40.478753 
L 111.27494 36.375221 
L 115.348012 32.608377 
L 119.421085 29.275649 
L 123.494157 26.445094 
L 127.56723 24.159644 
L 131.640303 22.444816 
L 135.713375 21.316279 
L 139.786448 20.783881 
L 143.85952 20.850381 
L 147.932593 21.505545 
L 152.005666 22.7185 
L 156.078738 24.432118 
L 160.151811 26.562525 
L 164.224883 29.004815 
L 168.297956 31.643798 
L 172.371029 34.366915 
L 176.444101 37.076093 
L 180.517174 39.695961 
L 184.590246 42.177162 
L 188.663319 44.494903 
L 192.736392 46.64396 
L 196.809464 48.631896 
L 200.882537 50.472401 
L 204.955609 52.180187 
L 209.028682 53.768201 
L 213.101755 55.247028 
L 217.174827 56.625702 
L 221.2479 57.912913 
L 225.320972 59.117809 
L 229.394045 60.250089 
L 233.467118 61.319557 
L 237.54019 62.335474 
L 241.613263 63.305934 
L 245.686335 64.23724 
L 249.759408 65.133153 
L 253.832481 65.994056 
L 257.905553 66.816416 
L 261.978626 67.593128 
L 266.051698 68.315151 
L 270.124771 68.974278 
L 274.197844 69.566209 
L 278.270916 70.092701 
L 282.343989 70.561753 
L 286.417061 70.985567 
L 290.490134 71.37697 
L 294.563207 71.745635 
L 298.636279 72.095503 
L 302.709352 72.424292 
L 306.782424 72.725094 
L 310.855497 72.989401 
L 314.92857 73.210521 
L 319.001642 73.386449 
L 323.074715 73.521553 
L 327.147787 73.626802 
L 331.22086 73.718524 
L 335.293933 73.815901 
L 339.367005 73.937652 
L 343.440078 74.098539 
L 347.51315 74.306489 
L 351.586223 74.561064 
L 355.659296 74.85367 
L 359.732368 75.169444 
L 363.805441 75.490267 
L 367.878513 75.798107 
L 371.951586 76.077878 
L 376.024659 76.319274 
L 380.097731 76.517385 
L 384.170804 76.672239 
L 388.243876 76.787629 
L 392.316949 76.869639 
L 396.390022 76.925244 
L 400.463094 76.961213 
L 404.536167 76.983405 
L 408.609239 76.996462 
L 412.682312 77.003784 
" style="fill:none;stroke:#000000;stroke-linecap:round;stroke-width:1.75;"/>
   </g>
   <g id="patch_20">
    <path d="M 45.2 77.011429 
L 414.610286 77.011429 
" style="fill:none;"/>
   </g>
  </g>
  <g id="axes_3">
   <g id="patch_21">
    <path d="M 427.348571 461.32 
L 491.04 461.32 
L 491.04 89.821714 
L 427.348571 89.821714 
z
" style="fill:#eaeaf2;"/>
   </g>
   <g id="matplotlib.axis_5">
    <g id="xtick_15"/>
    <g id="xtick_16"/>
   </g>
   <g id="matplotlib.axis_6">
    <g id="ytick_11">
     <g id="line2d_47">
      <path clip-path="url(#p3a8c024a0b)" d="M 427.348571 461.32 
L 491.04 461.32 
" style="fill:none;stroke:#ffffff;stroke-linecap:round;"/>
     </g>
     <g id="line2d_48"/>
    </g>
    <g id="ytick_12">
     <g id="line2d_49">
      <path clip-path="url(#p3a8c024a0b)" d="M 427.348571 399.403619 
L 491.04 399.403619 
" style="fill:none;stroke:#ffffff;stroke-linecap:round;"/>
     </g>
     <g id="line2d_50"/>
    </g>
    <g id="ytick_13">
     <g id="line2d_51">
      <path clip-path="url(#p3a8c024a0b)" d="M 427.348571 337.487238 
L 491.04 337.487238 
" style="fill:none;stroke:#ffffff;stroke-linecap:round;"/>
     </g>
     <g id="line2d_52"/>
    </g>
    <g id="ytick_14">
     <g id="line2d_53">
      <path clip-path="url(#p3a8c024a0b)" d="M 427.348571 275.570857 
L 491.04 275.570857 
" style="fill:none;stroke:#ffffff;stroke-linecap:round;"/>
     </g>
     <g id="line2d_54"/>
    </g>
    <g id="ytick_15">
     <g id="line2d_55">
      <path clip-path="url(#p3a8c024a0b)" d="M 427.348571 213.654476 
L 491.04 213.654476 
" style="fill:none;stroke:#ffffff;stroke-linecap:round;"/>
     </g>
     <g id="line2d_56"/>
    </g>
    <g id="ytick_16">
     <g id="line2d_57">
      <path clip-path="url(#p3a8c024a0b)" d="M 427.348571 151.738095 
L 491.04 151.738095 
" style="fill:none;stroke:#ffffff;stroke-linecap:round;"/>
     </g>
     <g id="line2d_58"/>
    </g>
    <g id="ytick_17">
     <g id="line2d_59">
      <path clip-path="url(#p3a8c024a0b)" d="M 427.348571 89.821714 
L 491.04 89.821714 
" style="fill:none;stroke:#ffffff;stroke-linecap:round;"/>
     </g>
     <g id="line2d_60"/>
    </g>
   </g>
   <g id="patch_22">
    <path clip-path="url(#p3a8c024a0b)" d="M 427.348571 430.36181 
L 446.805073 430.36181 
L 446.805073 414.882714 
L 427.348571 414.882714 
z
" style="opacity:0.4;"/>
   </g>
   <g id="patch_23">
    <path clip-path="url(#p3a8c024a0b)" d="M 427.348571 414.882714 
L 459.394573 414.882714 
L 459.394573 399.403619 
L 427.348571 399.403619 
z
" style="opacity:0.4;"/>
   </g>
   <g id="patch_24">
    <path clip-path="url(#p3a8c024a0b)" d="M 427.348571 399.403619 
L 488.007075 399.403619 
L 488.007075 383.924524 
L 427.348571 383.924524 
z
" style="opacity:0.4;"/>
   </g>
   <g id="patch_25">
    <path clip-path="url(#p3a8c024a0b)" d="M 427.348571 383.924524 
L 455.961073 383.924524 
L 455.961073 368.445429 
L 427.348571 368.445429 
z
" style="opacity:0.4;"/>
   </g>
   <g id="patch_26">
    <path clip-path="url(#p3a8c024a0b)" d="M 427.348571 368.445429 
L 483.429075 368.445429 
L 483.429075 352.966333 
L 427.348571 352.966333 
z
" style="opacity:0.4;"/>
   </g>
   <g id="patch_27">
    <path clip-path="url(#p3a8c024a0b)" d="M 427.348571 352.966333 
L 449.094073 352.966333 
L 449.094073 337.487238 
L 427.348571 337.487238 
z
" style="opacity:0.4;"/>
   </g>
   <g id="patch_28">
    <path clip-path="url(#p3a8c024a0b)" d="M 427.348571 337.487238 
L 451.383073 337.487238 
L 451.383073 322.008143 
L 427.348571 322.008143 
z
" style="opacity:0.4;"/>
   </g>
   <g id="patch_29">
    <path clip-path="url(#p3a8c024a0b)" d="M 427.348571 322.008143 
L 431.926572 322.008143 
L 431.926572 306.529048 
L 427.348571 306.529048 
z
" style="opacity:0.4;"/>
   </g>
   <g id="patch_30">
    <path clip-path="url(#p3a8c024a0b)" d="M 427.348571 306.529048 
L 445.660572 306.529048 
L 445.660572 291.049952 
L 427.348571 291.049952 
z
" style="opacity:0.4;"/>
   </g>
   <g id="patch_31">
    <path clip-path="url(#p3a8c024a0b)" d="M 427.348571 291.049952 
L 431.926572 291.049952 
L 431.926572 275.570857 
L 427.348571 275.570857 
z
" style="opacity:0.4;"/>
   </g>
   <g id="patch_32">
    <path clip-path="url(#p3a8c024a0b)" d="M 427.348571 275.570857 
L 428.493071 275.570857 
L 428.493071 260.091762 
L 427.348571 260.091762 
z
" style="opacity:0.4;"/>
   </g>
   <g id="patch_33">
    <path clip-path="url(#p3a8c024a0b)" d="M 427.348571 260.091762 
L 431.926572 260.091762 
L 431.926572 244.612667 
L 427.348571 244.612667 
z
" style="opacity:0.4;"/>
   </g>
   <g id="patch_34">
    <path clip-path="url(#p3a8c024a0b)" d="M 427.348571 244.612667 
L 427.348571 244.612667 
L 427.348571 229.133571 
L 427.348571 229.133571 
z
" style="opacity:0.4;"/>
   </g>
   <g id="patch_35">
    <path clip-path="url(#p3a8c024a0b)" d="M 427.348571 229.133571 
L 428.493071 229.133571 
L 428.493071 213.654476 
L 427.348571 213.654476 
z
" style="opacity:0.4;"/>
   </g>
   <g id="patch_36">
    <path clip-path="url(#p3a8c024a0b)" d="M 427.348571 213.654476 
L 427.348571 213.654476 
L 427.348571 198.175381 
L 427.348571 198.175381 
z
" style="opacity:0.4;"/>
   </g>
   <g id="patch_37">
    <path clip-path="url(#p3a8c024a0b)" d="M 427.348571 198.175381 
L 427.348571 198.175381 
L 427.348571 182.696286 
L 427.348571 182.696286 
z
" style="opacity:0.4;"/>
   </g>
   <g id="patch_38">
    <path clip-path="url(#p3a8c024a0b)" d="M 427.348571 182.696286 
L 428.493071 182.696286 
L 428.493071 167.21719 
L 427.348571 167.21719 
z
" style="opacity:0.4;"/>
   </g>
   <g id="patch_39">
    <path clip-path="url(#p3a8c024a0b)" d="M 427.348571 167.21719 
L 428.493071 167.21719 
L 428.493071 151.738095 
L 427.348571 151.738095 
z
" style="opacity:0.4;"/>
   </g>
   <g id="line2d_61">
    <path clip-path="url(#p3a8c024a0b)" d="M 427.38712 473.073781 
L 427.433048 469.396532 
L 427.523171 465.719283 
L 427.689448 462.042034 
L 427.978319 458.364785 
L 428.451751 454.687536 
L 429.185315 451.010287 
L 430.262647 447.333038 
L 431.766578 443.655789 
L 433.768273 439.97854 
L 436.316125 436.301291 
L 439.425774 432.624042 
L 443.071487 428.946793 
L 447.178243 425.269543 
L 451.614286 421.592294 
L 456.186232 417.915045 
L 460.642354 414.237796 
L 464.691772 410.560547 
L 468.044881 406.883298 
L 470.471798 403.206049 
L 471.863655 399.5288 
L 472.272848 395.851551 
L 471.91006 392.174302 
L 471.090279 388.497053 
L 470.141692 384.819804 
L 469.30921 381.142555 
L 468.688771 377.465306 
L 468.21644 373.788056 
L 467.713506 370.110807 
L 466.966255 366.433558 
L 465.807049 362.756309 
L 464.166522 359.07906 
L 462.082321 355.401811 
L 459.669746 351.724562 
L 457.074386 348.047313 
L 454.430496 344.370064 
L 451.841052 340.692815 
L 449.381285 337.015566 
L 447.114557 333.338317 
L 445.104266 329.661068 
L 443.410024 325.983819 
L 442.067867 322.306569 
L 441.06584 318.62932 
L 440.331194 314.952071 
L 439.740663 311.274822 
L 439.153318 307.597573 
L 438.453188 303.920324 
L 437.58331 300.243075 
L 436.557048 296.565826 
L 435.443892 292.888577 
L 434.338672 289.211328 
L 433.328921 285.534079 
L 432.47273 281.85683 
L 431.791775 278.179581 
L 431.276395 274.502332 
L 430.896117 270.825082 
L 430.610123 267.147833 
L 430.375647 263.470584 
L 430.15479 259.793335 
L 429.920425 256.116086 
L 429.660468 252.438837 
L 429.378725 248.761588 
L 429.091188 245.084339 
L 428.818637 241.40709 
L 428.578415 237.729841 
L 428.378744 234.052592 
L 428.217655 230.375343 
L 428.086302 226.698094 
L 427.974483 223.020845 
L 427.875571 219.343596 
L 427.788868 215.666346 
L 427.718879 211.989097 
L 427.672393 208.311848 
L 427.654845 204.634599 
L 427.667356 200.95735 
L 427.705353 197.280101 
L 427.759122 193.602852 
L 427.81612 189.925603 
L 427.864403 186.248354 
L 427.896074 182.571105 
L 427.909452 178.893856 
L 427.908991 175.216607 
L 427.902813 171.539358 
L 427.898763 167.862109 
L 427.900673 164.184859 
L 427.9065 160.50761 
L 427.909151 156.830361 
L 427.899584 153.153112 
L 427.870704 149.475863 
L 427.820319 145.798614 
L 427.751968 142.121365 
L 427.67353 138.444116 
L 427.594481 134.766867 
L 427.523097 131.089618 
L 427.464624 127.412369 
L 427.420836 123.73512 
L 427.390695 120.057871 
L 427.371553 116.380622 
L 427.360306 112.703372 
L 427.354178 109.026123 
" style="fill:none;stroke:#000000;stroke-linecap:round;stroke-width:1.75;"/>
   </g>
   <g id="patch_40">
    <path d="M 427.348571 461.32 
L 427.348571 89.821714 
" style="fill:none;"/>
   </g>
  </g>
 </g>
 <defs>
  <clipPath id="pdec27c5903">
   <rect height="371.498286" width="369.410286" x="45.2" y="89.821714"/>
  </clipPath>
  <clipPath id="pab85dd76dd">
   <rect height="64.051429" width="369.410286" x="45.2" y="12.96"/>
  </clipPath>
  <clipPath id="p3a8c024a0b">
   <rect height="371.498286" width="63.691429" x="427.348571" y="89.821714"/>
  </clipPath>
 </defs>
</svg>
