<?xml version="1.0" encoding="utf-8" standalone="no"?>
<!DOCTYPE svg PUBLIC "-//W3C//DTD SVG 1.1//EN"
  "http://www.w3.org/Graphics/SVG/1.1/DTD/svg11.dtd">
<!-- Created with matplotlib (http://matplotlib.org/) -->
<svg height="396pt" version="1.1" viewBox="0 0 576 396" width="576pt" xmlns="http://www.w3.org/2000/svg" xmlns:xlink="http://www.w3.org/1999/xlink">
 <defs>
  <style type="text/css">
*{stroke-linecap:butt;stroke-linejoin:round;stroke-miterlimit:100000;}
  </style>
 </defs>
 <g id="figure_1">
  <g id="patch_1">
   <path d="M 0 396 
L 576 396 
L 576 0 
L 0 0 
z
" style="fill:#ffffff;"/>
  </g>
  <g id="axes_1">
   <g id="patch_2">
    <path d="M 72 356.4 
L 518.4 356.4 
L 518.4 39.6 
L 72 39.6 
z
" style="fill:#ffffff;"/>
   </g>
   <g id="matplotlib.axis_1">
    <g id="xtick_1">
     <g id="line2d_1">
      <path clip-path="url(#pfffafed0ae)" d="M 72 356.4 
L 72 39.6 
" style="fill:none;stroke:#cccccc;stroke-linecap:round;"/>
     </g>
     <g id="line2d_2"/>
     <g id="line2d_3"/>
     <g id="text_1">
      <!-- 0 -->
      <defs>
       <path d="M 4.15625 35.296875 
Q 4.15625 48 6.765625 55.734375 
Q 9.375 63.484375 14.515625 67.671875 
Q 19.671875 71.875 27.484375 71.875 
Q 33.25 71.875 37.59375 69.546875 
Q 41.9375 67.234375 44.765625 62.859375 
Q 47.609375 58.5 49.21875 52.21875 
Q 50.828125 45.953125 50.828125 35.296875 
Q 50.828125 22.703125 48.234375 14.96875 
Q 45.65625 7.234375 40.5 3 
Q 35.359375 -1.21875 27.484375 -1.21875 
Q 17.140625 -1.21875 11.234375 6.203125 
Q 4.15625 15.140625 4.15625 35.296875 
M 13.1875 35.296875 
Q 13.1875 17.671875 17.3125 11.828125 
Q 21.4375 6 27.484375 6 
Q 33.546875 6 37.671875 11.859375 
Q 41.796875 17.71875 41.796875 35.296875 
Q 41.796875 52.984375 37.671875 58.78125 
Q 33.546875 64.59375 27.390625 64.59375 
Q 21.34375 64.59375 17.71875 59.46875 
Q 13.1875 52.9375 13.1875 35.296875 
" id="ArialMT-30"/>
      </defs>
      <g style="fill:#262626;" transform="translate(69.21953125 370.5578125)scale(0.1 -0.1)">
       <use xlink:href="#ArialMT-30"/>
      </g>
     </g>
    </g>
    <g id="xtick_2">
     <g id="line2d_4">
      <path clip-path="url(#pfffafed0ae)" d="M 146.4 356.4 
L 146.4 39.6 
" style="fill:none;stroke:#cccccc;stroke-linecap:round;"/>
     </g>
     <g id="line2d_5"/>
     <g id="line2d_6"/>
     <g id="text_2">
      <!-- 10 -->
      <defs>
       <path d="M 37.25 0 
L 28.46875 0 
L 28.46875 56 
Q 25.296875 52.984375 20.140625 49.953125 
Q 14.984375 46.921875 10.890625 45.40625 
L 10.890625 53.90625 
Q 18.265625 57.375 23.78125 62.296875 
Q 29.296875 67.234375 31.59375 71.875 
L 37.25 71.875 
z
" id="ArialMT-31"/>
      </defs>
      <g style="fill:#262626;" transform="translate(140.8390625 370.5578125)scale(0.1 -0.1)">
       <use xlink:href="#ArialMT-31"/>
       <use x="55.615234375" xlink:href="#ArialMT-30"/>
      </g>
     </g>
    </g>
    <g id="xtick_3">
     <g id="line2d_7">
      <path clip-path="url(#pfffafed0ae)" d="M 220.8 356.4 
L 220.8 39.6 
" style="fill:none;stroke:#cccccc;stroke-linecap:round;"/>
     </g>
     <g id="line2d_8"/>
     <g id="line2d_9"/>
     <g id="text_3">
      <!-- 20 -->
      <defs>
       <path d="M 50.34375 8.453125 
L 50.34375 0 
L 3.03125 0 
Q 2.9375 3.171875 4.046875 6.109375 
Q 5.859375 10.9375 9.828125 15.625 
Q 13.8125 20.3125 21.34375 26.46875 
Q 33.015625 36.03125 37.109375 41.625 
Q 41.21875 47.21875 41.21875 52.203125 
Q 41.21875 57.421875 37.46875 61 
Q 33.734375 64.59375 27.734375 64.59375 
Q 21.390625 64.59375 17.578125 60.78125 
Q 13.765625 56.984375 13.71875 50.25 
L 4.6875 51.171875 
Q 5.609375 61.28125 11.65625 66.578125 
Q 17.71875 71.875 27.9375 71.875 
Q 38.234375 71.875 44.234375 66.15625 
Q 50.25 60.453125 50.25 52 
Q 50.25 47.703125 48.484375 43.546875 
Q 46.734375 39.40625 42.65625 34.8125 
Q 38.578125 30.21875 29.109375 22.21875 
Q 21.1875 15.578125 18.9375 13.203125 
Q 16.703125 10.84375 15.234375 8.453125 
z
" id="ArialMT-32"/>
      </defs>
      <g style="fill:#262626;" transform="translate(215.2390625 370.5578125)scale(0.1 -0.1)">
       <use xlink:href="#ArialMT-32"/>
       <use x="55.615234375" xlink:href="#ArialMT-30"/>
      </g>
     </g>
    </g>
    <g id="xtick_4">
     <g id="line2d_10">
      <path clip-path="url(#pfffafed0ae)" d="M 295.2 356.4 
L 295.2 39.6 
" style="fill:none;stroke:#cccccc;stroke-linecap:round;"/>
     </g>
     <g id="line2d_11"/>
     <g id="line2d_12"/>
     <g id="text_4">
      <!-- 30 -->
      <defs>
       <path d="M 4.203125 18.890625 
L 12.984375 20.0625 
Q 14.5 12.59375 18.140625 9.296875 
Q 21.78125 6 27 6 
Q 33.203125 6 37.46875 10.296875 
Q 41.75 14.59375 41.75 20.953125 
Q 41.75 27 37.796875 30.921875 
Q 33.84375 34.859375 27.734375 34.859375 
Q 25.25 34.859375 21.53125 33.890625 
L 22.515625 41.609375 
Q 23.390625 41.5 23.921875 41.5 
Q 29.546875 41.5 34.03125 44.421875 
Q 38.53125 47.359375 38.53125 53.46875 
Q 38.53125 58.296875 35.25 61.46875 
Q 31.984375 64.65625 26.8125 64.65625 
Q 21.6875 64.65625 18.265625 61.421875 
Q 14.84375 58.203125 13.875 51.765625 
L 5.078125 53.328125 
Q 6.6875 62.15625 12.390625 67.015625 
Q 18.109375 71.875 26.609375 71.875 
Q 32.46875 71.875 37.390625 69.359375 
Q 42.328125 66.84375 44.9375 62.5 
Q 47.5625 58.15625 47.5625 53.265625 
Q 47.5625 48.640625 45.0625 44.828125 
Q 42.578125 41.015625 37.703125 38.765625 
Q 44.046875 37.3125 47.5625 32.6875 
Q 51.078125 28.078125 51.078125 21.140625 
Q 51.078125 11.765625 44.234375 5.25 
Q 37.40625 -1.265625 26.953125 -1.265625 
Q 17.53125 -1.265625 11.296875 4.34375 
Q 5.078125 9.96875 4.203125 18.890625 
" id="ArialMT-33"/>
      </defs>
      <g style="fill:#262626;" transform="translate(289.6390625 370.5578125)scale(0.1 -0.1)">
       <use xlink:href="#ArialMT-33"/>
       <use x="55.615234375" xlink:href="#ArialMT-30"/>
      </g>
     </g>
    </g>
    <g id="xtick_5">
     <g id="line2d_13">
      <path clip-path="url(#pfffafed0ae)" d="M 369.6 356.4 
L 369.6 39.6 
" style="fill:none;stroke:#cccccc;stroke-linecap:round;"/>
     </g>
     <g id="line2d_14"/>
     <g id="line2d_15"/>
     <g id="text_5">
      <!-- 40 -->
      <defs>
       <path d="M 32.328125 0 
L 32.328125 17.140625 
L 1.265625 17.140625 
L 1.265625 25.203125 
L 33.9375 71.578125 
L 41.109375 71.578125 
L 41.109375 25.203125 
L 50.78125 25.203125 
L 50.78125 17.140625 
L 41.109375 17.140625 
L 41.109375 0 
z
M 32.328125 25.203125 
L 32.328125 57.46875 
L 9.90625 25.203125 
z
" id="ArialMT-34"/>
      </defs>
      <g style="fill:#262626;" transform="translate(364.0390625 370.5578125)scale(0.1 -0.1)">
       <use xlink:href="#ArialMT-34"/>
       <use x="55.615234375" xlink:href="#ArialMT-30"/>
      </g>
     </g>
    </g>
    <g id="xtick_6">
     <g id="line2d_16">
      <path clip-path="url(#pfffafed0ae)" d="M 444 356.4 
L 444 39.6 
" style="fill:none;stroke:#cccccc;stroke-linecap:round;"/>
     </g>
     <g id="line2d_17"/>
     <g id="line2d_18"/>
     <g id="text_6">
      <!-- 50 -->
      <defs>
       <path d="M 4.15625 18.75 
L 13.375 19.53125 
Q 14.40625 12.796875 18.140625 9.390625 
Q 21.875 6 27.15625 6 
Q 33.5 6 37.890625 10.78125 
Q 42.28125 15.578125 42.28125 23.484375 
Q 42.28125 31 38.0625 35.34375 
Q 33.84375 39.703125 27 39.703125 
Q 22.75 39.703125 19.328125 37.765625 
Q 15.921875 35.84375 13.96875 32.765625 
L 5.71875 33.84375 
L 12.640625 70.609375 
L 48.25 70.609375 
L 48.25 62.203125 
L 19.671875 62.203125 
L 15.828125 42.96875 
Q 22.265625 47.46875 29.34375 47.46875 
Q 38.71875 47.46875 45.15625 40.96875 
Q 51.609375 34.46875 51.609375 24.265625 
Q 51.609375 14.546875 45.953125 7.46875 
Q 39.0625 -1.21875 27.15625 -1.21875 
Q 17.390625 -1.21875 11.203125 4.25 
Q 5.03125 9.71875 4.15625 18.75 
" id="ArialMT-35"/>
      </defs>
      <g style="fill:#262626;" transform="translate(438.4390625 370.5578125)scale(0.1 -0.1)">
       <use xlink:href="#ArialMT-35"/>
       <use x="55.615234375" xlink:href="#ArialMT-30"/>
      </g>
     </g>
    </g>
    <g id="xtick_7">
     <g id="line2d_19">
      <path clip-path="url(#pfffafed0ae)" d="M 518.4 356.4 
L 518.4 39.6 
" style="fill:none;stroke:#cccccc;stroke-linecap:round;"/>
     </g>
     <g id="line2d_20"/>
     <g id="line2d_21"/>
     <g id="text_7">
      <!-- 60 -->
      <defs>
       <path d="M 49.75 54.046875 
L 41.015625 53.375 
Q 39.84375 58.546875 37.703125 60.890625 
Q 34.125 64.65625 28.90625 64.65625 
Q 24.703125 64.65625 21.53125 62.3125 
Q 17.390625 59.28125 14.984375 53.46875 
Q 12.59375 47.65625 12.5 36.921875 
Q 15.671875 41.75 20.265625 44.09375 
Q 24.859375 46.4375 29.890625 46.4375 
Q 38.671875 46.4375 44.84375 39.96875 
Q 51.03125 33.5 51.03125 23.25 
Q 51.03125 16.5 48.125 10.71875 
Q 45.21875 4.9375 40.140625 1.859375 
Q 35.0625 -1.21875 28.609375 -1.21875 
Q 17.625 -1.21875 10.6875 6.859375 
Q 3.765625 14.9375 3.765625 33.5 
Q 3.765625 54.25 11.421875 63.671875 
Q 18.109375 71.875 29.4375 71.875 
Q 37.890625 71.875 43.28125 67.140625 
Q 48.6875 62.40625 49.75 54.046875 
M 13.875 23.1875 
Q 13.875 18.65625 15.796875 14.5 
Q 17.71875 10.359375 21.1875 8.171875 
Q 24.65625 6 28.46875 6 
Q 34.03125 6 38.03125 10.484375 
Q 42.046875 14.984375 42.046875 22.703125 
Q 42.046875 30.125 38.078125 34.390625 
Q 34.125 38.671875 28.125 38.671875 
Q 22.171875 38.671875 18.015625 34.390625 
Q 13.875 30.125 13.875 23.1875 
" id="ArialMT-36"/>
      </defs>
      <g style="fill:#262626;" transform="translate(512.8390625 370.5578125)scale(0.1 -0.1)">
       <use xlink:href="#ArialMT-36"/>
       <use x="55.615234375" xlink:href="#ArialMT-30"/>
      </g>
     </g>
    </g>
    <g id="text_8">
     <!-- total_bill -->
     <defs>
      <path d="M 14.703125 0 
L 6.546875 0 
L 6.546875 71.578125 
L 15.328125 71.578125 
L 15.328125 46.046875 
Q 20.90625 53.03125 29.546875 53.03125 
Q 34.328125 53.03125 38.59375 51.09375 
Q 42.875 49.171875 45.625 45.671875 
Q 48.390625 42.1875 49.953125 37.25 
Q 51.515625 32.328125 51.515625 26.703125 
Q 51.515625 13.375 44.921875 6.09375 
Q 38.328125 -1.171875 29.109375 -1.171875 
Q 19.921875 -1.171875 14.703125 6.5 
z
M 14.59375 26.3125 
Q 14.59375 17 17.140625 12.84375 
Q 21.296875 6.0625 28.375 6.0625 
Q 34.125 6.0625 38.328125 11.0625 
Q 42.53125 16.0625 42.53125 25.984375 
Q 42.53125 36.140625 38.5 40.96875 
Q 34.46875 45.796875 28.765625 45.796875 
Q 23 45.796875 18.796875 40.796875 
Q 14.59375 35.796875 14.59375 26.3125 
" id="ArialMT-62"/>
      <path d="M 40.4375 6.390625 
Q 35.546875 2.25 31.03125 0.53125 
Q 26.515625 -1.171875 21.34375 -1.171875 
Q 12.796875 -1.171875 8.203125 3 
Q 3.609375 7.171875 3.609375 13.671875 
Q 3.609375 17.484375 5.34375 20.625 
Q 7.078125 23.78125 9.890625 25.6875 
Q 12.703125 27.59375 16.21875 28.5625 
Q 18.796875 29.25 24.03125 29.890625 
Q 34.671875 31.15625 39.703125 32.90625 
Q 39.75 34.71875 39.75 35.203125 
Q 39.75 40.578125 37.25 42.78125 
Q 33.890625 45.75 27.25 45.75 
Q 21.046875 45.75 18.09375 43.578125 
Q 15.140625 41.40625 13.71875 35.890625 
L 5.125 37.0625 
Q 6.296875 42.578125 8.984375 45.96875 
Q 11.671875 49.359375 16.75 51.1875 
Q 21.828125 53.03125 28.515625 53.03125 
Q 35.15625 53.03125 39.296875 51.46875 
Q 43.453125 49.90625 45.40625 47.53125 
Q 47.359375 45.171875 48.140625 41.546875 
Q 48.578125 39.3125 48.578125 33.453125 
L 48.578125 21.734375 
Q 48.578125 9.46875 49.140625 6.21875 
Q 49.703125 2.984375 51.375 0 
L 42.1875 0 
Q 40.828125 2.734375 40.4375 6.390625 
M 39.703125 26.03125 
Q 34.90625 24.078125 25.34375 22.703125 
Q 19.921875 21.921875 17.671875 20.9375 
Q 15.4375 19.96875 14.203125 18.09375 
Q 12.984375 16.21875 12.984375 13.921875 
Q 12.984375 10.40625 15.640625 8.0625 
Q 18.3125 5.71875 23.4375 5.71875 
Q 28.515625 5.71875 32.46875 7.9375 
Q 36.421875 10.15625 38.28125 14.015625 
Q 39.703125 17 39.703125 22.796875 
z
" id="ArialMT-61"/>
      <path d="M 25.78125 7.859375 
L 27.046875 0.09375 
Q 23.34375 -0.6875 20.40625 -0.6875 
Q 15.625 -0.6875 12.984375 0.828125 
Q 10.359375 2.34375 9.28125 4.8125 
Q 8.203125 7.28125 8.203125 15.1875 
L 8.203125 45.015625 
L 1.765625 45.015625 
L 1.765625 51.859375 
L 8.203125 51.859375 
L 8.203125 64.703125 
L 16.9375 69.96875 
L 16.9375 51.859375 
L 25.78125 51.859375 
L 25.78125 45.015625 
L 16.9375 45.015625 
L 16.9375 14.703125 
Q 16.9375 10.9375 17.40625 9.859375 
Q 17.875 8.796875 18.921875 8.15625 
Q 19.96875 7.515625 21.921875 7.515625 
Q 23.390625 7.515625 25.78125 7.859375 
" id="ArialMT-74"/>
      <path d="M 6.640625 61.46875 
L 6.640625 71.578125 
L 15.4375 71.578125 
L 15.4375 61.46875 
z
M 6.640625 0 
L 6.640625 51.859375 
L 15.4375 51.859375 
L 15.4375 0 
z
" id="ArialMT-69"/>
      <path d="M 6.390625 0 
L 6.390625 71.578125 
L 15.1875 71.578125 
L 15.1875 0 
z
" id="ArialMT-6c"/>
      <path d="M 3.328125 25.921875 
Q 3.328125 40.328125 11.328125 47.265625 
Q 18.015625 53.03125 27.640625 53.03125 
Q 38.328125 53.03125 45.109375 46.015625 
Q 51.90625 39.015625 51.90625 26.65625 
Q 51.90625 16.65625 48.90625 10.90625 
Q 45.90625 5.171875 40.15625 2 
Q 34.421875 -1.171875 27.640625 -1.171875 
Q 16.75 -1.171875 10.03125 5.8125 
Q 3.328125 12.796875 3.328125 25.921875 
M 12.359375 25.921875 
Q 12.359375 15.96875 16.703125 11.015625 
Q 21.046875 6.0625 27.640625 6.0625 
Q 34.1875 6.0625 38.53125 11.03125 
Q 42.875 16.015625 42.875 26.21875 
Q 42.875 35.84375 38.5 40.796875 
Q 34.125 45.75 27.640625 45.75 
Q 21.046875 45.75 16.703125 40.8125 
Q 12.359375 35.890625 12.359375 25.921875 
" id="ArialMT-6f"/>
      <path d="M -1.515625 -19.875 
L -1.515625 -13.53125 
L 56.734375 -13.53125 
L 56.734375 -19.875 
z
" id="ArialMT-5f"/>
     </defs>
     <g style="fill:#262626;" transform="translate(275.021875 385.41890625)scale(0.11 -0.11)">
      <use xlink:href="#ArialMT-74"/>
      <use x="27.783203125" xlink:href="#ArialMT-6f"/>
      <use x="83.3984375" xlink:href="#ArialMT-74"/>
      <use x="111.181640625" xlink:href="#ArialMT-61"/>
      <use x="166.796875" xlink:href="#ArialMT-6c"/>
      <use x="189.013671875" xlink:href="#ArialMT-5f"/>
      <use x="244.62890625" xlink:href="#ArialMT-62"/>
      <use x="300.244140625" xlink:href="#ArialMT-69"/>
      <use x="322.4609375" xlink:href="#ArialMT-6c"/>
      <use x="344.677734375" xlink:href="#ArialMT-6c"/>
     </g>
    </g>
   </g>
   <g id="matplotlib.axis_2">
    <g id="ytick_1">
     <g id="line2d_22"/>
     <g id="line2d_23"/>
     <g id="text_9">
      <!-- Sun -->
      <defs>
       <path d="M 4.5 23 
L 13.421875 23.78125 
Q 14.0625 18.40625 16.375 14.96875 
Q 18.703125 11.53125 23.578125 9.40625 
Q 28.46875 7.28125 34.578125 7.28125 
Q 39.984375 7.28125 44.140625 8.890625 
Q 48.296875 10.5 50.3125 13.296875 
Q 52.34375 16.109375 52.34375 19.4375 
Q 52.34375 22.796875 50.390625 25.3125 
Q 48.4375 27.828125 43.953125 29.546875 
Q 41.0625 30.671875 31.203125 33.03125 
Q 21.34375 35.40625 17.390625 37.5 
Q 12.25 40.1875 9.734375 44.15625 
Q 7.234375 48.140625 7.234375 53.078125 
Q 7.234375 58.5 10.296875 63.203125 
Q 13.375 67.921875 19.28125 70.359375 
Q 25.203125 72.796875 32.421875 72.796875 
Q 40.375 72.796875 46.453125 70.234375 
Q 52.546875 67.671875 55.8125 62.6875 
Q 59.078125 57.71875 59.328125 51.421875 
L 50.25 50.734375 
Q 49.515625 57.515625 45.28125 60.984375 
Q 41.0625 64.453125 32.8125 64.453125 
Q 24.21875 64.453125 20.28125 61.296875 
Q 16.359375 58.15625 16.359375 53.71875 
Q 16.359375 49.859375 19.140625 47.359375 
Q 21.875 44.875 33.421875 42.265625 
Q 44.96875 39.65625 49.265625 37.703125 
Q 55.515625 34.8125 58.484375 30.390625 
Q 61.46875 25.984375 61.46875 20.21875 
Q 61.46875 14.5 58.203125 9.4375 
Q 54.9375 4.390625 48.796875 1.578125 
Q 42.671875 -1.21875 35.015625 -1.21875 
Q 25.296875 -1.21875 18.71875 1.609375 
Q 12.15625 4.4375 8.421875 10.125 
Q 4.6875 15.828125 4.5 23 
" id="ArialMT-53"/>
       <path d="M 6.59375 0 
L 6.59375 51.859375 
L 14.5 51.859375 
L 14.5 44.484375 
Q 20.21875 53.03125 31 53.03125 
Q 35.6875 53.03125 39.625 51.34375 
Q 43.5625 49.65625 45.515625 46.921875 
Q 47.46875 44.1875 48.25 40.4375 
Q 48.734375 37.984375 48.734375 31.890625 
L 48.734375 0 
L 39.9375 0 
L 39.9375 31.546875 
Q 39.9375 36.921875 38.90625 39.578125 
Q 37.890625 42.234375 35.28125 43.8125 
Q 32.671875 45.40625 29.15625 45.40625 
Q 23.53125 45.40625 19.453125 41.84375 
Q 15.375 38.28125 15.375 28.328125 
L 15.375 0 
z
" id="ArialMT-6e"/>
       <path d="M 40.578125 0 
L 40.578125 7.625 
Q 34.515625 -1.171875 24.125 -1.171875 
Q 19.53125 -1.171875 15.546875 0.578125 
Q 11.578125 2.34375 9.640625 5 
Q 7.71875 7.671875 6.9375 11.53125 
Q 6.390625 14.109375 6.390625 19.734375 
L 6.390625 51.859375 
L 15.1875 51.859375 
L 15.1875 23.09375 
Q 15.1875 16.21875 15.71875 13.8125 
Q 16.546875 10.359375 19.234375 8.375 
Q 21.921875 6.390625 25.875 6.390625 
Q 29.828125 6.390625 33.296875 8.421875 
Q 36.765625 10.453125 38.203125 13.9375 
Q 39.65625 17.4375 39.65625 24.078125 
L 39.65625 51.859375 
L 48.4375 51.859375 
L 48.4375 0 
z
" id="ArialMT-75"/>
      </defs>
      <g style="fill:#262626;" transform="translate(47.2078125 81.78515625)scale(0.1 -0.1)">
       <use xlink:href="#ArialMT-53"/>
       <use x="66.69921875" xlink:href="#ArialMT-75"/>
       <use x="122.314453125" xlink:href="#ArialMT-6e"/>
      </g>
     </g>
    </g>
    <g id="ytick_2">
     <g id="line2d_24"/>
     <g id="line2d_25"/>
     <g id="text_10">
      <!-- Sat -->
      <g style="fill:#262626;" transform="translate(49.990625 160.98515625)scale(0.1 -0.1)">
       <use xlink:href="#ArialMT-53"/>
       <use x="66.69921875" xlink:href="#ArialMT-61"/>
       <use x="122.314453125" xlink:href="#ArialMT-74"/>
      </g>
     </g>
    </g>
    <g id="ytick_3">
     <g id="line2d_26"/>
     <g id="line2d_27"/>
     <g id="text_11">
      <!-- Thur -->
      <defs>
       <path d="M 6.59375 0 
L 6.59375 71.578125 
L 15.375 71.578125 
L 15.375 45.90625 
Q 21.53125 53.03125 30.90625 53.03125 
Q 36.671875 53.03125 40.921875 50.75 
Q 45.171875 48.484375 47 44.484375 
Q 48.828125 40.484375 48.828125 32.859375 
L 48.828125 0 
L 40.046875 0 
L 40.046875 32.859375 
Q 40.046875 39.453125 37.1875 42.453125 
Q 34.328125 45.453125 29.109375 45.453125 
Q 25.203125 45.453125 21.75 43.421875 
Q 18.3125 41.40625 16.84375 37.9375 
Q 15.375 34.46875 15.375 28.375 
L 15.375 0 
z
" id="ArialMT-68"/>
       <path d="M 6.5 0 
L 6.5 51.859375 
L 14.40625 51.859375 
L 14.40625 44 
Q 17.4375 49.515625 20 51.265625 
Q 22.5625 53.03125 25.640625 53.03125 
Q 30.078125 53.03125 34.671875 50.203125 
L 31.640625 42.046875 
Q 28.421875 43.953125 25.203125 43.953125 
Q 22.3125 43.953125 20.015625 42.21875 
Q 17.71875 40.484375 16.75 37.40625 
Q 15.28125 32.71875 15.28125 27.15625 
L 15.28125 0 
z
" id="ArialMT-72"/>
       <path d="M 25.921875 0 
L 25.921875 63.140625 
L 2.34375 63.140625 
L 2.34375 71.578125 
L 59.078125 71.578125 
L 59.078125 63.140625 
L 35.40625 63.140625 
L 35.40625 0 
z
" id="ArialMT-54"/>
      </defs>
      <g style="fill:#262626;" transform="translate(44.440625 240.18515625)scale(0.1 -0.1)">
       <use xlink:href="#ArialMT-54"/>
       <use x="61.083984375" xlink:href="#ArialMT-68"/>
       <use x="116.69921875" xlink:href="#ArialMT-75"/>
       <use x="172.314453125" xlink:href="#ArialMT-72"/>
      </g>
     </g>
    </g>
    <g id="ytick_4">
     <g id="line2d_28"/>
     <g id="line2d_29"/>
     <g id="text_12">
      <!-- Fri -->
      <defs>
       <path d="M 8.203125 0 
L 8.203125 71.578125 
L 56.5 71.578125 
L 56.5 63.140625 
L 17.671875 63.140625 
L 17.671875 40.96875 
L 51.265625 40.96875 
L 51.265625 32.515625 
L 17.671875 32.515625 
L 17.671875 0 
z
" id="ArialMT-46"/>
      </defs>
      <g style="fill:#262626;" transform="translate(53.340625 319.38515625)scale(0.1 -0.1)">
       <use xlink:href="#ArialMT-46"/>
       <use x="61.083984375" xlink:href="#ArialMT-72"/>
       <use x="94.384765625" xlink:href="#ArialMT-69"/>
      </g>
     </g>
    </g>
    <g id="text_13">
     <!-- day -->
     <defs>
      <path d="M 6.203125 -19.96875 
L 5.21875 -11.71875 
Q 8.109375 -12.5 10.25 -12.5 
Q 13.1875 -12.5 14.9375 -11.515625 
Q 16.703125 -10.546875 17.828125 -8.796875 
Q 18.65625 -7.46875 20.515625 -2.25 
Q 20.75 -1.515625 21.296875 -0.09375 
L 1.609375 51.859375 
L 11.078125 51.859375 
L 21.875 21.828125 
Q 23.96875 16.109375 25.640625 9.8125 
Q 27.15625 15.875 29.25 21.625 
L 40.328125 51.859375 
L 49.125 51.859375 
L 29.390625 -0.875 
Q 26.21875 -9.421875 24.46875 -12.640625 
Q 22.125 -17 19.09375 -19.015625 
Q 16.0625 -21.046875 11.859375 -21.046875 
Q 9.328125 -21.046875 6.203125 -19.96875 
" id="ArialMT-79"/>
      <path d="M 40.234375 0 
L 40.234375 6.546875 
Q 35.296875 -1.171875 25.734375 -1.171875 
Q 19.53125 -1.171875 14.328125 2.25 
Q 9.125 5.671875 6.265625 11.796875 
Q 3.421875 17.921875 3.421875 25.875 
Q 3.421875 33.640625 6 39.96875 
Q 8.59375 46.296875 13.765625 49.65625 
Q 18.953125 53.03125 25.34375 53.03125 
Q 30.03125 53.03125 33.6875 51.046875 
Q 37.359375 49.078125 39.65625 45.90625 
L 39.65625 71.578125 
L 48.390625 71.578125 
L 48.390625 0 
z
M 12.453125 25.875 
Q 12.453125 15.921875 16.640625 10.984375 
Q 20.84375 6.0625 26.5625 6.0625 
Q 32.328125 6.0625 36.34375 10.765625 
Q 40.375 15.484375 40.375 25.140625 
Q 40.375 35.796875 36.265625 40.765625 
Q 32.171875 45.75 26.171875 45.75 
Q 20.3125 45.75 16.375 40.96875 
Q 12.453125 36.1875 12.453125 25.875 
" id="ArialMT-64"/>
     </defs>
     <g style="fill:#262626;" transform="translate(37.12546875 206.86703125)rotate(-90.0)scale(0.11 -0.11)">
      <use xlink:href="#ArialMT-64"/>
      <use x="55.615234375" xlink:href="#ArialMT-61"/>
      <use x="111.23046875" xlink:href="#ArialMT-79"/>
     </g>
    </g>
   </g>
   <g id="PathCollection_1"/>
   <g id="PathCollection_2"/>
   <g id="patch_3">
    <path d="M 72 39.6 
L 518.4 39.6 
" style="fill:none;stroke:#cccccc;stroke-linecap:square;stroke-linejoin:miter;"/>
   </g>
   <g id="patch_4">
    <path d="M 518.4 356.4 
L 518.4 39.6 
" style="fill:none;stroke:#cccccc;stroke-linecap:square;stroke-linejoin:miter;"/>
   </g>
   <g id="patch_5">
    <path d="M 72 356.4 
L 518.4 356.4 
" style="fill:none;stroke:#cccccc;stroke-linecap:square;stroke-linejoin:miter;"/>
   </g>
   <g id="patch_6">
    <path d="M 72 356.4 
L 72 39.6 
" style="fill:none;stroke:#cccccc;stroke-linecap:square;stroke-linejoin:miter;"/>
   </g>
   <g id="PathCollection_3">
    <defs>
     <path d="M 0 2.5 
C 0.663008 2.5 1.29895 2.236584 1.767767 1.767767 
C 2.236584 1.29895 2.5 0.663008 2.5 0 
C 2.5 -0.663008 2.236584 -1.29895 1.767767 -1.767767 
C 1.29895 -2.236584 0.663008 -2.5 0 -2.5 
C -0.663008 -2.5 -1.29895 -2.236584 -1.767767 -1.767767 
C -2.236584 -1.29895 -2.5 -0.663008 -2.5 0 
C -2.5 0.663008 -2.236584 1.29895 -1.767767 1.767767 
C -1.29895 2.236584 -0.663008 2.5 0 2.5 
z
" id="C0_0_94f3d3d8c3"/>
    </defs>
    <g clip-path="url(#pfffafed0ae)">
     <use style="fill:#4c72b0;" x="137.2488" xlink:href="#C0_0_94f3d3d8c3" y="79.2"/>
    </g>
    <g clip-path="url(#pfffafed0ae)">
     <use style="fill:#4c72b0;" x="144.0192" xlink:href="#C0_0_94f3d3d8c3" y="79.2"/>
    </g>
    <g clip-path="url(#pfffafed0ae)">
     <use style="fill:#4c72b0;" x="145.9536" xlink:href="#C0_0_94f3d3d8c3" y="74.933833507"/>
    </g>
    <g clip-path="url(#pfffafed0ae)">
     <use style="fill:#4c72b0;" x="148.4088" xlink:href="#C0_0_94f3d3d8c3" y="80.2401954401"/>
    </g>
    <g clip-path="url(#pfffafed0ae)">
     <use style="fill:#4c72b0;" x="148.5576" xlink:href="#C0_0_94f3d3d8c3" y="84.9626115656"/>
    </g>
    <g clip-path="url(#pfffafed0ae)">
     <use style="fill:#4c72b0;" x="148.8552" xlink:href="#C0_0_94f3d3d8c3" y="71.3222734594"/>
    </g>
    <g clip-path="url(#pfffafed0ae)">
     <use style="fill:#4c72b0;" x="148.9296" xlink:href="#C0_0_94f3d3d8c3" y="89.6714390885"/>
    </g>
    <g clip-path="url(#pfffafed0ae)">
     <use style="fill:#4c72b0;" x="165.2976" xlink:href="#C0_0_94f3d3d8c3" y="79.2"/>
    </g>
    <g clip-path="url(#pfffafed0ae)">
     <use style="fill:#4c72b0;" x="175.7136" xlink:href="#C0_0_94f3d3d8c3" y="79.2"/>
    </g>
    <g clip-path="url(#pfffafed0ae)">
     <use style="fill:#4c72b0;" x="181.9632" xlink:href="#C0_0_94f3d3d8c3" y="79.2"/>
    </g>
    <g clip-path="url(#pfffafed0ae)">
     <use style="fill:#4c72b0;" x="182.3352" xlink:href="#C0_0_94f3d3d8c3" y="74.4911724771"/>
    </g>
    <g clip-path="url(#pfffafed0ae)">
     <use style="fill:#4c72b0;" x="183.8976" xlink:href="#C0_0_94f3d3d8c3" y="83.466166493"/>
    </g>
    <g clip-path="url(#pfffafed0ae)">
     <use style="fill:#4c72b0;" x="186.7248" xlink:href="#C0_0_94f3d3d8c3" y="79.2"/>
    </g>
    <g clip-path="url(#pfffafed0ae)">
     <use style="fill:#4c72b0;" x="193.1976" xlink:href="#C0_0_94f3d3d8c3" y="79.2"/>
    </g>
    <g clip-path="url(#pfffafed0ae)">
     <use style="fill:#4c72b0;" x="198.2568" xlink:href="#C0_0_94f3d3d8c3" y="79.2"/>
    </g>
    <g clip-path="url(#pfffafed0ae)">
     <use style="fill:#4c72b0;" x="198.4056" xlink:href="#C0_0_94f3d3d8c3" y="74.4775838745"/>
    </g>
    <g clip-path="url(#pfffafed0ae)">
     <use style="fill:#4c72b0;" x="201.9024" xlink:href="#C0_0_94f3d3d8c3" y="81.9700107772"/>
    </g>
    <g clip-path="url(#pfffafed0ae)">
     <use style="fill:#4c72b0;" x="206.2176" xlink:href="#C0_0_94f3d3d8c3" y="79.2"/>
    </g>
    <g clip-path="url(#pfffafed0ae)">
     <use style="fill:#4c72b0;" x="208.0776" xlink:href="#C0_0_94f3d3d8c3" y="74.8975104881"/>
    </g>
    <g clip-path="url(#pfffafed0ae)">
     <use style="fill:#4c72b0;" x="209.1192" xlink:href="#C0_0_94f3d3d8c3" y="82.8115600476"/>
    </g>
    <g clip-path="url(#pfffafed0ae)">
     <use style="fill:#4c72b0;" x="217.0056" xlink:href="#C0_0_94f3d3d8c3" y="79.2"/>
    </g>
    <g clip-path="url(#pfffafed0ae)">
     <use style="fill:#4c72b0;" x="228.3144" xlink:href="#C0_0_94f3d3d8c3" y="79.2"/>
    </g>
    <g clip-path="url(#pfffafed0ae)">
     <use style="fill:#4c72b0;" x="232.5552" xlink:href="#C0_0_94f3d3d8c3" y="77.6195440739"/>
    </g>
    <g clip-path="url(#pfffafed0ae)">
     <use style="fill:#4c72b0;" x="237.3912" xlink:href="#C0_0_94f3d3d8c3" y="79.2"/>
    </g>
    <g clip-path="url(#pfffafed0ae)">
     <use style="fill:#4c72b0;" x="248.1792" xlink:href="#C0_0_94f3d3d8c3" y="79.2"/>
    </g>
    <g clip-path="url(#pfffafed0ae)">
     <use style="fill:#4c72b0;" x="254.9496" xlink:href="#C0_0_94f3d3d8c3" y="79.2"/>
    </g>
    <g clip-path="url(#pfffafed0ae)">
     <use style="fill:#4c72b0;" x="260.1576" xlink:href="#C0_0_94f3d3d8c3" y="79.2"/>
    </g>
    <g clip-path="url(#pfffafed0ae)">
     <use style="fill:#4c72b0;" x="262.1664" xlink:href="#C0_0_94f3d3d8c3" y="74.9719115877"/>
    </g>
    <g clip-path="url(#pfffafed0ae)">
     <use style="fill:#4c72b0;" x="271.9872" xlink:href="#C0_0_94f3d3d8c3" y="79.2"/>
    </g>
    <g clip-path="url(#pfffafed0ae)">
     <use style="fill:#4c72b0;" x="284.412" xlink:href="#C0_0_94f3d3d8c3" y="79.2"/>
    </g>
    <g clip-path="url(#pfffafed0ae)">
     <use style="fill:#4c72b0;" x="298.176" xlink:href="#C0_0_94f3d3d8c3" y="79.2"/>
    </g>
    <g clip-path="url(#pfffafed0ae)">
     <use style="fill:#4c72b0;" x="313.056" xlink:href="#C0_0_94f3d3d8c3" y="79.2"/>
    </g>
    <g clip-path="url(#pfffafed0ae)">
     <use style="fill:#4c72b0;" x="330.9864" xlink:href="#C0_0_94f3d3d8c3" y="79.2"/>
    </g>
    <g clip-path="url(#pfffafed0ae)">
     <use style="fill:#4c72b0;" x="334.3344" xlink:href="#C0_0_94f3d3d8c3" y="76.0428513117"/>
    </g>
   </g>
   <g id="PathCollection_4">
    <defs>
     <path d="M 0 2.5 
C 0.663008 2.5 1.29895 2.236584 1.767767 1.767767 
C 2.236584 1.29895 2.5 0.663008 2.5 0 
C 2.5 -0.663008 2.236584 -1.29895 1.767767 -1.767767 
C 1.29895 -2.236584 0.663008 -2.5 0 -2.5 
C -0.663008 -2.5 -1.29895 -2.236584 -1.767767 -1.767767 
C -2.236584 -1.29895 -2.5 -0.663008 -2.5 0 
C -2.5 0.663008 -2.236584 1.29895 -1.767767 1.767767 
C -1.29895 2.236584 -0.663008 2.5 0 2.5 
z
" id="C1_0_85dcc33bf4"/>
    </defs>
    <g clip-path="url(#pfffafed0ae)">
     <use style="fill:#4c72b0;" x="94.8408" xlink:href="#C1_0_85dcc33bf4" y="158.4"/>
    </g>
    <g clip-path="url(#pfffafed0ae)">
     <use style="fill:#4c72b0;" x="94.8408" xlink:href="#C1_0_85dcc33bf4" y="153.675"/>
    </g>
    <g clip-path="url(#pfffafed0ae)">
     <use style="fill:#4c72b0;" x="143.052" xlink:href="#C1_0_85dcc33bf4" y="158.4"/>
    </g>
    <g clip-path="url(#pfffafed0ae)">
     <use style="fill:#4c72b0;" x="150.1944" xlink:href="#C1_0_85dcc33bf4" y="158.4"/>
    </g>
    <g clip-path="url(#pfffafed0ae)">
     <use style="fill:#4c72b0;" x="150.1944" xlink:href="#C1_0_85dcc33bf4" y="153.675"/>
    </g>
    <g clip-path="url(#pfffafed0ae)">
     <use style="fill:#4c72b0;" x="153.9888" xlink:href="#C1_0_85dcc33bf4" y="160.94016"/>
    </g>
    <g clip-path="url(#pfffafed0ae)">
     <use style="fill:#4c72b0;" x="155.6256" xlink:href="#C1_0_85dcc33bf4" y="156.538807759"/>
    </g>
    <g clip-path="url(#pfffafed0ae)">
     <use style="fill:#4c72b0;" x="161.4288" xlink:href="#C1_0_85dcc33bf4" y="158.4"/>
    </g>
    <g clip-path="url(#pfffafed0ae)">
     <use style="fill:#4c72b0;" x="161.4288" xlink:href="#C1_0_85dcc33bf4" y="153.675"/>
    </g>
    <g clip-path="url(#pfffafed0ae)">
     <use style="fill:#4c72b0;" x="166.4136" xlink:href="#C1_0_85dcc33bf4" y="158.4"/>
    </g>
    <g clip-path="url(#pfffafed0ae)">
     <use style="fill:#4c72b0;" x="171.4728" xlink:href="#C1_0_85dcc33bf4" y="158.4"/>
    </g>
    <g clip-path="url(#pfffafed0ae)">
     <use style="fill:#4c72b0;" x="174.7464" xlink:href="#C1_0_85dcc33bf4" y="155.157974213"/>
    </g>
    <g clip-path="url(#pfffafed0ae)">
     <use style="fill:#4c72b0;" x="181.5912" xlink:href="#C1_0_85dcc33bf4" y="158.4"/>
    </g>
    <g clip-path="url(#pfffafed0ae)">
     <use style="fill:#4c72b0;" x="181.5912" xlink:href="#C1_0_85dcc33bf4" y="153.675"/>
    </g>
    <g clip-path="url(#pfffafed0ae)">
     <use style="fill:#4c72b0;" x="183.6744" xlink:href="#C1_0_85dcc33bf4" y="162.588207401"/>
    </g>
    <g clip-path="url(#pfffafed0ae)">
     <use style="fill:#4c72b0;" x="183.6744" xlink:href="#C1_0_85dcc33bf4" y="149.486792599"/>
    </g>
    <g clip-path="url(#pfffafed0ae)">
     <use style="fill:#4c72b0;" x="184.0464" xlink:href="#C1_0_85dcc33bf4" y="167.297034923"/>
    </g>
    <g clip-path="url(#pfffafed0ae)">
     <use style="fill:#4c72b0;" x="189.3288" xlink:href="#C1_0_85dcc33bf4" y="158.4"/>
    </g>
    <g clip-path="url(#pfffafed0ae)">
     <use style="fill:#4c72b0;" x="191.3376" xlink:href="#C1_0_85dcc33bf4" y="154.171911588"/>
    </g>
    <g clip-path="url(#pfffafed0ae)">
     <use style="fill:#4c72b0;" x="193.3464" xlink:href="#C1_0_85dcc33bf4" y="160.528391761"/>
    </g>
    <g clip-path="url(#pfffafed0ae)">
     <use style="fill:#4c72b0;" x="194.388" xlink:href="#C1_0_85dcc33bf4" y="165.125074158"/>
    </g>
    <g clip-path="url(#pfffafed0ae)">
     <use style="fill:#4c72b0;" x="194.388" xlink:href="#C1_0_85dcc33bf4" y="150.698163112"/>
    </g>
    <g clip-path="url(#pfffafed0ae)">
     <use style="fill:#4c72b0;" x="197.9592" xlink:href="#C1_0_85dcc33bf4" y="158.4"/>
    </g>
    <g clip-path="url(#pfffafed0ae)">
     <use style="fill:#4c72b0;" x="199.0008" xlink:href="#C1_0_85dcc33bf4" y="153.803317603"/>
    </g>
    <g clip-path="url(#pfffafed0ae)">
     <use style="fill:#4c72b0;" x="199.0008" xlink:href="#C1_0_85dcc33bf4" y="162.996682397"/>
    </g>
    <g clip-path="url(#pfffafed0ae)">
     <use style="fill:#4c72b0;" x="202.8696" xlink:href="#C1_0_85dcc33bf4" y="158.4"/>
    </g>
    <g clip-path="url(#pfffafed0ae)">
     <use style="fill:#4c72b0;" x="204.2832" xlink:href="#C1_0_85dcc33bf4" y="153.914184814"/>
    </g>
    <g clip-path="url(#pfffafed0ae)">
     <use style="fill:#4c72b0;" x="204.5064" xlink:href="#C1_0_85dcc33bf4" y="162.801352241"/>
    </g>
    <g clip-path="url(#pfffafed0ae)">
     <use style="fill:#4c72b0;" x="205.3248" xlink:href="#C1_0_85dcc33bf4" y="167.447554361"/>
    </g>
    <g clip-path="url(#pfffafed0ae)">
     <use style="fill:#4c72b0;" x="205.3248" xlink:href="#C1_0_85dcc33bf4" y="149.317502417"/>
    </g>
    <g clip-path="url(#pfffafed0ae)">
     <use style="fill:#4c72b0;" x="205.3248" xlink:href="#C1_0_85dcc33bf4" y="172.172554361"/>
    </g>
    <g clip-path="url(#pfffafed0ae)">
     <use style="fill:#4c72b0;" x="208.0776" xlink:href="#C1_0_85dcc33bf4" y="158.4"/>
    </g>
    <g clip-path="url(#pfffafed0ae)">
     <use style="fill:#4c72b0;" x="208.524" xlink:href="#C1_0_85dcc33bf4" y="145.994601712"/>
    </g>
    <g clip-path="url(#pfffafed0ae)">
     <use style="fill:#4c72b0;" x="211.0536" xlink:href="#C1_0_85dcc33bf4" y="154.855814627"/>
    </g>
    <g clip-path="url(#pfffafed0ae)">
     <use style="fill:#4c72b0;" x="218.196" xlink:href="#C1_0_85dcc33bf4" y="158.4"/>
    </g>
    <g clip-path="url(#pfffafed0ae)">
     <use style="fill:#4c72b0;" x="219.4608" xlink:href="#C1_0_85dcc33bf4" y="153.865473039"/>
    </g>
    <g clip-path="url(#pfffafed0ae)">
     <use style="fill:#4c72b0;" x="221.3952" xlink:href="#C1_0_85dcc33bf4" y="161.722900705"/>
    </g>
    <g clip-path="url(#pfffafed0ae)">
     <use style="fill:#4c72b0;" x="222.5112" xlink:href="#C1_0_85dcc33bf4" y="166.300291857"/>
    </g>
    <g clip-path="url(#pfffafed0ae)">
     <use style="fill:#4c72b0;" x="222.5112" xlink:href="#C1_0_85dcc33bf4" y="150.391724563"/>
    </g>
    <g clip-path="url(#pfffafed0ae)">
     <use style="fill:#4c72b0;" x="222.9576" xlink:href="#C1_0_85dcc33bf4" y="157.291837725"/>
    </g>
    <g clip-path="url(#pfffafed0ae)">
     <use style="fill:#4c72b0;" x="222.9576" xlink:href="#C1_0_85dcc33bf4" y="171.001985867"/>
    </g>
    <g clip-path="url(#pfffafed0ae)">
     <use style="fill:#4c72b0;" x="225.636" xlink:href="#C1_0_85dcc33bf4" y="146.991665517"/>
    </g>
    <g clip-path="url(#pfffafed0ae)">
     <use style="fill:#4c72b0;" x="225.9336" xlink:href="#C1_0_85dcc33bf4" y="160.836023098"/>
    </g>
    <g clip-path="url(#pfffafed0ae)">
     <use style="fill:#4c72b0;" x="227.6448" xlink:href="#C1_0_85dcc33bf4" y="156.465979792"/>
    </g>
    <g clip-path="url(#pfffafed0ae)">
     <use style="fill:#4c72b0;" x="233.448" xlink:href="#C1_0_85dcc33bf4" y="158.4"/>
    </g>
    <g clip-path="url(#pfffafed0ae)">
     <use style="fill:#4c72b0;" x="238.8048" xlink:href="#C1_0_85dcc33bf4" y="158.4"/>
    </g>
    <g clip-path="url(#pfffafed0ae)">
     <use style="fill:#4c72b0;" x="251.0064" xlink:href="#C1_0_85dcc33bf4" y="158.4"/>
    </g>
    <g clip-path="url(#pfffafed0ae)">
     <use style="fill:#4c72b0;" x="260.0832" xlink:href="#C1_0_85dcc33bf4" y="158.4"/>
    </g>
    <g clip-path="url(#pfffafed0ae)">
     <use style="fill:#4c72b0;" x="260.0832" xlink:href="#C1_0_85dcc33bf4" y="153.675"/>
    </g>
    <g clip-path="url(#pfffafed0ae)">
     <use style="fill:#4c72b0;" x="268.4904" xlink:href="#C1_0_85dcc33bf4" y="158.4"/>
    </g>
    <g clip-path="url(#pfffafed0ae)">
     <use style="fill:#4c72b0;" x="271.8384" xlink:href="#C1_0_85dcc33bf4" y="155.242851312"/>
    </g>
    <g clip-path="url(#pfffafed0ae)">
     <use style="fill:#4c72b0;" x="271.8384" xlink:href="#C1_0_85dcc33bf4" y="161.557148688"/>
    </g>
    <g clip-path="url(#pfffafed0ae)">
     <use style="fill:#4c72b0;" x="304.6488" xlink:href="#C1_0_85dcc33bf4" y="158.4"/>
    </g>
    <g clip-path="url(#pfffafed0ae)">
     <use style="fill:#4c72b0;" x="354.7944" xlink:href="#C1_0_85dcc33bf4" y="158.4"/>
    </g>
    <g clip-path="url(#pfffafed0ae)">
     <use style="fill:#4c72b0;" x="365.2848" xlink:href="#C1_0_85dcc33bf4" y="158.4"/>
    </g>
    <g clip-path="url(#pfffafed0ae)">
     <use style="fill:#4c72b0;" x="401.592" xlink:href="#C1_0_85dcc33bf4" y="158.4"/>
    </g>
    <g clip-path="url(#pfffafed0ae)">
     <use style="fill:#4c72b0;" x="431.1288" xlink:href="#C1_0_85dcc33bf4" y="158.4"/>
    </g>
   </g>
   <g id="PathCollection_5">
    <defs>
     <path d="M 0 2.5 
C 0.663008 2.5 1.29895 2.236584 1.767767 1.767767 
C 2.236584 1.29895 2.5 0.663008 2.5 0 
C 2.5 -0.663008 2.236584 -1.29895 1.767767 -1.767767 
C 1.29895 -2.236584 0.663008 -2.5 0 -2.5 
C -0.663008 -2.5 -1.29895 -2.236584 -1.767767 -1.767767 
C -2.236584 -1.29895 -2.5 -0.663008 -2.5 0 
C -2.5 0.663008 -2.236584 1.29895 -1.767767 1.767767 
C -1.29895 2.236584 -0.663008 2.5 0 2.5 
z
" id="C2_0_625d72baaf"/>
    </defs>
    <g clip-path="url(#pfffafed0ae)">
     <use style="fill:#55a868;" x="146.9208" xlink:href="#C2_0_625d72baaf" y="237.6"/>
    </g>
    <g clip-path="url(#pfffafed0ae)">
     <use style="fill:#55a868;" x="146.9208" xlink:href="#C2_0_625d72baaf" y="232.875"/>
    </g>
    <g clip-path="url(#pfffafed0ae)">
     <use style="fill:#55a868;" x="168.9432" xlink:href="#C2_0_625d72baaf" y="237.6"/>
    </g>
    <g clip-path="url(#pfffafed0ae)">
     <use style="fill:#55a868;" x="190.8912" xlink:href="#C2_0_625d72baaf" y="237.6"/>
    </g>
    <g clip-path="url(#pfffafed0ae)">
     <use style="fill:#55a868;" x="190.8912" xlink:href="#C2_0_625d72baaf" y="232.875"/>
    </g>
    <g clip-path="url(#pfffafed0ae)">
     <use style="fill:#55a868;" x="195.9504" xlink:href="#C2_0_625d72baaf" y="237.6"/>
    </g>
    <g clip-path="url(#pfffafed0ae)">
     <use style="fill:#55a868;" x="195.9504" xlink:href="#C2_0_625d72baaf" y="232.875"/>
    </g>
    <g clip-path="url(#pfffafed0ae)">
     <use style="fill:#55a868;" x="200.6376" xlink:href="#C2_0_625d72baaf" y="237.6"/>
    </g>
    <g clip-path="url(#pfffafed0ae)">
     <use style="fill:#55a868;" x="200.6376" xlink:href="#C2_0_625d72baaf" y="232.875"/>
    </g>
    <g clip-path="url(#pfffafed0ae)">
     <use style="fill:#55a868;" x="208.0032" xlink:href="#C2_0_625d72baaf" y="237.6"/>
    </g>
    <g clip-path="url(#pfffafed0ae)">
     <use style="fill:#55a868;" x="216.6336" xlink:href="#C2_0_625d72baaf" y="237.6"/>
    </g>
    <g clip-path="url(#pfffafed0ae)">
     <use style="fill:#55a868;" x="216.6336" xlink:href="#C2_0_625d72baaf" y="232.875"/>
    </g>
    <g clip-path="url(#pfffafed0ae)">
     <use style="fill:#55a868;" x="229.4304" xlink:href="#C2_0_625d72baaf" y="237.6"/>
    </g>
    <g clip-path="url(#pfffafed0ae)">
     <use style="fill:#55a868;" x="241.3344" xlink:href="#C2_0_625d72baaf" y="237.6"/>
    </g>
    <g clip-path="url(#pfffafed0ae)">
     <use style="fill:#55a868;" x="241.3344" xlink:href="#C2_0_625d72baaf" y="232.875"/>
    </g>
    <g clip-path="url(#pfffafed0ae)">
     <use style="fill:#55a868;" x="255.8424" xlink:href="#C2_0_625d72baaf" y="237.6"/>
    </g>
    <g clip-path="url(#pfffafed0ae)">
     <use style="fill:#55a868;" x="274.368" xlink:href="#C2_0_625d72baaf" y="237.6"/>
    </g>
    <g clip-path="url(#pfffafed0ae)">
     <use style="fill:#55a868;" x="274.368" xlink:href="#C2_0_625d72baaf" y="232.875"/>
    </g>
    <g clip-path="url(#pfffafed0ae)">
     <use style="fill:#55a868;" x="315.1392" xlink:href="#C2_0_625d72baaf" y="237.6"/>
    </g>
    <g clip-path="url(#pfffafed0ae)">
     <use style="fill:#55a868;" x="315.1392" xlink:href="#C2_0_625d72baaf" y="232.875"/>
    </g>
    <g clip-path="url(#pfffafed0ae)">
     <use style="fill:#55a868;" x="331.1352" xlink:href="#C2_0_625d72baaf" y="237.6"/>
    </g>
   </g>
   <g id="PathCollection_6">
    <defs>
     <path d="M 0 2.5 
C 0.663008 2.5 1.29895 2.236584 1.767767 1.767767 
C 2.236584 1.29895 2.5 0.663008 2.5 0 
C 2.5 -0.663008 2.236584 -1.29895 1.767767 -1.767767 
C 1.29895 -2.236584 0.663008 -2.5 0 -2.5 
C -0.663008 -2.5 -1.29895 -2.236584 -1.767767 -1.767767 
C -2.236584 -1.29895 -2.5 -0.663008 -2.5 0 
C -2.5 0.663008 -2.236584 1.29895 -1.767767 1.767767 
C -1.29895 2.236584 -0.663008 2.5 0 2.5 
z
" id="C3_0_0bf3311eb6"/>
    </defs>
    <g clip-path="url(#pfffafed0ae)">
     <use style="fill:#4c72b0;" x="114.78" xlink:href="#C3_0_0bf3311eb6" y="316.8"/>
    </g>
    <g clip-path="url(#pfffafed0ae)">
     <use style="fill:#4c72b0;" x="156.444" xlink:href="#C3_0_0bf3311eb6" y="316.8"/>
    </g>
    <g clip-path="url(#pfffafed0ae)">
     <use style="fill:#4c72b0;" x="161.5032" xlink:href="#C3_0_0bf3311eb6" y="316.8"/>
    </g>
    <g clip-path="url(#pfffafed0ae)">
     <use style="fill:#4c72b0;" x="164.7024" xlink:href="#C3_0_0bf3311eb6" y="313.477099295"/>
    </g>
    <g clip-path="url(#pfffafed0ae)">
     <use style="fill:#4c72b0;" x="186.4272" xlink:href="#C3_0_0bf3311eb6" y="316.8"/>
    </g>
    <g clip-path="url(#pfffafed0ae)">
     <use style="fill:#4c72b0;" x="193.4208" xlink:href="#C3_0_0bf3311eb6" y="316.8"/>
    </g>
    <g clip-path="url(#pfffafed0ae)">
     <use style="fill:#4c72b0;" x="228.3144" xlink:href="#C3_0_0bf3311eb6" y="316.8"/>
    </g>
    <g clip-path="url(#pfffafed0ae)">
     <use style="fill:#4c72b0;" x="239.3256" xlink:href="#C3_0_0bf3311eb6" y="316.8"/>
    </g>
    <g clip-path="url(#pfffafed0ae)">
     <use style="fill:#4c72b0;" x="241.26" xlink:href="#C3_0_0bf3311eb6" y="312.533833507"/>
    </g>
    <g clip-path="url(#pfffafed0ae)">
     <use style="fill:#4c72b0;" x="274.9632" xlink:href="#C3_0_0bf3311eb6" y="316.8"/>
    </g>
    <g clip-path="url(#pfffafed0ae)">
     <use style="fill:#4c72b0;" x="287.5368" xlink:href="#C3_0_0bf3311eb6" y="316.8"/>
    </g>
    <g clip-path="url(#pfffafed0ae)">
     <use style="fill:#4c72b0;" x="370.8648" xlink:href="#C3_0_0bf3311eb6" y="316.8"/>
    </g>
   </g>
   <g id="text_14">
    <!-- scatter plot -->
    <defs>
     <path d="M 40.4375 19 
L 49.078125 17.875 
Q 47.65625 8.9375 41.8125 3.875 
Q 35.984375 -1.171875 27.484375 -1.171875 
Q 16.84375 -1.171875 10.375 5.78125 
Q 3.90625 12.75 3.90625 25.734375 
Q 3.90625 34.125 6.6875 40.421875 
Q 9.46875 46.734375 15.15625 49.875 
Q 20.84375 53.03125 27.546875 53.03125 
Q 35.984375 53.03125 41.359375 48.75 
Q 46.734375 44.484375 48.25 36.625 
L 39.703125 35.296875 
Q 38.484375 40.53125 35.375 43.15625 
Q 32.28125 45.796875 27.875 45.796875 
Q 21.234375 45.796875 17.078125 41.03125 
Q 12.9375 36.28125 12.9375 25.984375 
Q 12.9375 15.53125 16.9375 10.796875 
Q 20.953125 6.0625 27.390625 6.0625 
Q 32.5625 6.0625 36.03125 9.234375 
Q 39.5 12.40625 40.4375 19 
" id="ArialMT-63"/>
     <path id="ArialMT-20"/>
     <path d="M 6.59375 -19.875 
L 6.59375 51.859375 
L 14.59375 51.859375 
L 14.59375 45.125 
Q 17.4375 49.078125 21 51.046875 
Q 24.5625 53.03125 29.640625 53.03125 
Q 36.28125 53.03125 41.359375 49.609375 
Q 46.4375 46.1875 49.015625 39.953125 
Q 51.609375 33.734375 51.609375 26.3125 
Q 51.609375 18.359375 48.75 11.984375 
Q 45.90625 5.609375 40.453125 2.21875 
Q 35.015625 -1.171875 29 -1.171875 
Q 24.609375 -1.171875 21.109375 0.6875 
Q 17.625 2.546875 15.375 5.375 
L 15.375 -19.875 
z
M 14.546875 25.640625 
Q 14.546875 15.625 18.59375 10.84375 
Q 22.65625 6.0625 28.421875 6.0625 
Q 34.28125 6.0625 38.453125 11.015625 
Q 42.625 15.96875 42.625 26.375 
Q 42.625 36.28125 38.546875 41.203125 
Q 34.46875 46.140625 28.8125 46.140625 
Q 23.1875 46.140625 18.859375 40.890625 
Q 14.546875 35.640625 14.546875 25.640625 
" id="ArialMT-70"/>
     <path d="M 42.09375 16.703125 
L 51.171875 15.578125 
Q 49.03125 7.625 43.21875 3.21875 
Q 37.40625 -1.171875 28.375 -1.171875 
Q 17 -1.171875 10.328125 5.828125 
Q 3.65625 12.84375 3.65625 25.484375 
Q 3.65625 38.578125 10.390625 45.796875 
Q 17.140625 53.03125 27.875 53.03125 
Q 38.28125 53.03125 44.875 45.953125 
Q 51.46875 38.875 51.46875 26.03125 
Q 51.46875 25.25 51.421875 23.6875 
L 12.75 23.6875 
Q 13.234375 15.140625 17.578125 10.59375 
Q 21.921875 6.0625 28.421875 6.0625 
Q 33.25 6.0625 36.671875 8.59375 
Q 40.09375 11.140625 42.09375 16.703125 
M 13.234375 30.90625 
L 42.1875 30.90625 
Q 41.609375 37.453125 38.875 40.71875 
Q 34.671875 45.796875 27.984375 45.796875 
Q 21.921875 45.796875 17.796875 41.75 
Q 13.671875 37.703125 13.234375 30.90625 
" id="ArialMT-65"/>
     <path d="M 3.078125 15.484375 
L 11.765625 16.84375 
Q 12.5 11.625 15.84375 8.84375 
Q 19.1875 6.0625 25.203125 6.0625 
Q 31.25 6.0625 34.171875 8.515625 
Q 37.109375 10.984375 37.109375 14.3125 
Q 37.109375 17.28125 34.515625 19 
Q 32.71875 20.171875 25.53125 21.96875 
Q 15.875 24.421875 12.140625 26.203125 
Q 8.40625 27.984375 6.46875 31.125 
Q 4.546875 34.28125 4.546875 38.09375 
Q 4.546875 41.546875 6.125 44.5 
Q 7.71875 47.46875 10.453125 49.421875 
Q 12.5 50.921875 16.03125 51.96875 
Q 19.578125 53.03125 23.640625 53.03125 
Q 29.734375 53.03125 34.34375 51.265625 
Q 38.96875 49.515625 41.15625 46.5 
Q 43.359375 43.5 44.1875 38.484375 
L 35.59375 37.3125 
Q 35.015625 41.3125 32.203125 43.546875 
Q 29.390625 45.796875 24.265625 45.796875 
Q 18.21875 45.796875 15.625 43.796875 
Q 13.03125 41.796875 13.03125 39.109375 
Q 13.03125 37.40625 14.109375 36.03125 
Q 15.1875 34.625 17.484375 33.6875 
Q 18.796875 33.203125 25.25 31.453125 
Q 34.578125 28.953125 38.25 27.359375 
Q 41.9375 25.78125 44.03125 22.75 
Q 46.140625 19.734375 46.140625 15.234375 
Q 46.140625 10.84375 43.578125 6.953125 
Q 41.015625 3.078125 36.171875 0.953125 
Q 31.34375 -1.171875 25.25 -1.171875 
Q 15.140625 -1.171875 9.84375 3.03125 
Q 4.546875 7.234375 3.078125 15.484375 
" id="ArialMT-73"/>
    </defs>
    <g style="fill:#262626;" transform="translate(265.8553125 34.6)scale(0.12 -0.12)">
     <use xlink:href="#ArialMT-73"/>
     <use x="50.0" xlink:href="#ArialMT-63"/>
     <use x="100.0" xlink:href="#ArialMT-61"/>
     <use x="155.615234375" xlink:href="#ArialMT-74"/>
     <use x="183.3984375" xlink:href="#ArialMT-74"/>
     <use x="211.181640625" xlink:href="#ArialMT-65"/>
     <use x="266.796875" xlink:href="#ArialMT-72"/>
     <use x="300.09765625" xlink:href="#ArialMT-20"/>
     <use x="327.880859375" xlink:href="#ArialMT-70"/>
     <use x="383.49609375" xlink:href="#ArialMT-6c"/>
     <use x="405.712890625" xlink:href="#ArialMT-6f"/>
     <use x="461.328125" xlink:href="#ArialMT-74"/>
    </g>
   </g>
   <g id="legend_1">
    <g id="text_15">
     <!-- time -->
     <defs>
      <path d="M 6.59375 0 
L 6.59375 51.859375 
L 14.453125 51.859375 
L 14.453125 44.578125 
Q 16.890625 48.390625 20.9375 50.703125 
Q 25 53.03125 30.171875 53.03125 
Q 35.9375 53.03125 39.625 50.640625 
Q 43.3125 48.25 44.828125 43.953125 
Q 50.984375 53.03125 60.84375 53.03125 
Q 68.5625 53.03125 72.703125 48.75 
Q 76.859375 44.484375 76.859375 35.59375 
L 76.859375 0 
L 68.109375 0 
L 68.109375 32.671875 
Q 68.109375 37.9375 67.25 40.25 
Q 66.40625 42.578125 64.15625 43.984375 
Q 61.921875 45.40625 58.890625 45.40625 
Q 53.421875 45.40625 49.796875 41.765625 
Q 46.1875 38.140625 46.1875 30.125 
L 46.1875 0 
L 37.40625 0 
L 37.40625 33.6875 
Q 37.40625 39.546875 35.25 42.46875 
Q 33.109375 45.40625 28.21875 45.40625 
Q 24.515625 45.40625 21.359375 43.453125 
Q 18.21875 41.5 16.796875 37.734375 
Q 15.375 33.984375 15.375 26.90625 
L 15.375 0 
z
" id="ArialMT-6d"/>
     </defs>
     <g style="fill:#262626;" transform="translate(471.840507812 55.2925546875)scale(0.0935 -0.0935)">
      <use xlink:href="#ArialMT-74"/>
      <use x="27.783203125" xlink:href="#ArialMT-69"/>
      <use x="50.0" xlink:href="#ArialMT-6d"/>
      <use x="133.30078125" xlink:href="#ArialMT-65"/>
     </g>
    </g>
    <g id="PathCollection_7">
     <path d="M 461.94375 70.556663 
C 462.970877 70.556663 463.956074 70.148581 464.682363 69.422292 
C 465.408651 68.696004 465.816733 67.710807 465.816733 66.68368 
C 465.816733 65.656552 465.408651 64.671356 464.682363 63.945067 
C 463.956074 63.218778 462.970877 62.810696 461.94375 62.810696 
C 460.916623 62.810696 459.931426 63.218778 459.205137 63.945067 
C 458.478849 64.671356 458.070767 65.656552 458.070767 66.68368 
C 458.070767 67.710807 458.478849 68.696004 459.205137 69.422292 
C 459.931426 70.148581 460.916623 70.556663 461.94375 70.556663 
z
" style="fill:#4c72b0;stroke:#4c72b0;stroke-width:0.3;"/>
     <path d="M 461.94375 70.556663 
C 462.970877 70.556663 463.956074 70.148581 464.682363 69.422292 
C 465.408651 68.696004 465.816733 67.710807 465.816733 66.68368 
C 465.816733 65.656552 465.408651 64.671356 464.682363 63.945067 
C 463.956074 63.218778 462.970877 62.810696 461.94375 62.810696 
C 460.916623 62.810696 459.931426 63.218778 459.205137 63.945067 
C 458.478849 64.671356 458.070767 65.656552 458.070767 66.68368 
C 458.070767 67.710807 458.478849 68.696004 459.205137 69.422292 
C 459.931426 70.148581 460.916623 70.556663 461.94375 70.556663 
z
" style="fill:#4c72b0;stroke:#4c72b0;stroke-width:0.3;"/>
     <path d="M 461.94375 70.556663 
C 462.970877 70.556663 463.956074 70.148581 464.682363 69.422292 
C 465.408651 68.696004 465.816733 67.710807 465.816733 66.68368 
C 465.816733 65.656552 465.408651 64.671356 464.682363 63.945067 
C 463.956074 63.218778 462.970877 62.810696 461.94375 62.810696 
C 460.916623 62.810696 459.931426 63.218778 459.205137 63.945067 
C 458.478849 64.671356 458.070767 65.656552 458.070767 66.68368 
C 458.070767 67.710807 458.478849 68.696004 459.205137 69.422292 
C 459.931426 70.148581 460.916623 70.556663 461.94375 70.556663 
z
" style="fill:#4c72b0;stroke:#4c72b0;stroke-width:0.3;"/>
    </g>
    <g id="text_16">
     <!-- Dinner -->
     <defs>
      <path d="M 7.71875 0 
L 7.71875 71.578125 
L 32.375 71.578125 
Q 40.71875 71.578125 45.125 70.5625 
Q 51.265625 69.140625 55.609375 65.4375 
Q 61.28125 60.640625 64.078125 53.1875 
Q 66.890625 45.75 66.890625 36.1875 
Q 66.890625 28.03125 64.984375 21.734375 
Q 63.09375 15.4375 60.109375 11.296875 
Q 57.125 7.171875 53.578125 4.796875 
Q 50.046875 2.4375 45.046875 1.21875 
Q 40.046875 0 33.546875 0 
z
M 17.1875 8.453125 
L 32.46875 8.453125 
Q 39.546875 8.453125 43.578125 9.765625 
Q 47.609375 11.078125 50 13.484375 
Q 53.375 16.84375 55.25 22.53125 
Q 57.125 28.21875 57.125 36.328125 
Q 57.125 47.5625 53.4375 53.59375 
Q 49.75 59.625 44.484375 61.671875 
Q 40.671875 63.140625 32.234375 63.140625 
L 17.1875 63.140625 
z
" id="ArialMT-44"/>
     </defs>
     <g style="fill:#262626;" transform="translate(479.94375 69.3086796875)scale(0.1 -0.1)">
      <use xlink:href="#ArialMT-44"/>
      <use x="72.216796875" xlink:href="#ArialMT-69"/>
      <use x="94.43359375" xlink:href="#ArialMT-6e"/>
      <use x="150.048828125" xlink:href="#ArialMT-6e"/>
      <use x="205.6640625" xlink:href="#ArialMT-65"/>
      <use x="261.279296875" xlink:href="#ArialMT-72"/>
     </g>
    </g>
    <g id="PathCollection_8">
     <path d="M 461.94375 84.701976 
C 462.970877 84.701976 463.956074 84.293894 464.682363 83.567605 
C 465.408651 82.841316 465.816733 81.856119 465.816733 80.828992 
C 465.816733 79.801865 465.408651 78.816668 464.682363 78.090379 
C 463.956074 77.364091 462.970877 76.956009 461.94375 76.956009 
C 460.916623 76.956009 459.931426 77.364091 459.205137 78.090379 
C 458.478849 78.816668 458.070767 79.801865 458.070767 80.828992 
C 458.070767 81.856119 458.478849 82.841316 459.205137 83.567605 
C 459.931426 84.293894 460.916623 84.701976 461.94375 84.701976 
z
" style="fill:#55a868;stroke:#55a868;stroke-width:0.3;"/>
     <path d="M 461.94375 84.701976 
C 462.970877 84.701976 463.956074 84.293894 464.682363 83.567605 
C 465.408651 82.841316 465.816733 81.856119 465.816733 80.828992 
C 465.816733 79.801865 465.408651 78.816668 464.682363 78.090379 
C 463.956074 77.364091 462.970877 76.956009 461.94375 76.956009 
C 460.916623 76.956009 459.931426 77.364091 459.205137 78.090379 
C 458.478849 78.816668 458.070767 79.801865 458.070767 80.828992 
C 458.070767 81.856119 458.478849 82.841316 459.205137 83.567605 
C 459.931426 84.293894 460.916623 84.701976 461.94375 84.701976 
z
" style="fill:#55a868;stroke:#55a868;stroke-width:0.3;"/>
     <path d="M 461.94375 84.701976 
C 462.970877 84.701976 463.956074 84.293894 464.682363 83.567605 
C 465.408651 82.841316 465.816733 81.856119 465.816733 80.828992 
C 465.816733 79.801865 465.408651 78.816668 464.682363 78.090379 
C 463.956074 77.364091 462.970877 76.956009 461.94375 76.956009 
C 460.916623 76.956009 459.931426 77.364091 459.205137 78.090379 
C 458.478849 78.816668 458.070767 79.801865 458.070767 80.828992 
C 458.070767 81.856119 458.478849 82.841316 459.205137 83.567605 
C 459.931426 84.293894 460.916623 84.701976 461.94375 84.701976 
z
" style="fill:#55a868;stroke:#55a868;stroke-width:0.3;"/>
    </g>
    <g id="text_17">
     <!-- Lunch -->
     <defs>
      <path d="M 7.328125 0 
L 7.328125 71.578125 
L 16.796875 71.578125 
L 16.796875 8.453125 
L 52.046875 8.453125 
L 52.046875 0 
z
" id="ArialMT-4c"/>
     </defs>
     <g style="fill:#262626;" transform="translate(479.94375 83.4539921875)scale(0.1 -0.1)">
      <use xlink:href="#ArialMT-4c"/>
      <use x="55.615234375" xlink:href="#ArialMT-75"/>
      <use x="111.23046875" xlink:href="#ArialMT-6e"/>
      <use x="166.845703125" xlink:href="#ArialMT-63"/>
      <use x="216.845703125" xlink:href="#ArialMT-68"/>
     </g>
    </g>
   </g>
  </g>
 </g>
 <defs>
  <clipPath id="pfffafed0ae">
   <rect height="316.8" width="446.4" x="72.0" y="39.6"/>
  </clipPath>
 </defs>
</svg>
