<?xml version="1.0" encoding="utf-8" standalone="no"?>
<!DOCTYPE svg PUBLIC "-//W3C//DTD SVG 1.1//EN"
  "http://www.w3.org/Graphics/SVG/1.1/DTD/svg11.dtd">
<!-- Created with matplotlib (http://matplotlib.org/) -->
<svg height="360pt" version="1.1" viewBox="0 0 576 360" width="576pt" xmlns="http://www.w3.org/2000/svg" xmlns:xlink="http://www.w3.org/1999/xlink">
 <defs>
  <style type="text/css">
*{stroke-linecap:butt;stroke-linejoin:round;stroke-miterlimit:100000;}
  </style>
 </defs>
 <g id="figure_1">
  <g id="patch_1">
   <path d="M 0 360 
L 576 360 
L 576 0 
L 0 0 
z
" style="fill:#ffffff;"/>
  </g>
  <g id="axes_1">
   <g id="patch_2">
    <path d="M 72 324 
L 518.4 324 
L 518.4 36 
L 72 36 
z
" style="fill:#ffffff;"/>
   </g>
   <g id="PolyCollection_1">
    <defs>
     <path d="M 145.431296 -61.332242 
L 126.111561 -61.332242 
L 125.982402 -63.720813 
L 125.855468 -66.109384 
L 125.73078 -68.497955 
L 125.608348 -70.886525 
L 125.488177 -73.275096 
L 125.370263 -75.663667 
L 125.254595 -78.052238 
L 125.141152 -80.440809 
L 125.029909 -82.82938 
L 124.920831 -85.21795 
L 124.813879 -87.606521 
L 124.709005 -89.995092 
L 124.606155 -92.383663 
L 124.505269 -94.772234 
L 124.406283 -97.160804 
L 124.309127 -99.549375 
L 124.213724 -101.937946 
L 124.119996 -104.326517 
L 124.027859 -106.715088 
L 123.937227 -109.103659 
L 123.848009 -111.492229 
L 123.760114 -113.8808 
L 123.673447 -116.269371 
L 123.587914 -118.657942 
L 123.503418 -121.046513 
L 123.419863 -123.435083 
L 123.337153 -125.823654 
L 123.255194 -128.212225 
L 123.173891 -130.600796 
L 123.093155 -132.989367 
L 123.012896 -135.377938 
L 122.933029 -137.766508 
L 122.853473 -140.155079 
L 122.774152 -142.54365 
L 122.694994 -144.932221 
L 122.615933 -147.320792 
L 122.536909 -149.709363 
L 122.45787 -152.097933 
L 122.378768 -154.486504 
L 122.299567 -156.875075 
L 122.220236 -159.263646 
L 122.140754 -161.652217 
L 122.06111 -164.040787 
L 121.981299 -166.429358 
L 121.90133 -168.817929 
L 121.821221 -171.2065 
L 121.740998 -173.595071 
L 121.660701 -175.983642 
L 121.580379 -178.372212 
L 121.500092 -180.760783 
L 121.419914 -183.149354 
L 121.339927 -185.537925 
L 121.260226 -187.926496 
L 121.180917 -190.315066 
L 121.102117 -192.703637 
L 121.023954 -195.092208 
L 120.946568 -197.480779 
L 120.870109 -199.86935 
L 120.794736 -202.257921 
L 120.720622 -204.646491 
L 120.647944 -207.035062 
L 120.576894 -209.423633 
L 120.507667 -211.812204 
L 120.440471 -214.200775 
L 120.375518 -216.589345 
L 120.313028 -218.977916 
L 120.253226 -221.366487 
L 120.196344 -223.755058 
L 120.142617 -226.143629 
L 120.092283 -228.5322 
L 120.045584 -230.92077 
L 120.002762 -233.309341 
L 119.964059 -235.697912 
L 119.92972 -238.086483 
L 119.899985 -240.475054 
L 119.875092 -242.863624 
L 119.855277 -245.252195 
L 119.84077 -247.640766 
L 119.831796 -250.029337 
L 119.828571 -252.417908 
L 119.831307 -254.806479 
L 119.840203 -257.195049 
L 119.855451 -259.58362 
L 119.877231 -261.972191 
L 119.905709 -264.360762 
L 119.941042 -266.749333 
L 119.98337 -269.137903 
L 120.032821 -271.526474 
L 120.089506 -273.915045 
L 120.15352 -276.303616 
L 120.224941 -278.692187 
L 120.303832 -281.080758 
L 120.390236 -283.469328 
L 120.484178 -285.857899 
L 120.585664 -288.24647 
L 120.694684 -290.635041 
L 120.811205 -293.023612 
L 120.935178 -295.412182 
L 121.066534 -297.800753 
L 150.476324 -297.800753 
L 150.476324 -297.800753 
L 150.607679 -295.412182 
L 150.731652 -293.023612 
L 150.848173 -290.635041 
L 150.957193 -288.24647 
L 151.05868 -285.857899 
L 151.152621 -283.469328 
L 151.239025 -281.080758 
L 151.317916 -278.692187 
L 151.389337 -276.303616 
L 151.453351 -273.915045 
L 151.510036 -271.526474 
L 151.559487 -269.137903 
L 151.601815 -266.749333 
L 151.637148 -264.360762 
L 151.665627 -261.972191 
L 151.687406 -259.58362 
L 151.702654 -257.195049 
L 151.71155 -254.806479 
L 151.714286 -252.417908 
L 151.711061 -250.029337 
L 151.702087 -247.640766 
L 151.68758 -245.252195 
L 151.667765 -242.863624 
L 151.642872 -240.475054 
L 151.613137 -238.086483 
L 151.578798 -235.697912 
L 151.540096 -233.309341 
L 151.497273 -230.92077 
L 151.450574 -228.5322 
L 151.40024 -226.143629 
L 151.346513 -223.755058 
L 151.289631 -221.366487 
L 151.229829 -218.977916 
L 151.167339 -216.589345 
L 151.102386 -214.200775 
L 151.03519 -211.812204 
L 150.965963 -209.423633 
L 150.894913 -207.035062 
L 150.822235 -204.646491 
L 150.748121 -202.257921 
L 150.672749 -199.86935 
L 150.596289 -197.480779 
L 150.518903 -195.092208 
L 150.440741 -192.703637 
L 150.36194 -190.315066 
L 150.282631 -187.926496 
L 150.20293 -185.537925 
L 150.122943 -183.149354 
L 150.042765 -180.760783 
L 149.962479 -178.372212 
L 149.882157 -175.983642 
L 149.801859 -173.595071 
L 149.721636 -171.2065 
L 149.641527 -168.817929 
L 149.561558 -166.429358 
L 149.481748 -164.040787 
L 149.402103 -161.652217 
L 149.322621 -159.263646 
L 149.24329 -156.875075 
L 149.164089 -154.486504 
L 149.084987 -152.097933 
L 149.005948 -149.709363 
L 148.926924 -147.320792 
L 148.847863 -144.932221 
L 148.768705 -142.54365 
L 148.689384 -140.155079 
L 148.609828 -137.766508 
L 148.529962 -135.377938 
L 148.449702 -132.989367 
L 148.368966 -130.600796 
L 148.287663 -128.212225 
L 148.205704 -125.823654 
L 148.122994 -123.435083 
L 148.039439 -121.046513 
L 147.954943 -118.657942 
L 147.86941 -116.269371 
L 147.782743 -113.8808 
L 147.694848 -111.492229 
L 147.60563 -109.103659 
L 147.514998 -106.715088 
L 147.422861 -104.326517 
L 147.329133 -101.937946 
L 147.23373 -99.549375 
L 147.136574 -97.160804 
L 147.037588 -94.772234 
L 146.936703 -92.383663 
L 146.833852 -89.995092 
L 146.728978 -87.606521 
L 146.622026 -85.21795 
L 146.512948 -82.82938 
L 146.401705 -80.440809 
L 146.288263 -78.052238 
L 146.172594 -75.663667 
L 146.05468 -73.275096 
L 145.934509 -70.886525 
L 145.812077 -68.497955 
L 145.687389 -66.109384 
L 145.560455 -63.720813 
L 145.431296 -61.332242 
z
" id="m361e165525" style="stroke:#000000;stroke-opacity:0.3;"/>
    </defs>
    <g clip-path="url(#pc22b645ed1)">
     <use style="fill:#bfbf00;fill-opacity:0.3;stroke:#000000;stroke-opacity:0.3;" x="0.0" xlink:href="#m361e165525" y="360.0"/>
    </g>
   </g>
   <g id="PolyCollection_2">
    <defs>
     <path d="M 210.344501 -66.687526 
L 188.741213 -66.687526 
L 188.529336 -68.749438 
L 188.319087 -70.81135 
L 188.110662 -72.873263 
L 187.904262 -74.935175 
L 187.700087 -76.997087 
L 187.498342 -79.059 
L 187.299236 -81.120912 
L 187.102979 -83.182825 
L 186.909785 -85.244737 
L 186.71987 -87.306649 
L 186.533453 -89.368562 
L 186.350756 -91.430474 
L 186.172003 -93.492387 
L 185.997419 -95.554299 
L 185.827231 -97.616211 
L 185.661665 -99.678124 
L 185.500951 -101.740036 
L 185.345315 -103.801949 
L 185.194983 -105.863861 
L 185.050179 -107.925773 
L 184.911125 -109.987686 
L 184.778039 -112.049598 
L 184.651132 -114.11151 
L 184.530613 -116.173423 
L 184.416681 -118.235335 
L 184.309529 -120.297248 
L 184.209341 -122.35916 
L 184.11629 -124.421072 
L 184.030537 -126.482985 
L 183.952234 -128.544897 
L 183.881516 -130.60681 
L 183.818505 -132.668722 
L 183.763308 -134.730634 
L 183.716015 -136.792547 
L 183.676698 -138.854459 
L 183.645412 -140.916372 
L 183.622193 -142.978284 
L 183.607057 -145.040196 
L 183.6 -147.102109 
L 183.600998 -149.164021 
L 183.610006 -151.225933 
L 183.626959 -153.287846 
L 183.651771 -155.349758 
L 183.684334 -157.411671 
L 183.724521 -159.473583 
L 183.772185 -161.535495 
L 183.827159 -163.597408 
L 183.889259 -165.65932 
L 183.958281 -167.721233 
L 184.034004 -169.783145 
L 184.116194 -171.845057 
L 184.204601 -173.90697 
L 184.29896 -175.968882 
L 184.398998 -178.030795 
L 184.504428 -180.092707 
L 184.614956 -182.154619 
L 184.730282 -184.216532 
L 184.850099 -186.278444 
L 184.974098 -188.340356 
L 185.101968 -190.402269 
L 185.233396 -192.464181 
L 185.368073 -194.526094 
L 185.505692 -196.588006 
L 185.645954 -198.649918 
L 185.788564 -200.711831 
L 185.933235 -202.773743 
L 186.079692 -204.835656 
L 186.227671 -206.897568 
L 186.37692 -208.95948 
L 186.527199 -211.021393 
L 186.678287 -213.083305 
L 186.829974 -215.145218 
L 186.98207 -217.20713 
L 187.1344 -219.269042 
L 187.286807 -221.330955 
L 187.439153 -223.392867 
L 187.591315 -225.454779 
L 187.743192 -227.516692 
L 187.894698 -229.578604 
L 188.045764 -231.640517 
L 188.196341 -233.702429 
L 188.346393 -235.764341 
L 188.495901 -237.826254 
L 188.644864 -239.888166 
L 188.793289 -241.950079 
L 188.941201 -244.011991 
L 189.088635 -246.073903 
L 189.235634 -248.135816 
L 189.382255 -250.197728 
L 189.528559 -252.259641 
L 189.674615 -254.321553 
L 189.820498 -256.383465 
L 189.966285 -258.445378 
L 190.112055 -260.50729 
L 190.257891 -262.569202 
L 190.403872 -264.631115 
L 190.550077 -266.693027 
L 190.696582 -268.75494 
L 190.843458 -270.816852 
L 208.242256 -270.816852 
L 208.242256 -270.816852 
L 208.389132 -268.75494 
L 208.535637 -266.693027 
L 208.681842 -264.631115 
L 208.827823 -262.569202 
L 208.973659 -260.50729 
L 209.11943 -258.445378 
L 209.265216 -256.383465 
L 209.411099 -254.321553 
L 209.557155 -252.259641 
L 209.703459 -250.197728 
L 209.85008 -248.135816 
L 209.99708 -246.073903 
L 210.144513 -244.011991 
L 210.292425 -241.950079 
L 210.440851 -239.888166 
L 210.589813 -237.826254 
L 210.739322 -235.764341 
L 210.889374 -233.702429 
L 211.03995 -231.640517 
L 211.191016 -229.578604 
L 211.342522 -227.516692 
L 211.494399 -225.454779 
L 211.646562 -223.392867 
L 211.798907 -221.330955 
L 211.951314 -219.269042 
L 212.103644 -217.20713 
L 212.25574 -215.145218 
L 212.407428 -213.083305 
L 212.558515 -211.021393 
L 212.708795 -208.95948 
L 212.858043 -206.897568 
L 213.006022 -204.835656 
L 213.152479 -202.773743 
L 213.297151 -200.711831 
L 213.43976 -198.649918 
L 213.580022 -196.588006 
L 213.717642 -194.526094 
L 213.852319 -192.464181 
L 213.983747 -190.402269 
L 214.111616 -188.340356 
L 214.235615 -186.278444 
L 214.355432 -184.216532 
L 214.470758 -182.154619 
L 214.581287 -180.092707 
L 214.686717 -178.030795 
L 214.786754 -175.968882 
L 214.881113 -173.90697 
L 214.96952 -171.845057 
L 215.05171 -169.783145 
L 215.127434 -167.721233 
L 215.196455 -165.65932 
L 215.258555 -163.597408 
L 215.313529 -161.535495 
L 215.361194 -159.473583 
L 215.401381 -157.411671 
L 215.433944 -155.349758 
L 215.458755 -153.287846 
L 215.475708 -151.225933 
L 215.484716 -149.164021 
L 215.485714 -147.102109 
L 215.478657 -145.040196 
L 215.463521 -142.978284 
L 215.440302 -140.916372 
L 215.409016 -138.854459 
L 215.369699 -136.792547 
L 215.322406 -134.730634 
L 215.267209 -132.668722 
L 215.204198 -130.60681 
L 215.13348 -128.544897 
L 215.055177 -126.482985 
L 214.969425 -124.421072 
L 214.876373 -122.35916 
L 214.776185 -120.297248 
L 214.669033 -118.235335 
L 214.555101 -116.173423 
L 214.434582 -114.11151 
L 214.307676 -112.049598 
L 214.174589 -109.987686 
L 214.035535 -107.925773 
L 213.890731 -105.863861 
L 213.740399 -103.801949 
L 213.584763 -101.740036 
L 213.424049 -99.678124 
L 213.258484 -97.616211 
L 213.088295 -95.554299 
L 212.913711 -93.492387 
L 212.734958 -91.430474 
L 212.552261 -89.368562 
L 212.365845 -87.306649 
L 212.17593 -85.244737 
L 211.982735 -83.182825 
L 211.786478 -81.120912 
L 211.587372 -79.059 
L 211.385627 -76.997087 
L 211.181452 -74.935175 
L 210.975052 -72.873263 
L 210.766628 -70.81135 
L 210.556379 -68.749438 
L 210.344501 -66.687526 
z
" id="mf4f4403f7c" style="stroke:#000000;stroke-opacity:0.3;"/>
    </defs>
    <g clip-path="url(#pc22b645ed1)">
     <use style="fill:#bfbf00;fill-opacity:0.3;stroke:#000000;stroke-opacity:0.3;" x="0.0" xlink:href="#mf4f4403f7c" y="360.0"/>
    </g>
   </g>
   <g id="PolyCollection_3">
    <defs>
     <path d="M 276.782907 -45.189971 
L 249.845664 -45.189971 
L 249.666632 -45.992453 
L 249.493684 -46.794936 
L 249.326999 -47.597418 
L 249.166737 -48.3999 
L 249.013044 -49.202383 
L 248.866047 -50.004865 
L 248.725858 -50.807347 
L 248.59257 -51.60983 
L 248.466258 -52.412312 
L 248.346981 -53.214795 
L 248.23478 -54.017277 
L 248.129679 -54.819759 
L 248.031682 -55.622242 
L 247.940781 -56.424724 
L 247.856948 -57.227206 
L 247.78014 -58.029689 
L 247.710299 -58.832171 
L 247.647351 -59.634653 
L 247.591207 -60.437136 
L 247.541766 -61.239618 
L 247.498914 -62.042101 
L 247.462523 -62.844583 
L 247.432456 -63.647065 
L 247.408562 -64.449548 
L 247.390684 -65.25203 
L 247.378653 -66.054512 
L 247.372296 -66.856995 
L 247.371429 -67.659477 
L 247.375864 -68.461959 
L 247.385408 -69.264442 
L 247.399864 -70.066924 
L 247.419032 -70.869407 
L 247.442708 -71.671889 
L 247.47069 -72.474371 
L 247.502772 -73.276854 
L 247.538753 -74.079336 
L 247.578429 -74.881818 
L 247.6216 -75.684301 
L 247.668071 -76.486783 
L 247.717647 -77.289265 
L 247.770141 -78.091748 
L 247.82537 -78.89423 
L 247.883156 -79.696713 
L 247.943328 -80.499195 
L 248.005724 -81.301677 
L 248.070185 -82.10416 
L 248.136565 -82.906642 
L 248.204723 -83.709124 
L 248.274529 -84.511607 
L 248.345859 -85.314089 
L 248.418602 -86.116571 
L 248.492653 -86.919054 
L 248.567919 -87.721536 
L 248.644316 -88.524019 
L 248.72177 -89.326501 
L 248.800216 -90.128983 
L 248.879599 -90.931466 
L 248.959874 -91.733948 
L 249.041007 -92.53643 
L 249.122969 -93.338913 
L 249.205745 -94.141395 
L 249.289326 -94.943877 
L 249.373712 -95.74636 
L 249.458912 -96.548842 
L 249.544943 -97.351324 
L 249.631827 -98.153807 
L 249.719597 -98.956289 
L 249.808289 -99.758772 
L 249.897948 -100.561254 
L 249.988622 -101.363736 
L 250.080366 -102.166219 
L 250.173239 -102.968701 
L 250.267304 -103.771183 
L 250.362626 -104.573666 
L 250.459275 -105.376148 
L 250.557322 -106.17863 
L 250.656839 -106.981113 
L 250.757901 -107.783595 
L 250.86058 -108.586078 
L 250.964951 -109.38856 
L 251.071086 -110.191042 
L 251.179057 -110.993525 
L 251.288932 -111.796007 
L 251.400777 -112.598489 
L 251.514656 -113.400972 
L 251.630627 -114.203454 
L 251.748745 -115.005936 
L 251.86906 -115.808419 
L 251.991615 -116.610901 
L 252.116449 -117.413384 
L 252.243593 -118.215866 
L 252.373073 -119.018348 
L 252.504906 -119.820831 
L 252.639103 -120.623313 
L 252.775666 -121.425795 
L 252.914589 -122.228278 
L 253.055859 -123.03076 
L 253.199453 -123.833242 
L 253.34534 -124.635725 
L 273.283231 -124.635725 
L 273.283231 -124.635725 
L 273.429118 -123.833242 
L 273.572713 -123.03076 
L 273.713983 -122.228278 
L 273.852906 -121.425795 
L 273.989469 -120.623313 
L 274.123665 -119.820831 
L 274.255499 -119.018348 
L 274.384979 -118.215866 
L 274.512123 -117.413384 
L 274.636957 -116.610901 
L 274.759512 -115.808419 
L 274.879826 -115.005936 
L 274.997945 -114.203454 
L 275.113916 -113.400972 
L 275.227794 -112.598489 
L 275.33964 -111.796007 
L 275.449515 -110.993525 
L 275.557485 -110.191042 
L 275.66362 -109.38856 
L 275.767991 -108.586078 
L 275.870671 -107.783595 
L 275.971732 -106.981113 
L 276.07125 -106.17863 
L 276.169296 -105.376148 
L 276.265945 -104.573666 
L 276.361268 -103.771183 
L 276.455332 -102.968701 
L 276.548205 -102.166219 
L 276.639949 -101.363736 
L 276.730624 -100.561254 
L 276.820282 -99.758772 
L 276.908975 -98.956289 
L 276.996744 -98.153807 
L 277.083629 -97.351324 
L 277.169659 -96.548842 
L 277.254859 -95.74636 
L 277.339245 -94.943877 
L 277.422826 -94.141395 
L 277.505602 -93.338913 
L 277.587565 -92.53643 
L 277.668697 -91.733948 
L 277.748972 -90.931466 
L 277.828356 -90.128983 
L 277.906802 -89.326501 
L 277.984255 -88.524019 
L 278.060652 -87.721536 
L 278.135919 -86.919054 
L 278.20997 -86.116571 
L 278.282712 -85.314089 
L 278.354043 -84.511607 
L 278.423848 -83.709124 
L 278.492006 -82.906642 
L 278.558386 -82.10416 
L 278.622848 -81.301677 
L 278.685243 -80.499195 
L 278.745416 -79.696713 
L 278.803202 -78.89423 
L 278.85843 -78.091748 
L 278.910924 -77.289265 
L 278.960501 -76.486783 
L 279.006971 -75.684301 
L 279.050143 -74.881818 
L 279.089819 -74.079336 
L 279.125799 -73.276854 
L 279.157882 -72.474371 
L 279.185863 -71.671889 
L 279.20954 -70.869407 
L 279.228707 -70.066924 
L 279.243163 -69.264442 
L 279.252708 -68.461959 
L 279.257143 -67.659477 
L 279.256276 -66.856995 
L 279.249918 -66.054512 
L 279.237888 -65.25203 
L 279.22001 -64.449548 
L 279.196116 -63.647065 
L 279.166048 -62.844583 
L 279.129657 -62.042101 
L 279.086805 -61.239618 
L 279.037365 -60.437136 
L 278.981221 -59.634653 
L 278.918272 -58.832171 
L 278.848431 -58.029689 
L 278.771623 -57.227206 
L 278.68779 -56.424724 
L 278.596889 -55.622242 
L 278.498893 -54.819759 
L 278.393791 -54.017277 
L 278.28159 -53.214795 
L 278.162313 -52.412312 
L 278.036002 -51.60983 
L 277.902713 -50.807347 
L 277.762524 -50.004865 
L 277.615528 -49.202383 
L 277.461835 -48.3999 
L 277.301573 -47.597418 
L 277.134887 -46.794936 
L 276.961939 -45.992453 
L 276.782907 -45.189971 
z
" id="m5a6c96b0ef" style="stroke:#000000;stroke-opacity:0.3;"/>
    </defs>
    <g clip-path="url(#pc22b645ed1)">
     <use style="fill:#bfbf00;fill-opacity:0.3;stroke:#000000;stroke-opacity:0.3;" x="0.0" xlink:href="#m5a6c96b0ef" y="360.0"/>
    </g>
   </g>
   <g id="PolyCollection_4">
    <defs>
     <path d="M 333.528712 -148.508307 
L 320.642717 -148.508307 
L 320.584035 -149.585944 
L 320.526813 -150.663581 
L 320.470904 -151.741218 
L 320.416149 -152.818856 
L 320.362377 -153.896493 
L 320.309404 -154.97413 
L 320.257037 -156.051767 
L 320.205071 -157.129404 
L 320.153292 -158.207041 
L 320.101481 -159.284679 
L 320.049407 -160.362316 
L 319.996836 -161.439953 
L 319.943527 -162.51759 
L 319.889237 -163.595227 
L 319.833718 -164.672864 
L 319.776722 -165.750502 
L 319.718001 -166.828139 
L 319.657307 -167.905776 
L 319.594396 -168.983413 
L 319.529026 -170.06105 
L 319.460961 -171.138688 
L 319.389973 -172.216325 
L 319.31584 -173.293962 
L 319.23835 -174.371599 
L 319.157302 -175.449236 
L 319.072507 -176.526873 
L 318.98379 -177.604511 
L 318.890988 -178.682148 
L 318.793956 -179.759785 
L 318.692566 -180.837422 
L 318.586707 -181.915059 
L 318.476288 -182.992696 
L 318.361236 -184.070334 
L 318.241501 -185.147971 
L 318.117053 -186.225608 
L 317.987886 -187.303245 
L 317.854015 -188.380882 
L 317.71548 -189.45852 
L 317.572343 -190.536157 
L 317.424693 -191.613794 
L 317.272639 -192.691431 
L 317.116319 -193.769068 
L 316.955892 -194.846705 
L 316.791543 -195.924343 
L 316.62348 -197.00198 
L 316.451934 -198.079617 
L 316.277161 -199.157254 
L 316.099437 -200.234891 
L 315.919063 -201.312528 
L 315.736358 -202.390166 
L 315.551662 -203.467803 
L 315.365335 -204.54544 
L 315.177754 -205.623077 
L 314.989312 -206.700714 
L 314.800419 -207.778351 
L 314.611499 -208.855989 
L 314.422988 -209.933626 
L 314.235332 -211.011263 
L 314.048989 -212.0889 
L 313.864423 -213.166537 
L 313.682106 -214.244175 
L 313.502512 -215.321812 
L 313.32612 -216.399449 
L 313.153409 -217.477086 
L 312.984858 -218.554723 
L 312.820943 -219.63236 
L 312.662134 -220.709998 
L 312.508896 -221.787635 
L 312.361688 -222.865272 
L 312.220956 -223.942909 
L 312.087135 -225.020546 
L 311.96065 -226.098183 
L 311.841907 -227.175821 
L 311.731298 -228.253458 
L 311.629197 -229.331095 
L 311.535958 -230.408732 
L 311.451915 -231.486369 
L 311.377378 -232.564006 
L 311.312636 -233.641644 
L 311.257954 -234.719281 
L 311.21357 -235.796918 
L 311.179697 -236.874555 
L 311.15652 -237.952192 
L 311.144196 -239.02983 
L 311.142857 -240.107467 
L 311.152603 -241.185104 
L 311.173505 -242.262741 
L 311.205608 -243.340378 
L 311.248924 -244.418015 
L 311.303437 -245.495653 
L 311.369104 -246.57329 
L 311.44585 -247.650927 
L 311.533573 -248.728564 
L 311.632144 -249.806201 
L 311.741404 -250.883838 
L 311.86117 -251.961476 
L 311.991231 -253.039113 
L 312.131352 -254.11675 
L 312.281276 -255.194387 
L 341.890153 -255.194387 
L 341.890153 -255.194387 
L 342.040076 -254.11675 
L 342.180198 -253.039113 
L 342.310259 -251.961476 
L 342.430025 -250.883838 
L 342.539285 -249.806201 
L 342.637855 -248.728564 
L 342.725578 -247.650927 
L 342.802324 -246.57329 
L 342.867991 -245.495653 
L 342.922505 -244.418015 
L 342.965821 -243.340378 
L 342.997923 -242.262741 
L 343.018826 -241.185104 
L 343.028571 -240.107467 
L 343.027232 -239.02983 
L 343.014909 -237.952192 
L 342.991732 -236.874555 
L 342.957858 -235.796918 
L 342.913474 -234.719281 
L 342.858792 -233.641644 
L 342.794051 -232.564006 
L 342.719514 -231.486369 
L 342.63547 -230.408732 
L 342.542231 -229.331095 
L 342.44013 -228.253458 
L 342.329521 -227.175821 
L 342.210779 -226.098183 
L 342.084293 -225.020546 
L 341.950473 -223.942909 
L 341.809741 -222.865272 
L 341.662532 -221.787635 
L 341.509295 -220.709998 
L 341.350486 -219.63236 
L 341.18657 -218.554723 
L 341.018019 -217.477086 
L 340.845308 -216.399449 
L 340.668917 -215.321812 
L 340.489323 -214.244175 
L 340.307005 -213.166537 
L 340.12244 -212.0889 
L 339.936097 -211.011263 
L 339.748441 -209.933626 
L 339.559929 -208.855989 
L 339.371009 -207.778351 
L 339.182116 -206.700714 
L 338.993675 -205.623077 
L 338.806093 -204.54544 
L 338.619766 -203.467803 
L 338.43507 -202.390166 
L 338.252365 -201.312528 
L 338.071991 -200.234891 
L 337.894268 -199.157254 
L 337.719495 -198.079617 
L 337.547949 -197.00198 
L 337.379885 -195.924343 
L 337.215536 -194.846705 
L 337.055109 -193.769068 
L 336.898789 -192.691431 
L 336.746736 -191.613794 
L 336.599085 -190.536157 
L 336.455949 -189.45852 
L 336.317414 -188.380882 
L 336.183543 -187.303245 
L 336.054376 -186.225608 
L 335.929928 -185.147971 
L 335.810193 -184.070334 
L 335.695141 -182.992696 
L 335.584721 -181.915059 
L 335.478862 -180.837422 
L 335.377473 -179.759785 
L 335.280441 -178.682148 
L 335.187639 -177.604511 
L 335.098921 -176.526873 
L 335.014126 -175.449236 
L 334.933079 -174.371599 
L 334.855589 -173.293962 
L 334.781456 -172.216325 
L 334.710467 -171.138688 
L 334.642403 -170.06105 
L 334.577033 -168.983413 
L 334.514121 -167.905776 
L 334.453427 -166.828139 
L 334.394706 -165.750502 
L 334.337711 -164.672864 
L 334.282192 -163.595227 
L 334.227901 -162.51759 
L 334.174593 -161.439953 
L 334.122022 -160.362316 
L 334.069948 -159.284679 
L 334.018136 -158.207041 
L 333.966358 -157.129404 
L 333.914392 -156.051767 
L 333.862024 -154.97413 
L 333.809051 -153.896493 
L 333.755279 -152.818856 
L 333.700525 -151.741218 
L 333.644616 -150.663581 
L 333.587394 -149.585944 
L 333.528712 -148.508307 
z
" id="m9576403b59" style="stroke:#000000;stroke-opacity:0.3;"/>
    </defs>
    <g clip-path="url(#pc22b645ed1)">
     <use style="fill:#bfbf00;fill-opacity:0.3;stroke:#000000;stroke-opacity:0.3;" x="0.0" xlink:href="#m9576403b59" y="360.0"/>
    </g>
   </g>
   <g id="PolyCollection_5">
    <defs>
     <path d="M 406.443782 -111.020499 
L 375.270504 -111.020499 
L 375.211285 -112.476801 
L 375.157836 -113.933102 
L 375.110066 -115.389404 
L 375.067871 -116.845706 
L 375.031134 -118.302008 
L 374.999724 -119.75831 
L 374.973499 -121.214612 
L 374.952302 -122.670914 
L 374.935966 -124.127216 
L 374.924313 -125.583518 
L 374.917153 -127.03982 
L 374.914286 -128.496122 
L 374.915504 -129.952423 
L 374.920589 -131.408725 
L 374.929316 -132.865027 
L 374.941454 -134.321329 
L 374.956762 -135.777631 
L 374.974997 -137.233933 
L 374.995911 -138.690235 
L 375.01925 -140.146537 
L 375.044761 -141.602839 
L 375.072185 -143.059141 
L 375.101266 -144.515442 
L 375.131745 -145.971744 
L 375.163364 -147.428046 
L 375.195871 -148.884348 
L 375.229011 -150.34065 
L 375.262537 -151.796952 
L 375.296204 -153.253254 
L 375.329776 -154.709556 
L 375.363019 -156.165858 
L 375.39571 -157.62216 
L 375.427632 -159.078462 
L 375.458578 -160.534763 
L 375.488351 -161.991065 
L 375.516763 -163.447367 
L 375.543638 -164.903669 
L 375.568812 -166.359971 
L 375.592134 -167.816273 
L 375.613464 -169.272575 
L 375.632679 -170.728877 
L 375.649665 -172.185179 
L 375.664328 -173.641481 
L 375.676584 -175.097782 
L 375.686366 -176.554084 
L 375.693624 -178.010386 
L 375.698321 -179.466688 
L 375.700436 -180.92299 
L 375.699965 -182.379292 
L 375.696918 -183.835594 
L 375.691323 -185.291896 
L 375.683221 -186.748198 
L 375.672669 -188.2045 
L 375.659741 -189.660801 
L 375.644524 -191.117103 
L 375.62712 -192.573405 
L 375.607646 -194.029707 
L 375.58623 -195.486009 
L 375.563018 -196.942311 
L 375.538163 -198.398613 
L 375.511835 -199.854915 
L 375.484213 -201.311217 
L 375.455485 -202.767519 
L 375.425854 -204.223821 
L 375.395527 -205.680122 
L 375.364723 -207.136424 
L 375.333667 -208.592726 
L 375.302592 -210.049028 
L 375.271736 -211.50533 
L 375.241342 -212.961632 
L 375.211657 -214.417934 
L 375.182933 -215.874236 
L 375.155421 -217.330538 
L 375.129378 -218.78684 
L 375.105057 -220.243141 
L 375.082714 -221.699443 
L 375.062601 -223.155745 
L 375.044968 -224.612047 
L 375.030064 -226.068349 
L 375.018132 -227.524651 
L 375.00941 -228.980953 
L 375.004131 -230.437255 
L 375.002521 -231.893557 
L 375.004798 -233.349859 
L 375.011174 -234.80616 
L 375.02185 -236.262462 
L 375.037018 -237.718764 
L 375.05686 -239.175066 
L 375.081546 -240.631368 
L 375.111237 -242.08767 
L 375.14608 -243.543972 
L 375.186211 -245.000274 
L 375.231751 -246.456576 
L 375.282811 -247.912878 
L 375.339487 -249.36918 
L 375.401861 -250.825481 
L 375.47 -252.281783 
L 375.543959 -253.738085 
L 375.623778 -255.194387 
L 406.090508 -255.194387 
L 406.090508 -255.194387 
L 406.170327 -253.738085 
L 406.244286 -252.281783 
L 406.312425 -250.825481 
L 406.374798 -249.36918 
L 406.431474 -247.912878 
L 406.482534 -246.456576 
L 406.528075 -245.000274 
L 406.568206 -243.543972 
L 406.603049 -242.08767 
L 406.63274 -240.631368 
L 406.657426 -239.175066 
L 406.677268 -237.718764 
L 406.692435 -236.262462 
L 406.703111 -234.80616 
L 406.709487 -233.349859 
L 406.711765 -231.893557 
L 406.710155 -230.437255 
L 406.704876 -228.980953 
L 406.696154 -227.524651 
L 406.684222 -226.068349 
L 406.669318 -224.612047 
L 406.651685 -223.155745 
L 406.631572 -221.699443 
L 406.609228 -220.243141 
L 406.584908 -218.78684 
L 406.558864 -217.330538 
L 406.531353 -215.874236 
L 406.502629 -214.417934 
L 406.472944 -212.961632 
L 406.44255 -211.50533 
L 406.411693 -210.049028 
L 406.380618 -208.592726 
L 406.349563 -207.136424 
L 406.318759 -205.680122 
L 406.288432 -204.223821 
L 406.2588 -202.767519 
L 406.230073 -201.311217 
L 406.20245 -199.854915 
L 406.176122 -198.398613 
L 406.151268 -196.942311 
L 406.128055 -195.486009 
L 406.10664 -194.029707 
L 406.087166 -192.573405 
L 406.069762 -191.117103 
L 406.054545 -189.660801 
L 406.041617 -188.2045 
L 406.031065 -186.748198 
L 406.022963 -185.291896 
L 406.017367 -183.835594 
L 406.014321 -182.379292 
L 406.013849 -180.92299 
L 406.015965 -179.466688 
L 406.020661 -178.010386 
L 406.027919 -176.554084 
L 406.037702 -175.097782 
L 406.049958 -173.641481 
L 406.06462 -172.185179 
L 406.081607 -170.728877 
L 406.100821 -169.272575 
L 406.122152 -167.816273 
L 406.145474 -166.359971 
L 406.170648 -164.903669 
L 406.197523 -163.447367 
L 406.225935 -161.991065 
L 406.255707 -160.534763 
L 406.286653 -159.078462 
L 406.318576 -157.62216 
L 406.351266 -156.165858 
L 406.38451 -154.709556 
L 406.418081 -153.253254 
L 406.451749 -151.796952 
L 406.485275 -150.34065 
L 406.518415 -148.884348 
L 406.550921 -147.428046 
L 406.582541 -145.971744 
L 406.61302 -144.515442 
L 406.6421 -143.059141 
L 406.669525 -141.602839 
L 406.695035 -140.146537 
L 406.718375 -138.690235 
L 406.739288 -137.233933 
L 406.757524 -135.777631 
L 406.772832 -134.321329 
L 406.784969 -132.865027 
L 406.793697 -131.408725 
L 406.798782 -129.952423 
L 406.8 -128.496122 
L 406.797133 -127.03982 
L 406.789973 -125.583518 
L 406.778319 -124.127216 
L 406.761984 -122.670914 
L 406.740787 -121.214612 
L 406.714561 -119.75831 
L 406.683152 -118.302008 
L 406.646415 -116.845706 
L 406.60422 -115.389404 
L 406.55645 -113.933102 
L 406.503 -112.476801 
L 406.443782 -111.020499 
z
" id="mbe5f382845" style="stroke:#000000;stroke-opacity:0.3;"/>
    </defs>
    <g clip-path="url(#pc22b645ed1)">
     <use style="fill:#bfbf00;fill-opacity:0.3;stroke:#000000;stroke-opacity:0.3;" x="0.0" xlink:href="#mbe5f382845" y="360.0"/>
    </g>
   </g>
   <g id="PolyCollection_6">
    <defs>
     <path d="M 461.707171 -154.930033 
L 447.549972 -154.930033 
L 447.464881 -155.8236 
L 447.380834 -156.717167 
L 447.297663 -157.610733 
L 447.215189 -158.5043 
L 447.13322 -159.397867 
L 447.051553 -160.291434 
L 446.969975 -161.185 
L 446.888267 -162.078567 
L 446.806201 -162.972134 
L 446.723545 -163.8657 
L 446.640063 -164.759267 
L 446.555515 -165.652834 
L 446.469663 -166.5464 
L 446.382268 -167.439967 
L 446.293096 -168.333534 
L 446.201915 -169.2271 
L 446.108501 -170.120667 
L 446.012637 -171.014234 
L 445.914117 -171.907801 
L 445.812746 -172.801367 
L 445.708342 -173.694934 
L 445.600738 -174.588501 
L 445.489782 -175.482067 
L 445.375343 -176.375634 
L 445.257307 -177.269201 
L 445.135581 -178.162767 
L 445.010094 -179.056334 
L 444.880797 -179.949901 
L 444.747666 -180.843468 
L 444.610702 -181.737034 
L 444.469931 -182.630601 
L 444.325404 -183.524168 
L 444.1772 -184.417734 
L 444.025424 -185.311301 
L 443.870208 -186.204868 
L 443.711711 -187.098434 
L 443.550117 -187.992001 
L 443.385638 -188.885568 
L 443.218512 -189.779135 
L 443.049 -190.672701 
L 442.877389 -191.566268 
L 442.70399 -192.459835 
L 442.529133 -193.353401 
L 442.353171 -194.246968 
L 442.176478 -195.140535 
L 441.999443 -196.034101 
L 441.822474 -196.927668 
L 441.645993 -197.821235 
L 441.470435 -198.714801 
L 441.296245 -199.608368 
L 441.12388 -200.501935 
L 440.953802 -201.395502 
L 440.786479 -202.289068 
L 440.622384 -203.182635 
L 440.461987 -204.076202 
L 440.305762 -204.969768 
L 440.154177 -205.863335 
L 440.007696 -206.756902 
L 439.866775 -207.650468 
L 439.731862 -208.544035 
L 439.603394 -209.437602 
L 439.481796 -210.331169 
L 439.367476 -211.224735 
L 439.260828 -212.118302 
L 439.162226 -213.011869 
L 439.072026 -213.905435 
L 438.990564 -214.799002 
L 438.918151 -215.692569 
L 438.855076 -216.586135 
L 438.801605 -217.479702 
L 438.757975 -218.373269 
L 438.724399 -219.266836 
L 438.701063 -220.160402 
L 438.688125 -221.053969 
L 438.685714 -221.947536 
L 438.693932 -222.841102 
L 438.712852 -223.734669 
L 438.742518 -224.628236 
L 438.782945 -225.521802 
L 438.83412 -226.415369 
L 438.896003 -227.308936 
L 438.968524 -228.202502 
L 439.051588 -229.096069 
L 439.145073 -229.989636 
L 439.24883 -230.883203 
L 439.362685 -231.776769 
L 439.486443 -232.670336 
L 439.619881 -233.563903 
L 439.762757 -234.457469 
L 439.914808 -235.351036 
L 440.075751 -236.244603 
L 440.245282 -237.138169 
L 440.423084 -238.031736 
L 440.60882 -238.925303 
L 440.802141 -239.81887 
L 441.002683 -240.712436 
L 441.210072 -241.606003 
L 441.42392 -242.49957 
L 441.643834 -243.393136 
L 467.613309 -243.393136 
L 467.613309 -243.393136 
L 467.833223 -242.49957 
L 468.047071 -241.606003 
L 468.254459 -240.712436 
L 468.455002 -239.81887 
L 468.648323 -238.925303 
L 468.834059 -238.031736 
L 469.011861 -237.138169 
L 469.181392 -236.244603 
L 469.342335 -235.351036 
L 469.494386 -234.457469 
L 469.637262 -233.563903 
L 469.7707 -232.670336 
L 469.894457 -231.776769 
L 470.008313 -230.883203 
L 470.11207 -229.989636 
L 470.205555 -229.096069 
L 470.288619 -228.202502 
L 470.36114 -227.308936 
L 470.423023 -226.415369 
L 470.474198 -225.521802 
L 470.514625 -224.628236 
L 470.544291 -223.734669 
L 470.56321 -222.841102 
L 470.571429 -221.947536 
L 470.569018 -221.053969 
L 470.55608 -220.160402 
L 470.532744 -219.266836 
L 470.499168 -218.373269 
L 470.455538 -217.479702 
L 470.402066 -216.586135 
L 470.338992 -215.692569 
L 470.266579 -214.799002 
L 470.185116 -213.905435 
L 470.094917 -213.011869 
L 469.996315 -212.118302 
L 469.889667 -211.224735 
L 469.775347 -210.331169 
L 469.653748 -209.437602 
L 469.525281 -208.544035 
L 469.390368 -207.650468 
L 469.249447 -206.756902 
L 469.102966 -205.863335 
L 468.951381 -204.969768 
L 468.795155 -204.076202 
L 468.634759 -203.182635 
L 468.470663 -202.289068 
L 468.303341 -201.395502 
L 468.133263 -200.501935 
L 467.960898 -199.608368 
L 467.786708 -198.714801 
L 467.61115 -197.821235 
L 467.434668 -196.927668 
L 467.2577 -196.034101 
L 467.080665 -195.140535 
L 466.903972 -194.246968 
L 466.72801 -193.353401 
L 466.553153 -192.459835 
L 466.379753 -191.566268 
L 466.208143 -190.672701 
L 466.038631 -189.779135 
L 465.871505 -188.885568 
L 465.707026 -187.992001 
L 465.545432 -187.098434 
L 465.386935 -186.204868 
L 465.231718 -185.311301 
L 465.079942 -184.417734 
L 464.931739 -183.524168 
L 464.787212 -182.630601 
L 464.646441 -181.737034 
L 464.509477 -180.843468 
L 464.376346 -179.949901 
L 464.247049 -179.056334 
L 464.121562 -178.162767 
L 463.999835 -177.269201 
L 463.881799 -176.375634 
L 463.767361 -175.482067 
L 463.656405 -174.588501 
L 463.548801 -173.694934 
L 463.444397 -172.801367 
L 463.343026 -171.907801 
L 463.244506 -171.014234 
L 463.148642 -170.120667 
L 463.055228 -169.2271 
L 462.964047 -168.333534 
L 462.874875 -167.439967 
L 462.78748 -166.5464 
L 462.701628 -165.652834 
L 462.61708 -164.759267 
L 462.533598 -163.8657 
L 462.450942 -162.972134 
L 462.368876 -162.078567 
L 462.287168 -161.185 
L 462.20559 -160.291434 
L 462.123923 -159.397867 
L 462.041953 -158.5043 
L 461.959479 -157.610733 
L 461.876309 -156.717167 
L 461.792262 -155.8236 
L 461.707171 -154.930033 
z
" id="m9335192c9e" style="stroke:#000000;stroke-opacity:0.3;"/>
    </defs>
    <g clip-path="url(#pc22b645ed1)">
     <use style="fill:#bfbf00;fill-opacity:0.3;stroke:#000000;stroke-opacity:0.3;" x="0.0" xlink:href="#m9335192c9e" y="360.0"/>
    </g>
   </g>
   <g id="LineCollection_1">
    <path clip-path="url(#pc22b645ed1)" d="M 127.8 62.199247 
L 143.742857 62.199247 
" style="fill:none;stroke:#ff0000;"/>
    <path clip-path="url(#pc22b645ed1)" d="M 191.571429 89.183148 
L 207.514286 89.183148 
" style="fill:none;stroke:#ff0000;"/>
    <path clip-path="url(#pc22b645ed1)" d="M 255.342857 235.364275 
L 271.285714 235.364275 
" style="fill:none;stroke:#ff0000;"/>
    <path clip-path="url(#pc22b645ed1)" d="M 319.114286 104.805613 
L 335.057143 104.805613 
" style="fill:none;stroke:#ff0000;"/>
    <path clip-path="url(#pc22b645ed1)" d="M 382.885714 104.805613 
L 398.828571 104.805613 
" style="fill:none;stroke:#ff0000;"/>
    <path clip-path="url(#pc22b645ed1)" d="M 446.657143 116.606864 
L 462.6 116.606864 
" style="fill:none;stroke:#ff0000;"/>
   </g>
   <g id="LineCollection_2">
    <path clip-path="url(#pc22b645ed1)" d="M 127.8 298.667758 
L 143.742857 298.667758 
" style="fill:none;stroke:#ff0000;"/>
    <path clip-path="url(#pc22b645ed1)" d="M 191.571429 293.312474 
L 207.514286 293.312474 
" style="fill:none;stroke:#ff0000;"/>
    <path clip-path="url(#pc22b645ed1)" d="M 255.342857 314.810029 
L 271.285714 314.810029 
" style="fill:none;stroke:#ff0000;"/>
    <path clip-path="url(#pc22b645ed1)" d="M 319.114286 211.491693 
L 335.057143 211.491693 
" style="fill:none;stroke:#ff0000;"/>
    <path clip-path="url(#pc22b645ed1)" d="M 382.885714 248.979501 
L 398.828571 248.979501 
" style="fill:none;stroke:#ff0000;"/>
    <path clip-path="url(#pc22b645ed1)" d="M 446.657143 205.069967 
L 462.6 205.069967 
" style="fill:none;stroke:#ff0000;"/>
   </g>
   <g id="LineCollection_3">
    <path clip-path="url(#pc22b645ed1)" d="M 135.771429 298.667758 
L 135.771429 62.199247 
" style="fill:none;stroke:#ff0000;"/>
    <path clip-path="url(#pc22b645ed1)" d="M 199.542857 293.312474 
L 199.542857 89.183148 
" style="fill:none;stroke:#ff0000;"/>
    <path clip-path="url(#pc22b645ed1)" d="M 263.314286 314.810029 
L 263.314286 235.364275 
" style="fill:none;stroke:#ff0000;"/>
    <path clip-path="url(#pc22b645ed1)" d="M 327.085714 211.491693 
L 327.085714 104.805613 
" style="fill:none;stroke:#ff0000;"/>
    <path clip-path="url(#pc22b645ed1)" d="M 390.857143 248.979501 
L 390.857143 104.805613 
" style="fill:none;stroke:#ff0000;"/>
    <path clip-path="url(#pc22b645ed1)" d="M 454.628571 205.069967 
L 454.628571 116.606864 
" style="fill:none;stroke:#ff0000;"/>
   </g>
   <g id="LineCollection_4">
    <path clip-path="url(#pc22b645ed1)" d="M 127.8 137.281768 
L 143.742857 137.281768 
" style="fill:none;stroke:#ff0000;"/>
    <path clip-path="url(#pc22b645ed1)" d="M 191.571429 203.481873 
L 207.514286 203.481873 
" style="fill:none;stroke:#ff0000;"/>
    <path clip-path="url(#pc22b645ed1)" d="M 255.342857 283.631082 
L 271.285714 283.631082 
" style="fill:none;stroke:#ff0000;"/>
    <path clip-path="url(#pc22b645ed1)" d="M 319.114286 126.039535 
L 335.057143 126.039535 
" style="fill:none;stroke:#ff0000;"/>
    <path clip-path="url(#pc22b645ed1)" d="M 382.885714 182.219615 
L 398.828571 182.219615 
" style="fill:none;stroke:#ff0000;"/>
    <path clip-path="url(#pc22b645ed1)" d="M 446.657143 144.593704 
L 462.6 144.593704 
" style="fill:none;stroke:#ff0000;"/>
   </g>
   <g id="patch_3">
    <path d="M 72 36 
L 518.4 36 
" style="fill:none;stroke:#000000;stroke-linecap:square;stroke-linejoin:miter;"/>
   </g>
   <g id="patch_4">
    <path d="M 518.4 324 
L 518.4 36 
" style="fill:none;stroke:#000000;stroke-linecap:square;stroke-linejoin:miter;"/>
   </g>
   <g id="patch_5">
    <path d="M 72 324 
L 518.4 324 
" style="fill:none;stroke:#000000;stroke-linecap:square;stroke-linejoin:miter;"/>
   </g>
   <g id="patch_6">
    <path d="M 72 324 
L 72 36 
" style="fill:none;stroke:#000000;stroke-linecap:square;stroke-linejoin:miter;"/>
   </g>
   <g id="matplotlib.axis_1">
    <g id="xtick_1">
     <g id="line2d_1">
      <path clip-path="url(#pc22b645ed1)" d="M 135.771429 324 
L 135.771429 36 
" style="fill:none;stroke:#000000;stroke-dasharray:1.000000,3.000000;stroke-dashoffset:0.0;stroke-width:0.5;"/>
     </g>
     <g id="line2d_2">
      <defs>
       <path d="M 0 0 
L 0 -4 
" id="m5920a86baf" style="stroke:#000000;stroke-width:0.5;"/>
      </defs>
      <g>
       <use style="stroke:#000000;stroke-width:0.5;" x="135.771428571" xlink:href="#m5920a86baf" y="324.0"/>
      </g>
     </g>
     <g id="line2d_3">
      <defs>
       <path d="M 0 0 
L 0 4 
" id="m9d128a5eb3" style="stroke:#000000;stroke-width:0.5;"/>
      </defs>
      <g>
       <use style="stroke:#000000;stroke-width:0.5;" x="135.771428571" xlink:href="#m9d128a5eb3" y="36.0"/>
      </g>
     </g>
     <g id="text_1">
      <!-- Jan -->
      <defs>
       <path d="M 54.890625 33.015625 
L 54.890625 0 
L 45.90625 0 
L 45.90625 32.71875 
Q 45.90625 40.484375 42.875 44.328125 
Q 39.84375 48.1875 33.796875 48.1875 
Q 26.515625 48.1875 22.3125 43.546875 
Q 18.109375 38.921875 18.109375 30.90625 
L 18.109375 0 
L 9.078125 0 
L 9.078125 54.6875 
L 18.109375 54.6875 
L 18.109375 46.1875 
Q 21.34375 51.125 25.703125 53.5625 
Q 30.078125 56 35.796875 56 
Q 45.21875 56 50.046875 50.171875 
Q 54.890625 44.34375 54.890625 33.015625 
" id="BitstreamVeraSans-Roman-6e"/>
       <path d="M 34.28125 27.484375 
Q 23.390625 27.484375 19.1875 25 
Q 14.984375 22.515625 14.984375 16.5 
Q 14.984375 11.71875 18.140625 8.90625 
Q 21.296875 6.109375 26.703125 6.109375 
Q 34.1875 6.109375 38.703125 11.40625 
Q 43.21875 16.703125 43.21875 25.484375 
L 43.21875 27.484375 
z
M 52.203125 31.203125 
L 52.203125 0 
L 43.21875 0 
L 43.21875 8.296875 
Q 40.140625 3.328125 35.546875 0.953125 
Q 30.953125 -1.421875 24.3125 -1.421875 
Q 15.921875 -1.421875 10.953125 3.296875 
Q 6 8.015625 6 15.921875 
Q 6 25.140625 12.171875 29.828125 
Q 18.359375 34.515625 30.609375 34.515625 
L 43.21875 34.515625 
L 43.21875 35.40625 
Q 43.21875 41.609375 39.140625 45 
Q 35.0625 48.390625 27.6875 48.390625 
Q 23 48.390625 18.546875 47.265625 
Q 14.109375 46.140625 10.015625 43.890625 
L 10.015625 52.203125 
Q 14.9375 54.109375 19.578125 55.046875 
Q 24.21875 56 28.609375 56 
Q 40.484375 56 46.34375 49.84375 
Q 52.203125 43.703125 52.203125 31.203125 
" id="BitstreamVeraSans-Roman-61"/>
       <path d="M 9.8125 72.90625 
L 19.671875 72.90625 
L 19.671875 5.078125 
Q 19.671875 -8.109375 14.671875 -14.0625 
Q 9.671875 -20.015625 -1.421875 -20.015625 
L -5.171875 -20.015625 
L -5.171875 -11.71875 
L -2.09375 -11.71875 
Q 4.4375 -11.71875 7.125 -8.046875 
Q 9.8125 -4.390625 9.8125 5.078125 
z
" id="BitstreamVeraSans-Roman-4a"/>
      </defs>
      <g transform="translate(126.522053571 337.118125)scale(0.12 -0.12)">
       <use xlink:href="#BitstreamVeraSans-Roman-4a"/>
       <use x="29.4921875" xlink:href="#BitstreamVeraSans-Roman-61"/>
       <use x="90.771484375" xlink:href="#BitstreamVeraSans-Roman-6e"/>
      </g>
     </g>
    </g>
    <g id="xtick_2">
     <g id="line2d_4">
      <path clip-path="url(#pc22b645ed1)" d="M 199.542857 324 
L 199.542857 36 
" style="fill:none;stroke:#000000;stroke-dasharray:1.000000,3.000000;stroke-dashoffset:0.0;stroke-width:0.5;"/>
     </g>
     <g id="line2d_5">
      <g>
       <use style="stroke:#000000;stroke-width:0.5;" x="199.542857143" xlink:href="#m5920a86baf" y="324.0"/>
      </g>
     </g>
     <g id="line2d_6">
      <g>
       <use style="stroke:#000000;stroke-width:0.5;" x="199.542857143" xlink:href="#m9d128a5eb3" y="36.0"/>
      </g>
     </g>
     <g id="text_2">
      <!-- Feb -->
      <defs>
       <path d="M 56.203125 29.59375 
L 56.203125 25.203125 
L 14.890625 25.203125 
Q 15.484375 15.921875 20.484375 11.0625 
Q 25.484375 6.203125 34.421875 6.203125 
Q 39.59375 6.203125 44.453125 7.46875 
Q 49.3125 8.734375 54.109375 11.28125 
L 54.109375 2.78125 
Q 49.265625 0.734375 44.1875 -0.34375 
Q 39.109375 -1.421875 33.890625 -1.421875 
Q 20.796875 -1.421875 13.15625 6.1875 
Q 5.515625 13.8125 5.515625 26.8125 
Q 5.515625 40.234375 12.765625 48.109375 
Q 20.015625 56 32.328125 56 
Q 43.359375 56 49.78125 48.890625 
Q 56.203125 41.796875 56.203125 29.59375 
M 47.21875 32.234375 
Q 47.125 39.59375 43.09375 43.984375 
Q 39.0625 48.390625 32.421875 48.390625 
Q 24.90625 48.390625 20.390625 44.140625 
Q 15.875 39.890625 15.1875 32.171875 
z
" id="BitstreamVeraSans-Roman-65"/>
       <path d="M 9.8125 72.90625 
L 51.703125 72.90625 
L 51.703125 64.59375 
L 19.671875 64.59375 
L 19.671875 43.109375 
L 48.578125 43.109375 
L 48.578125 34.8125 
L 19.671875 34.8125 
L 19.671875 0 
L 9.8125 0 
z
" id="BitstreamVeraSans-Roman-46"/>
       <path d="M 48.6875 27.296875 
Q 48.6875 37.203125 44.609375 42.84375 
Q 40.53125 48.484375 33.40625 48.484375 
Q 26.265625 48.484375 22.1875 42.84375 
Q 18.109375 37.203125 18.109375 27.296875 
Q 18.109375 17.390625 22.1875 11.75 
Q 26.265625 6.109375 33.40625 6.109375 
Q 40.53125 6.109375 44.609375 11.75 
Q 48.6875 17.390625 48.6875 27.296875 
M 18.109375 46.390625 
Q 20.953125 51.265625 25.265625 53.625 
Q 29.59375 56 35.59375 56 
Q 45.5625 56 51.78125 48.09375 
Q 58.015625 40.1875 58.015625 27.296875 
Q 58.015625 14.40625 51.78125 6.484375 
Q 45.5625 -1.421875 35.59375 -1.421875 
Q 29.59375 -1.421875 25.265625 0.953125 
Q 20.953125 3.328125 18.109375 8.203125 
L 18.109375 0 
L 9.078125 0 
L 9.078125 75.984375 
L 18.109375 75.984375 
z
" id="BitstreamVeraSans-Roman-62"/>
      </defs>
      <g transform="translate(188.595669643 337.118125)scale(0.12 -0.12)">
       <use xlink:href="#BitstreamVeraSans-Roman-46"/>
       <use x="57.44140625" xlink:href="#BitstreamVeraSans-Roman-65"/>
       <use x="118.96484375" xlink:href="#BitstreamVeraSans-Roman-62"/>
      </g>
     </g>
    </g>
    <g id="xtick_3">
     <g id="line2d_7">
      <path clip-path="url(#pc22b645ed1)" d="M 263.314286 324 
L 263.314286 36 
" style="fill:none;stroke:#000000;stroke-dasharray:1.000000,3.000000;stroke-dashoffset:0.0;stroke-width:0.5;"/>
     </g>
     <g id="line2d_8">
      <g>
       <use style="stroke:#000000;stroke-width:0.5;" x="263.314285714" xlink:href="#m5920a86baf" y="324.0"/>
      </g>
     </g>
     <g id="line2d_9">
      <g>
       <use style="stroke:#000000;stroke-width:0.5;" x="263.314285714" xlink:href="#m9d128a5eb3" y="36.0"/>
      </g>
     </g>
     <g id="text_3">
      <!-- Mar -->
      <defs>
       <path d="M 9.8125 72.90625 
L 24.515625 72.90625 
L 43.109375 23.296875 
L 61.8125 72.90625 
L 76.515625 72.90625 
L 76.515625 0 
L 66.890625 0 
L 66.890625 64.015625 
L 48.09375 14.015625 
L 38.1875 14.015625 
L 19.390625 64.015625 
L 19.390625 0 
L 9.8125 0 
z
" id="BitstreamVeraSans-Roman-4d"/>
       <path d="M 41.109375 46.296875 
Q 39.59375 47.171875 37.8125 47.578125 
Q 36.03125 48 33.890625 48 
Q 26.265625 48 22.1875 43.046875 
Q 18.109375 38.09375 18.109375 28.8125 
L 18.109375 0 
L 9.078125 0 
L 9.078125 54.6875 
L 18.109375 54.6875 
L 18.109375 46.1875 
Q 20.953125 51.171875 25.484375 53.578125 
Q 30.03125 56 36.53125 56 
Q 37.453125 56 38.578125 55.875 
Q 39.703125 55.765625 41.0625 55.515625 
z
" id="BitstreamVeraSans-Roman-72"/>
      </defs>
      <g transform="translate(251.993973214 337.118125)scale(0.12 -0.12)">
       <use xlink:href="#BitstreamVeraSans-Roman-4d"/>
       <use x="86.279296875" xlink:href="#BitstreamVeraSans-Roman-61"/>
       <use x="147.55859375" xlink:href="#BitstreamVeraSans-Roman-72"/>
      </g>
     </g>
    </g>
    <g id="xtick_4">
     <g id="line2d_10">
      <path clip-path="url(#pc22b645ed1)" d="M 327.085714 324 
L 327.085714 36 
" style="fill:none;stroke:#000000;stroke-dasharray:1.000000,3.000000;stroke-dashoffset:0.0;stroke-width:0.5;"/>
     </g>
     <g id="line2d_11">
      <g>
       <use style="stroke:#000000;stroke-width:0.5;" x="327.085714286" xlink:href="#m5920a86baf" y="324.0"/>
      </g>
     </g>
     <g id="line2d_12">
      <g>
       <use style="stroke:#000000;stroke-width:0.5;" x="327.085714286" xlink:href="#m9d128a5eb3" y="36.0"/>
      </g>
     </g>
     <g id="text_4">
      <!-- Apr -->
      <defs>
       <path d="M 18.109375 8.203125 
L 18.109375 -20.796875 
L 9.078125 -20.796875 
L 9.078125 54.6875 
L 18.109375 54.6875 
L 18.109375 46.390625 
Q 20.953125 51.265625 25.265625 53.625 
Q 29.59375 56 35.59375 56 
Q 45.5625 56 51.78125 48.09375 
Q 58.015625 40.1875 58.015625 27.296875 
Q 58.015625 14.40625 51.78125 6.484375 
Q 45.5625 -1.421875 35.59375 -1.421875 
Q 29.59375 -1.421875 25.265625 0.953125 
Q 20.953125 3.328125 18.109375 8.203125 
M 48.6875 27.296875 
Q 48.6875 37.203125 44.609375 42.84375 
Q 40.53125 48.484375 33.40625 48.484375 
Q 26.265625 48.484375 22.1875 42.84375 
Q 18.109375 37.203125 18.109375 27.296875 
Q 18.109375 17.390625 22.1875 11.75 
Q 26.265625 6.109375 33.40625 6.109375 
Q 40.53125 6.109375 44.609375 11.75 
Q 48.6875 17.390625 48.6875 27.296875 
" id="BitstreamVeraSans-Roman-70"/>
       <path d="M 34.1875 63.1875 
L 20.796875 26.90625 
L 47.609375 26.90625 
z
M 28.609375 72.90625 
L 39.796875 72.90625 
L 67.578125 0 
L 57.328125 0 
L 50.6875 18.703125 
L 17.828125 18.703125 
L 11.1875 0 
L 0.78125 0 
z
" id="BitstreamVeraSans-Roman-41"/>
      </defs>
      <g transform="translate(316.705714286 337.118125)scale(0.12 -0.12)">
       <use xlink:href="#BitstreamVeraSans-Roman-41"/>
       <use x="68.408203125" xlink:href="#BitstreamVeraSans-Roman-70"/>
       <use x="131.884765625" xlink:href="#BitstreamVeraSans-Roman-72"/>
      </g>
     </g>
    </g>
    <g id="xtick_5">
     <g id="line2d_13">
      <path clip-path="url(#pc22b645ed1)" d="M 390.857143 324 
L 390.857143 36 
" style="fill:none;stroke:#000000;stroke-dasharray:1.000000,3.000000;stroke-dashoffset:0.0;stroke-width:0.5;"/>
     </g>
     <g id="line2d_14">
      <g>
       <use style="stroke:#000000;stroke-width:0.5;" x="390.857142857" xlink:href="#m5920a86baf" y="324.0"/>
      </g>
     </g>
     <g id="line2d_15">
      <g>
       <use style="stroke:#000000;stroke-width:0.5;" x="390.857142857" xlink:href="#m9d128a5eb3" y="36.0"/>
      </g>
     </g>
     <g id="text_5">
      <!-- May -->
      <defs>
       <path d="M 32.171875 -5.078125 
Q 28.375 -14.84375 24.75 -17.8125 
Q 21.140625 -20.796875 15.09375 -20.796875 
L 7.90625 -20.796875 
L 7.90625 -13.28125 
L 13.1875 -13.28125 
Q 16.890625 -13.28125 18.9375 -11.515625 
Q 21 -9.765625 23.484375 -3.21875 
L 25.09375 0.875 
L 2.984375 54.6875 
L 12.5 54.6875 
L 29.59375 11.921875 
L 46.6875 54.6875 
L 56.203125 54.6875 
z
" id="BitstreamVeraSans-Roman-79"/>
      </defs>
      <g transform="translate(378.452142857 337.118125)scale(0.12 -0.12)">
       <use xlink:href="#BitstreamVeraSans-Roman-4d"/>
       <use x="86.279296875" xlink:href="#BitstreamVeraSans-Roman-61"/>
       <use x="147.55859375" xlink:href="#BitstreamVeraSans-Roman-79"/>
      </g>
     </g>
    </g>
    <g id="xtick_6">
     <g id="line2d_16">
      <path clip-path="url(#pc22b645ed1)" d="M 454.628571 324 
L 454.628571 36 
" style="fill:none;stroke:#000000;stroke-dasharray:1.000000,3.000000;stroke-dashoffset:0.0;stroke-width:0.5;"/>
     </g>
     <g id="line2d_17">
      <g>
       <use style="stroke:#000000;stroke-width:0.5;" x="454.628571429" xlink:href="#m5920a86baf" y="324.0"/>
      </g>
     </g>
     <g id="line2d_18">
      <g>
       <use style="stroke:#000000;stroke-width:0.5;" x="454.628571429" xlink:href="#m9d128a5eb3" y="36.0"/>
      </g>
     </g>
     <g id="text_6">
      <!-- Jun -->
      <defs>
       <path d="M 8.5 21.578125 
L 8.5 54.6875 
L 17.484375 54.6875 
L 17.484375 21.921875 
Q 17.484375 14.15625 20.5 10.265625 
Q 23.53125 6.390625 29.59375 6.390625 
Q 36.859375 6.390625 41.078125 11.03125 
Q 45.3125 15.671875 45.3125 23.6875 
L 45.3125 54.6875 
L 54.296875 54.6875 
L 54.296875 0 
L 45.3125 0 
L 45.3125 8.40625 
Q 42.046875 3.421875 37.71875 1 
Q 33.40625 -1.421875 27.6875 -1.421875 
Q 18.265625 -1.421875 13.375 4.4375 
Q 8.5 10.296875 8.5 21.578125 
" id="BitstreamVeraSans-Roman-75"/>
      </defs>
      <g transform="translate(445.253571429 337.118125)scale(0.12 -0.12)">
       <use xlink:href="#BitstreamVeraSans-Roman-4a"/>
       <use x="29.4921875" xlink:href="#BitstreamVeraSans-Roman-75"/>
       <use x="92.87109375" xlink:href="#BitstreamVeraSans-Roman-6e"/>
      </g>
     </g>
    </g>
    <g id="text_7">
     <!-- month -->
     <defs>
      <path d="M 52 44.1875 
Q 55.375 50.25 60.0625 53.125 
Q 64.75 56 71.09375 56 
Q 79.640625 56 84.28125 50.015625 
Q 88.921875 44.046875 88.921875 33.015625 
L 88.921875 0 
L 79.890625 0 
L 79.890625 32.71875 
Q 79.890625 40.578125 77.09375 44.375 
Q 74.3125 48.1875 68.609375 48.1875 
Q 61.625 48.1875 57.5625 43.546875 
Q 53.515625 38.921875 53.515625 30.90625 
L 53.515625 0 
L 44.484375 0 
L 44.484375 32.71875 
Q 44.484375 40.625 41.703125 44.40625 
Q 38.921875 48.1875 33.109375 48.1875 
Q 26.21875 48.1875 22.15625 43.53125 
Q 18.109375 38.875 18.109375 30.90625 
L 18.109375 0 
L 9.078125 0 
L 9.078125 54.6875 
L 18.109375 54.6875 
L 18.109375 46.1875 
Q 21.1875 51.21875 25.484375 53.609375 
Q 29.78125 56 35.6875 56 
Q 41.65625 56 45.828125 52.96875 
Q 50 49.953125 52 44.1875 
" id="BitstreamVeraSans-Roman-6d"/>
      <path d="M 18.3125 70.21875 
L 18.3125 54.6875 
L 36.8125 54.6875 
L 36.8125 47.703125 
L 18.3125 47.703125 
L 18.3125 18.015625 
Q 18.3125 11.328125 20.140625 9.421875 
Q 21.96875 7.515625 27.59375 7.515625 
L 36.8125 7.515625 
L 36.8125 0 
L 27.59375 0 
Q 17.1875 0 13.234375 3.875 
Q 9.28125 7.765625 9.28125 18.015625 
L 9.28125 47.703125 
L 2.6875 47.703125 
L 2.6875 54.6875 
L 9.28125 54.6875 
L 9.28125 70.21875 
z
" id="BitstreamVeraSans-Roman-74"/>
      <path d="M 30.609375 48.390625 
Q 23.390625 48.390625 19.1875 42.75 
Q 14.984375 37.109375 14.984375 27.296875 
Q 14.984375 17.484375 19.15625 11.84375 
Q 23.34375 6.203125 30.609375 6.203125 
Q 37.796875 6.203125 41.984375 11.859375 
Q 46.1875 17.53125 46.1875 27.296875 
Q 46.1875 37.015625 41.984375 42.703125 
Q 37.796875 48.390625 30.609375 48.390625 
M 30.609375 56 
Q 42.328125 56 49.015625 48.375 
Q 55.71875 40.765625 55.71875 27.296875 
Q 55.71875 13.875 49.015625 6.21875 
Q 42.328125 -1.421875 30.609375 -1.421875 
Q 18.84375 -1.421875 12.171875 6.21875 
Q 5.515625 13.875 5.515625 27.296875 
Q 5.515625 40.765625 12.171875 48.375 
Q 18.84375 56 30.609375 56 
" id="BitstreamVeraSans-Roman-6f"/>
      <path d="M 54.890625 33.015625 
L 54.890625 0 
L 45.90625 0 
L 45.90625 32.71875 
Q 45.90625 40.484375 42.875 44.328125 
Q 39.84375 48.1875 33.796875 48.1875 
Q 26.515625 48.1875 22.3125 43.546875 
Q 18.109375 38.921875 18.109375 30.90625 
L 18.109375 0 
L 9.078125 0 
L 9.078125 75.984375 
L 18.109375 75.984375 
L 18.109375 46.1875 
Q 21.34375 51.125 25.703125 53.5625 
Q 30.078125 56 35.796875 56 
Q 45.21875 56 50.046875 50.171875 
Q 54.890625 44.34375 54.890625 33.015625 
" id="BitstreamVeraSans-Roman-68"/>
     </defs>
     <g transform="translate(275.7271875 353.731875)scale(0.12 -0.12)">
      <use xlink:href="#BitstreamVeraSans-Roman-6d"/>
      <use x="97.412109375" xlink:href="#BitstreamVeraSans-Roman-6f"/>
      <use x="158.59375" xlink:href="#BitstreamVeraSans-Roman-6e"/>
      <use x="221.97265625" xlink:href="#BitstreamVeraSans-Roman-74"/>
      <use x="261.181640625" xlink:href="#BitstreamVeraSans-Roman-68"/>
     </g>
    </g>
   </g>
   <g id="matplotlib.axis_2">
    <g id="ytick_1">
     <g id="line2d_19">
      <path clip-path="url(#pc22b645ed1)" d="M 72 324 
L 518.4 324 
" style="fill:none;stroke:#000000;stroke-dasharray:1.000000,3.000000;stroke-dashoffset:0.0;stroke-width:0.5;"/>
     </g>
     <g id="line2d_20">
      <defs>
       <path d="M 0 0 
L 4 0 
" id="m0049a54b58" style="stroke:#000000;stroke-width:0.5;"/>
      </defs>
      <g>
       <use style="stroke:#000000;stroke-width:0.5;" x="72.0" xlink:href="#m0049a54b58" y="324.0"/>
      </g>
     </g>
     <g id="line2d_21">
      <defs>
       <path d="M 0 0 
L -4 0 
" id="ma8495e685e" style="stroke:#000000;stroke-width:0.5;"/>
      </defs>
      <g>
       <use style="stroke:#000000;stroke-width:0.5;" x="518.4" xlink:href="#ma8495e685e" y="324.0"/>
      </g>
     </g>
     <g id="text_8">
      <!-- 15 -->
      <defs>
       <path d="M 10.59375 35.5 
L 73.1875 35.5 
L 73.1875 27.203125 
L 10.59375 27.203125 
z
" id="BitstreamVeraSans-Roman-2212"/>
       <path d="M 12.40625 8.296875 
L 28.515625 8.296875 
L 28.515625 63.921875 
L 10.984375 60.40625 
L 10.984375 69.390625 
L 28.421875 72.90625 
L 38.28125 72.90625 
L 38.28125 8.296875 
L 54.390625 8.296875 
L 54.390625 0 
L 12.40625 0 
z
" id="BitstreamVeraSans-Roman-31"/>
       <path d="M 10.796875 72.90625 
L 49.515625 72.90625 
L 49.515625 64.59375 
L 19.828125 64.59375 
L 19.828125 46.734375 
Q 21.96875 47.46875 24.109375 47.828125 
Q 26.265625 48.1875 28.421875 48.1875 
Q 40.625 48.1875 47.75 41.5 
Q 54.890625 34.8125 54.890625 23.390625 
Q 54.890625 11.625 47.5625 5.09375 
Q 40.234375 -1.421875 26.90625 -1.421875 
Q 22.3125 -1.421875 17.546875 -0.640625 
Q 12.796875 0.140625 7.71875 1.703125 
L 7.71875 11.625 
Q 12.109375 9.234375 16.796875 8.0625 
Q 21.484375 6.890625 26.703125 6.890625 
Q 35.15625 6.890625 40.078125 11.328125 
Q 45.015625 15.765625 45.015625 23.390625 
Q 45.015625 31 40.078125 35.4375 
Q 35.15625 39.890625 26.703125 39.890625 
Q 22.75 39.890625 18.8125 39.015625 
Q 14.890625 38.140625 10.796875 36.28125 
z
" id="BitstreamVeraSans-Roman-35"/>
      </defs>
      <g transform="translate(42.674375 327.31125)scale(0.12 -0.12)">
       <use xlink:href="#BitstreamVeraSans-Roman-2212"/>
       <use x="83.7890625" xlink:href="#BitstreamVeraSans-Roman-31"/>
       <use x="147.412109375" xlink:href="#BitstreamVeraSans-Roman-35"/>
      </g>
     </g>
    </g>
    <g id="ytick_2">
     <g id="line2d_22">
      <path clip-path="url(#pc22b645ed1)" d="M 72 276 
L 518.4 276 
" style="fill:none;stroke:#000000;stroke-dasharray:1.000000,3.000000;stroke-dashoffset:0.0;stroke-width:0.5;"/>
     </g>
     <g id="line2d_23">
      <g>
       <use style="stroke:#000000;stroke-width:0.5;" x="72.0" xlink:href="#m0049a54b58" y="276.0"/>
      </g>
     </g>
     <g id="line2d_24">
      <g>
       <use style="stroke:#000000;stroke-width:0.5;" x="518.4" xlink:href="#ma8495e685e" y="276.0"/>
      </g>
     </g>
     <g id="text_9">
      <!-- 10 -->
      <defs>
       <path d="M 31.78125 66.40625 
Q 24.171875 66.40625 20.328125 58.90625 
Q 16.5 51.421875 16.5 36.375 
Q 16.5 21.390625 20.328125 13.890625 
Q 24.171875 6.390625 31.78125 6.390625 
Q 39.453125 6.390625 43.28125 13.890625 
Q 47.125 21.390625 47.125 36.375 
Q 47.125 51.421875 43.28125 58.90625 
Q 39.453125 66.40625 31.78125 66.40625 
M 31.78125 74.21875 
Q 44.046875 74.21875 50.515625 64.515625 
Q 56.984375 54.828125 56.984375 36.375 
Q 56.984375 17.96875 50.515625 8.265625 
Q 44.046875 -1.421875 31.78125 -1.421875 
Q 19.53125 -1.421875 13.0625 8.265625 
Q 6.59375 17.96875 6.59375 36.375 
Q 6.59375 54.828125 13.0625 64.515625 
Q 19.53125 74.21875 31.78125 74.21875 
" id="BitstreamVeraSans-Roman-30"/>
      </defs>
      <g transform="translate(42.674375 279.31125)scale(0.12 -0.12)">
       <use xlink:href="#BitstreamVeraSans-Roman-2212"/>
       <use x="83.7890625" xlink:href="#BitstreamVeraSans-Roman-31"/>
       <use x="147.412109375" xlink:href="#BitstreamVeraSans-Roman-30"/>
      </g>
     </g>
    </g>
    <g id="ytick_3">
     <g id="line2d_25">
      <path clip-path="url(#pc22b645ed1)" d="M 72 228 
L 518.4 228 
" style="fill:none;stroke:#000000;stroke-dasharray:1.000000,3.000000;stroke-dashoffset:0.0;stroke-width:0.5;"/>
     </g>
     <g id="line2d_26">
      <g>
       <use style="stroke:#000000;stroke-width:0.5;" x="72.0" xlink:href="#m0049a54b58" y="228.0"/>
      </g>
     </g>
     <g id="line2d_27">
      <g>
       <use style="stroke:#000000;stroke-width:0.5;" x="518.4" xlink:href="#ma8495e685e" y="228.0"/>
      </g>
     </g>
     <g id="text_10">
      <!-- 5 -->
      <g transform="translate(50.309375 231.31125)scale(0.12 -0.12)">
       <use xlink:href="#BitstreamVeraSans-Roman-2212"/>
       <use x="83.7890625" xlink:href="#BitstreamVeraSans-Roman-35"/>
      </g>
     </g>
    </g>
    <g id="ytick_4">
     <g id="line2d_28">
      <path clip-path="url(#pc22b645ed1)" d="M 72 180 
L 518.4 180 
" style="fill:none;stroke:#000000;stroke-dasharray:1.000000,3.000000;stroke-dashoffset:0.0;stroke-width:0.5;"/>
     </g>
     <g id="line2d_29">
      <g>
       <use style="stroke:#000000;stroke-width:0.5;" x="72.0" xlink:href="#m0049a54b58" y="180.0"/>
      </g>
     </g>
     <g id="line2d_30">
      <g>
       <use style="stroke:#000000;stroke-width:0.5;" x="518.4" xlink:href="#ma8495e685e" y="180.0"/>
      </g>
     </g>
     <g id="text_11">
      <!-- 0 -->
      <g transform="translate(60.365 183.31125)scale(0.12 -0.12)">
       <use xlink:href="#BitstreamVeraSans-Roman-30"/>
      </g>
     </g>
    </g>
    <g id="ytick_5">
     <g id="line2d_31">
      <path clip-path="url(#pc22b645ed1)" d="M 72 132 
L 518.4 132 
" style="fill:none;stroke:#000000;stroke-dasharray:1.000000,3.000000;stroke-dashoffset:0.0;stroke-width:0.5;"/>
     </g>
     <g id="line2d_32">
      <g>
       <use style="stroke:#000000;stroke-width:0.5;" x="72.0" xlink:href="#m0049a54b58" y="132.0"/>
      </g>
     </g>
     <g id="line2d_33">
      <g>
       <use style="stroke:#000000;stroke-width:0.5;" x="518.4" xlink:href="#ma8495e685e" y="132.0"/>
      </g>
     </g>
     <g id="text_12">
      <!-- 5 -->
      <g transform="translate(60.365 135.31125)scale(0.12 -0.12)">
       <use xlink:href="#BitstreamVeraSans-Roman-35"/>
      </g>
     </g>
    </g>
    <g id="ytick_6">
     <g id="line2d_34">
      <path clip-path="url(#pc22b645ed1)" d="M 72 84 
L 518.4 84 
" style="fill:none;stroke:#000000;stroke-dasharray:1.000000,3.000000;stroke-dashoffset:0.0;stroke-width:0.5;"/>
     </g>
     <g id="line2d_35">
      <g>
       <use style="stroke:#000000;stroke-width:0.5;" x="72.0" xlink:href="#m0049a54b58" y="84.0"/>
      </g>
     </g>
     <g id="line2d_36">
      <g>
       <use style="stroke:#000000;stroke-width:0.5;" x="518.4" xlink:href="#ma8495e685e" y="84.0"/>
      </g>
     </g>
     <g id="text_13">
      <!-- 10 -->
      <g transform="translate(52.73 87.31125)scale(0.12 -0.12)">
       <use xlink:href="#BitstreamVeraSans-Roman-31"/>
       <use x="63.623046875" xlink:href="#BitstreamVeraSans-Roman-30"/>
      </g>
     </g>
    </g>
    <g id="ytick_7">
     <g id="line2d_37">
      <path clip-path="url(#pc22b645ed1)" d="M 72 36 
L 518.4 36 
" style="fill:none;stroke:#000000;stroke-dasharray:1.000000,3.000000;stroke-dashoffset:0.0;stroke-width:0.5;"/>
     </g>
     <g id="line2d_38">
      <g>
       <use style="stroke:#000000;stroke-width:0.5;" x="72.0" xlink:href="#m0049a54b58" y="36.0"/>
      </g>
     </g>
     <g id="line2d_39">
      <g>
       <use style="stroke:#000000;stroke-width:0.5;" x="518.4" xlink:href="#ma8495e685e" y="36.0"/>
      </g>
     </g>
     <g id="text_14">
      <!-- 15 -->
      <g transform="translate(52.73 39.31125)scale(0.12 -0.12)">
       <use xlink:href="#BitstreamVeraSans-Roman-31"/>
       <use x="63.623046875" xlink:href="#BitstreamVeraSans-Roman-35"/>
      </g>
     </g>
    </g>
    <g id="text_15">
     <!-- income -->
     <defs>
      <path d="M 9.421875 54.6875 
L 18.40625 54.6875 
L 18.40625 0 
L 9.421875 0 
z
M 9.421875 75.984375 
L 18.40625 75.984375 
L 18.40625 64.59375 
L 9.421875 64.59375 
z
" id="BitstreamVeraSans-Roman-69"/>
      <path d="M 48.78125 52.59375 
L 48.78125 44.1875 
Q 44.96875 46.296875 41.140625 47.34375 
Q 37.3125 48.390625 33.40625 48.390625 
Q 24.65625 48.390625 19.8125 42.84375 
Q 14.984375 37.3125 14.984375 27.296875 
Q 14.984375 17.28125 19.8125 11.734375 
Q 24.65625 6.203125 33.40625 6.203125 
Q 37.3125 6.203125 41.140625 7.25 
Q 44.96875 8.296875 48.78125 10.40625 
L 48.78125 2.09375 
Q 45.015625 0.34375 40.984375 -0.53125 
Q 36.96875 -1.421875 32.421875 -1.421875 
Q 20.0625 -1.421875 12.78125 6.34375 
Q 5.515625 14.109375 5.515625 27.296875 
Q 5.515625 40.671875 12.859375 48.328125 
Q 20.21875 56 33.015625 56 
Q 37.15625 56 41.109375 55.140625 
Q 45.0625 54.296875 48.78125 52.59375 
" id="BitstreamVeraSans-Roman-63"/>
     </defs>
     <g transform="translate(35.17875 201.9759375)rotate(-90.0)scale(0.12 -0.12)">
      <use xlink:href="#BitstreamVeraSans-Roman-69"/>
      <use x="27.783203125" xlink:href="#BitstreamVeraSans-Roman-6e"/>
      <use x="91.162109375" xlink:href="#BitstreamVeraSans-Roman-63"/>
      <use x="146.142578125" xlink:href="#BitstreamVeraSans-Roman-6f"/>
      <use x="207.32421875" xlink:href="#BitstreamVeraSans-Roman-6d"/>
      <use x="304.736328125" xlink:href="#BitstreamVeraSans-Roman-65"/>
     </g>
    </g>
   </g>
   <g id="text_16">
    <!-- violin plot -->
    <defs>
     <path d="M 2.984375 54.6875 
L 12.5 54.6875 
L 29.59375 8.796875 
L 46.6875 54.6875 
L 56.203125 54.6875 
L 35.6875 0 
L 23.484375 0 
z
" id="BitstreamVeraSans-Roman-76"/>
     <path id="BitstreamVeraSans-Roman-20"/>
     <path d="M 9.421875 75.984375 
L 18.40625 75.984375 
L 18.40625 0 
L 9.421875 0 
z
" id="BitstreamVeraSans-Roman-6c"/>
    </defs>
    <g transform="translate(259.88175 31.0)scale(0.144 -0.144)">
     <use xlink:href="#BitstreamVeraSans-Roman-76"/>
     <use x="59.1796875" xlink:href="#BitstreamVeraSans-Roman-69"/>
     <use x="86.962890625" xlink:href="#BitstreamVeraSans-Roman-6f"/>
     <use x="148.14453125" xlink:href="#BitstreamVeraSans-Roman-6c"/>
     <use x="175.927734375" xlink:href="#BitstreamVeraSans-Roman-69"/>
     <use x="203.7109375" xlink:href="#BitstreamVeraSans-Roman-6e"/>
     <use x="267.08984375" xlink:href="#BitstreamVeraSans-Roman-20"/>
     <use x="298.876953125" xlink:href="#BitstreamVeraSans-Roman-70"/>
     <use x="362.353515625" xlink:href="#BitstreamVeraSans-Roman-6c"/>
     <use x="390.13671875" xlink:href="#BitstreamVeraSans-Roman-6f"/>
     <use x="451.318359375" xlink:href="#BitstreamVeraSans-Roman-74"/>
    </g>
   </g>
  </g>
 </g>
 <defs>
  <clipPath id="pc22b645ed1">
   <rect height="288.0" width="446.4" x="72.0" y="36.0"/>
  </clipPath>
 </defs>
</svg>
