<?xml version="1.0" encoding="utf-8" standalone="no"?>
<!DOCTYPE svg PUBLIC "-//W3C//DTD SVG 1.1//EN"
  "http://www.w3.org/Graphics/SVG/1.1/DTD/svg11.dtd">
<!-- Created with matplotlib (http://matplotlib.org/) -->
<svg height="396pt" version="1.1" viewBox="0 0 576 396" width="576pt" xmlns="http://www.w3.org/2000/svg" xmlns:xlink="http://www.w3.org/1999/xlink">
 <defs>
  <style type="text/css">
*{stroke-linecap:butt;stroke-linejoin:round;stroke-miterlimit:100000;}
  </style>
 </defs>
 <g id="figure_1">
  <g id="patch_1">
   <path d="M 0 396 
L 576 396 
L 576 0 
L 0 0 
z
" style="fill:#ffffff;"/>
  </g>
  <g id="axes_1">
   <g id="patch_2">
    <path d="M 72 356.4 
L 518.4 356.4 
L 518.4 39.6 
L 72 39.6 
z
" style="fill:#eaeaf2;"/>
   </g>
   <g id="matplotlib.axis_1">
    <g id="xtick_1">
     <g id="line2d_1"/>
     <g id="line2d_2"/>
     <g id="text_1">
      <!-- Sun -->
      <defs>
       <path d="M 4.5 23 
L 13.421875 23.78125 
Q 14.0625 18.40625 16.375 14.96875 
Q 18.703125 11.53125 23.578125 9.40625 
Q 28.46875 7.28125 34.578125 7.28125 
Q 39.984375 7.28125 44.140625 8.890625 
Q 48.296875 10.5 50.3125 13.296875 
Q 52.34375 16.109375 52.34375 19.4375 
Q 52.34375 22.796875 50.390625 25.3125 
Q 48.4375 27.828125 43.953125 29.546875 
Q 41.0625 30.671875 31.203125 33.03125 
Q 21.34375 35.40625 17.390625 37.5 
Q 12.25 40.1875 9.734375 44.15625 
Q 7.234375 48.140625 7.234375 53.078125 
Q 7.234375 58.5 10.296875 63.203125 
Q 13.375 67.921875 19.28125 70.359375 
Q 25.203125 72.796875 32.421875 72.796875 
Q 40.375 72.796875 46.453125 70.234375 
Q 52.546875 67.671875 55.8125 62.6875 
Q 59.078125 57.71875 59.328125 51.421875 
L 50.25 50.734375 
Q 49.515625 57.515625 45.28125 60.984375 
Q 41.0625 64.453125 32.8125 64.453125 
Q 24.21875 64.453125 20.28125 61.296875 
Q 16.359375 58.15625 16.359375 53.71875 
Q 16.359375 49.859375 19.140625 47.359375 
Q 21.875 44.875 33.421875 42.265625 
Q 44.96875 39.65625 49.265625 37.703125 
Q 55.515625 34.8125 58.484375 30.390625 
Q 61.46875 25.984375 61.46875 20.21875 
Q 61.46875 14.5 58.203125 9.4375 
Q 54.9375 4.390625 48.796875 1.578125 
Q 42.671875 -1.21875 35.015625 -1.21875 
Q 25.296875 -1.21875 18.71875 1.609375 
Q 12.15625 4.4375 8.421875 10.125 
Q 4.6875 15.828125 4.5 23 
" id="ArialMT-53"/>
       <path d="M 6.59375 0 
L 6.59375 51.859375 
L 14.5 51.859375 
L 14.5 44.484375 
Q 20.21875 53.03125 31 53.03125 
Q 35.6875 53.03125 39.625 51.34375 
Q 43.5625 49.65625 45.515625 46.921875 
Q 47.46875 44.1875 48.25 40.4375 
Q 48.734375 37.984375 48.734375 31.890625 
L 48.734375 0 
L 39.9375 0 
L 39.9375 31.546875 
Q 39.9375 36.921875 38.90625 39.578125 
Q 37.890625 42.234375 35.28125 43.8125 
Q 32.671875 45.40625 29.15625 45.40625 
Q 23.53125 45.40625 19.453125 41.84375 
Q 15.375 38.28125 15.375 28.328125 
L 15.375 0 
z
" id="ArialMT-6e"/>
       <path d="M 40.578125 0 
L 40.578125 7.625 
Q 34.515625 -1.171875 24.125 -1.171875 
Q 19.53125 -1.171875 15.546875 0.578125 
Q 11.578125 2.34375 9.640625 5 
Q 7.71875 7.671875 6.9375 11.53125 
Q 6.390625 14.109375 6.390625 19.734375 
L 6.390625 51.859375 
L 15.1875 51.859375 
L 15.1875 23.09375 
Q 15.1875 16.21875 15.71875 13.8125 
Q 16.546875 10.359375 19.234375 8.375 
Q 21.921875 6.390625 25.875 6.390625 
Q 29.828125 6.390625 33.296875 8.421875 
Q 36.765625 10.453125 38.203125 13.9375 
Q 39.65625 17.4375 39.65625 24.078125 
L 39.65625 51.859375 
L 48.4375 51.859375 
L 48.4375 0 
z
" id="ArialMT-75"/>
      </defs>
      <g style="fill:#262626;" transform="translate(118.90390625 370.5578125)scale(0.1 -0.1)">
       <use xlink:href="#ArialMT-53"/>
       <use x="66.69921875" xlink:href="#ArialMT-75"/>
       <use x="122.314453125" xlink:href="#ArialMT-6e"/>
      </g>
     </g>
    </g>
    <g id="xtick_2">
     <g id="line2d_3"/>
     <g id="line2d_4"/>
     <g id="text_2">
      <!-- Sat -->
      <defs>
       <path d="M 25.78125 7.859375 
L 27.046875 0.09375 
Q 23.34375 -0.6875 20.40625 -0.6875 
Q 15.625 -0.6875 12.984375 0.828125 
Q 10.359375 2.34375 9.28125 4.8125 
Q 8.203125 7.28125 8.203125 15.1875 
L 8.203125 45.015625 
L 1.765625 45.015625 
L 1.765625 51.859375 
L 8.203125 51.859375 
L 8.203125 64.703125 
L 16.9375 69.96875 
L 16.9375 51.859375 
L 25.78125 51.859375 
L 25.78125 45.015625 
L 16.9375 45.015625 
L 16.9375 14.703125 
Q 16.9375 10.9375 17.40625 9.859375 
Q 17.875 8.796875 18.921875 8.15625 
Q 19.96875 7.515625 21.921875 7.515625 
Q 23.390625 7.515625 25.78125 7.859375 
" id="ArialMT-74"/>
       <path d="M 40.4375 6.390625 
Q 35.546875 2.25 31.03125 0.53125 
Q 26.515625 -1.171875 21.34375 -1.171875 
Q 12.796875 -1.171875 8.203125 3 
Q 3.609375 7.171875 3.609375 13.671875 
Q 3.609375 17.484375 5.34375 20.625 
Q 7.078125 23.78125 9.890625 25.6875 
Q 12.703125 27.59375 16.21875 28.5625 
Q 18.796875 29.25 24.03125 29.890625 
Q 34.671875 31.15625 39.703125 32.90625 
Q 39.75 34.71875 39.75 35.203125 
Q 39.75 40.578125 37.25 42.78125 
Q 33.890625 45.75 27.25 45.75 
Q 21.046875 45.75 18.09375 43.578125 
Q 15.140625 41.40625 13.71875 35.890625 
L 5.125 37.0625 
Q 6.296875 42.578125 8.984375 45.96875 
Q 11.671875 49.359375 16.75 51.1875 
Q 21.828125 53.03125 28.515625 53.03125 
Q 35.15625 53.03125 39.296875 51.46875 
Q 43.453125 49.90625 45.40625 47.53125 
Q 47.359375 45.171875 48.140625 41.546875 
Q 48.578125 39.3125 48.578125 33.453125 
L 48.578125 21.734375 
Q 48.578125 9.46875 49.140625 6.21875 
Q 49.703125 2.984375 51.375 0 
L 42.1875 0 
Q 40.828125 2.734375 40.4375 6.390625 
M 39.703125 26.03125 
Q 34.90625 24.078125 25.34375 22.703125 
Q 19.921875 21.921875 17.671875 20.9375 
Q 15.4375 19.96875 14.203125 18.09375 
Q 12.984375 16.21875 12.984375 13.921875 
Q 12.984375 10.40625 15.640625 8.0625 
Q 18.3125 5.71875 23.4375 5.71875 
Q 28.515625 5.71875 32.46875 7.9375 
Q 36.421875 10.15625 38.28125 14.015625 
Q 39.703125 17 39.703125 22.796875 
z
" id="ArialMT-61"/>
      </defs>
      <g style="fill:#262626;" transform="translate(231.8953125 370.5578125)scale(0.1 -0.1)">
       <use xlink:href="#ArialMT-53"/>
       <use x="66.69921875" xlink:href="#ArialMT-61"/>
       <use x="122.314453125" xlink:href="#ArialMT-74"/>
      </g>
     </g>
    </g>
    <g id="xtick_3">
     <g id="line2d_5"/>
     <g id="line2d_6"/>
     <g id="text_3">
      <!-- Thur -->
      <defs>
       <path d="M 6.59375 0 
L 6.59375 71.578125 
L 15.375 71.578125 
L 15.375 45.90625 
Q 21.53125 53.03125 30.90625 53.03125 
Q 36.671875 53.03125 40.921875 50.75 
Q 45.171875 48.484375 47 44.484375 
Q 48.828125 40.484375 48.828125 32.859375 
L 48.828125 0 
L 40.046875 0 
L 40.046875 32.859375 
Q 40.046875 39.453125 37.1875 42.453125 
Q 34.328125 45.453125 29.109375 45.453125 
Q 25.203125 45.453125 21.75 43.421875 
Q 18.3125 41.40625 16.84375 37.9375 
Q 15.375 34.46875 15.375 28.375 
L 15.375 0 
z
" id="ArialMT-68"/>
       <path d="M 6.5 0 
L 6.5 51.859375 
L 14.40625 51.859375 
L 14.40625 44 
Q 17.4375 49.515625 20 51.265625 
Q 22.5625 53.03125 25.640625 53.03125 
Q 30.078125 53.03125 34.671875 50.203125 
L 31.640625 42.046875 
Q 28.421875 43.953125 25.203125 43.953125 
Q 22.3125 43.953125 20.015625 42.21875 
Q 17.71875 40.484375 16.75 37.40625 
Q 15.28125 32.71875 15.28125 27.15625 
L 15.28125 0 
z
" id="ArialMT-72"/>
       <path d="M 25.921875 0 
L 25.921875 63.140625 
L 2.34375 63.140625 
L 2.34375 71.578125 
L 59.078125 71.578125 
L 59.078125 63.140625 
L 35.40625 63.140625 
L 35.40625 0 
z
" id="ArialMT-54"/>
      </defs>
      <g style="fill:#262626;" transform="translate(340.7203125 370.5578125)scale(0.1 -0.1)">
       <use xlink:href="#ArialMT-54"/>
       <use x="61.083984375" xlink:href="#ArialMT-68"/>
       <use x="116.69921875" xlink:href="#ArialMT-75"/>
       <use x="172.314453125" xlink:href="#ArialMT-72"/>
      </g>
     </g>
    </g>
    <g id="xtick_4">
     <g id="line2d_7"/>
     <g id="line2d_8"/>
     <g id="text_4">
      <!-- Fri -->
      <defs>
       <path d="M 6.640625 61.46875 
L 6.640625 71.578125 
L 15.4375 71.578125 
L 15.4375 61.46875 
z
M 6.640625 0 
L 6.640625 51.859375 
L 15.4375 51.859375 
L 15.4375 0 
z
" id="ArialMT-69"/>
       <path d="M 8.203125 0 
L 8.203125 71.578125 
L 56.5 71.578125 
L 56.5 63.140625 
L 17.671875 63.140625 
L 17.671875 40.96875 
L 51.265625 40.96875 
L 51.265625 32.515625 
L 17.671875 32.515625 
L 17.671875 0 
z
" id="ArialMT-46"/>
      </defs>
      <g style="fill:#262626;" transform="translate(456.7703125 370.5578125)scale(0.1 -0.1)">
       <use xlink:href="#ArialMT-46"/>
       <use x="61.083984375" xlink:href="#ArialMT-72"/>
       <use x="94.384765625" xlink:href="#ArialMT-69"/>
      </g>
     </g>
    </g>
    <g id="text_5">
     <!-- day -->
     <defs>
      <path d="M 6.203125 -19.96875 
L 5.21875 -11.71875 
Q 8.109375 -12.5 10.25 -12.5 
Q 13.1875 -12.5 14.9375 -11.515625 
Q 16.703125 -10.546875 17.828125 -8.796875 
Q 18.65625 -7.46875 20.515625 -2.25 
Q 20.75 -1.515625 21.296875 -0.09375 
L 1.609375 51.859375 
L 11.078125 51.859375 
L 21.875 21.828125 
Q 23.96875 16.109375 25.640625 9.8125 
Q 27.15625 15.875 29.25 21.625 
L 40.328125 51.859375 
L 49.125 51.859375 
L 29.390625 -0.875 
Q 26.21875 -9.421875 24.46875 -12.640625 
Q 22.125 -17 19.09375 -19.015625 
Q 16.0625 -21.046875 11.859375 -21.046875 
Q 9.328125 -21.046875 6.203125 -19.96875 
" id="ArialMT-79"/>
      <path d="M 40.234375 0 
L 40.234375 6.546875 
Q 35.296875 -1.171875 25.734375 -1.171875 
Q 19.53125 -1.171875 14.328125 2.25 
Q 9.125 5.671875 6.265625 11.796875 
Q 3.421875 17.921875 3.421875 25.875 
Q 3.421875 33.640625 6 39.96875 
Q 8.59375 46.296875 13.765625 49.65625 
Q 18.953125 53.03125 25.34375 53.03125 
Q 30.03125 53.03125 33.6875 51.046875 
Q 37.359375 49.078125 39.65625 45.90625 
L 39.65625 71.578125 
L 48.390625 71.578125 
L 48.390625 0 
z
M 12.453125 25.875 
Q 12.453125 15.921875 16.640625 10.984375 
Q 20.84375 6.0625 26.5625 6.0625 
Q 32.328125 6.0625 36.34375 10.765625 
Q 40.375 15.484375 40.375 25.140625 
Q 40.375 35.796875 36.265625 40.765625 
Q 32.171875 45.75 26.171875 45.75 
Q 20.3125 45.75 16.375 40.96875 
Q 12.453125 36.1875 12.453125 25.875 
" id="ArialMT-64"/>
     </defs>
     <g style="fill:#262626;" transform="translate(286.33296875 385.41890625)scale(0.11 -0.11)">
      <use xlink:href="#ArialMT-64"/>
      <use x="55.615234375" xlink:href="#ArialMT-61"/>
      <use x="111.23046875" xlink:href="#ArialMT-79"/>
     </g>
    </g>
   </g>
   <g id="matplotlib.axis_2">
    <g id="ytick_1">
     <g id="line2d_9">
      <path clip-path="url(#p2faaf1ba2e)" d="M 72 356.4 
L 518.4 356.4 
" style="fill:none;stroke:#ffffff;stroke-linecap:round;"/>
     </g>
     <g id="line2d_10"/>
     <g id="line2d_11"/>
     <g id="text_6">
      <!-- −20 -->
      <defs>
       <path d="M 4.15625 35.296875 
Q 4.15625 48 6.765625 55.734375 
Q 9.375 63.484375 14.515625 67.671875 
Q 19.671875 71.875 27.484375 71.875 
Q 33.25 71.875 37.59375 69.546875 
Q 41.9375 67.234375 44.765625 62.859375 
Q 47.609375 58.5 49.21875 52.21875 
Q 50.828125 45.953125 50.828125 35.296875 
Q 50.828125 22.703125 48.234375 14.96875 
Q 45.65625 7.234375 40.5 3 
Q 35.359375 -1.21875 27.484375 -1.21875 
Q 17.140625 -1.21875 11.234375 6.203125 
Q 4.15625 15.140625 4.15625 35.296875 
M 13.1875 35.296875 
Q 13.1875 17.671875 17.3125 11.828125 
Q 21.4375 6 27.484375 6 
Q 33.546875 6 37.671875 11.859375 
Q 41.796875 17.71875 41.796875 35.296875 
Q 41.796875 52.984375 37.671875 58.78125 
Q 33.546875 64.59375 27.390625 64.59375 
Q 21.34375 64.59375 17.71875 59.46875 
Q 13.1875 52.9375 13.1875 35.296875 
" id="ArialMT-30"/>
       <path d="M 52.828125 31.203125 
L 5.5625 31.203125 
L 5.5625 39.40625 
L 52.828125 39.40625 
z
" id="ArialMT-2212"/>
       <path d="M 50.34375 8.453125 
L 50.34375 0 
L 3.03125 0 
Q 2.9375 3.171875 4.046875 6.109375 
Q 5.859375 10.9375 9.828125 15.625 
Q 13.8125 20.3125 21.34375 26.46875 
Q 33.015625 36.03125 37.109375 41.625 
Q 41.21875 47.21875 41.21875 52.203125 
Q 41.21875 57.421875 37.46875 61 
Q 33.734375 64.59375 27.734375 64.59375 
Q 21.390625 64.59375 17.578125 60.78125 
Q 13.765625 56.984375 13.71875 50.25 
L 4.6875 51.171875 
Q 5.609375 61.28125 11.65625 66.578125 
Q 17.71875 71.875 27.9375 71.875 
Q 38.234375 71.875 44.234375 66.15625 
Q 50.25 60.453125 50.25 52 
Q 50.25 47.703125 48.484375 43.546875 
Q 46.734375 39.40625 42.65625 34.8125 
Q 38.578125 30.21875 29.109375 22.21875 
Q 21.1875 15.578125 18.9375 13.203125 
Q 16.703125 10.84375 15.234375 8.453125 
z
" id="ArialMT-32"/>
      </defs>
      <g style="fill:#262626;" transform="translate(48.0375 358.98515625)scale(0.1 -0.1)">
       <use xlink:href="#ArialMT-2212"/>
       <use x="58.3984375" xlink:href="#ArialMT-32"/>
       <use x="114.013671875" xlink:href="#ArialMT-30"/>
      </g>
     </g>
    </g>
    <g id="ytick_2">
     <g id="line2d_12">
      <path clip-path="url(#p2faaf1ba2e)" d="M 72 321.2 
L 518.4 321.2 
" style="fill:none;stroke:#ffffff;stroke-linecap:round;"/>
     </g>
     <g id="line2d_13"/>
     <g id="line2d_14"/>
     <g id="text_7">
      <!-- −10 -->
      <defs>
       <path d="M 37.25 0 
L 28.46875 0 
L 28.46875 56 
Q 25.296875 52.984375 20.140625 49.953125 
Q 14.984375 46.921875 10.890625 45.40625 
L 10.890625 53.90625 
Q 18.265625 57.375 23.78125 62.296875 
Q 29.296875 67.234375 31.59375 71.875 
L 37.25 71.875 
z
" id="ArialMT-31"/>
      </defs>
      <g style="fill:#262626;" transform="translate(48.0375 323.78515625)scale(0.1 -0.1)">
       <use xlink:href="#ArialMT-2212"/>
       <use x="58.3984375" xlink:href="#ArialMT-31"/>
       <use x="114.013671875" xlink:href="#ArialMT-30"/>
      </g>
     </g>
    </g>
    <g id="ytick_3">
     <g id="line2d_15">
      <path clip-path="url(#p2faaf1ba2e)" d="M 72 286 
L 518.4 286 
" style="fill:none;stroke:#ffffff;stroke-linecap:round;"/>
     </g>
     <g id="line2d_16"/>
     <g id="line2d_17"/>
     <g id="text_8">
      <!-- 0 -->
      <g style="fill:#262626;" transform="translate(59.4390625 288.58515625)scale(0.1 -0.1)">
       <use xlink:href="#ArialMT-30"/>
      </g>
     </g>
    </g>
    <g id="ytick_4">
     <g id="line2d_18">
      <path clip-path="url(#p2faaf1ba2e)" d="M 72 250.8 
L 518.4 250.8 
" style="fill:none;stroke:#ffffff;stroke-linecap:round;"/>
     </g>
     <g id="line2d_19"/>
     <g id="line2d_20"/>
     <g id="text_9">
      <!-- 10 -->
      <g style="fill:#262626;" transform="translate(53.878125 253.38515625)scale(0.1 -0.1)">
       <use xlink:href="#ArialMT-31"/>
       <use x="55.615234375" xlink:href="#ArialMT-30"/>
      </g>
     </g>
    </g>
    <g id="ytick_5">
     <g id="line2d_21">
      <path clip-path="url(#p2faaf1ba2e)" d="M 72 215.6 
L 518.4 215.6 
" style="fill:none;stroke:#ffffff;stroke-linecap:round;"/>
     </g>
     <g id="line2d_22"/>
     <g id="line2d_23"/>
     <g id="text_10">
      <!-- 20 -->
      <g style="fill:#262626;" transform="translate(53.878125 218.18515625)scale(0.1 -0.1)">
       <use xlink:href="#ArialMT-32"/>
       <use x="55.615234375" xlink:href="#ArialMT-30"/>
      </g>
     </g>
    </g>
    <g id="ytick_6">
     <g id="line2d_24">
      <path clip-path="url(#p2faaf1ba2e)" d="M 72 180.4 
L 518.4 180.4 
" style="fill:none;stroke:#ffffff;stroke-linecap:round;"/>
     </g>
     <g id="line2d_25"/>
     <g id="line2d_26"/>
     <g id="text_11">
      <!-- 30 -->
      <defs>
       <path d="M 4.203125 18.890625 
L 12.984375 20.0625 
Q 14.5 12.59375 18.140625 9.296875 
Q 21.78125 6 27 6 
Q 33.203125 6 37.46875 10.296875 
Q 41.75 14.59375 41.75 20.953125 
Q 41.75 27 37.796875 30.921875 
Q 33.84375 34.859375 27.734375 34.859375 
Q 25.25 34.859375 21.53125 33.890625 
L 22.515625 41.609375 
Q 23.390625 41.5 23.921875 41.5 
Q 29.546875 41.5 34.03125 44.421875 
Q 38.53125 47.359375 38.53125 53.46875 
Q 38.53125 58.296875 35.25 61.46875 
Q 31.984375 64.65625 26.8125 64.65625 
Q 21.6875 64.65625 18.265625 61.421875 
Q 14.84375 58.203125 13.875 51.765625 
L 5.078125 53.328125 
Q 6.6875 62.15625 12.390625 67.015625 
Q 18.109375 71.875 26.609375 71.875 
Q 32.46875 71.875 37.390625 69.359375 
Q 42.328125 66.84375 44.9375 62.5 
Q 47.5625 58.15625 47.5625 53.265625 
Q 47.5625 48.640625 45.0625 44.828125 
Q 42.578125 41.015625 37.703125 38.765625 
Q 44.046875 37.3125 47.5625 32.6875 
Q 51.078125 28.078125 51.078125 21.140625 
Q 51.078125 11.765625 44.234375 5.25 
Q 37.40625 -1.265625 26.953125 -1.265625 
Q 17.53125 -1.265625 11.296875 4.34375 
Q 5.078125 9.96875 4.203125 18.890625 
" id="ArialMT-33"/>
      </defs>
      <g style="fill:#262626;" transform="translate(53.878125 182.98515625)scale(0.1 -0.1)">
       <use xlink:href="#ArialMT-33"/>
       <use x="55.615234375" xlink:href="#ArialMT-30"/>
      </g>
     </g>
    </g>
    <g id="ytick_7">
     <g id="line2d_27">
      <path clip-path="url(#p2faaf1ba2e)" d="M 72 145.2 
L 518.4 145.2 
" style="fill:none;stroke:#ffffff;stroke-linecap:round;"/>
     </g>
     <g id="line2d_28"/>
     <g id="line2d_29"/>
     <g id="text_12">
      <!-- 40 -->
      <defs>
       <path d="M 32.328125 0 
L 32.328125 17.140625 
L 1.265625 17.140625 
L 1.265625 25.203125 
L 33.9375 71.578125 
L 41.109375 71.578125 
L 41.109375 25.203125 
L 50.78125 25.203125 
L 50.78125 17.140625 
L 41.109375 17.140625 
L 41.109375 0 
z
M 32.328125 25.203125 
L 32.328125 57.46875 
L 9.90625 25.203125 
z
" id="ArialMT-34"/>
      </defs>
      <g style="fill:#262626;" transform="translate(53.878125 147.78515625)scale(0.1 -0.1)">
       <use xlink:href="#ArialMT-34"/>
       <use x="55.615234375" xlink:href="#ArialMT-30"/>
      </g>
     </g>
    </g>
    <g id="ytick_8">
     <g id="line2d_30">
      <path clip-path="url(#p2faaf1ba2e)" d="M 72 110 
L 518.4 110 
" style="fill:none;stroke:#ffffff;stroke-linecap:round;"/>
     </g>
     <g id="line2d_31"/>
     <g id="line2d_32"/>
     <g id="text_13">
      <!-- 50 -->
      <defs>
       <path d="M 4.15625 18.75 
L 13.375 19.53125 
Q 14.40625 12.796875 18.140625 9.390625 
Q 21.875 6 27.15625 6 
Q 33.5 6 37.890625 10.78125 
Q 42.28125 15.578125 42.28125 23.484375 
Q 42.28125 31 38.0625 35.34375 
Q 33.84375 39.703125 27 39.703125 
Q 22.75 39.703125 19.328125 37.765625 
Q 15.921875 35.84375 13.96875 32.765625 
L 5.71875 33.84375 
L 12.640625 70.609375 
L 48.25 70.609375 
L 48.25 62.203125 
L 19.671875 62.203125 
L 15.828125 42.96875 
Q 22.265625 47.46875 29.34375 47.46875 
Q 38.71875 47.46875 45.15625 40.96875 
Q 51.609375 34.46875 51.609375 24.265625 
Q 51.609375 14.546875 45.953125 7.46875 
Q 39.0625 -1.21875 27.15625 -1.21875 
Q 17.390625 -1.21875 11.203125 4.25 
Q 5.03125 9.71875 4.15625 18.75 
" id="ArialMT-35"/>
      </defs>
      <g style="fill:#262626;" transform="translate(53.878125 112.58515625)scale(0.1 -0.1)">
       <use xlink:href="#ArialMT-35"/>
       <use x="55.615234375" xlink:href="#ArialMT-30"/>
      </g>
     </g>
    </g>
    <g id="ytick_9">
     <g id="line2d_33">
      <path clip-path="url(#p2faaf1ba2e)" d="M 72 74.8 
L 518.4 74.8 
" style="fill:none;stroke:#ffffff;stroke-linecap:round;"/>
     </g>
     <g id="line2d_34"/>
     <g id="line2d_35"/>
     <g id="text_14">
      <!-- 60 -->
      <defs>
       <path d="M 49.75 54.046875 
L 41.015625 53.375 
Q 39.84375 58.546875 37.703125 60.890625 
Q 34.125 64.65625 28.90625 64.65625 
Q 24.703125 64.65625 21.53125 62.3125 
Q 17.390625 59.28125 14.984375 53.46875 
Q 12.59375 47.65625 12.5 36.921875 
Q 15.671875 41.75 20.265625 44.09375 
Q 24.859375 46.4375 29.890625 46.4375 
Q 38.671875 46.4375 44.84375 39.96875 
Q 51.03125 33.5 51.03125 23.25 
Q 51.03125 16.5 48.125 10.71875 
Q 45.21875 4.9375 40.140625 1.859375 
Q 35.0625 -1.21875 28.609375 -1.21875 
Q 17.625 -1.21875 10.6875 6.859375 
Q 3.765625 14.9375 3.765625 33.5 
Q 3.765625 54.25 11.421875 63.671875 
Q 18.109375 71.875 29.4375 71.875 
Q 37.890625 71.875 43.28125 67.140625 
Q 48.6875 62.40625 49.75 54.046875 
M 13.875 23.1875 
Q 13.875 18.65625 15.796875 14.5 
Q 17.71875 10.359375 21.1875 8.171875 
Q 24.65625 6 28.46875 6 
Q 34.03125 6 38.03125 10.484375 
Q 42.046875 14.984375 42.046875 22.703125 
Q 42.046875 30.125 38.078125 34.390625 
Q 34.125 38.671875 28.125 38.671875 
Q 22.171875 38.671875 18.015625 34.390625 
Q 13.875 30.125 13.875 23.1875 
" id="ArialMT-36"/>
      </defs>
      <g style="fill:#262626;" transform="translate(53.878125 77.38515625)scale(0.1 -0.1)">
       <use xlink:href="#ArialMT-36"/>
       <use x="55.615234375" xlink:href="#ArialMT-30"/>
      </g>
     </g>
    </g>
    <g id="ytick_10">
     <g id="line2d_36">
      <path clip-path="url(#p2faaf1ba2e)" d="M 72 39.6 
L 518.4 39.6 
" style="fill:none;stroke:#ffffff;stroke-linecap:round;"/>
     </g>
     <g id="line2d_37"/>
     <g id="line2d_38"/>
     <g id="text_15">
      <!-- 70 -->
      <defs>
       <path d="M 4.734375 62.203125 
L 4.734375 70.65625 
L 51.078125 70.65625 
L 51.078125 63.8125 
Q 44.234375 56.546875 37.515625 44.484375 
Q 30.8125 32.421875 27.15625 19.671875 
Q 24.515625 10.6875 23.78125 0 
L 14.75 0 
Q 14.890625 8.453125 18.0625 20.40625 
Q 21.234375 32.375 27.171875 43.484375 
Q 33.109375 54.59375 39.796875 62.203125 
z
" id="ArialMT-37"/>
      </defs>
      <g style="fill:#262626;" transform="translate(53.878125 42.18515625)scale(0.1 -0.1)">
       <use xlink:href="#ArialMT-37"/>
       <use x="55.615234375" xlink:href="#ArialMT-30"/>
      </g>
     </g>
    </g>
    <g id="text_16">
     <!-- total_bill -->
     <defs>
      <path d="M 6.390625 0 
L 6.390625 71.578125 
L 15.1875 71.578125 
L 15.1875 0 
z
" id="ArialMT-6c"/>
      <path d="M 14.703125 0 
L 6.546875 0 
L 6.546875 71.578125 
L 15.328125 71.578125 
L 15.328125 46.046875 
Q 20.90625 53.03125 29.546875 53.03125 
Q 34.328125 53.03125 38.59375 51.09375 
Q 42.875 49.171875 45.625 45.671875 
Q 48.390625 42.1875 49.953125 37.25 
Q 51.515625 32.328125 51.515625 26.703125 
Q 51.515625 13.375 44.921875 6.09375 
Q 38.328125 -1.171875 29.109375 -1.171875 
Q 19.921875 -1.171875 14.703125 6.5 
z
M 14.59375 26.3125 
Q 14.59375 17 17.140625 12.84375 
Q 21.296875 6.0625 28.375 6.0625 
Q 34.125 6.0625 38.328125 11.0625 
Q 42.53125 16.0625 42.53125 25.984375 
Q 42.53125 36.140625 38.5 40.96875 
Q 34.46875 45.796875 28.765625 45.796875 
Q 23 45.796875 18.796875 40.796875 
Q 14.59375 35.796875 14.59375 26.3125 
" id="ArialMT-62"/>
      <path d="M -1.515625 -19.875 
L -1.515625 -13.53125 
L 56.734375 -13.53125 
L 56.734375 -19.875 
z
" id="ArialMT-5f"/>
      <path d="M 3.328125 25.921875 
Q 3.328125 40.328125 11.328125 47.265625 
Q 18.015625 53.03125 27.640625 53.03125 
Q 38.328125 53.03125 45.109375 46.015625 
Q 51.90625 39.015625 51.90625 26.65625 
Q 51.90625 16.65625 48.90625 10.90625 
Q 45.90625 5.171875 40.15625 2 
Q 34.421875 -1.171875 27.640625 -1.171875 
Q 16.75 -1.171875 10.03125 5.8125 
Q 3.328125 12.796875 3.328125 25.921875 
M 12.359375 25.921875 
Q 12.359375 15.96875 16.703125 11.015625 
Q 21.046875 6.0625 27.640625 6.0625 
Q 34.1875 6.0625 38.53125 11.03125 
Q 42.875 16.015625 42.875 26.21875 
Q 42.875 35.84375 38.5 40.796875 
Q 34.125 45.75 27.640625 45.75 
Q 21.046875 45.75 16.703125 40.8125 
Q 12.359375 35.890625 12.359375 25.921875 
" id="ArialMT-6f"/>
     </defs>
     <g style="fill:#262626;" transform="translate(40.85125 218.178125)rotate(-90.0)scale(0.11 -0.11)">
      <use xlink:href="#ArialMT-74"/>
      <use x="27.783203125" xlink:href="#ArialMT-6f"/>
      <use x="83.3984375" xlink:href="#ArialMT-74"/>
      <use x="111.181640625" xlink:href="#ArialMT-61"/>
      <use x="166.796875" xlink:href="#ArialMT-6c"/>
      <use x="189.013671875" xlink:href="#ArialMT-5f"/>
      <use x="244.62890625" xlink:href="#ArialMT-62"/>
      <use x="300.244140625" xlink:href="#ArialMT-69"/>
      <use x="322.4609375" xlink:href="#ArialMT-6c"/>
      <use x="344.677734375" xlink:href="#ArialMT-6c"/>
     </g>
    </g>
   </g>
   <g id="PolyCollection_1">
    <defs>
     <path d="M 127.8 -114.760726 
L 126.299402 -114.760726 
L 125.867567 -116.23006 
L 125.340471 -117.699395 
L 124.70586 -119.16873 
L 123.952258 -120.638065 
L 123.069649 -122.1074 
L 122.050206 -123.576735 
L 120.889014 -125.046069 
L 119.584721 -126.515404 
L 118.140058 -127.984739 
L 116.562173 -129.454074 
L 114.862708 -130.923409 
L 113.057608 -132.392744 
L 111.166627 -133.862078 
L 109.212558 -135.331413 
L 107.220235 -136.800748 
L 105.215367 -138.270083 
L 103.223311 -139.739418 
L 101.267878 -141.208753 
L 99.3703 -142.678087 
L 97.54843 -144.147422 
L 95.816278 -145.616757 
L 94.183893 -147.086092 
L 92.657629 -148.555427 
L 91.240713 -150.024762 
L 89.934082 -151.494096 
L 88.737355 -152.963431 
L 87.649824 -154.432766 
L 86.671354 -155.902101 
L 85.80307 -157.371436 
L 85.047756 -158.840771 
L 84.409914 -160.310106 
L 83.895486 -161.77944 
L 83.511273 -163.248775 
L 83.264126 -164.71811 
L 83.16 -166.187445 
L 83.203004 -167.65678 
L 83.394543 -169.126115 
L 83.732662 -170.595449 
L 84.211666 -172.064784 
L 84.822068 -173.534119 
L 85.55086 -175.003454 
L 86.382093 -176.472789 
L 87.297705 -177.942124 
L 88.278513 -179.411458 
L 89.305271 -180.880793 
L 90.359708 -182.350128 
L 91.425443 -183.819463 
L 92.488704 -185.288798 
L 93.538797 -186.758133 
L 94.568313 -188.227467 
L 95.573041 -189.696802 
L 96.55165 -191.166137 
L 97.505164 -192.635472 
L 98.436297 -194.104807 
L 99.348722 -195.574142 
L 100.246348 -197.043476 
L 101.132668 -198.512811 
L 102.010225 -199.982146 
L 102.880254 -201.451481 
L 103.742506 -202.920816 
L 104.595261 -204.390151 
L 105.435513 -205.859485 
L 106.259311 -207.32882 
L 107.062188 -208.798155 
L 107.839668 -210.26749 
L 108.587764 -211.736825 
L 109.303452 -213.20616 
L 109.985052 -214.675494 
L 110.632512 -216.144829 
L 111.247535 -217.614164 
L 111.833581 -219.083499 
L 112.395706 -220.552834 
L 112.940276 -222.022169 
L 113.474565 -223.491504 
L 114.006273 -224.960838 
L 114.543004 -226.430173 
L 115.091729 -227.899508 
L 115.658292 -229.368843 
L 116.246992 -230.838178 
L 116.860258 -232.307513 
L 117.498464 -233.776847 
L 118.15988 -235.246182 
L 118.840764 -236.715517 
L 119.535592 -238.184852 
L 120.2374 -239.654187 
L 120.938209 -241.123522 
L 121.6295 -242.592856 
L 122.302707 -244.062191 
L 122.949675 -245.531526 
L 123.563081 -247.000861 
L 124.136752 -248.470196 
L 124.665907 -249.939531 
L 125.147278 -251.408865 
L 125.57914 -252.8782 
L 125.96124 -254.347535 
L 126.294653 -255.81687 
L 126.581582 -257.286205 
L 126.82512 -258.75554 
L 127.029 -260.224874 
L 127.8 -260.224874 
L 127.8 -260.224874 
L 127.8 -258.75554 
L 127.8 -257.286205 
L 127.8 -255.81687 
L 127.8 -254.347535 
L 127.8 -252.8782 
L 127.8 -251.408865 
L 127.8 -249.939531 
L 127.8 -248.470196 
L 127.8 -247.000861 
L 127.8 -245.531526 
L 127.8 -244.062191 
L 127.8 -242.592856 
L 127.8 -241.123522 
L 127.8 -239.654187 
L 127.8 -238.184852 
L 127.8 -236.715517 
L 127.8 -235.246182 
L 127.8 -233.776847 
L 127.8 -232.307513 
L 127.8 -230.838178 
L 127.8 -229.368843 
L 127.8 -227.899508 
L 127.8 -226.430173 
L 127.8 -224.960838 
L 127.8 -223.491504 
L 127.8 -222.022169 
L 127.8 -220.552834 
L 127.8 -219.083499 
L 127.8 -217.614164 
L 127.8 -216.144829 
L 127.8 -214.675494 
L 127.8 -213.20616 
L 127.8 -211.736825 
L 127.8 -210.26749 
L 127.8 -208.798155 
L 127.8 -207.32882 
L 127.8 -205.859485 
L 127.8 -204.390151 
L 127.8 -202.920816 
L 127.8 -201.451481 
L 127.8 -199.982146 
L 127.8 -198.512811 
L 127.8 -197.043476 
L 127.8 -195.574142 
L 127.8 -194.104807 
L 127.8 -192.635472 
L 127.8 -191.166137 
L 127.8 -189.696802 
L 127.8 -188.227467 
L 127.8 -186.758133 
L 127.8 -185.288798 
L 127.8 -183.819463 
L 127.8 -182.350128 
L 127.8 -180.880793 
L 127.8 -179.411458 
L 127.8 -177.942124 
L 127.8 -176.472789 
L 127.8 -175.003454 
L 127.8 -173.534119 
L 127.8 -172.064784 
L 127.8 -170.595449 
L 127.8 -169.126115 
L 127.8 -167.65678 
L 127.8 -166.187445 
L 127.8 -164.71811 
L 127.8 -163.248775 
L 127.8 -161.77944 
L 127.8 -160.310106 
L 127.8 -158.840771 
L 127.8 -157.371436 
L 127.8 -155.902101 
L 127.8 -154.432766 
L 127.8 -152.963431 
L 127.8 -151.494096 
L 127.8 -150.024762 
L 127.8 -148.555427 
L 127.8 -147.086092 
L 127.8 -145.616757 
L 127.8 -144.147422 
L 127.8 -142.678087 
L 127.8 -141.208753 
L 127.8 -139.739418 
L 127.8 -138.270083 
L 127.8 -136.800748 
L 127.8 -135.331413 
L 127.8 -133.862078 
L 127.8 -132.392744 
L 127.8 -130.923409 
L 127.8 -129.454074 
L 127.8 -127.984739 
L 127.8 -126.515404 
L 127.8 -125.046069 
L 127.8 -123.576735 
L 127.8 -122.1074 
L 127.8 -120.638065 
L 127.8 -119.16873 
L 127.8 -117.699395 
L 127.8 -116.23006 
L 127.8 -114.760726 
z
" id="m1e34e67589" style="stroke:#545454;stroke-width:1.75;"/>
    </defs>
    <g clip-path="url(#p2faaf1ba2e)">
     <use style="fill:#597dbe;stroke:#545454;stroke-width:1.75;" x="0.0" xlink:href="#m1e34e67589" y="396.0"/>
    </g>
   </g>
   <g id="PolyCollection_2">
    <defs>
     <path d="M 239.4 -116.828582 
L 238.817255 -116.828582 
L 238.597245 -118.746453 
L 238.312499 -120.664324 
L 237.95056 -122.582195 
L 237.49849 -124.500066 
L 236.943319 -126.417937 
L 236.272508 -128.335808 
L 235.474391 -130.253679 
L 234.538546 -132.17155 
L 233.456071 -134.089421 
L 232.219755 -136.007293 
L 230.824167 -137.925164 
L 229.26574 -139.843035 
L 227.542914 -141.760906 
L 225.656453 -143.678777 
L 223.610005 -145.596648 
L 221.410966 -147.514519 
L 219.071621 -149.43239 
L 216.610485 -151.350261 
L 214.053677 -153.268132 
L 211.436105 -155.186003 
L 208.802196 -157.103874 
L 206.205924 -159.021745 
L 203.70992 -160.939616 
L 201.383553 -162.857488 
L 199.299977 -164.775359 
L 197.532293 -166.69323 
L 196.149094 -168.611101 
L 195.209766 -170.528972 
L 194.76 -172.446843 
L 194.827969 -174.364714 
L 195.421584 -176.282585 
L 196.527167 -178.200456 
L 198.109705 -180.118327 
L 200.114718 -182.036198 
L 202.471591 -183.954069 
L 205.098052 -185.87194 
L 207.905382 -187.789812 
L 210.803867 -189.707683 
L 213.707983 -191.625554 
L 216.540879 -193.543425 
L 219.237819 -195.461296 
L 221.748385 -197.379167 
L 224.037385 -199.297038 
L 226.084559 -201.214909 
L 227.883285 -203.13278 
L 229.43855 -205.050651 
L 230.764467 -206.968522 
L 231.881628 -208.886393 
L 232.814524 -210.804264 
L 233.589199 -212.722136 
L 234.231269 -214.640007 
L 234.764373 -216.557878 
L 235.209083 -218.475749 
L 235.582285 -220.39362 
L 235.896987 -222.311491 
L 236.162542 -224.229362 
L 236.385185 -226.147233 
L 236.568832 -228.065104 
L 236.716002 -229.982975 
L 236.828753 -231.900846 
L 236.909514 -233.818717 
L 236.961692 -235.736588 
L 236.989973 -237.65446 
L 237.000295 -239.572331 
L 236.999488 -241.490202 
L 236.99467 -243.408073 
L 236.992484 -245.325944 
L 236.99832 -247.243815 
L 237.01566 -249.161686 
L 237.045661 -251.079557 
L 237.087052 -252.997428 
L 237.136381 -254.915299 
L 237.188583 -256.83317 
L 237.237799 -258.751041 
L 237.278312 -260.668912 
L 237.305481 -262.586784 
L 237.316535 -264.504655 
L 237.311097 -266.422526 
L 237.291384 -268.340397 
L 237.262037 -270.258268 
L 237.22962 -272.176139 
L 237.201857 -274.09401 
L 237.186712 -276.011881 
L 237.191449 -277.929752 
L 237.221797 -279.847623 
L 237.281313 -281.765494 
L 237.371044 -283.683365 
L 237.489486 -285.601236 
L 237.632843 -287.519107 
L 237.795526 -289.436979 
L 237.970806 -291.35485 
L 238.151516 -293.272721 
L 238.330736 -295.190592 
L 238.502346 -297.108463 
L 238.66143 -299.026334 
L 238.804494 -300.944205 
L 238.929499 -302.862076 
L 239.035758 -304.779947 
L 239.123715 -306.697818 
L 239.4 -306.697818 
L 239.4 -306.697818 
L 239.4 -304.779947 
L 239.4 -302.862076 
L 239.4 -300.944205 
L 239.4 -299.026334 
L 239.4 -297.108463 
L 239.4 -295.190592 
L 239.4 -293.272721 
L 239.4 -291.35485 
L 239.4 -289.436979 
L 239.4 -287.519107 
L 239.4 -285.601236 
L 239.4 -283.683365 
L 239.4 -281.765494 
L 239.4 -279.847623 
L 239.4 -277.929752 
L 239.4 -276.011881 
L 239.4 -274.09401 
L 239.4 -272.176139 
L 239.4 -270.258268 
L 239.4 -268.340397 
L 239.4 -266.422526 
L 239.4 -264.504655 
L 239.4 -262.586784 
L 239.4 -260.668912 
L 239.4 -258.751041 
L 239.4 -256.83317 
L 239.4 -254.915299 
L 239.4 -252.997428 
L 239.4 -251.079557 
L 239.4 -249.161686 
L 239.4 -247.243815 
L 239.4 -245.325944 
L 239.4 -243.408073 
L 239.4 -241.490202 
L 239.4 -239.572331 
L 239.4 -237.65446 
L 239.4 -235.736588 
L 239.4 -233.818717 
L 239.4 -231.900846 
L 239.4 -229.982975 
L 239.4 -228.065104 
L 239.4 -226.147233 
L 239.4 -224.229362 
L 239.4 -222.311491 
L 239.4 -220.39362 
L 239.4 -218.475749 
L 239.4 -216.557878 
L 239.4 -214.640007 
L 239.4 -212.722136 
L 239.4 -210.804264 
L 239.4 -208.886393 
L 239.4 -206.968522 
L 239.4 -205.050651 
L 239.4 -203.13278 
L 239.4 -201.214909 
L 239.4 -199.297038 
L 239.4 -197.379167 
L 239.4 -195.461296 
L 239.4 -193.543425 
L 239.4 -191.625554 
L 239.4 -189.707683 
L 239.4 -187.789812 
L 239.4 -185.87194 
L 239.4 -183.954069 
L 239.4 -182.036198 
L 239.4 -180.118327 
L 239.4 -178.200456 
L 239.4 -176.282585 
L 239.4 -174.364714 
L 239.4 -172.446843 
L 239.4 -170.528972 
L 239.4 -168.611101 
L 239.4 -166.69323 
L 239.4 -164.775359 
L 239.4 -162.857488 
L 239.4 -160.939616 
L 239.4 -159.021745 
L 239.4 -157.103874 
L 239.4 -155.186003 
L 239.4 -153.268132 
L 239.4 -151.350261 
L 239.4 -149.43239 
L 239.4 -147.514519 
L 239.4 -145.596648 
L 239.4 -143.678777 
L 239.4 -141.760906 
L 239.4 -139.843035 
L 239.4 -137.925164 
L 239.4 -136.007293 
L 239.4 -134.089421 
L 239.4 -132.17155 
L 239.4 -130.253679 
L 239.4 -128.335808 
L 239.4 -126.417937 
L 239.4 -124.500066 
L 239.4 -122.582195 
L 239.4 -120.664324 
L 239.4 -118.746453 
L 239.4 -116.828582 
z
" id="maa0fedabd5" style="stroke:#545454;stroke-width:1.75;"/>
    </defs>
    <g clip-path="url(#p2faaf1ba2e)">
     <use style="fill:#597dbe;stroke:#545454;stroke-width:1.75;" x="0.0" xlink:href="#maa0fedabd5" y="396.0"/>
    </g>
   </g>
   <g id="PolyCollection_3">
    <defs>
     <path d="M 239.840252 -73.590969 
L 239.4 -73.590969 
L 239.4 -76.010772 
L 239.4 -78.430574 
L 239.4 -80.850377 
L 239.4 -83.27018 
L 239.4 -85.689982 
L 239.4 -88.109785 
L 239.4 -90.529588 
L 239.4 -92.94939 
L 239.4 -95.369193 
L 239.4 -97.788995 
L 239.4 -100.208798 
L 239.4 -102.628601 
L 239.4 -105.048403 
L 239.4 -107.468206 
L 239.4 -109.888009 
L 239.4 -112.307811 
L 239.4 -114.727614 
L 239.4 -117.147417 
L 239.4 -119.567219 
L 239.4 -121.987022 
L 239.4 -124.406825 
L 239.4 -126.826627 
L 239.4 -129.24643 
L 239.4 -131.666233 
L 239.4 -134.086035 
L 239.4 -136.505838 
L 239.4 -138.92564 
L 239.4 -141.345443 
L 239.4 -143.765246 
L 239.4 -146.185048 
L 239.4 -148.604851 
L 239.4 -151.024654 
L 239.4 -153.444456 
L 239.4 -155.864259 
L 239.4 -158.284062 
L 239.4 -160.703864 
L 239.4 -163.123667 
L 239.4 -165.54347 
L 239.4 -167.963272 
L 239.4 -170.383075 
L 239.4 -172.802878 
L 239.4 -175.22268 
L 239.4 -177.642483 
L 239.4 -180.062285 
L 239.4 -182.482088 
L 239.4 -184.901891 
L 239.4 -187.321693 
L 239.4 -189.741496 
L 239.4 -192.161299 
L 239.4 -194.581101 
L 239.4 -197.000904 
L 239.4 -199.420707 
L 239.4 -201.840509 
L 239.4 -204.260312 
L 239.4 -206.680115 
L 239.4 -209.099917 
L 239.4 -211.51972 
L 239.4 -213.939522 
L 239.4 -216.359325 
L 239.4 -218.779128 
L 239.4 -221.19893 
L 239.4 -223.618733 
L 239.4 -226.038536 
L 239.4 -228.458338 
L 239.4 -230.878141 
L 239.4 -233.297944 
L 239.4 -235.717746 
L 239.4 -238.137549 
L 239.4 -240.557352 
L 239.4 -242.977154 
L 239.4 -245.396957 
L 239.4 -247.81676 
L 239.4 -250.236562 
L 239.4 -252.656365 
L 239.4 -255.076167 
L 239.4 -257.49597 
L 239.4 -259.915773 
L 239.4 -262.335575 
L 239.4 -264.755378 
L 239.4 -267.175181 
L 239.4 -269.594983 
L 239.4 -272.014786 
L 239.4 -274.434589 
L 239.4 -276.854391 
L 239.4 -279.274194 
L 239.4 -281.693997 
L 239.4 -284.113799 
L 239.4 -286.533602 
L 239.4 -288.953405 
L 239.4 -291.373207 
L 239.4 -293.79301 
L 239.4 -296.212812 
L 239.4 -298.632615 
L 239.4 -301.052418 
L 239.4 -303.47222 
L 239.4 -305.892023 
L 239.4 -308.311826 
L 239.4 -310.731628 
L 239.4 -313.151431 
L 239.837003 -313.151431 
L 239.837003 -313.151431 
L 239.938499 -310.731628 
L 240.057183 -308.311826 
L 240.194365 -305.892023 
L 240.351086 -303.47222 
L 240.528031 -301.052418 
L 240.725447 -298.632615 
L 240.943069 -296.212812 
L 241.18006 -293.79301 
L 241.434972 -291.373207 
L 241.705737 -288.953405 
L 241.98968 -286.533602 
L 242.28357 -284.113799 
L 242.583705 -281.693997 
L 242.886034 -279.274194 
L 243.186295 -276.854391 
L 243.480202 -274.434589 
L 243.763631 -272.014786 
L 244.032825 -269.594983 
L 244.284609 -267.175181 
L 244.516583 -264.755378 
L 244.72731 -262.335575 
L 244.916465 -259.915773 
L 245.084957 -257.49597 
L 245.234997 -255.076167 
L 245.370114 -252.656365 
L 245.495115 -250.236562 
L 245.615985 -247.81676 
L 245.739726 -245.396957 
L 245.874131 -242.977154 
L 246.027522 -240.557352 
L 246.208437 -238.137549 
L 246.425288 -235.717746 
L 246.686012 -233.297944 
L 246.99772 -230.878141 
L 247.366364 -228.458338 
L 247.79645 -226.038536 
L 248.29079 -223.618733 
L 248.850329 -221.19893 
L 249.474036 -218.779128 
L 250.158877 -216.359325 
L 250.899862 -213.939522 
L 251.690162 -211.51972 
L 252.521291 -209.099917 
L 253.383339 -206.680115 
L 254.265238 -204.260312 
L 255.155054 -201.840509 
L 256.040284 -199.420707 
L 256.908152 -197.000904 
L 257.745891 -194.581101 
L 258.540998 -192.161299 
L 259.281474 -189.741496 
L 259.956029 -187.321693 
L 260.554271 -184.901891 
L 261.06687 -182.482088 
L 261.485704 -180.062285 
L 261.803988 -177.642483 
L 262.0164 -175.22268 
L 262.119176 -172.802878 
L 262.110205 -170.383075 
L 261.989092 -167.963272 
L 261.757195 -165.54347 
L 261.417635 -163.123667 
L 260.975254 -160.703864 
L 260.43653 -158.284062 
L 259.80944 -155.864259 
L 259.103276 -153.444456 
L 258.328402 -151.024654 
L 257.495981 -148.604851 
L 256.617667 -146.185048 
L 255.705281 -143.765246 
L 254.770487 -141.345443 
L 253.82449 -138.92564 
L 252.87776 -136.505838 
L 251.939809 -134.086035 
L 251.019022 -131.666233 
L 250.122554 -129.24643 
L 249.256286 -126.826627 
L 248.42485 -124.406825 
L 247.631697 -121.987022 
L 246.879212 -119.567219 
L 246.168859 -117.147417 
L 245.501333 -114.727614 
L 244.87672 -112.307811 
L 244.294639 -109.888009 
L 243.754372 -107.468206 
L 243.254964 -105.048403 
L 242.795295 -102.628601 
L 242.374133 -100.208798 
L 241.990154 -97.788995 
L 241.641954 -95.369193 
L 241.328044 -92.94939 
L 241.046841 -90.529588 
L 240.796659 -88.109785 
L 240.575704 -85.689982 
L 240.382082 -83.27018 
L 240.213803 -80.850377 
L 240.068809 -78.430574 
L 239.944997 -76.010772 
L 239.840252 -73.590969 
z
" id="m90059a2fe9" style="stroke:#545454;stroke-width:1.75;"/>
    </defs>
    <g clip-path="url(#p2faaf1ba2e)">
     <use style="fill:#76bf72;stroke:#545454;stroke-width:1.75;" x="0.0" xlink:href="#m90059a2fe9" y="396.0"/>
    </g>
   </g>
   <g id="PolyCollection_4">
    <defs>
     <path d="M 351 -115.021967 
L 349.787902 -115.021967 
L 349.505457 -116.516958 
L 349.172177 -118.011948 
L 348.78246 -119.506939 
L 348.330795 -121.001929 
L 347.811904 -122.49692 
L 347.220884 -123.991911 
L 346.553346 -125.486901 
L 345.805548 -126.981892 
L 344.974507 -128.476882 
L 344.058096 -129.971873 
L 343.055123 -131.466863 
L 341.965373 -132.961854 
L 340.789649 -134.456845 
L 339.529781 -135.951835 
L 338.188632 -137.446826 
L 336.7701 -138.941816 
L 335.279119 -140.436807 
L 333.72167 -141.931797 
L 332.104807 -143.426788 
L 330.436687 -144.921778 
L 328.726612 -146.416769 
L 326.985069 -147.91176 
L 325.223752 -149.40675 
L 323.455566 -150.901741 
L 321.694579 -152.396731 
L 319.955918 -153.891722 
L 318.255602 -155.386712 
L 316.610291 -156.881703 
L 315.036961 -158.376694 
L 313.552513 -159.871684 
L 312.173318 -161.366675 
L 310.91474 -162.861665 
L 309.790651 -164.356656 
L 308.812973 -165.851646 
L 307.991281 -167.346637 
L 307.3325 -168.841627 
L 306.84071 -170.336618 
L 306.517092 -171.831609 
L 306.36 -173.326599 
L 306.365178 -174.82159 
L 306.526085 -176.31658 
L 306.834313 -177.811571 
L 307.28007 -179.306561 
L 307.852678 -180.801552 
L 308.541056 -182.296542 
L 309.334157 -183.791533 
L 310.221317 -185.286524 
L 311.192502 -186.781514 
L 312.238445 -188.276505 
L 313.350663 -189.771495 
L 314.521374 -191.266486 
L 315.743315 -192.761476 
L 317.009519 -194.256467 
L 318.313043 -195.751458 
L 319.646713 -197.246448 
L 321.002899 -198.741439 
L 322.373349 -200.236429 
L 323.749118 -201.73142 
L 325.120582 -203.22641 
L 326.477568 -204.721401 
L 327.809573 -206.216391 
L 329.106078 -207.711382 
L 330.356914 -209.206373 
L 331.552681 -210.701363 
L 332.685162 -212.196354 
L 333.747716 -213.691344 
L 334.735616 -215.186335 
L 335.646296 -216.681325 
L 336.479498 -218.176316 
L 337.237291 -219.671306 
L 337.92397 -221.166297 
L 338.545827 -222.661288 
L 339.110809 -224.156278 
L 339.628094 -225.651269 
L 340.107598 -227.146259 
L 340.559451 -228.64125 
L 340.993482 -230.13624 
L 341.418734 -231.631231 
L 341.843042 -233.126222 
L 342.272713 -234.621212 
L 342.712291 -236.116203 
L 343.164458 -237.611193 
L 343.630037 -239.106184 
L 344.108106 -240.601174 
L 344.596201 -242.096165 
L 345.0906 -243.591155 
L 345.586645 -245.086146 
L 346.079095 -246.581137 
L 346.562471 -248.076127 
L 347.03139 -249.571118 
L 347.480843 -251.066108 
L 347.906434 -252.561099 
L 348.304549 -254.056089 
L 348.672459 -255.55108 
L 349.00837 -257.046071 
L 349.311405 -258.541061 
L 349.581548 -260.036052 
L 349.81955 -261.531042 
L 350.026801 -263.026033 
L 351 -263.026033 
L 351 -263.026033 
L 351 -261.531042 
L 351 -260.036052 
L 351 -258.541061 
L 351 -257.046071 
L 351 -255.55108 
L 351 -254.056089 
L 351 -252.561099 
L 351 -251.066108 
L 351 -249.571118 
L 351 -248.076127 
L 351 -246.581137 
L 351 -245.086146 
L 351 -243.591155 
L 351 -242.096165 
L 351 -240.601174 
L 351 -239.106184 
L 351 -237.611193 
L 351 -236.116203 
L 351 -234.621212 
L 351 -233.126222 
L 351 -231.631231 
L 351 -230.13624 
L 351 -228.64125 
L 351 -227.146259 
L 351 -225.651269 
L 351 -224.156278 
L 351 -222.661288 
L 351 -221.166297 
L 351 -219.671306 
L 351 -218.176316 
L 351 -216.681325 
L 351 -215.186335 
L 351 -213.691344 
L 351 -212.196354 
L 351 -210.701363 
L 351 -209.206373 
L 351 -207.711382 
L 351 -206.216391 
L 351 -204.721401 
L 351 -203.22641 
L 351 -201.73142 
L 351 -200.236429 
L 351 -198.741439 
L 351 -197.246448 
L 351 -195.751458 
L 351 -194.256467 
L 351 -192.761476 
L 351 -191.266486 
L 351 -189.771495 
L 351 -188.276505 
L 351 -186.781514 
L 351 -185.286524 
L 351 -183.791533 
L 351 -182.296542 
L 351 -180.801552 
L 351 -179.306561 
L 351 -177.811571 
L 351 -176.31658 
L 351 -174.82159 
L 351 -173.326599 
L 351 -171.831609 
L 351 -170.336618 
L 351 -168.841627 
L 351 -167.346637 
L 351 -165.851646 
L 351 -164.356656 
L 351 -162.861665 
L 351 -161.366675 
L 351 -159.871684 
L 351 -158.376694 
L 351 -156.881703 
L 351 -155.386712 
L 351 -153.891722 
L 351 -152.396731 
L 351 -150.901741 
L 351 -149.40675 
L 351 -147.91176 
L 351 -146.416769 
L 351 -144.921778 
L 351 -143.426788 
L 351 -141.931797 
L 351 -140.436807 
L 351 -138.941816 
L 351 -137.446826 
L 351 -135.951835 
L 351 -134.456845 
L 351 -132.961854 
L 351 -131.466863 
L 351 -129.971873 
L 351 -128.476882 
L 351 -126.981892 
L 351 -125.486901 
L 351 -123.991911 
L 351 -122.49692 
L 351 -121.001929 
L 351 -119.506939 
L 351 -118.011948 
L 351 -116.516958 
L 351 -115.021967 
z
" id="m7e24b8cfc4" style="stroke:#545454;stroke-width:1.75;"/>
    </defs>
    <g clip-path="url(#p2faaf1ba2e)">
     <use style="fill:#597dbe;stroke:#545454;stroke-width:1.75;" x="0.0" xlink:href="#m7e24b8cfc4" y="396.0"/>
    </g>
   </g>
   <g id="PolyCollection_5">
    <defs>
     <path d="M 353.848174 -121.051561 
L 351 -121.051561 
L 351 -122.681453 
L 351 -124.311344 
L 351 -125.941236 
L 351 -127.571128 
L 351 -129.201019 
L 351 -130.830911 
L 351 -132.460803 
L 351 -134.090694 
L 351 -135.720586 
L 351 -137.350478 
L 351 -138.98037 
L 351 -140.610261 
L 351 -142.240153 
L 351 -143.870045 
L 351 -145.499936 
L 351 -147.129828 
L 351 -148.75972 
L 351 -150.389611 
L 351 -152.019503 
L 351 -153.649395 
L 351 -155.279287 
L 351 -156.909178 
L 351 -158.53907 
L 351 -160.168962 
L 351 -161.798853 
L 351 -163.428745 
L 351 -165.058637 
L 351 -166.688528 
L 351 -168.31842 
L 351 -169.948312 
L 351 -171.578204 
L 351 -173.208095 
L 351 -174.837987 
L 351 -176.467879 
L 351 -178.09777 
L 351 -179.727662 
L 351 -181.357554 
L 351 -182.987445 
L 351 -184.617337 
L 351 -186.247229 
L 351 -187.877121 
L 351 -189.507012 
L 351 -191.136904 
L 351 -192.766796 
L 351 -194.396687 
L 351 -196.026579 
L 351 -197.656471 
L 351 -199.286362 
L 351 -200.916254 
L 351 -202.546146 
L 351 -204.176038 
L 351 -205.805929 
L 351 -207.435821 
L 351 -209.065713 
L 351 -210.695604 
L 351 -212.325496 
L 351 -213.955388 
L 351 -215.585279 
L 351 -217.215171 
L 351 -218.845063 
L 351 -220.474955 
L 351 -222.104846 
L 351 -223.734738 
L 351 -225.36463 
L 351 -226.994521 
L 351 -228.624413 
L 351 -230.254305 
L 351 -231.884196 
L 351 -233.514088 
L 351 -235.14398 
L 351 -236.773872 
L 351 -238.403763 
L 351 -240.033655 
L 351 -241.663547 
L 351 -243.293438 
L 351 -244.92333 
L 351 -246.553222 
L 351 -248.183113 
L 351 -249.813005 
L 351 -251.442897 
L 351 -253.072789 
L 351 -254.70268 
L 351 -256.332572 
L 351 -257.962464 
L 351 -259.592355 
L 351 -261.222247 
L 351 -262.852139 
L 351 -264.48203 
L 351 -266.111922 
L 351 -267.741814 
L 351 -269.371706 
L 351 -271.001597 
L 351 -272.631489 
L 351 -274.261381 
L 351 -275.891272 
L 351 -277.521164 
L 351 -279.151056 
L 351 -280.780947 
L 351 -282.410839 
L 353.848174 -282.410839 
L 353.848174 -282.410839 
L 354.188922 -280.780947 
L 354.559267 -279.151056 
L 354.960231 -277.521164 
L 355.392664 -275.891272 
L 355.857217 -274.261381 
L 356.35432 -272.631489 
L 356.88415 -271.001597 
L 357.446616 -269.371706 
L 358.041336 -267.741814 
L 358.66762 -266.111922 
L 359.324461 -264.48203 
L 360.010523 -262.852139 
L 360.724144 -261.222247 
L 361.463333 -259.592355 
L 362.225786 -257.962464 
L 363.008893 -256.332572 
L 363.809768 -254.70268 
L 364.625267 -253.072789 
L 365.452027 -251.442897 
L 366.286502 -249.813005 
L 367.125002 -248.183113 
L 367.963742 -246.553222 
L 368.798891 -244.92333 
L 369.626618 -243.293438 
L 370.44315 -241.663547 
L 371.244813 -240.033655 
L 372.028088 -238.403763 
L 372.789652 -236.773872 
L 373.52642 -235.14398 
L 374.235581 -233.514088 
L 374.914627 -231.884196 
L 375.561374 -230.254305 
L 376.173976 -228.624413 
L 376.750934 -226.994521 
L 377.29109 -225.36463 
L 377.793621 -223.734738 
L 378.258014 -222.104846 
L 378.684049 -220.474955 
L 379.071758 -218.845063 
L 379.421395 -217.215171 
L 379.73339 -215.585279 
L 380.008304 -213.955388 
L 380.246787 -212.325496 
L 380.449529 -210.695604 
L 380.617216 -209.065713 
L 380.75049 -207.435821 
L 380.849912 -205.805929 
L 380.915931 -204.176038 
L 380.94886 -202.546146 
L 380.94886 -200.916254 
L 380.915931 -199.286362 
L 380.849912 -197.656471 
L 380.75049 -196.026579 
L 380.617216 -194.396687 
L 380.449529 -192.766796 
L 380.246787 -191.136904 
L 380.008304 -189.507012 
L 379.73339 -187.877121 
L 379.421395 -186.247229 
L 379.071758 -184.617337 
L 378.684049 -182.987445 
L 378.258014 -181.357554 
L 377.793621 -179.727662 
L 377.29109 -178.09777 
L 376.750934 -176.467879 
L 376.173976 -174.837987 
L 375.561374 -173.208095 
L 374.914627 -171.578204 
L 374.235581 -169.948312 
L 373.52642 -168.31842 
L 372.789652 -166.688528 
L 372.028088 -165.058637 
L 371.244813 -163.428745 
L 370.44315 -161.798853 
L 369.626618 -160.168962 
L 368.798891 -158.53907 
L 367.963742 -156.909178 
L 367.125002 -155.279287 
L 366.286502 -153.649395 
L 365.452027 -152.019503 
L 364.625267 -150.389611 
L 363.809768 -148.75972 
L 363.008893 -147.129828 
L 362.225786 -145.499936 
L 361.463333 -143.870045 
L 360.724144 -142.240153 
L 360.010523 -140.610261 
L 359.324461 -138.98037 
L 358.66762 -137.350478 
L 358.041336 -135.720586 
L 357.446616 -134.090694 
L 356.88415 -132.460803 
L 356.35432 -130.830911 
L 355.857217 -129.201019 
L 355.392664 -127.571128 
L 354.960231 -125.941236 
L 354.559267 -124.311344 
L 354.188922 -122.681453 
L 353.848174 -121.051561 
z
" id="m515c6ee573" style="stroke:#545454;stroke-width:1.75;"/>
    </defs>
    <g clip-path="url(#p2faaf1ba2e)">
     <use style="fill:#76bf72;stroke:#545454;stroke-width:1.75;" x="0.0" xlink:href="#m515c6ee573" y="396.0"/>
    </g>
   </g>
   <g id="PolyCollection_6">
    <defs>
     <path d="M 462.6 -120.701216 
L 459.729252 -120.701216 
L 459.352313 -121.736941 
L 458.939994 -122.772666 
L 458.49114 -123.808391 
L 458.004881 -124.844116 
L 457.480679 -125.879841 
L 456.918367 -126.915566 
L 456.318188 -127.951291 
L 455.680827 -128.987016 
L 455.007439 -130.02274 
L 454.299663 -131.058465 
L 453.55963 -132.09419 
L 452.789963 -133.129915 
L 451.993757 -134.16564 
L 451.174554 -135.201365 
L 450.336301 -136.23709 
L 449.483293 -137.272815 
L 448.620109 -138.30854 
L 447.751529 -139.344265 
L 446.882444 -140.37999 
L 446.017755 -141.415715 
L 445.16227 -142.45144 
L 444.320585 -143.487165 
L 443.496977 -144.522889 
L 442.695289 -145.558614 
L 441.918823 -146.594339 
L 441.170245 -147.630064 
L 440.451492 -148.665789 
L 439.763707 -149.701514 
L 439.107183 -150.737239 
L 438.481335 -151.772964 
L 437.884686 -152.808689 
L 437.314892 -153.844414 
L 436.768778 -154.880139 
L 436.242414 -155.915864 
L 435.731209 -156.951589 
L 435.230028 -157.987313 
L 434.733342 -159.023038 
L 434.235382 -160.058763 
L 433.730322 -161.094488 
L 433.212467 -162.130213 
L 432.676444 -163.165938 
L 432.1174 -164.201663 
L 431.531193 -165.237388 
L 430.914568 -166.273113 
L 430.265322 -167.308838 
L 429.582447 -168.344563 
L 428.86624 -169.380288 
L 428.118389 -170.416013 
L 427.342022 -171.451738 
L 426.541719 -172.487462 
L 425.723483 -173.523187 
L 424.894677 -174.558912 
L 424.063919 -175.594637 
L 423.240943 -176.630362 
L 422.43642 -177.666087 
L 421.661764 -178.701812 
L 420.928894 -179.737537 
L 420.249995 -180.773262 
L 419.637257 -181.808987 
L 419.102609 -182.844712 
L 418.657459 -183.880437 
L 418.312438 -184.916162 
L 418.077159 -185.951887 
L 417.96 -186.987611 
L 417.967916 -188.023336 
L 418.106276 -189.059061 
L 418.378741 -190.094786 
L 418.787183 -191.130511 
L 419.331637 -192.166236 
L 420.010302 -193.201961 
L 420.819575 -194.237686 
L 421.754132 -195.273411 
L 422.80704 -196.309136 
L 423.969897 -197.344861 
L 425.23301 -198.380586 
L 426.585587 -199.416311 
L 428.015947 -200.452035 
L 429.511748 -201.48776 
L 431.060211 -202.523485 
L 432.648348 -203.55921 
L 434.263184 -204.594935 
L 435.891969 -205.63066 
L 437.522368 -206.666385 
L 439.142643 -207.70211 
L 440.741804 -208.737835 
L 442.309735 -209.77356 
L 443.837302 -210.809285 
L 445.316426 -211.84501 
L 446.740137 -212.880735 
L 448.102595 -213.91646 
L 449.399094 -214.952184 
L 450.62604 -215.987909 
L 451.780913 -217.023634 
L 452.862204 -218.059359 
L 453.86935 -219.095084 
L 454.802649 -220.130809 
L 455.663167 -221.166534 
L 456.452648 -222.202259 
L 457.173412 -223.237984 
L 462.6 -223.237984 
L 462.6 -223.237984 
L 462.6 -222.202259 
L 462.6 -221.166534 
L 462.6 -220.130809 
L 462.6 -219.095084 
L 462.6 -218.059359 
L 462.6 -217.023634 
L 462.6 -215.987909 
L 462.6 -214.952184 
L 462.6 -213.91646 
L 462.6 -212.880735 
L 462.6 -211.84501 
L 462.6 -210.809285 
L 462.6 -209.77356 
L 462.6 -208.737835 
L 462.6 -207.70211 
L 462.6 -206.666385 
L 462.6 -205.63066 
L 462.6 -204.594935 
L 462.6 -203.55921 
L 462.6 -202.523485 
L 462.6 -201.48776 
L 462.6 -200.452035 
L 462.6 -199.416311 
L 462.6 -198.380586 
L 462.6 -197.344861 
L 462.6 -196.309136 
L 462.6 -195.273411 
L 462.6 -194.237686 
L 462.6 -193.201961 
L 462.6 -192.166236 
L 462.6 -191.130511 
L 462.6 -190.094786 
L 462.6 -189.059061 
L 462.6 -188.023336 
L 462.6 -186.987611 
L 462.6 -185.951887 
L 462.6 -184.916162 
L 462.6 -183.880437 
L 462.6 -182.844712 
L 462.6 -181.808987 
L 462.6 -180.773262 
L 462.6 -179.737537 
L 462.6 -178.701812 
L 462.6 -177.666087 
L 462.6 -176.630362 
L 462.6 -175.594637 
L 462.6 -174.558912 
L 462.6 -173.523187 
L 462.6 -172.487462 
L 462.6 -171.451738 
L 462.6 -170.416013 
L 462.6 -169.380288 
L 462.6 -168.344563 
L 462.6 -167.308838 
L 462.6 -166.273113 
L 462.6 -165.237388 
L 462.6 -164.201663 
L 462.6 -163.165938 
L 462.6 -162.130213 
L 462.6 -161.094488 
L 462.6 -160.058763 
L 462.6 -159.023038 
L 462.6 -157.987313 
L 462.6 -156.951589 
L 462.6 -155.915864 
L 462.6 -154.880139 
L 462.6 -153.844414 
L 462.6 -152.808689 
L 462.6 -151.772964 
L 462.6 -150.737239 
L 462.6 -149.701514 
L 462.6 -148.665789 
L 462.6 -147.630064 
L 462.6 -146.594339 
L 462.6 -145.558614 
L 462.6 -144.522889 
L 462.6 -143.487165 
L 462.6 -142.45144 
L 462.6 -141.415715 
L 462.6 -140.37999 
L 462.6 -139.344265 
L 462.6 -138.30854 
L 462.6 -137.272815 
L 462.6 -136.23709 
L 462.6 -135.201365 
L 462.6 -134.16564 
L 462.6 -133.129915 
L 462.6 -132.09419 
L 462.6 -131.058465 
L 462.6 -130.02274 
L 462.6 -128.987016 
L 462.6 -127.951291 
L 462.6 -126.915566 
L 462.6 -125.879841 
L 462.6 -124.844116 
L 462.6 -123.808391 
L 462.6 -122.772666 
L 462.6 -121.736941 
L 462.6 -120.701216 
z
" id="md7bc1dbce8" style="stroke:#545454;stroke-width:1.75;"/>
    </defs>
    <g clip-path="url(#p2faaf1ba2e)">
     <use style="fill:#597dbe;stroke:#545454;stroke-width:1.75;" x="0.0" xlink:href="#md7bc1dbce8" y="396.0"/>
    </g>
   </g>
   <g id="PolyCollection_7">
    <defs>
     <path d="M 463.438863 -81.663471 
L 462.6 -81.663471 
L 462.6 -83.868637 
L 462.6 -86.073803 
L 462.6 -88.27897 
L 462.6 -90.484136 
L 462.6 -92.689302 
L 462.6 -94.894468 
L 462.6 -97.099635 
L 462.6 -99.304801 
L 462.6 -101.509967 
L 462.6 -103.715133 
L 462.6 -105.9203 
L 462.6 -108.125466 
L 462.6 -110.330632 
L 462.6 -112.535798 
L 462.6 -114.740965 
L 462.6 -116.946131 
L 462.6 -119.151297 
L 462.6 -121.356463 
L 462.6 -123.56163 
L 462.6 -125.766796 
L 462.6 -127.971962 
L 462.6 -130.177128 
L 462.6 -132.382295 
L 462.6 -134.587461 
L 462.6 -136.792627 
L 462.6 -138.997793 
L 462.6 -141.202959 
L 462.6 -143.408126 
L 462.6 -145.613292 
L 462.6 -147.818458 
L 462.6 -150.023624 
L 462.6 -152.228791 
L 462.6 -154.433957 
L 462.6 -156.639123 
L 462.6 -158.844289 
L 462.6 -161.049456 
L 462.6 -163.254622 
L 462.6 -165.459788 
L 462.6 -167.664954 
L 462.6 -169.870121 
L 462.6 -172.075287 
L 462.6 -174.280453 
L 462.6 -176.485619 
L 462.6 -178.690786 
L 462.6 -180.895952 
L 462.6 -183.101118 
L 462.6 -185.306284 
L 462.6 -187.511451 
L 462.6 -189.716617 
L 462.6 -191.921783 
L 462.6 -194.126949 
L 462.6 -196.332116 
L 462.6 -198.537282 
L 462.6 -200.742448 
L 462.6 -202.947614 
L 462.6 -205.152781 
L 462.6 -207.357947 
L 462.6 -209.563113 
L 462.6 -211.768279 
L 462.6 -213.973446 
L 462.6 -216.178612 
L 462.6 -218.383778 
L 462.6 -220.588944 
L 462.6 -222.794111 
L 462.6 -224.999277 
L 462.6 -227.204443 
L 462.6 -229.409609 
L 462.6 -231.614776 
L 462.6 -233.819942 
L 462.6 -236.025108 
L 462.6 -238.230274 
L 462.6 -240.435441 
L 462.6 -242.640607 
L 462.6 -244.845773 
L 462.6 -247.050939 
L 462.6 -249.256105 
L 462.6 -251.461272 
L 462.6 -253.666438 
L 462.6 -255.871604 
L 462.6 -258.07677 
L 462.6 -260.281937 
L 462.6 -262.487103 
L 462.6 -264.692269 
L 462.6 -266.897435 
L 462.6 -269.102602 
L 462.6 -271.307768 
L 462.6 -273.512934 
L 462.6 -275.7181 
L 462.6 -277.923267 
L 462.6 -280.128433 
L 462.6 -282.333599 
L 462.6 -284.538765 
L 462.6 -286.743932 
L 462.6 -288.949098 
L 462.6 -291.154264 
L 462.6 -293.35943 
L 462.6 -295.564597 
L 462.6 -297.769763 
L 462.6 -299.974929 
L 463.261032 -299.974929 
L 463.261032 -299.974929 
L 463.391298 -297.769763 
L 463.539834 -295.564597 
L 463.707601 -293.35943 
L 463.8953 -291.154264 
L 464.103312 -288.949098 
L 464.331667 -286.743932 
L 464.580003 -284.538765 
L 464.847564 -282.333599 
L 465.1332 -280.128433 
L 465.435396 -277.923267 
L 465.752327 -275.7181 
L 466.081928 -273.512934 
L 466.421986 -271.307768 
L 466.77025 -269.102602 
L 467.124545 -266.897435 
L 467.482895 -264.692269 
L 467.843632 -262.487103 
L 468.205503 -260.281937 
L 468.567744 -258.07677 
L 468.93013 -255.871604 
L 469.292991 -253.666438 
L 469.657196 -251.461272 
L 470.024085 -249.256105 
L 470.395384 -247.050939 
L 470.773082 -244.845773 
L 471.159284 -242.640607 
L 471.556061 -240.435441 
L 471.965296 -238.230274 
L 472.388545 -236.025108 
L 472.826921 -233.819942 
L 473.28101 -231.614776 
L 473.75083 -229.409609 
L 474.235831 -227.204443 
L 474.734942 -224.999277 
L 475.246657 -222.794111 
L 475.769146 -220.588944 
L 476.3004 -218.383778 
L 476.838374 -216.178612 
L 477.381126 -213.973446 
L 477.926942 -211.768279 
L 478.474418 -209.563113 
L 479.022514 -207.357947 
L 479.570544 -205.152781 
L 480.118127 -202.947614 
L 480.665079 -200.742448 
L 481.211273 -198.537282 
L 481.756457 -196.332116 
L 482.300053 -194.126949 
L 482.840966 -191.921783 
L 483.377385 -189.716617 
L 483.906634 -187.511451 
L 484.425053 -185.306284 
L 484.927941 -183.101118 
L 485.40956 -180.895952 
L 485.863208 -178.690786 
L 486.281356 -176.485619 
L 486.655852 -174.280453 
L 486.978167 -172.075287 
L 487.239691 -169.870121 
L 487.432047 -167.664954 
L 487.547409 -165.459788 
L 487.57882 -163.254622 
L 487.520475 -161.049456 
L 487.367967 -158.844289 
L 487.118486 -156.639123 
L 486.770947 -154.433957 
L 486.326065 -152.228791 
L 485.786357 -150.023624 
L 485.156081 -147.818458 
L 484.441117 -145.613292 
L 483.648795 -143.408126 
L 482.78769 -141.202959 
L 481.867376 -138.997793 
L 480.898168 -136.792627 
L 479.890858 -134.587461 
L 478.856446 -132.382295 
L 477.805891 -130.177128 
L 476.749876 -127.971962 
L 475.6986 -125.766796 
L 474.661597 -123.56163 
L 473.647592 -121.356463 
L 472.66438 -119.151297 
L 471.718749 -116.946131 
L 470.816424 -114.740965 
L 469.962048 -112.535798 
L 469.159185 -110.330632 
L 468.410348 -108.125466 
L 467.717049 -105.9203 
L 467.079868 -103.715133 
L 466.498531 -101.509967 
L 465.972003 -99.304801 
L 465.498589 -97.099635 
L 465.076039 -94.894468 
L 464.70165 -92.689302 
L 464.372377 -90.484136 
L 464.084927 -88.27897 
L 463.83586 -86.073803 
L 463.621669 -83.868637 
L 463.438863 -81.663471 
z
" id="mcd9d031899" style="stroke:#545454;stroke-width:1.75;"/>
    </defs>
    <g clip-path="url(#p2faaf1ba2e)">
     <use style="fill:#76bf72;stroke:#545454;stroke-width:1.75;" x="0.0" xlink:href="#mcd9d031899" y="396.0"/>
    </g>
   </g>
   <g id="patch_3">
    <path clip-path="url(#p2faaf1ba2e)" d="M 127.8 286 
L 127.8 286 
L 127.8 286 
L 127.8 286 
z
" style="fill:#597dbe;stroke:#545454;stroke-linejoin:miter;stroke-width:0.875;"/>
   </g>
   <g id="patch_4">
    <path clip-path="url(#p2faaf1ba2e)" d="M 127.8 286 
L 127.8 286 
L 127.8 286 
L 127.8 286 
z
" style="fill:#76bf72;stroke:#545454;stroke-linejoin:miter;stroke-width:0.875;"/>
   </g>
   <g id="line2d_39">
    <path clip-path="url(#p2faaf1ba2e)" d="M 239.4 252.384 
L 239.4 191.4528 
" style="fill:none;stroke:#545454;stroke-linecap:round;stroke-width:1.75;"/>
   </g>
   <g id="line2d_40">
    <path clip-path="url(#p2faaf1ba2e)" d="M 239.4 232.364 
L 239.4 212.564 
" style="fill:none;stroke:#545454;stroke-linecap:round;stroke-width:5.25;"/>
   </g>
   <g id="line2d_41">
    <path clip-path="url(#p2faaf1ba2e)" d="M 351 250.5536 
L 351 163.3984 
" style="fill:none;stroke:#545454;stroke-linecap:round;stroke-width:1.75;"/>
   </g>
   <g id="line2d_42">
    <path clip-path="url(#p2faaf1ba2e)" d="M 351 227.3568 
L 351 199.0208 
" style="fill:none;stroke:#545454;stroke-linecap:round;stroke-width:5.25;"/>
   </g>
   <g id="line2d_43">
    <path clip-path="url(#p2faaf1ba2e)" d="M 462.6 265.76 
L 462.6 144.6016 
" style="fill:none;stroke:#545454;stroke-linecap:round;stroke-width:1.75;"/>
   </g>
   <g id="line2d_44">
    <path clip-path="url(#p2faaf1ba2e)" d="M 462.6 242.5192 
L 462.6 201.9336 
" style="fill:none;stroke:#545454;stroke-linecap:round;stroke-width:5.25;"/>
   </g>
   <g id="patch_5">
    <path d="M 72 39.6 
L 518.4 39.6 
" style="fill:none;"/>
   </g>
   <g id="patch_6">
    <path d="M 518.4 356.4 
L 518.4 39.6 
" style="fill:none;"/>
   </g>
   <g id="patch_7">
    <path d="M 72 356.4 
L 518.4 356.4 
" style="fill:none;"/>
   </g>
   <g id="patch_8">
    <path d="M 72 356.4 
L 72 39.6 
" style="fill:none;"/>
   </g>
   <g id="PathCollection_1">
    <defs>
     <path d="M 0 1.75 
C 0.464105 1.75 0.909265 1.565609 1.237437 1.237437 
C 1.565609 0.909265 1.75 0.464105 1.75 0 
C 1.75 -0.464105 1.565609 -0.909265 1.237437 -1.237437 
C 0.909265 -1.565609 0.464105 -1.75 0 -1.75 
C -0.464105 -1.75 -0.909265 -1.565609 -1.237437 -1.237437 
C -1.565609 -0.909265 -1.75 -0.464105 -1.75 0 
C -1.75 0.464105 -1.565609 0.909265 -1.237437 1.237437 
C -0.909265 1.565609 -0.464105 1.75 0 1.75 
z
" id="mac93753313" style="stroke:#545454;stroke-width:0.3;"/>
    </defs>
    <g clip-path="url(#p2faaf1ba2e)">
     <use style="fill:#ffffff;stroke:#545454;stroke-width:0.3;" x="239.4" xlink:href="#mac93753313" y="222.2704"/>
    </g>
   </g>
   <g id="PathCollection_2">
    <g clip-path="url(#p2faaf1ba2e)">
     <use style="fill:#ffffff;stroke:#545454;stroke-width:0.3;" x="351.0" xlink:href="#mac93753313" y="217.5712"/>
    </g>
   </g>
   <g id="PathCollection_3">
    <g clip-path="url(#p2faaf1ba2e)">
     <use style="fill:#ffffff;stroke:#545454;stroke-width:0.3;" x="462.6" xlink:href="#mac93753313" y="220.2992"/>
    </g>
   </g>
   <g id="text_17">
    <!-- violin plot -->
    <defs>
     <path d="M 21 0 
L 1.265625 51.859375 
L 10.546875 51.859375 
L 21.6875 20.796875 
Q 23.484375 15.765625 25 10.359375 
Q 26.171875 14.453125 28.265625 20.21875 
L 39.796875 51.859375 
L 48.828125 51.859375 
L 29.203125 0 
z
" id="ArialMT-76"/>
     <path d="M 6.59375 -19.875 
L 6.59375 51.859375 
L 14.59375 51.859375 
L 14.59375 45.125 
Q 17.4375 49.078125 21 51.046875 
Q 24.5625 53.03125 29.640625 53.03125 
Q 36.28125 53.03125 41.359375 49.609375 
Q 46.4375 46.1875 49.015625 39.953125 
Q 51.609375 33.734375 51.609375 26.3125 
Q 51.609375 18.359375 48.75 11.984375 
Q 45.90625 5.609375 40.453125 2.21875 
Q 35.015625 -1.171875 29 -1.171875 
Q 24.609375 -1.171875 21.109375 0.6875 
Q 17.625 2.546875 15.375 5.375 
L 15.375 -19.875 
z
M 14.546875 25.640625 
Q 14.546875 15.625 18.59375 10.84375 
Q 22.65625 6.0625 28.421875 6.0625 
Q 34.28125 6.0625 38.453125 11.015625 
Q 42.625 15.96875 42.625 26.375 
Q 42.625 36.28125 38.546875 41.203125 
Q 34.46875 46.140625 28.8125 46.140625 
Q 23.1875 46.140625 18.859375 40.890625 
Q 14.546875 35.640625 14.546875 25.640625 
" id="ArialMT-70"/>
     <path id="ArialMT-20"/>
    </defs>
    <g style="fill:#262626;" transform="translate(270.1875 34.6)scale(0.12 -0.12)">
     <use xlink:href="#ArialMT-76"/>
     <use x="50.0" xlink:href="#ArialMT-69"/>
     <use x="72.216796875" xlink:href="#ArialMT-6f"/>
     <use x="127.83203125" xlink:href="#ArialMT-6c"/>
     <use x="150.048828125" xlink:href="#ArialMT-69"/>
     <use x="172.265625" xlink:href="#ArialMT-6e"/>
     <use x="227.880859375" xlink:href="#ArialMT-20"/>
     <use x="255.6640625" xlink:href="#ArialMT-70"/>
     <use x="311.279296875" xlink:href="#ArialMT-6c"/>
     <use x="333.49609375" xlink:href="#ArialMT-6f"/>
     <use x="389.111328125" xlink:href="#ArialMT-74"/>
    </g>
   </g>
   <g id="legend_1">
    <g id="text_18">
     <!-- smoker -->
     <defs>
      <path d="M 6.640625 0 
L 6.640625 71.578125 
L 15.4375 71.578125 
L 15.4375 30.765625 
L 36.234375 51.859375 
L 47.609375 51.859375 
L 27.78125 32.625 
L 49.609375 0 
L 38.765625 0 
L 21.625 26.515625 
L 15.4375 20.5625 
L 15.4375 0 
z
" id="ArialMT-6b"/>
      <path d="M 6.59375 0 
L 6.59375 51.859375 
L 14.453125 51.859375 
L 14.453125 44.578125 
Q 16.890625 48.390625 20.9375 50.703125 
Q 25 53.03125 30.171875 53.03125 
Q 35.9375 53.03125 39.625 50.640625 
Q 43.3125 48.25 44.828125 43.953125 
Q 50.984375 53.03125 60.84375 53.03125 
Q 68.5625 53.03125 72.703125 48.75 
Q 76.859375 44.484375 76.859375 35.59375 
L 76.859375 0 
L 68.109375 0 
L 68.109375 32.671875 
Q 68.109375 37.9375 67.25 40.25 
Q 66.40625 42.578125 64.15625 43.984375 
Q 61.921875 45.40625 58.890625 45.40625 
Q 53.421875 45.40625 49.796875 41.765625 
Q 46.1875 38.140625 46.1875 30.125 
L 46.1875 0 
L 37.40625 0 
L 37.40625 33.6875 
Q 37.40625 39.546875 35.25 42.46875 
Q 33.109375 45.40625 28.21875 45.40625 
Q 24.515625 45.40625 21.359375 43.453125 
Q 18.21875 41.5 16.796875 37.734375 
Q 15.375 33.984375 15.375 26.90625 
L 15.375 0 
z
" id="ArialMT-6d"/>
      <path d="M 42.09375 16.703125 
L 51.171875 15.578125 
Q 49.03125 7.625 43.21875 3.21875 
Q 37.40625 -1.171875 28.375 -1.171875 
Q 17 -1.171875 10.328125 5.828125 
Q 3.65625 12.84375 3.65625 25.484375 
Q 3.65625 38.578125 10.390625 45.796875 
Q 17.140625 53.03125 27.875 53.03125 
Q 38.28125 53.03125 44.875 45.953125 
Q 51.46875 38.875 51.46875 26.03125 
Q 51.46875 25.25 51.421875 23.6875 
L 12.75 23.6875 
Q 13.234375 15.140625 17.578125 10.59375 
Q 21.921875 6.0625 28.421875 6.0625 
Q 33.25 6.0625 36.671875 8.59375 
Q 40.09375 11.140625 42.09375 16.703125 
M 13.234375 30.90625 
L 42.1875 30.90625 
Q 41.609375 37.453125 38.875 40.71875 
Q 34.671875 45.796875 27.984375 45.796875 
Q 21.921875 45.796875 17.796875 41.75 
Q 13.671875 37.703125 13.234375 30.90625 
" id="ArialMT-65"/>
      <path d="M 3.078125 15.484375 
L 11.765625 16.84375 
Q 12.5 11.625 15.84375 8.84375 
Q 19.1875 6.0625 25.203125 6.0625 
Q 31.25 6.0625 34.171875 8.515625 
Q 37.109375 10.984375 37.109375 14.3125 
Q 37.109375 17.28125 34.515625 19 
Q 32.71875 20.171875 25.53125 21.96875 
Q 15.875 24.421875 12.140625 26.203125 
Q 8.40625 27.984375 6.46875 31.125 
Q 4.546875 34.28125 4.546875 38.09375 
Q 4.546875 41.546875 6.125 44.5 
Q 7.71875 47.46875 10.453125 49.421875 
Q 12.5 50.921875 16.03125 51.96875 
Q 19.578125 53.03125 23.640625 53.03125 
Q 29.734375 53.03125 34.34375 51.265625 
Q 38.96875 49.515625 41.15625 46.5 
Q 43.359375 43.5 44.1875 38.484375 
L 35.59375 37.3125 
Q 35.015625 41.3125 32.203125 43.546875 
Q 29.390625 45.796875 24.265625 45.796875 
Q 18.21875 45.796875 15.625 43.796875 
Q 13.03125 41.796875 13.03125 39.109375 
Q 13.03125 37.40625 14.109375 36.03125 
Q 15.1875 34.625 17.484375 33.6875 
Q 18.796875 33.203125 25.25 31.453125 
Q 34.578125 28.953125 38.25 27.359375 
Q 41.9375 25.78125 44.03125 22.75 
Q 46.140625 19.734375 46.140625 15.234375 
Q 46.140625 10.84375 43.578125 6.953125 
Q 41.015625 3.078125 36.171875 0.953125 
Q 31.34375 -1.171875 25.25 -1.171875 
Q 15.140625 -1.171875 9.84375 3.03125 
Q 4.546875 7.234375 3.078125 15.484375 
" id="ArialMT-73"/>
     </defs>
     <g style="fill:#262626;" transform="translate(471.466171875 55.2925546875)scale(0.0935 -0.0935)">
      <use xlink:href="#ArialMT-73"/>
      <use x="50.0" xlink:href="#ArialMT-6d"/>
      <use x="133.30078125" xlink:href="#ArialMT-6f"/>
      <use x="188.916015625" xlink:href="#ArialMT-6b"/>
      <use x="238.916015625" xlink:href="#ArialMT-65"/>
      <use x="294.53125" xlink:href="#ArialMT-72"/>
     </g>
    </g>
    <g id="patch_9">
     <path d="M 464.182812 69.30868 
L 484.182812 69.30868 
L 484.182812 62.30868 
L 464.182812 62.30868 
z
" style="fill:#597dbe;stroke:#545454;stroke-linejoin:miter;stroke-width:0.875;"/>
    </g>
    <g id="text_19">
     <!-- No -->
     <defs>
      <path d="M 7.625 0 
L 7.625 71.578125 
L 17.328125 71.578125 
L 54.9375 15.375 
L 54.9375 71.578125 
L 64.015625 71.578125 
L 64.015625 0 
L 54.296875 0 
L 16.703125 56.25 
L 16.703125 0 
z
" id="ArialMT-4e"/>
     </defs>
     <g style="fill:#262626;" transform="translate(492.1828125 69.3086796875)scale(0.1 -0.1)">
      <use xlink:href="#ArialMT-4e"/>
      <use x="72.216796875" xlink:href="#ArialMT-6f"/>
     </g>
    </g>
    <g id="patch_10">
     <path d="M 464.182812 83.453992 
L 484.182812 83.453992 
L 484.182812 76.453992 
L 464.182812 76.453992 
z
" style="fill:#76bf72;stroke:#545454;stroke-linejoin:miter;stroke-width:0.875;"/>
    </g>
    <g id="text_20">
     <!-- Yes -->
     <defs>
      <path d="M 27.875 0 
L 27.875 30.328125 
L 0.296875 71.578125 
L 11.8125 71.578125 
L 25.921875 50 
Q 29.828125 43.953125 33.203125 37.890625 
Q 36.421875 43.5 41.015625 50.53125 
L 54.890625 71.578125 
L 65.921875 71.578125 
L 37.359375 30.328125 
L 37.359375 0 
z
" id="ArialMT-59"/>
     </defs>
     <g style="fill:#262626;" transform="translate(492.1828125 83.4539921875)scale(0.1 -0.1)">
      <use xlink:href="#ArialMT-59"/>
      <use x="66.55859375" xlink:href="#ArialMT-65"/>
      <use x="122.173828125" xlink:href="#ArialMT-73"/>
     </g>
    </g>
   </g>
  </g>
 </g>
 <defs>
  <clipPath id="p2faaf1ba2e">
   <rect height="316.8" width="446.4" x="72.0" y="39.6"/>
  </clipPath>
 </defs>
</svg>
