<?xml version="1.0" encoding="utf-8" standalone="no"?>
<!DOCTYPE svg PUBLIC "-//W3C//DTD SVG 1.1//EN"
  "http://www.w3.org/Graphics/SVG/1.1/DTD/svg11.dtd">
<!-- Created with matplotlib (http://matplotlib.org/) -->
<svg height="396pt" version="1.1" viewBox="0 0 576 396" width="576pt" xmlns="http://www.w3.org/2000/svg" xmlns:xlink="http://www.w3.org/1999/xlink">
 <defs>
  <style type="text/css">
*{stroke-linecap:butt;stroke-linejoin:round;stroke-miterlimit:100000;}
  </style>
 </defs>
 <g id="figure_1">
  <g id="patch_1">
   <path d="M 0 396 
L 576 396 
L 576 0 
L 0 0 
z
" style="fill:#ffffff;"/>
  </g>
  <g id="axes_1">
   <g id="patch_2">
    <path d="M 72 356.4 
L 518.4 356.4 
L 518.4 39.6 
L 72 39.6 
z
" style="fill:#eaeaf2;"/>
   </g>
   <g id="matplotlib.axis_1">
    <g id="xtick_1">
     <g id="line2d_1"/>
     <g id="line2d_2"/>
     <g id="text_1">
      <!-- Sun -->
      <defs>
       <path d="M 4.5 23 
L 13.421875 23.78125 
Q 14.0625 18.40625 16.375 14.96875 
Q 18.703125 11.53125 23.578125 9.40625 
Q 28.46875 7.28125 34.578125 7.28125 
Q 39.984375 7.28125 44.140625 8.890625 
Q 48.296875 10.5 50.3125 13.296875 
Q 52.34375 16.109375 52.34375 19.4375 
Q 52.34375 22.796875 50.390625 25.3125 
Q 48.4375 27.828125 43.953125 29.546875 
Q 41.0625 30.671875 31.203125 33.03125 
Q 21.34375 35.40625 17.390625 37.5 
Q 12.25 40.1875 9.734375 44.15625 
Q 7.234375 48.140625 7.234375 53.078125 
Q 7.234375 58.5 10.296875 63.203125 
Q 13.375 67.921875 19.28125 70.359375 
Q 25.203125 72.796875 32.421875 72.796875 
Q 40.375 72.796875 46.453125 70.234375 
Q 52.546875 67.671875 55.8125 62.6875 
Q 59.078125 57.71875 59.328125 51.421875 
L 50.25 50.734375 
Q 49.515625 57.515625 45.28125 60.984375 
Q 41.0625 64.453125 32.8125 64.453125 
Q 24.21875 64.453125 20.28125 61.296875 
Q 16.359375 58.15625 16.359375 53.71875 
Q 16.359375 49.859375 19.140625 47.359375 
Q 21.875 44.875 33.421875 42.265625 
Q 44.96875 39.65625 49.265625 37.703125 
Q 55.515625 34.8125 58.484375 30.390625 
Q 61.46875 25.984375 61.46875 20.21875 
Q 61.46875 14.5 58.203125 9.4375 
Q 54.9375 4.390625 48.796875 1.578125 
Q 42.671875 -1.21875 35.015625 -1.21875 
Q 25.296875 -1.21875 18.71875 1.609375 
Q 12.15625 4.4375 8.421875 10.125 
Q 4.6875 15.828125 4.5 23 
" id="ArialMT-53"/>
       <path d="M 6.59375 0 
L 6.59375 51.859375 
L 14.5 51.859375 
L 14.5 44.484375 
Q 20.21875 53.03125 31 53.03125 
Q 35.6875 53.03125 39.625 51.34375 
Q 43.5625 49.65625 45.515625 46.921875 
Q 47.46875 44.1875 48.25 40.4375 
Q 48.734375 37.984375 48.734375 31.890625 
L 48.734375 0 
L 39.9375 0 
L 39.9375 31.546875 
Q 39.9375 36.921875 38.90625 39.578125 
Q 37.890625 42.234375 35.28125 43.8125 
Q 32.671875 45.40625 29.15625 45.40625 
Q 23.53125 45.40625 19.453125 41.84375 
Q 15.375 38.28125 15.375 28.328125 
L 15.375 0 
z
" id="ArialMT-6e"/>
       <path d="M 40.578125 0 
L 40.578125 7.625 
Q 34.515625 -1.171875 24.125 -1.171875 
Q 19.53125 -1.171875 15.546875 0.578125 
Q 11.578125 2.34375 9.640625 5 
Q 7.71875 7.671875 6.9375 11.53125 
Q 6.390625 14.109375 6.390625 19.734375 
L 6.390625 51.859375 
L 15.1875 51.859375 
L 15.1875 23.09375 
Q 15.1875 16.21875 15.71875 13.8125 
Q 16.546875 10.359375 19.234375 8.375 
Q 21.921875 6.390625 25.875 6.390625 
Q 29.828125 6.390625 33.296875 8.421875 
Q 36.765625 10.453125 38.203125 13.9375 
Q 39.65625 17.4375 39.65625 24.078125 
L 39.65625 51.859375 
L 48.4375 51.859375 
L 48.4375 0 
z
" id="ArialMT-75"/>
      </defs>
      <g style="fill:#262626;" transform="translate(118.90390625 370.5578125)scale(0.1 -0.1)">
       <use xlink:href="#ArialMT-53"/>
       <use x="66.69921875" xlink:href="#ArialMT-75"/>
       <use x="122.314453125" xlink:href="#ArialMT-6e"/>
      </g>
     </g>
    </g>
    <g id="xtick_2">
     <g id="line2d_3"/>
     <g id="line2d_4"/>
     <g id="text_2">
      <!-- Sat -->
      <defs>
       <path d="M 25.78125 7.859375 
L 27.046875 0.09375 
Q 23.34375 -0.6875 20.40625 -0.6875 
Q 15.625 -0.6875 12.984375 0.828125 
Q 10.359375 2.34375 9.28125 4.8125 
Q 8.203125 7.28125 8.203125 15.1875 
L 8.203125 45.015625 
L 1.765625 45.015625 
L 1.765625 51.859375 
L 8.203125 51.859375 
L 8.203125 64.703125 
L 16.9375 69.96875 
L 16.9375 51.859375 
L 25.78125 51.859375 
L 25.78125 45.015625 
L 16.9375 45.015625 
L 16.9375 14.703125 
Q 16.9375 10.9375 17.40625 9.859375 
Q 17.875 8.796875 18.921875 8.15625 
Q 19.96875 7.515625 21.921875 7.515625 
Q 23.390625 7.515625 25.78125 7.859375 
" id="ArialMT-74"/>
       <path d="M 40.4375 6.390625 
Q 35.546875 2.25 31.03125 0.53125 
Q 26.515625 -1.171875 21.34375 -1.171875 
Q 12.796875 -1.171875 8.203125 3 
Q 3.609375 7.171875 3.609375 13.671875 
Q 3.609375 17.484375 5.34375 20.625 
Q 7.078125 23.78125 9.890625 25.6875 
Q 12.703125 27.59375 16.21875 28.5625 
Q 18.796875 29.25 24.03125 29.890625 
Q 34.671875 31.15625 39.703125 32.90625 
Q 39.75 34.71875 39.75 35.203125 
Q 39.75 40.578125 37.25 42.78125 
Q 33.890625 45.75 27.25 45.75 
Q 21.046875 45.75 18.09375 43.578125 
Q 15.140625 41.40625 13.71875 35.890625 
L 5.125 37.0625 
Q 6.296875 42.578125 8.984375 45.96875 
Q 11.671875 49.359375 16.75 51.1875 
Q 21.828125 53.03125 28.515625 53.03125 
Q 35.15625 53.03125 39.296875 51.46875 
Q 43.453125 49.90625 45.40625 47.53125 
Q 47.359375 45.171875 48.140625 41.546875 
Q 48.578125 39.3125 48.578125 33.453125 
L 48.578125 21.734375 
Q 48.578125 9.46875 49.140625 6.21875 
Q 49.703125 2.984375 51.375 0 
L 42.1875 0 
Q 40.828125 2.734375 40.4375 6.390625 
M 39.703125 26.03125 
Q 34.90625 24.078125 25.34375 22.703125 
Q 19.921875 21.921875 17.671875 20.9375 
Q 15.4375 19.96875 14.203125 18.09375 
Q 12.984375 16.21875 12.984375 13.921875 
Q 12.984375 10.40625 15.640625 8.0625 
Q 18.3125 5.71875 23.4375 5.71875 
Q 28.515625 5.71875 32.46875 7.9375 
Q 36.421875 10.15625 38.28125 14.015625 
Q 39.703125 17 39.703125 22.796875 
z
" id="ArialMT-61"/>
      </defs>
      <g style="fill:#262626;" transform="translate(231.8953125 370.5578125)scale(0.1 -0.1)">
       <use xlink:href="#ArialMT-53"/>
       <use x="66.69921875" xlink:href="#ArialMT-61"/>
       <use x="122.314453125" xlink:href="#ArialMT-74"/>
      </g>
     </g>
    </g>
    <g id="xtick_3">
     <g id="line2d_5"/>
     <g id="line2d_6"/>
     <g id="text_3">
      <!-- Thur -->
      <defs>
       <path d="M 6.59375 0 
L 6.59375 71.578125 
L 15.375 71.578125 
L 15.375 45.90625 
Q 21.53125 53.03125 30.90625 53.03125 
Q 36.671875 53.03125 40.921875 50.75 
Q 45.171875 48.484375 47 44.484375 
Q 48.828125 40.484375 48.828125 32.859375 
L 48.828125 0 
L 40.046875 0 
L 40.046875 32.859375 
Q 40.046875 39.453125 37.1875 42.453125 
Q 34.328125 45.453125 29.109375 45.453125 
Q 25.203125 45.453125 21.75 43.421875 
Q 18.3125 41.40625 16.84375 37.9375 
Q 15.375 34.46875 15.375 28.375 
L 15.375 0 
z
" id="ArialMT-68"/>
       <path d="M 6.5 0 
L 6.5 51.859375 
L 14.40625 51.859375 
L 14.40625 44 
Q 17.4375 49.515625 20 51.265625 
Q 22.5625 53.03125 25.640625 53.03125 
Q 30.078125 53.03125 34.671875 50.203125 
L 31.640625 42.046875 
Q 28.421875 43.953125 25.203125 43.953125 
Q 22.3125 43.953125 20.015625 42.21875 
Q 17.71875 40.484375 16.75 37.40625 
Q 15.28125 32.71875 15.28125 27.15625 
L 15.28125 0 
z
" id="ArialMT-72"/>
       <path d="M 25.921875 0 
L 25.921875 63.140625 
L 2.34375 63.140625 
L 2.34375 71.578125 
L 59.078125 71.578125 
L 59.078125 63.140625 
L 35.40625 63.140625 
L 35.40625 0 
z
" id="ArialMT-54"/>
      </defs>
      <g style="fill:#262626;" transform="translate(340.7203125 370.5578125)scale(0.1 -0.1)">
       <use xlink:href="#ArialMT-54"/>
       <use x="61.083984375" xlink:href="#ArialMT-68"/>
       <use x="116.69921875" xlink:href="#ArialMT-75"/>
       <use x="172.314453125" xlink:href="#ArialMT-72"/>
      </g>
     </g>
    </g>
    <g id="xtick_4">
     <g id="line2d_7"/>
     <g id="line2d_8"/>
     <g id="text_4">
      <!-- Fri -->
      <defs>
       <path d="M 6.640625 61.46875 
L 6.640625 71.578125 
L 15.4375 71.578125 
L 15.4375 61.46875 
z
M 6.640625 0 
L 6.640625 51.859375 
L 15.4375 51.859375 
L 15.4375 0 
z
" id="ArialMT-69"/>
       <path d="M 8.203125 0 
L 8.203125 71.578125 
L 56.5 71.578125 
L 56.5 63.140625 
L 17.671875 63.140625 
L 17.671875 40.96875 
L 51.265625 40.96875 
L 51.265625 32.515625 
L 17.671875 32.515625 
L 17.671875 0 
z
" id="ArialMT-46"/>
      </defs>
      <g style="fill:#262626;" transform="translate(456.7703125 370.5578125)scale(0.1 -0.1)">
       <use xlink:href="#ArialMT-46"/>
       <use x="61.083984375" xlink:href="#ArialMT-72"/>
       <use x="94.384765625" xlink:href="#ArialMT-69"/>
      </g>
     </g>
    </g>
    <g id="text_5">
     <!-- day -->
     <defs>
      <path d="M 6.203125 -19.96875 
L 5.21875 -11.71875 
Q 8.109375 -12.5 10.25 -12.5 
Q 13.1875 -12.5 14.9375 -11.515625 
Q 16.703125 -10.546875 17.828125 -8.796875 
Q 18.65625 -7.46875 20.515625 -2.25 
Q 20.75 -1.515625 21.296875 -0.09375 
L 1.609375 51.859375 
L 11.078125 51.859375 
L 21.875 21.828125 
Q 23.96875 16.109375 25.640625 9.8125 
Q 27.15625 15.875 29.25 21.625 
L 40.328125 51.859375 
L 49.125 51.859375 
L 29.390625 -0.875 
Q 26.21875 -9.421875 24.46875 -12.640625 
Q 22.125 -17 19.09375 -19.015625 
Q 16.0625 -21.046875 11.859375 -21.046875 
Q 9.328125 -21.046875 6.203125 -19.96875 
" id="ArialMT-79"/>
      <path d="M 40.234375 0 
L 40.234375 6.546875 
Q 35.296875 -1.171875 25.734375 -1.171875 
Q 19.53125 -1.171875 14.328125 2.25 
Q 9.125 5.671875 6.265625 11.796875 
Q 3.421875 17.921875 3.421875 25.875 
Q 3.421875 33.640625 6 39.96875 
Q 8.59375 46.296875 13.765625 49.65625 
Q 18.953125 53.03125 25.34375 53.03125 
Q 30.03125 53.03125 33.6875 51.046875 
Q 37.359375 49.078125 39.65625 45.90625 
L 39.65625 71.578125 
L 48.390625 71.578125 
L 48.390625 0 
z
M 12.453125 25.875 
Q 12.453125 15.921875 16.640625 10.984375 
Q 20.84375 6.0625 26.5625 6.0625 
Q 32.328125 6.0625 36.34375 10.765625 
Q 40.375 15.484375 40.375 25.140625 
Q 40.375 35.796875 36.265625 40.765625 
Q 32.171875 45.75 26.171875 45.75 
Q 20.3125 45.75 16.375 40.96875 
Q 12.453125 36.1875 12.453125 25.875 
" id="ArialMT-64"/>
     </defs>
     <g style="fill:#262626;" transform="translate(286.33296875 385.41890625)scale(0.11 -0.11)">
      <use xlink:href="#ArialMT-64"/>
      <use x="55.615234375" xlink:href="#ArialMT-61"/>
      <use x="111.23046875" xlink:href="#ArialMT-79"/>
     </g>
    </g>
   </g>
   <g id="matplotlib.axis_2">
    <g id="ytick_1">
     <g id="line2d_9">
      <path clip-path="url(#pf810d5fcc7)" d="M 72 356.4 
L 518.4 356.4 
" style="fill:none;stroke:#ffffff;stroke-linecap:round;"/>
     </g>
     <g id="line2d_10"/>
     <g id="line2d_11"/>
     <g id="text_6">
      <!-- −20 -->
      <defs>
       <path d="M 4.15625 35.296875 
Q 4.15625 48 6.765625 55.734375 
Q 9.375 63.484375 14.515625 67.671875 
Q 19.671875 71.875 27.484375 71.875 
Q 33.25 71.875 37.59375 69.546875 
Q 41.9375 67.234375 44.765625 62.859375 
Q 47.609375 58.5 49.21875 52.21875 
Q 50.828125 45.953125 50.828125 35.296875 
Q 50.828125 22.703125 48.234375 14.96875 
Q 45.65625 7.234375 40.5 3 
Q 35.359375 -1.21875 27.484375 -1.21875 
Q 17.140625 -1.21875 11.234375 6.203125 
Q 4.15625 15.140625 4.15625 35.296875 
M 13.1875 35.296875 
Q 13.1875 17.671875 17.3125 11.828125 
Q 21.4375 6 27.484375 6 
Q 33.546875 6 37.671875 11.859375 
Q 41.796875 17.71875 41.796875 35.296875 
Q 41.796875 52.984375 37.671875 58.78125 
Q 33.546875 64.59375 27.390625 64.59375 
Q 21.34375 64.59375 17.71875 59.46875 
Q 13.1875 52.9375 13.1875 35.296875 
" id="ArialMT-30"/>
       <path d="M 52.828125 31.203125 
L 5.5625 31.203125 
L 5.5625 39.40625 
L 52.828125 39.40625 
z
" id="ArialMT-2212"/>
       <path d="M 50.34375 8.453125 
L 50.34375 0 
L 3.03125 0 
Q 2.9375 3.171875 4.046875 6.109375 
Q 5.859375 10.9375 9.828125 15.625 
Q 13.8125 20.3125 21.34375 26.46875 
Q 33.015625 36.03125 37.109375 41.625 
Q 41.21875 47.21875 41.21875 52.203125 
Q 41.21875 57.421875 37.46875 61 
Q 33.734375 64.59375 27.734375 64.59375 
Q 21.390625 64.59375 17.578125 60.78125 
Q 13.765625 56.984375 13.71875 50.25 
L 4.6875 51.171875 
Q 5.609375 61.28125 11.65625 66.578125 
Q 17.71875 71.875 27.9375 71.875 
Q 38.234375 71.875 44.234375 66.15625 
Q 50.25 60.453125 50.25 52 
Q 50.25 47.703125 48.484375 43.546875 
Q 46.734375 39.40625 42.65625 34.8125 
Q 38.578125 30.21875 29.109375 22.21875 
Q 21.1875 15.578125 18.9375 13.203125 
Q 16.703125 10.84375 15.234375 8.453125 
z
" id="ArialMT-32"/>
      </defs>
      <g style="fill:#262626;" transform="translate(48.0375 358.98515625)scale(0.1 -0.1)">
       <use xlink:href="#ArialMT-2212"/>
       <use x="58.3984375" xlink:href="#ArialMT-32"/>
       <use x="114.013671875" xlink:href="#ArialMT-30"/>
      </g>
     </g>
    </g>
    <g id="ytick_2">
     <g id="line2d_12">
      <path clip-path="url(#pf810d5fcc7)" d="M 72 316.8 
L 518.4 316.8 
" style="fill:none;stroke:#ffffff;stroke-linecap:round;"/>
     </g>
     <g id="line2d_13"/>
     <g id="line2d_14"/>
     <g id="text_7">
      <!-- −10 -->
      <defs>
       <path d="M 37.25 0 
L 28.46875 0 
L 28.46875 56 
Q 25.296875 52.984375 20.140625 49.953125 
Q 14.984375 46.921875 10.890625 45.40625 
L 10.890625 53.90625 
Q 18.265625 57.375 23.78125 62.296875 
Q 29.296875 67.234375 31.59375 71.875 
L 37.25 71.875 
z
" id="ArialMT-31"/>
      </defs>
      <g style="fill:#262626;" transform="translate(48.0375 319.38515625)scale(0.1 -0.1)">
       <use xlink:href="#ArialMT-2212"/>
       <use x="58.3984375" xlink:href="#ArialMT-31"/>
       <use x="114.013671875" xlink:href="#ArialMT-30"/>
      </g>
     </g>
    </g>
    <g id="ytick_3">
     <g id="line2d_15">
      <path clip-path="url(#pf810d5fcc7)" d="M 72 277.2 
L 518.4 277.2 
" style="fill:none;stroke:#ffffff;stroke-linecap:round;"/>
     </g>
     <g id="line2d_16"/>
     <g id="line2d_17"/>
     <g id="text_8">
      <!-- 0 -->
      <g style="fill:#262626;" transform="translate(59.4390625 279.78515625)scale(0.1 -0.1)">
       <use xlink:href="#ArialMT-30"/>
      </g>
     </g>
    </g>
    <g id="ytick_4">
     <g id="line2d_18">
      <path clip-path="url(#pf810d5fcc7)" d="M 72 237.6 
L 518.4 237.6 
" style="fill:none;stroke:#ffffff;stroke-linecap:round;"/>
     </g>
     <g id="line2d_19"/>
     <g id="line2d_20"/>
     <g id="text_9">
      <!-- 10 -->
      <g style="fill:#262626;" transform="translate(53.878125 240.18515625)scale(0.1 -0.1)">
       <use xlink:href="#ArialMT-31"/>
       <use x="55.615234375" xlink:href="#ArialMT-30"/>
      </g>
     </g>
    </g>
    <g id="ytick_5">
     <g id="line2d_21">
      <path clip-path="url(#pf810d5fcc7)" d="M 72 198 
L 518.4 198 
" style="fill:none;stroke:#ffffff;stroke-linecap:round;"/>
     </g>
     <g id="line2d_22"/>
     <g id="line2d_23"/>
     <g id="text_10">
      <!-- 20 -->
      <g style="fill:#262626;" transform="translate(53.878125 200.58515625)scale(0.1 -0.1)">
       <use xlink:href="#ArialMT-32"/>
       <use x="55.615234375" xlink:href="#ArialMT-30"/>
      </g>
     </g>
    </g>
    <g id="ytick_6">
     <g id="line2d_24">
      <path clip-path="url(#pf810d5fcc7)" d="M 72 158.4 
L 518.4 158.4 
" style="fill:none;stroke:#ffffff;stroke-linecap:round;"/>
     </g>
     <g id="line2d_25"/>
     <g id="line2d_26"/>
     <g id="text_11">
      <!-- 30 -->
      <defs>
       <path d="M 4.203125 18.890625 
L 12.984375 20.0625 
Q 14.5 12.59375 18.140625 9.296875 
Q 21.78125 6 27 6 
Q 33.203125 6 37.46875 10.296875 
Q 41.75 14.59375 41.75 20.953125 
Q 41.75 27 37.796875 30.921875 
Q 33.84375 34.859375 27.734375 34.859375 
Q 25.25 34.859375 21.53125 33.890625 
L 22.515625 41.609375 
Q 23.390625 41.5 23.921875 41.5 
Q 29.546875 41.5 34.03125 44.421875 
Q 38.53125 47.359375 38.53125 53.46875 
Q 38.53125 58.296875 35.25 61.46875 
Q 31.984375 64.65625 26.8125 64.65625 
Q 21.6875 64.65625 18.265625 61.421875 
Q 14.84375 58.203125 13.875 51.765625 
L 5.078125 53.328125 
Q 6.6875 62.15625 12.390625 67.015625 
Q 18.109375 71.875 26.609375 71.875 
Q 32.46875 71.875 37.390625 69.359375 
Q 42.328125 66.84375 44.9375 62.5 
Q 47.5625 58.15625 47.5625 53.265625 
Q 47.5625 48.640625 45.0625 44.828125 
Q 42.578125 41.015625 37.703125 38.765625 
Q 44.046875 37.3125 47.5625 32.6875 
Q 51.078125 28.078125 51.078125 21.140625 
Q 51.078125 11.765625 44.234375 5.25 
Q 37.40625 -1.265625 26.953125 -1.265625 
Q 17.53125 -1.265625 11.296875 4.34375 
Q 5.078125 9.96875 4.203125 18.890625 
" id="ArialMT-33"/>
      </defs>
      <g style="fill:#262626;" transform="translate(53.878125 160.98515625)scale(0.1 -0.1)">
       <use xlink:href="#ArialMT-33"/>
       <use x="55.615234375" xlink:href="#ArialMT-30"/>
      </g>
     </g>
    </g>
    <g id="ytick_7">
     <g id="line2d_27">
      <path clip-path="url(#pf810d5fcc7)" d="M 72 118.8 
L 518.4 118.8 
" style="fill:none;stroke:#ffffff;stroke-linecap:round;"/>
     </g>
     <g id="line2d_28"/>
     <g id="line2d_29"/>
     <g id="text_12">
      <!-- 40 -->
      <defs>
       <path d="M 32.328125 0 
L 32.328125 17.140625 
L 1.265625 17.140625 
L 1.265625 25.203125 
L 33.9375 71.578125 
L 41.109375 71.578125 
L 41.109375 25.203125 
L 50.78125 25.203125 
L 50.78125 17.140625 
L 41.109375 17.140625 
L 41.109375 0 
z
M 32.328125 25.203125 
L 32.328125 57.46875 
L 9.90625 25.203125 
z
" id="ArialMT-34"/>
      </defs>
      <g style="fill:#262626;" transform="translate(53.878125 121.38515625)scale(0.1 -0.1)">
       <use xlink:href="#ArialMT-34"/>
       <use x="55.615234375" xlink:href="#ArialMT-30"/>
      </g>
     </g>
    </g>
    <g id="ytick_8">
     <g id="line2d_30">
      <path clip-path="url(#pf810d5fcc7)" d="M 72 79.2 
L 518.4 79.2 
" style="fill:none;stroke:#ffffff;stroke-linecap:round;"/>
     </g>
     <g id="line2d_31"/>
     <g id="line2d_32"/>
     <g id="text_13">
      <!-- 50 -->
      <defs>
       <path d="M 4.15625 18.75 
L 13.375 19.53125 
Q 14.40625 12.796875 18.140625 9.390625 
Q 21.875 6 27.15625 6 
Q 33.5 6 37.890625 10.78125 
Q 42.28125 15.578125 42.28125 23.484375 
Q 42.28125 31 38.0625 35.34375 
Q 33.84375 39.703125 27 39.703125 
Q 22.75 39.703125 19.328125 37.765625 
Q 15.921875 35.84375 13.96875 32.765625 
L 5.71875 33.84375 
L 12.640625 70.609375 
L 48.25 70.609375 
L 48.25 62.203125 
L 19.671875 62.203125 
L 15.828125 42.96875 
Q 22.265625 47.46875 29.34375 47.46875 
Q 38.71875 47.46875 45.15625 40.96875 
Q 51.609375 34.46875 51.609375 24.265625 
Q 51.609375 14.546875 45.953125 7.46875 
Q 39.0625 -1.21875 27.15625 -1.21875 
Q 17.390625 -1.21875 11.203125 4.25 
Q 5.03125 9.71875 4.15625 18.75 
" id="ArialMT-35"/>
      </defs>
      <g style="fill:#262626;" transform="translate(53.878125 81.78515625)scale(0.1 -0.1)">
       <use xlink:href="#ArialMT-35"/>
       <use x="55.615234375" xlink:href="#ArialMT-30"/>
      </g>
     </g>
    </g>
    <g id="ytick_9">
     <g id="line2d_33">
      <path clip-path="url(#pf810d5fcc7)" d="M 72 39.6 
L 518.4 39.6 
" style="fill:none;stroke:#ffffff;stroke-linecap:round;"/>
     </g>
     <g id="line2d_34"/>
     <g id="line2d_35"/>
     <g id="text_14">
      <!-- 60 -->
      <defs>
       <path d="M 49.75 54.046875 
L 41.015625 53.375 
Q 39.84375 58.546875 37.703125 60.890625 
Q 34.125 64.65625 28.90625 64.65625 
Q 24.703125 64.65625 21.53125 62.3125 
Q 17.390625 59.28125 14.984375 53.46875 
Q 12.59375 47.65625 12.5 36.921875 
Q 15.671875 41.75 20.265625 44.09375 
Q 24.859375 46.4375 29.890625 46.4375 
Q 38.671875 46.4375 44.84375 39.96875 
Q 51.03125 33.5 51.03125 23.25 
Q 51.03125 16.5 48.125 10.71875 
Q 45.21875 4.9375 40.140625 1.859375 
Q 35.0625 -1.21875 28.609375 -1.21875 
Q 17.625 -1.21875 10.6875 6.859375 
Q 3.765625 14.9375 3.765625 33.5 
Q 3.765625 54.25 11.421875 63.671875 
Q 18.109375 71.875 29.4375 71.875 
Q 37.890625 71.875 43.28125 67.140625 
Q 48.6875 62.40625 49.75 54.046875 
M 13.875 23.1875 
Q 13.875 18.65625 15.796875 14.5 
Q 17.71875 10.359375 21.1875 8.171875 
Q 24.65625 6 28.46875 6 
Q 34.03125 6 38.03125 10.484375 
Q 42.046875 14.984375 42.046875 22.703125 
Q 42.046875 30.125 38.078125 34.390625 
Q 34.125 38.671875 28.125 38.671875 
Q 22.171875 38.671875 18.015625 34.390625 
Q 13.875 30.125 13.875 23.1875 
" id="ArialMT-36"/>
      </defs>
      <g style="fill:#262626;" transform="translate(53.878125 42.18515625)scale(0.1 -0.1)">
       <use xlink:href="#ArialMT-36"/>
       <use x="55.615234375" xlink:href="#ArialMT-30"/>
      </g>
     </g>
    </g>
    <g id="text_15">
     <!-- total_bill -->
     <defs>
      <path d="M 6.390625 0 
L 6.390625 71.578125 
L 15.1875 71.578125 
L 15.1875 0 
z
" id="ArialMT-6c"/>
      <path d="M 14.703125 0 
L 6.546875 0 
L 6.546875 71.578125 
L 15.328125 71.578125 
L 15.328125 46.046875 
Q 20.90625 53.03125 29.546875 53.03125 
Q 34.328125 53.03125 38.59375 51.09375 
Q 42.875 49.171875 45.625 45.671875 
Q 48.390625 42.1875 49.953125 37.25 
Q 51.515625 32.328125 51.515625 26.703125 
Q 51.515625 13.375 44.921875 6.09375 
Q 38.328125 -1.171875 29.109375 -1.171875 
Q 19.921875 -1.171875 14.703125 6.5 
z
M 14.59375 26.3125 
Q 14.59375 17 17.140625 12.84375 
Q 21.296875 6.0625 28.375 6.0625 
Q 34.125 6.0625 38.328125 11.0625 
Q 42.53125 16.0625 42.53125 25.984375 
Q 42.53125 36.140625 38.5 40.96875 
Q 34.46875 45.796875 28.765625 45.796875 
Q 23 45.796875 18.796875 40.796875 
Q 14.59375 35.796875 14.59375 26.3125 
" id="ArialMT-62"/>
      <path d="M -1.515625 -19.875 
L -1.515625 -13.53125 
L 56.734375 -13.53125 
L 56.734375 -19.875 
z
" id="ArialMT-5f"/>
      <path d="M 3.328125 25.921875 
Q 3.328125 40.328125 11.328125 47.265625 
Q 18.015625 53.03125 27.640625 53.03125 
Q 38.328125 53.03125 45.109375 46.015625 
Q 51.90625 39.015625 51.90625 26.65625 
Q 51.90625 16.65625 48.90625 10.90625 
Q 45.90625 5.171875 40.15625 2 
Q 34.421875 -1.171875 27.640625 -1.171875 
Q 16.75 -1.171875 10.03125 5.8125 
Q 3.328125 12.796875 3.328125 25.921875 
M 12.359375 25.921875 
Q 12.359375 15.96875 16.703125 11.015625 
Q 21.046875 6.0625 27.640625 6.0625 
Q 34.1875 6.0625 38.53125 11.03125 
Q 42.875 16.015625 42.875 26.21875 
Q 42.875 35.84375 38.5 40.796875 
Q 34.125 45.75 27.640625 45.75 
Q 21.046875 45.75 16.703125 40.8125 
Q 12.359375 35.890625 12.359375 25.921875 
" id="ArialMT-6f"/>
     </defs>
     <g style="fill:#262626;" transform="translate(40.85125 218.178125)rotate(-90.0)scale(0.11 -0.11)">
      <use xlink:href="#ArialMT-74"/>
      <use x="27.783203125" xlink:href="#ArialMT-6f"/>
      <use x="83.3984375" xlink:href="#ArialMT-74"/>
      <use x="111.181640625" xlink:href="#ArialMT-61"/>
      <use x="166.796875" xlink:href="#ArialMT-6c"/>
      <use x="189.013671875" xlink:href="#ArialMT-5f"/>
      <use x="244.62890625" xlink:href="#ArialMT-62"/>
      <use x="300.244140625" xlink:href="#ArialMT-69"/>
      <use x="322.4609375" xlink:href="#ArialMT-6c"/>
      <use x="344.677734375" xlink:href="#ArialMT-6c"/>
     </g>
    </g>
   </g>
   <g id="PolyCollection_1">
    <defs>
     <path d="M 127.8 -124.155816 
L 126.299402 -124.155816 
L 125.867567 -125.808818 
L 125.340471 -127.46182 
L 124.70586 -129.114821 
L 123.952258 -130.767823 
L 123.069649 -132.420825 
L 122.050206 -134.073826 
L 120.889014 -135.726828 
L 119.584721 -137.37983 
L 118.140058 -139.032831 
L 116.562173 -140.685833 
L 114.862708 -142.338835 
L 113.057608 -143.991837 
L 111.166627 -145.644838 
L 109.212558 -147.29784 
L 107.220235 -148.950842 
L 105.215367 -150.603843 
L 103.223311 -152.256845 
L 101.267878 -153.909847 
L 99.3703 -155.562848 
L 97.54843 -157.21585 
L 95.816278 -158.868852 
L 94.183893 -160.521853 
L 92.657629 -162.174855 
L 91.240713 -163.827857 
L 89.934082 -165.480859 
L 88.737355 -167.13386 
L 87.649824 -168.786862 
L 86.671354 -170.439864 
L 85.80307 -172.092865 
L 85.047756 -173.745867 
L 84.409914 -175.398869 
L 83.895486 -177.05187 
L 83.511273 -178.704872 
L 83.264126 -180.357874 
L 83.16 -182.010875 
L 83.203004 -183.663877 
L 83.394543 -185.316879 
L 83.732662 -186.969881 
L 84.211666 -188.622882 
L 84.822068 -190.275884 
L 85.55086 -191.928886 
L 86.382093 -193.581887 
L 87.297705 -195.234889 
L 88.278513 -196.887891 
L 89.305271 -198.540892 
L 90.359708 -200.193894 
L 91.425443 -201.846896 
L 92.488704 -203.499897 
L 93.538797 -205.152899 
L 94.568313 -206.805901 
L 95.573041 -208.458903 
L 96.55165 -210.111904 
L 97.505164 -211.764906 
L 98.436297 -213.417908 
L 99.348722 -215.070909 
L 100.246348 -216.723911 
L 101.132668 -218.376913 
L 102.010225 -220.029914 
L 102.880254 -221.682916 
L 103.742506 -223.335918 
L 104.595261 -224.988919 
L 105.435513 -226.641921 
L 106.259311 -228.294923 
L 107.062188 -229.947925 
L 107.839668 -231.600926 
L 108.587764 -233.253928 
L 109.303452 -234.90693 
L 109.985052 -236.559931 
L 110.632512 -238.212933 
L 111.247535 -239.865935 
L 111.833581 -241.518936 
L 112.395706 -243.171938 
L 112.940276 -244.82494 
L 113.474565 -246.477941 
L 114.006273 -248.130943 
L 114.543004 -249.783945 
L 115.091729 -251.436947 
L 115.658292 -253.089948 
L 116.246992 -254.74295 
L 116.860258 -256.395952 
L 117.498464 -258.048953 
L 118.15988 -259.701955 
L 118.840764 -261.354957 
L 119.535592 -263.007958 
L 120.2374 -264.66096 
L 120.938209 -266.313962 
L 121.6295 -267.966963 
L 122.302707 -269.619965 
L 122.949675 -271.272967 
L 123.563081 -272.925969 
L 124.136752 -274.57897 
L 124.665907 -276.231972 
L 125.147278 -277.884974 
L 125.57914 -279.537975 
L 125.96124 -281.190977 
L 126.294653 -282.843979 
L 126.581582 -284.49698 
L 126.82512 -286.149982 
L 127.029 -287.802984 
L 127.8 -287.802984 
L 127.8 -287.802984 
L 127.8 -286.149982 
L 127.8 -284.49698 
L 127.8 -282.843979 
L 127.8 -281.190977 
L 127.8 -279.537975 
L 127.8 -277.884974 
L 127.8 -276.231972 
L 127.8 -274.57897 
L 127.8 -272.925969 
L 127.8 -271.272967 
L 127.8 -269.619965 
L 127.8 -267.966963 
L 127.8 -266.313962 
L 127.8 -264.66096 
L 127.8 -263.007958 
L 127.8 -261.354957 
L 127.8 -259.701955 
L 127.8 -258.048953 
L 127.8 -256.395952 
L 127.8 -254.74295 
L 127.8 -253.089948 
L 127.8 -251.436947 
L 127.8 -249.783945 
L 127.8 -248.130943 
L 127.8 -246.477941 
L 127.8 -244.82494 
L 127.8 -243.171938 
L 127.8 -241.518936 
L 127.8 -239.865935 
L 127.8 -238.212933 
L 127.8 -236.559931 
L 127.8 -234.90693 
L 127.8 -233.253928 
L 127.8 -231.600926 
L 127.8 -229.947925 
L 127.8 -228.294923 
L 127.8 -226.641921 
L 127.8 -224.988919 
L 127.8 -223.335918 
L 127.8 -221.682916 
L 127.8 -220.029914 
L 127.8 -218.376913 
L 127.8 -216.723911 
L 127.8 -215.070909 
L 127.8 -213.417908 
L 127.8 -211.764906 
L 127.8 -210.111904 
L 127.8 -208.458903 
L 127.8 -206.805901 
L 127.8 -205.152899 
L 127.8 -203.499897 
L 127.8 -201.846896 
L 127.8 -200.193894 
L 127.8 -198.540892 
L 127.8 -196.887891 
L 127.8 -195.234889 
L 127.8 -193.581887 
L 127.8 -191.928886 
L 127.8 -190.275884 
L 127.8 -188.622882 
L 127.8 -186.969881 
L 127.8 -185.316879 
L 127.8 -183.663877 
L 127.8 -182.010875 
L 127.8 -180.357874 
L 127.8 -178.704872 
L 127.8 -177.05187 
L 127.8 -175.398869 
L 127.8 -173.745867 
L 127.8 -172.092865 
L 127.8 -170.439864 
L 127.8 -168.786862 
L 127.8 -167.13386 
L 127.8 -165.480859 
L 127.8 -163.827857 
L 127.8 -162.174855 
L 127.8 -160.521853 
L 127.8 -158.868852 
L 127.8 -157.21585 
L 127.8 -155.562848 
L 127.8 -153.909847 
L 127.8 -152.256845 
L 127.8 -150.603843 
L 127.8 -148.950842 
L 127.8 -147.29784 
L 127.8 -145.644838 
L 127.8 -143.991837 
L 127.8 -142.338835 
L 127.8 -140.685833 
L 127.8 -139.032831 
L 127.8 -137.37983 
L 127.8 -135.726828 
L 127.8 -134.073826 
L 127.8 -132.420825 
L 127.8 -130.767823 
L 127.8 -129.114821 
L 127.8 -127.46182 
L 127.8 -125.808818 
L 127.8 -124.155816 
z
" id="m58c780fd48" style="stroke:#595959;stroke-width:1.75;"/>
    </defs>
    <g clip-path="url(#pf810d5fcc7)">
     <use style="fill:#72b7a1;stroke:#595959;stroke-width:1.75;" x="0.0" xlink:href="#m58c780fd48" y="396.0"/>
    </g>
   </g>
   <g id="PolyCollection_2">
    <defs>
     <path d="M 239.4 -126.482154 
L 238.817255 -126.482154 
L 238.597245 -128.639759 
L 238.312499 -130.797364 
L 237.95056 -132.954969 
L 237.49849 -135.112574 
L 236.943319 -137.270179 
L 236.272508 -139.427784 
L 235.474391 -141.585389 
L 234.538546 -143.742994 
L 233.456071 -145.900599 
L 232.219755 -148.058204 
L 230.824167 -150.215809 
L 229.26574 -152.373414 
L 227.542914 -154.531019 
L 225.656453 -156.688624 
L 223.610005 -158.846229 
L 221.410966 -161.003834 
L 219.071621 -163.161439 
L 216.610485 -165.319044 
L 214.053677 -167.476649 
L 211.436105 -169.634254 
L 208.802196 -171.791859 
L 206.205924 -173.949464 
L 203.70992 -176.107069 
L 201.383553 -178.264674 
L 199.299977 -180.422278 
L 197.532293 -182.579883 
L 196.149094 -184.737488 
L 195.209766 -186.895093 
L 194.76 -189.052698 
L 194.827969 -191.210303 
L 195.421584 -193.367908 
L 196.527167 -195.525513 
L 198.109705 -197.683118 
L 200.114718 -199.840723 
L 202.471591 -201.998328 
L 205.098052 -204.155933 
L 207.905382 -206.313538 
L 210.803867 -208.471143 
L 213.707983 -210.628748 
L 216.540879 -212.786353 
L 219.237819 -214.943958 
L 221.748385 -217.101563 
L 224.037385 -219.259168 
L 226.084559 -221.416773 
L 227.883285 -223.574378 
L 229.43855 -225.731983 
L 230.764467 -227.889588 
L 231.881628 -230.047193 
L 232.814524 -232.204798 
L 233.589199 -234.362402 
L 234.231269 -236.520007 
L 234.764373 -238.677612 
L 235.209083 -240.835217 
L 235.582285 -242.992822 
L 235.896987 -245.150427 
L 236.162542 -247.308032 
L 236.385185 -249.465637 
L 236.568832 -251.623242 
L 236.716002 -253.780847 
L 236.828753 -255.938452 
L 236.909514 -258.096057 
L 236.961692 -260.253662 
L 236.989973 -262.411267 
L 237.000295 -264.568872 
L 236.999488 -266.726477 
L 236.99467 -268.884082 
L 236.992484 -271.041687 
L 236.99832 -273.199292 
L 237.01566 -275.356897 
L 237.045661 -277.514502 
L 237.087052 -279.672107 
L 237.136381 -281.829712 
L 237.188583 -283.987317 
L 237.237799 -286.144922 
L 237.278312 -288.302526 
L 237.305481 -290.460131 
L 237.316535 -292.617736 
L 237.311097 -294.775341 
L 237.291384 -296.932946 
L 237.262037 -299.090551 
L 237.22962 -301.248156 
L 237.201857 -303.405761 
L 237.186712 -305.563366 
L 237.191449 -307.720971 
L 237.221797 -309.878576 
L 237.281313 -312.036181 
L 237.371044 -314.193786 
L 237.489486 -316.351391 
L 237.632843 -318.508996 
L 237.795526 -320.666601 
L 237.970806 -322.824206 
L 238.151516 -324.981811 
L 238.330736 -327.139416 
L 238.502346 -329.297021 
L 238.66143 -331.454626 
L 238.804494 -333.612231 
L 238.929499 -335.769836 
L 239.035758 -337.927441 
L 239.123715 -340.085046 
L 239.4 -340.085046 
L 239.4 -340.085046 
L 239.4 -337.927441 
L 239.4 -335.769836 
L 239.4 -333.612231 
L 239.4 -331.454626 
L 239.4 -329.297021 
L 239.4 -327.139416 
L 239.4 -324.981811 
L 239.4 -322.824206 
L 239.4 -320.666601 
L 239.4 -318.508996 
L 239.4 -316.351391 
L 239.4 -314.193786 
L 239.4 -312.036181 
L 239.4 -309.878576 
L 239.4 -307.720971 
L 239.4 -305.563366 
L 239.4 -303.405761 
L 239.4 -301.248156 
L 239.4 -299.090551 
L 239.4 -296.932946 
L 239.4 -294.775341 
L 239.4 -292.617736 
L 239.4 -290.460131 
L 239.4 -288.302526 
L 239.4 -286.144922 
L 239.4 -283.987317 
L 239.4 -281.829712 
L 239.4 -279.672107 
L 239.4 -277.514502 
L 239.4 -275.356897 
L 239.4 -273.199292 
L 239.4 -271.041687 
L 239.4 -268.884082 
L 239.4 -266.726477 
L 239.4 -264.568872 
L 239.4 -262.411267 
L 239.4 -260.253662 
L 239.4 -258.096057 
L 239.4 -255.938452 
L 239.4 -253.780847 
L 239.4 -251.623242 
L 239.4 -249.465637 
L 239.4 -247.308032 
L 239.4 -245.150427 
L 239.4 -242.992822 
L 239.4 -240.835217 
L 239.4 -238.677612 
L 239.4 -236.520007 
L 239.4 -234.362402 
L 239.4 -232.204798 
L 239.4 -230.047193 
L 239.4 -227.889588 
L 239.4 -225.731983 
L 239.4 -223.574378 
L 239.4 -221.416773 
L 239.4 -219.259168 
L 239.4 -217.101563 
L 239.4 -214.943958 
L 239.4 -212.786353 
L 239.4 -210.628748 
L 239.4 -208.471143 
L 239.4 -206.313538 
L 239.4 -204.155933 
L 239.4 -201.998328 
L 239.4 -199.840723 
L 239.4 -197.683118 
L 239.4 -195.525513 
L 239.4 -193.367908 
L 239.4 -191.210303 
L 239.4 -189.052698 
L 239.4 -186.895093 
L 239.4 -184.737488 
L 239.4 -182.579883 
L 239.4 -180.422278 
L 239.4 -178.264674 
L 239.4 -176.107069 
L 239.4 -173.949464 
L 239.4 -171.791859 
L 239.4 -169.634254 
L 239.4 -167.476649 
L 239.4 -165.319044 
L 239.4 -163.161439 
L 239.4 -161.003834 
L 239.4 -158.846229 
L 239.4 -156.688624 
L 239.4 -154.531019 
L 239.4 -152.373414 
L 239.4 -150.215809 
L 239.4 -148.058204 
L 239.4 -145.900599 
L 239.4 -143.742994 
L 239.4 -141.585389 
L 239.4 -139.427784 
L 239.4 -137.270179 
L 239.4 -135.112574 
L 239.4 -132.954969 
L 239.4 -130.797364 
L 239.4 -128.639759 
L 239.4 -126.482154 
z
" id="m5a8435a2f0" style="stroke:#595959;stroke-width:1.75;"/>
    </defs>
    <g clip-path="url(#pf810d5fcc7)">
     <use style="fill:#72b7a1;stroke:#595959;stroke-width:1.75;" x="0.0" xlink:href="#m5a8435a2f0" y="396.0"/>
    </g>
   </g>
   <g id="PolyCollection_3">
    <defs>
     <path d="M 239.740771 -77.83984 
L 239.4 -77.83984 
L 239.4 -80.562118 
L 239.4 -83.284396 
L 239.4 -86.006674 
L 239.4 -88.728952 
L 239.4 -91.45123 
L 239.4 -94.173508 
L 239.4 -96.895786 
L 239.4 -99.618064 
L 239.4 -102.340342 
L 239.4 -105.06262 
L 239.4 -107.784898 
L 239.4 -110.507176 
L 239.4 -113.229454 
L 239.4 -115.951732 
L 239.4 -118.67401 
L 239.4 -121.396288 
L 239.4 -124.118566 
L 239.4 -126.840844 
L 239.4 -129.563122 
L 239.4 -132.2854 
L 239.4 -135.007678 
L 239.4 -137.729956 
L 239.4 -140.452234 
L 239.4 -143.174512 
L 239.4 -145.89679 
L 239.4 -148.619068 
L 239.4 -151.341346 
L 239.4 -154.063623 
L 239.4 -156.785901 
L 239.4 -159.508179 
L 239.4 -162.230457 
L 239.4 -164.952735 
L 239.4 -167.675013 
L 239.4 -170.397291 
L 239.4 -173.119569 
L 239.4 -175.841847 
L 239.4 -178.564125 
L 239.4 -181.286403 
L 239.4 -184.008681 
L 239.4 -186.730959 
L 239.4 -189.453237 
L 239.4 -192.175515 
L 239.4 -194.897793 
L 239.4 -197.620071 
L 239.4 -200.342349 
L 239.4 -203.064627 
L 239.4 -205.786905 
L 239.4 -208.509183 
L 239.4 -211.231461 
L 239.4 -213.953739 
L 239.4 -216.676017 
L 239.4 -219.398295 
L 239.4 -222.120573 
L 239.4 -224.842851 
L 239.4 -227.565129 
L 239.4 -230.287407 
L 239.4 -233.009685 
L 239.4 -235.731963 
L 239.4 -238.454241 
L 239.4 -241.176519 
L 239.4 -243.898797 
L 239.4 -246.621075 
L 239.4 -249.343353 
L 239.4 -252.065631 
L 239.4 -254.787909 
L 239.4 -257.510187 
L 239.4 -260.232465 
L 239.4 -262.954743 
L 239.4 -265.677021 
L 239.4 -268.399299 
L 239.4 -271.121577 
L 239.4 -273.843854 
L 239.4 -276.566132 
L 239.4 -279.28841 
L 239.4 -282.010688 
L 239.4 -284.732966 
L 239.4 -287.455244 
L 239.4 -290.177522 
L 239.4 -292.8998 
L 239.4 -295.622078 
L 239.4 -298.344356 
L 239.4 -301.066634 
L 239.4 -303.788912 
L 239.4 -306.51119 
L 239.4 -309.233468 
L 239.4 -311.955746 
L 239.4 -314.678024 
L 239.4 -317.400302 
L 239.4 -320.12258 
L 239.4 -322.844858 
L 239.4 -325.567136 
L 239.4 -328.289414 
L 239.4 -331.011692 
L 239.4 -333.73397 
L 239.4 -336.456248 
L 239.4 -339.178526 
L 239.4 -341.900804 
L 239.4 -344.623082 
L 239.4 -347.34536 
L 239.738256 -347.34536 
L 239.738256 -347.34536 
L 239.816817 -344.623082 
L 239.908683 -341.900804 
L 240.014867 -339.178526 
L 240.136175 -336.456248 
L 240.273137 -333.73397 
L 240.425944 -331.011692 
L 240.594391 -328.289414 
L 240.77783 -325.567136 
L 240.975141 -322.844858 
L 241.184723 -320.12258 
L 241.404505 -317.400302 
L 241.631986 -314.678024 
L 241.864302 -311.955746 
L 242.098315 -309.233468 
L 242.330728 -306.51119 
L 242.558223 -303.788912 
L 242.777606 -301.066634 
L 242.985972 -298.344356 
L 243.180862 -295.622078 
L 243.360418 -292.8998 
L 243.523528 -290.177522 
L 243.669941 -287.455244 
L 243.80036 -284.732966 
L 243.916496 -282.010688 
L 244.021081 -279.28841 
L 244.117837 -276.566132 
L 244.211395 -273.843854 
L 244.307174 -271.121577 
L 244.411208 -268.399299 
L 244.529939 -265.677021 
L 244.669973 -262.954743 
L 244.837824 -260.232465 
L 245.039634 -257.510187 
L 245.280907 -254.787909 
L 245.566251 -252.065631 
L 245.899152 -249.343353 
L 246.281789 -246.621075 
L 246.714892 -243.898797 
L 247.197664 -241.176519 
L 247.727755 -238.454241 
L 248.301304 -235.731963 
L 248.913024 -233.009685 
L 249.556348 -230.287407 
L 250.223604 -227.565129 
L 250.906226 -224.842851 
L 251.594975 -222.120573 
L 252.280174 -219.398295 
L 252.951935 -216.676017 
L 253.600375 -213.953739 
L 254.215817 -211.231461 
L 254.788971 -208.509183 
L 255.311101 -205.786905 
L 255.774162 -203.064627 
L 256.170932 -200.342349 
L 256.495124 -197.620071 
L 256.741488 -194.897793 
L 256.905902 -192.175515 
L 256.985455 -189.453237 
L 256.978511 -186.730959 
L 256.884764 -184.008681 
L 256.705268 -181.286403 
L 256.442437 -178.564125 
L 256.100018 -175.841847 
L 255.683026 -173.119569 
L 255.197636 -170.397291 
L 254.651039 -167.675013 
L 254.051259 -164.952735 
L 253.406936 -162.230457 
L 252.72709 -159.508179 
L 252.02087 -156.785901 
L 251.297307 -154.063623 
L 250.565071 -151.341346 
L 249.832268 -148.619068 
L 249.10626 -145.89679 
L 248.393538 -143.174512 
L 247.69964 -140.452234 
L 247.029118 -137.729956 
L 246.385557 -135.007678 
L 245.771627 -132.2854 
L 245.189177 -129.563122 
L 244.639338 -126.840844 
L 244.12265 -124.118566 
L 243.639177 -121.396288 
L 243.188625 -118.67401 
L 242.77044 -115.951732 
L 242.38388 -113.229454 
L 242.02808 -110.507176 
L 241.702085 -107.784898 
L 241.404872 -105.06262 
L 241.135353 -102.340342 
L 240.892375 -99.618064 
L 240.674714 -96.895786 
L 240.481064 -94.173508 
L 240.310037 -91.45123 
L 240.160166 -88.728952 
L 240.029913 -86.006674 
L 239.917682 -83.284396 
L 239.821847 -80.562118 
L 239.740771 -77.83984 
z
" id="mfa1f32cf23" style="stroke:#595959;stroke-width:1.75;"/>
    </defs>
    <g clip-path="url(#pf810d5fcc7)">
     <use style="fill:#e79676;stroke:#595959;stroke-width:1.75;" x="0.0" xlink:href="#mfa1f32cf23" y="396.0"/>
    </g>
   </g>
   <g id="PolyCollection_4">
    <defs>
     <path d="M 351 -124.449713 
L 349.787902 -124.449713 
L 349.505457 -126.131578 
L 349.172177 -127.813442 
L 348.78246 -129.495306 
L 348.330795 -131.177171 
L 347.811904 -132.859035 
L 347.220884 -134.540899 
L 346.553346 -136.222764 
L 345.805548 -137.904628 
L 344.974507 -139.586493 
L 344.058096 -141.268357 
L 343.055123 -142.950221 
L 341.965373 -144.632086 
L 340.789649 -146.31395 
L 339.529781 -147.995814 
L 338.188632 -149.677679 
L 336.7701 -151.359543 
L 335.279119 -153.041408 
L 333.72167 -154.723272 
L 332.104807 -156.405136 
L 330.436687 -158.087001 
L 328.726612 -159.768865 
L 326.985069 -161.45073 
L 325.223752 -163.132594 
L 323.455566 -164.814458 
L 321.694579 -166.496323 
L 319.955918 -168.178187 
L 318.255602 -169.860051 
L 316.610291 -171.541916 
L 315.036961 -173.22378 
L 313.552513 -174.905645 
L 312.173318 -176.587509 
L 310.91474 -178.269373 
L 309.790651 -179.951238 
L 308.812973 -181.633102 
L 307.991281 -183.314966 
L 307.3325 -184.996831 
L 306.84071 -186.678695 
L 306.517092 -188.36056 
L 306.36 -190.042424 
L 306.365178 -191.724288 
L 306.526085 -193.406153 
L 306.834313 -195.088017 
L 307.28007 -196.769882 
L 307.852678 -198.451746 
L 308.541056 -200.13361 
L 309.334157 -201.815475 
L 310.221317 -203.497339 
L 311.192502 -205.179203 
L 312.238445 -206.861068 
L 313.350663 -208.542932 
L 314.521374 -210.224797 
L 315.743315 -211.906661 
L 317.009519 -213.588525 
L 318.313043 -215.27039 
L 319.646713 -216.952254 
L 321.002899 -218.634118 
L 322.373349 -220.315983 
L 323.749118 -221.997847 
L 325.120582 -223.679712 
L 326.477568 -225.361576 
L 327.809573 -227.04344 
L 329.106078 -228.725305 
L 330.356914 -230.407169 
L 331.552681 -232.089034 
L 332.685162 -233.770898 
L 333.747716 -235.452762 
L 334.735616 -237.134627 
L 335.646296 -238.816491 
L 336.479498 -240.498355 
L 337.237291 -242.18022 
L 337.92397 -243.862084 
L 338.545827 -245.543949 
L 339.110809 -247.225813 
L 339.628094 -248.907677 
L 340.107598 -250.589542 
L 340.559451 -252.271406 
L 340.993482 -253.95327 
L 341.418734 -255.635135 
L 341.843042 -257.316999 
L 342.272713 -258.998864 
L 342.712291 -260.680728 
L 343.164458 -262.362592 
L 343.630037 -264.044457 
L 344.108106 -265.726321 
L 344.596201 -267.408186 
L 345.0906 -269.09005 
L 345.586645 -270.771914 
L 346.079095 -272.453779 
L 346.562471 -274.135643 
L 347.03139 -275.817507 
L 347.480843 -277.499372 
L 347.906434 -279.181236 
L 348.304549 -280.863101 
L 348.672459 -282.544965 
L 349.00837 -284.226829 
L 349.311405 -285.908694 
L 349.581548 -287.590558 
L 349.81955 -289.272422 
L 350.026801 -290.954287 
L 351 -290.954287 
L 351 -290.954287 
L 351 -289.272422 
L 351 -287.590558 
L 351 -285.908694 
L 351 -284.226829 
L 351 -282.544965 
L 351 -280.863101 
L 351 -279.181236 
L 351 -277.499372 
L 351 -275.817507 
L 351 -274.135643 
L 351 -272.453779 
L 351 -270.771914 
L 351 -269.09005 
L 351 -267.408186 
L 351 -265.726321 
L 351 -264.044457 
L 351 -262.362592 
L 351 -260.680728 
L 351 -258.998864 
L 351 -257.316999 
L 351 -255.635135 
L 351 -253.95327 
L 351 -252.271406 
L 351 -250.589542 
L 351 -248.907677 
L 351 -247.225813 
L 351 -245.543949 
L 351 -243.862084 
L 351 -242.18022 
L 351 -240.498355 
L 351 -238.816491 
L 351 -237.134627 
L 351 -235.452762 
L 351 -233.770898 
L 351 -232.089034 
L 351 -230.407169 
L 351 -228.725305 
L 351 -227.04344 
L 351 -225.361576 
L 351 -223.679712 
L 351 -221.997847 
L 351 -220.315983 
L 351 -218.634118 
L 351 -216.952254 
L 351 -215.27039 
L 351 -213.588525 
L 351 -211.906661 
L 351 -210.224797 
L 351 -208.542932 
L 351 -206.861068 
L 351 -205.179203 
L 351 -203.497339 
L 351 -201.815475 
L 351 -200.13361 
L 351 -198.451746 
L 351 -196.769882 
L 351 -195.088017 
L 351 -193.406153 
L 351 -191.724288 
L 351 -190.042424 
L 351 -188.36056 
L 351 -186.678695 
L 351 -184.996831 
L 351 -183.314966 
L 351 -181.633102 
L 351 -179.951238 
L 351 -178.269373 
L 351 -176.587509 
L 351 -174.905645 
L 351 -173.22378 
L 351 -171.541916 
L 351 -169.860051 
L 351 -168.178187 
L 351 -166.496323 
L 351 -164.814458 
L 351 -163.132594 
L 351 -161.45073 
L 351 -159.768865 
L 351 -158.087001 
L 351 -156.405136 
L 351 -154.723272 
L 351 -153.041408 
L 351 -151.359543 
L 351 -149.677679 
L 351 -147.995814 
L 351 -146.31395 
L 351 -144.632086 
L 351 -142.950221 
L 351 -141.268357 
L 351 -139.586493 
L 351 -137.904628 
L 351 -136.222764 
L 351 -134.540899 
L 351 -132.859035 
L 351 -131.177171 
L 351 -129.495306 
L 351 -127.813442 
L 351 -126.131578 
L 351 -124.449713 
z
" id="mc3d86501b9" style="stroke:#595959;stroke-width:1.75;"/>
    </defs>
    <g clip-path="url(#pf810d5fcc7)">
     <use style="fill:#72b7a1;stroke:#595959;stroke-width:1.75;" x="0.0" xlink:href="#mc3d86501b9" y="396.0"/>
    </g>
   </g>
   <g id="PolyCollection_5">
    <defs>
     <path d="M 351.771876 -131.233006 
L 351 -131.233006 
L 351 -133.066634 
L 351 -134.900262 
L 351 -136.73389 
L 351 -138.567519 
L 351 -140.401147 
L 351 -142.234775 
L 351 -144.068403 
L 351 -145.902031 
L 351 -147.735659 
L 351 -149.569288 
L 351 -151.402916 
L 351 -153.236544 
L 351 -155.070172 
L 351 -156.9038 
L 351 -158.737428 
L 351 -160.571057 
L 351 -162.404685 
L 351 -164.238313 
L 351 -166.071941 
L 351 -167.905569 
L 351 -169.739197 
L 351 -171.572826 
L 351 -173.406454 
L 351 -175.240082 
L 351 -177.07371 
L 351 -178.907338 
L 351 -180.740966 
L 351 -182.574595 
L 351 -184.408223 
L 351 -186.241851 
L 351 -188.075479 
L 351 -189.909107 
L 351 -191.742735 
L 351 -193.576363 
L 351 -195.409992 
L 351 -197.24362 
L 351 -199.077248 
L 351 -200.910876 
L 351 -202.744504 
L 351 -204.578132 
L 351 -206.411761 
L 351 -208.245389 
L 351 -210.079017 
L 351 -211.912645 
L 351 -213.746273 
L 351 -215.579901 
L 351 -217.41353 
L 351 -219.247158 
L 351 -221.080786 
L 351 -222.914414 
L 351 -224.748042 
L 351 -226.58167 
L 351 -228.415299 
L 351 -230.248927 
L 351 -232.082555 
L 351 -233.916183 
L 351 -235.749811 
L 351 -237.583439 
L 351 -239.417068 
L 351 -241.250696 
L 351 -243.084324 
L 351 -244.917952 
L 351 -246.75158 
L 351 -248.585208 
L 351 -250.418837 
L 351 -252.252465 
L 351 -254.086093 
L 351 -255.919721 
L 351 -257.753349 
L 351 -259.586977 
L 351 -261.420605 
L 351 -263.254234 
L 351 -265.087862 
L 351 -266.92149 
L 351 -268.755118 
L 351 -270.588746 
L 351 -272.422374 
L 351 -274.256003 
L 351 -276.089631 
L 351 -277.923259 
L 351 -279.756887 
L 351 -281.590515 
L 351 -283.424143 
L 351 -285.257772 
L 351 -287.0914 
L 351 -288.925028 
L 351 -290.758656 
L 351 -292.592284 
L 351 -294.425912 
L 351 -296.259541 
L 351 -298.093169 
L 351 -299.926797 
L 351 -301.760425 
L 351 -303.594053 
L 351 -305.427681 
L 351 -307.26131 
L 351 -309.094938 
L 351 -310.928566 
L 351 -312.762194 
L 351.771876 -312.762194 
L 351.771876 -312.762194 
L 351.864222 -310.928566 
L 351.964588 -309.094938 
L 352.073252 -307.26131 
L 352.190445 -305.427681 
L 352.316342 -303.594053 
L 352.45106 -301.760425 
L 352.594648 -299.926797 
L 352.747081 -298.093169 
L 352.908254 -296.259541 
L 353.077982 -294.425912 
L 353.255991 -292.592284 
L 353.441919 -290.758656 
L 353.635315 -288.925028 
L 353.835641 -287.0914 
L 354.042271 -285.257772 
L 354.254499 -283.424143 
L 354.471542 -281.590515 
L 354.692549 -279.756887 
L 354.916607 -277.923259 
L 355.142756 -276.089631 
L 355.369995 -274.256003 
L 355.5973 -272.422374 
L 355.823632 -270.588746 
L 356.047952 -268.755118 
L 356.269238 -266.92149 
L 356.486495 -265.087862 
L 356.698768 -263.254234 
L 356.905158 -261.420605 
L 357.104827 -259.586977 
L 357.297015 -257.753349 
L 357.481042 -255.919721 
L 357.656315 -254.086093 
L 357.822335 -252.252465 
L 357.978694 -250.418837 
L 358.125081 -248.585208 
L 358.26127 -246.75158 
L 358.387124 -244.917952 
L 358.502583 -243.084324 
L 358.607655 -241.250696 
L 358.702409 -239.417068 
L 358.786962 -237.583439 
L 358.861466 -235.749811 
L 358.926097 -233.916183 
L 358.981041 -232.082555 
L 359.026486 -230.248927 
L 359.062604 -228.415299 
L 359.089548 -226.58167 
L 359.10744 -224.748042 
L 359.116364 -222.914414 
L 359.116364 -221.080786 
L 359.10744 -219.247158 
L 359.089548 -217.41353 
L 359.062604 -215.579901 
L 359.026486 -213.746273 
L 358.981041 -211.912645 
L 358.926097 -210.079017 
L 358.861466 -208.245389 
L 358.786962 -206.411761 
L 358.702409 -204.578132 
L 358.607655 -202.744504 
L 358.502583 -200.910876 
L 358.387124 -199.077248 
L 358.26127 -197.24362 
L 358.125081 -195.409992 
L 357.978694 -193.576363 
L 357.822335 -191.742735 
L 357.656315 -189.909107 
L 357.481042 -188.075479 
L 357.297015 -186.241851 
L 357.104827 -184.408223 
L 356.905158 -182.574595 
L 356.698768 -180.740966 
L 356.486495 -178.907338 
L 356.269238 -177.07371 
L 356.047952 -175.240082 
L 355.823632 -173.406454 
L 355.5973 -171.572826 
L 355.369995 -169.739197 
L 355.142756 -167.905569 
L 354.916607 -166.071941 
L 354.692549 -164.238313 
L 354.471542 -162.404685 
L 354.254499 -160.571057 
L 354.042271 -158.737428 
L 353.835641 -156.9038 
L 353.635315 -155.070172 
L 353.441919 -153.236544 
L 353.255991 -151.402916 
L 353.077982 -149.569288 
L 352.908254 -147.735659 
L 352.747081 -145.902031 
L 352.594648 -144.068403 
L 352.45106 -142.234775 
L 352.316342 -140.401147 
L 352.190445 -138.567519 
L 352.073252 -136.73389 
L 351.964588 -134.900262 
L 351.864222 -133.066634 
L 351.771876 -131.233006 
z
" id="m063b0e2aff" style="stroke:#595959;stroke-width:1.75;"/>
    </defs>
    <g clip-path="url(#pf810d5fcc7)">
     <use style="fill:#e79676;stroke:#595959;stroke-width:1.75;" x="0.0" xlink:href="#m063b0e2aff" y="396.0"/>
    </g>
   </g>
   <g id="PolyCollection_6">
    <defs>
     <path d="M 462.6 -130.838868 
L 461.643084 -130.838868 
L 461.517438 -132.004059 
L 461.379998 -133.169249 
L 461.23038 -134.33444 
L 461.068294 -135.49963 
L 460.89356 -136.664821 
L 460.706122 -137.830011 
L 460.506063 -138.995202 
L 460.293609 -140.160392 
L 460.069146 -141.325583 
L 459.833221 -142.490774 
L 459.586543 -143.655964 
L 459.329988 -144.821155 
L 459.064586 -145.986345 
L 458.791518 -147.151536 
L 458.5121 -148.316726 
L 458.227764 -149.481917 
L 457.940036 -150.647107 
L 457.65051 -151.812298 
L 457.360815 -152.977488 
L 457.072585 -154.142679 
L 456.787423 -155.30787 
L 456.506862 -156.47306 
L 456.232326 -157.638251 
L 455.965096 -158.803441 
L 455.706274 -159.968632 
L 455.456748 -161.133822 
L 455.217164 -162.299013 
L 454.987902 -163.464203 
L 454.769061 -164.629394 
L 454.560445 -165.794584 
L 454.361562 -166.959775 
L 454.171631 -168.124966 
L 453.989593 -169.290156 
L 453.814138 -170.455347 
L 453.643736 -171.620537 
L 453.476676 -172.785728 
L 453.311114 -173.950918 
L 453.145127 -175.116109 
L 452.976774 -176.281299 
L 452.804156 -177.44649 
L 452.625481 -178.61168 
L 452.439133 -179.776871 
L 452.243731 -180.942061 
L 452.038189 -182.107252 
L 451.821774 -183.272443 
L 451.594149 -184.437633 
L 451.355413 -185.602824 
L 451.10613 -186.768014 
L 450.847341 -187.933205 
L 450.580573 -189.098395 
L 450.307828 -190.263586 
L 450.031559 -191.428776 
L 449.75464 -192.593967 
L 449.480314 -193.759157 
L 449.21214 -194.924348 
L 448.953921 -196.089539 
L 448.709631 -197.254729 
L 448.483332 -198.41992 
L 448.279086 -199.58511 
L 448.10087 -200.750301 
L 447.952486 -201.915491 
L 447.837479 -203.080682 
L 447.759053 -204.245872 
L 447.72 -205.411063 
L 447.722639 -206.576253 
L 447.768759 -207.741444 
L 447.85958 -208.906634 
L 447.995728 -210.071825 
L 448.177212 -211.237016 
L 448.403434 -212.402206 
L 448.673192 -213.567397 
L 448.984711 -214.732587 
L 449.33568 -215.897778 
L 449.723299 -217.062968 
L 450.144337 -218.228159 
L 450.595196 -219.393349 
L 451.071982 -220.55854 
L 451.570583 -221.72373 
L 452.086737 -222.888921 
L 452.616116 -224.054112 
L 453.154395 -225.219302 
L 453.697323 -226.384493 
L 454.240789 -227.549683 
L 454.780881 -228.714874 
L 455.313935 -229.880064 
L 455.836578 -231.045255 
L 456.345767 -232.210445 
L 456.838809 -233.375636 
L 457.313379 -234.540826 
L 457.767532 -235.706017 
L 458.199698 -236.871208 
L 458.60868 -238.036398 
L 458.993638 -239.201589 
L 459.354068 -240.366779 
L 459.689783 -241.53197 
L 460.000883 -242.69716 
L 460.287722 -243.862351 
L 460.550883 -245.027541 
L 460.791137 -246.192732 
L 462.6 -246.192732 
L 462.6 -246.192732 
L 462.6 -245.027541 
L 462.6 -243.862351 
L 462.6 -242.69716 
L 462.6 -241.53197 
L 462.6 -240.366779 
L 462.6 -239.201589 
L 462.6 -238.036398 
L 462.6 -236.871208 
L 462.6 -235.706017 
L 462.6 -234.540826 
L 462.6 -233.375636 
L 462.6 -232.210445 
L 462.6 -231.045255 
L 462.6 -229.880064 
L 462.6 -228.714874 
L 462.6 -227.549683 
L 462.6 -226.384493 
L 462.6 -225.219302 
L 462.6 -224.054112 
L 462.6 -222.888921 
L 462.6 -221.72373 
L 462.6 -220.55854 
L 462.6 -219.393349 
L 462.6 -218.228159 
L 462.6 -217.062968 
L 462.6 -215.897778 
L 462.6 -214.732587 
L 462.6 -213.567397 
L 462.6 -212.402206 
L 462.6 -211.237016 
L 462.6 -210.071825 
L 462.6 -208.906634 
L 462.6 -207.741444 
L 462.6 -206.576253 
L 462.6 -205.411063 
L 462.6 -204.245872 
L 462.6 -203.080682 
L 462.6 -201.915491 
L 462.6 -200.750301 
L 462.6 -199.58511 
L 462.6 -198.41992 
L 462.6 -197.254729 
L 462.6 -196.089539 
L 462.6 -194.924348 
L 462.6 -193.759157 
L 462.6 -192.593967 
L 462.6 -191.428776 
L 462.6 -190.263586 
L 462.6 -189.098395 
L 462.6 -187.933205 
L 462.6 -186.768014 
L 462.6 -185.602824 
L 462.6 -184.437633 
L 462.6 -183.272443 
L 462.6 -182.107252 
L 462.6 -180.942061 
L 462.6 -179.776871 
L 462.6 -178.61168 
L 462.6 -177.44649 
L 462.6 -176.281299 
L 462.6 -175.116109 
L 462.6 -173.950918 
L 462.6 -172.785728 
L 462.6 -171.620537 
L 462.6 -170.455347 
L 462.6 -169.290156 
L 462.6 -168.124966 
L 462.6 -166.959775 
L 462.6 -165.794584 
L 462.6 -164.629394 
L 462.6 -163.464203 
L 462.6 -162.299013 
L 462.6 -161.133822 
L 462.6 -159.968632 
L 462.6 -158.803441 
L 462.6 -157.638251 
L 462.6 -156.47306 
L 462.6 -155.30787 
L 462.6 -154.142679 
L 462.6 -152.977488 
L 462.6 -151.812298 
L 462.6 -150.647107 
L 462.6 -149.481917 
L 462.6 -148.316726 
L 462.6 -147.151536 
L 462.6 -145.986345 
L 462.6 -144.821155 
L 462.6 -143.655964 
L 462.6 -142.490774 
L 462.6 -141.325583 
L 462.6 -140.160392 
L 462.6 -138.995202 
L 462.6 -137.830011 
L 462.6 -136.664821 
L 462.6 -135.49963 
L 462.6 -134.33444 
L 462.6 -133.169249 
L 462.6 -132.004059 
L 462.6 -130.838868 
z
" id="md48a499737" style="stroke:#595959;stroke-width:1.75;"/>
    </defs>
    <g clip-path="url(#pf810d5fcc7)">
     <use style="fill:#72b7a1;stroke:#595959;stroke-width:1.75;" x="0.0" xlink:href="#md48a499737" y="396.0"/>
    </g>
   </g>
   <g id="PolyCollection_7">
    <defs>
     <path d="M 464.099144 -86.921405 
L 462.6 -86.921405 
L 462.6 -89.402217 
L 462.6 -91.883029 
L 462.6 -94.363841 
L 462.6 -96.844653 
L 462.6 -99.325465 
L 462.6 -101.806277 
L 462.6 -104.287089 
L 462.6 -106.767901 
L 462.6 -109.248713 
L 462.6 -111.729525 
L 462.6 -114.210337 
L 462.6 -116.691149 
L 462.6 -119.171961 
L 462.6 -121.652773 
L 462.6 -124.133585 
L 462.6 -126.614397 
L 462.6 -129.095209 
L 462.6 -131.576021 
L 462.6 -134.056833 
L 462.6 -136.537645 
L 462.6 -139.018457 
L 462.6 -141.499269 
L 462.6 -143.980081 
L 462.6 -146.460893 
L 462.6 -148.941705 
L 462.6 -151.422517 
L 462.6 -153.903329 
L 462.6 -156.384141 
L 462.6 -158.864953 
L 462.6 -161.345766 
L 462.6 -163.826578 
L 462.6 -166.30739 
L 462.6 -168.788202 
L 462.6 -171.269014 
L 462.6 -173.749826 
L 462.6 -176.230638 
L 462.6 -178.71145 
L 462.6 -181.192262 
L 462.6 -183.673074 
L 462.6 -186.153886 
L 462.6 -188.634698 
L 462.6 -191.11551 
L 462.6 -193.596322 
L 462.6 -196.077134 
L 462.6 -198.557946 
L 462.6 -201.038758 
L 462.6 -203.51957 
L 462.6 -206.000382 
L 462.6 -208.481194 
L 462.6 -210.962006 
L 462.6 -213.442818 
L 462.6 -215.92363 
L 462.6 -218.404442 
L 462.6 -220.885254 
L 462.6 -223.366066 
L 462.6 -225.846878 
L 462.6 -228.32769 
L 462.6 -230.808502 
L 462.6 -233.289314 
L 462.6 -235.770126 
L 462.6 -238.250938 
L 462.6 -240.73175 
L 462.6 -243.212562 
L 462.6 -245.693374 
L 462.6 -248.174186 
L 462.6 -250.654998 
L 462.6 -253.13581 
L 462.6 -255.616622 
L 462.6 -258.097434 
L 462.6 -260.578247 
L 462.6 -263.059059 
L 462.6 -265.539871 
L 462.6 -268.020683 
L 462.6 -270.501495 
L 462.6 -272.982307 
L 462.6 -275.463119 
L 462.6 -277.943931 
L 462.6 -280.424743 
L 462.6 -282.905555 
L 462.6 -285.386367 
L 462.6 -287.867179 
L 462.6 -290.347991 
L 462.6 -292.828803 
L 462.6 -295.309615 
L 462.6 -297.790427 
L 462.6 -300.271239 
L 462.6 -302.752051 
L 462.6 -305.232863 
L 462.6 -307.713675 
L 462.6 -310.194487 
L 462.6 -312.675299 
L 462.6 -315.156111 
L 462.6 -317.636923 
L 462.6 -320.117735 
L 462.6 -322.598547 
L 462.6 -325.079359 
L 462.6 -327.560171 
L 462.6 -330.040983 
L 462.6 -332.521795 
L 463.781339 -332.521795 
L 463.781339 -332.521795 
L 464.01414 -330.040983 
L 464.27959 -327.560171 
L 464.57941 -325.079359 
L 464.914848 -322.598547 
L 465.286591 -320.117735 
L 465.694686 -317.636923 
L 466.138492 -315.156111 
L 466.616654 -312.675299 
L 467.127117 -310.194487 
L 467.667176 -307.713675 
L 468.233568 -305.232863 
L 468.822602 -302.752051 
L 469.430325 -300.271239 
L 470.052713 -297.790427 
L 470.685879 -295.309615 
L 471.32629 -292.828803 
L 471.970969 -290.347991 
L 472.617674 -287.867179 
L 473.265039 -285.386367 
L 473.912663 -282.905555 
L 474.561139 -280.424743 
L 475.212013 -277.943931 
L 475.867686 -275.463119 
L 476.531241 -272.982307 
L 477.20623 -270.501495 
L 477.896416 -268.020683 
L 478.605501 -265.539871 
L 479.336851 -263.059059 
L 480.093246 -260.578247 
L 480.876674 -258.097434 
L 481.688183 -255.616622 
L 482.527804 -253.13581 
L 483.394557 -250.654998 
L 484.286526 -248.174186 
L 485.201017 -245.693374 
L 486.134765 -243.212562 
L 487.084177 -240.73175 
L 488.045597 -238.250938 
L 489.015558 -235.770126 
L 489.990992 -233.289314 
L 490.969396 -230.808502 
L 491.948905 -228.32769 
L 492.928298 -225.846878 
L 493.90689 -223.366066 
L 494.884356 -220.885254 
L 495.860468 -218.404442 
L 496.834772 -215.92363 
L 497.806242 -213.442818 
L 498.772913 -210.962006 
L 499.731556 -208.481194 
L 500.677384 -206.000382 
L 501.603859 -203.51957 
L 502.502577 -201.038758 
L 503.363285 -198.557946 
L 504.174005 -196.077134 
L 504.921284 -193.596322 
L 505.59055 -191.11551 
L 506.166563 -188.634698 
L 506.633937 -186.153886 
L 506.977699 -183.673074 
L 507.183865 -181.192262 
L 507.24 -178.71145 
L 507.13573 -176.230638 
L 506.863182 -173.749826 
L 506.41733 -171.269014 
L 505.796238 -168.788202 
L 505.001183 -166.30739 
L 504.036664 -163.826578 
L 502.910289 -161.345766 
L 501.632566 -158.864953 
L 500.216597 -156.384141 
L 498.677704 -153.903329 
L 497.032997 -151.422517 
L 495.300913 -148.941705 
L 493.500735 -146.460893 
L 491.652122 -143.980081 
L 489.774661 -141.499269 
L 487.887442 -139.018457 
L 486.008691 -136.537645 
L 484.155449 -134.056833 
L 482.343306 -131.576021 
L 480.586194 -129.095209 
L 478.896243 -126.614397 
L 477.283686 -124.133585 
L 475.756819 -121.652773 
L 474.322011 -119.171961 
L 472.983754 -116.691149 
L 471.74475 -114.210337 
L 470.606035 -111.729525 
L 469.567119 -109.248713 
L 468.626153 -106.767901 
L 467.780109 -104.287089 
L 467.024963 -101.806277 
L 466.355889 -99.325465 
L 465.76744 -96.844653 
L 465.253735 -94.363841 
L 464.808622 -91.883029 
L 464.425838 -89.402217 
L 464.099144 -86.921405 
z
" id="mf12f64da84" style="stroke:#595959;stroke-width:1.75;"/>
    </defs>
    <g clip-path="url(#pf810d5fcc7)">
     <use style="fill:#e79676;stroke:#595959;stroke-width:1.75;" x="0.0" xlink:href="#mf12f64da84" y="396.0"/>
    </g>
   </g>
   <g id="patch_3">
    <path clip-path="url(#pf810d5fcc7)" d="M 127.8 277.2 
L 127.8 277.2 
L 127.8 277.2 
L 127.8 277.2 
z
" style="fill:#72b7a1;stroke:#595959;stroke-linejoin:miter;stroke-width:0.875;"/>
   </g>
   <g id="patch_4">
    <path clip-path="url(#pf810d5fcc7)" d="M 127.8 277.2 
L 127.8 277.2 
L 127.8 277.2 
L 127.8 277.2 
z
" style="fill:#e79676;stroke:#595959;stroke-linejoin:miter;stroke-width:0.875;"/>
   </g>
   <g id="line2d_36">
    <path clip-path="url(#pf810d5fcc7)" d="M 83.838598 209.9196 
L 127.8 209.9196 
" style="fill:none;stroke:#595959;stroke-linecap:round;stroke-width:0.875;"/>
   </g>
   <g id="line2d_37">
    <path clip-path="url(#pf810d5fcc7)" d="M 94.520055 236.2536 
L 127.8 236.2536 
" style="fill:none;stroke:#595959;stroke-linecap:round;stroke-width:0.875;"/>
   </g>
   <g id="line2d_38">
    <path clip-path="url(#pf810d5fcc7)" d="M 91.789189 194.0004 
L 127.8 194.0004 
" style="fill:none;stroke:#595959;stroke-linecap:round;stroke-width:0.875;"/>
   </g>
   <g id="line2d_39">
    <path clip-path="url(#pf810d5fcc7)" d="M 97.808113 183.4272 
L 127.8 183.4272 
" style="fill:none;stroke:#595959;stroke-linecap:round;stroke-width:0.875;"/>
   </g>
   <g id="line2d_40">
    <path clip-path="url(#pf810d5fcc7)" d="M 100.521885 179.8236 
L 127.8 179.8236 
" style="fill:none;stroke:#595959;stroke-linecap:round;stroke-width:0.875;"/>
   </g>
   <g id="line2d_41">
    <path clip-path="url(#pf810d5fcc7)" d="M 101.399341 177.0516 
L 127.8 177.0516 
" style="fill:none;stroke:#595959;stroke-linecap:round;stroke-width:0.875;"/>
   </g>
   <g id="line2d_42">
    <path clip-path="url(#pf810d5fcc7)" d="M 101.533199 242.4708 
L 127.8 242.4708 
" style="fill:none;stroke:#595959;stroke-linecap:round;stroke-width:0.875;"/>
   </g>
   <g id="line2d_43">
    <path clip-path="url(#pf810d5fcc7)" d="M 104.827308 170.7552 
L 127.8 170.7552 
" style="fill:none;stroke:#595959;stroke-linecap:round;stroke-width:0.875;"/>
   </g>
   <g id="line2d_44">
    <path clip-path="url(#pf810d5fcc7)" d="M 83.954161 217.6416 
L 127.8 217.6416 
" style="fill:none;stroke:#595959;stroke-linecap:round;stroke-width:0.875;"/>
   </g>
   <g id="line2d_45">
    <path clip-path="url(#pf810d5fcc7)" d="M 84.334531 218.6712 
L 127.8 218.6712 
" style="fill:none;stroke:#595959;stroke-linecap:round;stroke-width:0.875;"/>
   </g>
   <g id="line2d_46">
    <path clip-path="url(#pf810d5fcc7)" d="M 96.136115 236.5308 
L 127.8 236.5308 
" style="fill:none;stroke:#595959;stroke-linecap:round;stroke-width:0.875;"/>
   </g>
   <g id="line2d_47">
    <path clip-path="url(#pf810d5fcc7)" d="M 117.60148 137.5704 
L 127.8 137.5704 
" style="fill:none;stroke:#595959;stroke-linecap:round;stroke-width:0.875;"/>
   </g>
   <g id="line2d_48">
    <path clip-path="url(#pf810d5fcc7)" d="M 83.709485 216.1368 
L 127.8 216.1368 
" style="fill:none;stroke:#595959;stroke-linecap:round;stroke-width:0.875;"/>
   </g>
   <g id="line2d_49">
    <path clip-path="url(#pf810d5fcc7)" d="M 85.973351 204.2172 
L 127.8 204.2172 
" style="fill:none;stroke:#595959;stroke-linecap:round;stroke-width:0.875;"/>
   </g>
   <g id="line2d_50">
    <path clip-path="url(#pf810d5fcc7)" d="M 84.334531 218.4732 
L 127.8 218.4732 
" style="fill:none;stroke:#595959;stroke-linecap:round;stroke-width:0.875;"/>
   </g>
   <g id="line2d_51">
    <path clip-path="url(#pf810d5fcc7)" d="M 92.841817 191.7432 
L 127.8 191.7432 
" style="fill:none;stroke:#595959;stroke-linecap:round;stroke-width:0.875;"/>
   </g>
   <g id="line2d_52">
    <path clip-path="url(#pf810d5fcc7)" d="M 94.520055 236.2932 
L 127.8 236.2932 
" style="fill:none;stroke:#595959;stroke-linecap:round;stroke-width:0.875;"/>
   </g>
   <g id="line2d_53">
    <path clip-path="url(#pf810d5fcc7)" d="M 83.648974 212.6916 
L 127.8 212.6916 
" style="fill:none;stroke:#595959;stroke-linecap:round;stroke-width:0.875;"/>
   </g>
   <g id="line2d_54">
    <path clip-path="url(#pf810d5fcc7)" d="M 83.838598 209.9988 
L 127.8 209.9988 
" style="fill:none;stroke:#595959;stroke-linecap:round;stroke-width:0.875;"/>
   </g>
   <g id="line2d_55">
    <path clip-path="url(#pf810d5fcc7)" d="M 84.64755 208.0584 
L 127.8 208.0584 
" style="fill:none;stroke:#595959;stroke-linecap:round;stroke-width:0.875;"/>
   </g>
   <g id="line2d_56">
    <path clip-path="url(#pf810d5fcc7)" d="M 85.475279 221.9976 
L 127.8 221.9976 
" style="fill:none;stroke:#595959;stroke-linecap:round;stroke-width:0.875;"/>
   </g>
   <g id="line2d_57">
    <path clip-path="url(#pf810d5fcc7)" d="M 97.850946 238.8672 
L 127.8 238.8672 
" style="fill:none;stroke:#595959;stroke-linecap:round;stroke-width:0.875;"/>
   </g>
   <g id="line2d_58">
    <path clip-path="url(#pf810d5fcc7)" d="M 111.41306 156.816 
L 127.8 156.816 
" style="fill:none;stroke:#595959;stroke-linecap:round;stroke-width:0.875;"/>
   </g>
   <g id="line2d_59">
    <path clip-path="url(#pf810d5fcc7)" d="M 85.973351 204.7716 
L 127.8 204.7716 
" style="fill:none;stroke:#595959;stroke-linecap:round;stroke-width:0.875;"/>
   </g>
   <g id="line2d_60">
    <path clip-path="url(#pf810d5fcc7)" d="M 94.90063 189.1692 
L 127.8 189.1692 
" style="fill:none;stroke:#595959;stroke-linecap:round;stroke-width:0.875;"/>
   </g>
   <g id="line2d_61">
    <path clip-path="url(#pf810d5fcc7)" d="M 113.617819 148.896 
L 127.8 148.896 
" style="fill:none;stroke:#595959;stroke-linecap:round;stroke-width:0.875;"/>
   </g>
   <g id="line2d_62">
    <path clip-path="url(#pf810d5fcc7)" d="M 108.039271 164.142 
L 127.8 164.142 
" style="fill:none;stroke:#595959;stroke-linecap:round;stroke-width:0.875;"/>
   </g>
   <g id="line2d_63">
    <path clip-path="url(#pf810d5fcc7)" d="M 85.251847 205.7616 
L 127.8 205.7616 
" style="fill:none;stroke:#595959;stroke-linecap:round;stroke-width:0.875;"/>
   </g>
   <g id="line2d_64">
    <path clip-path="url(#pf810d5fcc7)" d="M 88.051326 227.5416 
L 127.8 227.5416 
" style="fill:none;stroke:#595959;stroke-linecap:round;stroke-width:0.875;"/>
   </g>
   <g id="line2d_65">
    <path clip-path="url(#pf810d5fcc7)" d="M 96.136115 236.4516 
L 127.8 236.4516 
" style="fill:none;stroke:#595959;stroke-linecap:round;stroke-width:0.875;"/>
   </g>
   <g id="line2d_66">
    <path clip-path="url(#pf810d5fcc7)" d="M 116.969655 139.3524 
L 127.8 139.3524 
" style="fill:none;stroke:#595959;stroke-linecap:round;stroke-width:0.875;"/>
   </g>
   <g id="line2d_67">
    <path clip-path="url(#pf810d5fcc7)" d="M 96.136115 237.8376 
L 127.8 237.8376 
" style="fill:none;stroke:#595959;stroke-linecap:round;stroke-width:0.875;"/>
   </g>
   <g id="line2d_68">
    <path clip-path="url(#pf810d5fcc7)" d="M 102.268122 175.9824 
L 127.8 175.9824 
" style="fill:none;stroke:#595959;stroke-linecap:round;stroke-width:0.875;"/>
   </g>
   <g id="line2d_69">
    <path clip-path="url(#pf810d5fcc7)" d="M 87.702728 200.0196 
L 127.8 200.0196 
" style="fill:none;stroke:#595959;stroke-linecap:round;stroke-width:0.875;"/>
   </g>
   <g id="line2d_70">
    <path clip-path="url(#pf810d5fcc7)" d="M 200.507571 195.426 
L 239.4 195.426 
" style="fill:none;stroke:#595959;stroke-linecap:round;stroke-width:0.875;"/>
   </g>
   <g id="line2d_71">
    <path clip-path="url(#pf810d5fcc7)" d="M 195.2064 206.2368 
L 239.4 206.2368 
" style="fill:none;stroke:#595959;stroke-linecap:round;stroke-width:0.875;"/>
   </g>
   <g id="line2d_72">
    <path clip-path="url(#pf810d5fcc7)" d="M 200.507571 196.8516 
L 239.4 196.8516 
" style="fill:none;stroke:#595959;stroke-linecap:round;stroke-width:0.875;"/>
   </g>
   <g id="line2d_73">
    <path clip-path="url(#pf810d5fcc7)" d="M 199.700977 214.7508 
L 239.4 214.7508 
" style="fill:none;stroke:#595959;stroke-linecap:round;stroke-width:0.875;"/>
   </g>
   <g id="line2d_74">
    <path clip-path="url(#pf810d5fcc7)" d="M 237.039503 121.0968 
L 239.4 121.0968 
" style="fill:none;stroke:#595959;stroke-linecap:round;stroke-width:0.875;"/>
   </g>
   <g id="line2d_75">
    <path clip-path="url(#pf810d5fcc7)" d="M 198.522608 198.7128 
L 239.4 198.7128 
" style="fill:none;stroke:#595959;stroke-linecap:round;stroke-width:0.875;"/>
   </g>
   <g id="line2d_76">
    <path clip-path="url(#pf810d5fcc7)" d="M 195.2064 206.6724 
L 239.4 206.6724 
" style="fill:none;stroke:#595959;stroke-linecap:round;stroke-width:0.875;"/>
   </g>
   <g id="line2d_77">
    <path clip-path="url(#pf810d5fcc7)" d="M 209.108174 224.2548 
L 239.4 224.2548 
" style="fill:none;stroke:#595959;stroke-linecap:round;stroke-width:0.875;"/>
   </g>
   <g id="line2d_78">
    <path clip-path="url(#pf810d5fcc7)" d="M 211.715744 226.9476 
L 239.4 226.9476 
" style="fill:none;stroke:#595959;stroke-linecap:round;stroke-width:0.875;"/>
   </g>
   <g id="line2d_79">
    <path clip-path="url(#pf810d5fcc7)" d="M 205.441071 191.268 
L 239.4 191.268 
" style="fill:none;stroke:#595959;stroke-linecap:round;stroke-width:0.875;"/>
   </g>
   <g id="line2d_80">
    <path clip-path="url(#pf810d5fcc7)" d="M 198.522608 199.386 
L 239.4 199.386 
" style="fill:none;stroke:#595959;stroke-linecap:round;stroke-width:0.875;"/>
   </g>
   <g id="line2d_81">
    <path clip-path="url(#pf810d5fcc7)" d="M 225.793888 239.382 
L 239.4 239.382 
" style="fill:none;stroke:#595959;stroke-linecap:round;stroke-width:0.875;"/>
   </g>
   <g id="line2d_82">
    <path clip-path="url(#pf810d5fcc7)" d="M 195.273689 204.534 
L 239.4 204.534 
" style="fill:none;stroke:#595959;stroke-linecap:round;stroke-width:0.875;"/>
   </g>
   <g id="line2d_83">
    <path clip-path="url(#pf810d5fcc7)" d="M 201.763718 217.5624 
L 239.4 217.5624 
" style="fill:none;stroke:#595959;stroke-linecap:round;stroke-width:0.875;"/>
   </g>
   <g id="line2d_84">
    <path clip-path="url(#pf810d5fcc7)" d="M 200.507571 195.2676 
L 239.4 195.2676 
" style="fill:none;stroke:#595959;stroke-linecap:round;stroke-width:0.875;"/>
   </g>
   <g id="line2d_85">
    <path clip-path="url(#pf810d5fcc7)" d="M 195.2064 206.7912 
L 239.4 206.7912 
" style="fill:none;stroke:#595959;stroke-linecap:round;stroke-width:0.875;"/>
   </g>
   <g id="line2d_86">
    <path clip-path="url(#pf810d5fcc7)" d="M 219.439441 181.9224 
L 239.4 181.9224 
" style="fill:none;stroke:#595959;stroke-linecap:round;stroke-width:0.875;"/>
   </g>
   <g id="line2d_87">
    <path clip-path="url(#pf810d5fcc7)" d="M 197.95097 212.6124 
L 239.4 212.6124 
" style="fill:none;stroke:#595959;stroke-linecap:round;stroke-width:0.875;"/>
   </g>
   <g id="line2d_88">
    <path clip-path="url(#pf810d5fcc7)" d="M 195.651668 210.1572 
L 239.4 210.1572 
" style="fill:none;stroke:#595959;stroke-linecap:round;stroke-width:0.875;"/>
   </g>
   <g id="line2d_89">
    <path clip-path="url(#pf810d5fcc7)" d="M 195.861368 203.1876 
L 239.4 203.1876 
" style="fill:none;stroke:#595959;stroke-linecap:round;stroke-width:0.875;"/>
   </g>
   <g id="line2d_90">
    <path clip-path="url(#pf810d5fcc7)" d="M 235.620462 153.3708 
L 239.4 153.3708 
" style="fill:none;stroke:#595959;stroke-linecap:round;stroke-width:0.875;"/>
   </g>
   <g id="line2d_91">
    <path clip-path="url(#pf810d5fcc7)" d="M 197.95097 213.6816 
L 239.4 213.6816 
" style="fill:none;stroke:#595959;stroke-linecap:round;stroke-width:0.875;"/>
   </g>
   <g id="line2d_92">
    <path clip-path="url(#pf810d5fcc7)" d="M 227.998453 172.6164 
L 239.4 172.6164 
" style="fill:none;stroke:#595959;stroke-linecap:round;stroke-width:0.875;"/>
   </g>
   <g id="line2d_93">
    <path clip-path="url(#pf810d5fcc7)" d="M 237.243579 86.0508 
L 239.4 86.0508 
" style="fill:none;stroke:#595959;stroke-linecap:round;stroke-width:0.875;"/>
   </g>
   <g id="line2d_94">
    <path clip-path="url(#pf810d5fcc7)" d="M 195.2064 207.5436 
L 239.4 207.5436 
" style="fill:none;stroke:#595959;stroke-linecap:round;stroke-width:0.875;"/>
   </g>
   <g id="line2d_95">
    <path clip-path="url(#pf810d5fcc7)" d="M 198.522608 197.6832 
L 239.4 197.6832 
" style="fill:none;stroke:#595959;stroke-linecap:round;stroke-width:0.875;"/>
   </g>
   <g id="line2d_96">
    <path clip-path="url(#pf810d5fcc7)" d="M 196.581603 212.058 
L 239.4 212.058 
" style="fill:none;stroke:#595959;stroke-linecap:round;stroke-width:0.875;"/>
   </g>
   <g id="line2d_97">
    <path clip-path="url(#pf810d5fcc7)" d="M 200.507571 197.0892 
L 239.4 197.0892 
" style="fill:none;stroke:#595959;stroke-linecap:round;stroke-width:0.875;"/>
   </g>
   <g id="line2d_98">
    <path clip-path="url(#pf810d5fcc7)" d="M 214.307141 229.6008 
L 239.4 229.6008 
" style="fill:none;stroke:#595959;stroke-linecap:round;stroke-width:0.875;"/>
   </g>
   <g id="line2d_99">
    <path clip-path="url(#pf810d5fcc7)" d="M 195.651668 209.6028 
L 239.4 209.6028 
" style="fill:none;stroke:#595959;stroke-linecap:round;stroke-width:0.875;"/>
   </g>
   <g id="line2d_100">
    <path clip-path="url(#pf810d5fcc7)" d="M 204.066821 218.8692 
L 239.4 218.8692 
" style="fill:none;stroke:#595959;stroke-linecap:round;stroke-width:0.875;"/>
   </g>
   <g id="line2d_101">
    <path clip-path="url(#pf810d5fcc7)" d="M 221.590856 235.5804 
L 239.4 235.5804 
" style="fill:none;stroke:#595959;stroke-linecap:round;stroke-width:0.875;"/>
   </g>
   <g id="line2d_102">
    <path clip-path="url(#pf810d5fcc7)" d="M 202.840875 194.3568 
L 239.4 194.3568 
" style="fill:none;stroke:#595959;stroke-linecap:round;stroke-width:0.875;"/>
   </g>
   <g id="line2d_103">
    <path clip-path="url(#pf810d5fcc7)" d="M 239.4 126.6804 
L 244.361096 126.6804 
" style="fill:none;stroke:#595959;stroke-linecap:round;stroke-width:0.875;"/>
   </g>
   <g id="line2d_104">
    <path clip-path="url(#pf810d5fcc7)" d="M 239.4 232.6896 
L 253.266867 232.6896 
" style="fill:none;stroke:#595959;stroke-linecap:round;stroke-width:0.875;"/>
   </g>
   <g id="line2d_105">
    <path clip-path="url(#pf810d5fcc7)" d="M 239.4 196.8516 
L 256.003223 196.8516 
" style="fill:none;stroke:#595959;stroke-linecap:round;stroke-width:0.875;"/>
   </g>
   <g id="line2d_106">
    <path clip-path="url(#pf810d5fcc7)" d="M 239.4 222.5124 
L 255.520195 222.5124 
" style="fill:none;stroke:#595959;stroke-linecap:round;stroke-width:0.875;"/>
   </g>
   <g id="line2d_107">
    <path clip-path="url(#pf810d5fcc7)" d="M 239.4 233.5608 
L 253.266867 233.5608 
" style="fill:none;stroke:#595959;stroke-linecap:round;stroke-width:0.875;"/>
   </g>
   <g id="line2d_108">
    <path clip-path="url(#pf810d5fcc7)" d="M 239.4 204.7716 
L 256.730843 204.7716 
" style="fill:none;stroke:#595959;stroke-linecap:round;stroke-width:0.875;"/>
   </g>
   <g id="line2d_109">
    <path clip-path="url(#pf810d5fcc7)" d="M 239.4 265.0428 
L 245.707911 265.0428 
" style="fill:none;stroke:#595959;stroke-linecap:round;stroke-width:0.875;"/>
   </g>
   <g id="line2d_110">
    <path clip-path="url(#pf810d5fcc7)" d="M 239.4 217.7604 
L 256.272012 217.7604 
" style="fill:none;stroke:#595959;stroke-linecap:round;stroke-width:0.875;"/>
   </g>
   <g id="line2d_111">
    <path clip-path="url(#pf810d5fcc7)" d="M 239.4 170.8344 
L 250.791164 170.8344 
" style="fill:none;stroke:#595959;stroke-linecap:round;stroke-width:0.875;"/>
   </g>
   <g id="line2d_112">
    <path clip-path="url(#pf810d5fcc7)" d="M 239.4 177.0912 
L 252.151372 177.0912 
" style="fill:none;stroke:#595959;stroke-linecap:round;stroke-width:0.875;"/>
   </g>
   <g id="line2d_113">
    <path clip-path="url(#pf810d5fcc7)" d="M 239.4 206.2368 
L 256.8096 206.2368 
" style="fill:none;stroke:#595959;stroke-linecap:round;stroke-width:0.875;"/>
   </g>
   <g id="line2d_114">
    <path clip-path="url(#pf810d5fcc7)" d="M 239.4 101.772 
L 243.320814 101.772 
" style="fill:none;stroke:#595959;stroke-linecap:round;stroke-width:0.875;"/>
   </g>
   <g id="line2d_115">
    <path clip-path="url(#pf810d5fcc7)" d="M 239.4 188.4168 
L 254.635082 188.4168 
" style="fill:none;stroke:#595959;stroke-linecap:round;stroke-width:0.875;"/>
   </g>
   <g id="line2d_116">
    <path clip-path="url(#pf810d5fcc7)" d="M 328.041478 169.488 
L 351 169.488 
" style="fill:none;stroke:#595959;stroke-linecap:round;stroke-width:0.875;"/>
   </g>
   <g id="line2d_117">
    <path clip-path="url(#pf810d5fcc7)" d="M 313.727157 187.0704 
L 351 187.0704 
" style="fill:none;stroke:#595959;stroke-linecap:round;stroke-width:0.875;"/>
   </g>
   <g id="line2d_118">
    <path clip-path="url(#pf810d5fcc7)" d="M 307.282303 208.7316 
L 351 208.7316 
" style="fill:none;stroke:#595959;stroke-linecap:round;stroke-width:0.875;"/>
   </g>
   <g id="line2d_119">
    <path clip-path="url(#pf810d5fcc7)" d="M 307.769175 211.2264 
L 351 211.2264 
" style="fill:none;stroke:#595959;stroke-linecap:round;stroke-width:0.875;"/>
   </g>
   <g id="line2d_120">
    <path clip-path="url(#pf810d5fcc7)" d="M 330.64232 237.3228 
L 351 237.3228 
" style="fill:none;stroke:#595959;stroke-linecap:round;stroke-width:0.875;"/>
   </g>
   <g id="line2d_121">
    <path clip-path="url(#pf810d5fcc7)" d="M 309.234843 213.9192 
L 351 213.9192 
" style="fill:none;stroke:#595959;stroke-linecap:round;stroke-width:0.875;"/>
   </g>
   <g id="line2d_122">
    <path clip-path="url(#pf810d5fcc7)" d="M 341.934612 139.2732 
L 351 139.2732 
" style="fill:none;stroke:#595959;stroke-linecap:round;stroke-width:0.875;"/>
   </g>
   <g id="line2d_123">
    <path clip-path="url(#pf810d5fcc7)" d="M 318.583046 225.6012 
L 351 225.6012 
" style="fill:none;stroke:#595959;stroke-linecap:round;stroke-width:0.875;"/>
   </g>
   <g id="line2d_124">
    <path clip-path="url(#pf810d5fcc7)" d="M 306.811526 204.8112 
L 351 204.8112 
" style="fill:none;stroke:#595959;stroke-linecap:round;stroke-width:0.875;"/>
   </g>
   <g id="line2d_125">
    <path clip-path="url(#pf810d5fcc7)" d="M 319.960246 179.3484 
L 351 179.3484 
" style="fill:none;stroke:#595959;stroke-linecap:round;stroke-width:0.875;"/>
   </g>
   <g id="line2d_126">
    <path clip-path="url(#pf810d5fcc7)" d="M 309.750816 193.4064 
L 351 193.4064 
" style="fill:none;stroke:#595959;stroke-linecap:round;stroke-width:0.875;"/>
   </g>
   <g id="line2d_127">
    <path clip-path="url(#pf810d5fcc7)" d="M 351 200.2176 
L 358.05383 200.2176 
" style="fill:none;stroke:#595959;stroke-linecap:round;stroke-width:0.875;"/>
   </g>
   <g id="line2d_128">
    <path clip-path="url(#pf810d5fcc7)" d="M 351 147.7872 
L 358.05383 147.7872 
" style="fill:none;stroke:#595959;stroke-linecap:round;stroke-width:0.875;"/>
   </g>
   <g id="line2d_129">
    <path clip-path="url(#pf810d5fcc7)" d="M 447.917071 188.1396 
L 462.6 188.1396 
" style="fill:none;stroke:#595959;stroke-linecap:round;stroke-width:0.875;"/>
   </g>
   <g id="line2d_130">
    <path clip-path="url(#pf810d5fcc7)" d="M 448.006985 187.11 
L 462.6 187.11 
" style="fill:none;stroke:#595959;stroke-linecap:round;stroke-width:0.875;"/>
   </g>
   <g id="line2d_131">
    <path clip-path="url(#pf810d5fcc7)" d="M 454.255914 227.8584 
L 462.6 227.8584 
" style="fill:none;stroke:#595959;stroke-linecap:round;stroke-width:0.875;"/>
   </g>
   <g id="line2d_132">
    <path clip-path="url(#pf810d5fcc7)" d="M 462.6 162.4788 
L 489.717082 162.4788 
" style="fill:none;stroke:#595959;stroke-linecap:round;stroke-width:0.875;"/>
   </g>
   <g id="line2d_133">
    <path clip-path="url(#pf810d5fcc7)" d="M 462.6 254.43 
L 489.502914 254.43 
" style="fill:none;stroke:#595959;stroke-linecap:round;stroke-width:0.875;"/>
   </g>
   <g id="line2d_134">
    <path clip-path="url(#pf810d5fcc7)" d="M 462.6 212.5728 
L 506.533922 212.5728 
" style="fill:none;stroke:#595959;stroke-linecap:round;stroke-width:0.875;"/>
   </g>
   <g id="line2d_135">
    <path clip-path="url(#pf810d5fcc7)" d="M 462.6 118.1268 
L 475.085893 118.1268 
" style="fill:none;stroke:#595959;stroke-linecap:round;stroke-width:0.875;"/>
   </g>
   <g id="line2d_136">
    <path clip-path="url(#pf810d5fcc7)" d="M 462.6 169.1712 
L 492.625015 169.1712 
" style="fill:none;stroke:#595959;stroke-linecap:round;stroke-width:0.875;"/>
   </g>
   <g id="line2d_137">
    <path clip-path="url(#pf810d5fcc7)" d="M 462.6 229.5612 
L 504.577172 229.5612 
" style="fill:none;stroke:#595959;stroke-linecap:round;stroke-width:0.875;"/>
   </g>
   <g id="line2d_138">
    <path clip-path="url(#pf810d5fcc7)" d="M 462.6 194.0004 
L 502.103551 194.0004 
" style="fill:none;stroke:#595959;stroke-linecap:round;stroke-width:0.875;"/>
   </g>
   <g id="line2d_139">
    <path clip-path="url(#pf810d5fcc7)" d="M 462.6 232.254 
L 503.622298 232.254 
" style="fill:none;stroke:#595959;stroke-linecap:round;stroke-width:0.875;"/>
   </g>
   <g id="line2d_140">
    <path clip-path="url(#pf810d5fcc7)" d="M 462.6 216.2952 
L 506.7936 216.2952 
" style="fill:none;stroke:#595959;stroke-linecap:round;stroke-width:0.875;"/>
   </g>
   <g id="patch_5">
    <path d="M 72 39.6 
L 518.4 39.6 
" style="fill:none;"/>
   </g>
   <g id="patch_6">
    <path d="M 518.4 356.4 
L 518.4 39.6 
" style="fill:none;"/>
   </g>
   <g id="patch_7">
    <path d="M 72 356.4 
L 518.4 356.4 
" style="fill:none;"/>
   </g>
   <g id="patch_8">
    <path d="M 72 356.4 
L 72 39.6 
" style="fill:none;"/>
   </g>
   <g id="text_16">
    <!-- violin plot -->
    <defs>
     <path d="M 21 0 
L 1.265625 51.859375 
L 10.546875 51.859375 
L 21.6875 20.796875 
Q 23.484375 15.765625 25 10.359375 
Q 26.171875 14.453125 28.265625 20.21875 
L 39.796875 51.859375 
L 48.828125 51.859375 
L 29.203125 0 
z
" id="ArialMT-76"/>
     <path d="M 6.59375 -19.875 
L 6.59375 51.859375 
L 14.59375 51.859375 
L 14.59375 45.125 
Q 17.4375 49.078125 21 51.046875 
Q 24.5625 53.03125 29.640625 53.03125 
Q 36.28125 53.03125 41.359375 49.609375 
Q 46.4375 46.1875 49.015625 39.953125 
Q 51.609375 33.734375 51.609375 26.3125 
Q 51.609375 18.359375 48.75 11.984375 
Q 45.90625 5.609375 40.453125 2.21875 
Q 35.015625 -1.171875 29 -1.171875 
Q 24.609375 -1.171875 21.109375 0.6875 
Q 17.625 2.546875 15.375 5.375 
L 15.375 -19.875 
z
M 14.546875 25.640625 
Q 14.546875 15.625 18.59375 10.84375 
Q 22.65625 6.0625 28.421875 6.0625 
Q 34.28125 6.0625 38.453125 11.015625 
Q 42.625 15.96875 42.625 26.375 
Q 42.625 36.28125 38.546875 41.203125 
Q 34.46875 46.140625 28.8125 46.140625 
Q 23.1875 46.140625 18.859375 40.890625 
Q 14.546875 35.640625 14.546875 25.640625 
" id="ArialMT-70"/>
     <path id="ArialMT-20"/>
    </defs>
    <g style="fill:#262626;" transform="translate(270.1875 34.6)scale(0.12 -0.12)">
     <use xlink:href="#ArialMT-76"/>
     <use x="50.0" xlink:href="#ArialMT-69"/>
     <use x="72.216796875" xlink:href="#ArialMT-6f"/>
     <use x="127.83203125" xlink:href="#ArialMT-6c"/>
     <use x="150.048828125" xlink:href="#ArialMT-69"/>
     <use x="172.265625" xlink:href="#ArialMT-6e"/>
     <use x="227.880859375" xlink:href="#ArialMT-20"/>
     <use x="255.6640625" xlink:href="#ArialMT-70"/>
     <use x="311.279296875" xlink:href="#ArialMT-6c"/>
     <use x="333.49609375" xlink:href="#ArialMT-6f"/>
     <use x="389.111328125" xlink:href="#ArialMT-74"/>
    </g>
   </g>
   <g id="legend_1">
    <g id="text_17">
     <!-- smoker -->
     <defs>
      <path d="M 6.640625 0 
L 6.640625 71.578125 
L 15.4375 71.578125 
L 15.4375 30.765625 
L 36.234375 51.859375 
L 47.609375 51.859375 
L 27.78125 32.625 
L 49.609375 0 
L 38.765625 0 
L 21.625 26.515625 
L 15.4375 20.5625 
L 15.4375 0 
z
" id="ArialMT-6b"/>
      <path d="M 6.59375 0 
L 6.59375 51.859375 
L 14.453125 51.859375 
L 14.453125 44.578125 
Q 16.890625 48.390625 20.9375 50.703125 
Q 25 53.03125 30.171875 53.03125 
Q 35.9375 53.03125 39.625 50.640625 
Q 43.3125 48.25 44.828125 43.953125 
Q 50.984375 53.03125 60.84375 53.03125 
Q 68.5625 53.03125 72.703125 48.75 
Q 76.859375 44.484375 76.859375 35.59375 
L 76.859375 0 
L 68.109375 0 
L 68.109375 32.671875 
Q 68.109375 37.9375 67.25 40.25 
Q 66.40625 42.578125 64.15625 43.984375 
Q 61.921875 45.40625 58.890625 45.40625 
Q 53.421875 45.40625 49.796875 41.765625 
Q 46.1875 38.140625 46.1875 30.125 
L 46.1875 0 
L 37.40625 0 
L 37.40625 33.6875 
Q 37.40625 39.546875 35.25 42.46875 
Q 33.109375 45.40625 28.21875 45.40625 
Q 24.515625 45.40625 21.359375 43.453125 
Q 18.21875 41.5 16.796875 37.734375 
Q 15.375 33.984375 15.375 26.90625 
L 15.375 0 
z
" id="ArialMT-6d"/>
      <path d="M 42.09375 16.703125 
L 51.171875 15.578125 
Q 49.03125 7.625 43.21875 3.21875 
Q 37.40625 -1.171875 28.375 -1.171875 
Q 17 -1.171875 10.328125 5.828125 
Q 3.65625 12.84375 3.65625 25.484375 
Q 3.65625 38.578125 10.390625 45.796875 
Q 17.140625 53.03125 27.875 53.03125 
Q 38.28125 53.03125 44.875 45.953125 
Q 51.46875 38.875 51.46875 26.03125 
Q 51.46875 25.25 51.421875 23.6875 
L 12.75 23.6875 
Q 13.234375 15.140625 17.578125 10.59375 
Q 21.921875 6.0625 28.421875 6.0625 
Q 33.25 6.0625 36.671875 8.59375 
Q 40.09375 11.140625 42.09375 16.703125 
M 13.234375 30.90625 
L 42.1875 30.90625 
Q 41.609375 37.453125 38.875 40.71875 
Q 34.671875 45.796875 27.984375 45.796875 
Q 21.921875 45.796875 17.796875 41.75 
Q 13.671875 37.703125 13.234375 30.90625 
" id="ArialMT-65"/>
      <path d="M 3.078125 15.484375 
L 11.765625 16.84375 
Q 12.5 11.625 15.84375 8.84375 
Q 19.1875 6.0625 25.203125 6.0625 
Q 31.25 6.0625 34.171875 8.515625 
Q 37.109375 10.984375 37.109375 14.3125 
Q 37.109375 17.28125 34.515625 19 
Q 32.71875 20.171875 25.53125 21.96875 
Q 15.875 24.421875 12.140625 26.203125 
Q 8.40625 27.984375 6.46875 31.125 
Q 4.546875 34.28125 4.546875 38.09375 
Q 4.546875 41.546875 6.125 44.5 
Q 7.71875 47.46875 10.453125 49.421875 
Q 12.5 50.921875 16.03125 51.96875 
Q 19.578125 53.03125 23.640625 53.03125 
Q 29.734375 53.03125 34.34375 51.265625 
Q 38.96875 49.515625 41.15625 46.5 
Q 43.359375 43.5 44.1875 38.484375 
L 35.59375 37.3125 
Q 35.015625 41.3125 32.203125 43.546875 
Q 29.390625 45.796875 24.265625 45.796875 
Q 18.21875 45.796875 15.625 43.796875 
Q 13.03125 41.796875 13.03125 39.109375 
Q 13.03125 37.40625 14.109375 36.03125 
Q 15.1875 34.625 17.484375 33.6875 
Q 18.796875 33.203125 25.25 31.453125 
Q 34.578125 28.953125 38.25 27.359375 
Q 41.9375 25.78125 44.03125 22.75 
Q 46.140625 19.734375 46.140625 15.234375 
Q 46.140625 10.84375 43.578125 6.953125 
Q 41.015625 3.078125 36.171875 0.953125 
Q 31.34375 -1.171875 25.25 -1.171875 
Q 15.140625 -1.171875 9.84375 3.03125 
Q 4.546875 7.234375 3.078125 15.484375 
" id="ArialMT-73"/>
     </defs>
     <g style="fill:#262626;" transform="translate(471.466171875 55.2925546875)scale(0.0935 -0.0935)">
      <use xlink:href="#ArialMT-73"/>
      <use x="50.0" xlink:href="#ArialMT-6d"/>
      <use x="133.30078125" xlink:href="#ArialMT-6f"/>
      <use x="188.916015625" xlink:href="#ArialMT-6b"/>
      <use x="238.916015625" xlink:href="#ArialMT-65"/>
      <use x="294.53125" xlink:href="#ArialMT-72"/>
     </g>
    </g>
    <g id="patch_9">
     <path d="M 464.182812 69.30868 
L 484.182812 69.30868 
L 484.182812 62.30868 
L 464.182812 62.30868 
z
" style="fill:#72b7a1;stroke:#595959;stroke-linejoin:miter;stroke-width:0.875;"/>
    </g>
    <g id="text_18">
     <!-- No -->
     <defs>
      <path d="M 7.625 0 
L 7.625 71.578125 
L 17.328125 71.578125 
L 54.9375 15.375 
L 54.9375 71.578125 
L 64.015625 71.578125 
L 64.015625 0 
L 54.296875 0 
L 16.703125 56.25 
L 16.703125 0 
z
" id="ArialMT-4e"/>
     </defs>
     <g style="fill:#262626;" transform="translate(492.1828125 69.3086796875)scale(0.1 -0.1)">
      <use xlink:href="#ArialMT-4e"/>
      <use x="72.216796875" xlink:href="#ArialMT-6f"/>
     </g>
    </g>
    <g id="patch_10">
     <path d="M 464.182812 83.453992 
L 484.182812 83.453992 
L 484.182812 76.453992 
L 464.182812 76.453992 
z
" style="fill:#e79676;stroke:#595959;stroke-linejoin:miter;stroke-width:0.875;"/>
    </g>
    <g id="text_19">
     <!-- Yes -->
     <defs>
      <path d="M 27.875 0 
L 27.875 30.328125 
L 0.296875 71.578125 
L 11.8125 71.578125 
L 25.921875 50 
Q 29.828125 43.953125 33.203125 37.890625 
Q 36.421875 43.5 41.015625 50.53125 
L 54.890625 71.578125 
L 65.921875 71.578125 
L 37.359375 30.328125 
L 37.359375 0 
z
" id="ArialMT-59"/>
     </defs>
     <g style="fill:#262626;" transform="translate(492.1828125 83.4539921875)scale(0.1 -0.1)">
      <use xlink:href="#ArialMT-59"/>
      <use x="66.55859375" xlink:href="#ArialMT-65"/>
      <use x="122.173828125" xlink:href="#ArialMT-73"/>
     </g>
    </g>
   </g>
  </g>
 </g>
 <defs>
  <clipPath id="pf810d5fcc7">
   <rect height="316.8" width="446.4" x="72.0" y="39.6"/>
  </clipPath>
 </defs>
</svg>
