<?xml version="1.0" encoding="utf-8" standalone="no"?>
<!DOCTYPE svg PUBLIC "-//W3C//DTD SVG 1.1//EN"
  "http://www.w3.org/Graphics/SVG/1.1/DTD/svg11.dtd">
<!-- Created with matplotlib (http://matplotlib.org/) -->
<svg height="396pt" version="1.1" viewBox="0 0 576 396" width="576pt" xmlns="http://www.w3.org/2000/svg" xmlns:xlink="http://www.w3.org/1999/xlink">
 <defs>
  <style type="text/css">
*{stroke-linecap:butt;stroke-linejoin:round;stroke-miterlimit:100000;}
  </style>
 </defs>
 <g id="figure_1">
  <g id="patch_1">
   <path d="M 0 396 
L 576 396 
L 576 0 
L 0 0 
z
" style="fill:#ffffff;"/>
  </g>
  <g id="axes_1">
   <g id="patch_2">
    <path d="M 72 356.4 
L 518.4 356.4 
L 518.4 39.6 
L 72 39.6 
z
" style="fill:#ffffff;"/>
   </g>
   <g id="matplotlib.axis_1">
    <g id="xtick_1">
     <g id="line2d_1"/>
     <g id="line2d_2"/>
     <g id="text_1">
      <!-- Sun -->
      <defs>
       <path d="M 4.5 23 
L 13.421875 23.78125 
Q 14.0625 18.40625 16.375 14.96875 
Q 18.703125 11.53125 23.578125 9.40625 
Q 28.46875 7.28125 34.578125 7.28125 
Q 39.984375 7.28125 44.140625 8.890625 
Q 48.296875 10.5 50.3125 13.296875 
Q 52.34375 16.109375 52.34375 19.4375 
Q 52.34375 22.796875 50.390625 25.3125 
Q 48.4375 27.828125 43.953125 29.546875 
Q 41.0625 30.671875 31.203125 33.03125 
Q 21.34375 35.40625 17.390625 37.5 
Q 12.25 40.1875 9.734375 44.15625 
Q 7.234375 48.140625 7.234375 53.078125 
Q 7.234375 58.5 10.296875 63.203125 
Q 13.375 67.921875 19.28125 70.359375 
Q 25.203125 72.796875 32.421875 72.796875 
Q 40.375 72.796875 46.453125 70.234375 
Q 52.546875 67.671875 55.8125 62.6875 
Q 59.078125 57.71875 59.328125 51.421875 
L 50.25 50.734375 
Q 49.515625 57.515625 45.28125 60.984375 
Q 41.0625 64.453125 32.8125 64.453125 
Q 24.21875 64.453125 20.28125 61.296875 
Q 16.359375 58.15625 16.359375 53.71875 
Q 16.359375 49.859375 19.140625 47.359375 
Q 21.875 44.875 33.421875 42.265625 
Q 44.96875 39.65625 49.265625 37.703125 
Q 55.515625 34.8125 58.484375 30.390625 
Q 61.46875 25.984375 61.46875 20.21875 
Q 61.46875 14.5 58.203125 9.4375 
Q 54.9375 4.390625 48.796875 1.578125 
Q 42.671875 -1.21875 35.015625 -1.21875 
Q 25.296875 -1.21875 18.71875 1.609375 
Q 12.15625 4.4375 8.421875 10.125 
Q 4.6875 15.828125 4.5 23 
" id="ArialMT-53"/>
       <path d="M 6.59375 0 
L 6.59375 51.859375 
L 14.5 51.859375 
L 14.5 44.484375 
Q 20.21875 53.03125 31 53.03125 
Q 35.6875 53.03125 39.625 51.34375 
Q 43.5625 49.65625 45.515625 46.921875 
Q 47.46875 44.1875 48.25 40.4375 
Q 48.734375 37.984375 48.734375 31.890625 
L 48.734375 0 
L 39.9375 0 
L 39.9375 31.546875 
Q 39.9375 36.921875 38.90625 39.578125 
Q 37.890625 42.234375 35.28125 43.8125 
Q 32.671875 45.40625 29.15625 45.40625 
Q 23.53125 45.40625 19.453125 41.84375 
Q 15.375 38.28125 15.375 28.328125 
L 15.375 0 
z
" id="ArialMT-6e"/>
       <path d="M 40.578125 0 
L 40.578125 7.625 
Q 34.515625 -1.171875 24.125 -1.171875 
Q 19.53125 -1.171875 15.546875 0.578125 
Q 11.578125 2.34375 9.640625 5 
Q 7.71875 7.671875 6.9375 11.53125 
Q 6.390625 14.109375 6.390625 19.734375 
L 6.390625 51.859375 
L 15.1875 51.859375 
L 15.1875 23.09375 
Q 15.1875 16.21875 15.71875 13.8125 
Q 16.546875 10.359375 19.234375 8.375 
Q 21.921875 6.390625 25.875 6.390625 
Q 29.828125 6.390625 33.296875 8.421875 
Q 36.765625 10.453125 38.203125 13.9375 
Q 39.65625 17.4375 39.65625 24.078125 
L 39.65625 51.859375 
L 48.4375 51.859375 
L 48.4375 0 
z
" id="ArialMT-75"/>
      </defs>
      <g style="fill:#262626;" transform="translate(118.90390625 370.5578125)scale(0.1 -0.1)">
       <use xlink:href="#ArialMT-53"/>
       <use x="66.69921875" xlink:href="#ArialMT-75"/>
       <use x="122.314453125" xlink:href="#ArialMT-6e"/>
      </g>
     </g>
    </g>
    <g id="xtick_2">
     <g id="line2d_3"/>
     <g id="line2d_4"/>
     <g id="text_2">
      <!-- Sat -->
      <defs>
       <path d="M 25.78125 7.859375 
L 27.046875 0.09375 
Q 23.34375 -0.6875 20.40625 -0.6875 
Q 15.625 -0.6875 12.984375 0.828125 
Q 10.359375 2.34375 9.28125 4.8125 
Q 8.203125 7.28125 8.203125 15.1875 
L 8.203125 45.015625 
L 1.765625 45.015625 
L 1.765625 51.859375 
L 8.203125 51.859375 
L 8.203125 64.703125 
L 16.9375 69.96875 
L 16.9375 51.859375 
L 25.78125 51.859375 
L 25.78125 45.015625 
L 16.9375 45.015625 
L 16.9375 14.703125 
Q 16.9375 10.9375 17.40625 9.859375 
Q 17.875 8.796875 18.921875 8.15625 
Q 19.96875 7.515625 21.921875 7.515625 
Q 23.390625 7.515625 25.78125 7.859375 
" id="ArialMT-74"/>
       <path d="M 40.4375 6.390625 
Q 35.546875 2.25 31.03125 0.53125 
Q 26.515625 -1.171875 21.34375 -1.171875 
Q 12.796875 -1.171875 8.203125 3 
Q 3.609375 7.171875 3.609375 13.671875 
Q 3.609375 17.484375 5.34375 20.625 
Q 7.078125 23.78125 9.890625 25.6875 
Q 12.703125 27.59375 16.21875 28.5625 
Q 18.796875 29.25 24.03125 29.890625 
Q 34.671875 31.15625 39.703125 32.90625 
Q 39.75 34.71875 39.75 35.203125 
Q 39.75 40.578125 37.25 42.78125 
Q 33.890625 45.75 27.25 45.75 
Q 21.046875 45.75 18.09375 43.578125 
Q 15.140625 41.40625 13.71875 35.890625 
L 5.125 37.0625 
Q 6.296875 42.578125 8.984375 45.96875 
Q 11.671875 49.359375 16.75 51.1875 
Q 21.828125 53.03125 28.515625 53.03125 
Q 35.15625 53.03125 39.296875 51.46875 
Q 43.453125 49.90625 45.40625 47.53125 
Q 47.359375 45.171875 48.140625 41.546875 
Q 48.578125 39.3125 48.578125 33.453125 
L 48.578125 21.734375 
Q 48.578125 9.46875 49.140625 6.21875 
Q 49.703125 2.984375 51.375 0 
L 42.1875 0 
Q 40.828125 2.734375 40.4375 6.390625 
M 39.703125 26.03125 
Q 34.90625 24.078125 25.34375 22.703125 
Q 19.921875 21.921875 17.671875 20.9375 
Q 15.4375 19.96875 14.203125 18.09375 
Q 12.984375 16.21875 12.984375 13.921875 
Q 12.984375 10.40625 15.640625 8.0625 
Q 18.3125 5.71875 23.4375 5.71875 
Q 28.515625 5.71875 32.46875 7.9375 
Q 36.421875 10.15625 38.28125 14.015625 
Q 39.703125 17 39.703125 22.796875 
z
" id="ArialMT-61"/>
      </defs>
      <g style="fill:#262626;" transform="translate(231.8953125 370.5578125)scale(0.1 -0.1)">
       <use xlink:href="#ArialMT-53"/>
       <use x="66.69921875" xlink:href="#ArialMT-61"/>
       <use x="122.314453125" xlink:href="#ArialMT-74"/>
      </g>
     </g>
    </g>
    <g id="xtick_3">
     <g id="line2d_5"/>
     <g id="line2d_6"/>
     <g id="text_3">
      <!-- Thur -->
      <defs>
       <path d="M 6.59375 0 
L 6.59375 71.578125 
L 15.375 71.578125 
L 15.375 45.90625 
Q 21.53125 53.03125 30.90625 53.03125 
Q 36.671875 53.03125 40.921875 50.75 
Q 45.171875 48.484375 47 44.484375 
Q 48.828125 40.484375 48.828125 32.859375 
L 48.828125 0 
L 40.046875 0 
L 40.046875 32.859375 
Q 40.046875 39.453125 37.1875 42.453125 
Q 34.328125 45.453125 29.109375 45.453125 
Q 25.203125 45.453125 21.75 43.421875 
Q 18.3125 41.40625 16.84375 37.9375 
Q 15.375 34.46875 15.375 28.375 
L 15.375 0 
z
" id="ArialMT-68"/>
       <path d="M 6.5 0 
L 6.5 51.859375 
L 14.40625 51.859375 
L 14.40625 44 
Q 17.4375 49.515625 20 51.265625 
Q 22.5625 53.03125 25.640625 53.03125 
Q 30.078125 53.03125 34.671875 50.203125 
L 31.640625 42.046875 
Q 28.421875 43.953125 25.203125 43.953125 
Q 22.3125 43.953125 20.015625 42.21875 
Q 17.71875 40.484375 16.75 37.40625 
Q 15.28125 32.71875 15.28125 27.15625 
L 15.28125 0 
z
" id="ArialMT-72"/>
       <path d="M 25.921875 0 
L 25.921875 63.140625 
L 2.34375 63.140625 
L 2.34375 71.578125 
L 59.078125 71.578125 
L 59.078125 63.140625 
L 35.40625 63.140625 
L 35.40625 0 
z
" id="ArialMT-54"/>
      </defs>
      <g style="fill:#262626;" transform="translate(340.7203125 370.5578125)scale(0.1 -0.1)">
       <use xlink:href="#ArialMT-54"/>
       <use x="61.083984375" xlink:href="#ArialMT-68"/>
       <use x="116.69921875" xlink:href="#ArialMT-75"/>
       <use x="172.314453125" xlink:href="#ArialMT-72"/>
      </g>
     </g>
    </g>
    <g id="xtick_4">
     <g id="line2d_7"/>
     <g id="line2d_8"/>
     <g id="text_4">
      <!-- Fri -->
      <defs>
       <path d="M 6.640625 61.46875 
L 6.640625 71.578125 
L 15.4375 71.578125 
L 15.4375 61.46875 
z
M 6.640625 0 
L 6.640625 51.859375 
L 15.4375 51.859375 
L 15.4375 0 
z
" id="ArialMT-69"/>
       <path d="M 8.203125 0 
L 8.203125 71.578125 
L 56.5 71.578125 
L 56.5 63.140625 
L 17.671875 63.140625 
L 17.671875 40.96875 
L 51.265625 40.96875 
L 51.265625 32.515625 
L 17.671875 32.515625 
L 17.671875 0 
z
" id="ArialMT-46"/>
      </defs>
      <g style="fill:#262626;" transform="translate(456.7703125 370.5578125)scale(0.1 -0.1)">
       <use xlink:href="#ArialMT-46"/>
       <use x="61.083984375" xlink:href="#ArialMT-72"/>
       <use x="94.384765625" xlink:href="#ArialMT-69"/>
      </g>
     </g>
    </g>
    <g id="text_5">
     <!-- day -->
     <defs>
      <path d="M 6.203125 -19.96875 
L 5.21875 -11.71875 
Q 8.109375 -12.5 10.25 -12.5 
Q 13.1875 -12.5 14.9375 -11.515625 
Q 16.703125 -10.546875 17.828125 -8.796875 
Q 18.65625 -7.46875 20.515625 -2.25 
Q 20.75 -1.515625 21.296875 -0.09375 
L 1.609375 51.859375 
L 11.078125 51.859375 
L 21.875 21.828125 
Q 23.96875 16.109375 25.640625 9.8125 
Q 27.15625 15.875 29.25 21.625 
L 40.328125 51.859375 
L 49.125 51.859375 
L 29.390625 -0.875 
Q 26.21875 -9.421875 24.46875 -12.640625 
Q 22.125 -17 19.09375 -19.015625 
Q 16.0625 -21.046875 11.859375 -21.046875 
Q 9.328125 -21.046875 6.203125 -19.96875 
" id="ArialMT-79"/>
      <path d="M 40.234375 0 
L 40.234375 6.546875 
Q 35.296875 -1.171875 25.734375 -1.171875 
Q 19.53125 -1.171875 14.328125 2.25 
Q 9.125 5.671875 6.265625 11.796875 
Q 3.421875 17.921875 3.421875 25.875 
Q 3.421875 33.640625 6 39.96875 
Q 8.59375 46.296875 13.765625 49.65625 
Q 18.953125 53.03125 25.34375 53.03125 
Q 30.03125 53.03125 33.6875 51.046875 
Q 37.359375 49.078125 39.65625 45.90625 
L 39.65625 71.578125 
L 48.390625 71.578125 
L 48.390625 0 
z
M 12.453125 25.875 
Q 12.453125 15.921875 16.640625 10.984375 
Q 20.84375 6.0625 26.5625 6.0625 
Q 32.328125 6.0625 36.34375 10.765625 
Q 40.375 15.484375 40.375 25.140625 
Q 40.375 35.796875 36.265625 40.765625 
Q 32.171875 45.75 26.171875 45.75 
Q 20.3125 45.75 16.375 40.96875 
Q 12.453125 36.1875 12.453125 25.875 
" id="ArialMT-64"/>
     </defs>
     <g style="fill:#262626;" transform="translate(286.33296875 385.41890625)scale(0.11 -0.11)">
      <use xlink:href="#ArialMT-64"/>
      <use x="55.615234375" xlink:href="#ArialMT-61"/>
      <use x="111.23046875" xlink:href="#ArialMT-79"/>
     </g>
    </g>
   </g>
   <g id="matplotlib.axis_2">
    <g id="ytick_1">
     <g id="line2d_9">
      <path clip-path="url(#pd57fc63c90)" d="M 72 356.4 
L 518.4 356.4 
" style="fill:none;stroke:#cccccc;stroke-linecap:round;"/>
     </g>
     <g id="line2d_10"/>
     <g id="line2d_11"/>
     <g id="text_6">
      <!-- −10 -->
      <defs>
       <path d="M 4.15625 35.296875 
Q 4.15625 48 6.765625 55.734375 
Q 9.375 63.484375 14.515625 67.671875 
Q 19.671875 71.875 27.484375 71.875 
Q 33.25 71.875 37.59375 69.546875 
Q 41.9375 67.234375 44.765625 62.859375 
Q 47.609375 58.5 49.21875 52.21875 
Q 50.828125 45.953125 50.828125 35.296875 
Q 50.828125 22.703125 48.234375 14.96875 
Q 45.65625 7.234375 40.5 3 
Q 35.359375 -1.21875 27.484375 -1.21875 
Q 17.140625 -1.21875 11.234375 6.203125 
Q 4.15625 15.140625 4.15625 35.296875 
M 13.1875 35.296875 
Q 13.1875 17.671875 17.3125 11.828125 
Q 21.4375 6 27.484375 6 
Q 33.546875 6 37.671875 11.859375 
Q 41.796875 17.71875 41.796875 35.296875 
Q 41.796875 52.984375 37.671875 58.78125 
Q 33.546875 64.59375 27.390625 64.59375 
Q 21.34375 64.59375 17.71875 59.46875 
Q 13.1875 52.9375 13.1875 35.296875 
" id="ArialMT-30"/>
       <path d="M 37.25 0 
L 28.46875 0 
L 28.46875 56 
Q 25.296875 52.984375 20.140625 49.953125 
Q 14.984375 46.921875 10.890625 45.40625 
L 10.890625 53.90625 
Q 18.265625 57.375 23.78125 62.296875 
Q 29.296875 67.234375 31.59375 71.875 
L 37.25 71.875 
z
" id="ArialMT-31"/>
       <path d="M 52.828125 31.203125 
L 5.5625 31.203125 
L 5.5625 39.40625 
L 52.828125 39.40625 
z
" id="ArialMT-2212"/>
      </defs>
      <g style="fill:#262626;" transform="translate(48.0375 358.98515625)scale(0.1 -0.1)">
       <use xlink:href="#ArialMT-2212"/>
       <use x="58.3984375" xlink:href="#ArialMT-31"/>
       <use x="114.013671875" xlink:href="#ArialMT-30"/>
      </g>
     </g>
    </g>
    <g id="ytick_2">
     <g id="line2d_12">
      <path clip-path="url(#pd57fc63c90)" d="M 72 311.142857 
L 518.4 311.142857 
" style="fill:none;stroke:#cccccc;stroke-linecap:round;"/>
     </g>
     <g id="line2d_13"/>
     <g id="line2d_14"/>
     <g id="text_7">
      <!-- 0 -->
      <g style="fill:#262626;" transform="translate(59.4390625 313.728013393)scale(0.1 -0.1)">
       <use xlink:href="#ArialMT-30"/>
      </g>
     </g>
    </g>
    <g id="ytick_3">
     <g id="line2d_15">
      <path clip-path="url(#pd57fc63c90)" d="M 72 265.885714 
L 518.4 265.885714 
" style="fill:none;stroke:#cccccc;stroke-linecap:round;"/>
     </g>
     <g id="line2d_16"/>
     <g id="line2d_17"/>
     <g id="text_8">
      <!-- 10 -->
      <g style="fill:#262626;" transform="translate(53.878125 268.470870536)scale(0.1 -0.1)">
       <use xlink:href="#ArialMT-31"/>
       <use x="55.615234375" xlink:href="#ArialMT-30"/>
      </g>
     </g>
    </g>
    <g id="ytick_4">
     <g id="line2d_18">
      <path clip-path="url(#pd57fc63c90)" d="M 72 220.628571 
L 518.4 220.628571 
" style="fill:none;stroke:#cccccc;stroke-linecap:round;"/>
     </g>
     <g id="line2d_19"/>
     <g id="line2d_20"/>
     <g id="text_9">
      <!-- 20 -->
      <defs>
       <path d="M 50.34375 8.453125 
L 50.34375 0 
L 3.03125 0 
Q 2.9375 3.171875 4.046875 6.109375 
Q 5.859375 10.9375 9.828125 15.625 
Q 13.8125 20.3125 21.34375 26.46875 
Q 33.015625 36.03125 37.109375 41.625 
Q 41.21875 47.21875 41.21875 52.203125 
Q 41.21875 57.421875 37.46875 61 
Q 33.734375 64.59375 27.734375 64.59375 
Q 21.390625 64.59375 17.578125 60.78125 
Q 13.765625 56.984375 13.71875 50.25 
L 4.6875 51.171875 
Q 5.609375 61.28125 11.65625 66.578125 
Q 17.71875 71.875 27.9375 71.875 
Q 38.234375 71.875 44.234375 66.15625 
Q 50.25 60.453125 50.25 52 
Q 50.25 47.703125 48.484375 43.546875 
Q 46.734375 39.40625 42.65625 34.8125 
Q 38.578125 30.21875 29.109375 22.21875 
Q 21.1875 15.578125 18.9375 13.203125 
Q 16.703125 10.84375 15.234375 8.453125 
z
" id="ArialMT-32"/>
      </defs>
      <g style="fill:#262626;" transform="translate(53.878125 223.213727679)scale(0.1 -0.1)">
       <use xlink:href="#ArialMT-32"/>
       <use x="55.615234375" xlink:href="#ArialMT-30"/>
      </g>
     </g>
    </g>
    <g id="ytick_5">
     <g id="line2d_21">
      <path clip-path="url(#pd57fc63c90)" d="M 72 175.371429 
L 518.4 175.371429 
" style="fill:none;stroke:#cccccc;stroke-linecap:round;"/>
     </g>
     <g id="line2d_22"/>
     <g id="line2d_23"/>
     <g id="text_10">
      <!-- 30 -->
      <defs>
       <path d="M 4.203125 18.890625 
L 12.984375 20.0625 
Q 14.5 12.59375 18.140625 9.296875 
Q 21.78125 6 27 6 
Q 33.203125 6 37.46875 10.296875 
Q 41.75 14.59375 41.75 20.953125 
Q 41.75 27 37.796875 30.921875 
Q 33.84375 34.859375 27.734375 34.859375 
Q 25.25 34.859375 21.53125 33.890625 
L 22.515625 41.609375 
Q 23.390625 41.5 23.921875 41.5 
Q 29.546875 41.5 34.03125 44.421875 
Q 38.53125 47.359375 38.53125 53.46875 
Q 38.53125 58.296875 35.25 61.46875 
Q 31.984375 64.65625 26.8125 64.65625 
Q 21.6875 64.65625 18.265625 61.421875 
Q 14.84375 58.203125 13.875 51.765625 
L 5.078125 53.328125 
Q 6.6875 62.15625 12.390625 67.015625 
Q 18.109375 71.875 26.609375 71.875 
Q 32.46875 71.875 37.390625 69.359375 
Q 42.328125 66.84375 44.9375 62.5 
Q 47.5625 58.15625 47.5625 53.265625 
Q 47.5625 48.640625 45.0625 44.828125 
Q 42.578125 41.015625 37.703125 38.765625 
Q 44.046875 37.3125 47.5625 32.6875 
Q 51.078125 28.078125 51.078125 21.140625 
Q 51.078125 11.765625 44.234375 5.25 
Q 37.40625 -1.265625 26.953125 -1.265625 
Q 17.53125 -1.265625 11.296875 4.34375 
Q 5.078125 9.96875 4.203125 18.890625 
" id="ArialMT-33"/>
      </defs>
      <g style="fill:#262626;" transform="translate(53.878125 177.956584821)scale(0.1 -0.1)">
       <use xlink:href="#ArialMT-33"/>
       <use x="55.615234375" xlink:href="#ArialMT-30"/>
      </g>
     </g>
    </g>
    <g id="ytick_6">
     <g id="line2d_24">
      <path clip-path="url(#pd57fc63c90)" d="M 72 130.114286 
L 518.4 130.114286 
" style="fill:none;stroke:#cccccc;stroke-linecap:round;"/>
     </g>
     <g id="line2d_25"/>
     <g id="line2d_26"/>
     <g id="text_11">
      <!-- 40 -->
      <defs>
       <path d="M 32.328125 0 
L 32.328125 17.140625 
L 1.265625 17.140625 
L 1.265625 25.203125 
L 33.9375 71.578125 
L 41.109375 71.578125 
L 41.109375 25.203125 
L 50.78125 25.203125 
L 50.78125 17.140625 
L 41.109375 17.140625 
L 41.109375 0 
z
M 32.328125 25.203125 
L 32.328125 57.46875 
L 9.90625 25.203125 
z
" id="ArialMT-34"/>
      </defs>
      <g style="fill:#262626;" transform="translate(53.878125 132.699441964)scale(0.1 -0.1)">
       <use xlink:href="#ArialMT-34"/>
       <use x="55.615234375" xlink:href="#ArialMT-30"/>
      </g>
     </g>
    </g>
    <g id="ytick_7">
     <g id="line2d_27">
      <path clip-path="url(#pd57fc63c90)" d="M 72 84.857143 
L 518.4 84.857143 
" style="fill:none;stroke:#cccccc;stroke-linecap:round;"/>
     </g>
     <g id="line2d_28"/>
     <g id="line2d_29"/>
     <g id="text_12">
      <!-- 50 -->
      <defs>
       <path d="M 4.15625 18.75 
L 13.375 19.53125 
Q 14.40625 12.796875 18.140625 9.390625 
Q 21.875 6 27.15625 6 
Q 33.5 6 37.890625 10.78125 
Q 42.28125 15.578125 42.28125 23.484375 
Q 42.28125 31 38.0625 35.34375 
Q 33.84375 39.703125 27 39.703125 
Q 22.75 39.703125 19.328125 37.765625 
Q 15.921875 35.84375 13.96875 32.765625 
L 5.71875 33.84375 
L 12.640625 70.609375 
L 48.25 70.609375 
L 48.25 62.203125 
L 19.671875 62.203125 
L 15.828125 42.96875 
Q 22.265625 47.46875 29.34375 47.46875 
Q 38.71875 47.46875 45.15625 40.96875 
Q 51.609375 34.46875 51.609375 24.265625 
Q 51.609375 14.546875 45.953125 7.46875 
Q 39.0625 -1.21875 27.15625 -1.21875 
Q 17.390625 -1.21875 11.203125 4.25 
Q 5.03125 9.71875 4.15625 18.75 
" id="ArialMT-35"/>
      </defs>
      <g style="fill:#262626;" transform="translate(53.878125 87.4422991071)scale(0.1 -0.1)">
       <use xlink:href="#ArialMT-35"/>
       <use x="55.615234375" xlink:href="#ArialMT-30"/>
      </g>
     </g>
    </g>
    <g id="ytick_8">
     <g id="line2d_30">
      <path clip-path="url(#pd57fc63c90)" d="M 72 39.6 
L 518.4 39.6 
" style="fill:none;stroke:#cccccc;stroke-linecap:round;"/>
     </g>
     <g id="line2d_31"/>
     <g id="line2d_32"/>
     <g id="text_13">
      <!-- 60 -->
      <defs>
       <path d="M 49.75 54.046875 
L 41.015625 53.375 
Q 39.84375 58.546875 37.703125 60.890625 
Q 34.125 64.65625 28.90625 64.65625 
Q 24.703125 64.65625 21.53125 62.3125 
Q 17.390625 59.28125 14.984375 53.46875 
Q 12.59375 47.65625 12.5 36.921875 
Q 15.671875 41.75 20.265625 44.09375 
Q 24.859375 46.4375 29.890625 46.4375 
Q 38.671875 46.4375 44.84375 39.96875 
Q 51.03125 33.5 51.03125 23.25 
Q 51.03125 16.5 48.125 10.71875 
Q 45.21875 4.9375 40.140625 1.859375 
Q 35.0625 -1.21875 28.609375 -1.21875 
Q 17.625 -1.21875 10.6875 6.859375 
Q 3.765625 14.9375 3.765625 33.5 
Q 3.765625 54.25 11.421875 63.671875 
Q 18.109375 71.875 29.4375 71.875 
Q 37.890625 71.875 43.28125 67.140625 
Q 48.6875 62.40625 49.75 54.046875 
M 13.875 23.1875 
Q 13.875 18.65625 15.796875 14.5 
Q 17.71875 10.359375 21.1875 8.171875 
Q 24.65625 6 28.46875 6 
Q 34.03125 6 38.03125 10.484375 
Q 42.046875 14.984375 42.046875 22.703125 
Q 42.046875 30.125 38.078125 34.390625 
Q 34.125 38.671875 28.125 38.671875 
Q 22.171875 38.671875 18.015625 34.390625 
Q 13.875 30.125 13.875 23.1875 
" id="ArialMT-36"/>
      </defs>
      <g style="fill:#262626;" transform="translate(53.878125 42.18515625)scale(0.1 -0.1)">
       <use xlink:href="#ArialMT-36"/>
       <use x="55.615234375" xlink:href="#ArialMT-30"/>
      </g>
     </g>
    </g>
    <g id="text_14">
     <!-- total_bill -->
     <defs>
      <path d="M 6.390625 0 
L 6.390625 71.578125 
L 15.1875 71.578125 
L 15.1875 0 
z
" id="ArialMT-6c"/>
      <path d="M 14.703125 0 
L 6.546875 0 
L 6.546875 71.578125 
L 15.328125 71.578125 
L 15.328125 46.046875 
Q 20.90625 53.03125 29.546875 53.03125 
Q 34.328125 53.03125 38.59375 51.09375 
Q 42.875 49.171875 45.625 45.671875 
Q 48.390625 42.1875 49.953125 37.25 
Q 51.515625 32.328125 51.515625 26.703125 
Q 51.515625 13.375 44.921875 6.09375 
Q 38.328125 -1.171875 29.109375 -1.171875 
Q 19.921875 -1.171875 14.703125 6.5 
z
M 14.59375 26.3125 
Q 14.59375 17 17.140625 12.84375 
Q 21.296875 6.0625 28.375 6.0625 
Q 34.125 6.0625 38.328125 11.0625 
Q 42.53125 16.0625 42.53125 25.984375 
Q 42.53125 36.140625 38.5 40.96875 
Q 34.46875 45.796875 28.765625 45.796875 
Q 23 45.796875 18.796875 40.796875 
Q 14.59375 35.796875 14.59375 26.3125 
" id="ArialMT-62"/>
      <path d="M -1.515625 -19.875 
L -1.515625 -13.53125 
L 56.734375 -13.53125 
L 56.734375 -19.875 
z
" id="ArialMT-5f"/>
      <path d="M 3.328125 25.921875 
Q 3.328125 40.328125 11.328125 47.265625 
Q 18.015625 53.03125 27.640625 53.03125 
Q 38.328125 53.03125 45.109375 46.015625 
Q 51.90625 39.015625 51.90625 26.65625 
Q 51.90625 16.65625 48.90625 10.90625 
Q 45.90625 5.171875 40.15625 2 
Q 34.421875 -1.171875 27.640625 -1.171875 
Q 16.75 -1.171875 10.03125 5.8125 
Q 3.328125 12.796875 3.328125 25.921875 
M 12.359375 25.921875 
Q 12.359375 15.96875 16.703125 11.015625 
Q 21.046875 6.0625 27.640625 6.0625 
Q 34.1875 6.0625 38.53125 11.03125 
Q 42.875 16.015625 42.875 26.21875 
Q 42.875 35.84375 38.5 40.796875 
Q 34.125 45.75 27.640625 45.75 
Q 21.046875 45.75 16.703125 40.8125 
Q 12.359375 35.890625 12.359375 25.921875 
" id="ArialMT-6f"/>
     </defs>
     <g style="fill:#262626;" transform="translate(40.85125 218.178125)rotate(-90.0)scale(0.11 -0.11)">
      <use xlink:href="#ArialMT-74"/>
      <use x="27.783203125" xlink:href="#ArialMT-6f"/>
      <use x="83.3984375" xlink:href="#ArialMT-74"/>
      <use x="111.181640625" xlink:href="#ArialMT-61"/>
      <use x="166.796875" xlink:href="#ArialMT-6c"/>
      <use x="189.013671875" xlink:href="#ArialMT-5f"/>
      <use x="244.62890625" xlink:href="#ArialMT-62"/>
      <use x="300.244140625" xlink:href="#ArialMT-69"/>
      <use x="322.4609375" xlink:href="#ArialMT-6c"/>
      <use x="344.677734375" xlink:href="#ArialMT-6c"/>
     </g>
    </g>
   </g>
   <g id="PolyCollection_1">
    <defs>
     <path d="M 128.997304 -90.978076 
L 126.602696 -90.978076 
L 126.258142 -92.867221 
L 125.83758 -94.756365 
L 125.331234 -96.64551 
L 124.729947 -98.534655 
L 124.025727 -100.4238 
L 123.21233 -102.312944 
L 122.285833 -104.202089 
L 121.245158 -106.091234 
L 120.092484 -107.980379 
L 118.833514 -109.869524 
L 117.477538 -111.758668 
L 116.037277 -113.647813 
L 114.528492 -115.536958 
L 112.969371 -117.426103 
L 111.379728 -119.315248 
L 109.780076 -121.204392 
L 108.190645 -123.093537 
L 106.630436 -124.982682 
L 105.116388 -126.871827 
L 103.662747 -128.760972 
L 102.28069 -130.650116 
L 100.978236 -132.539261 
L 99.760453 -134.428406 
L 98.629918 -136.317551 
L 97.587378 -138.206695 
L 96.632529 -140.09584 
L 95.764805 -141.984985 
L 94.984099 -143.87413 
L 94.291309 -145.763275 
L 93.688656 -147.652419 
L 93.179731 -149.541564 
L 92.769277 -151.430709 
L 92.46272 -153.319854 
L 92.265525 -155.208999 
L 92.182444 -157.098143 
L 92.216757 -158.987288 
L 92.369583 -160.876433 
L 92.639362 -162.765578 
L 93.021552 -164.654723 
L 93.508582 -166.543867 
L 94.090074 -168.433012 
L 94.753302 -170.322157 
L 95.483854 -172.211302 
L 96.266425 -174.100447 
L 97.085659 -175.989591 
L 97.926979 -177.878736 
L 98.777312 -179.767881 
L 99.625671 -181.657026 
L 100.463524 -183.54617 
L 101.284958 -185.435315 
L 102.086615 -187.32446 
L 102.867432 -189.213605 
L 103.628226 -191.10275 
L 104.371162 -192.991894 
L 105.099171 -194.881039 
L 105.815374 -196.770184 
L 106.522554 -198.659329 
L 107.222743 -200.548474 
L 107.916926 -202.437618 
L 108.604903 -204.326763 
L 109.285303 -206.215908 
L 109.955727 -208.105053 
L 110.613022 -209.994198 
L 111.253625 -211.883342 
L 111.873964 -213.772487 
L 112.470858 -215.661632 
L 113.041894 -217.550777 
L 113.585733 -219.439921 
L 114.10233 -221.329066 
L 114.593048 -223.218211 
L 115.060645 -225.107356 
L 115.509156 -226.996501 
L 115.943659 -228.885645 
L 116.36996 -230.77479 
L 116.794202 -232.663935 
L 117.222451 -234.55308 
L 117.66027 -236.442225 
L 118.112322 -238.331369 
L 118.582036 -240.220514 
L 119.071351 -242.109659 
L 119.580566 -243.998804 
L 120.1083 -245.887949 
L 120.651566 -247.777093 
L 121.205959 -249.666238 
L 121.76592 -251.555383 
L 122.325084 -253.444528 
L 122.876655 -255.333672 
L 123.413796 -257.222817 
L 123.930002 -259.111962 
L 124.419429 -261.001107 
L 124.877152 -262.890252 
L 125.299356 -264.779396 
L 125.683435 -266.668541 
L 126.028011 -268.557686 
L 126.332882 -270.446831 
L 126.598908 -272.335976 
L 126.827844 -274.22512 
L 127.022158 -276.114265 
L 127.184831 -278.00341 
L 128.415169 -278.00341 
L 128.415169 -278.00341 
L 128.577842 -276.114265 
L 128.772156 -274.22512 
L 129.001092 -272.335976 
L 129.267118 -270.446831 
L 129.571989 -268.557686 
L 129.916565 -266.668541 
L 130.300644 -264.779396 
L 130.722848 -262.890252 
L 131.180571 -261.001107 
L 131.669998 -259.111962 
L 132.186204 -257.222817 
L 132.723345 -255.333672 
L 133.274916 -253.444528 
L 133.83408 -251.555383 
L 134.394041 -249.666238 
L 134.948434 -247.777093 
L 135.4917 -245.887949 
L 136.019434 -243.998804 
L 136.528649 -242.109659 
L 137.017964 -240.220514 
L 137.487678 -238.331369 
L 137.93973 -236.442225 
L 138.377549 -234.55308 
L 138.805798 -232.663935 
L 139.23004 -230.77479 
L 139.656341 -228.885645 
L 140.090844 -226.996501 
L 140.539355 -225.107356 
L 141.006952 -223.218211 
L 141.49767 -221.329066 
L 142.014267 -219.439921 
L 142.558106 -217.550777 
L 143.129142 -215.661632 
L 143.726036 -213.772487 
L 144.346375 -211.883342 
L 144.986978 -209.994198 
L 145.644273 -208.105053 
L 146.314697 -206.215908 
L 146.995097 -204.326763 
L 147.683074 -202.437618 
L 148.377257 -200.548474 
L 149.077446 -198.659329 
L 149.784626 -196.770184 
L 150.500829 -194.881039 
L 151.228838 -192.991894 
L 151.971774 -191.10275 
L 152.732568 -189.213605 
L 153.513385 -187.32446 
L 154.315042 -185.435315 
L 155.136476 -183.54617 
L 155.974329 -181.657026 
L 156.822688 -179.767881 
L 157.673021 -177.878736 
L 158.514341 -175.989591 
L 159.333575 -174.100447 
L 160.116146 -172.211302 
L 160.846698 -170.322157 
L 161.509926 -168.433012 
L 162.091418 -166.543867 
L 162.578448 -164.654723 
L 162.960638 -162.765578 
L 163.230417 -160.876433 
L 163.383243 -158.987288 
L 163.417556 -157.098143 
L 163.334475 -155.208999 
L 163.13728 -153.319854 
L 162.830723 -151.430709 
L 162.420269 -149.541564 
L 161.911344 -147.652419 
L 161.308691 -145.763275 
L 160.615901 -143.87413 
L 159.835195 -141.984985 
L 158.967471 -140.09584 
L 158.012622 -138.206695 
L 156.970082 -136.317551 
L 155.839547 -134.428406 
L 154.621764 -132.539261 
L 153.31931 -130.650116 
L 151.937253 -128.760972 
L 150.483612 -126.871827 
L 148.969564 -124.982682 
L 147.409355 -123.093537 
L 145.819924 -121.204392 
L 144.220272 -119.315248 
L 142.630629 -117.426103 
L 141.071508 -115.536958 
L 139.562723 -113.647813 
L 138.122462 -111.758668 
L 136.766486 -109.869524 
L 135.507516 -107.980379 
L 134.354842 -106.091234 
L 133.314167 -104.202089 
L 132.38767 -102.312944 
L 131.574273 -100.4238 
L 130.870053 -98.534655 
L 130.268766 -96.64551 
L 129.76242 -94.756365 
L 129.341858 -92.867221 
L 128.997304 -90.978076 
z
" id="m753e286956" style="stroke:#4c4c4c;stroke-width:1.75;"/>
    </defs>
    <g clip-path="url(#pd57fc63c90)">
     <use style="fill:#5875a4;stroke:#4c4c4c;stroke-width:1.75;" x="0.0" xlink:href="#m753e286956" y="396.0"/>
    </g>
   </g>
   <g id="PolyCollection_2">
    <defs>
     <path d="M 239.771428 -64.893668 
L 239.028572 -64.893668 
L 238.891187 -67.643942 
L 238.720376 -70.394216 
L 238.514487 -73.14449 
L 238.273861 -75.894764 
L 238.001014 -78.645038 
L 237.700433 -81.395312 
L 237.377851 -84.145586 
L 237.038996 -86.89586 
L 236.687915 -89.646134 
L 236.325072 -92.396408 
L 235.945541 -95.146682 
L 235.537671 -97.896956 
L 235.082537 -100.64723 
L 234.554453 -103.397504 
L 233.922575 -106.147778 
L 233.153484 -108.898052 
L 232.214388 -111.648325 
L 231.07649 -114.398599 
L 229.718003 -117.148873 
L 228.126376 -119.899147 
L 226.299492 -122.649421 
L 224.245798 -125.399695 
L 221.9836 -128.149969 
L 219.5399 -130.900243 
L 216.949214 -133.650517 
L 214.252753 -136.400791 
L 211.498132 -139.151065 
L 208.739538 -141.901339 
L 206.03803 -144.651613 
L 203.461472 -147.401887 
L 201.083575 -150.152161 
L 198.981615 -152.902435 
L 197.232674 -155.652709 
L 195.90855 -158.402982 
L 195.069846 -161.153256 
L 194.76 -163.90353 
L 195.000152 -166.653804 
L 195.785724 -169.404078 
L 197.085377 -172.154352 
L 198.842701 -174.904626 
L 200.980541 -177.6549 
L 203.407503 -180.405174 
L 206.025764 -183.155448 
L 208.73918 -185.905722 
L 211.460582 -188.655996 
L 214.117353 -191.40627 
L 216.654678 -194.156544 
L 219.036268 -196.906818 
L 221.242803 -199.657092 
L 223.268667 -202.407366 
L 225.117781 -205.157639 
L 226.799336 -207.907913 
L 228.324138 -210.658187 
L 229.701991 -213.408461 
L 230.940285 -216.158735 
L 232.043683 -218.909009 
L 233.014623 -221.659283 
L 233.854315 -224.409557 
L 234.563898 -227.159831 
L 235.145536 -229.910105 
L 235.603301 -232.660379 
L 235.943806 -235.410653 
L 236.17655 -238.160927 
L 236.313963 -240.911201 
L 236.371154 -243.661475 
L 236.365316 -246.411749 
L 236.314827 -249.162023 
L 236.238086 -251.912297 
L 236.152222 -254.66257 
L 236.071845 -257.412844 
L 236.008041 -260.163118 
L 235.967792 -262.913392 
L 235.953928 -265.663666 
L 235.965618 -268.41394 
L 235.999321 -271.164214 
L 236.050009 -273.914488 
L 236.112438 -276.664762 
L 236.182264 -279.415036 
L 236.25682 -282.16531 
L 236.335468 -284.915584 
L 236.419511 -287.665858 
L 236.51175 -290.416132 
L 236.615772 -293.166406 
L 236.735152 -295.91668 
L 236.872671 -298.666954 
L 237.029699 -301.417227 
L 237.205803 -304.167501 
L 237.398638 -306.917775 
L 237.604105 -309.668049 
L 237.816758 -312.418323 
L 238.030361 -315.168597 
L 238.238537 -317.918871 
L 238.435386 -320.669145 
L 238.616009 -323.419419 
L 238.776862 -326.169693 
L 238.915919 -328.919967 
L 239.032639 -331.670241 
L 239.12778 -334.420515 
L 239.203105 -337.170789 
L 239.596895 -337.170789 
L 239.596895 -337.170789 
L 239.67222 -334.420515 
L 239.767361 -331.670241 
L 239.884081 -328.919967 
L 240.023138 -326.169693 
L 240.183991 -323.419419 
L 240.364614 -320.669145 
L 240.561463 -317.918871 
L 240.769639 -315.168597 
L 240.983242 -312.418323 
L 241.195895 -309.668049 
L 241.401362 -306.917775 
L 241.594197 -304.167501 
L 241.770301 -301.417227 
L 241.927329 -298.666954 
L 242.064848 -295.91668 
L 242.184228 -293.166406 
L 242.28825 -290.416132 
L 242.380489 -287.665858 
L 242.464532 -284.915584 
L 242.54318 -282.16531 
L 242.617736 -279.415036 
L 242.687562 -276.664762 
L 242.749991 -273.914488 
L 242.800679 -271.164214 
L 242.834382 -268.41394 
L 242.846072 -265.663666 
L 242.832208 -262.913392 
L 242.791959 -260.163118 
L 242.728155 -257.412844 
L 242.647778 -254.66257 
L 242.561914 -251.912297 
L 242.485173 -249.162023 
L 242.434684 -246.411749 
L 242.428846 -243.661475 
L 242.486037 -240.911201 
L 242.62345 -238.160927 
L 242.856194 -235.410653 
L 243.196699 -232.660379 
L 243.654464 -229.910105 
L 244.236102 -227.159831 
L 244.945685 -224.409557 
L 245.785377 -221.659283 
L 246.756317 -218.909009 
L 247.859715 -216.158735 
L 249.098009 -213.408461 
L 250.475862 -210.658187 
L 252.000664 -207.907913 
L 253.682219 -205.157639 
L 255.531333 -202.407366 
L 257.557197 -199.657092 
L 259.763732 -196.906818 
L 262.145322 -194.156544 
L 264.682647 -191.40627 
L 267.339418 -188.655996 
L 270.06082 -185.905722 
L 272.774236 -183.155448 
L 275.392497 -180.405174 
L 277.819459 -177.6549 
L 279.957299 -174.904626 
L 281.714623 -172.154352 
L 283.014276 -169.404078 
L 283.799848 -166.653804 
L 284.04 -163.90353 
L 283.730154 -161.153256 
L 282.89145 -158.402982 
L 281.567326 -155.652709 
L 279.818385 -152.902435 
L 277.716425 -150.152161 
L 275.338528 -147.401887 
L 272.76197 -144.651613 
L 270.060462 -141.901339 
L 267.301868 -139.151065 
L 264.547247 -136.400791 
L 261.850786 -133.650517 
L 259.2601 -130.900243 
L 256.8164 -128.149969 
L 254.554202 -125.399695 
L 252.500508 -122.649421 
L 250.673624 -119.899147 
L 249.081997 -117.148873 
L 247.72351 -114.398599 
L 246.585612 -111.648325 
L 245.646516 -108.898052 
L 244.877425 -106.147778 
L 244.245547 -103.397504 
L 243.717463 -100.64723 
L 243.262329 -97.896956 
L 242.854459 -95.146682 
L 242.474928 -92.396408 
L 242.112085 -89.646134 
L 241.761004 -86.89586 
L 241.422149 -84.145586 
L 241.099567 -81.395312 
L 240.798986 -78.645038 
L 240.526139 -75.894764 
L 240.285513 -73.14449 
L 240.079624 -70.394216 
L 239.908813 -67.643942 
L 239.771428 -64.893668 
z
" id="m11d37c8e21" style="stroke:#4c4c4c;stroke-width:1.75;"/>
    </defs>
    <g clip-path="url(#pd57fc63c90)">
     <use style="fill:#5f9e6e;stroke:#4c4c4c;stroke-width:1.75;" x="0.0" xlink:href="#m11d37c8e21" y="396.0"/>
    </g>
   </g>
   <g id="PolyCollection_3">
    <defs>
     <path d="M 352.080015 -95.788024 
L 349.919985 -95.788024 
L 349.6589 -97.61977 
L 349.351115 -99.451515 
L 348.992333 -101.283261 
L 348.5787 -103.115006 
L 348.106948 -104.946752 
L 347.574526 -106.778497 
L 346.97967 -108.610243 
L 346.321443 -110.441988 
L 345.599697 -112.273734 
L 344.814983 -114.105479 
L 343.968398 -115.937225 
L 343.061389 -117.768971 
L 342.095535 -119.600716 
L 341.072322 -121.432462 
L 339.992961 -123.264207 
L 338.85826 -125.095953 
L 337.668598 -126.927698 
L 336.424007 -128.759444 
L 335.124388 -130.591189 
L 333.769851 -132.422935 
L 332.361174 -134.25468 
L 330.900329 -136.086426 
L 329.391061 -137.918172 
L 327.83943 -139.749917 
L 326.254284 -141.581663 
L 324.647587 -143.413408 
L 323.034553 -145.245154 
L 321.43355 -147.076899 
L 319.865748 -148.908645 
L 318.354521 -150.74039 
L 316.924619 -152.572136 
L 315.601169 -154.403881 
L 314.408563 -156.235627 
L 313.369311 -158.067373 
L 312.502951 -159.899118 
L 311.825095 -161.730864 
L 311.346672 -163.562609 
L 311.073437 -165.394355 
L 311.005772 -167.2261 
L 311.138779 -169.057846 
L 311.462664 -170.889591 
L 311.963358 -172.721337 
L 312.623333 -174.553083 
L 313.422536 -176.384828 
L 314.339373 -178.216574 
L 315.351674 -180.048319 
L 316.43757 -181.880065 
L 317.576242 -183.71181 
L 318.748503 -185.543556 
L 319.937184 -187.375301 
L 321.12735 -189.207047 
L 322.306328 -191.038792 
L 323.463602 -192.870538 
L 324.590598 -194.702284 
L 325.680393 -196.534029 
L 326.727415 -198.365775 
L 327.727144 -200.19752 
L 328.675873 -202.029266 
L 329.570537 -203.861011 
L 330.408641 -205.692757 
L 331.188272 -207.524502 
L 331.908209 -209.356248 
L 332.568086 -211.187993 
L 333.16861 -213.019739 
L 333.711778 -214.851485 
L 334.201064 -216.68323 
L 334.641548 -218.514976 
L 335.039943 -220.346721 
L 335.404516 -222.178467 
L 335.744873 -224.010212 
L 336.07163 -225.841958 
L 336.395968 -227.673703 
L 336.729106 -229.505449 
L 337.081736 -231.337194 
L 337.463449 -233.16894 
L 337.8822 -235.000686 
L 338.343868 -236.832431 
L 338.85192 -238.664177 
L 339.407234 -240.495922 
L 340.008069 -242.327668 
L 340.650198 -244.159413 
L 341.327184 -245.991159 
L 342.030779 -247.822904 
L 342.751411 -249.65465 
L 343.478719 -251.486396 
L 344.202105 -253.318141 
L 344.911253 -255.149887 
L 345.596603 -256.981632 
L 346.249723 -258.813378 
L 346.863605 -260.645123 
L 347.432835 -262.476869 
L 347.953667 -264.308614 
L 348.424002 -266.14036 
L 348.843278 -267.972105 
L 349.212303 -269.803851 
L 349.533036 -271.635597 
L 349.808351 -273.467342 
L 350.041792 -275.299088 
L 350.237331 -277.130833 
L 351.762669 -277.130833 
L 351.762669 -277.130833 
L 351.958208 -275.299088 
L 352.191649 -273.467342 
L 352.466964 -271.635597 
L 352.787697 -269.803851 
L 353.156722 -267.972105 
L 353.575998 -266.14036 
L 354.046333 -264.308614 
L 354.567165 -262.476869 
L 355.136395 -260.645123 
L 355.750277 -258.813378 
L 356.403397 -256.981632 
L 357.088747 -255.149887 
L 357.797895 -253.318141 
L 358.521281 -251.486396 
L 359.248589 -249.65465 
L 359.969221 -247.822904 
L 360.672816 -245.991159 
L 361.349802 -244.159413 
L 361.991931 -242.327668 
L 362.592766 -240.495922 
L 363.14808 -238.664177 
L 363.656132 -236.832431 
L 364.1178 -235.000686 
L 364.536551 -233.16894 
L 364.918264 -231.337194 
L 365.270894 -229.505449 
L 365.604032 -227.673703 
L 365.92837 -225.841958 
L 366.255127 -224.010212 
L 366.595484 -222.178467 
L 366.960057 -220.346721 
L 367.358452 -218.514976 
L 367.798936 -216.68323 
L 368.288222 -214.851485 
L 368.83139 -213.019739 
L 369.431914 -211.187993 
L 370.091791 -209.356248 
L 370.811728 -207.524502 
L 371.591359 -205.692757 
L 372.429463 -203.861011 
L 373.324127 -202.029266 
L 374.272856 -200.19752 
L 375.272585 -198.365775 
L 376.319607 -196.534029 
L 377.409402 -194.702284 
L 378.536398 -192.870538 
L 379.693672 -191.038792 
L 380.87265 -189.207047 
L 382.062816 -187.375301 
L 383.251497 -185.543556 
L 384.423758 -183.71181 
L 385.56243 -181.880065 
L 386.648326 -180.048319 
L 387.660627 -178.216574 
L 388.577464 -176.384828 
L 389.376667 -174.553083 
L 390.036642 -172.721337 
L 390.537336 -170.889591 
L 390.861221 -169.057846 
L 390.994228 -167.2261 
L 390.926563 -165.394355 
L 390.653328 -163.562609 
L 390.174905 -161.730864 
L 389.497049 -159.899118 
L 388.630689 -158.067373 
L 387.591437 -156.235627 
L 386.398831 -154.403881 
L 385.075381 -152.572136 
L 383.645479 -150.74039 
L 382.134252 -148.908645 
L 380.56645 -147.076899 
L 378.965447 -145.245154 
L 377.352413 -143.413408 
L 375.745716 -141.581663 
L 374.16057 -139.749917 
L 372.608939 -137.918172 
L 371.099671 -136.086426 
L 369.638826 -134.25468 
L 368.230149 -132.422935 
L 366.875612 -130.591189 
L 365.575993 -128.759444 
L 364.331402 -126.927698 
L 363.14174 -125.095953 
L 362.007039 -123.264207 
L 360.927678 -121.432462 
L 359.904465 -119.600716 
L 358.938611 -117.768971 
L 358.031602 -115.937225 
L 357.185017 -114.105479 
L 356.400303 -112.273734 
L 355.678557 -110.441988 
L 355.02033 -108.610243 
L 354.425474 -106.778497 
L 353.893052 -104.946752 
L 353.4213 -103.115006 
L 353.007667 -101.283261 
L 352.648885 -99.451515 
L 352.3411 -97.61977 
L 352.080015 -95.788024 
z
" id="m25d04bc46c" style="stroke:#4c4c4c;stroke-width:1.75;"/>
    </defs>
    <g clip-path="url(#pd57fc63c90)">
     <use style="fill:#b55d60;stroke:#4c4c4c;stroke-width:1.75;" x="0.0" xlink:href="#m25d04bc46c" y="396.0"/>
    </g>
   </g>
   <g id="PolyCollection_4">
    <defs>
     <path d="M 463.290103 -58.723166 
L 461.909897 -58.723166 
L 461.742691 -61.350325 
L 461.543612 -63.977484 
L 461.308656 -66.604643 
L 461.033739 -69.231802 
L 460.714777 -71.858961 
L 460.347776 -74.48612 
L 459.92893 -77.11328 
L 459.454732 -79.740439 
L 458.922087 -82.367598 
L 458.328436 -84.994757 
L 457.671877 -87.621916 
L 456.951295 -90.249075 
L 456.16649 -92.876234 
L 455.318301 -95.503394 
L 454.408724 -98.130553 
L 453.441014 -100.757712 
L 452.419771 -103.384871 
L 451.350987 -106.01203 
L 450.242067 -108.639189 
L 449.10179 -111.266348 
L 447.940216 -113.893507 
L 446.768534 -116.520667 
L 445.598841 -119.147826 
L 444.443853 -121.774985 
L 443.316569 -124.402144 
L 442.22988 -127.029303 
L 441.196157 -129.656462 
L 440.226841 -132.283621 
L 439.332044 -134.910781 
L 438.520208 -137.53794 
L 437.79784 -140.165099 
L 437.169329 -142.792258 
L 436.636895 -145.419417 
L 436.200633 -148.046576 
L 435.858692 -150.673735 
L 435.607545 -153.300895 
L 435.442352 -155.928054 
L 435.357375 -158.555213 
L 435.346427 -161.182372 
L 435.403306 -163.809531 
L 435.522196 -166.43669 
L 435.697998 -169.063849 
L 435.926572 -171.691008 
L 436.204876 -174.318168 
L 436.530995 -176.945327 
L 436.904064 -179.572486 
L 437.324093 -182.199645 
L 437.791721 -184.826804 
L 438.307908 -187.453963 
L 438.873598 -190.081122 
L 439.489381 -192.708282 
L 440.155172 -195.335441 
L 440.869929 -197.9626 
L 441.631432 -200.589759 
L 442.436134 -203.216918 
L 443.279095 -205.844077 
L 444.153996 -208.471236 
L 445.053247 -211.098396 
L 445.968163 -213.725555 
L 446.889226 -216.352714 
L 447.806393 -218.979873 
L 448.709459 -221.607032 
L 449.588441 -224.234191 
L 450.43397 -226.86135 
L 451.237666 -229.488509 
L 451.992483 -232.115669 
L 452.692991 -234.742828 
L 453.33559 -237.369987 
L 453.918631 -239.997146 
L 454.442447 -242.624305 
L 454.909279 -245.251464 
L 455.323104 -247.878623 
L 455.689386 -250.505783 
L 456.014737 -253.132942 
L 456.306547 -255.760101 
L 456.572571 -258.38726 
L 456.820519 -261.014419 
L 457.057671 -263.641578 
L 457.290534 -266.268737 
L 457.524566 -268.895897 
L 457.763976 -271.523056 
L 458.011618 -274.150215 
L 458.268962 -276.777374 
L 458.536157 -279.404533 
L 458.812162 -282.031692 
L 459.094935 -284.658851 
L 459.381666 -287.28601 
L 459.669024 -289.91317 
L 459.953413 -292.540329 
L 460.231215 -295.167488 
L 460.499002 -297.794647 
L 460.753709 -300.421806 
L 460.992767 -303.048965 
L 461.21419 -305.676124 
L 461.41661 -308.303284 
L 461.599279 -310.930443 
L 461.762032 -313.557602 
L 461.905222 -316.184761 
L 462.029642 -318.81192 
L 463.170358 -318.81192 
L 463.170358 -318.81192 
L 463.294778 -316.184761 
L 463.437968 -313.557602 
L 463.600721 -310.930443 
L 463.78339 -308.303284 
L 463.98581 -305.676124 
L 464.207233 -303.048965 
L 464.446291 -300.421806 
L 464.700998 -297.794647 
L 464.968785 -295.167488 
L 465.246587 -292.540329 
L 465.530976 -289.91317 
L 465.818334 -287.28601 
L 466.105065 -284.658851 
L 466.387838 -282.031692 
L 466.663843 -279.404533 
L 466.931038 -276.777374 
L 467.188382 -274.150215 
L 467.436024 -271.523056 
L 467.675434 -268.895897 
L 467.909466 -266.268737 
L 468.142329 -263.641578 
L 468.379481 -261.014419 
L 468.627429 -258.38726 
L 468.893453 -255.760101 
L 469.185263 -253.132942 
L 469.510614 -250.505783 
L 469.876896 -247.878623 
L 470.290721 -245.251464 
L 470.757553 -242.624305 
L 471.281369 -239.997146 
L 471.86441 -237.369987 
L 472.507009 -234.742828 
L 473.207517 -232.115669 
L 473.962334 -229.488509 
L 474.76603 -226.86135 
L 475.611559 -224.234191 
L 476.490541 -221.607032 
L 477.393607 -218.979873 
L 478.310774 -216.352714 
L 479.231837 -213.725555 
L 480.146753 -211.098396 
L 481.046004 -208.471236 
L 481.920905 -205.844077 
L 482.763866 -203.216918 
L 483.568568 -200.589759 
L 484.330071 -197.9626 
L 485.044828 -195.335441 
L 485.710619 -192.708282 
L 486.326402 -190.081122 
L 486.892092 -187.453963 
L 487.408279 -184.826804 
L 487.875907 -182.199645 
L 488.295936 -179.572486 
L 488.669005 -176.945327 
L 488.995124 -174.318168 
L 489.273428 -171.691008 
L 489.502002 -169.063849 
L 489.677804 -166.43669 
L 489.796694 -163.809531 
L 489.853573 -161.182372 
L 489.842625 -158.555213 
L 489.757648 -155.928054 
L 489.592455 -153.300895 
L 489.341308 -150.673735 
L 488.999367 -148.046576 
L 488.563105 -145.419417 
L 488.030671 -142.792258 
L 487.40216 -140.165099 
L 486.679792 -137.53794 
L 485.867956 -134.910781 
L 484.973159 -132.283621 
L 484.003843 -129.656462 
L 482.97012 -127.029303 
L 481.883431 -124.402144 
L 480.756147 -121.774985 
L 479.601159 -119.147826 
L 478.431466 -116.520667 
L 477.259784 -113.893507 
L 476.09821 -111.266348 
L 474.957933 -108.639189 
L 473.849013 -106.01203 
L 472.780229 -103.384871 
L 471.758986 -100.757712 
L 470.791276 -98.130553 
L 469.881699 -95.503394 
L 469.03351 -92.876234 
L 468.248705 -90.249075 
L 467.528123 -87.621916 
L 466.871564 -84.994757 
L 466.277913 -82.367598 
L 465.745268 -79.740439 
L 465.27107 -77.11328 
L 464.852224 -74.48612 
L 464.485223 -71.858961 
L 464.166261 -69.231802 
L 463.891344 -66.604643 
L 463.656388 -63.977484 
L 463.457309 -61.350325 
L 463.290103 -58.723166 
z
" id="ma644ac6501" style="stroke:#4c4c4c;stroke-width:1.75;"/>
    </defs>
    <g clip-path="url(#pd57fc63c90)">
     <use style="fill:#857aaa;stroke:#4c4c4c;stroke-width:1.75;" x="0.0" xlink:href="#ma644ac6501" y="396.0"/>
    </g>
   </g>
   <g id="patch_3">
    <path d="M 72 39.6 
L 518.4 39.6 
" style="fill:none;stroke:#cccccc;stroke-linecap:square;stroke-linejoin:miter;"/>
   </g>
   <g id="patch_4">
    <path d="M 518.4 356.4 
L 518.4 39.6 
" style="fill:none;stroke:#cccccc;stroke-linecap:square;stroke-linejoin:miter;"/>
   </g>
   <g id="patch_5">
    <path d="M 72 356.4 
L 518.4 356.4 
" style="fill:none;stroke:#cccccc;stroke-linecap:square;stroke-linejoin:miter;"/>
   </g>
   <g id="patch_6">
    <path d="M 72 356.4 
L 72 39.6 
" style="fill:none;stroke:#cccccc;stroke-linecap:square;stroke-linejoin:miter;"/>
   </g>
   <g id="PathCollection_1">
    <defs>
     <path d="M 0 2.5 
C 0.663008 2.5 1.29895 2.236584 1.767767 1.767767 
C 2.236584 1.29895 2.5 0.663008 2.5 0 
C 2.5 -0.663008 2.236584 -1.29895 1.767767 -1.767767 
C 1.29895 -2.236584 0.663008 -2.5 0 -2.5 
C -0.663008 -2.5 -1.29895 -2.236584 -1.767767 -1.767767 
C -2.236584 -1.29895 -2.5 -0.663008 -2.5 0 
C -2.5 0.663008 -2.236584 1.29895 -1.767767 1.767767 
C -1.29895 2.236584 -0.663008 2.5 0 2.5 
z
" id="C0_0_b810b98b09"/>
    </defs>
    <g clip-path="url(#pd57fc63c90)">
     <use style="fill:#ffffff;fill-opacity:0.5;" x="127.8" xlink:href="#C0_0_b810b98b09" y="271.452342857"/>
    </g>
    <g clip-path="url(#pd57fc63c90)">
     <use style="fill:#ffffff;fill-opacity:0.5;" x="125.895825234" xlink:href="#C0_0_b810b98b09" y="267.333942857"/>
    </g>
    <g clip-path="url(#pd57fc63c90)">
     <use style="fill:#ffffff;fill-opacity:0.5;" x="130.456429945" xlink:href="#C0_0_b810b98b09" y="266.157257143"/>
    </g>
    <g clip-path="url(#pd57fc63c90)">
     <use style="fill:#ffffff;fill-opacity:0.5;" x="122.092536729" xlink:href="#C0_0_b810b98b09" y="264.663771429"/>
    </g>
    <g clip-path="url(#pd57fc63c90)">
     <use style="fill:#ffffff;fill-opacity:0.5;" x="134.879029945" xlink:href="#C0_0_b810b98b09" y="264.573257143"/>
    </g>
    <g clip-path="url(#pd57fc63c90)">
     <use style="fill:#ffffff;fill-opacity:0.5;" x="117.376147052" xlink:href="#C0_0_b810b98b09" y="264.392228571"/>
    </g>
    <g clip-path="url(#pd57fc63c90)">
     <use style="fill:#ffffff;fill-opacity:0.5;" x="139.598052221" xlink:href="#C0_0_b810b98b09" y="264.346971429"/>
    </g>
    <g clip-path="url(#pd57fc63c90)">
     <use style="fill:#ffffff;fill-opacity:0.5;" x="127.8" xlink:href="#C0_0_b810b98b09" y="254.3904"/>
    </g>
    <g clip-path="url(#pd57fc63c90)">
     <use style="fill:#ffffff;fill-opacity:0.5;" x="127.8" xlink:href="#C0_0_b810b98b09" y="248.0544"/>
    </g>
    <g clip-path="url(#pd57fc63c90)">
     <use style="fill:#ffffff;fill-opacity:0.5;" x="125.271736608" xlink:href="#C0_0_b810b98b09" y="244.2528"/>
    </g>
    <g clip-path="url(#pd57fc63c90)">
     <use style="fill:#ffffff;fill-opacity:0.5;" x="129.906849706" xlink:href="#C0_0_b810b98b09" y="244.026514286"/>
    </g>
    <g clip-path="url(#pd57fc63c90)">
     <use style="fill:#ffffff;fill-opacity:0.5;" x="134.525267256" xlink:href="#C0_0_b810b98b09" y="243.076114286"/>
    </g>
    <g clip-path="url(#pd57fc63c90)">
     <use style="fill:#ffffff;fill-opacity:0.5;" x="121.65562807" xlink:href="#C0_0_b810b98b09" y="241.356342857"/>
    </g>
    <g clip-path="url(#pd57fc63c90)">
     <use style="fill:#ffffff;fill-opacity:0.5;" x="127.8" xlink:href="#C0_0_b810b98b09" y="237.418971429"/>
    </g>
    <g clip-path="url(#pd57fc63c90)">
     <use style="fill:#ffffff;fill-opacity:0.5;" x="124.35269126" xlink:href="#C0_0_b810b98b09" y="234.341485714"/>
    </g>
    <g clip-path="url(#pd57fc63c90)">
     <use style="fill:#ffffff;fill-opacity:0.5;" x="131.155694867" xlink:href="#C0_0_b810b98b09" y="234.250971429"/>
    </g>
    <g clip-path="url(#pd57fc63c90)">
     <use style="fill:#ffffff;fill-opacity:0.5;" x="135.319511718" xlink:href="#C0_0_b810b98b09" y="232.123885714"/>
    </g>
    <g clip-path="url(#pd57fc63c90)">
     <use style="fill:#ffffff;fill-opacity:0.5;" x="127.8" xlink:href="#C0_0_b810b98b09" y="229.498971429"/>
    </g>
    <g clip-path="url(#pd57fc63c90)">
     <use style="fill:#ffffff;fill-opacity:0.5;" x="132.373213422" xlink:href="#C0_0_b810b98b09" y="228.367542857"/>
    </g>
    <g clip-path="url(#pd57fc63c90)">
     <use style="fill:#ffffff;fill-opacity:0.5;" x="123.453624701" xlink:href="#C0_0_b810b98b09" y="227.733942857"/>
    </g>
    <g clip-path="url(#pd57fc63c90)">
     <use style="fill:#ffffff;fill-opacity:0.5;" x="127.8" xlink:href="#C0_0_b810b98b09" y="222.936685714"/>
    </g>
    <g clip-path="url(#pd57fc63c90)">
     <use style="fill:#ffffff;fill-opacity:0.5;" x="127.8" xlink:href="#C0_0_b810b98b09" y="216.0576"/>
    </g>
    <g clip-path="url(#pd57fc63c90)">
     <use style="fill:#ffffff;fill-opacity:0.5;" x="123.928450652" xlink:href="#C0_0_b810b98b09" y="213.477942857"/>
    </g>
    <g clip-path="url(#pd57fc63c90)">
     <use style="fill:#ffffff;fill-opacity:0.5;" x="127.8" xlink:href="#C0_0_b810b98b09" y="210.536228571"/>
    </g>
    <g clip-path="url(#pd57fc63c90)">
     <use style="fill:#ffffff;fill-opacity:0.5;" x="127.8" xlink:href="#C0_0_b810b98b09" y="203.973942857"/>
    </g>
    <g clip-path="url(#pd57fc63c90)">
     <use style="fill:#ffffff;fill-opacity:0.5;" x="125.895825234" xlink:href="#C0_0_b810b98b09" y="199.855542857"/>
    </g>
    <g clip-path="url(#pd57fc63c90)">
     <use style="fill:#ffffff;fill-opacity:0.5;" x="129.251520101" xlink:href="#C0_0_b810b98b09" y="196.687542857"/>
    </g>
    <g clip-path="url(#pd57fc63c90)">
     <use style="fill:#ffffff;fill-opacity:0.5;" x="124.857226233" xlink:href="#C0_0_b810b98b09" y="195.4656"/>
    </g>
    <g clip-path="url(#pd57fc63c90)">
     <use style="fill:#ffffff;fill-opacity:0.5;" x="127.8" xlink:href="#C0_0_b810b98b09" y="189.491657143"/>
    </g>
    <g clip-path="url(#pd57fc63c90)">
     <use style="fill:#ffffff;fill-opacity:0.5;" x="127.8" xlink:href="#C0_0_b810b98b09" y="181.933714286"/>
    </g>
    <g clip-path="url(#pd57fc63c90)">
     <use style="fill:#ffffff;fill-opacity:0.5;" x="127.8" xlink:href="#C0_0_b810b98b09" y="173.561142857"/>
    </g>
    <g clip-path="url(#pd57fc63c90)">
     <use style="fill:#ffffff;fill-opacity:0.5;" x="127.8" xlink:href="#C0_0_b810b98b09" y="164.509714286"/>
    </g>
    <g clip-path="url(#pd57fc63c90)">
     <use style="fill:#ffffff;fill-opacity:0.5;" x="127.8" xlink:href="#C0_0_b810b98b09" y="153.602742857"/>
    </g>
    <g clip-path="url(#pd57fc63c90)">
     <use style="fill:#ffffff;fill-opacity:0.5;" x="123.586584469" xlink:href="#C0_0_b810b98b09" y="151.566171429"/>
    </g>
   </g>
   <g id="PathCollection_2">
    <defs>
     <path d="M 0 2.5 
C 0.663008 2.5 1.29895 2.236584 1.767767 1.767767 
C 2.236584 1.29895 2.5 0.663008 2.5 0 
C 2.5 -0.663008 2.236584 -1.29895 1.767767 -1.767767 
C 1.29895 -2.236584 0.663008 -2.5 0 -2.5 
C -0.663008 -2.5 -1.29895 -2.236584 -1.767767 -1.767767 
C -2.236584 -1.29895 -2.5 -0.663008 -2.5 0 
C -2.5 0.663008 -2.236584 1.29895 -1.767767 1.767767 
C -1.29895 2.236584 -0.663008 2.5 0 2.5 
z
" id="C1_0_293d249843"/>
    </defs>
    <g clip-path="url(#pd57fc63c90)">
     <use style="fill:#ffffff;fill-opacity:0.5;" x="239.4" xlink:href="#C1_0_293d249843" y="297.248914286"/>
    </g>
    <g clip-path="url(#pd57fc63c90)">
     <use style="fill:#ffffff;fill-opacity:0.5;" x="234.675" xlink:href="#C1_0_293d249843" y="297.248914286"/>
    </g>
    <g clip-path="url(#pd57fc63c90)">
     <use style="fill:#ffffff;fill-opacity:0.5;" x="239.4" xlink:href="#C1_0_293d249843" y="267.922285714"/>
    </g>
    <g clip-path="url(#pd57fc63c90)">
     <use style="fill:#ffffff;fill-opacity:0.5;" x="238.169345331" xlink:href="#C1_0_293d249843" y="263.5776"/>
    </g>
    <g clip-path="url(#pd57fc63c90)">
     <use style="fill:#ffffff;fill-opacity:0.5;" x="242.894345331" xlink:href="#C1_0_293d249843" y="263.5776"/>
    </g>
    <g clip-path="url(#pd57fc63c90)">
     <use style="fill:#ffffff;fill-opacity:0.5;" x="234.113217152" xlink:href="#C1_0_293d249843" y="261.269485714"/>
    </g>
    <g clip-path="url(#pd57fc63c90)">
     <use style="fill:#ffffff;fill-opacity:0.5;" x="246.102450928" xlink:href="#C1_0_293d249843" y="260.273828571"/>
    </g>
    <g clip-path="url(#pd57fc63c90)">
     <use style="fill:#ffffff;fill-opacity:0.5;" x="239.4" xlink:href="#C1_0_293d249843" y="256.743771429"/>
    </g>
    <g clip-path="url(#pd57fc63c90)">
     <use style="fill:#ffffff;fill-opacity:0.5;" x="234.675" xlink:href="#C1_0_293d249843" y="256.743771429"/>
    </g>
    <g clip-path="url(#pd57fc63c90)">
     <use style="fill:#ffffff;fill-opacity:0.5;" x="242.891244456" xlink:href="#C1_0_293d249843" y="253.711542857"/>
    </g>
    <g clip-path="url(#pd57fc63c90)">
     <use style="fill:#ffffff;fill-opacity:0.5;" x="239.4" xlink:href="#C1_0_293d249843" y="250.634057143"/>
    </g>
    <g clip-path="url(#pd57fc63c90)">
     <use style="fill:#ffffff;fill-opacity:0.5;" x="235.162802126" xlink:href="#C1_0_293d249843" y="248.642742857"/>
    </g>
    <g clip-path="url(#pd57fc63c90)">
     <use style="fill:#ffffff;fill-opacity:0.5;" x="239.4" xlink:href="#C1_0_293d249843" y="244.479085714"/>
    </g>
    <g clip-path="url(#pd57fc63c90)">
     <use style="fill:#ffffff;fill-opacity:0.5;" x="244.125" xlink:href="#C1_0_293d249843" y="244.479085714"/>
    </g>
    <g clip-path="url(#pd57fc63c90)">
     <use style="fill:#ffffff;fill-opacity:0.5;" x="234.866211839" xlink:href="#C1_0_293d249843" y="243.211885714"/>
    </g>
    <g clip-path="url(#pd57fc63c90)">
     <use style="fill:#ffffff;fill-opacity:0.5;" x="248.658788161" xlink:href="#C1_0_293d249843" y="243.211885714"/>
    </g>
    <g clip-path="url(#pd57fc63c90)">
     <use style="fill:#ffffff;fill-opacity:0.5;" x="230.147189563" xlink:href="#C1_0_293d249843" y="242.9856"/>
    </g>
    <g clip-path="url(#pd57fc63c90)">
     <use style="fill:#ffffff;fill-opacity:0.5;" x="239.4" xlink:href="#C1_0_293d249843" y="239.772342857"/>
    </g>
    <g clip-path="url(#pd57fc63c90)">
     <use style="fill:#ffffff;fill-opacity:0.5;" x="243.947464498" xlink:href="#C1_0_293d249843" y="238.5504"/>
    </g>
    <g clip-path="url(#pd57fc63c90)">
     <use style="fill:#ffffff;fill-opacity:0.5;" x="235.43252493" xlink:href="#C1_0_293d249843" y="237.328457143"/>
    </g>
    <g clip-path="url(#pd57fc63c90)">
     <use style="fill:#ffffff;fill-opacity:0.5;" x="230.754595097" xlink:href="#C1_0_293d249843" y="236.694857143"/>
    </g>
    <g clip-path="url(#pd57fc63c90)">
     <use style="fill:#ffffff;fill-opacity:0.5;" x="248.252075302" xlink:href="#C1_0_293d249843" y="236.694857143"/>
    </g>
    <g clip-path="url(#pd57fc63c90)">
     <use style="fill:#ffffff;fill-opacity:0.5;" x="239.4" xlink:href="#C1_0_293d249843" y="234.522514286"/>
    </g>
    <g clip-path="url(#pd57fc63c90)">
     <use style="fill:#ffffff;fill-opacity:0.5;" x="244.077929833" xlink:href="#C1_0_293d249843" y="233.888914286"/>
    </g>
    <g clip-path="url(#pd57fc63c90)">
     <use style="fill:#ffffff;fill-opacity:0.5;" x="227.060641272" xlink:href="#C1_0_293d249843" y="233.888914286"/>
    </g>
    <g clip-path="url(#pd57fc63c90)">
     <use style="fill:#ffffff;fill-opacity:0.5;" x="235.866004831" xlink:href="#C1_0_293d249843" y="231.535542857"/>
    </g>
    <g clip-path="url(#pd57fc63c90)">
     <use style="fill:#ffffff;fill-opacity:0.5;" x="247.385842896" xlink:href="#C1_0_293d249843" y="230.675657143"/>
    </g>
    <g clip-path="url(#pd57fc63c90)">
     <use style="fill:#ffffff;fill-opacity:0.5;" x="231.25811158" xlink:href="#C1_0_293d249843" y="230.539885714"/>
    </g>
    <g clip-path="url(#pd57fc63c90)">
     <use style="fill:#ffffff;fill-opacity:0.5;" x="240.323189953" xlink:href="#C1_0_293d249843" y="230.042057143"/>
    </g>
    <g clip-path="url(#pd57fc63c90)">
     <use style="fill:#ffffff;fill-opacity:0.5;" x="252.063772729" xlink:href="#C1_0_293d249843" y="230.042057143"/>
    </g>
    <g clip-path="url(#pd57fc63c90)">
     <use style="fill:#ffffff;fill-opacity:0.5;" x="224.609011536" xlink:href="#C1_0_293d249843" y="230.042057143"/>
    </g>
    <g clip-path="url(#pd57fc63c90)">
     <use style="fill:#ffffff;fill-opacity:0.5;" x="256.449455926" xlink:href="#C1_0_293d249843" y="228.367542857"/>
    </g>
    <g clip-path="url(#pd57fc63c90)">
     <use style="fill:#ffffff;fill-opacity:0.5;" x="220.34869407" xlink:href="#C1_0_293d249843" y="228.096"/>
    </g>
    <g clip-path="url(#pd57fc63c90)">
     <use style="fill:#ffffff;fill-opacity:0.5;" x="237.333699816" xlink:href="#C1_0_293d249843" y="226.557257143"/>
    </g>
    <g clip-path="url(#pd57fc63c90)">
     <use style="fill:#ffffff;fill-opacity:0.5;" x="239.4" xlink:href="#C1_0_293d249843" y="222.212571429"/>
    </g>
    <g clip-path="url(#pd57fc63c90)">
     <use style="fill:#ffffff;fill-opacity:0.5;" x="234.744570961" xlink:href="#C1_0_293d249843" y="221.4432"/>
    </g>
    <g clip-path="url(#pd57fc63c90)">
     <use style="fill:#ffffff;fill-opacity:0.5;" x="243.660317466" xlink:href="#C1_0_293d249843" y="220.266514286"/>
    </g>
    <g clip-path="url(#pd57fc63c90)">
     <use style="fill:#ffffff;fill-opacity:0.5;" x="248.331242552" xlink:href="#C1_0_293d249843" y="219.587657143"/>
    </g>
    <g clip-path="url(#pd57fc63c90)">
     <use style="fill:#ffffff;fill-opacity:0.5;" x="230.439960157" xlink:href="#C1_0_293d249843" y="219.587657143"/>
    </g>
    <g clip-path="url(#pd57fc63c90)">
     <use style="fill:#ffffff;fill-opacity:0.5;" x="253.047632229" xlink:href="#C1_0_293d249843" y="219.316114286"/>
    </g>
    <g clip-path="url(#pd57fc63c90)">
     <use style="fill:#ffffff;fill-opacity:0.5;" x="225.72357048" xlink:href="#C1_0_293d249843" y="219.316114286"/>
    </g>
    <g clip-path="url(#pd57fc63c90)">
     <use style="fill:#ffffff;fill-opacity:0.5;" x="239.4" xlink:href="#C1_0_293d249843" y="217.686857143"/>
    </g>
    <g clip-path="url(#pd57fc63c90)">
     <use style="fill:#ffffff;fill-opacity:0.5;" x="257.373436705" xlink:href="#C1_0_293d249843" y="217.505828571"/>
    </g>
    <g clip-path="url(#pd57fc63c90)">
     <use style="fill:#ffffff;fill-opacity:0.5;" x="234.852535502" xlink:href="#C1_0_293d249843" y="216.464914286"/>
    </g>
    <g clip-path="url(#pd57fc63c90)">
     <use style="fill:#ffffff;fill-opacity:0.5;" x="239.4" xlink:href="#C1_0_293d249843" y="212.934857143"/>
    </g>
    <g clip-path="url(#pd57fc63c90)">
     <use style="fill:#ffffff;fill-opacity:0.5;" x="236.141262004" xlink:href="#C1_0_293d249843" y="209.676342857"/>
    </g>
    <g clip-path="url(#pd57fc63c90)">
     <use style="fill:#ffffff;fill-opacity:0.5;" x="239.4" xlink:href="#C1_0_293d249843" y="202.254171429"/>
    </g>
    <g clip-path="url(#pd57fc63c90)">
     <use style="fill:#ffffff;fill-opacity:0.5;" x="239.4" xlink:href="#C1_0_293d249843" y="196.7328"/>
    </g>
    <g clip-path="url(#pd57fc63c90)">
     <use style="fill:#ffffff;fill-opacity:0.5;" x="234.675" xlink:href="#C1_0_293d249843" y="196.7328"/>
    </g>
    <g clip-path="url(#pd57fc63c90)">
     <use style="fill:#ffffff;fill-opacity:0.5;" x="239.4" xlink:href="#C1_0_293d249843" y="191.618742857"/>
    </g>
    <g clip-path="url(#pd57fc63c90)">
     <use style="fill:#ffffff;fill-opacity:0.5;" x="235.186584469" xlink:href="#C1_0_293d249843" y="189.582171429"/>
    </g>
    <g clip-path="url(#pd57fc63c90)">
     <use style="fill:#ffffff;fill-opacity:0.5;" x="243.613415531" xlink:href="#C1_0_293d249843" y="189.582171429"/>
    </g>
    <g clip-path="url(#pd57fc63c90)">
     <use style="fill:#ffffff;fill-opacity:0.5;" x="239.4" xlink:href="#C1_0_293d249843" y="169.623771429"/>
    </g>
    <g clip-path="url(#pd57fc63c90)">
     <use style="fill:#ffffff;fill-opacity:0.5;" x="239.4" xlink:href="#C1_0_293d249843" y="139.120457143"/>
    </g>
    <g clip-path="url(#pd57fc63c90)">
     <use style="fill:#ffffff;fill-opacity:0.5;" x="239.4" xlink:href="#C1_0_293d249843" y="132.7392"/>
    </g>
    <g clip-path="url(#pd57fc63c90)">
     <use style="fill:#ffffff;fill-opacity:0.5;" x="239.4" xlink:href="#C1_0_293d249843" y="110.653714286"/>
    </g>
    <g clip-path="url(#pd57fc63c90)">
     <use style="fill:#ffffff;fill-opacity:0.5;" x="239.4" xlink:href="#C1_0_293d249843" y="92.6866285714"/>
    </g>
   </g>
   <g id="PathCollection_3">
    <defs>
     <path d="M 0 2.5 
C 0.663008 2.5 1.29895 2.236584 1.767767 1.767767 
C 2.236584 1.29895 2.5 0.663008 2.5 0 
C 2.5 -0.663008 2.236584 -1.29895 1.767767 -1.767767 
C 1.29895 -2.236584 0.663008 -2.5 0 -2.5 
C -0.663008 -2.5 -1.29895 -2.236584 -1.767767 -1.767767 
C -2.236584 -1.29895 -2.5 -0.663008 -2.5 0 
C -2.5 0.663008 -2.236584 1.29895 -1.767767 1.767767 
C -1.29895 2.236584 -0.663008 2.5 0 2.5 
z
" id="C2_0_017df424d3"/>
    </defs>
    <g clip-path="url(#pd57fc63c90)">
     <use style="fill:#ffffff;fill-opacity:0.5;" x="351.0" xlink:href="#C2_0_017df424d3" y="265.568914286"/>
    </g>
    <g clip-path="url(#pd57fc63c90)">
     <use style="fill:#ffffff;fill-opacity:0.5;" x="346.275" xlink:href="#C2_0_017df424d3" y="265.568914286"/>
    </g>
    <g clip-path="url(#pd57fc63c90)">
     <use style="fill:#ffffff;fill-opacity:0.5;" x="351.0" xlink:href="#C2_0_017df424d3" y="252.1728"/>
    </g>
    <g clip-path="url(#pd57fc63c90)">
     <use style="fill:#ffffff;fill-opacity:0.5;" x="351.0" xlink:href="#C2_0_017df424d3" y="238.821942857"/>
    </g>
    <g clip-path="url(#pd57fc63c90)">
     <use style="fill:#ffffff;fill-opacity:0.5;" x="346.275" xlink:href="#C2_0_017df424d3" y="238.821942857"/>
    </g>
    <g clip-path="url(#pd57fc63c90)">
     <use style="fill:#ffffff;fill-opacity:0.5;" x="354.44730874" xlink:href="#C2_0_017df424d3" y="235.744457143"/>
    </g>
    <g clip-path="url(#pd57fc63c90)">
     <use style="fill:#ffffff;fill-opacity:0.5;" x="342.82769126" xlink:href="#C2_0_017df424d3" y="235.744457143"/>
    </g>
    <g clip-path="url(#pd57fc63c90)">
     <use style="fill:#ffffff;fill-opacity:0.5;" x="350.79176144" xlink:href="#C2_0_017df424d3" y="232.893257143"/>
    </g>
    <g clip-path="url(#pd57fc63c90)">
     <use style="fill:#ffffff;fill-opacity:0.5;" x="358.10285604" xlink:href="#C2_0_017df424d3" y="232.893257143"/>
    </g>
    <g clip-path="url(#pd57fc63c90)">
     <use style="fill:#ffffff;fill-opacity:0.5;" x="351.231639753" xlink:href="#C2_0_017df424d3" y="228.4128"/>
    </g>
    <g clip-path="url(#pd57fc63c90)">
     <use style="fill:#ffffff;fill-opacity:0.5;" x="351.0" xlink:href="#C2_0_017df424d3" y="223.162971429"/>
    </g>
    <g clip-path="url(#pd57fc63c90)">
     <use style="fill:#ffffff;fill-opacity:0.5;" x="346.275" xlink:href="#C2_0_017df424d3" y="223.162971429"/>
    </g>
    <g clip-path="url(#pd57fc63c90)">
     <use style="fill:#ffffff;fill-opacity:0.5;" x="351.0" xlink:href="#C2_0_017df424d3" y="215.378742857"/>
    </g>
    <g clip-path="url(#pd57fc63c90)">
     <use style="fill:#ffffff;fill-opacity:0.5;" x="351.0" xlink:href="#C2_0_017df424d3" y="208.1376"/>
    </g>
    <g clip-path="url(#pd57fc63c90)">
     <use style="fill:#ffffff;fill-opacity:0.5;" x="346.275" xlink:href="#C2_0_017df424d3" y="208.1376"/>
    </g>
    <g clip-path="url(#pd57fc63c90)">
     <use style="fill:#ffffff;fill-opacity:0.5;" x="351.0" xlink:href="#C2_0_017df424d3" y="199.312457143"/>
    </g>
    <g clip-path="url(#pd57fc63c90)">
     <use style="fill:#ffffff;fill-opacity:0.5;" x="351.0" xlink:href="#C2_0_017df424d3" y="188.043428571"/>
    </g>
    <g clip-path="url(#pd57fc63c90)">
     <use style="fill:#ffffff;fill-opacity:0.5;" x="346.275" xlink:href="#C2_0_017df424d3" y="188.043428571"/>
    </g>
    <g clip-path="url(#pd57fc63c90)">
     <use style="fill:#ffffff;fill-opacity:0.5;" x="351.0" xlink:href="#C2_0_017df424d3" y="163.242514286"/>
    </g>
    <g clip-path="url(#pd57fc63c90)">
     <use style="fill:#ffffff;fill-opacity:0.5;" x="346.275" xlink:href="#C2_0_017df424d3" y="163.242514286"/>
    </g>
    <g clip-path="url(#pd57fc63c90)">
     <use style="fill:#ffffff;fill-opacity:0.5;" x="351.0" xlink:href="#C2_0_017df424d3" y="153.512228571"/>
    </g>
   </g>
   <g id="PathCollection_4">
    <defs>
     <path d="M 0 2.5 
C 0.663008 2.5 1.29895 2.236584 1.767767 1.767767 
C 2.236584 1.29895 2.5 0.663008 2.5 0 
C 2.5 -0.663008 2.236584 -1.29895 1.767767 -1.767767 
C 1.29895 -2.236584 0.663008 -2.5 0 -2.5 
C -0.663008 -2.5 -1.29895 -2.236584 -1.767767 -1.767767 
C -2.236584 -1.29895 -2.5 -0.663008 -2.5 0 
C -2.5 0.663008 -2.236584 1.29895 -1.767767 1.767767 
C -1.29895 2.236584 -0.663008 2.5 0 2.5 
z
" id="C3_0_b49ab4cbd6"/>
    </defs>
    <g clip-path="url(#pd57fc63c90)">
     <use style="fill:#ffffff;fill-opacity:0.5;" x="462.6" xlink:href="#C3_0_b49ab4cbd6" y="285.12"/>
    </g>
    <g clip-path="url(#pd57fc63c90)">
     <use style="fill:#ffffff;fill-opacity:0.5;" x="462.6" xlink:href="#C3_0_b49ab4cbd6" y="259.776"/>
    </g>
    <g clip-path="url(#pd57fc63c90)">
     <use style="fill:#ffffff;fill-opacity:0.5;" x="459.15269126" xlink:href="#C3_0_b49ab4cbd6" y="256.698514286"/>
    </g>
    <g clip-path="url(#pd57fc63c90)">
     <use style="fill:#ffffff;fill-opacity:0.5;" x="463.413008726" xlink:href="#C3_0_b49ab4cbd6" y="254.752457143"/>
    </g>
    <g clip-path="url(#pd57fc63c90)">
     <use style="fill:#ffffff;fill-opacity:0.5;" x="462.6" xlink:href="#C3_0_b49ab4cbd6" y="241.537371429"/>
    </g>
    <g clip-path="url(#pd57fc63c90)">
     <use style="fill:#ffffff;fill-opacity:0.5;" x="461.059672741" xlink:href="#C3_0_b49ab4cbd6" y="237.2832"/>
    </g>
    <g clip-path="url(#pd57fc63c90)">
     <use style="fill:#ffffff;fill-opacity:0.5;" x="462.6" xlink:href="#C3_0_b49ab4cbd6" y="216.0576"/>
    </g>
    <g clip-path="url(#pd57fc63c90)">
     <use style="fill:#ffffff;fill-opacity:0.5;" x="462.6" xlink:href="#C3_0_b49ab4cbd6" y="209.359542857"/>
    </g>
    <g clip-path="url(#pd57fc63c90)">
     <use style="fill:#ffffff;fill-opacity:0.5;" x="458.039395289" xlink:href="#C3_0_b49ab4cbd6" y="208.182857143"/>
    </g>
    <g clip-path="url(#pd57fc63c90)">
     <use style="fill:#ffffff;fill-opacity:0.5;" x="462.6" xlink:href="#C3_0_b49ab4cbd6" y="187.681371429"/>
    </g>
    <g clip-path="url(#pd57fc63c90)">
     <use style="fill:#ffffff;fill-opacity:0.5;" x="462.6" xlink:href="#C3_0_b49ab4cbd6" y="180.032914286"/>
    </g>
    <g clip-path="url(#pd57fc63c90)">
     <use style="fill:#ffffff;fill-opacity:0.5;" x="462.6" xlink:href="#C3_0_b49ab4cbd6" y="129.344914286"/>
    </g>
   </g>
   <g id="text_15">
    <!-- violin&amp;swarm plot -->
    <defs>
     <path d="M 21 0 
L 1.265625 51.859375 
L 10.546875 51.859375 
L 21.6875 20.796875 
Q 23.484375 15.765625 25 10.359375 
Q 26.171875 14.453125 28.265625 20.21875 
L 39.796875 51.859375 
L 48.828125 51.859375 
L 29.203125 0 
z
" id="ArialMT-76"/>
     <path d="M 16.15625 0 
L 0.296875 51.859375 
L 9.375 51.859375 
L 17.625 21.921875 
L 20.703125 10.796875 
Q 20.90625 11.625 23.390625 21.484375 
L 31.640625 51.859375 
L 40.671875 51.859375 
L 48.4375 21.78125 
L 51.03125 11.859375 
L 54 21.875 
L 62.890625 51.859375 
L 71.4375 51.859375 
L 55.21875 0 
L 46.09375 0 
L 37.84375 31.0625 
L 35.84375 39.890625 
L 25.34375 0 
z
" id="ArialMT-77"/>
     <path d="M 6.59375 -19.875 
L 6.59375 51.859375 
L 14.59375 51.859375 
L 14.59375 45.125 
Q 17.4375 49.078125 21 51.046875 
Q 24.5625 53.03125 29.640625 53.03125 
Q 36.28125 53.03125 41.359375 49.609375 
Q 46.4375 46.1875 49.015625 39.953125 
Q 51.609375 33.734375 51.609375 26.3125 
Q 51.609375 18.359375 48.75 11.984375 
Q 45.90625 5.609375 40.453125 2.21875 
Q 35.015625 -1.171875 29 -1.171875 
Q 24.609375 -1.171875 21.109375 0.6875 
Q 17.625 2.546875 15.375 5.375 
L 15.375 -19.875 
z
M 14.546875 25.640625 
Q 14.546875 15.625 18.59375 10.84375 
Q 22.65625 6.0625 28.421875 6.0625 
Q 34.28125 6.0625 38.453125 11.015625 
Q 42.625 15.96875 42.625 26.375 
Q 42.625 36.28125 38.546875 41.203125 
Q 34.46875 46.140625 28.8125 46.140625 
Q 23.1875 46.140625 18.859375 40.890625 
Q 14.546875 35.640625 14.546875 25.640625 
" id="ArialMT-70"/>
     <path d="M 3.078125 15.484375 
L 11.765625 16.84375 
Q 12.5 11.625 15.84375 8.84375 
Q 19.1875 6.0625 25.203125 6.0625 
Q 31.25 6.0625 34.171875 8.515625 
Q 37.109375 10.984375 37.109375 14.3125 
Q 37.109375 17.28125 34.515625 19 
Q 32.71875 20.171875 25.53125 21.96875 
Q 15.875 24.421875 12.140625 26.203125 
Q 8.40625 27.984375 6.46875 31.125 
Q 4.546875 34.28125 4.546875 38.09375 
Q 4.546875 41.546875 6.125 44.5 
Q 7.71875 47.46875 10.453125 49.421875 
Q 12.5 50.921875 16.03125 51.96875 
Q 19.578125 53.03125 23.640625 53.03125 
Q 29.734375 53.03125 34.34375 51.265625 
Q 38.96875 49.515625 41.15625 46.5 
Q 43.359375 43.5 44.1875 38.484375 
L 35.59375 37.3125 
Q 35.015625 41.3125 32.203125 43.546875 
Q 29.390625 45.796875 24.265625 45.796875 
Q 18.21875 45.796875 15.625 43.796875 
Q 13.03125 41.796875 13.03125 39.109375 
Q 13.03125 37.40625 14.109375 36.03125 
Q 15.1875 34.625 17.484375 33.6875 
Q 18.796875 33.203125 25.25 31.453125 
Q 34.578125 28.953125 38.25 27.359375 
Q 41.9375 25.78125 44.03125 22.75 
Q 46.140625 19.734375 46.140625 15.234375 
Q 46.140625 10.84375 43.578125 6.953125 
Q 41.015625 3.078125 36.171875 0.953125 
Q 31.34375 -1.171875 25.25 -1.171875 
Q 15.140625 -1.171875 9.84375 3.03125 
Q 4.546875 7.234375 3.078125 15.484375 
" id="ArialMT-73"/>
     <path d="M 6.59375 0 
L 6.59375 51.859375 
L 14.453125 51.859375 
L 14.453125 44.578125 
Q 16.890625 48.390625 20.9375 50.703125 
Q 25 53.03125 30.171875 53.03125 
Q 35.9375 53.03125 39.625 50.640625 
Q 43.3125 48.25 44.828125 43.953125 
Q 50.984375 53.03125 60.84375 53.03125 
Q 68.5625 53.03125 72.703125 48.75 
Q 76.859375 44.484375 76.859375 35.59375 
L 76.859375 0 
L 68.109375 0 
L 68.109375 32.671875 
Q 68.109375 37.9375 67.25 40.25 
Q 66.40625 42.578125 64.15625 43.984375 
Q 61.921875 45.40625 58.890625 45.40625 
Q 53.421875 45.40625 49.796875 41.765625 
Q 46.1875 38.140625 46.1875 30.125 
L 46.1875 0 
L 37.40625 0 
L 37.40625 33.6875 
Q 37.40625 39.546875 35.25 42.46875 
Q 33.109375 45.40625 28.21875 45.40625 
Q 24.515625 45.40625 21.359375 43.453125 
Q 18.21875 41.5 16.796875 37.734375 
Q 15.375 33.984375 15.375 26.90625 
L 15.375 0 
z
" id="ArialMT-6d"/>
     <path d="M 47.515625 8.453125 
Q 43.171875 3.609375 38.03125 1.1875 
Q 32.90625 -1.21875 26.953125 -1.21875 
Q 15.96875 -1.21875 9.515625 6.203125 
Q 4.296875 12.25 4.296875 19.734375 
Q 4.296875 26.375 8.5625 31.71875 
Q 12.84375 37.0625 21.34375 41.109375 
Q 16.5 46.6875 14.890625 50.140625 
Q 13.28125 53.609375 13.28125 56.84375 
Q 13.28125 63.28125 18.328125 68.03125 
Q 23.390625 72.796875 31.0625 72.796875 
Q 38.375 72.796875 43.03125 68.296875 
Q 47.703125 63.8125 47.703125 57.515625 
Q 47.703125 47.3125 34.1875 40.09375 
L 47.015625 23.734375 
Q 49.21875 28.03125 50.4375 33.6875 
L 59.578125 31.734375 
Q 57.234375 22.359375 53.21875 16.3125 
Q 58.15625 9.765625 64.40625 5.328125 
L 58.5 -1.65625 
Q 53.171875 1.765625 47.515625 8.453125 
M 29.640625 45.75 
Q 35.359375 49.125 37.03125 51.65625 
Q 38.71875 54.203125 38.71875 57.28125 
Q 38.71875 60.9375 36.390625 63.25 
Q 34.078125 65.578125 30.609375 65.578125 
Q 27.046875 65.578125 24.671875 63.28125 
Q 22.3125 60.984375 22.3125 57.671875 
Q 22.3125 56 23.171875 54.171875 
Q 24.03125 52.34375 25.734375 50.296875 
z
M 42 15.375 
L 25.875 35.359375 
Q 18.75 31.109375 16.25 27.46875 
Q 13.765625 23.828125 13.765625 20.265625 
Q 13.765625 15.921875 17.234375 11.234375 
Q 20.703125 6.546875 27.046875 6.546875 
Q 31 6.546875 35.21875 9 
Q 39.453125 11.46875 42 15.375 
" id="ArialMT-26"/>
     <path id="ArialMT-20"/>
    </defs>
    <g style="fill:#262626;" transform="translate(248.52 34.6)scale(0.12 -0.12)">
     <use xlink:href="#ArialMT-76"/>
     <use x="50.0" xlink:href="#ArialMT-69"/>
     <use x="72.216796875" xlink:href="#ArialMT-6f"/>
     <use x="127.83203125" xlink:href="#ArialMT-6c"/>
     <use x="150.048828125" xlink:href="#ArialMT-69"/>
     <use x="172.265625" xlink:href="#ArialMT-6e"/>
     <use x="227.880859375" xlink:href="#ArialMT-26"/>
     <use x="294.580078125" xlink:href="#ArialMT-73"/>
     <use x="344.580078125" xlink:href="#ArialMT-77"/>
     <use x="416.796875" xlink:href="#ArialMT-61"/>
     <use x="472.412109375" xlink:href="#ArialMT-72"/>
     <use x="505.712890625" xlink:href="#ArialMT-6d"/>
     <use x="589.013671875" xlink:href="#ArialMT-20"/>
     <use x="616.796875" xlink:href="#ArialMT-70"/>
     <use x="672.412109375" xlink:href="#ArialMT-6c"/>
     <use x="694.62890625" xlink:href="#ArialMT-6f"/>
     <use x="750.244140625" xlink:href="#ArialMT-74"/>
    </g>
   </g>
  </g>
 </g>
 <defs>
  <clipPath id="pd57fc63c90">
   <rect height="316.8" width="446.4" x="72.0" y="39.6"/>
  </clipPath>
 </defs>
</svg>
