<?xml version="1.0" encoding="utf-8" standalone="no"?>
<!DOCTYPE svg PUBLIC "-//W3C//DTD SVG 1.1//EN"
  "http://www.w3.org/Graphics/SVG/1.1/DTD/svg11.dtd">
<!-- Created with matplotlib (http://matplotlib.org/) -->
<svg height="396pt" version="1.1" viewBox="0 0 576 396" width="576pt" xmlns="http://www.w3.org/2000/svg" xmlns:xlink="http://www.w3.org/1999/xlink">
 <defs>
  <style type="text/css">
*{stroke-linecap:butt;stroke-linejoin:round;stroke-miterlimit:100000;}
  </style>
 </defs>
 <g id="figure_1">
  <g id="patch_1">
   <path d="M 0 396 
L 576 396 
L 576 0 
L 0 0 
z
" style="fill:#ffffff;"/>
  </g>
  <g id="axes_1">
   <g id="patch_2">
    <path d="M 72 356.4 
L 518.4 356.4 
L 518.4 39.6 
L 72 39.6 
z
" style="fill:#eaeaf2;"/>
   </g>
   <g id="matplotlib.axis_1">
    <g id="xtick_1">
     <g id="line2d_1"/>
     <g id="line2d_2"/>
     <g id="text_1">
      <!-- Sun -->
      <defs>
       <path d="M 4.5 23 
L 13.421875 23.78125 
Q 14.0625 18.40625 16.375 14.96875 
Q 18.703125 11.53125 23.578125 9.40625 
Q 28.46875 7.28125 34.578125 7.28125 
Q 39.984375 7.28125 44.140625 8.890625 
Q 48.296875 10.5 50.3125 13.296875 
Q 52.34375 16.109375 52.34375 19.4375 
Q 52.34375 22.796875 50.390625 25.3125 
Q 48.4375 27.828125 43.953125 29.546875 
Q 41.0625 30.671875 31.203125 33.03125 
Q 21.34375 35.40625 17.390625 37.5 
Q 12.25 40.1875 9.734375 44.15625 
Q 7.234375 48.140625 7.234375 53.078125 
Q 7.234375 58.5 10.296875 63.203125 
Q 13.375 67.921875 19.28125 70.359375 
Q 25.203125 72.796875 32.421875 72.796875 
Q 40.375 72.796875 46.453125 70.234375 
Q 52.546875 67.671875 55.8125 62.6875 
Q 59.078125 57.71875 59.328125 51.421875 
L 50.25 50.734375 
Q 49.515625 57.515625 45.28125 60.984375 
Q 41.0625 64.453125 32.8125 64.453125 
Q 24.21875 64.453125 20.28125 61.296875 
Q 16.359375 58.15625 16.359375 53.71875 
Q 16.359375 49.859375 19.140625 47.359375 
Q 21.875 44.875 33.421875 42.265625 
Q 44.96875 39.65625 49.265625 37.703125 
Q 55.515625 34.8125 58.484375 30.390625 
Q 61.46875 25.984375 61.46875 20.21875 
Q 61.46875 14.5 58.203125 9.4375 
Q 54.9375 4.390625 48.796875 1.578125 
Q 42.671875 -1.21875 35.015625 -1.21875 
Q 25.296875 -1.21875 18.71875 1.609375 
Q 12.15625 4.4375 8.421875 10.125 
Q 4.6875 15.828125 4.5 23 
" id="ArialMT-53"/>
       <path d="M 6.59375 0 
L 6.59375 51.859375 
L 14.5 51.859375 
L 14.5 44.484375 
Q 20.21875 53.03125 31 53.03125 
Q 35.6875 53.03125 39.625 51.34375 
Q 43.5625 49.65625 45.515625 46.921875 
Q 47.46875 44.1875 48.25 40.4375 
Q 48.734375 37.984375 48.734375 31.890625 
L 48.734375 0 
L 39.9375 0 
L 39.9375 31.546875 
Q 39.9375 36.921875 38.90625 39.578125 
Q 37.890625 42.234375 35.28125 43.8125 
Q 32.671875 45.40625 29.15625 45.40625 
Q 23.53125 45.40625 19.453125 41.84375 
Q 15.375 38.28125 15.375 28.328125 
L 15.375 0 
z
" id="ArialMT-6e"/>
       <path d="M 40.578125 0 
L 40.578125 7.625 
Q 34.515625 -1.171875 24.125 -1.171875 
Q 19.53125 -1.171875 15.546875 0.578125 
Q 11.578125 2.34375 9.640625 5 
Q 7.71875 7.671875 6.9375 11.53125 
Q 6.390625 14.109375 6.390625 19.734375 
L 6.390625 51.859375 
L 15.1875 51.859375 
L 15.1875 23.09375 
Q 15.1875 16.21875 15.71875 13.8125 
Q 16.546875 10.359375 19.234375 8.375 
Q 21.921875 6.390625 25.875 6.390625 
Q 29.828125 6.390625 33.296875 8.421875 
Q 36.765625 10.453125 38.203125 13.9375 
Q 39.65625 17.4375 39.65625 24.078125 
L 39.65625 51.859375 
L 48.4375 51.859375 
L 48.4375 0 
z
" id="ArialMT-75"/>
      </defs>
      <g style="fill:#262626;" transform="translate(118.90390625 370.5578125)scale(0.1 -0.1)">
       <use xlink:href="#ArialMT-53"/>
       <use x="66.69921875" xlink:href="#ArialMT-75"/>
       <use x="122.314453125" xlink:href="#ArialMT-6e"/>
      </g>
     </g>
    </g>
    <g id="xtick_2">
     <g id="line2d_3"/>
     <g id="line2d_4"/>
     <g id="text_2">
      <!-- Sat -->
      <defs>
       <path d="M 25.78125 7.859375 
L 27.046875 0.09375 
Q 23.34375 -0.6875 20.40625 -0.6875 
Q 15.625 -0.6875 12.984375 0.828125 
Q 10.359375 2.34375 9.28125 4.8125 
Q 8.203125 7.28125 8.203125 15.1875 
L 8.203125 45.015625 
L 1.765625 45.015625 
L 1.765625 51.859375 
L 8.203125 51.859375 
L 8.203125 64.703125 
L 16.9375 69.96875 
L 16.9375 51.859375 
L 25.78125 51.859375 
L 25.78125 45.015625 
L 16.9375 45.015625 
L 16.9375 14.703125 
Q 16.9375 10.9375 17.40625 9.859375 
Q 17.875 8.796875 18.921875 8.15625 
Q 19.96875 7.515625 21.921875 7.515625 
Q 23.390625 7.515625 25.78125 7.859375 
" id="ArialMT-74"/>
       <path d="M 40.4375 6.390625 
Q 35.546875 2.25 31.03125 0.53125 
Q 26.515625 -1.171875 21.34375 -1.171875 
Q 12.796875 -1.171875 8.203125 3 
Q 3.609375 7.171875 3.609375 13.671875 
Q 3.609375 17.484375 5.34375 20.625 
Q 7.078125 23.78125 9.890625 25.6875 
Q 12.703125 27.59375 16.21875 28.5625 
Q 18.796875 29.25 24.03125 29.890625 
Q 34.671875 31.15625 39.703125 32.90625 
Q 39.75 34.71875 39.75 35.203125 
Q 39.75 40.578125 37.25 42.78125 
Q 33.890625 45.75 27.25 45.75 
Q 21.046875 45.75 18.09375 43.578125 
Q 15.140625 41.40625 13.71875 35.890625 
L 5.125 37.0625 
Q 6.296875 42.578125 8.984375 45.96875 
Q 11.671875 49.359375 16.75 51.1875 
Q 21.828125 53.03125 28.515625 53.03125 
Q 35.15625 53.03125 39.296875 51.46875 
Q 43.453125 49.90625 45.40625 47.53125 
Q 47.359375 45.171875 48.140625 41.546875 
Q 48.578125 39.3125 48.578125 33.453125 
L 48.578125 21.734375 
Q 48.578125 9.46875 49.140625 6.21875 
Q 49.703125 2.984375 51.375 0 
L 42.1875 0 
Q 40.828125 2.734375 40.4375 6.390625 
M 39.703125 26.03125 
Q 34.90625 24.078125 25.34375 22.703125 
Q 19.921875 21.921875 17.671875 20.9375 
Q 15.4375 19.96875 14.203125 18.09375 
Q 12.984375 16.21875 12.984375 13.921875 
Q 12.984375 10.40625 15.640625 8.0625 
Q 18.3125 5.71875 23.4375 5.71875 
Q 28.515625 5.71875 32.46875 7.9375 
Q 36.421875 10.15625 38.28125 14.015625 
Q 39.703125 17 39.703125 22.796875 
z
" id="ArialMT-61"/>
      </defs>
      <g style="fill:#262626;" transform="translate(231.8953125 370.5578125)scale(0.1 -0.1)">
       <use xlink:href="#ArialMT-53"/>
       <use x="66.69921875" xlink:href="#ArialMT-61"/>
       <use x="122.314453125" xlink:href="#ArialMT-74"/>
      </g>
     </g>
    </g>
    <g id="xtick_3">
     <g id="line2d_5"/>
     <g id="line2d_6"/>
     <g id="text_3">
      <!-- Thur -->
      <defs>
       <path d="M 6.59375 0 
L 6.59375 71.578125 
L 15.375 71.578125 
L 15.375 45.90625 
Q 21.53125 53.03125 30.90625 53.03125 
Q 36.671875 53.03125 40.921875 50.75 
Q 45.171875 48.484375 47 44.484375 
Q 48.828125 40.484375 48.828125 32.859375 
L 48.828125 0 
L 40.046875 0 
L 40.046875 32.859375 
Q 40.046875 39.453125 37.1875 42.453125 
Q 34.328125 45.453125 29.109375 45.453125 
Q 25.203125 45.453125 21.75 43.421875 
Q 18.3125 41.40625 16.84375 37.9375 
Q 15.375 34.46875 15.375 28.375 
L 15.375 0 
z
" id="ArialMT-68"/>
       <path d="M 6.5 0 
L 6.5 51.859375 
L 14.40625 51.859375 
L 14.40625 44 
Q 17.4375 49.515625 20 51.265625 
Q 22.5625 53.03125 25.640625 53.03125 
Q 30.078125 53.03125 34.671875 50.203125 
L 31.640625 42.046875 
Q 28.421875 43.953125 25.203125 43.953125 
Q 22.3125 43.953125 20.015625 42.21875 
Q 17.71875 40.484375 16.75 37.40625 
Q 15.28125 32.71875 15.28125 27.15625 
L 15.28125 0 
z
" id="ArialMT-72"/>
       <path d="M 25.921875 0 
L 25.921875 63.140625 
L 2.34375 63.140625 
L 2.34375 71.578125 
L 59.078125 71.578125 
L 59.078125 63.140625 
L 35.40625 63.140625 
L 35.40625 0 
z
" id="ArialMT-54"/>
      </defs>
      <g style="fill:#262626;" transform="translate(340.7203125 370.5578125)scale(0.1 -0.1)">
       <use xlink:href="#ArialMT-54"/>
       <use x="61.083984375" xlink:href="#ArialMT-68"/>
       <use x="116.69921875" xlink:href="#ArialMT-75"/>
       <use x="172.314453125" xlink:href="#ArialMT-72"/>
      </g>
     </g>
    </g>
    <g id="xtick_4">
     <g id="line2d_7"/>
     <g id="line2d_8"/>
     <g id="text_4">
      <!-- Fri -->
      <defs>
       <path d="M 6.640625 61.46875 
L 6.640625 71.578125 
L 15.4375 71.578125 
L 15.4375 61.46875 
z
M 6.640625 0 
L 6.640625 51.859375 
L 15.4375 51.859375 
L 15.4375 0 
z
" id="ArialMT-69"/>
       <path d="M 8.203125 0 
L 8.203125 71.578125 
L 56.5 71.578125 
L 56.5 63.140625 
L 17.671875 63.140625 
L 17.671875 40.96875 
L 51.265625 40.96875 
L 51.265625 32.515625 
L 17.671875 32.515625 
L 17.671875 0 
z
" id="ArialMT-46"/>
      </defs>
      <g style="fill:#262626;" transform="translate(456.7703125 370.5578125)scale(0.1 -0.1)">
       <use xlink:href="#ArialMT-46"/>
       <use x="61.083984375" xlink:href="#ArialMT-72"/>
       <use x="94.384765625" xlink:href="#ArialMT-69"/>
      </g>
     </g>
    </g>
    <g id="text_5">
     <!-- day -->
     <defs>
      <path d="M 6.203125 -19.96875 
L 5.21875 -11.71875 
Q 8.109375 -12.5 10.25 -12.5 
Q 13.1875 -12.5 14.9375 -11.515625 
Q 16.703125 -10.546875 17.828125 -8.796875 
Q 18.65625 -7.46875 20.515625 -2.25 
Q 20.75 -1.515625 21.296875 -0.09375 
L 1.609375 51.859375 
L 11.078125 51.859375 
L 21.875 21.828125 
Q 23.96875 16.109375 25.640625 9.8125 
Q 27.15625 15.875 29.25 21.625 
L 40.328125 51.859375 
L 49.125 51.859375 
L 29.390625 -0.875 
Q 26.21875 -9.421875 24.46875 -12.640625 
Q 22.125 -17 19.09375 -19.015625 
Q 16.0625 -21.046875 11.859375 -21.046875 
Q 9.328125 -21.046875 6.203125 -19.96875 
" id="ArialMT-79"/>
      <path d="M 40.234375 0 
L 40.234375 6.546875 
Q 35.296875 -1.171875 25.734375 -1.171875 
Q 19.53125 -1.171875 14.328125 2.25 
Q 9.125 5.671875 6.265625 11.796875 
Q 3.421875 17.921875 3.421875 25.875 
Q 3.421875 33.640625 6 39.96875 
Q 8.59375 46.296875 13.765625 49.65625 
Q 18.953125 53.03125 25.34375 53.03125 
Q 30.03125 53.03125 33.6875 51.046875 
Q 37.359375 49.078125 39.65625 45.90625 
L 39.65625 71.578125 
L 48.390625 71.578125 
L 48.390625 0 
z
M 12.453125 25.875 
Q 12.453125 15.921875 16.640625 10.984375 
Q 20.84375 6.0625 26.5625 6.0625 
Q 32.328125 6.0625 36.34375 10.765625 
Q 40.375 15.484375 40.375 25.140625 
Q 40.375 35.796875 36.265625 40.765625 
Q 32.171875 45.75 26.171875 45.75 
Q 20.3125 45.75 16.375 40.96875 
Q 12.453125 36.1875 12.453125 25.875 
" id="ArialMT-64"/>
     </defs>
     <g style="fill:#262626;" transform="translate(286.33296875 385.41890625)scale(0.11 -0.11)">
      <use xlink:href="#ArialMT-64"/>
      <use x="55.615234375" xlink:href="#ArialMT-61"/>
      <use x="111.23046875" xlink:href="#ArialMT-79"/>
     </g>
    </g>
   </g>
   <g id="matplotlib.axis_2">
    <g id="ytick_1">
     <g id="line2d_9">
      <path clip-path="url(#p92920d204e)" d="M 72 356.4 
L 518.4 356.4 
" style="fill:none;stroke:#ffffff;stroke-linecap:round;"/>
     </g>
     <g id="line2d_10"/>
     <g id="line2d_11"/>
     <g id="text_6">
      <!-- −10 -->
      <defs>
       <path d="M 4.15625 35.296875 
Q 4.15625 48 6.765625 55.734375 
Q 9.375 63.484375 14.515625 67.671875 
Q 19.671875 71.875 27.484375 71.875 
Q 33.25 71.875 37.59375 69.546875 
Q 41.9375 67.234375 44.765625 62.859375 
Q 47.609375 58.5 49.21875 52.21875 
Q 50.828125 45.953125 50.828125 35.296875 
Q 50.828125 22.703125 48.234375 14.96875 
Q 45.65625 7.234375 40.5 3 
Q 35.359375 -1.21875 27.484375 -1.21875 
Q 17.140625 -1.21875 11.234375 6.203125 
Q 4.15625 15.140625 4.15625 35.296875 
M 13.1875 35.296875 
Q 13.1875 17.671875 17.3125 11.828125 
Q 21.4375 6 27.484375 6 
Q 33.546875 6 37.671875 11.859375 
Q 41.796875 17.71875 41.796875 35.296875 
Q 41.796875 52.984375 37.671875 58.78125 
Q 33.546875 64.59375 27.390625 64.59375 
Q 21.34375 64.59375 17.71875 59.46875 
Q 13.1875 52.9375 13.1875 35.296875 
" id="ArialMT-30"/>
       <path d="M 37.25 0 
L 28.46875 0 
L 28.46875 56 
Q 25.296875 52.984375 20.140625 49.953125 
Q 14.984375 46.921875 10.890625 45.40625 
L 10.890625 53.90625 
Q 18.265625 57.375 23.78125 62.296875 
Q 29.296875 67.234375 31.59375 71.875 
L 37.25 71.875 
z
" id="ArialMT-31"/>
       <path d="M 52.828125 31.203125 
L 5.5625 31.203125 
L 5.5625 39.40625 
L 52.828125 39.40625 
z
" id="ArialMT-2212"/>
      </defs>
      <g style="fill:#262626;" transform="translate(48.0375 358.98515625)scale(0.1 -0.1)">
       <use xlink:href="#ArialMT-2212"/>
       <use x="58.3984375" xlink:href="#ArialMT-31"/>
       <use x="114.013671875" xlink:href="#ArialMT-30"/>
      </g>
     </g>
    </g>
    <g id="ytick_2">
     <g id="line2d_12">
      <path clip-path="url(#p92920d204e)" d="M 72 311.142857 
L 518.4 311.142857 
" style="fill:none;stroke:#ffffff;stroke-linecap:round;"/>
     </g>
     <g id="line2d_13"/>
     <g id="line2d_14"/>
     <g id="text_7">
      <!-- 0 -->
      <g style="fill:#262626;" transform="translate(59.4390625 313.728013393)scale(0.1 -0.1)">
       <use xlink:href="#ArialMT-30"/>
      </g>
     </g>
    </g>
    <g id="ytick_3">
     <g id="line2d_15">
      <path clip-path="url(#p92920d204e)" d="M 72 265.885714 
L 518.4 265.885714 
" style="fill:none;stroke:#ffffff;stroke-linecap:round;"/>
     </g>
     <g id="line2d_16"/>
     <g id="line2d_17"/>
     <g id="text_8">
      <!-- 10 -->
      <g style="fill:#262626;" transform="translate(53.878125 268.470870536)scale(0.1 -0.1)">
       <use xlink:href="#ArialMT-31"/>
       <use x="55.615234375" xlink:href="#ArialMT-30"/>
      </g>
     </g>
    </g>
    <g id="ytick_4">
     <g id="line2d_18">
      <path clip-path="url(#p92920d204e)" d="M 72 220.628571 
L 518.4 220.628571 
" style="fill:none;stroke:#ffffff;stroke-linecap:round;"/>
     </g>
     <g id="line2d_19"/>
     <g id="line2d_20"/>
     <g id="text_9">
      <!-- 20 -->
      <defs>
       <path d="M 50.34375 8.453125 
L 50.34375 0 
L 3.03125 0 
Q 2.9375 3.171875 4.046875 6.109375 
Q 5.859375 10.9375 9.828125 15.625 
Q 13.8125 20.3125 21.34375 26.46875 
Q 33.015625 36.03125 37.109375 41.625 
Q 41.21875 47.21875 41.21875 52.203125 
Q 41.21875 57.421875 37.46875 61 
Q 33.734375 64.59375 27.734375 64.59375 
Q 21.390625 64.59375 17.578125 60.78125 
Q 13.765625 56.984375 13.71875 50.25 
L 4.6875 51.171875 
Q 5.609375 61.28125 11.65625 66.578125 
Q 17.71875 71.875 27.9375 71.875 
Q 38.234375 71.875 44.234375 66.15625 
Q 50.25 60.453125 50.25 52 
Q 50.25 47.703125 48.484375 43.546875 
Q 46.734375 39.40625 42.65625 34.8125 
Q 38.578125 30.21875 29.109375 22.21875 
Q 21.1875 15.578125 18.9375 13.203125 
Q 16.703125 10.84375 15.234375 8.453125 
z
" id="ArialMT-32"/>
      </defs>
      <g style="fill:#262626;" transform="translate(53.878125 223.213727679)scale(0.1 -0.1)">
       <use xlink:href="#ArialMT-32"/>
       <use x="55.615234375" xlink:href="#ArialMT-30"/>
      </g>
     </g>
    </g>
    <g id="ytick_5">
     <g id="line2d_21">
      <path clip-path="url(#p92920d204e)" d="M 72 175.371429 
L 518.4 175.371429 
" style="fill:none;stroke:#ffffff;stroke-linecap:round;"/>
     </g>
     <g id="line2d_22"/>
     <g id="line2d_23"/>
     <g id="text_10">
      <!-- 30 -->
      <defs>
       <path d="M 4.203125 18.890625 
L 12.984375 20.0625 
Q 14.5 12.59375 18.140625 9.296875 
Q 21.78125 6 27 6 
Q 33.203125 6 37.46875 10.296875 
Q 41.75 14.59375 41.75 20.953125 
Q 41.75 27 37.796875 30.921875 
Q 33.84375 34.859375 27.734375 34.859375 
Q 25.25 34.859375 21.53125 33.890625 
L 22.515625 41.609375 
Q 23.390625 41.5 23.921875 41.5 
Q 29.546875 41.5 34.03125 44.421875 
Q 38.53125 47.359375 38.53125 53.46875 
Q 38.53125 58.296875 35.25 61.46875 
Q 31.984375 64.65625 26.8125 64.65625 
Q 21.6875 64.65625 18.265625 61.421875 
Q 14.84375 58.203125 13.875 51.765625 
L 5.078125 53.328125 
Q 6.6875 62.15625 12.390625 67.015625 
Q 18.109375 71.875 26.609375 71.875 
Q 32.46875 71.875 37.390625 69.359375 
Q 42.328125 66.84375 44.9375 62.5 
Q 47.5625 58.15625 47.5625 53.265625 
Q 47.5625 48.640625 45.0625 44.828125 
Q 42.578125 41.015625 37.703125 38.765625 
Q 44.046875 37.3125 47.5625 32.6875 
Q 51.078125 28.078125 51.078125 21.140625 
Q 51.078125 11.765625 44.234375 5.25 
Q 37.40625 -1.265625 26.953125 -1.265625 
Q 17.53125 -1.265625 11.296875 4.34375 
Q 5.078125 9.96875 4.203125 18.890625 
" id="ArialMT-33"/>
      </defs>
      <g style="fill:#262626;" transform="translate(53.878125 177.956584821)scale(0.1 -0.1)">
       <use xlink:href="#ArialMT-33"/>
       <use x="55.615234375" xlink:href="#ArialMT-30"/>
      </g>
     </g>
    </g>
    <g id="ytick_6">
     <g id="line2d_24">
      <path clip-path="url(#p92920d204e)" d="M 72 130.114286 
L 518.4 130.114286 
" style="fill:none;stroke:#ffffff;stroke-linecap:round;"/>
     </g>
     <g id="line2d_25"/>
     <g id="line2d_26"/>
     <g id="text_11">
      <!-- 40 -->
      <defs>
       <path d="M 32.328125 0 
L 32.328125 17.140625 
L 1.265625 17.140625 
L 1.265625 25.203125 
L 33.9375 71.578125 
L 41.109375 71.578125 
L 41.109375 25.203125 
L 50.78125 25.203125 
L 50.78125 17.140625 
L 41.109375 17.140625 
L 41.109375 0 
z
M 32.328125 25.203125 
L 32.328125 57.46875 
L 9.90625 25.203125 
z
" id="ArialMT-34"/>
      </defs>
      <g style="fill:#262626;" transform="translate(53.878125 132.699441964)scale(0.1 -0.1)">
       <use xlink:href="#ArialMT-34"/>
       <use x="55.615234375" xlink:href="#ArialMT-30"/>
      </g>
     </g>
    </g>
    <g id="ytick_7">
     <g id="line2d_27">
      <path clip-path="url(#p92920d204e)" d="M 72 84.857143 
L 518.4 84.857143 
" style="fill:none;stroke:#ffffff;stroke-linecap:round;"/>
     </g>
     <g id="line2d_28"/>
     <g id="line2d_29"/>
     <g id="text_12">
      <!-- 50 -->
      <defs>
       <path d="M 4.15625 18.75 
L 13.375 19.53125 
Q 14.40625 12.796875 18.140625 9.390625 
Q 21.875 6 27.15625 6 
Q 33.5 6 37.890625 10.78125 
Q 42.28125 15.578125 42.28125 23.484375 
Q 42.28125 31 38.0625 35.34375 
Q 33.84375 39.703125 27 39.703125 
Q 22.75 39.703125 19.328125 37.765625 
Q 15.921875 35.84375 13.96875 32.765625 
L 5.71875 33.84375 
L 12.640625 70.609375 
L 48.25 70.609375 
L 48.25 62.203125 
L 19.671875 62.203125 
L 15.828125 42.96875 
Q 22.265625 47.46875 29.34375 47.46875 
Q 38.71875 47.46875 45.15625 40.96875 
Q 51.609375 34.46875 51.609375 24.265625 
Q 51.609375 14.546875 45.953125 7.46875 
Q 39.0625 -1.21875 27.15625 -1.21875 
Q 17.390625 -1.21875 11.203125 4.25 
Q 5.03125 9.71875 4.15625 18.75 
" id="ArialMT-35"/>
      </defs>
      <g style="fill:#262626;" transform="translate(53.878125 87.4422991071)scale(0.1 -0.1)">
       <use xlink:href="#ArialMT-35"/>
       <use x="55.615234375" xlink:href="#ArialMT-30"/>
      </g>
     </g>
    </g>
    <g id="ytick_8">
     <g id="line2d_30">
      <path clip-path="url(#p92920d204e)" d="M 72 39.6 
L 518.4 39.6 
" style="fill:none;stroke:#ffffff;stroke-linecap:round;"/>
     </g>
     <g id="line2d_31"/>
     <g id="line2d_32"/>
     <g id="text_13">
      <!-- 60 -->
      <defs>
       <path d="M 49.75 54.046875 
L 41.015625 53.375 
Q 39.84375 58.546875 37.703125 60.890625 
Q 34.125 64.65625 28.90625 64.65625 
Q 24.703125 64.65625 21.53125 62.3125 
Q 17.390625 59.28125 14.984375 53.46875 
Q 12.59375 47.65625 12.5 36.921875 
Q 15.671875 41.75 20.265625 44.09375 
Q 24.859375 46.4375 29.890625 46.4375 
Q 38.671875 46.4375 44.84375 39.96875 
Q 51.03125 33.5 51.03125 23.25 
Q 51.03125 16.5 48.125 10.71875 
Q 45.21875 4.9375 40.140625 1.859375 
Q 35.0625 -1.21875 28.609375 -1.21875 
Q 17.625 -1.21875 10.6875 6.859375 
Q 3.765625 14.9375 3.765625 33.5 
Q 3.765625 54.25 11.421875 63.671875 
Q 18.109375 71.875 29.4375 71.875 
Q 37.890625 71.875 43.28125 67.140625 
Q 48.6875 62.40625 49.75 54.046875 
M 13.875 23.1875 
Q 13.875 18.65625 15.796875 14.5 
Q 17.71875 10.359375 21.1875 8.171875 
Q 24.65625 6 28.46875 6 
Q 34.03125 6 38.03125 10.484375 
Q 42.046875 14.984375 42.046875 22.703125 
Q 42.046875 30.125 38.078125 34.390625 
Q 34.125 38.671875 28.125 38.671875 
Q 22.171875 38.671875 18.015625 34.390625 
Q 13.875 30.125 13.875 23.1875 
" id="ArialMT-36"/>
      </defs>
      <g style="fill:#262626;" transform="translate(53.878125 42.18515625)scale(0.1 -0.1)">
       <use xlink:href="#ArialMT-36"/>
       <use x="55.615234375" xlink:href="#ArialMT-30"/>
      </g>
     </g>
    </g>
    <g id="text_14">
     <!-- total_bill -->
     <defs>
      <path d="M 6.390625 0 
L 6.390625 71.578125 
L 15.1875 71.578125 
L 15.1875 0 
z
" id="ArialMT-6c"/>
      <path d="M 14.703125 0 
L 6.546875 0 
L 6.546875 71.578125 
L 15.328125 71.578125 
L 15.328125 46.046875 
Q 20.90625 53.03125 29.546875 53.03125 
Q 34.328125 53.03125 38.59375 51.09375 
Q 42.875 49.171875 45.625 45.671875 
Q 48.390625 42.1875 49.953125 37.25 
Q 51.515625 32.328125 51.515625 26.703125 
Q 51.515625 13.375 44.921875 6.09375 
Q 38.328125 -1.171875 29.109375 -1.171875 
Q 19.921875 -1.171875 14.703125 6.5 
z
M 14.59375 26.3125 
Q 14.59375 17 17.140625 12.84375 
Q 21.296875 6.0625 28.375 6.0625 
Q 34.125 6.0625 38.328125 11.0625 
Q 42.53125 16.0625 42.53125 25.984375 
Q 42.53125 36.140625 38.5 40.96875 
Q 34.46875 45.796875 28.765625 45.796875 
Q 23 45.796875 18.796875 40.796875 
Q 14.59375 35.796875 14.59375 26.3125 
" id="ArialMT-62"/>
      <path d="M -1.515625 -19.875 
L -1.515625 -13.53125 
L 56.734375 -13.53125 
L 56.734375 -19.875 
z
" id="ArialMT-5f"/>
      <path d="M 3.328125 25.921875 
Q 3.328125 40.328125 11.328125 47.265625 
Q 18.015625 53.03125 27.640625 53.03125 
Q 38.328125 53.03125 45.109375 46.015625 
Q 51.90625 39.015625 51.90625 26.65625 
Q 51.90625 16.65625 48.90625 10.90625 
Q 45.90625 5.171875 40.15625 2 
Q 34.421875 -1.171875 27.640625 -1.171875 
Q 16.75 -1.171875 10.03125 5.8125 
Q 3.328125 12.796875 3.328125 25.921875 
M 12.359375 25.921875 
Q 12.359375 15.96875 16.703125 11.015625 
Q 21.046875 6.0625 27.640625 6.0625 
Q 34.1875 6.0625 38.53125 11.03125 
Q 42.875 16.015625 42.875 26.21875 
Q 42.875 35.84375 38.5 40.796875 
Q 34.125 45.75 27.640625 45.75 
Q 21.046875 45.75 16.703125 40.8125 
Q 12.359375 35.890625 12.359375 25.921875 
" id="ArialMT-6f"/>
     </defs>
     <g style="fill:#262626;" transform="translate(40.85125 218.178125)rotate(-90.0)scale(0.11 -0.11)">
      <use xlink:href="#ArialMT-74"/>
      <use x="27.783203125" xlink:href="#ArialMT-6f"/>
      <use x="83.3984375" xlink:href="#ArialMT-74"/>
      <use x="111.181640625" xlink:href="#ArialMT-61"/>
      <use x="166.796875" xlink:href="#ArialMT-6c"/>
      <use x="189.013671875" xlink:href="#ArialMT-5f"/>
      <use x="244.62890625" xlink:href="#ArialMT-62"/>
      <use x="300.244140625" xlink:href="#ArialMT-69"/>
      <use x="322.4609375" xlink:href="#ArialMT-6c"/>
      <use x="344.677734375" xlink:href="#ArialMT-6c"/>
     </g>
    </g>
   </g>
   <g id="PolyCollection_1">
    <defs>
     <path d="M 127.8 -110.956022 
L 126.526521 -110.956022 
L 125.716151 -112.441572 
L 124.519835 -113.927122 
L 122.831664 -115.412672 
L 120.557513 -116.898222 
L 117.638786 -118.383772 
L 114.079994 -119.869322 
L 109.974357 -121.354871 
L 105.519232 -122.840421 
L 101.012779 -124.325971 
L 96.825944 -125.811521 
L 93.349809 -127.297071 
L 90.926381 -128.782621 
L 89.778184 -130.268171 
L 89.955279 -131.753721 
L 91.315524 -133.239271 
L 93.545126 -134.724821 
L 96.214916 -136.210371 
L 98.857735 -137.695921 
L 101.047569 -139.18147 
L 102.462995 -140.66702 
L 102.924276 -142.15257 
L 102.401656 -143.63812 
L 100.998814 -145.12367 
L 98.918674 -146.60922 
L 96.419436 -148.09477 
L 93.768431 -149.58032 
L 91.201205 -151.06587 
L 88.892844 -152.55142 
L 86.94689 -154.03697 
L 85.403383 -155.52252 
L 84.262218 -157.008069 
L 83.512975 -158.493619 
L 83.16 -159.979169 
L 83.233276 -161.464719 
L 83.781014 -162.950269 
L 84.846962 -164.435819 
L 86.441259 -165.921369 
L 88.516217 -167.406919 
L 90.956716 -168.892469 
L 93.589963 -170.378019 
L 96.212862 -171.863569 
L 98.629522 -173.349118 
L 100.688159 -174.834668 
L 102.306825 -176.320218 
L 103.480843 -177.805768 
L 104.270461 -179.291318 
L 104.7733 -180.776868 
L 105.090713 -182.262418 
L 105.298728 -183.747968 
L 105.432282 -185.233518 
L 105.486684 -186.719068 
L 105.434324 -188.204618 
L 105.249697 -189.690168 
L 104.933404 -191.175717 
L 104.526699 -192.661267 
L 104.111687 -194.146817 
L 103.797264 -195.632367 
L 103.695392 -197.117917 
L 103.895099 -198.603467 
L 104.44183 -200.089017 
L 105.327717 -201.574567 
L 106.494703 -203.060117 
L 107.848665 -204.545667 
L 109.279794 -206.031217 
L 110.683405 -207.516767 
L 111.976125 -209.002316 
L 113.104571 -210.487866 
L 114.046191 -211.973416 
L 114.804121 -213.458966 
L 115.39893 -214.944516 
L 115.860052 -216.430066 
L 116.218766 -217.915616 
L 116.503457 -219.401166 
L 116.736973 -220.886716 
L 116.935488 -222.372266 
L 117.108194 -223.857816 
L 117.257264 -225.343366 
L 117.377748 -226.828915 
L 117.45747 -228.314465 
L 117.477636 -229.800015 
L 117.415416 -231.285565 
L 117.249786 -232.771115 
L 116.970853 -234.256665 
L 116.590902 -235.742215 
L 116.153298 -237.227765 
L 115.73449 -238.713315 
L 115.435715 -240.198865 
L 115.364419 -241.684415 
L 115.609691 -243.169964 
L 116.219079 -244.655514 
L 117.184444 -246.141064 
L 118.441676 -247.626614 
L 119.884333 -249.112164 
L 121.386621 -250.597714 
L 122.828484 -252.083264 
L 124.115827 -253.568814 
L 125.191475 -255.054364 
L 126.036063 -256.539914 
L 126.661103 -258.025464 
L 127.8 -258.025464 
L 127.8 -258.025464 
L 127.8 -256.539914 
L 127.8 -255.054364 
L 127.8 -253.568814 
L 127.8 -252.083264 
L 127.8 -250.597714 
L 127.8 -249.112164 
L 127.8 -247.626614 
L 127.8 -246.141064 
L 127.8 -244.655514 
L 127.8 -243.169964 
L 127.8 -241.684415 
L 127.8 -240.198865 
L 127.8 -238.713315 
L 127.8 -237.227765 
L 127.8 -235.742215 
L 127.8 -234.256665 
L 127.8 -232.771115 
L 127.8 -231.285565 
L 127.8 -229.800015 
L 127.8 -228.314465 
L 127.8 -226.828915 
L 127.8 -225.343366 
L 127.8 -223.857816 
L 127.8 -222.372266 
L 127.8 -220.886716 
L 127.8 -219.401166 
L 127.8 -217.915616 
L 127.8 -216.430066 
L 127.8 -214.944516 
L 127.8 -213.458966 
L 127.8 -211.973416 
L 127.8 -210.487866 
L 127.8 -209.002316 
L 127.8 -207.516767 
L 127.8 -206.031217 
L 127.8 -204.545667 
L 127.8 -203.060117 
L 127.8 -201.574567 
L 127.8 -200.089017 
L 127.8 -198.603467 
L 127.8 -197.117917 
L 127.8 -195.632367 
L 127.8 -194.146817 
L 127.8 -192.661267 
L 127.8 -191.175717 
L 127.8 -189.690168 
L 127.8 -188.204618 
L 127.8 -186.719068 
L 127.8 -185.233518 
L 127.8 -183.747968 
L 127.8 -182.262418 
L 127.8 -180.776868 
L 127.8 -179.291318 
L 127.8 -177.805768 
L 127.8 -176.320218 
L 127.8 -174.834668 
L 127.8 -173.349118 
L 127.8 -171.863569 
L 127.8 -170.378019 
L 127.8 -168.892469 
L 127.8 -167.406919 
L 127.8 -165.921369 
L 127.8 -164.435819 
L 127.8 -162.950269 
L 127.8 -161.464719 
L 127.8 -159.979169 
L 127.8 -158.493619 
L 127.8 -157.008069 
L 127.8 -155.52252 
L 127.8 -154.03697 
L 127.8 -152.55142 
L 127.8 -151.06587 
L 127.8 -149.58032 
L 127.8 -148.09477 
L 127.8 -146.60922 
L 127.8 -145.12367 
L 127.8 -143.63812 
L 127.8 -142.15257 
L 127.8 -140.66702 
L 127.8 -139.18147 
L 127.8 -137.695921 
L 127.8 -136.210371 
L 127.8 -134.724821 
L 127.8 -133.239271 
L 127.8 -131.753721 
L 127.8 -130.268171 
L 127.8 -128.782621 
L 127.8 -127.297071 
L 127.8 -125.811521 
L 127.8 -124.325971 
L 127.8 -122.840421 
L 127.8 -121.354871 
L 127.8 -119.869322 
L 127.8 -118.383772 
L 127.8 -116.898222 
L 127.8 -115.412672 
L 127.8 -113.927122 
L 127.8 -112.441572 
L 127.8 -110.956022 
z
" id="mb200dfdc6a" style="stroke:#595959;stroke-width:1.75;"/>
    </defs>
    <g clip-path="url(#p92920d204e)">
     <use style="fill:#72b7a1;stroke:#595959;stroke-width:1.75;" x="0.0" xlink:href="#mb200dfdc6a" y="396.0"/>
    </g>
   </g>
   <g id="PolyCollection_2">
    <defs>
     <path d="M 239.4 -114.216282 
L 238.810625 -114.216282 
L 238.334567 -116.266368 
L 237.618491 -118.316454 
L 236.637541 -120.36654 
L 235.413609 -122.416626 
L 234.020633 -124.466712 
L 232.567908 -126.516798 
L 231.165107 -128.566884 
L 229.885549 -130.616971 
L 228.747638 -132.667057 
L 227.723177 -134.717143 
L 226.76192 -136.767229 
L 225.809575 -138.817315 
L 224.803151 -140.867401 
L 223.649259 -142.917487 
L 222.210399 -144.967573 
L 220.324113 -147.017659 
L 217.858839 -149.067745 
L 214.783753 -151.117831 
L 211.217206 -153.167917 
L 207.426868 -155.218003 
L 203.776326 -157.26809 
L 200.633959 -159.318176 
L 198.273077 -161.368262 
L 196.798177 -163.418348 
L 196.130738 -165.468434 
L 196.072941 -167.51852 
L 196.43359 -169.568606 
L 197.158531 -171.618692 
L 198.387805 -173.668778 
L 200.390612 -175.718864 
L 203.400223 -177.76895 
L 207.438784 -179.819036 
L 212.235469 -181.869123 
L 217.287235 -183.919209 
L 222.027224 -185.969295 
L 226.00899 -188.019381 
L 229.018451 -190.069467 
L 231.078254 -192.119553 
L 232.370655 -194.169639 
L 233.137281 -196.219725 
L 233.605337 -198.269811 
L 233.955924 -200.319897 
L 234.319446 -202.369983 
L 234.775101 -204.420069 
L 235.344655 -206.470155 
L 235.987978 -208.520242 
L 236.613119 -210.570328 
L 237.105096 -212.620414 
L 237.36532 -214.6705 
L 237.34761 -216.720586 
L 237.078828 -218.770672 
L 236.657418 -220.820758 
L 236.228693 -222.870844 
L 235.942285 -224.92093 
L 235.905115 -226.971016 
L 236.14836 -229.021102 
L 236.622999 -231.071188 
L 237.225313 -233.121275 
L 237.838629 -235.171361 
L 238.370891 -237.221447 
L 238.773018 -239.271533 
L 239.035419 -241.321619 
L 239.170532 -243.371705 
L 239.192857 -245.421791 
L 239.105454 -247.471877 
L 238.897469 -249.521963 
L 238.553422 -251.572049 
L 238.071376 -253.622135 
L 237.482835 -255.672221 
L 236.863504 -257.722308 
L 236.324787 -259.772394 
L 235.983897 -261.82248 
L 235.923114 -263.872566 
L 236.157711 -265.922652 
L 236.629776 -267.972738 
L 237.231379 -270.022824 
L 237.844469 -272.07291 
L 238.377379 -274.122996 
L 238.782946 -276.173082 
L 239.055522 -278.223168 
L 239.2145 -280.273254 
L 239.284957 -282.32334 
L 239.282869 -284.373427 
L 239.20771 -286.423513 
L 239.042671 -288.473599 
L 238.762536 -290.523685 
L 238.348846 -292.573771 
L 237.80935 -294.623857 
L 237.193976 -296.673943 
L 236.5967 -298.724029 
L 236.13612 -300.774115 
L 235.918227 -302.824201 
L 235.996954 -304.874287 
L 236.352553 -306.924373 
L 236.899622 -308.97446 
L 237.520354 -311.024546 
L 238.105365 -313.074632 
L 238.583004 -315.124718 
L 238.927618 -317.174804 
L 239.4 -317.174804 
L 239.4 -317.174804 
L 239.4 -315.124718 
L 239.4 -313.074632 
L 239.4 -311.024546 
L 239.4 -308.97446 
L 239.4 -306.924373 
L 239.4 -304.874287 
L 239.4 -302.824201 
L 239.4 -300.774115 
L 239.4 -298.724029 
L 239.4 -296.673943 
L 239.4 -294.623857 
L 239.4 -292.573771 
L 239.4 -290.523685 
L 239.4 -288.473599 
L 239.4 -286.423513 
L 239.4 -284.373427 
L 239.4 -282.32334 
L 239.4 -280.273254 
L 239.4 -278.223168 
L 239.4 -276.173082 
L 239.4 -274.122996 
L 239.4 -272.07291 
L 239.4 -270.022824 
L 239.4 -267.972738 
L 239.4 -265.922652 
L 239.4 -263.872566 
L 239.4 -261.82248 
L 239.4 -259.772394 
L 239.4 -257.722308 
L 239.4 -255.672221 
L 239.4 -253.622135 
L 239.4 -251.572049 
L 239.4 -249.521963 
L 239.4 -247.471877 
L 239.4 -245.421791 
L 239.4 -243.371705 
L 239.4 -241.321619 
L 239.4 -239.271533 
L 239.4 -237.221447 
L 239.4 -235.171361 
L 239.4 -233.121275 
L 239.4 -231.071188 
L 239.4 -229.021102 
L 239.4 -226.971016 
L 239.4 -224.92093 
L 239.4 -222.870844 
L 239.4 -220.820758 
L 239.4 -218.770672 
L 239.4 -216.720586 
L 239.4 -214.6705 
L 239.4 -212.620414 
L 239.4 -210.570328 
L 239.4 -208.520242 
L 239.4 -206.470155 
L 239.4 -204.420069 
L 239.4 -202.369983 
L 239.4 -200.319897 
L 239.4 -198.269811 
L 239.4 -196.219725 
L 239.4 -194.169639 
L 239.4 -192.119553 
L 239.4 -190.069467 
L 239.4 -188.019381 
L 239.4 -185.969295 
L 239.4 -183.919209 
L 239.4 -181.869123 
L 239.4 -179.819036 
L 239.4 -177.76895 
L 239.4 -175.718864 
L 239.4 -173.668778 
L 239.4 -171.618692 
L 239.4 -169.568606 
L 239.4 -167.51852 
L 239.4 -165.468434 
L 239.4 -163.418348 
L 239.4 -161.368262 
L 239.4 -159.318176 
L 239.4 -157.26809 
L 239.4 -155.218003 
L 239.4 -153.167917 
L 239.4 -151.117831 
L 239.4 -149.067745 
L 239.4 -147.017659 
L 239.4 -144.967573 
L 239.4 -142.917487 
L 239.4 -140.867401 
L 239.4 -138.817315 
L 239.4 -136.767229 
L 239.4 -134.717143 
L 239.4 -132.667057 
L 239.4 -130.616971 
L 239.4 -128.566884 
L 239.4 -126.516798 
L 239.4 -124.466712 
L 239.4 -122.416626 
L 239.4 -120.36654 
L 239.4 -118.316454 
L 239.4 -116.266368 
L 239.4 -114.216282 
z
" id="m627c4d595c" style="stroke:#595959;stroke-width:1.75;"/>
    </defs>
    <g clip-path="url(#p92920d204e)">
     <use style="fill:#72b7a1;stroke:#595959;stroke-width:1.75;" x="0.0" xlink:href="#m627c4d595c" y="396.0"/>
    </g>
   </g>
   <g id="PolyCollection_3">
    <defs>
     <path d="M 240.091919 -78.47206 
L 239.4 -78.47206 
L 239.4 -80.766537 
L 239.4 -83.061014 
L 239.4 -85.355492 
L 239.4 -87.649969 
L 239.4 -89.944446 
L 239.4 -92.238923 
L 239.4 -94.533401 
L 239.4 -96.827878 
L 239.4 -99.122355 
L 239.4 -101.416833 
L 239.4 -103.71131 
L 239.4 -106.005787 
L 239.4 -108.300264 
L 239.4 -110.594742 
L 239.4 -112.889219 
L 239.4 -115.183696 
L 239.4 -117.478174 
L 239.4 -119.772651 
L 239.4 -122.067128 
L 239.4 -124.361606 
L 239.4 -126.656083 
L 239.4 -128.95056 
L 239.4 -131.245037 
L 239.4 -133.539515 
L 239.4 -135.833992 
L 239.4 -138.128469 
L 239.4 -140.422947 
L 239.4 -142.717424 
L 239.4 -145.011901 
L 239.4 -147.306378 
L 239.4 -149.600856 
L 239.4 -151.895333 
L 239.4 -154.18981 
L 239.4 -156.484288 
L 239.4 -158.778765 
L 239.4 -161.073242 
L 239.4 -163.36772 
L 239.4 -165.662197 
L 239.4 -167.956674 
L 239.4 -170.251151 
L 239.4 -172.545629 
L 239.4 -174.840106 
L 239.4 -177.134583 
L 239.4 -179.429061 
L 239.4 -181.723538 
L 239.4 -184.018015 
L 239.4 -186.312492 
L 239.4 -188.60697 
L 239.4 -190.901447 
L 239.4 -193.195924 
L 239.4 -195.490402 
L 239.4 -197.784879 
L 239.4 -200.079356 
L 239.4 -202.373834 
L 239.4 -204.668311 
L 239.4 -206.962788 
L 239.4 -209.257265 
L 239.4 -211.551743 
L 239.4 -213.84622 
L 239.4 -216.140697 
L 239.4 -218.435175 
L 239.4 -220.729652 
L 239.4 -223.024129 
L 239.4 -225.318606 
L 239.4 -227.613084 
L 239.4 -229.907561 
L 239.4 -232.202038 
L 239.4 -234.496516 
L 239.4 -236.790993 
L 239.4 -239.08547 
L 239.4 -241.379948 
L 239.4 -243.674425 
L 239.4 -245.968902 
L 239.4 -248.263379 
L 239.4 -250.557857 
L 239.4 -252.852334 
L 239.4 -255.146811 
L 239.4 -257.441289 
L 239.4 -259.735766 
L 239.4 -262.030243 
L 239.4 -264.32472 
L 239.4 -266.619198 
L 239.4 -268.913675 
L 239.4 -271.208152 
L 239.4 -273.50263 
L 239.4 -275.797107 
L 239.4 -278.091584 
L 239.4 -280.386062 
L 239.4 -282.680539 
L 239.4 -284.975016 
L 239.4 -287.269493 
L 239.4 -289.563971 
L 239.4 -291.858448 
L 239.4 -294.152925 
L 239.4 -296.447403 
L 239.4 -298.74188 
L 239.4 -301.036357 
L 239.4 -303.330835 
L 239.4 -305.625312 
L 240.091967 -305.625312 
L 240.091967 -305.625312 
L 240.460587 -303.330835 
L 240.944517 -301.036357 
L 241.537203 -298.74188 
L 242.210255 -296.447403 
L 242.912119 -294.152925 
L 243.573109 -291.858448 
L 244.117235 -289.563971 
L 244.478751 -287.269493 
L 244.619199 -284.975016 
L 244.539677 -282.680539 
L 244.284036 -280.386062 
L 243.931222 -278.091584 
L 243.578242 -275.797107 
L 243.318003 -273.50263 
L 243.21767 -271.208152 
L 243.30293 -268.913675 
L 243.551962 -266.619198 
L 243.900559 -264.32472 
L 244.257176 -262.030243 
L 244.524274 -259.735766 
L 244.620659 -257.441289 
L 244.499144 -255.146811 
L 244.155095 -252.852334 
L 243.624155 -250.557857 
L 242.970658 -248.263379 
L 242.270951 -245.968902 
L 241.59691 -243.674425 
L 241.004128 -241.379948 
L 240.527119 -239.08547 
L 240.181348 -236.790993 
L 239.969986 -234.496516 
L 239.892414 -232.202038 
L 239.951639 -229.907561 
L 240.158517 -227.613084 
L 240.531613 -225.318606 
L 241.092548 -223.024129 
L 241.857684 -220.729652 
L 242.828084 -218.435175 
L 243.980591 -216.140697 
L 245.263259 -213.84622 
L 246.597787 -211.551743 
L 247.889874 -209.257265 
L 249.045901 -206.962788 
L 249.991916 -204.668311 
L 250.689515 -202.373834 
L 251.143764 -200.079356 
L 251.400661 -197.784879 
L 251.53505 -195.490402 
L 251.632925 -193.195924 
L 251.773449 -190.901447 
L 252.015256 -188.60697 
L 252.389244 -186.312492 
L 252.897416 -184.018015 
L 253.515717 -181.723538 
L 254.198887 -179.429061 
L 254.886628 -177.134583 
L 255.51167 -174.840106 
L 256.010468 -172.545629 
L 256.335774 -170.251151 
L 256.468235 -167.956674 
L 256.422786 -165.662197 
L 256.24636 -163.36772 
L 256.006387 -161.073242 
L 255.773297 -158.778765 
L 255.602798 -156.484288 
L 255.523503 -154.18981 
L 255.532669 -151.895333 
L 255.59907 -149.600856 
L 255.669653 -147.306378 
L 255.676811 -145.011901 
L 255.545372 -142.717424 
L 255.200729 -140.422947 
L 254.579948 -138.128469 
L 253.645693 -135.833992 
L 252.399742 -133.539515 
L 250.890877 -131.245037 
L 249.212796 -128.95056 
L 247.491037 -126.656083 
L 245.86217 -124.361606 
L 244.451194 -122.067128 
L 243.353067 -119.772651 
L 242.621841 -117.478174 
L 242.267593 -115.183696 
L 242.259159 -112.889219 
L 242.530231 -110.594742 
L 242.987588 -108.300264 
L 243.521528 -106.005787 
L 244.019011 -103.71131 
L 244.378976 -101.416833 
L 244.527551 -99.122355 
L 244.429476 -96.827878 
L 244.092216 -94.533401 
L 243.561098 -92.238923 
L 242.906661 -89.944446 
L 242.207906 -87.649969 
L 241.536245 -85.355492 
L 240.944147 -83.061014 
L 240.460451 -80.766537 
L 240.091919 -78.47206 
z
" id="m352bf7e1f2" style="stroke:#595959;stroke-width:1.75;"/>
    </defs>
    <g clip-path="url(#p92920d204e)">
     <use style="fill:#e79676;stroke:#595959;stroke-width:1.75;" x="0.0" xlink:href="#m352bf7e1f2" y="396.0"/>
    </g>
   </g>
   <g id="PolyCollection_4">
    <defs>
     <path d="M 351 -117.793169 
L 350.423831 -117.793169 
L 350.126713 -119.180366 
L 349.737983 -120.567563 
L 349.260556 -121.95476 
L 348.712256 -123.341958 
L 348.126612 -124.729155 
L 347.549366 -126.116352 
L 347.030489 -127.503549 
L 346.613215 -128.890746 
L 346.32314 -130.277943 
L 346.161113 -131.665141 
L 346.102861 -133.052338 
L 346.106173 -134.439535 
L 346.123682 -135.826732 
L 346.116957 -137.213929 
L 346.066773 -138.601126 
L 345.975602 -139.988324 
L 345.861118 -141.375521 
L 345.742973 -142.762718 
L 345.627774 -144.149915 
L 345.498114 -145.537112 
L 345.310303 -146.924309 
L 345.002463 -148.311507 
L 344.511115 -149.698704 
L 343.791442 -151.085901 
L 342.835136 -152.473098 
L 341.680449 -153.860295 
L 340.411397 -155.247492 
L 339.146227 -156.63469 
L 338.018085 -158.021887 
L 337.152628 -159.409084 
L 336.64751 -160.796281 
L 336.557647 -162.183478 
L 336.88824 -163.570675 
L 337.59568 -164.957873 
L 338.595126 -166.34507 
L 339.772933 -167.732267 
L 341.002042 -169.119464 
L 342.15852 -170.506661 
L 343.137325 -171.893858 
L 343.865205 -173.281056 
L 344.30862 -174.668253 
L 344.475095 -176.05545 
L 344.407683 -177.442647 
L 344.173747 -178.829844 
L 343.850719 -180.217041 
L 343.512104 -181.604238 
L 343.216632 -182.991436 
L 343.002296 -184.378633 
L 342.885581 -185.76583 
L 342.864958 -187.153027 
L 342.926979 -188.540224 
L 343.05309 -189.927421 
L 343.225333 -191.314619 
L 343.429624 -192.701816 
L 343.656026 -194.089013 
L 343.896639 -195.47621 
L 344.142726 -196.863407 
L 344.383233 -198.250604 
L 344.606256 -199.637802 
L 344.803524 -201.024999 
L 344.976066 -202.412196 
L 345.138131 -203.799393 
L 345.316693 -205.18659 
L 345.545637 -206.573787 
L 345.856132 -207.960985 
L 346.26654 -209.348182 
L 346.775626 -210.735379 
L 347.361528 -212.122576 
L 347.986706 -213.509773 
L 348.606851 -214.89697 
L 349.180601 -216.284168 
L 349.677054 -217.671365 
L 350.079305 -219.058562 
L 350.383828 -220.445759 
L 350.596769 -221.832956 
L 350.728803 -223.220153 
L 350.790122 -224.607351 
L 350.786661 -225.994548 
L 350.7182 -227.381745 
L 350.57857 -228.768942 
L 350.358006 -230.156139 
L 350.047409 -231.543336 
L 349.643899 -232.930534 
L 349.156511 -234.317731 
L 348.610381 -235.704928 
L 348.047648 -237.092125 
L 347.523822 -238.479322 
L 347.099563 -239.866519 
L 346.829417 -241.253717 
L 346.750373 -242.640914 
L 346.873564 -244.028111 
L 347.181705 -245.415308 
L 347.633072 -246.802505 
L 348.170771 -248.189702 
L 348.734457 -249.5769 
L 349.271192 -250.964097 
L 349.742839 -252.351294 
L 350.128826 -253.738491 
L 350.424707 -255.125688 
L 351 -255.125688 
L 351 -255.125688 
L 351 -253.738491 
L 351 -252.351294 
L 351 -250.964097 
L 351 -249.5769 
L 351 -248.189702 
L 351 -246.802505 
L 351 -245.415308 
L 351 -244.028111 
L 351 -242.640914 
L 351 -241.253717 
L 351 -239.866519 
L 351 -238.479322 
L 351 -237.092125 
L 351 -235.704928 
L 351 -234.317731 
L 351 -232.930534 
L 351 -231.543336 
L 351 -230.156139 
L 351 -228.768942 
L 351 -227.381745 
L 351 -225.994548 
L 351 -224.607351 
L 351 -223.220153 
L 351 -221.832956 
L 351 -220.445759 
L 351 -219.058562 
L 351 -217.671365 
L 351 -216.284168 
L 351 -214.89697 
L 351 -213.509773 
L 351 -212.122576 
L 351 -210.735379 
L 351 -209.348182 
L 351 -207.960985 
L 351 -206.573787 
L 351 -205.18659 
L 351 -203.799393 
L 351 -202.412196 
L 351 -201.024999 
L 351 -199.637802 
L 351 -198.250604 
L 351 -196.863407 
L 351 -195.47621 
L 351 -194.089013 
L 351 -192.701816 
L 351 -191.314619 
L 351 -189.927421 
L 351 -188.540224 
L 351 -187.153027 
L 351 -185.76583 
L 351 -184.378633 
L 351 -182.991436 
L 351 -181.604238 
L 351 -180.217041 
L 351 -178.829844 
L 351 -177.442647 
L 351 -176.05545 
L 351 -174.668253 
L 351 -173.281056 
L 351 -171.893858 
L 351 -170.506661 
L 351 -169.119464 
L 351 -167.732267 
L 351 -166.34507 
L 351 -164.957873 
L 351 -163.570675 
L 351 -162.183478 
L 351 -160.796281 
L 351 -159.409084 
L 351 -158.021887 
L 351 -156.63469 
L 351 -155.247492 
L 351 -153.860295 
L 351 -152.473098 
L 351 -151.085901 
L 351 -149.698704 
L 351 -148.311507 
L 351 -146.924309 
L 351 -145.537112 
L 351 -144.149915 
L 351 -142.762718 
L 351 -141.375521 
L 351 -139.988324 
L 351 -138.601126 
L 351 -137.213929 
L 351 -135.826732 
L 351 -134.439535 
L 351 -133.052338 
L 351 -131.665141 
L 351 -130.277943 
L 351 -128.890746 
L 351 -127.503549 
L 351 -126.116352 
L 351 -124.729155 
L 351 -123.341958 
L 351 -121.95476 
L 351 -120.567563 
L 351 -119.180366 
L 351 -117.793169 
z
" id="m38058314a7" style="stroke:#595959;stroke-width:1.75;"/>
    </defs>
    <g clip-path="url(#p92920d204e)">
     <use style="fill:#72b7a1;stroke:#595959;stroke-width:1.75;" x="0.0" xlink:href="#m38058314a7" y="396.0"/>
    </g>
   </g>
   <g id="PolyCollection_5">
    <defs>
     <path d="M 351.355404 -155.888964 
L 351 -155.888964 
L 351 -156.836606 
L 351 -157.784249 
L 351 -158.731891 
L 351 -159.679533 
L 351 -160.627175 
L 351 -161.574818 
L 351 -162.52246 
L 351 -163.470102 
L 351 -164.417745 
L 351 -165.365387 
L 351 -166.313029 
L 351 -167.260671 
L 351 -168.208314 
L 351 -169.155956 
L 351 -170.103598 
L 351 -171.051241 
L 351 -171.998883 
L 351 -172.946525 
L 351 -173.894167 
L 351 -174.84181 
L 351 -175.789452 
L 351 -176.737094 
L 351 -177.684737 
L 351 -178.632379 
L 351 -179.580021 
L 351 -180.527663 
L 351 -181.475306 
L 351 -182.422948 
L 351 -183.37059 
L 351 -184.318233 
L 351 -185.265875 
L 351 -186.213517 
L 351 -187.161159 
L 351 -188.108802 
L 351 -189.056444 
L 351 -190.004086 
L 351 -190.951729 
L 351 -191.899371 
L 351 -192.847013 
L 351 -193.794655 
L 351 -194.742298 
L 351 -195.68994 
L 351 -196.637582 
L 351 -197.585225 
L 351 -198.532867 
L 351 -199.480509 
L 351 -200.428151 
L 351 -201.375794 
L 351 -202.323436 
L 351 -203.271078 
L 351 -204.218721 
L 351 -205.166363 
L 351 -206.114005 
L 351 -207.061647 
L 351 -208.00929 
L 351 -208.956932 
L 351 -209.904574 
L 351 -210.852217 
L 351 -211.799859 
L 351 -212.747501 
L 351 -213.695143 
L 351 -214.642786 
L 351 -215.590428 
L 351 -216.53807 
L 351 -217.485713 
L 351 -218.433355 
L 351 -219.380997 
L 351 -220.328639 
L 351 -221.276282 
L 351 -222.223924 
L 351 -223.171566 
L 351 -224.119209 
L 351 -225.066851 
L 351 -226.014493 
L 351 -226.962135 
L 351 -227.909778 
L 351 -228.85742 
L 351 -229.805062 
L 351 -230.752705 
L 351 -231.700347 
L 351 -232.647989 
L 351 -233.595631 
L 351 -234.543274 
L 351 -235.490916 
L 351 -236.438558 
L 351 -237.386201 
L 351 -238.333843 
L 351 -239.281485 
L 351 -240.229127 
L 351 -241.17677 
L 351 -242.124412 
L 351 -243.072054 
L 351 -244.019697 
L 351 -244.967339 
L 351 -245.914981 
L 351 -246.862623 
L 351 -247.810266 
L 351 -248.757908 
L 351 -249.70555 
L 351.355404 -249.70555 
L 351.355404 -249.70555 
L 351.441713 -248.757908 
L 351.542159 -247.810266 
L 351.657177 -246.862623 
L 351.786696 -245.914981 
L 351.930037 -244.967339 
L 352.085831 -244.019697 
L 352.251967 -243.072054 
L 352.425583 -242.124412 
L 352.603102 -241.17677 
L 352.780321 -240.229127 
L 352.952561 -239.281485 
L 353.11485 -238.333843 
L 353.262161 -237.386201 
L 353.38966 -236.438558 
L 353.492974 -235.490916 
L 353.568432 -234.543274 
L 353.613288 -233.595631 
L 353.625882 -232.647989 
L 353.605746 -231.700347 
L 353.553629 -230.752705 
L 353.471453 -229.805062 
L 353.362195 -228.85742 
L 353.229708 -227.909778 
L 353.078495 -226.962135 
L 352.913458 -226.014493 
L 352.739633 -225.066851 
L 352.561943 -224.119209 
L 352.384974 -223.171566 
L 352.212793 -222.223924 
L 352.04882 -221.276282 
L 351.895744 -220.328639 
L 351.755502 -219.380997 
L 351.629299 -218.433355 
L 351.517663 -217.485713 
L 351.420541 -216.53807 
L 351.337397 -215.590428 
L 351.267331 -214.642786 
L 351.20919 -213.695143 
L 351.161671 -212.747501 
L 351.123414 -211.799859 
L 351.093073 -210.852217 
L 351.069373 -209.904574 
L 351.051155 -208.956932 
L 351.037394 -208.00929 
L 351.027219 -207.061647 
L 351.019913 -206.114005 
L 351.014914 -205.166363 
L 351.011808 -204.218721 
L 351.010322 -203.271078 
L 351.010322 -202.323436 
L 351.011808 -201.375794 
L 351.014914 -200.428151 
L 351.019913 -199.480509 
L 351.027219 -198.532867 
L 351.037394 -197.585225 
L 351.051155 -196.637582 
L 351.069373 -195.68994 
L 351.093073 -194.742298 
L 351.123414 -193.794655 
L 351.161671 -192.847013 
L 351.20919 -191.899371 
L 351.267331 -190.951729 
L 351.337397 -190.004086 
L 351.420541 -189.056444 
L 351.517663 -188.108802 
L 351.629299 -187.161159 
L 351.755502 -186.213517 
L 351.895744 -185.265875 
L 352.04882 -184.318233 
L 352.212793 -183.37059 
L 352.384974 -182.422948 
L 352.561943 -181.475306 
L 352.739633 -180.527663 
L 352.913458 -179.580021 
L 353.078495 -178.632379 
L 353.229708 -177.684737 
L 353.362195 -176.737094 
L 353.471453 -175.789452 
L 353.553629 -174.84181 
L 353.605746 -173.894167 
L 353.625882 -172.946525 
L 353.613288 -171.998883 
L 353.568432 -171.051241 
L 353.492974 -170.103598 
L 353.38966 -169.155956 
L 353.262161 -168.208314 
L 353.11485 -167.260671 
L 352.952561 -166.313029 
L 352.780321 -165.365387 
L 352.603102 -164.417745 
L 352.425583 -163.470102 
L 352.251967 -162.52246 
L 352.085831 -161.574818 
L 351.930037 -160.627175 
L 351.786696 -159.679533 
L 351.657177 -158.731891 
L 351.542159 -157.784249 
L 351.441713 -156.836606 
L 351.355404 -155.888964 
z
" id="mba43faa52e" style="stroke:#595959;stroke-width:1.75;"/>
    </defs>
    <g clip-path="url(#p92920d204e)">
     <use style="fill:#e79676;stroke:#595959;stroke-width:1.75;" x="0.0" xlink:href="#mba43faa52e" y="396.0"/>
    </g>
   </g>
   <g id="PolyCollection_6">
    <defs>
     <path d="M 462.6 -130.626019 
L 462.331534 -130.626019 
L 462.255407 -131.310995 
L 462.164991 -131.995971 
L 462.05991 -132.680948 
L 461.940508 -133.365924 
L 461.807995 -134.0509 
L 461.664548 -134.735876 
L 461.513348 -135.420853 
L 461.358535 -136.105829 
L 461.205065 -136.790805 
L 461.058481 -137.475781 
L 460.924599 -138.160758 
L 460.80913 -138.845734 
L 460.717285 -139.53071 
L 460.653384 -140.215686 
L 460.620519 -140.900663 
L 460.620308 -141.585639 
L 460.652761 -142.270615 
L 460.716281 -142.955591 
L 460.807792 -143.640568 
L 460.92299 -144.325544 
L 461.056671 -145.01052 
L 461.203129 -145.695496 
L 461.356547 -146.380472 
L 461.511376 -147.065449 
L 461.66265 -147.750425 
L 461.806219 -148.435401 
L 461.938888 -149.120377 
L 462.058467 -149.805354 
L 462.163736 -150.49033 
L 462.25434 -151.175306 
L 462.330645 -151.860282 
L 462.393569 -152.545259 
L 462.444403 -153.230235 
L 462.484654 -153.915211 
L 462.515903 -154.600187 
L 462.539698 -155.285164 
L 462.557474 -155.97014 
L 462.570504 -156.655116 
L 462.579879 -157.340092 
L 462.5865 -158.025069 
L 462.591091 -158.710045 
L 462.594215 -159.395021 
L 462.596301 -160.079997 
L 462.597666 -160.764974 
L 462.598536 -161.44995 
L 462.599068 -162.134926 
L 462.599366 -162.819902 
L 462.59949 -163.504878 
L 462.599463 -164.189855 
L 462.599278 -164.874831 
L 462.598888 -165.559807 
L 462.598207 -166.244783 
L 462.597091 -166.92976 
L 462.595322 -167.614736 
L 462.592579 -168.299712 
L 462.588412 -168.984688 
L 462.582194 -169.669665 
L 462.573085 -170.354641 
L 462.559978 -171.039617 
L 462.54146 -171.724593 
L 462.515769 -172.40957 
L 462.480781 -173.094546 
L 462.434012 -173.779522 
L 462.372667 -174.464498 
L 462.293727 -175.149475 
L 462.194107 -175.834451 
L 462.070855 -176.519427 
L 461.921426 -177.204403 
L 461.743988 -177.88938 
L 461.537759 -178.574356 
L 461.303336 -179.259332 
L 461.042983 -179.944308 
L 460.760833 -180.629285 
L 460.462967 -181.314261 
L 460.157335 -181.999237 
L 459.8535 -182.684213 
L 459.562206 -183.369189 
L 459.29478 -184.054166 
L 459.062422 -184.739142 
L 458.875437 -185.424118 
L 458.742477 -186.109094 
L 458.669882 -186.794071 
L 458.661176 -187.479047 
L 458.716785 -188.164023 
L 458.834001 -188.848999 
L 459.007202 -189.533976 
L 459.228298 -190.218952 
L 459.487358 -190.903928 
L 459.773347 -191.588904 
L 460.074897 -192.273881 
L 460.381044 -192.958857 
L 460.681857 -193.643833 
L 460.968919 -194.328809 
L 461.23563 -195.013786 
L 461.477335 -195.698762 
L 461.691281 -196.383738 
L 461.876448 -197.068714 
L 462.033277 -197.753691 
L 462.163353 -198.438667 
L 462.6 -198.438667 
L 462.6 -198.438667 
L 462.6 -197.753691 
L 462.6 -197.068714 
L 462.6 -196.383738 
L 462.6 -195.698762 
L 462.6 -195.013786 
L 462.6 -194.328809 
L 462.6 -193.643833 
L 462.6 -192.958857 
L 462.6 -192.273881 
L 462.6 -191.588904 
L 462.6 -190.903928 
L 462.6 -190.218952 
L 462.6 -189.533976 
L 462.6 -188.848999 
L 462.6 -188.164023 
L 462.6 -187.479047 
L 462.6 -186.794071 
L 462.6 -186.109094 
L 462.6 -185.424118 
L 462.6 -184.739142 
L 462.6 -184.054166 
L 462.6 -183.369189 
L 462.6 -182.684213 
L 462.6 -181.999237 
L 462.6 -181.314261 
L 462.6 -180.629285 
L 462.6 -179.944308 
L 462.6 -179.259332 
L 462.6 -178.574356 
L 462.6 -177.88938 
L 462.6 -177.204403 
L 462.6 -176.519427 
L 462.6 -175.834451 
L 462.6 -175.149475 
L 462.6 -174.464498 
L 462.6 -173.779522 
L 462.6 -173.094546 
L 462.6 -172.40957 
L 462.6 -171.724593 
L 462.6 -171.039617 
L 462.6 -170.354641 
L 462.6 -169.669665 
L 462.6 -168.984688 
L 462.6 -168.299712 
L 462.6 -167.614736 
L 462.6 -166.92976 
L 462.6 -166.244783 
L 462.6 -165.559807 
L 462.6 -164.874831 
L 462.6 -164.189855 
L 462.6 -163.504878 
L 462.6 -162.819902 
L 462.6 -162.134926 
L 462.6 -161.44995 
L 462.6 -160.764974 
L 462.6 -160.079997 
L 462.6 -159.395021 
L 462.6 -158.710045 
L 462.6 -158.025069 
L 462.6 -157.340092 
L 462.6 -156.655116 
L 462.6 -155.97014 
L 462.6 -155.285164 
L 462.6 -154.600187 
L 462.6 -153.915211 
L 462.6 -153.230235 
L 462.6 -152.545259 
L 462.6 -151.860282 
L 462.6 -151.175306 
L 462.6 -150.49033 
L 462.6 -149.805354 
L 462.6 -149.120377 
L 462.6 -148.435401 
L 462.6 -147.750425 
L 462.6 -147.065449 
L 462.6 -146.380472 
L 462.6 -145.695496 
L 462.6 -145.01052 
L 462.6 -144.325544 
L 462.6 -143.640568 
L 462.6 -142.955591 
L 462.6 -142.270615 
L 462.6 -141.585639 
L 462.6 -140.900663 
L 462.6 -140.215686 
L 462.6 -139.53071 
L 462.6 -138.845734 
L 462.6 -138.160758 
L 462.6 -137.475781 
L 462.6 -136.790805 
L 462.6 -136.105829 
L 462.6 -135.420853 
L 462.6 -134.735876 
L 462.6 -134.0509 
L 462.6 -133.365924 
L 462.6 -132.680948 
L 462.6 -131.995971 
L 462.6 -131.310995 
L 462.6 -130.626019 
z
" id="m7db5975928" style="stroke:#595959;stroke-width:1.75;"/>
    </defs>
    <g clip-path="url(#p92920d204e)">
     <use style="fill:#72b7a1;stroke:#595959;stroke-width:1.75;" x="0.0" xlink:href="#m7db5975928" y="396.0"/>
    </g>
   </g>
   <g id="PolyCollection_7">
    <defs>
     <path d="M 463.240283 -91.49573 
L 462.6 -91.49573 
L 462.6 -93.460817 
L 462.6 -95.425904 
L 462.6 -97.390992 
L 462.6 -99.356079 
L 462.6 -101.321166 
L 462.6 -103.286253 
L 462.6 -105.25134 
L 462.6 -107.216427 
L 462.6 -109.181514 
L 462.6 -111.146601 
L 462.6 -113.111689 
L 462.6 -115.076776 
L 462.6 -117.041863 
L 462.6 -119.00695 
L 462.6 -120.972037 
L 462.6 -122.937124 
L 462.6 -124.902211 
L 462.6 -126.867298 
L 462.6 -128.832386 
L 462.6 -130.797473 
L 462.6 -132.76256 
L 462.6 -134.727647 
L 462.6 -136.692734 
L 462.6 -138.657821 
L 462.6 -140.622908 
L 462.6 -142.587995 
L 462.6 -144.553083 
L 462.6 -146.51817 
L 462.6 -148.483257 
L 462.6 -150.448344 
L 462.6 -152.413431 
L 462.6 -154.378518 
L 462.6 -156.343605 
L 462.6 -158.308692 
L 462.6 -160.27378 
L 462.6 -162.238867 
L 462.6 -164.203954 
L 462.6 -166.169041 
L 462.6 -168.134128 
L 462.6 -170.099215 
L 462.6 -172.064302 
L 462.6 -174.029389 
L 462.6 -175.994477 
L 462.6 -177.959564 
L 462.6 -179.924651 
L 462.6 -181.889738 
L 462.6 -183.854825 
L 462.6 -185.819912 
L 462.6 -187.784999 
L 462.6 -189.750086 
L 462.6 -191.715174 
L 462.6 -193.680261 
L 462.6 -195.645348 
L 462.6 -197.610435 
L 462.6 -199.575522 
L 462.6 -201.540609 
L 462.6 -203.505696 
L 462.6 -205.470783 
L 462.6 -207.435871 
L 462.6 -209.400958 
L 462.6 -211.366045 
L 462.6 -213.331132 
L 462.6 -215.296219 
L 462.6 -217.261306 
L 462.6 -219.226393 
L 462.6 -221.19148 
L 462.6 -223.156568 
L 462.6 -225.121655 
L 462.6 -227.086742 
L 462.6 -229.051829 
L 462.6 -231.016916 
L 462.6 -232.982003 
L 462.6 -234.94709 
L 462.6 -236.912177 
L 462.6 -238.877265 
L 462.6 -240.842352 
L 462.6 -242.807439 
L 462.6 -244.772526 
L 462.6 -246.737613 
L 462.6 -248.7027 
L 462.6 -250.667787 
L 462.6 -252.632874 
L 462.6 -254.597962 
L 462.6 -256.563049 
L 462.6 -258.528136 
L 462.6 -260.493223 
L 462.6 -262.45831 
L 462.6 -264.423397 
L 462.6 -266.388484 
L 462.6 -268.353571 
L 462.6 -270.318659 
L 462.6 -272.283746 
L 462.6 -274.248833 
L 462.6 -276.21392 
L 462.6 -278.179007 
L 462.6 -280.144094 
L 462.6 -282.109181 
L 462.6 -284.074268 
L 462.6 -286.039356 
L 463.240146 -286.039356 
L 463.240146 -286.039356 
L 463.540719 -284.074268 
L 463.926745 -282.109181 
L 464.395818 -280.144094 
L 464.932835 -278.179007 
L 465.508392 -276.21392 
L 466.079918 -274.248833 
L 466.596061 -272.283746 
L 467.00395 -270.318659 
L 467.258003 -268.353571 
L 467.328295 -266.388484 
L 467.206352 -264.423397 
L 466.906841 -262.45831 
L 466.464682 -260.493223 
L 465.928383 -258.528136 
L 465.351383 -256.563049 
L 464.783553 -254.597962 
L 464.264764 -252.632874 
L 463.821609 -250.667787 
L 463.467437 -248.7027 
L 463.205045 -246.737613 
L 463.030924 -244.772526 
L 462.939855 -242.807439 
L 462.928902 -240.842352 
L 463.000106 -238.877265 
L 463.161491 -236.912177 
L 463.426244 -234.94709 
L 463.810064 -232.982003 
L 464.326954 -231.016916 
L 464.983995 -229.051829 
L 465.775958 -227.086742 
L 466.680926 -225.121655 
L 467.658144 -223.156568 
L 468.649099 -221.19148 
L 469.582281 -219.226393 
L 470.38129 -217.261306 
L 470.975123 -215.296219 
L 471.308849 -213.331132 
L 471.352659 -211.366045 
L 471.107481 -209.400958 
L 470.606037 -207.435871 
L 469.909077 -205.470783 
L 469.097473 -203.505696 
L 468.261552 -201.540609 
L 467.489405 -199.575522 
L 466.85591 -197.610435 
L 466.413942 -195.645348 
L 466.188784 -193.680261 
L 466.176405 -191.715174 
L 466.345824 -189.750086 
L 466.64547 -187.784999 
L 467.012902 -185.819912 
L 467.38665 -183.854825 
L 467.718261 -181.889738 
L 467.982147 -179.924651 
L 468.180843 -177.959564 
L 468.343978 -175.994477 
L 468.520613 -174.029389 
L 468.766307 -172.064302 
L 469.127875 -170.099215 
L 469.629702 -168.134128 
L 470.265403 -166.169041 
L 470.997388 -164.203954 
L 471.764756 -162.238867 
L 472.497602 -160.27378 
L 473.13373 -158.308692 
L 473.632902 -156.343605 
L 473.984277 -154.378518 
L 474.204707 -152.413431 
L 474.328423 -150.448344 
L 474.391523 -148.483257 
L 474.416471 -146.51817 
L 474.401927 -144.553083 
L 474.321492 -142.587995 
L 474.131957 -140.622908 
L 473.788453 -138.657821 
L 473.261597 -136.692734 
L 472.551144 -134.727647 
L 471.691876 -132.76256 
L 470.749964 -130.797473 
L 469.810893 -128.832386 
L 468.962364 -126.867298 
L 468.276605 -124.902211 
L 467.796364 -122.937124 
L 467.527539 -120.972037 
L 467.439637 -119.00695 
L 467.473463 -117.041863 
L 467.55396 -115.076776 
L 467.605225 -113.111689 
L 467.564508 -111.146601 
L 467.392389 -109.181514 
L 467.077394 -107.216427 
L 466.634617 -105.25134 
L 466.09936 -103.286253 
L 465.517809 -101.321166 
L 464.937215 -99.356079 
L 464.397775 -97.390992 
L 463.927585 -95.425904 
L 463.541065 -93.460817 
L 463.240283 -91.49573 
z
" id="m033afcc765" style="stroke:#595959;stroke-width:1.75;"/>
    </defs>
    <g clip-path="url(#p92920d204e)">
     <use style="fill:#e79676;stroke:#595959;stroke-width:1.75;" x="0.0" xlink:href="#m033afcc765" y="396.0"/>
    </g>
   </g>
   <g id="patch_3">
    <path clip-path="url(#p92920d204e)" d="M 127.8 311.142857 
L 127.8 311.142857 
L 127.8 311.142857 
L 127.8 311.142857 
z
" style="fill:#72b7a1;stroke:#595959;stroke-linejoin:miter;stroke-width:0.875;"/>
   </g>
   <g id="patch_4">
    <path clip-path="url(#p92920d204e)" d="M 127.8 311.142857 
L 127.8 311.142857 
L 127.8 311.142857 
L 127.8 311.142857 
z
" style="fill:#e79676;stroke:#595959;stroke-linejoin:miter;stroke-width:0.875;"/>
   </g>
   <g id="line2d_33">
    <path clip-path="url(#p92920d204e)" d="M 83.678943 234.250971 
L 127.8 234.250971 
" style="fill:none;stroke:#595959;stroke-linecap:round;stroke-width:0.875;"/>
   </g>
   <g id="line2d_34">
    <path clip-path="url(#p92920d204e)" d="M 90.333726 264.346971 
L 127.8 264.346971 
" style="fill:none;stroke:#595959;stroke-linecap:round;stroke-width:0.875;"/>
   </g>
   <g id="line2d_35">
    <path clip-path="url(#p92920d204e)" d="M 104.505756 216.0576 
L 127.8 216.0576 
" style="fill:none;stroke:#595959;stroke-linecap:round;stroke-width:0.875;"/>
   </g>
   <g id="line2d_36">
    <path clip-path="url(#p92920d204e)" d="M 104.759432 203.973943 
L 127.8 203.973943 
" style="fill:none;stroke:#595959;stroke-linecap:round;stroke-width:0.875;"/>
   </g>
   <g id="line2d_37">
    <path clip-path="url(#p92920d204e)" d="M 104.037291 199.855543 
L 127.8 199.855543 
" style="fill:none;stroke:#595959;stroke-linecap:round;stroke-width:0.875;"/>
   </g>
   <g id="line2d_38">
    <path clip-path="url(#p92920d204e)" d="M 104.134148 196.687543 
L 127.8 196.687543 
" style="fill:none;stroke:#595959;stroke-linecap:round;stroke-width:0.875;"/>
   </g>
   <g id="line2d_39">
    <path clip-path="url(#p92920d204e)" d="M 101.280651 271.452343 
L 127.8 271.452343 
" style="fill:none;stroke:#595959;stroke-linecap:round;stroke-width:0.875;"/>
   </g>
   <g id="line2d_40">
    <path clip-path="url(#p92920d204e)" d="M 109.464996 189.491657 
L 127.8 189.491657 
" style="fill:none;stroke:#595959;stroke-linecap:round;stroke-width:0.875;"/>
   </g>
   <g id="line2d_41">
    <path clip-path="url(#p92920d204e)" d="M 89.281915 243.076114 
L 127.8 243.076114 
" style="fill:none;stroke:#595959;stroke-linecap:round;stroke-width:0.875;"/>
   </g>
   <g id="line2d_42">
    <path clip-path="url(#p92920d204e)" d="M 91.567193 244.2528 
L 127.8 244.2528 
" style="fill:none;stroke:#595959;stroke-linecap:round;stroke-width:0.875;"/>
   </g>
   <g id="line2d_43">
    <path clip-path="url(#p92920d204e)" d="M 90.333726 264.663771 
L 127.8 264.663771 
" style="fill:none;stroke:#595959;stroke-linecap:round;stroke-width:0.875;"/>
   </g>
   <g id="line2d_44">
    <path clip-path="url(#p92920d204e)" d="M 116.334888 151.566171 
L 127.8 151.566171 
" style="fill:none;stroke:#595959;stroke-linecap:round;stroke-width:0.875;"/>
   </g>
   <g id="line2d_45">
    <path clip-path="url(#p92920d204e)" d="M 87.355422 241.356343 
L 127.8 241.356343 
" style="fill:none;stroke:#595959;stroke-linecap:round;stroke-width:0.875;"/>
   </g>
   <g id="line2d_46">
    <path clip-path="url(#p92920d204e)" d="M 91.325149 227.733943 
L 127.8 227.733943 
" style="fill:none;stroke:#595959;stroke-linecap:round;stroke-width:0.875;"/>
   </g>
   <g id="line2d_47">
    <path clip-path="url(#p92920d204e)" d="M 89.281915 244.026514 
L 127.8 244.026514 
" style="fill:none;stroke:#595959;stroke-linecap:round;stroke-width:0.875;"/>
   </g>
   <g id="line2d_48">
    <path clip-path="url(#p92920d204e)" d="M 105.317806 213.477943 
L 127.8 213.477943 
" style="fill:none;stroke:#595959;stroke-linecap:round;stroke-width:0.875;"/>
   </g>
   <g id="line2d_49">
    <path clip-path="url(#p92920d204e)" d="M 90.333726 264.392229 
L 127.8 264.392229 
" style="fill:none;stroke:#595959;stroke-linecap:round;stroke-width:0.875;"/>
   </g>
   <g id="line2d_50">
    <path clip-path="url(#p92920d204e)" d="M 83.955845 237.418971 
L 127.8 237.418971 
" style="fill:none;stroke:#595959;stroke-linecap:round;stroke-width:0.875;"/>
   </g>
   <g id="line2d_51">
    <path clip-path="url(#p92920d204e)" d="M 83.678943 234.341486 
L 127.8 234.341486 
" style="fill:none;stroke:#595959;stroke-linecap:round;stroke-width:0.875;"/>
   </g>
   <g id="line2d_52">
    <path clip-path="url(#p92920d204e)" d="M 85.276492 232.123886 
L 127.8 232.123886 
" style="fill:none;stroke:#595959;stroke-linecap:round;stroke-width:0.875;"/>
   </g>
   <g id="line2d_53">
    <path clip-path="url(#p92920d204e)" d="M 96.733242 248.0544 
L 127.8 248.0544 
" style="fill:none;stroke:#595959;stroke-linecap:round;stroke-width:0.875;"/>
   </g>
   <g id="line2d_54">
    <path clip-path="url(#p92920d204e)" d="M 91.295117 267.333943 
L 127.8 267.333943 
" style="fill:none;stroke:#595959;stroke-linecap:round;stroke-width:0.875;"/>
   </g>
   <g id="line2d_55">
    <path clip-path="url(#p92920d204e)" d="M 117.044133 173.561143 
L 127.8 173.561143 
" style="fill:none;stroke:#595959;stroke-linecap:round;stroke-width:0.875;"/>
   </g>
   <g id="line2d_56">
    <path clip-path="url(#p92920d204e)" d="M 88.909055 228.367543 
L 127.8 228.367543 
" style="fill:none;stroke:#595959;stroke-linecap:round;stroke-width:0.875;"/>
   </g>
   <g id="line2d_57">
    <path clip-path="url(#p92920d204e)" d="M 105.655959 210.536229 
L 127.8 210.536229 
" style="fill:none;stroke:#595959;stroke-linecap:round;stroke-width:0.875;"/>
   </g>
   <g id="line2d_58">
    <path clip-path="url(#p92920d204e)" d="M 117.519262 164.509714 
L 127.8 164.509714 
" style="fill:none;stroke:#595959;stroke-linecap:round;stroke-width:0.875;"/>
   </g>
   <g id="line2d_59">
    <path clip-path="url(#p92920d204e)" d="M 114.93408 181.933714 
L 127.8 181.933714 
" style="fill:none;stroke:#595959;stroke-linecap:round;stroke-width:0.875;"/>
   </g>
   <g id="line2d_60">
    <path clip-path="url(#p92920d204e)" d="M 86.854847 229.498971 
L 127.8 229.498971 
" style="fill:none;stroke:#595959;stroke-linecap:round;stroke-width:0.875;"/>
   </g>
   <g id="line2d_61">
    <path clip-path="url(#p92920d204e)" d="M 103.173034 254.3904 
L 127.8 254.3904 
" style="fill:none;stroke:#595959;stroke-linecap:round;stroke-width:0.875;"/>
   </g>
   <g id="line2d_62">
    <path clip-path="url(#p92920d204e)" d="M 90.333726 264.573257 
L 127.8 264.573257 
" style="fill:none;stroke:#595959;stroke-linecap:round;stroke-width:0.875;"/>
   </g>
   <g id="line2d_63">
    <path clip-path="url(#p92920d204e)" d="M 115.488775 153.602743 
L 127.8 153.602743 
" style="fill:none;stroke:#595959;stroke-linecap:round;stroke-width:0.875;"/>
   </g>
   <g id="line2d_64">
    <path clip-path="url(#p92920d204e)" d="M 90.158402 266.157257 
L 127.8 266.157257 
" style="fill:none;stroke:#595959;stroke-linecap:round;stroke-width:0.875;"/>
   </g>
   <g id="line2d_65">
    <path clip-path="url(#p92920d204e)" d="M 104.675412 195.4656 
L 127.8 195.4656 
" style="fill:none;stroke:#595959;stroke-linecap:round;stroke-width:0.875;"/>
   </g>
   <g id="line2d_66">
    <path clip-path="url(#p92920d204e)" d="M 98.921227 222.936686 
L 127.8 222.936686 
" style="fill:none;stroke:#595959;stroke-linecap:round;stroke-width:0.875;"/>
   </g>
   <g id="line2d_67">
    <path clip-path="url(#p92920d204e)" d="M 203.760221 217.686857 
L 239.4 217.686857 
" style="fill:none;stroke:#595959;stroke-linecap:round;stroke-width:0.875;"/>
   </g>
   <g id="line2d_68">
    <path clip-path="url(#p92920d204e)" d="M 196.563431 230.042057 
L 239.4 230.042057 
" style="fill:none;stroke:#595959;stroke-linecap:round;stroke-width:0.875;"/>
   </g>
   <g id="line2d_69">
    <path clip-path="url(#p92920d204e)" d="M 200.780706 219.316114 
L 239.4 219.316114 
" style="fill:none;stroke:#595959;stroke-linecap:round;stroke-width:0.875;"/>
   </g>
   <g id="line2d_70">
    <path clip-path="url(#p92920d204e)" d="M 207.746599 239.772343 
L 239.4 239.772343 
" style="fill:none;stroke:#595959;stroke-linecap:round;stroke-width:0.875;"/>
   </g>
   <g id="line2d_71">
    <path clip-path="url(#p92920d204e)" d="M 235.957883 132.7392 
L 239.4 132.7392 
" style="fill:none;stroke:#595959;stroke-linecap:round;stroke-width:0.875;"/>
   </g>
   <g id="line2d_72">
    <path clip-path="url(#p92920d204e)" d="M 198.797927 221.4432 
L 239.4 221.4432 
" style="fill:none;stroke:#595959;stroke-linecap:round;stroke-width:0.875;"/>
   </g>
   <g id="line2d_73">
    <path clip-path="url(#p92920d204e)" d="M 196.563431 230.539886 
L 239.4 230.539886 
" style="fill:none;stroke:#595959;stroke-linecap:round;stroke-width:0.875;"/>
   </g>
   <g id="line2d_74">
    <path clip-path="url(#p92920d204e)" d="M 222.382295 250.634057 
L 239.4 250.634057 
" style="fill:none;stroke:#595959;stroke-linecap:round;stroke-width:0.875;"/>
   </g>
   <g id="line2d_75">
    <path clip-path="url(#p92920d204e)" d="M 223.806767 253.711543 
L 239.4 253.711543 
" style="fill:none;stroke:#595959;stroke-linecap:round;stroke-width:0.875;"/>
   </g>
   <g id="line2d_76">
    <path clip-path="url(#p92920d204e)" d="M 217.508363 212.934857 
L 239.4 212.934857 
" style="fill:none;stroke:#595959;stroke-linecap:round;stroke-width:0.875;"/>
   </g>
   <g id="line2d_77">
    <path clip-path="url(#p92920d204e)" d="M 198.797927 222.212571 
L 239.4 222.212571 
" style="fill:none;stroke:#595959;stroke-linecap:round;stroke-width:0.875;"/>
   </g>
   <g id="line2d_78">
    <path clip-path="url(#p92920d204e)" d="M 231.247456 267.922286 
L 239.4 267.922286 
" style="fill:none;stroke:#595959;stroke-linecap:round;stroke-width:0.875;"/>
   </g>
   <g id="line2d_79">
    <path clip-path="url(#p92920d204e)" d="M 196.506212 228.096 
L 239.4 228.096 
" style="fill:none;stroke:#595959;stroke-linecap:round;stroke-width:0.875;"/>
   </g>
   <g id="line2d_80">
    <path clip-path="url(#p92920d204e)" d="M 211.499034 242.9856 
L 239.4 242.9856 
" style="fill:none;stroke:#595959;stroke-linecap:round;stroke-width:0.875;"/>
   </g>
   <g id="line2d_81">
    <path clip-path="url(#p92920d204e)" d="M 203.760221 217.505829 
L 239.4 217.505829 
" style="fill:none;stroke:#595959;stroke-linecap:round;stroke-width:0.875;"/>
   </g>
   <g id="line2d_82">
    <path clip-path="url(#p92920d204e)" d="M 196.563431 230.675657 
L 239.4 230.675657 
" style="fill:none;stroke:#595959;stroke-linecap:round;stroke-width:0.875;"/>
   </g>
   <g id="line2d_83">
    <path clip-path="url(#p92920d204e)" d="M 232.440948 202.254171 
L 239.4 202.254171 
" style="fill:none;stroke:#595959;stroke-linecap:round;stroke-width:0.875;"/>
   </g>
   <g id="line2d_84">
    <path clip-path="url(#p92920d204e)" d="M 201.02162 237.328457 
L 239.4 237.328457 
" style="fill:none;stroke:#595959;stroke-linecap:round;stroke-width:0.875;"/>
   </g>
   <g id="line2d_85">
    <path clip-path="url(#p92920d204e)" d="M 198.684347 234.522514 
L 239.4 234.522514 
" style="fill:none;stroke:#595959;stroke-linecap:round;stroke-width:0.875;"/>
   </g>
   <g id="line2d_86">
    <path clip-path="url(#p92920d204e)" d="M 196.863254 226.557257 
L 239.4 226.557257 
" style="fill:none;stroke:#595959;stroke-linecap:round;stroke-width:0.875;"/>
   </g>
   <g id="line2d_87">
    <path clip-path="url(#p92920d204e)" d="M 235.940064 169.623771 
L 239.4 169.623771 
" style="fill:none;stroke:#595959;stroke-linecap:round;stroke-width:0.875;"/>
   </g>
   <g id="line2d_88">
    <path clip-path="url(#p92920d204e)" d="M 204.132563 238.5504 
L 239.4 238.5504 
" style="fill:none;stroke:#595959;stroke-linecap:round;stroke-width:0.875;"/>
   </g>
   <g id="line2d_89">
    <path clip-path="url(#p92920d204e)" d="M 234.82135 191.618743 
L 239.4 191.618743 
" style="fill:none;stroke:#595959;stroke-linecap:round;stroke-width:0.875;"/>
   </g>
   <g id="line2d_90">
    <path clip-path="url(#p92920d204e)" d="M 235.953045 92.686629 
L 239.4 92.686629 
" style="fill:none;stroke:#595959;stroke-linecap:round;stroke-width:0.875;"/>
   </g>
   <g id="line2d_91">
    <path clip-path="url(#p92920d204e)" d="M 196.563431 231.535543 
L 239.4 231.535543 
" style="fill:none;stroke:#595959;stroke-linecap:round;stroke-width:0.875;"/>
   </g>
   <g id="line2d_92">
    <path clip-path="url(#p92920d204e)" d="M 200.780706 220.266514 
L 239.4 220.266514 
" style="fill:none;stroke:#595959;stroke-linecap:round;stroke-width:0.875;"/>
   </g>
   <g id="line2d_93">
    <path clip-path="url(#p92920d204e)" d="M 201.02162 236.694857 
L 239.4 236.694857 
" style="fill:none;stroke:#595959;stroke-linecap:round;stroke-width:0.875;"/>
   </g>
   <g id="line2d_94">
    <path clip-path="url(#p92920d204e)" d="M 200.780706 219.587657 
L 239.4 219.587657 
" style="fill:none;stroke:#595959;stroke-linecap:round;stroke-width:0.875;"/>
   </g>
   <g id="line2d_95">
    <path clip-path="url(#p92920d204e)" d="M 225.94548 256.743771 
L 239.4 256.743771 
" style="fill:none;stroke:#595959;stroke-linecap:round;stroke-width:0.875;"/>
   </g>
   <g id="line2d_96">
    <path clip-path="url(#p92920d204e)" d="M 198.684347 233.888914 
L 239.4 233.888914 
" style="fill:none;stroke:#595959;stroke-linecap:round;stroke-width:0.875;"/>
   </g>
   <g id="line2d_97">
    <path clip-path="url(#p92920d204e)" d="M 215.029915 244.479086 
L 239.4 244.479086 
" style="fill:none;stroke:#595959;stroke-linecap:round;stroke-width:0.875;"/>
   </g>
   <g id="line2d_98">
    <path clip-path="url(#p92920d204e)" d="M 228.854161 263.5776 
L 239.4 263.5776 
" style="fill:none;stroke:#595959;stroke-linecap:round;stroke-width:0.875;"/>
   </g>
   <g id="line2d_99">
    <path clip-path="url(#p92920d204e)" d="M 207.758396 216.464914 
L 239.4 216.464914 
" style="fill:none;stroke:#595959;stroke-linecap:round;stroke-width:0.875;"/>
   </g>
   <g id="line2d_100">
    <path clip-path="url(#p92920d204e)" d="M 239.4 139.120457 
L 244.568453 139.120457 
" style="fill:none;stroke:#595959;stroke-linecap:round;stroke-width:0.875;"/>
   </g>
   <g id="line2d_101">
    <path clip-path="url(#p92920d204e)" d="M 239.4 260.273829 
L 253.503236 260.273829 
" style="fill:none;stroke:#595959;stroke-linecap:round;stroke-width:0.875;"/>
   </g>
   <g id="line2d_102">
    <path clip-path="url(#p92920d204e)" d="M 239.4 219.316114 
L 254.731761 219.316114 
" style="fill:none;stroke:#595959;stroke-linecap:round;stroke-width:0.875;"/>
   </g>
   <g id="line2d_103">
    <path clip-path="url(#p92920d204e)" d="M 239.4 248.642743 
L 255.506957 248.642743 
" style="fill:none;stroke:#595959;stroke-linecap:round;stroke-width:0.875;"/>
   </g>
   <g id="line2d_104">
    <path clip-path="url(#p92920d204e)" d="M 239.4 261.269486 
L 253.503236 261.269486 
" style="fill:none;stroke:#595959;stroke-linecap:round;stroke-width:0.875;"/>
   </g>
   <g id="line2d_105">
    <path clip-path="url(#p92920d204e)" d="M 239.4 228.367543 
L 256.297553 228.367543 
" style="fill:none;stroke:#595959;stroke-linecap:round;stroke-width:0.875;"/>
   </g>
   <g id="line2d_106">
    <path clip-path="url(#p92920d204e)" d="M 239.4 297.248914 
L 244.476276 297.248914 
" style="fill:none;stroke:#595959;stroke-linecap:round;stroke-width:0.875;"/>
   </g>
   <g id="line2d_107">
    <path clip-path="url(#p92920d204e)" d="M 239.4 243.211886 
L 255.371342 243.211886 
" style="fill:none;stroke:#595959;stroke-linecap:round;stroke-width:0.875;"/>
   </g>
   <g id="line2d_108">
    <path clip-path="url(#p92920d204e)" d="M 239.4 189.582171 
L 248.949442 189.582171 
" style="fill:none;stroke:#595959;stroke-linecap:round;stroke-width:0.875;"/>
   </g>
   <g id="line2d_109">
    <path clip-path="url(#p92920d204e)" d="M 239.4 196.7328 
L 251.026326 196.7328 
" style="fill:none;stroke:#595959;stroke-linecap:round;stroke-width:0.875;"/>
   </g>
   <g id="line2d_110">
    <path clip-path="url(#p92920d204e)" d="M 239.4 230.042057 
L 256.252558 230.042057 
" style="fill:none;stroke:#595959;stroke-linecap:round;stroke-width:0.875;"/>
   </g>
   <g id="line2d_111">
    <path clip-path="url(#p92920d204e)" d="M 239.4 110.653714 
L 244.567007 110.653714 
" style="fill:none;stroke:#595959;stroke-linecap:round;stroke-width:0.875;"/>
   </g>
   <g id="line2d_112">
    <path clip-path="url(#p92920d204e)" d="M 239.4 209.676343 
L 252.259352 209.676343 
" style="fill:none;stroke:#595959;stroke-linecap:round;stroke-width:0.875;"/>
   </g>
   <g id="line2d_113">
    <path clip-path="url(#p92920d204e)" d="M 345.907571 188.043429 
L 351 188.043429 
" style="fill:none;stroke:#595959;stroke-linecap:round;stroke-width:0.875;"/>
   </g>
   <g id="line2d_114">
    <path clip-path="url(#p92920d204e)" d="M 343.00771 208.1376 
L 351 208.1376 
" style="fill:none;stroke:#595959;stroke-linecap:round;stroke-width:0.875;"/>
   </g>
   <g id="line2d_115">
    <path clip-path="url(#p92920d204e)" d="M 337.029358 232.893257 
L 351 232.893257 
" style="fill:none;stroke:#595959;stroke-linecap:round;stroke-width:0.875;"/>
   </g>
   <g id="line2d_116">
    <path clip-path="url(#p92920d204e)" d="M 336.791035 235.744457 
L 351 235.744457 
" style="fill:none;stroke:#595959;stroke-linecap:round;stroke-width:0.875;"/>
   </g>
   <g id="line2d_117">
    <path clip-path="url(#p92920d204e)" d="M 346.369908 265.568914 
L 351 265.568914 
" style="fill:none;stroke:#595959;stroke-linecap:round;stroke-width:0.875;"/>
   </g>
   <g id="line2d_118">
    <path clip-path="url(#p92920d204e)" d="M 339.264764 238.821943 
L 351 238.821943 
" style="fill:none;stroke:#595959;stroke-linecap:round;stroke-width:0.875;"/>
   </g>
   <g id="line2d_119">
    <path clip-path="url(#p92920d204e)" d="M 346.792869 153.512229 
L 351 153.512229 
" style="fill:none;stroke:#595959;stroke-linecap:round;stroke-width:0.875;"/>
   </g>
   <g id="line2d_120">
    <path clip-path="url(#p92920d204e)" d="M 345.681496 252.1728 
L 351 252.1728 
" style="fill:none;stroke:#595959;stroke-linecap:round;stroke-width:0.875;"/>
   </g>
   <g id="line2d_121">
    <path clip-path="url(#p92920d204e)" d="M 339.885203 228.4128 
L 351 228.4128 
" style="fill:none;stroke:#595959;stroke-linecap:round;stroke-width:0.875;"/>
   </g>
   <g id="line2d_122">
    <path clip-path="url(#p92920d204e)" d="M 344.211299 199.312457 
L 351 199.312457 
" style="fill:none;stroke:#595959;stroke-linecap:round;stroke-width:0.875;"/>
   </g>
   <g id="line2d_123">
    <path clip-path="url(#p92920d204e)" d="M 343.922211 215.378743 
L 351 215.378743 
" style="fill:none;stroke:#595959;stroke-linecap:round;stroke-width:0.875;"/>
   </g>
   <g id="line2d_124">
    <path clip-path="url(#p92920d204e)" d="M 351 223.162971 
L 353.599624 223.162971 
" style="fill:none;stroke:#595959;stroke-linecap:round;stroke-width:0.875;"/>
   </g>
   <g id="line2d_125">
    <path clip-path="url(#p92920d204e)" d="M 351 163.242514 
L 353.599624 163.242514 
" style="fill:none;stroke:#595959;stroke-linecap:round;stroke-width:0.875;"/>
   </g>
   <g id="line2d_126">
    <path clip-path="url(#p92920d204e)" d="M 458.709183 209.359543 
L 462.6 209.359543 
" style="fill:none;stroke:#595959;stroke-linecap:round;stroke-width:0.875;"/>
   </g>
   <g id="line2d_127">
    <path clip-path="url(#p92920d204e)" d="M 458.700565 208.182857 
L 462.6 208.182857 
" style="fill:none;stroke:#595959;stroke-linecap:round;stroke-width:0.875;"/>
   </g>
   <g id="line2d_128">
    <path clip-path="url(#p92920d204e)" d="M 460.640105 254.752457 
L 462.6 254.752457 
" style="fill:none;stroke:#595959;stroke-linecap:round;stroke-width:0.875;"/>
   </g>
   <g id="line2d_129">
    <path clip-path="url(#p92920d204e)" d="M 462.6 180.032914 
L 470.891372 180.032914 
" style="fill:none;stroke:#595959;stroke-linecap:round;stroke-width:0.875;"/>
   </g>
   <g id="line2d_130">
    <path clip-path="url(#p92920d204e)" d="M 462.6 285.12 
L 467.514863 285.12 
" style="fill:none;stroke:#595959;stroke-linecap:round;stroke-width:0.875;"/>
   </g>
   <g id="line2d_131">
    <path clip-path="url(#p92920d204e)" d="M 462.6 237.2832 
L 473.028393 237.2832 
" style="fill:none;stroke:#595959;stroke-linecap:round;stroke-width:0.875;"/>
   </g>
   <g id="line2d_132">
    <path clip-path="url(#p92920d204e)" d="M 462.6 129.344914 
L 467.281012 129.344914 
" style="fill:none;stroke:#595959;stroke-linecap:round;stroke-width:0.875;"/>
   </g>
   <g id="line2d_133">
    <path clip-path="url(#p92920d204e)" d="M 462.6 187.681371 
L 470.525977 187.681371 
" style="fill:none;stroke:#595959;stroke-linecap:round;stroke-width:0.875;"/>
   </g>
   <g id="line2d_134">
    <path clip-path="url(#p92920d204e)" d="M 462.6 256.698514 
L 473.676569 256.698514 
" style="fill:none;stroke:#595959;stroke-linecap:round;stroke-width:0.875;"/>
   </g>
   <g id="line2d_135">
    <path clip-path="url(#p92920d204e)" d="M 462.6 216.0576 
L 467.928325 216.0576 
" style="fill:none;stroke:#595959;stroke-linecap:round;stroke-width:0.875;"/>
   </g>
   <g id="line2d_136">
    <path clip-path="url(#p92920d204e)" d="M 462.6 259.776 
L 473.154981 259.776 
" style="fill:none;stroke:#595959;stroke-linecap:round;stroke-width:0.875;"/>
   </g>
   <g id="line2d_137">
    <path clip-path="url(#p92920d204e)" d="M 462.6 241.537371 
L 473.870434 241.537371 
" style="fill:none;stroke:#595959;stroke-linecap:round;stroke-width:0.875;"/>
   </g>
   <g id="patch_5">
    <path d="M 72 39.6 
L 518.4 39.6 
" style="fill:none;"/>
   </g>
   <g id="patch_6">
    <path d="M 518.4 356.4 
L 518.4 39.6 
" style="fill:none;"/>
   </g>
   <g id="patch_7">
    <path d="M 72 356.4 
L 518.4 356.4 
" style="fill:none;"/>
   </g>
   <g id="patch_8">
    <path d="M 72 356.4 
L 72 39.6 
" style="fill:none;"/>
   </g>
   <g id="text_15">
    <!-- violin plot -->
    <defs>
     <path d="M 21 0 
L 1.265625 51.859375 
L 10.546875 51.859375 
L 21.6875 20.796875 
Q 23.484375 15.765625 25 10.359375 
Q 26.171875 14.453125 28.265625 20.21875 
L 39.796875 51.859375 
L 48.828125 51.859375 
L 29.203125 0 
z
" id="ArialMT-76"/>
     <path d="M 6.59375 -19.875 
L 6.59375 51.859375 
L 14.59375 51.859375 
L 14.59375 45.125 
Q 17.4375 49.078125 21 51.046875 
Q 24.5625 53.03125 29.640625 53.03125 
Q 36.28125 53.03125 41.359375 49.609375 
Q 46.4375 46.1875 49.015625 39.953125 
Q 51.609375 33.734375 51.609375 26.3125 
Q 51.609375 18.359375 48.75 11.984375 
Q 45.90625 5.609375 40.453125 2.21875 
Q 35.015625 -1.171875 29 -1.171875 
Q 24.609375 -1.171875 21.109375 0.6875 
Q 17.625 2.546875 15.375 5.375 
L 15.375 -19.875 
z
M 14.546875 25.640625 
Q 14.546875 15.625 18.59375 10.84375 
Q 22.65625 6.0625 28.421875 6.0625 
Q 34.28125 6.0625 38.453125 11.015625 
Q 42.625 15.96875 42.625 26.375 
Q 42.625 36.28125 38.546875 41.203125 
Q 34.46875 46.140625 28.8125 46.140625 
Q 23.1875 46.140625 18.859375 40.890625 
Q 14.546875 35.640625 14.546875 25.640625 
" id="ArialMT-70"/>
     <path id="ArialMT-20"/>
    </defs>
    <g style="fill:#262626;" transform="translate(270.1875 34.6)scale(0.12 -0.12)">
     <use xlink:href="#ArialMT-76"/>
     <use x="50.0" xlink:href="#ArialMT-69"/>
     <use x="72.216796875" xlink:href="#ArialMT-6f"/>
     <use x="127.83203125" xlink:href="#ArialMT-6c"/>
     <use x="150.048828125" xlink:href="#ArialMT-69"/>
     <use x="172.265625" xlink:href="#ArialMT-6e"/>
     <use x="227.880859375" xlink:href="#ArialMT-20"/>
     <use x="255.6640625" xlink:href="#ArialMT-70"/>
     <use x="311.279296875" xlink:href="#ArialMT-6c"/>
     <use x="333.49609375" xlink:href="#ArialMT-6f"/>
     <use x="389.111328125" xlink:href="#ArialMT-74"/>
    </g>
   </g>
   <g id="legend_1">
    <g id="text_16">
     <!-- smoker -->
     <defs>
      <path d="M 6.640625 0 
L 6.640625 71.578125 
L 15.4375 71.578125 
L 15.4375 30.765625 
L 36.234375 51.859375 
L 47.609375 51.859375 
L 27.78125 32.625 
L 49.609375 0 
L 38.765625 0 
L 21.625 26.515625 
L 15.4375 20.5625 
L 15.4375 0 
z
" id="ArialMT-6b"/>
      <path d="M 6.59375 0 
L 6.59375 51.859375 
L 14.453125 51.859375 
L 14.453125 44.578125 
Q 16.890625 48.390625 20.9375 50.703125 
Q 25 53.03125 30.171875 53.03125 
Q 35.9375 53.03125 39.625 50.640625 
Q 43.3125 48.25 44.828125 43.953125 
Q 50.984375 53.03125 60.84375 53.03125 
Q 68.5625 53.03125 72.703125 48.75 
Q 76.859375 44.484375 76.859375 35.59375 
L 76.859375 0 
L 68.109375 0 
L 68.109375 32.671875 
Q 68.109375 37.9375 67.25 40.25 
Q 66.40625 42.578125 64.15625 43.984375 
Q 61.921875 45.40625 58.890625 45.40625 
Q 53.421875 45.40625 49.796875 41.765625 
Q 46.1875 38.140625 46.1875 30.125 
L 46.1875 0 
L 37.40625 0 
L 37.40625 33.6875 
Q 37.40625 39.546875 35.25 42.46875 
Q 33.109375 45.40625 28.21875 45.40625 
Q 24.515625 45.40625 21.359375 43.453125 
Q 18.21875 41.5 16.796875 37.734375 
Q 15.375 33.984375 15.375 26.90625 
L 15.375 0 
z
" id="ArialMT-6d"/>
      <path d="M 42.09375 16.703125 
L 51.171875 15.578125 
Q 49.03125 7.625 43.21875 3.21875 
Q 37.40625 -1.171875 28.375 -1.171875 
Q 17 -1.171875 10.328125 5.828125 
Q 3.65625 12.84375 3.65625 25.484375 
Q 3.65625 38.578125 10.390625 45.796875 
Q 17.140625 53.03125 27.875 53.03125 
Q 38.28125 53.03125 44.875 45.953125 
Q 51.46875 38.875 51.46875 26.03125 
Q 51.46875 25.25 51.421875 23.6875 
L 12.75 23.6875 
Q 13.234375 15.140625 17.578125 10.59375 
Q 21.921875 6.0625 28.421875 6.0625 
Q 33.25 6.0625 36.671875 8.59375 
Q 40.09375 11.140625 42.09375 16.703125 
M 13.234375 30.90625 
L 42.1875 30.90625 
Q 41.609375 37.453125 38.875 40.71875 
Q 34.671875 45.796875 27.984375 45.796875 
Q 21.921875 45.796875 17.796875 41.75 
Q 13.671875 37.703125 13.234375 30.90625 
" id="ArialMT-65"/>
      <path d="M 3.078125 15.484375 
L 11.765625 16.84375 
Q 12.5 11.625 15.84375 8.84375 
Q 19.1875 6.0625 25.203125 6.0625 
Q 31.25 6.0625 34.171875 8.515625 
Q 37.109375 10.984375 37.109375 14.3125 
Q 37.109375 17.28125 34.515625 19 
Q 32.71875 20.171875 25.53125 21.96875 
Q 15.875 24.421875 12.140625 26.203125 
Q 8.40625 27.984375 6.46875 31.125 
Q 4.546875 34.28125 4.546875 38.09375 
Q 4.546875 41.546875 6.125 44.5 
Q 7.71875 47.46875 10.453125 49.421875 
Q 12.5 50.921875 16.03125 51.96875 
Q 19.578125 53.03125 23.640625 53.03125 
Q 29.734375 53.03125 34.34375 51.265625 
Q 38.96875 49.515625 41.15625 46.5 
Q 43.359375 43.5 44.1875 38.484375 
L 35.59375 37.3125 
Q 35.015625 41.3125 32.203125 43.546875 
Q 29.390625 45.796875 24.265625 45.796875 
Q 18.21875 45.796875 15.625 43.796875 
Q 13.03125 41.796875 13.03125 39.109375 
Q 13.03125 37.40625 14.109375 36.03125 
Q 15.1875 34.625 17.484375 33.6875 
Q 18.796875 33.203125 25.25 31.453125 
Q 34.578125 28.953125 38.25 27.359375 
Q 41.9375 25.78125 44.03125 22.75 
Q 46.140625 19.734375 46.140625 15.234375 
Q 46.140625 10.84375 43.578125 6.953125 
Q 41.015625 3.078125 36.171875 0.953125 
Q 31.34375 -1.171875 25.25 -1.171875 
Q 15.140625 -1.171875 9.84375 3.03125 
Q 4.546875 7.234375 3.078125 15.484375 
" id="ArialMT-73"/>
     </defs>
     <g style="fill:#262626;" transform="translate(471.466171875 55.2925546875)scale(0.0935 -0.0935)">
      <use xlink:href="#ArialMT-73"/>
      <use x="50.0" xlink:href="#ArialMT-6d"/>
      <use x="133.30078125" xlink:href="#ArialMT-6f"/>
      <use x="188.916015625" xlink:href="#ArialMT-6b"/>
      <use x="238.916015625" xlink:href="#ArialMT-65"/>
      <use x="294.53125" xlink:href="#ArialMT-72"/>
     </g>
    </g>
    <g id="patch_9">
     <path d="M 464.182812 69.30868 
L 484.182812 69.30868 
L 484.182812 62.30868 
L 464.182812 62.30868 
z
" style="fill:#72b7a1;stroke:#595959;stroke-linejoin:miter;stroke-width:0.875;"/>
    </g>
    <g id="text_17">
     <!-- No -->
     <defs>
      <path d="M 7.625 0 
L 7.625 71.578125 
L 17.328125 71.578125 
L 54.9375 15.375 
L 54.9375 71.578125 
L 64.015625 71.578125 
L 64.015625 0 
L 54.296875 0 
L 16.703125 56.25 
L 16.703125 0 
z
" id="ArialMT-4e"/>
     </defs>
     <g style="fill:#262626;" transform="translate(492.1828125 69.3086796875)scale(0.1 -0.1)">
      <use xlink:href="#ArialMT-4e"/>
      <use x="72.216796875" xlink:href="#ArialMT-6f"/>
     </g>
    </g>
    <g id="patch_10">
     <path d="M 464.182812 83.453992 
L 484.182812 83.453992 
L 484.182812 76.453992 
L 464.182812 76.453992 
z
" style="fill:#e79676;stroke:#595959;stroke-linejoin:miter;stroke-width:0.875;"/>
    </g>
    <g id="text_18">
     <!-- Yes -->
     <defs>
      <path d="M 27.875 0 
L 27.875 30.328125 
L 0.296875 71.578125 
L 11.8125 71.578125 
L 25.921875 50 
Q 29.828125 43.953125 33.203125 37.890625 
Q 36.421875 43.5 41.015625 50.53125 
L 54.890625 71.578125 
L 65.921875 71.578125 
L 37.359375 30.328125 
L 37.359375 0 
z
" id="ArialMT-59"/>
     </defs>
     <g style="fill:#262626;" transform="translate(492.1828125 83.4539921875)scale(0.1 -0.1)">
      <use xlink:href="#ArialMT-59"/>
      <use x="66.55859375" xlink:href="#ArialMT-65"/>
      <use x="122.173828125" xlink:href="#ArialMT-73"/>
     </g>
    </g>
   </g>
  </g>
 </g>
 <defs>
  <clipPath id="p92920d204e">
   <rect height="316.8" width="446.4" x="72.0" y="39.6"/>
  </clipPath>
 </defs>
</svg>
