<?xml version="1.0" encoding="utf-8" standalone="no"?>
<!DOCTYPE svg PUBLIC "-//W3C//DTD SVG 1.1//EN"
  "http://www.w3.org/Graphics/SVG/1.1/DTD/svg11.dtd">
<!-- Created with matplotlib (http://matplotlib.org/) -->
<svg height="648pt" version="1.1" viewBox="0 0 504 648" width="504pt" xmlns="http://www.w3.org/2000/svg" xmlns:xlink="http://www.w3.org/1999/xlink">
 <defs>
  <style type="text/css">
*{stroke-linecap:butt;stroke-linejoin:round;stroke-miterlimit:100000;}
  </style>
 </defs>
 <g id="figure_1">
  <g id="patch_1">
   <path d="M 0 648 
L 504 648 
L 504 0 
L 0 0 
z
" style="fill:#ffffff;"/>
  </g>
  <g id="axes_1">
   <g id="patch_2">
    <path d="M 63 583.2 
L 453.6 583.2 
L 453.6 64.8 
L 63 64.8 
z
" style="fill:#ffffff;"/>
   </g>
   <g id="PolyCollection_1">
    <defs>
     <path d="M 116.7075 -152.877327 
L 116.7075 -124.836959 
L 118.285682 -124.633938 
L 119.863864 -124.435686 
L 121.442045 -124.242345 
L 123.020227 -124.05404 
L 124.598409 -123.870884 
L 126.176591 -123.692975 
L 127.754773 -123.520393 
L 129.332955 -123.353206 
L 130.911136 -123.191464 
L 132.489318 -123.035204 
L 134.0675 -122.884447 
L 135.645682 -122.739198 
L 137.223864 -122.599449 
L 138.802045 -122.465177 
L 140.380227 -122.336345 
L 141.958409 -122.212903 
L 143.536591 -122.094787 
L 145.114773 -121.981922 
L 146.692955 -121.874222 
L 148.271136 -121.771588 
L 149.849318 -121.673912 
L 151.4275 -121.581077 
L 153.005682 -121.492958 
L 154.583864 -121.409421 
L 156.162045 -121.330327 
L 157.740227 -121.255531 
L 159.318409 -121.184883 
L 160.896591 -121.11823 
L 162.474773 -121.055417 
L 164.052955 -120.996286 
L 165.631136 -120.940681 
L 167.209318 -120.888444 
L 168.7875 -120.839421 
L 170.365682 -120.79346 
L 171.943864 -120.750414 
L 173.522045 -120.710138 
L 175.100227 -120.672495 
L 176.678409 -120.637354 
L 178.256591 -120.604593 
L 179.834773 -120.574096 
L 181.412955 -120.545757 
L 182.991136 -120.519482 
L 184.569318 -120.495185 
L 186.1475 -120.472792 
L 187.725682 -120.452242 
L 189.303864 -120.433485 
L 190.882045 -120.416483 
L 192.460227 -120.401212 
L 194.038409 -120.387661 
L 195.616591 -120.375834 
L 197.194773 -120.365744 
L 198.772955 -120.357423 
L 200.351136 -120.350911 
L 201.929318 -120.346265 
L 203.5075 -120.343553 
L 205.085682 -120.342857 
L 206.663864 -120.34427 
L 208.242045 -120.347896 
L 209.820227 -120.353852 
L 211.398409 -120.362264 
L 212.976591 -120.373268 
L 214.554773 -120.38701 
L 216.132955 -120.403643 
L 217.711136 -120.423328 
L 219.289318 -120.446231 
L 220.8675 -120.472526 
L 222.445682 -120.502387 
L 224.023864 -120.535996 
L 225.602045 -120.573534 
L 227.180227 -120.615185 
L 228.758409 -120.661131 
L 230.336591 -120.711554 
L 231.914773 -120.766633 
L 233.492955 -120.826544 
L 235.071136 -120.891459 
L 236.649318 -120.961542 
L 238.2275 -121.036952 
L 239.805682 -121.11784 
L 241.383864 -121.204347 
L 242.962045 -121.296605 
L 244.540227 -121.394734 
L 246.118409 -121.498844 
L 247.696591 -121.60903 
L 249.274773 -121.725376 
L 250.852955 -121.847949 
L 252.431136 -121.976803 
L 254.009318 -122.111978 
L 255.5875 -122.253494 
L 257.165682 -122.401358 
L 258.743864 -122.555559 
L 260.322045 -122.71607 
L 261.900227 -122.882845 
L 263.478409 -123.055822 
L 265.056591 -123.234923 
L 266.634773 -123.420049 
L 268.212955 -123.611089 
L 269.791136 -123.80791 
L 271.369318 -124.010365 
L 272.9475 -124.218293 
L 272.9475 -153.495993 
L 272.9475 -153.495993 
L 271.369318 -153.70392 
L 269.791136 -153.906376 
L 268.212955 -154.103197 
L 266.634773 -154.294236 
L 265.056591 -154.479363 
L 263.478409 -154.658463 
L 261.900227 -154.831441 
L 260.322045 -154.998216 
L 258.743864 -155.158727 
L 257.165682 -155.312928 
L 255.5875 -155.460792 
L 254.009318 -155.602308 
L 252.431136 -155.737482 
L 250.852955 -155.866337 
L 249.274773 -155.98891 
L 247.696591 -156.105256 
L 246.118409 -156.215442 
L 244.540227 -156.319552 
L 242.962045 -156.417681 
L 241.383864 -156.509939 
L 239.805682 -156.596446 
L 238.2275 -156.677334 
L 236.649318 -156.752744 
L 235.071136 -156.822827 
L 233.492955 -156.887742 
L 231.914773 -156.947653 
L 230.336591 -157.002732 
L 228.758409 -157.053155 
L 227.180227 -157.099101 
L 225.602045 -157.140751 
L 224.023864 -157.17829 
L 222.445682 -157.211899 
L 220.8675 -157.24176 
L 219.289318 -157.268054 
L 217.711136 -157.290958 
L 216.132955 -157.310642 
L 214.554773 -157.327276 
L 212.976591 -157.341018 
L 211.398409 -157.352022 
L 209.820227 -157.360434 
L 208.242045 -157.36639 
L 206.663864 -157.370016 
L 205.085682 -157.371429 
L 203.5075 -157.370732 
L 201.929318 -157.368021 
L 200.351136 -157.363375 
L 198.772955 -157.356863 
L 197.194773 -157.348541 
L 195.616591 -157.338452 
L 194.038409 -157.326624 
L 192.460227 -157.313074 
L 190.882045 -157.297803 
L 189.303864 -157.280801 
L 187.725682 -157.262043 
L 186.1475 -157.241493 
L 184.569318 -157.219101 
L 182.991136 -157.194804 
L 181.412955 -157.168528 
L 179.834773 -157.14019 
L 178.256591 -157.109693 
L 176.678409 -157.076932 
L 175.100227 -157.041791 
L 173.522045 -157.004148 
L 171.943864 -156.963872 
L 170.365682 -156.920825 
L 168.7875 -156.874865 
L 167.209318 -156.825842 
L 165.631136 -156.773605 
L 164.052955 -156.718 
L 162.474773 -156.658869 
L 160.896591 -156.596055 
L 159.318409 -156.529402 
L 157.740227 -156.458754 
L 156.162045 -156.383958 
L 154.583864 -156.304864 
L 153.005682 -156.221328 
L 151.4275 -156.133208 
L 149.849318 -156.040374 
L 148.271136 -155.942698 
L 146.692955 -155.840064 
L 145.114773 -155.732363 
L 143.536591 -155.619499 
L 141.958409 -155.501383 
L 140.380227 -155.377941 
L 138.802045 -155.249109 
L 137.223864 -155.114837 
L 135.645682 -154.975088 
L 134.0675 -154.829839 
L 132.489318 -154.679081 
L 130.911136 -154.522821 
L 129.332955 -154.36108 
L 127.754773 -154.193892 
L 126.176591 -154.021311 
L 124.598409 -153.843401 
L 123.020227 -153.660246 
L 121.442045 -153.471941 
L 119.863864 -153.2786 
L 118.285682 -153.080348 
L 116.7075 -152.877327 
z
" id="m81e195749f" style="stroke:#000000;stroke-opacity:0.3;"/>
    </defs>
    <g clip-path="url(#pb67f47366f)">
     <use style="fill:#bfbf00;fill-opacity:0.3;stroke:#000000;stroke-opacity:0.3;" x="0.0" xlink:href="#m81e195749f" y="648.0"/>
    </g>
   </g>
   <g id="PolyCollection_2">
    <defs>
     <path d="M 97.1775 -226.569391 
L 97.1775 -199.259181 
L 97.917273 -199.004672 
L 98.657045 -198.753971 
L 99.396818 -198.507404 
L 100.136591 -198.265293 
L 100.876364 -198.02796 
L 101.616136 -197.795722 
L 102.355909 -197.568894 
L 103.095682 -197.347784 
L 103.835455 -197.132697 
L 104.575227 -196.923931 
L 105.315 -196.721778 
L 106.054773 -196.526523 
L 106.794545 -196.338441 
L 107.534318 -196.1578 
L 108.274091 -195.984857 
L 109.013864 -195.819858 
L 109.753636 -195.663038 
L 110.493409 -195.514619 
L 111.233182 -195.374812 
L 111.972955 -195.24381 
L 112.712727 -195.121794 
L 113.4525 -195.008928 
L 114.192273 -194.905358 
L 114.932045 -194.811216 
L 115.671818 -194.726612 
L 116.411591 -194.651639 
L 117.151364 -194.58637 
L 117.891136 -194.530857 
L 118.630909 -194.485133 
L 119.370682 -194.449207 
L 120.110455 -194.423069 
L 120.850227 -194.406685 
L 121.59 -194.4 
L 122.329773 -194.402936 
L 123.069545 -194.415392 
L 123.809318 -194.437246 
L 124.549091 -194.468353 
L 125.288864 -194.508547 
L 126.028636 -194.557639 
L 126.768409 -194.615422 
L 127.508182 -194.681666 
L 128.247955 -194.756124 
L 128.987727 -194.838528 
L 129.7275 -194.928596 
L 130.467273 -195.026026 
L 131.207045 -195.130505 
L 131.946818 -195.241703 
L 132.686591 -195.35928 
L 133.426364 -195.482884 
L 134.166136 -195.612156 
L 134.905909 -195.746726 
L 135.645682 -195.886223 
L 136.385455 -196.03027 
L 137.125227 -196.178486 
L 137.865 -196.330494 
L 138.604773 -196.485915 
L 139.344545 -196.644376 
L 140.084318 -196.805508 
L 140.824091 -196.968951 
L 141.563864 -197.13435 
L 142.303636 -197.301366 
L 143.043409 -197.469667 
L 143.783182 -197.638938 
L 144.522955 -197.808879 
L 145.262727 -197.979203 
L 146.0025 -198.149646 
L 146.742273 -198.319958 
L 147.482045 -198.489912 
L 148.221818 -198.659298 
L 148.961591 -198.827931 
L 149.701364 -198.995645 
L 150.441136 -199.162297 
L 151.180909 -199.327764 
L 151.920682 -199.491948 
L 152.660455 -199.654771 
L 153.400227 -199.816177 
L 154.14 -199.976132 
L 154.879773 -200.134622 
L 155.619545 -200.291653 
L 156.359318 -200.447248 
L 157.099091 -200.601451 
L 157.838864 -200.75432 
L 158.578636 -200.905931 
L 159.318409 -201.056373 
L 160.058182 -201.205747 
L 160.797955 -201.354166 
L 161.537727 -201.501754 
L 162.2775 -201.64864 
L 163.017273 -201.794962 
L 163.757045 -201.940862 
L 164.496818 -202.086486 
L 165.236591 -202.23198 
L 165.976364 -202.377491 
L 166.716136 -202.523164 
L 167.455909 -202.66914 
L 168.195682 -202.815557 
L 168.935455 -202.962545 
L 169.675227 -203.110228 
L 170.415 -203.258721 
L 170.415 -222.569851 
L 170.415 -222.569851 
L 169.675227 -222.718343 
L 168.935455 -222.866026 
L 168.195682 -223.013014 
L 167.455909 -223.159431 
L 166.716136 -223.305407 
L 165.976364 -223.45108 
L 165.236591 -223.596591 
L 164.496818 -223.742085 
L 163.757045 -223.887709 
L 163.017273 -224.033609 
L 162.2775 -224.179932 
L 161.537727 -224.326818 
L 160.797955 -224.474405 
L 160.058182 -224.622824 
L 159.318409 -224.772199 
L 158.578636 -224.92264 
L 157.838864 -225.074251 
L 157.099091 -225.227121 
L 156.359318 -225.381324 
L 155.619545 -225.536919 
L 154.879773 -225.693949 
L 154.14 -225.852439 
L 153.400227 -226.012394 
L 152.660455 -226.173801 
L 151.920682 -226.336624 
L 151.180909 -226.500808 
L 150.441136 -226.666275 
L 149.701364 -226.832926 
L 148.961591 -227.00064 
L 148.221818 -227.169273 
L 147.482045 -227.33866 
L 146.742273 -227.508613 
L 146.0025 -227.678925 
L 145.262727 -227.849368 
L 144.522955 -228.019693 
L 143.783182 -228.189633 
L 143.043409 -228.358904 
L 142.303636 -228.527206 
L 141.563864 -228.694221 
L 140.824091 -228.859621 
L 140.084318 -229.023063 
L 139.344545 -229.184196 
L 138.604773 -229.342657 
L 137.865 -229.498078 
L 137.125227 -229.650085 
L 136.385455 -229.798302 
L 135.645682 -229.942348 
L 134.905909 -230.081845 
L 134.166136 -230.216416 
L 133.426364 -230.345687 
L 132.686591 -230.469292 
L 131.946818 -230.586868 
L 131.207045 -230.698067 
L 130.467273 -230.802545 
L 129.7275 -230.899976 
L 128.987727 -230.990043 
L 128.247955 -231.072448 
L 127.508182 -231.146905 
L 126.768409 -231.213149 
L 126.028636 -231.270932 
L 125.288864 -231.320025 
L 124.549091 -231.360219 
L 123.809318 -231.391326 
L 123.069545 -231.41318 
L 122.329773 -231.425636 
L 121.59 -231.428571 
L 120.850227 -231.421886 
L 120.110455 -231.405502 
L 119.370682 -231.379364 
L 118.630909 -231.343439 
L 117.891136 -231.297714 
L 117.151364 -231.242202 
L 116.411591 -231.176933 
L 115.671818 -231.10196 
L 114.932045 -231.017356 
L 114.192273 -230.923213 
L 113.4525 -230.819644 
L 112.712727 -230.706777 
L 111.972955 -230.584761 
L 111.233182 -230.45376 
L 110.493409 -230.313952 
L 109.753636 -230.165534 
L 109.013864 -230.008714 
L 108.274091 -229.843715 
L 107.534318 -229.670771 
L 106.794545 -229.49013 
L 106.054773 -229.302048 
L 105.315 -229.106793 
L 104.575227 -228.90464 
L 103.835455 -228.695875 
L 103.095682 -228.480788 
L 102.355909 -228.259678 
L 101.616136 -228.032849 
L 100.876364 -227.800611 
L 100.136591 -227.563278 
L 99.396818 -227.321168 
L 98.657045 -227.074601 
L 97.917273 -226.8239 
L 97.1775 -226.569391 
z
" id="m5791613f41" style="stroke:#000000;stroke-opacity:0.3;"/>
    </defs>
    <g clip-path="url(#pb67f47366f)">
     <use style="fill:#bfbf00;fill-opacity:0.3;stroke:#000000;stroke-opacity:0.3;" x="0.0" xlink:href="#m5791613f41" y="648.0"/>
    </g>
   </g>
   <g id="PolyCollection_3">
    <defs>
     <path d="M 126.4725 -302.753051 
L 126.4725 -271.189807 
L 128.543864 -271.003592 
L 130.615227 -270.824161 
L 132.686591 -270.651635 
L 134.757955 -270.486119 
L 136.829318 -270.327693 
L 138.900682 -270.176417 
L 140.972045 -270.032329 
L 143.043409 -269.895446 
L 145.114773 -269.765761 
L 147.186136 -269.643248 
L 149.2575 -269.527856 
L 151.328864 -269.419516 
L 153.400227 -269.318137 
L 155.471591 -269.223607 
L 157.542955 -269.135796 
L 159.614318 -269.054552 
L 161.685682 -268.979709 
L 163.757045 -268.911081 
L 165.828409 -268.848467 
L 167.899773 -268.791651 
L 169.971136 -268.740402 
L 172.0425 -268.694478 
L 174.113864 -268.653625 
L 176.185227 -268.61758 
L 178.256591 -268.586069 
L 180.327955 -268.558815 
L 182.399318 -268.535533 
L 184.470682 -268.515933 
L 186.542045 -268.499727 
L 188.613409 -268.486622 
L 190.684773 -268.476329 
L 192.756136 -268.46856 
L 194.8275 -268.46303 
L 196.898864 -268.459463 
L 198.970227 -268.457588 
L 201.041591 -268.457143 
L 203.112955 -268.457876 
L 205.184318 -268.459547 
L 207.255682 -268.46193 
L 209.327045 -268.46481 
L 211.398409 -268.467992 
L 213.469773 -268.471292 
L 215.541136 -268.474549 
L 217.6125 -268.477616 
L 219.683864 -268.480368 
L 221.755227 -268.482699 
L 223.826591 -268.484522 
L 225.897955 -268.485774 
L 227.969318 -268.48641 
L 230.040682 -268.48641 
L 232.112045 -268.485774 
L 234.183409 -268.484522 
L 236.254773 -268.482699 
L 238.326136 -268.480368 
L 240.3975 -268.477616 
L 242.468864 -268.474549 
L 244.540227 -268.471292 
L 246.611591 -268.467992 
L 248.682955 -268.46481 
L 250.754318 -268.46193 
L 252.825682 -268.459547 
L 254.897045 -268.457876 
L 256.968409 -268.457143 
L 259.039773 -268.457588 
L 261.111136 -268.459463 
L 263.1825 -268.46303 
L 265.253864 -268.46856 
L 267.325227 -268.476329 
L 269.396591 -268.486622 
L 271.467955 -268.499727 
L 273.539318 -268.515933 
L 275.610682 -268.535533 
L 277.682045 -268.558815 
L 279.753409 -268.586069 
L 281.824773 -268.61758 
L 283.896136 -268.653625 
L 285.9675 -268.694478 
L 288.038864 -268.740402 
L 290.110227 -268.791651 
L 292.181591 -268.848467 
L 294.252955 -268.911081 
L 296.324318 -268.979709 
L 298.395682 -269.054552 
L 300.467045 -269.135796 
L 302.538409 -269.223607 
L 304.609773 -269.318137 
L 306.681136 -269.419516 
L 308.7525 -269.527856 
L 310.823864 -269.643248 
L 312.895227 -269.765761 
L 314.966591 -269.895446 
L 317.037955 -270.032329 
L 319.109318 -270.176417 
L 321.180682 -270.327693 
L 323.252045 -270.486119 
L 325.323409 -270.651635 
L 327.394773 -270.824161 
L 329.466136 -271.003592 
L 331.5375 -271.189807 
L 331.5375 -302.753051 
L 331.5375 -302.753051 
L 329.466136 -302.939265 
L 327.394773 -303.118696 
L 325.323409 -303.291222 
L 323.252045 -303.456738 
L 321.180682 -303.615165 
L 319.109318 -303.76644 
L 317.037955 -303.910528 
L 314.966591 -304.047411 
L 312.895227 -304.177096 
L 310.823864 -304.29961 
L 308.7525 -304.415001 
L 306.681136 -304.523341 
L 304.609773 -304.62472 
L 302.538409 -304.71925 
L 300.467045 -304.807062 
L 298.395682 -304.888305 
L 296.324318 -304.963148 
L 294.252955 -305.031776 
L 292.181591 -305.09439 
L 290.110227 -305.151207 
L 288.038864 -305.202455 
L 285.9675 -305.248379 
L 283.896136 -305.289232 
L 281.824773 -305.325277 
L 279.753409 -305.356788 
L 277.682045 -305.384042 
L 275.610682 -305.407324 
L 273.539318 -305.426924 
L 271.467955 -305.44313 
L 269.396591 -305.456235 
L 267.325227 -305.466528 
L 265.253864 -305.474298 
L 263.1825 -305.479827 
L 261.111136 -305.483394 
L 259.039773 -305.485269 
L 256.968409 -305.485714 
L 254.897045 -305.484981 
L 252.825682 -305.48331 
L 250.754318 -305.480927 
L 248.682955 -305.478047 
L 246.611591 -305.474866 
L 244.540227 -305.471565 
L 242.468864 -305.468308 
L 240.3975 -305.465241 
L 238.326136 -305.462489 
L 236.254773 -305.460159 
L 234.183409 -305.458335 
L 232.112045 -305.457083 
L 230.040682 -305.456447 
L 227.969318 -305.456447 
L 225.897955 -305.457083 
L 223.826591 -305.458335 
L 221.755227 -305.460159 
L 219.683864 -305.462489 
L 217.6125 -305.465241 
L 215.541136 -305.468308 
L 213.469773 -305.471565 
L 211.398409 -305.474866 
L 209.327045 -305.478047 
L 207.255682 -305.480927 
L 205.184318 -305.48331 
L 203.112955 -305.484981 
L 201.041591 -305.485714 
L 198.970227 -305.485269 
L 196.898864 -305.483394 
L 194.8275 -305.479827 
L 192.756136 -305.474298 
L 190.684773 -305.466528 
L 188.613409 -305.456235 
L 186.542045 -305.44313 
L 184.470682 -305.426924 
L 182.399318 -305.407324 
L 180.327955 -305.384042 
L 178.256591 -305.356788 
L 176.185227 -305.325277 
L 174.113864 -305.289232 
L 172.0425 -305.248379 
L 169.971136 -305.202455 
L 167.899773 -305.151207 
L 165.828409 -305.09439 
L 163.757045 -305.031776 
L 161.685682 -304.963148 
L 159.614318 -304.888305 
L 157.542955 -304.807062 
L 155.471591 -304.71925 
L 153.400227 -304.62472 
L 151.328864 -304.523341 
L 149.2575 -304.415001 
L 147.186136 -304.29961 
L 145.114773 -304.177096 
L 143.043409 -304.047411 
L 140.972045 -303.910528 
L 138.900682 -303.76644 
L 136.829318 -303.615165 
L 134.757955 -303.456738 
L 132.686591 -303.291222 
L 130.615227 -303.118696 
L 128.543864 -302.939265 
L 126.4725 -302.753051 
z
" id="mfa2513ed7a" style="stroke:#000000;stroke-opacity:0.3;"/>
    </defs>
    <g clip-path="url(#pb67f47366f)">
     <use style="fill:#bfbf00;fill-opacity:0.3;stroke:#000000;stroke-opacity:0.3;" x="0.0" xlink:href="#mfa2513ed7a" y="648.0"/>
    </g>
   </g>
   <g id="PolyCollection_4">
    <defs>
     <path d="M 131.355 -373.726396 
L 131.355 -348.330747 
L 134.166136 -348.119761 
L 136.977273 -347.91169 
L 139.788409 -347.706653 
L 142.599545 -347.504765 
L 145.410682 -347.306128 
L 148.221818 -347.110842 
L 151.032955 -346.918996 
L 153.844091 -346.730674 
L 156.655227 -346.545951 
L 159.466364 -346.3649 
L 162.2775 -346.187583 
L 165.088636 -346.014059 
L 167.899773 -345.844381 
L 170.710909 -345.678597 
L 173.522045 -345.51675 
L 176.333182 -345.358879 
L 179.144318 -345.20502 
L 181.955455 -345.055205 
L 184.766591 -344.909462 
L 187.577727 -344.767817 
L 190.388864 -344.630294 
L 193.2 -344.496915 
L 196.011136 -344.367701 
L 198.822273 -344.242669 
L 201.633409 -344.12184 
L 204.444545 -344.005228 
L 207.255682 -343.892852 
L 210.066818 -343.784728 
L 212.877955 -343.680872 
L 215.689091 -343.581302 
L 218.500227 -343.486033 
L 221.311364 -343.395083 
L 224.1225 -343.308471 
L 226.933636 -343.226213 
L 229.744773 -343.14833 
L 232.555909 -343.07484 
L 235.367045 -343.005764 
L 238.178182 -342.941122 
L 240.989318 -342.880935 
L 243.800455 -342.825226 
L 246.611591 -342.774017 
L 249.422727 -342.72733 
L 252.233864 -342.685188 
L 255.045 -342.647615 
L 257.856136 -342.614634 
L 260.667273 -342.586268 
L 263.478409 -342.56254 
L 266.289545 -342.543474 
L 269.100682 -342.529094 
L 271.911818 -342.51942 
L 274.722955 -342.514477 
L 277.534091 -342.514286 
L 280.345227 -342.518867 
L 283.156364 -342.528243 
L 285.9675 -342.542432 
L 288.778636 -342.561454 
L 291.589773 -342.585328 
L 294.400909 -342.614071 
L 297.212045 -342.647699 
L 300.023182 -342.686229 
L 302.834318 -342.729674 
L 305.645455 -342.778049 
L 308.456591 -342.831365 
L 311.267727 -342.889635 
L 314.078864 -342.952867 
L 316.89 -343.02107 
L 319.701136 -343.094251 
L 322.512273 -343.172416 
L 325.323409 -343.255568 
L 328.134545 -343.34371 
L 330.945682 -343.43684 
L 333.756818 -343.534958 
L 336.567955 -343.638058 
L 339.379091 -343.746135 
L 342.190227 -343.859178 
L 345.001364 -343.977175 
L 347.8125 -344.100111 
L 350.623636 -344.227966 
L 353.434773 -344.36072 
L 356.245909 -344.498345 
L 359.057045 -344.64081 
L 361.868182 -344.788082 
L 364.679318 -344.940121 
L 367.490455 -345.096881 
L 370.301591 -345.258314 
L 373.112727 -345.424362 
L 375.923864 -345.594966 
L 378.735 -345.770056 
L 381.546136 -345.949559 
L 384.357273 -346.133394 
L 387.168409 -346.321472 
L 389.979545 -346.513699 
L 392.790682 -346.709971 
L 395.601818 -346.910179 
L 398.412955 -347.114204 
L 401.224091 -347.321921 
L 404.035227 -347.533196 
L 406.846364 -347.747887 
L 409.6575 -347.965845 
L 409.6575 -374.091298 
L 409.6575 -374.091298 
L 406.846364 -374.309256 
L 404.035227 -374.523947 
L 401.224091 -374.735222 
L 398.412955 -374.942938 
L 395.601818 -375.146964 
L 392.790682 -375.347172 
L 389.979545 -375.543444 
L 387.168409 -375.735671 
L 384.357273 -375.923749 
L 381.546136 -376.107584 
L 378.735 -376.287087 
L 375.923864 -376.462177 
L 373.112727 -376.632781 
L 370.301591 -376.798829 
L 367.490455 -376.960262 
L 364.679318 -377.117022 
L 361.868182 -377.26906 
L 359.057045 -377.416332 
L 356.245909 -377.558798 
L 353.434773 -377.696423 
L 350.623636 -377.829176 
L 347.8125 -377.957032 
L 345.001364 -378.079968 
L 342.190227 -378.197965 
L 339.379091 -378.311008 
L 336.567955 -378.419084 
L 333.756818 -378.522185 
L 330.945682 -378.620303 
L 328.134545 -378.713433 
L 325.323409 -378.801574 
L 322.512273 -378.884727 
L 319.701136 -378.962891 
L 316.89 -379.036073 
L 314.078864 -379.104276 
L 311.267727 -379.167508 
L 308.456591 -379.225777 
L 305.645455 -379.279094 
L 302.834318 -379.327469 
L 300.023182 -379.370914 
L 297.212045 -379.409444 
L 294.400909 -379.443072 
L 291.589773 -379.471815 
L 288.778636 -379.495689 
L 285.9675 -379.514711 
L 283.156364 -379.5289 
L 280.345227 -379.538275 
L 277.534091 -379.542857 
L 274.722955 -379.542666 
L 271.911818 -379.537722 
L 269.100682 -379.528049 
L 266.289545 -379.513668 
L 263.478409 -379.494603 
L 260.667273 -379.470875 
L 257.856136 -379.442509 
L 255.045 -379.409528 
L 252.233864 -379.371954 
L 249.422727 -379.329813 
L 246.611591 -379.283126 
L 243.800455 -379.231916 
L 240.989318 -379.176207 
L 238.178182 -379.116021 
L 235.367045 -379.051379 
L 232.555909 -378.982303 
L 229.744773 -378.908813 
L 226.933636 -378.83093 
L 224.1225 -378.748672 
L 221.311364 -378.662059 
L 218.500227 -378.57111 
L 215.689091 -378.475841 
L 212.877955 -378.37627 
L 210.066818 -378.272415 
L 207.255682 -378.164291 
L 204.444545 -378.051915 
L 201.633409 -377.935303 
L 198.822273 -377.814473 
L 196.011136 -377.689442 
L 193.2 -377.560228 
L 190.388864 -377.426849 
L 187.577727 -377.289326 
L 184.766591 -377.147681 
L 181.955455 -377.001938 
L 179.144318 -376.852122 
L 176.333182 -376.698263 
L 173.522045 -376.540393 
L 170.710909 -376.378546 
L 167.899773 -376.212762 
L 165.088636 -376.043084 
L 162.2775 -375.86956 
L 159.466364 -375.692243 
L 156.655227 -375.511191 
L 153.844091 -375.326469 
L 151.032955 -375.138147 
L 148.221818 -374.946301 
L 145.410682 -374.751015 
L 142.599545 -374.552378 
L 139.788409 -374.35049 
L 136.977273 -374.145453 
L 134.166136 -373.937382 
L 131.355 -373.726396 
z
" id="meedface36e" style="stroke:#000000;stroke-opacity:0.3;"/>
    </defs>
    <g clip-path="url(#pb67f47366f)">
     <use style="fill:#bfbf00;fill-opacity:0.3;stroke:#000000;stroke-opacity:0.3;" x="0.0" xlink:href="#meedface36e" y="648.0"/>
    </g>
   </g>
   <g id="PolyCollection_5">
    <defs>
     <path d="M 121.59 -451.366572 
L 121.59 -418.804857 
L 123.069545 -418.666253 
L 124.549091 -418.534307 
L 126.028636 -418.409067 
L 127.508182 -418.290562 
L 128.987727 -418.178803 
L 130.467273 -418.073784 
L 131.946818 -417.97548 
L 133.426364 -417.883847 
L 134.905909 -417.798823 
L 136.385455 -417.720328 
L 137.865 -417.648265 
L 139.344545 -417.582518 
L 140.824091 -417.522955 
L 142.303636 -417.469426 
L 143.783182 -417.421767 
L 145.262727 -417.379795 
L 146.742273 -417.343315 
L 148.221818 -417.312117 
L 149.701364 -417.285977 
L 151.180909 -417.264658 
L 152.660455 -417.247913 
L 154.14 -417.235484 
L 155.619545 -417.227102 
L 157.099091 -417.22249 
L 158.578636 -417.221363 
L 160.058182 -417.223432 
L 161.537727 -417.228401 
L 163.017273 -417.23597 
L 164.496818 -417.245836 
L 165.976364 -417.257696 
L 167.455909 -417.271247 
L 168.935455 -417.286185 
L 170.415 -417.30221 
L 171.894545 -417.319027 
L 173.374091 -417.336343 
L 174.853636 -417.353874 
L 176.333182 -417.371342 
L 177.812727 -417.388479 
L 179.292273 -417.405025 
L 180.771818 -417.420734 
L 182.251364 -417.43537 
L 183.730909 -417.44871 
L 185.210455 -417.460547 
L 186.69 -417.47069 
L 188.169545 -417.47896 
L 189.649091 -417.4852 
L 191.128636 -417.489267 
L 192.608182 -417.491038 
L 194.087727 -417.49041 
L 195.567273 -417.487298 
L 197.046818 -417.481637 
L 198.526364 -417.473384 
L 200.005909 -417.462514 
L 201.485455 -417.449026 
L 202.965 -417.432938 
L 204.444545 -417.414288 
L 205.924091 -417.393137 
L 207.403636 -417.369565 
L 208.883182 -417.343674 
L 210.362727 -417.315584 
L 211.842273 -417.285435 
L 213.321818 -417.253387 
L 214.801364 -417.219619 
L 216.280909 -417.184324 
L 217.760455 -417.147716 
L 219.24 -417.110023 
L 220.719545 -417.071489 
L 222.199091 -417.03237 
L 223.678636 -416.992937 
L 225.158182 -416.953472 
L 226.637727 -416.914269 
L 228.117273 -416.87563 
L 229.596818 -416.837866 
L 231.076364 -416.801294 
L 232.555909 -416.766238 
L 234.035455 -416.733025 
L 235.515 -416.701986 
L 236.994545 -416.673452 
L 238.474091 -416.647756 
L 239.953636 -416.625229 
L 241.433182 -416.606197 
L 242.912727 -416.590986 
L 244.392273 -416.579915 
L 245.871818 -416.573294 
L 247.351364 -416.571429 
L 248.830909 -416.574613 
L 250.310455 -416.583132 
L 251.79 -416.597257 
L 253.269545 -416.617249 
L 254.749091 -416.643355 
L 256.228636 -416.675804 
L 257.708182 -416.714814 
L 259.187727 -416.760583 
L 260.667273 -416.813293 
L 262.146818 -416.873108 
L 263.626364 -416.940173 
L 265.105909 -417.014613 
L 266.585455 -417.096535 
L 268.065 -417.186024 
L 268.065 -452.985405 
L 268.065 -452.985405 
L 266.585455 -453.074894 
L 265.105909 -453.156816 
L 263.626364 -453.231256 
L 262.146818 -453.29832 
L 260.667273 -453.358135 
L 259.187727 -453.410845 
L 257.708182 -453.456614 
L 256.228636 -453.495624 
L 254.749091 -453.528074 
L 253.269545 -453.554179 
L 251.79 -453.574171 
L 250.310455 -453.588297 
L 248.830909 -453.596816 
L 247.351364 -453.6 
L 245.871818 -453.598135 
L 244.392273 -453.591514 
L 242.912727 -453.580442 
L 241.433182 -453.565231 
L 239.953636 -453.5462 
L 238.474091 -453.523672 
L 236.994545 -453.497976 
L 235.515 -453.469443 
L 234.035455 -453.438403 
L 232.555909 -453.40519 
L 231.076364 -453.370134 
L 229.596818 -453.333562 
L 228.117273 -453.295798 
L 226.637727 -453.257159 
L 225.158182 -453.217956 
L 223.678636 -453.178492 
L 222.199091 -453.139059 
L 220.719545 -453.09994 
L 219.24 -453.061405 
L 217.760455 -453.023712 
L 216.280909 -452.987104 
L 214.801364 -452.95181 
L 213.321818 -452.918041 
L 211.842273 -452.885994 
L 210.362727 -452.855845 
L 208.883182 -452.827755 
L 207.403636 -452.801863 
L 205.924091 -452.778292 
L 204.444545 -452.757141 
L 202.965 -452.738491 
L 201.485455 -452.722402 
L 200.005909 -452.708914 
L 198.526364 -452.698045 
L 197.046818 -452.689791 
L 195.567273 -452.684131 
L 194.087727 -452.681019 
L 192.608182 -452.680391 
L 191.128636 -452.682162 
L 189.649091 -452.686229 
L 188.169545 -452.692469 
L 186.69 -452.700739 
L 185.210455 -452.710881 
L 183.730909 -452.722719 
L 182.251364 -452.736059 
L 180.771818 -452.750695 
L 179.292273 -452.766403 
L 177.812727 -452.78295 
L 176.333182 -452.800086 
L 174.853636 -452.817555 
L 173.374091 -452.835085 
L 171.894545 -452.852402 
L 170.415 -452.869218 
L 168.935455 -452.885244 
L 167.455909 -452.900182 
L 165.976364 -452.913732 
L 164.496818 -452.925593 
L 163.017273 -452.935459 
L 161.537727 -452.943027 
L 160.058182 -452.947996 
L 158.578636 -452.950065 
L 157.099091 -452.948939 
L 155.619545 -452.944327 
L 154.14 -452.935944 
L 152.660455 -452.923515 
L 151.180909 -452.90677 
L 149.701364 -452.885452 
L 148.221818 -452.859312 
L 146.742273 -452.828113 
L 145.262727 -452.791634 
L 143.783182 -452.749662 
L 142.303636 -452.702002 
L 140.824091 -452.648473 
L 139.344545 -452.58891 
L 137.865 -452.523163 
L 136.385455 -452.4511 
L 134.905909 -452.372606 
L 133.426364 -452.287582 
L 131.946818 -452.195949 
L 130.467273 -452.097644 
L 128.987727 -451.992626 
L 127.508182 -451.880867 
L 126.028636 -451.762362 
L 124.549091 -451.637121 
L 123.069545 -451.505176 
L 121.59 -451.366572 
z
" id="m9193fb5251" style="stroke:#000000;stroke-opacity:0.3;"/>
    </defs>
    <g clip-path="url(#pb67f47366f)">
     <use style="fill:#bfbf00;fill-opacity:0.3;stroke:#000000;stroke-opacity:0.3;" x="0.0" xlink:href="#m9193fb5251" y="648.0"/>
    </g>
   </g>
   <g id="PolyCollection_6">
    <defs>
     <path d="M 126.4725 -519.862781 
L 126.4725 -498.422933 
L 128.395909 -498.286416 
L 130.319318 -498.152053 
L 132.242727 -498.019843 
L 134.166136 -497.889782 
L 136.089545 -497.761856 
L 138.012955 -497.636042 
L 139.936364 -497.512312 
L 141.859773 -497.39063 
L 143.783182 -497.270954 
L 145.706591 -497.153232 
L 147.63 -497.03741 
L 149.553409 -496.923425 
L 151.476818 -496.811209 
L 153.400227 -496.70069 
L 155.323636 -496.59179 
L 157.247045 -496.484425 
L 159.170455 -496.378511 
L 161.093864 -496.273956 
L 163.017273 -496.170669 
L 164.940682 -496.068552 
L 166.864091 -495.96751 
L 168.7875 -495.867442 
L 170.710909 -495.768249 
L 172.634318 -495.66983 
L 174.557727 -495.572084 
L 176.481136 -495.474912 
L 178.404545 -495.378215 
L 180.327955 -495.281896 
L 182.251364 -495.185861 
L 184.174773 -495.090017 
L 186.098182 -494.994277 
L 188.021591 -494.898556 
L 189.945 -494.802774 
L 191.868409 -494.706858 
L 193.791818 -494.610737 
L 195.715227 -494.514349 
L 197.638636 -494.417637 
L 199.562045 -494.320552 
L 201.485455 -494.223053 
L 203.408864 -494.125106 
L 205.332273 -494.026684 
L 207.255682 -493.927773 
L 209.179091 -493.828365 
L 211.1025 -493.728461 
L 213.025909 -493.628076 
L 214.949318 -493.52723 
L 216.872727 -493.425957 
L 218.796136 -493.324302 
L 220.719545 -493.222318 
L 222.642955 -493.120071 
L 224.566364 -493.017639 
L 226.489773 -492.91511 
L 228.413182 -492.812583 
L 230.336591 -492.710169 
L 232.26 -492.607992 
L 234.183409 -492.506184 
L 236.106818 -492.40489 
L 238.030227 -492.304265 
L 239.953636 -492.204477 
L 241.877045 -492.105701 
L 243.800455 -492.008123 
L 245.723864 -491.911941 
L 247.647273 -491.81736 
L 249.570682 -491.724593 
L 251.494091 -491.633864 
L 253.4175 -491.545402 
L 255.340909 -491.459444 
L 257.264318 -491.376233 
L 259.187727 -491.296018 
L 261.111136 -491.219053 
L 263.034545 -491.145595 
L 264.957955 -491.075904 
L 266.881364 -491.010245 
L 268.804773 -490.94888 
L 270.728182 -490.892075 
L 272.651591 -490.840094 
L 274.575 -490.793198 
L 276.498409 -490.751648 
L 278.421818 -490.7157 
L 280.345227 -490.685606 
L 282.268636 -490.661611 
L 284.192045 -490.643954 
L 286.115455 -490.632867 
L 288.038864 -490.628571 
L 289.962273 -490.631281 
L 291.885682 -490.641198 
L 293.809091 -490.658511 
L 295.7325 -490.683399 
L 297.655909 -490.716026 
L 299.579318 -490.756541 
L 301.502727 -490.805078 
L 303.426136 -490.861757 
L 305.349545 -490.926679 
L 307.272955 -490.999928 
L 309.196364 -491.081572 
L 311.119773 -491.171659 
L 313.043182 -491.270219 
L 314.966591 -491.377262 
L 316.89 -491.49278 
L 316.89 -526.792934 
L 316.89 -526.792934 
L 314.966591 -526.908452 
L 313.043182 -527.015495 
L 311.119773 -527.114055 
L 309.196364 -527.204142 
L 307.272955 -527.285786 
L 305.349545 -527.359036 
L 303.426136 -527.423957 
L 301.502727 -527.480636 
L 299.579318 -527.529174 
L 297.655909 -527.569689 
L 295.7325 -527.602315 
L 293.809091 -527.627203 
L 291.885682 -527.644517 
L 289.962273 -527.654433 
L 288.038864 -527.657143 
L 286.115455 -527.652848 
L 284.192045 -527.64176 
L 282.268636 -527.624104 
L 280.345227 -527.600108 
L 278.421818 -527.570014 
L 276.498409 -527.534066 
L 274.575 -527.492516 
L 272.651591 -527.445621 
L 270.728182 -527.393639 
L 268.804773 -527.336834 
L 266.881364 -527.275469 
L 264.957955 -527.20981 
L 263.034545 -527.14012 
L 261.111136 -527.066662 
L 259.187727 -526.989696 
L 257.264318 -526.909482 
L 255.340909 -526.826271 
L 253.4175 -526.740313 
L 251.494091 -526.65185 
L 249.570682 -526.561121 
L 247.647273 -526.468354 
L 245.723864 -526.373773 
L 243.800455 -526.277591 
L 241.877045 -526.180014 
L 239.953636 -526.081237 
L 238.030227 -525.981449 
L 236.106818 -525.880824 
L 234.183409 -525.779531 
L 232.26 -525.677722 
L 230.336591 -525.575545 
L 228.413182 -525.473132 
L 226.489773 -525.370605 
L 224.566364 -525.268075 
L 222.642955 -525.165643 
L 220.719545 -525.063397 
L 218.796136 -524.961413 
L 216.872727 -524.859757 
L 214.949318 -524.758484 
L 213.025909 -524.657639 
L 211.1025 -524.557253 
L 209.179091 -524.45735 
L 207.255682 -524.357941 
L 205.332273 -524.25903 
L 203.408864 -524.160609 
L 201.485455 -524.062661 
L 199.562045 -523.965162 
L 197.638636 -523.868077 
L 195.715227 -523.771366 
L 193.791818 -523.674977 
L 191.868409 -523.578857 
L 189.945 -523.48294 
L 188.021591 -523.387159 
L 186.098182 -523.291438 
L 184.174773 -523.195697 
L 182.251364 -523.099854 
L 180.327955 -523.003818 
L 178.404545 -522.907499 
L 176.481136 -522.810802 
L 174.557727 -522.71363 
L 172.634318 -522.615884 
L 170.710909 -522.517465 
L 168.7875 -522.418272 
L 166.864091 -522.318204 
L 164.940682 -522.217162 
L 163.017273 -522.115046 
L 161.093864 -522.011758 
L 159.170455 -521.907204 
L 157.247045 -521.801289 
L 155.323636 -521.693925 
L 153.400227 -521.585024 
L 151.476818 -521.474505 
L 149.553409 -521.362289 
L 147.63 -521.248304 
L 145.706591 -521.132482 
L 143.783182 -521.014761 
L 141.859773 -520.895084 
L 139.936364 -520.773402 
L 138.012955 -520.649672 
L 136.089545 -520.523859 
L 134.166136 -520.395932 
L 132.242727 -520.265871 
L 130.319318 -520.133662 
L 128.395909 -519.999298 
L 126.4725 -519.862781 
z
" id="me8a5771e97" style="stroke:#000000;stroke-opacity:0.3;"/>
    </defs>
    <g clip-path="url(#pb67f47366f)">
     <use style="fill:#bfbf00;fill-opacity:0.3;stroke:#000000;stroke-opacity:0.3;" x="0.0" xlink:href="#me8a5771e97" y="648.0"/>
    </g>
   </g>
   <g id="LineCollection_1">
    <path clip-path="url(#pb67f47366f)" d="M 196.048125 518.4 
L 196.048125 499.885714 
" style="fill:none;stroke:#ff0000;"/>
    <path clip-path="url(#pb67f47366f)" d="M 130.134375 444.342857 
L 130.134375 425.828571 
" style="fill:none;stroke:#ff0000;"/>
    <path clip-path="url(#pb67f47366f)" d="M 229.005 370.285714 
L 229.005 351.771429 
" style="fill:none;stroke:#ff0000;"/>
    <path clip-path="url(#pb67f47366f)" d="M 271.726875 296.228571 
L 271.726875 277.714286 
" style="fill:none;stroke:#ff0000;"/>
    <path clip-path="url(#pb67f47366f)" d="M 200.930625 222.171429 
L 200.930625 203.657143 
" style="fill:none;stroke:#ff0000;"/>
    <path clip-path="url(#pb67f47366f)" d="M 244.873125 148.114286 
L 244.873125 129.6 
" style="fill:none;stroke:#ff0000;"/>
   </g>
   <g id="LineCollection_2">
    <path clip-path="url(#pb67f47366f)" d="M 272.9475 518.4 
L 272.9475 499.885714 
" style="fill:none;stroke:#ff0000;"/>
    <path clip-path="url(#pb67f47366f)" d="M 170.415 444.342857 
L 170.415 425.828571 
" style="fill:none;stroke:#ff0000;"/>
    <path clip-path="url(#pb67f47366f)" d="M 331.5375 370.285714 
L 331.5375 351.771429 
" style="fill:none;stroke:#ff0000;"/>
    <path clip-path="url(#pb67f47366f)" d="M 409.6575 296.228571 
L 409.6575 277.714286 
" style="fill:none;stroke:#ff0000;"/>
    <path clip-path="url(#pb67f47366f)" d="M 268.065 222.171429 
L 268.065 203.657143 
" style="fill:none;stroke:#ff0000;"/>
    <path clip-path="url(#pb67f47366f)" d="M 316.89 148.114286 
L 316.89 129.6 
" style="fill:none;stroke:#ff0000;"/>
   </g>
   <g id="LineCollection_3">
    <path clip-path="url(#pb67f47366f)" d="M 116.7075 518.4 
L 116.7075 499.885714 
" style="fill:none;stroke:#ff0000;"/>
    <path clip-path="url(#pb67f47366f)" d="M 97.1775 444.342857 
L 97.1775 425.828571 
" style="fill:none;stroke:#ff0000;"/>
    <path clip-path="url(#pb67f47366f)" d="M 126.4725 370.285714 
L 126.4725 351.771429 
" style="fill:none;stroke:#ff0000;"/>
    <path clip-path="url(#pb67f47366f)" d="M 131.355 296.228571 
L 131.355 277.714286 
" style="fill:none;stroke:#ff0000;"/>
    <path clip-path="url(#pb67f47366f)" d="M 121.59 222.171429 
L 121.59 203.657143 
" style="fill:none;stroke:#ff0000;"/>
    <path clip-path="url(#pb67f47366f)" d="M 126.4725 148.114286 
L 126.4725 129.6 
" style="fill:none;stroke:#ff0000;"/>
   </g>
   <g id="LineCollection_4">
    <path clip-path="url(#pb67f47366f)" d="M 116.7075 509.142857 
L 272.9475 509.142857 
" style="fill:none;stroke:#ff0000;"/>
    <path clip-path="url(#pb67f47366f)" d="M 97.1775 435.085714 
L 170.415 435.085714 
" style="fill:none;stroke:#ff0000;"/>
    <path clip-path="url(#pb67f47366f)" d="M 126.4725 361.028571 
L 331.5375 361.028571 
" style="fill:none;stroke:#ff0000;"/>
    <path clip-path="url(#pb67f47366f)" d="M 131.355 286.971429 
L 409.6575 286.971429 
" style="fill:none;stroke:#ff0000;"/>
    <path clip-path="url(#pb67f47366f)" d="M 121.59 212.914286 
L 268.065 212.914286 
" style="fill:none;stroke:#ff0000;"/>
    <path clip-path="url(#pb67f47366f)" d="M 126.4725 138.857143 
L 316.89 138.857143 
" style="fill:none;stroke:#ff0000;"/>
   </g>
   <g id="patch_3">
    <path d="M 63 64.8 
L 453.6 64.8 
" style="fill:none;stroke:#000000;stroke-linecap:square;stroke-linejoin:miter;"/>
   </g>
   <g id="patch_4">
    <path d="M 453.6 583.2 
L 453.6 64.8 
" style="fill:none;stroke:#000000;stroke-linecap:square;stroke-linejoin:miter;"/>
   </g>
   <g id="patch_5">
    <path d="M 63 583.2 
L 453.6 583.2 
" style="fill:none;stroke:#000000;stroke-linecap:square;stroke-linejoin:miter;"/>
   </g>
   <g id="patch_6">
    <path d="M 63 583.2 
L 63 64.8 
" style="fill:none;stroke:#000000;stroke-linecap:square;stroke-linejoin:miter;"/>
   </g>
   <g id="matplotlib.axis_1">
    <g id="xtick_1">
     <g id="line2d_1">
      <path clip-path="url(#pb67f47366f)" d="M 63 583.2 
L 63 64.8 
" style="fill:none;stroke:#000000;stroke-dasharray:1.000000,3.000000;stroke-dashoffset:0.0;stroke-width:0.5;"/>
     </g>
     <g id="line2d_2">
      <defs>
       <path d="M 0 0 
L 0 -4 
" id="mfaff112fd8" style="stroke:#000000;stroke-width:0.5;"/>
      </defs>
      <g>
       <use style="stroke:#000000;stroke-width:0.5;" x="63.0" xlink:href="#mfaff112fd8" y="583.2"/>
      </g>
     </g>
     <g id="line2d_3">
      <defs>
       <path d="M 0 0 
L 0 4 
" id="m272eb1c5d4" style="stroke:#000000;stroke-width:0.5;"/>
      </defs>
      <g>
       <use style="stroke:#000000;stroke-width:0.5;" x="63.0" xlink:href="#m272eb1c5d4" y="64.8"/>
      </g>
     </g>
     <g id="text_1">
      <!-- 0 -->
      <defs>
       <path d="M 31.78125 66.40625 
Q 24.171875 66.40625 20.328125 58.90625 
Q 16.5 51.421875 16.5 36.375 
Q 16.5 21.390625 20.328125 13.890625 
Q 24.171875 6.390625 31.78125 6.390625 
Q 39.453125 6.390625 43.28125 13.890625 
Q 47.125 21.390625 47.125 36.375 
Q 47.125 51.421875 43.28125 58.90625 
Q 39.453125 66.40625 31.78125 66.40625 
M 31.78125 74.21875 
Q 44.046875 74.21875 50.515625 64.515625 
Q 56.984375 54.828125 56.984375 36.375 
Q 56.984375 17.96875 50.515625 8.265625 
Q 44.046875 -1.421875 31.78125 -1.421875 
Q 19.53125 -1.421875 13.0625 8.265625 
Q 6.59375 17.96875 6.59375 36.375 
Q 6.59375 54.828125 13.0625 64.515625 
Q 19.53125 74.21875 31.78125 74.21875 
" id="BitstreamVeraSans-Roman-30"/>
      </defs>
      <g transform="translate(59.1825 596.318125)scale(0.12 -0.12)">
       <use xlink:href="#BitstreamVeraSans-Roman-30"/>
      </g>
     </g>
    </g>
    <g id="xtick_2">
     <g id="line2d_4">
      <path clip-path="url(#pb67f47366f)" d="M 111.825 583.2 
L 111.825 64.8 
" style="fill:none;stroke:#000000;stroke-dasharray:1.000000,3.000000;stroke-dashoffset:0.0;stroke-width:0.5;"/>
     </g>
     <g id="line2d_5">
      <g>
       <use style="stroke:#000000;stroke-width:0.5;" x="111.825" xlink:href="#mfaff112fd8" y="583.2"/>
      </g>
     </g>
     <g id="line2d_6">
      <g>
       <use style="stroke:#000000;stroke-width:0.5;" x="111.825" xlink:href="#m272eb1c5d4" y="64.8"/>
      </g>
     </g>
     <g id="text_2">
      <!-- 10 -->
      <defs>
       <path d="M 12.40625 8.296875 
L 28.515625 8.296875 
L 28.515625 63.921875 
L 10.984375 60.40625 
L 10.984375 69.390625 
L 28.421875 72.90625 
L 38.28125 72.90625 
L 38.28125 8.296875 
L 54.390625 8.296875 
L 54.390625 0 
L 12.40625 0 
z
" id="BitstreamVeraSans-Roman-31"/>
      </defs>
      <g transform="translate(104.19 596.318125)scale(0.12 -0.12)">
       <use xlink:href="#BitstreamVeraSans-Roman-31"/>
       <use x="63.623046875" xlink:href="#BitstreamVeraSans-Roman-30"/>
      </g>
     </g>
    </g>
    <g id="xtick_3">
     <g id="line2d_7">
      <path clip-path="url(#pb67f47366f)" d="M 160.65 583.2 
L 160.65 64.8 
" style="fill:none;stroke:#000000;stroke-dasharray:1.000000,3.000000;stroke-dashoffset:0.0;stroke-width:0.5;"/>
     </g>
     <g id="line2d_8">
      <g>
       <use style="stroke:#000000;stroke-width:0.5;" x="160.65" xlink:href="#mfaff112fd8" y="583.2"/>
      </g>
     </g>
     <g id="line2d_9">
      <g>
       <use style="stroke:#000000;stroke-width:0.5;" x="160.65" xlink:href="#m272eb1c5d4" y="64.8"/>
      </g>
     </g>
     <g id="text_3">
      <!-- 20 -->
      <defs>
       <path d="M 19.1875 8.296875 
L 53.609375 8.296875 
L 53.609375 0 
L 7.328125 0 
L 7.328125 8.296875 
Q 12.9375 14.109375 22.625 23.890625 
Q 32.328125 33.6875 34.8125 36.53125 
Q 39.546875 41.84375 41.421875 45.53125 
Q 43.3125 49.21875 43.3125 52.78125 
Q 43.3125 58.59375 39.234375 62.25 
Q 35.15625 65.921875 28.609375 65.921875 
Q 23.96875 65.921875 18.8125 64.3125 
Q 13.671875 62.703125 7.8125 59.421875 
L 7.8125 69.390625 
Q 13.765625 71.78125 18.9375 73 
Q 24.125 74.21875 28.421875 74.21875 
Q 39.75 74.21875 46.484375 68.546875 
Q 53.21875 62.890625 53.21875 53.421875 
Q 53.21875 48.921875 51.53125 44.890625 
Q 49.859375 40.875 45.40625 35.40625 
Q 44.1875 33.984375 37.640625 27.21875 
Q 31.109375 20.453125 19.1875 8.296875 
" id="BitstreamVeraSans-Roman-32"/>
      </defs>
      <g transform="translate(153.015 596.318125)scale(0.12 -0.12)">
       <use xlink:href="#BitstreamVeraSans-Roman-32"/>
       <use x="63.623046875" xlink:href="#BitstreamVeraSans-Roman-30"/>
      </g>
     </g>
    </g>
    <g id="xtick_4">
     <g id="line2d_10">
      <path clip-path="url(#pb67f47366f)" d="M 209.475 583.2 
L 209.475 64.8 
" style="fill:none;stroke:#000000;stroke-dasharray:1.000000,3.000000;stroke-dashoffset:0.0;stroke-width:0.5;"/>
     </g>
     <g id="line2d_11">
      <g>
       <use style="stroke:#000000;stroke-width:0.5;" x="209.475" xlink:href="#mfaff112fd8" y="583.2"/>
      </g>
     </g>
     <g id="line2d_12">
      <g>
       <use style="stroke:#000000;stroke-width:0.5;" x="209.475" xlink:href="#m272eb1c5d4" y="64.8"/>
      </g>
     </g>
     <g id="text_4">
      <!-- 30 -->
      <defs>
       <path d="M 40.578125 39.3125 
Q 47.65625 37.796875 51.625 33 
Q 55.609375 28.21875 55.609375 21.1875 
Q 55.609375 10.40625 48.1875 4.484375 
Q 40.765625 -1.421875 27.09375 -1.421875 
Q 22.515625 -1.421875 17.65625 -0.515625 
Q 12.796875 0.390625 7.625 2.203125 
L 7.625 11.71875 
Q 11.71875 9.328125 16.59375 8.109375 
Q 21.484375 6.890625 26.8125 6.890625 
Q 36.078125 6.890625 40.9375 10.546875 
Q 45.796875 14.203125 45.796875 21.1875 
Q 45.796875 27.640625 41.28125 31.265625 
Q 36.765625 34.90625 28.71875 34.90625 
L 20.21875 34.90625 
L 20.21875 43.015625 
L 29.109375 43.015625 
Q 36.375 43.015625 40.234375 45.921875 
Q 44.09375 48.828125 44.09375 54.296875 
Q 44.09375 59.90625 40.109375 62.90625 
Q 36.140625 65.921875 28.71875 65.921875 
Q 24.65625 65.921875 20.015625 65.03125 
Q 15.375 64.15625 9.8125 62.3125 
L 9.8125 71.09375 
Q 15.4375 72.65625 20.34375 73.4375 
Q 25.25 74.21875 29.59375 74.21875 
Q 40.828125 74.21875 47.359375 69.109375 
Q 53.90625 64.015625 53.90625 55.328125 
Q 53.90625 49.265625 50.4375 45.09375 
Q 46.96875 40.921875 40.578125 39.3125 
" id="BitstreamVeraSans-Roman-33"/>
      </defs>
      <g transform="translate(201.84 596.318125)scale(0.12 -0.12)">
       <use xlink:href="#BitstreamVeraSans-Roman-33"/>
       <use x="63.623046875" xlink:href="#BitstreamVeraSans-Roman-30"/>
      </g>
     </g>
    </g>
    <g id="xtick_5">
     <g id="line2d_13">
      <path clip-path="url(#pb67f47366f)" d="M 258.3 583.2 
L 258.3 64.8 
" style="fill:none;stroke:#000000;stroke-dasharray:1.000000,3.000000;stroke-dashoffset:0.0;stroke-width:0.5;"/>
     </g>
     <g id="line2d_14">
      <g>
       <use style="stroke:#000000;stroke-width:0.5;" x="258.3" xlink:href="#mfaff112fd8" y="583.2"/>
      </g>
     </g>
     <g id="line2d_15">
      <g>
       <use style="stroke:#000000;stroke-width:0.5;" x="258.3" xlink:href="#m272eb1c5d4" y="64.8"/>
      </g>
     </g>
     <g id="text_5">
      <!-- 40 -->
      <defs>
       <path d="M 37.796875 64.3125 
L 12.890625 25.390625 
L 37.796875 25.390625 
z
M 35.203125 72.90625 
L 47.609375 72.90625 
L 47.609375 25.390625 
L 58.015625 25.390625 
L 58.015625 17.1875 
L 47.609375 17.1875 
L 47.609375 0 
L 37.796875 0 
L 37.796875 17.1875 
L 4.890625 17.1875 
L 4.890625 26.703125 
z
" id="BitstreamVeraSans-Roman-34"/>
      </defs>
      <g transform="translate(250.665 596.318125)scale(0.12 -0.12)">
       <use xlink:href="#BitstreamVeraSans-Roman-34"/>
       <use x="63.623046875" xlink:href="#BitstreamVeraSans-Roman-30"/>
      </g>
     </g>
    </g>
    <g id="xtick_6">
     <g id="line2d_16">
      <path clip-path="url(#pb67f47366f)" d="M 307.125 583.2 
L 307.125 64.8 
" style="fill:none;stroke:#000000;stroke-dasharray:1.000000,3.000000;stroke-dashoffset:0.0;stroke-width:0.5;"/>
     </g>
     <g id="line2d_17">
      <g>
       <use style="stroke:#000000;stroke-width:0.5;" x="307.125" xlink:href="#mfaff112fd8" y="583.2"/>
      </g>
     </g>
     <g id="line2d_18">
      <g>
       <use style="stroke:#000000;stroke-width:0.5;" x="307.125" xlink:href="#m272eb1c5d4" y="64.8"/>
      </g>
     </g>
     <g id="text_6">
      <!-- 50 -->
      <defs>
       <path d="M 10.796875 72.90625 
L 49.515625 72.90625 
L 49.515625 64.59375 
L 19.828125 64.59375 
L 19.828125 46.734375 
Q 21.96875 47.46875 24.109375 47.828125 
Q 26.265625 48.1875 28.421875 48.1875 
Q 40.625 48.1875 47.75 41.5 
Q 54.890625 34.8125 54.890625 23.390625 
Q 54.890625 11.625 47.5625 5.09375 
Q 40.234375 -1.421875 26.90625 -1.421875 
Q 22.3125 -1.421875 17.546875 -0.640625 
Q 12.796875 0.140625 7.71875 1.703125 
L 7.71875 11.625 
Q 12.109375 9.234375 16.796875 8.0625 
Q 21.484375 6.890625 26.703125 6.890625 
Q 35.15625 6.890625 40.078125 11.328125 
Q 45.015625 15.765625 45.015625 23.390625 
Q 45.015625 31 40.078125 35.4375 
Q 35.15625 39.890625 26.703125 39.890625 
Q 22.75 39.890625 18.8125 39.015625 
Q 14.890625 38.140625 10.796875 36.28125 
z
" id="BitstreamVeraSans-Roman-35"/>
      </defs>
      <g transform="translate(299.49 596.318125)scale(0.12 -0.12)">
       <use xlink:href="#BitstreamVeraSans-Roman-35"/>
       <use x="63.623046875" xlink:href="#BitstreamVeraSans-Roman-30"/>
      </g>
     </g>
    </g>
    <g id="xtick_7">
     <g id="line2d_19">
      <path clip-path="url(#pb67f47366f)" d="M 355.95 583.2 
L 355.95 64.8 
" style="fill:none;stroke:#000000;stroke-dasharray:1.000000,3.000000;stroke-dashoffset:0.0;stroke-width:0.5;"/>
     </g>
     <g id="line2d_20">
      <g>
       <use style="stroke:#000000;stroke-width:0.5;" x="355.95" xlink:href="#mfaff112fd8" y="583.2"/>
      </g>
     </g>
     <g id="line2d_21">
      <g>
       <use style="stroke:#000000;stroke-width:0.5;" x="355.95" xlink:href="#m272eb1c5d4" y="64.8"/>
      </g>
     </g>
     <g id="text_7">
      <!-- 60 -->
      <defs>
       <path d="M 33.015625 40.375 
Q 26.375 40.375 22.484375 35.828125 
Q 18.609375 31.296875 18.609375 23.390625 
Q 18.609375 15.53125 22.484375 10.953125 
Q 26.375 6.390625 33.015625 6.390625 
Q 39.65625 6.390625 43.53125 10.953125 
Q 47.40625 15.53125 47.40625 23.390625 
Q 47.40625 31.296875 43.53125 35.828125 
Q 39.65625 40.375 33.015625 40.375 
M 52.59375 71.296875 
L 52.59375 62.3125 
Q 48.875 64.0625 45.09375 64.984375 
Q 41.3125 65.921875 37.59375 65.921875 
Q 27.828125 65.921875 22.671875 59.328125 
Q 17.53125 52.734375 16.796875 39.40625 
Q 19.671875 43.65625 24.015625 45.921875 
Q 28.375 48.1875 33.59375 48.1875 
Q 44.578125 48.1875 50.953125 41.515625 
Q 57.328125 34.859375 57.328125 23.390625 
Q 57.328125 12.15625 50.6875 5.359375 
Q 44.046875 -1.421875 33.015625 -1.421875 
Q 20.359375 -1.421875 13.671875 8.265625 
Q 6.984375 17.96875 6.984375 36.375 
Q 6.984375 53.65625 15.1875 63.9375 
Q 23.390625 74.21875 37.203125 74.21875 
Q 40.921875 74.21875 44.703125 73.484375 
Q 48.484375 72.75 52.59375 71.296875 
" id="BitstreamVeraSans-Roman-36"/>
      </defs>
      <g transform="translate(348.315 596.318125)scale(0.12 -0.12)">
       <use xlink:href="#BitstreamVeraSans-Roman-36"/>
       <use x="63.623046875" xlink:href="#BitstreamVeraSans-Roman-30"/>
      </g>
     </g>
    </g>
    <g id="xtick_8">
     <g id="line2d_22">
      <path clip-path="url(#pb67f47366f)" d="M 404.775 583.2 
L 404.775 64.8 
" style="fill:none;stroke:#000000;stroke-dasharray:1.000000,3.000000;stroke-dashoffset:0.0;stroke-width:0.5;"/>
     </g>
     <g id="line2d_23">
      <g>
       <use style="stroke:#000000;stroke-width:0.5;" x="404.775" xlink:href="#mfaff112fd8" y="583.2"/>
      </g>
     </g>
     <g id="line2d_24">
      <g>
       <use style="stroke:#000000;stroke-width:0.5;" x="404.775" xlink:href="#m272eb1c5d4" y="64.8"/>
      </g>
     </g>
     <g id="text_8">
      <!-- 70 -->
      <defs>
       <path d="M 8.203125 72.90625 
L 55.078125 72.90625 
L 55.078125 68.703125 
L 28.609375 0 
L 18.3125 0 
L 43.21875 64.59375 
L 8.203125 64.59375 
z
" id="BitstreamVeraSans-Roman-37"/>
      </defs>
      <g transform="translate(397.14 596.318125)scale(0.12 -0.12)">
       <use xlink:href="#BitstreamVeraSans-Roman-37"/>
       <use x="63.623046875" xlink:href="#BitstreamVeraSans-Roman-30"/>
      </g>
     </g>
    </g>
    <g id="xtick_9">
     <g id="line2d_25">
      <path clip-path="url(#pb67f47366f)" d="M 453.6 583.2 
L 453.6 64.8 
" style="fill:none;stroke:#000000;stroke-dasharray:1.000000,3.000000;stroke-dashoffset:0.0;stroke-width:0.5;"/>
     </g>
     <g id="line2d_26">
      <g>
       <use style="stroke:#000000;stroke-width:0.5;" x="453.6" xlink:href="#mfaff112fd8" y="583.2"/>
      </g>
     </g>
     <g id="line2d_27">
      <g>
       <use style="stroke:#000000;stroke-width:0.5;" x="453.6" xlink:href="#m272eb1c5d4" y="64.8"/>
      </g>
     </g>
     <g id="text_9">
      <!-- 80 -->
      <defs>
       <path d="M 31.78125 34.625 
Q 24.75 34.625 20.71875 30.859375 
Q 16.703125 27.09375 16.703125 20.515625 
Q 16.703125 13.921875 20.71875 10.15625 
Q 24.75 6.390625 31.78125 6.390625 
Q 38.8125 6.390625 42.859375 10.171875 
Q 46.921875 13.96875 46.921875 20.515625 
Q 46.921875 27.09375 42.890625 30.859375 
Q 38.875 34.625 31.78125 34.625 
M 21.921875 38.8125 
Q 15.578125 40.375 12.03125 44.71875 
Q 8.5 49.078125 8.5 55.328125 
Q 8.5 64.0625 14.71875 69.140625 
Q 20.953125 74.21875 31.78125 74.21875 
Q 42.671875 74.21875 48.875 69.140625 
Q 55.078125 64.0625 55.078125 55.328125 
Q 55.078125 49.078125 51.53125 44.71875 
Q 48 40.375 41.703125 38.8125 
Q 48.828125 37.15625 52.796875 32.3125 
Q 56.78125 27.484375 56.78125 20.515625 
Q 56.78125 9.90625 50.3125 4.234375 
Q 43.84375 -1.421875 31.78125 -1.421875 
Q 19.734375 -1.421875 13.25 4.234375 
Q 6.78125 9.90625 6.78125 20.515625 
Q 6.78125 27.484375 10.78125 32.3125 
Q 14.796875 37.15625 21.921875 38.8125 
M 18.3125 54.390625 
Q 18.3125 48.734375 21.84375 45.5625 
Q 25.390625 42.390625 31.78125 42.390625 
Q 38.140625 42.390625 41.71875 45.5625 
Q 45.3125 48.734375 45.3125 54.390625 
Q 45.3125 60.0625 41.71875 63.234375 
Q 38.140625 66.40625 31.78125 66.40625 
Q 25.390625 66.40625 21.84375 63.234375 
Q 18.3125 60.0625 18.3125 54.390625 
" id="BitstreamVeraSans-Roman-38"/>
      </defs>
      <g transform="translate(445.965 596.318125)scale(0.12 -0.12)">
       <use xlink:href="#BitstreamVeraSans-Roman-38"/>
       <use x="63.623046875" xlink:href="#BitstreamVeraSans-Roman-30"/>
      </g>
     </g>
    </g>
    <g id="text_10">
     <!-- scores -->
     <defs>
      <path d="M 56.203125 29.59375 
L 56.203125 25.203125 
L 14.890625 25.203125 
Q 15.484375 15.921875 20.484375 11.0625 
Q 25.484375 6.203125 34.421875 6.203125 
Q 39.59375 6.203125 44.453125 7.46875 
Q 49.3125 8.734375 54.109375 11.28125 
L 54.109375 2.78125 
Q 49.265625 0.734375 44.1875 -0.34375 
Q 39.109375 -1.421875 33.890625 -1.421875 
Q 20.796875 -1.421875 13.15625 6.1875 
Q 5.515625 13.8125 5.515625 26.8125 
Q 5.515625 40.234375 12.765625 48.109375 
Q 20.015625 56 32.328125 56 
Q 43.359375 56 49.78125 48.890625 
Q 56.203125 41.796875 56.203125 29.59375 
M 47.21875 32.234375 
Q 47.125 39.59375 43.09375 43.984375 
Q 39.0625 48.390625 32.421875 48.390625 
Q 24.90625 48.390625 20.390625 44.140625 
Q 15.875 39.890625 15.1875 32.171875 
z
" id="BitstreamVeraSans-Roman-65"/>
      <path d="M 30.609375 48.390625 
Q 23.390625 48.390625 19.1875 42.75 
Q 14.984375 37.109375 14.984375 27.296875 
Q 14.984375 17.484375 19.15625 11.84375 
Q 23.34375 6.203125 30.609375 6.203125 
Q 37.796875 6.203125 41.984375 11.859375 
Q 46.1875 17.53125 46.1875 27.296875 
Q 46.1875 37.015625 41.984375 42.703125 
Q 37.796875 48.390625 30.609375 48.390625 
M 30.609375 56 
Q 42.328125 56 49.015625 48.375 
Q 55.71875 40.765625 55.71875 27.296875 
Q 55.71875 13.875 49.015625 6.21875 
Q 42.328125 -1.421875 30.609375 -1.421875 
Q 18.84375 -1.421875 12.171875 6.21875 
Q 5.515625 13.875 5.515625 27.296875 
Q 5.515625 40.765625 12.171875 48.375 
Q 18.84375 56 30.609375 56 
" id="BitstreamVeraSans-Roman-6f"/>
      <path d="M 41.109375 46.296875 
Q 39.59375 47.171875 37.8125 47.578125 
Q 36.03125 48 33.890625 48 
Q 26.265625 48 22.1875 43.046875 
Q 18.109375 38.09375 18.109375 28.8125 
L 18.109375 0 
L 9.078125 0 
L 9.078125 54.6875 
L 18.109375 54.6875 
L 18.109375 46.1875 
Q 20.953125 51.171875 25.484375 53.578125 
Q 30.03125 56 36.53125 56 
Q 37.453125 56 38.578125 55.875 
Q 39.703125 55.765625 41.0625 55.515625 
z
" id="BitstreamVeraSans-Roman-72"/>
      <path d="M 44.28125 53.078125 
L 44.28125 44.578125 
Q 40.484375 46.53125 36.375 47.5 
Q 32.28125 48.484375 27.875 48.484375 
Q 21.1875 48.484375 17.84375 46.4375 
Q 14.5 44.390625 14.5 40.28125 
Q 14.5 37.15625 16.890625 35.375 
Q 19.28125 33.59375 26.515625 31.984375 
L 29.59375 31.296875 
Q 39.15625 29.25 43.1875 25.515625 
Q 47.21875 21.78125 47.21875 15.09375 
Q 47.21875 7.46875 41.1875 3.015625 
Q 35.15625 -1.421875 24.609375 -1.421875 
Q 20.21875 -1.421875 15.453125 -0.5625 
Q 10.6875 0.296875 5.421875 2 
L 5.421875 11.28125 
Q 10.40625 8.6875 15.234375 7.390625 
Q 20.0625 6.109375 24.8125 6.109375 
Q 31.15625 6.109375 34.5625 8.28125 
Q 37.984375 10.453125 37.984375 14.40625 
Q 37.984375 18.0625 35.515625 20.015625 
Q 33.0625 21.96875 24.703125 23.78125 
L 21.578125 24.515625 
Q 13.234375 26.265625 9.515625 29.90625 
Q 5.8125 33.546875 5.8125 39.890625 
Q 5.8125 47.609375 11.28125 51.796875 
Q 16.75 56 26.8125 56 
Q 31.78125 56 36.171875 55.265625 
Q 40.578125 54.546875 44.28125 53.078125 
" id="BitstreamVeraSans-Roman-73"/>
      <path d="M 48.78125 52.59375 
L 48.78125 44.1875 
Q 44.96875 46.296875 41.140625 47.34375 
Q 37.3125 48.390625 33.40625 48.390625 
Q 24.65625 48.390625 19.8125 42.84375 
Q 14.984375 37.3125 14.984375 27.296875 
Q 14.984375 17.28125 19.8125 11.734375 
Q 24.65625 6.203125 33.40625 6.203125 
Q 37.3125 6.203125 41.140625 7.25 
Q 44.96875 8.296875 48.78125 10.40625 
L 48.78125 2.09375 
Q 45.015625 0.34375 40.984375 -0.53125 
Q 36.96875 -1.421875 32.421875 -1.421875 
Q 20.0625 -1.421875 12.78125 6.34375 
Q 5.515625 14.109375 5.515625 27.296875 
Q 5.515625 40.671875 12.859375 48.328125 
Q 20.21875 56 33.015625 56 
Q 37.15625 56 41.109375 55.140625 
Q 45.0625 54.296875 48.78125 52.59375 
" id="BitstreamVeraSans-Roman-63"/>
     </defs>
     <g transform="translate(238.921875 612.931875)scale(0.12 -0.12)">
      <use xlink:href="#BitstreamVeraSans-Roman-73"/>
      <use x="52.099609375" xlink:href="#BitstreamVeraSans-Roman-63"/>
      <use x="107.080078125" xlink:href="#BitstreamVeraSans-Roman-6f"/>
      <use x="168.26171875" xlink:href="#BitstreamVeraSans-Roman-72"/>
      <use x="209.34375" xlink:href="#BitstreamVeraSans-Roman-65"/>
      <use x="270.8671875" xlink:href="#BitstreamVeraSans-Roman-73"/>
     </g>
    </g>
   </g>
   <g id="matplotlib.axis_2">
    <g id="ytick_1">
     <g id="line2d_28">
      <path clip-path="url(#pb67f47366f)" d="M 63 509.142857 
L 453.6 509.142857 
" style="fill:none;stroke:#000000;stroke-dasharray:1.000000,3.000000;stroke-dashoffset:0.0;stroke-width:0.5;"/>
     </g>
     <g id="line2d_29">
      <defs>
       <path d="M 0 0 
L 4 0 
" id="mf94bba56e0" style="stroke:#000000;stroke-width:0.5;"/>
      </defs>
      <g>
       <use style="stroke:#000000;stroke-width:0.5;" x="63.0" xlink:href="#mf94bba56e0" y="509.142857143"/>
      </g>
     </g>
     <g id="line2d_30">
      <defs>
       <path d="M 0 0 
L -4 0 
" id="mda74ff7223" style="stroke:#000000;stroke-width:0.5;"/>
      </defs>
      <g>
       <use style="stroke:#000000;stroke-width:0.5;" x="453.6" xlink:href="#mda74ff7223" y="509.142857143"/>
      </g>
     </g>
     <g id="text_11">
      <!-- group1 -->
      <defs>
       <path d="M 45.40625 27.984375 
Q 45.40625 37.75 41.375 43.109375 
Q 37.359375 48.484375 30.078125 48.484375 
Q 22.859375 48.484375 18.828125 43.109375 
Q 14.796875 37.75 14.796875 27.984375 
Q 14.796875 18.265625 18.828125 12.890625 
Q 22.859375 7.515625 30.078125 7.515625 
Q 37.359375 7.515625 41.375 12.890625 
Q 45.40625 18.265625 45.40625 27.984375 
M 54.390625 6.78125 
Q 54.390625 -7.171875 48.1875 -13.984375 
Q 42 -20.796875 29.203125 -20.796875 
Q 24.46875 -20.796875 20.265625 -20.09375 
Q 16.0625 -19.390625 12.109375 -17.921875 
L 12.109375 -9.1875 
Q 16.0625 -11.328125 19.921875 -12.34375 
Q 23.78125 -13.375 27.78125 -13.375 
Q 36.625 -13.375 41.015625 -8.765625 
Q 45.40625 -4.15625 45.40625 5.171875 
L 45.40625 9.625 
Q 42.625 4.78125 38.28125 2.390625 
Q 33.9375 0 27.875 0 
Q 17.828125 0 11.671875 7.65625 
Q 5.515625 15.328125 5.515625 27.984375 
Q 5.515625 40.671875 11.671875 48.328125 
Q 17.828125 56 27.875 56 
Q 33.9375 56 38.28125 53.609375 
Q 42.625 51.21875 45.40625 46.390625 
L 45.40625 54.6875 
L 54.390625 54.6875 
z
" id="BitstreamVeraSans-Roman-67"/>
       <path d="M 8.5 21.578125 
L 8.5 54.6875 
L 17.484375 54.6875 
L 17.484375 21.921875 
Q 17.484375 14.15625 20.5 10.265625 
Q 23.53125 6.390625 29.59375 6.390625 
Q 36.859375 6.390625 41.078125 11.03125 
Q 45.3125 15.671875 45.3125 23.6875 
L 45.3125 54.6875 
L 54.296875 54.6875 
L 54.296875 0 
L 45.3125 0 
L 45.3125 8.40625 
Q 42.046875 3.421875 37.71875 1 
Q 33.40625 -1.421875 27.6875 -1.421875 
Q 18.265625 -1.421875 13.375 4.4375 
Q 8.5 10.296875 8.5 21.578125 
" id="BitstreamVeraSans-Roman-75"/>
       <path d="M 18.109375 8.203125 
L 18.109375 -20.796875 
L 9.078125 -20.796875 
L 9.078125 54.6875 
L 18.109375 54.6875 
L 18.109375 46.390625 
Q 20.953125 51.265625 25.265625 53.625 
Q 29.59375 56 35.59375 56 
Q 45.5625 56 51.78125 48.09375 
Q 58.015625 40.1875 58.015625 27.296875 
Q 58.015625 14.40625 51.78125 6.484375 
Q 45.5625 -1.421875 35.59375 -1.421875 
Q 29.59375 -1.421875 25.265625 0.953125 
Q 20.953125 3.328125 18.109375 8.203125 
M 48.6875 27.296875 
Q 48.6875 37.203125 44.609375 42.84375 
Q 40.53125 48.484375 33.40625 48.484375 
Q 26.265625 48.484375 22.1875 42.84375 
Q 18.109375 37.203125 18.109375 27.296875 
Q 18.109375 17.390625 22.1875 11.75 
Q 26.265625 6.109375 33.40625 6.109375 
Q 40.53125 6.109375 44.609375 11.75 
Q 48.6875 17.390625 48.6875 27.296875 
" id="BitstreamVeraSans-Roman-70"/>
      </defs>
      <g transform="translate(16.251875 512.454107143)scale(0.12 -0.12)">
       <use xlink:href="#BitstreamVeraSans-Roman-67"/>
       <use x="63.4765625" xlink:href="#BitstreamVeraSans-Roman-72"/>
       <use x="104.55859375" xlink:href="#BitstreamVeraSans-Roman-6f"/>
       <use x="165.740234375" xlink:href="#BitstreamVeraSans-Roman-75"/>
       <use x="229.119140625" xlink:href="#BitstreamVeraSans-Roman-70"/>
       <use x="292.595703125" xlink:href="#BitstreamVeraSans-Roman-31"/>
      </g>
     </g>
    </g>
    <g id="ytick_2">
     <g id="line2d_31">
      <path clip-path="url(#pb67f47366f)" d="M 63 435.085714 
L 453.6 435.085714 
" style="fill:none;stroke:#000000;stroke-dasharray:1.000000,3.000000;stroke-dashoffset:0.0;stroke-width:0.5;"/>
     </g>
     <g id="line2d_32">
      <g>
       <use style="stroke:#000000;stroke-width:0.5;" x="63.0" xlink:href="#mf94bba56e0" y="435.085714286"/>
      </g>
     </g>
     <g id="line2d_33">
      <g>
       <use style="stroke:#000000;stroke-width:0.5;" x="453.6" xlink:href="#mda74ff7223" y="435.085714286"/>
      </g>
     </g>
     <g id="text_12">
      <!-- group2 -->
      <g transform="translate(16.251875 438.396964286)scale(0.12 -0.12)">
       <use xlink:href="#BitstreamVeraSans-Roman-67"/>
       <use x="63.4765625" xlink:href="#BitstreamVeraSans-Roman-72"/>
       <use x="104.55859375" xlink:href="#BitstreamVeraSans-Roman-6f"/>
       <use x="165.740234375" xlink:href="#BitstreamVeraSans-Roman-75"/>
       <use x="229.119140625" xlink:href="#BitstreamVeraSans-Roman-70"/>
       <use x="292.595703125" xlink:href="#BitstreamVeraSans-Roman-32"/>
      </g>
     </g>
    </g>
    <g id="ytick_3">
     <g id="line2d_34">
      <path clip-path="url(#pb67f47366f)" d="M 63 361.028571 
L 453.6 361.028571 
" style="fill:none;stroke:#000000;stroke-dasharray:1.000000,3.000000;stroke-dashoffset:0.0;stroke-width:0.5;"/>
     </g>
     <g id="line2d_35">
      <g>
       <use style="stroke:#000000;stroke-width:0.5;" x="63.0" xlink:href="#mf94bba56e0" y="361.028571429"/>
      </g>
     </g>
     <g id="line2d_36">
      <g>
       <use style="stroke:#000000;stroke-width:0.5;" x="453.6" xlink:href="#mda74ff7223" y="361.028571429"/>
      </g>
     </g>
     <g id="text_13">
      <!-- group4 -->
      <g transform="translate(16.251875 364.339821429)scale(0.12 -0.12)">
       <use xlink:href="#BitstreamVeraSans-Roman-67"/>
       <use x="63.4765625" xlink:href="#BitstreamVeraSans-Roman-72"/>
       <use x="104.55859375" xlink:href="#BitstreamVeraSans-Roman-6f"/>
       <use x="165.740234375" xlink:href="#BitstreamVeraSans-Roman-75"/>
       <use x="229.119140625" xlink:href="#BitstreamVeraSans-Roman-70"/>
       <use x="292.595703125" xlink:href="#BitstreamVeraSans-Roman-34"/>
      </g>
     </g>
    </g>
    <g id="ytick_4">
     <g id="line2d_37">
      <path clip-path="url(#pb67f47366f)" d="M 63 286.971429 
L 453.6 286.971429 
" style="fill:none;stroke:#000000;stroke-dasharray:1.000000,3.000000;stroke-dashoffset:0.0;stroke-width:0.5;"/>
     </g>
     <g id="line2d_38">
      <g>
       <use style="stroke:#000000;stroke-width:0.5;" x="63.0" xlink:href="#mf94bba56e0" y="286.971428571"/>
      </g>
     </g>
     <g id="line2d_39">
      <g>
       <use style="stroke:#000000;stroke-width:0.5;" x="453.6" xlink:href="#mda74ff7223" y="286.971428571"/>
      </g>
     </g>
     <g id="text_14">
      <!-- group5 -->
      <g transform="translate(16.251875 290.282678571)scale(0.12 -0.12)">
       <use xlink:href="#BitstreamVeraSans-Roman-67"/>
       <use x="63.4765625" xlink:href="#BitstreamVeraSans-Roman-72"/>
       <use x="104.55859375" xlink:href="#BitstreamVeraSans-Roman-6f"/>
       <use x="165.740234375" xlink:href="#BitstreamVeraSans-Roman-75"/>
       <use x="229.119140625" xlink:href="#BitstreamVeraSans-Roman-70"/>
       <use x="292.595703125" xlink:href="#BitstreamVeraSans-Roman-35"/>
      </g>
     </g>
    </g>
    <g id="ytick_5">
     <g id="line2d_40">
      <path clip-path="url(#pb67f47366f)" d="M 63 212.914286 
L 453.6 212.914286 
" style="fill:none;stroke:#000000;stroke-dasharray:1.000000,3.000000;stroke-dashoffset:0.0;stroke-width:0.5;"/>
     </g>
     <g id="line2d_41">
      <g>
       <use style="stroke:#000000;stroke-width:0.5;" x="63.0" xlink:href="#mf94bba56e0" y="212.914285714"/>
      </g>
     </g>
     <g id="line2d_42">
      <g>
       <use style="stroke:#000000;stroke-width:0.5;" x="453.6" xlink:href="#mda74ff7223" y="212.914285714"/>
      </g>
     </g>
     <g id="text_15">
      <!-- group7 -->
      <g transform="translate(16.251875 216.225535714)scale(0.12 -0.12)">
       <use xlink:href="#BitstreamVeraSans-Roman-67"/>
       <use x="63.4765625" xlink:href="#BitstreamVeraSans-Roman-72"/>
       <use x="104.55859375" xlink:href="#BitstreamVeraSans-Roman-6f"/>
       <use x="165.740234375" xlink:href="#BitstreamVeraSans-Roman-75"/>
       <use x="229.119140625" xlink:href="#BitstreamVeraSans-Roman-70"/>
       <use x="292.595703125" xlink:href="#BitstreamVeraSans-Roman-37"/>
      </g>
     </g>
    </g>
    <g id="ytick_6">
     <g id="line2d_43">
      <path clip-path="url(#pb67f47366f)" d="M 63 138.857143 
L 453.6 138.857143 
" style="fill:none;stroke:#000000;stroke-dasharray:1.000000,3.000000;stroke-dashoffset:0.0;stroke-width:0.5;"/>
     </g>
     <g id="line2d_44">
      <g>
       <use style="stroke:#000000;stroke-width:0.5;" x="63.0" xlink:href="#mf94bba56e0" y="138.857142857"/>
      </g>
     </g>
     <g id="line2d_45">
      <g>
       <use style="stroke:#000000;stroke-width:0.5;" x="453.6" xlink:href="#mda74ff7223" y="138.857142857"/>
      </g>
     </g>
     <g id="text_16">
      <!-- group8 -->
      <g transform="translate(16.251875 142.168392857)scale(0.12 -0.12)">
       <use xlink:href="#BitstreamVeraSans-Roman-67"/>
       <use x="63.4765625" xlink:href="#BitstreamVeraSans-Roman-72"/>
       <use x="104.55859375" xlink:href="#BitstreamVeraSans-Roman-6f"/>
       <use x="165.740234375" xlink:href="#BitstreamVeraSans-Roman-75"/>
       <use x="229.119140625" xlink:href="#BitstreamVeraSans-Roman-70"/>
       <use x="292.595703125" xlink:href="#BitstreamVeraSans-Roman-38"/>
      </g>
     </g>
    </g>
    <g id="text_17">
     <!-- groupid -->
     <defs>
      <path d="M 45.40625 46.390625 
L 45.40625 75.984375 
L 54.390625 75.984375 
L 54.390625 0 
L 45.40625 0 
L 45.40625 8.203125 
Q 42.578125 3.328125 38.25 0.953125 
Q 33.9375 -1.421875 27.875 -1.421875 
Q 17.96875 -1.421875 11.734375 6.484375 
Q 5.515625 14.40625 5.515625 27.296875 
Q 5.515625 40.1875 11.734375 48.09375 
Q 17.96875 56 27.875 56 
Q 33.9375 56 38.25 53.625 
Q 42.578125 51.265625 45.40625 46.390625 
M 14.796875 27.296875 
Q 14.796875 17.390625 18.875 11.75 
Q 22.953125 6.109375 30.078125 6.109375 
Q 37.203125 6.109375 41.296875 11.75 
Q 45.40625 17.390625 45.40625 27.296875 
Q 45.40625 37.203125 41.296875 42.84375 
Q 37.203125 48.484375 30.078125 48.484375 
Q 22.953125 48.484375 18.875 42.84375 
Q 14.796875 37.203125 14.796875 27.296875 
" id="BitstreamVeraSans-Roman-64"/>
      <path d="M 9.421875 54.6875 
L 18.40625 54.6875 
L 18.40625 0 
L 9.421875 0 
z
M 9.421875 75.984375 
L 18.40625 75.984375 
L 18.40625 64.59375 
L 9.421875 64.59375 
z
" id="BitstreamVeraSans-Roman-69"/>
     </defs>
     <g transform="translate(8.75625 347.0325)rotate(-90.0)scale(0.12 -0.12)">
      <use xlink:href="#BitstreamVeraSans-Roman-67"/>
      <use x="63.4765625" xlink:href="#BitstreamVeraSans-Roman-72"/>
      <use x="104.55859375" xlink:href="#BitstreamVeraSans-Roman-6f"/>
      <use x="165.740234375" xlink:href="#BitstreamVeraSans-Roman-75"/>
      <use x="229.119140625" xlink:href="#BitstreamVeraSans-Roman-70"/>
      <use x="292.595703125" xlink:href="#BitstreamVeraSans-Roman-69"/>
      <use x="320.37890625" xlink:href="#BitstreamVeraSans-Roman-64"/>
     </g>
    </g>
   </g>
   <g id="text_18">
    <!--  Horizontal violin plot -->
    <defs>
     <path id="BitstreamVeraSans-Roman-20"/>
     <path d="M 54.890625 33.015625 
L 54.890625 0 
L 45.90625 0 
L 45.90625 32.71875 
Q 45.90625 40.484375 42.875 44.328125 
Q 39.84375 48.1875 33.796875 48.1875 
Q 26.515625 48.1875 22.3125 43.546875 
Q 18.109375 38.921875 18.109375 30.90625 
L 18.109375 0 
L 9.078125 0 
L 9.078125 54.6875 
L 18.109375 54.6875 
L 18.109375 46.1875 
Q 21.34375 51.125 25.703125 53.5625 
Q 30.078125 56 35.796875 56 
Q 45.21875 56 50.046875 50.171875 
Q 54.890625 44.34375 54.890625 33.015625 
" id="BitstreamVeraSans-Roman-6e"/>
     <path d="M 9.421875 75.984375 
L 18.40625 75.984375 
L 18.40625 0 
L 9.421875 0 
z
" id="BitstreamVeraSans-Roman-6c"/>
     <path d="M 5.515625 54.6875 
L 48.1875 54.6875 
L 48.1875 46.484375 
L 14.40625 7.171875 
L 48.1875 7.171875 
L 48.1875 0 
L 4.296875 0 
L 4.296875 8.203125 
L 38.09375 47.515625 
L 5.515625 47.515625 
z
" id="BitstreamVeraSans-Roman-7a"/>
     <path d="M 2.984375 54.6875 
L 12.5 54.6875 
L 29.59375 8.796875 
L 46.6875 54.6875 
L 56.203125 54.6875 
L 35.6875 0 
L 23.484375 0 
z
" id="BitstreamVeraSans-Roman-76"/>
     <path d="M 18.3125 70.21875 
L 18.3125 54.6875 
L 36.8125 54.6875 
L 36.8125 47.703125 
L 18.3125 47.703125 
L 18.3125 18.015625 
Q 18.3125 11.328125 20.140625 9.421875 
Q 21.96875 7.515625 27.59375 7.515625 
L 36.8125 7.515625 
L 36.8125 0 
L 27.59375 0 
Q 17.1875 0 13.234375 3.875 
Q 9.28125 7.765625 9.28125 18.015625 
L 9.28125 47.703125 
L 2.6875 47.703125 
L 2.6875 54.6875 
L 9.28125 54.6875 
L 9.28125 70.21875 
z
" id="BitstreamVeraSans-Roman-74"/>
     <path d="M 34.28125 27.484375 
Q 23.390625 27.484375 19.1875 25 
Q 14.984375 22.515625 14.984375 16.5 
Q 14.984375 11.71875 18.140625 8.90625 
Q 21.296875 6.109375 26.703125 6.109375 
Q 34.1875 6.109375 38.703125 11.40625 
Q 43.21875 16.703125 43.21875 25.484375 
L 43.21875 27.484375 
z
M 52.203125 31.203125 
L 52.203125 0 
L 43.21875 0 
L 43.21875 8.296875 
Q 40.140625 3.328125 35.546875 0.953125 
Q 30.953125 -1.421875 24.3125 -1.421875 
Q 15.921875 -1.421875 10.953125 3.296875 
Q 6 8.015625 6 15.921875 
Q 6 25.140625 12.171875 29.828125 
Q 18.359375 34.515625 30.609375 34.515625 
L 43.21875 34.515625 
L 43.21875 35.40625 
Q 43.21875 41.609375 39.140625 45 
Q 35.0625 48.390625 27.6875 48.390625 
Q 23 48.390625 18.546875 47.265625 
Q 14.109375 46.140625 10.015625 43.890625 
L 10.015625 52.203125 
Q 14.9375 54.109375 19.578125 55.046875 
Q 24.21875 56 28.609375 56 
Q 40.484375 56 46.34375 49.84375 
Q 52.203125 43.703125 52.203125 31.203125 
" id="BitstreamVeraSans-Roman-61"/>
     <path d="M 9.8125 72.90625 
L 19.671875 72.90625 
L 19.671875 43.015625 
L 55.515625 43.015625 
L 55.515625 72.90625 
L 65.375 72.90625 
L 65.375 0 
L 55.515625 0 
L 55.515625 34.71875 
L 19.671875 34.71875 
L 19.671875 0 
L 9.8125 0 
z
" id="BitstreamVeraSans-Roman-48"/>
    </defs>
    <g transform="translate(181.6425 59.8)scale(0.144 -0.144)">
     <use xlink:href="#BitstreamVeraSans-Roman-20"/>
     <use x="31.787109375" xlink:href="#BitstreamVeraSans-Roman-48"/>
     <use x="106.982421875" xlink:href="#BitstreamVeraSans-Roman-6f"/>
     <use x="168.1640625" xlink:href="#BitstreamVeraSans-Roman-72"/>
     <use x="209.27734375" xlink:href="#BitstreamVeraSans-Roman-69"/>
     <use x="237.060546875" xlink:href="#BitstreamVeraSans-Roman-7a"/>
     <use x="289.55078125" xlink:href="#BitstreamVeraSans-Roman-6f"/>
     <use x="350.732421875" xlink:href="#BitstreamVeraSans-Roman-6e"/>
     <use x="414.111328125" xlink:href="#BitstreamVeraSans-Roman-74"/>
     <use x="453.3203125" xlink:href="#BitstreamVeraSans-Roman-61"/>
     <use x="514.599609375" xlink:href="#BitstreamVeraSans-Roman-6c"/>
     <use x="542.3828125" xlink:href="#BitstreamVeraSans-Roman-20"/>
     <use x="574.169921875" xlink:href="#BitstreamVeraSans-Roman-76"/>
     <use x="633.349609375" xlink:href="#BitstreamVeraSans-Roman-69"/>
     <use x="661.1328125" xlink:href="#BitstreamVeraSans-Roman-6f"/>
     <use x="722.314453125" xlink:href="#BitstreamVeraSans-Roman-6c"/>
     <use x="750.09765625" xlink:href="#BitstreamVeraSans-Roman-69"/>
     <use x="777.880859375" xlink:href="#BitstreamVeraSans-Roman-6e"/>
     <use x="841.259765625" xlink:href="#BitstreamVeraSans-Roman-20"/>
     <use x="873.046875" xlink:href="#BitstreamVeraSans-Roman-70"/>
     <use x="936.5234375" xlink:href="#BitstreamVeraSans-Roman-6c"/>
     <use x="964.306640625" xlink:href="#BitstreamVeraSans-Roman-6f"/>
     <use x="1025.48828125" xlink:href="#BitstreamVeraSans-Roman-74"/>
    </g>
   </g>
  </g>
 </g>
 <defs>
  <clipPath id="pb67f47366f">
   <rect height="518.4" width="390.6" x="63.0" y="64.8"/>
  </clipPath>
 </defs>
</svg>
