<?xml version="1.0" encoding="utf-8" standalone="no"?>
<!DOCTYPE svg PUBLIC "-//W3C//DTD SVG 1.1//EN"
  "http://www.w3.org/Graphics/SVG/1.1/DTD/svg11.dtd">
<!-- Created with matplotlib (http://matplotlib.org/) -->
<svg height="396pt" version="1.1" viewBox="0 0 576 396" width="576pt" xmlns="http://www.w3.org/2000/svg" xmlns:xlink="http://www.w3.org/1999/xlink">
 <defs>
  <style type="text/css">
*{stroke-linecap:butt;stroke-linejoin:round;stroke-miterlimit:100000;}
  </style>
 </defs>
 <g id="figure_1">
  <g id="patch_1">
   <path d="M 0 396 
L 576 396 
L 576 0 
L 0 0 
z
" style="fill:#ffffff;"/>
  </g>
  <g id="axes_1">
   <g id="patch_2">
    <path d="M 72 356.4 
L 518.4 356.4 
L 518.4 39.6 
L 72 39.6 
z
" style="fill:#eaeaf2;"/>
   </g>
   <g id="matplotlib.axis_1">
    <g id="xtick_1">
     <g id="line2d_1">
      <path clip-path="url(#p3701a1a4e3)" d="M 72 356.4 
L 72 39.6 
" style="fill:none;stroke:#ffffff;stroke-linecap:round;"/>
     </g>
     <g id="line2d_2"/>
     <g id="line2d_3"/>
     <g id="text_1">
      <!-- −200 -->
      <defs>
       <path d="M 4.15625 35.296875 
Q 4.15625 48 6.765625 55.734375 
Q 9.375 63.484375 14.515625 67.671875 
Q 19.671875 71.875 27.484375 71.875 
Q 33.25 71.875 37.59375 69.546875 
Q 41.9375 67.234375 44.765625 62.859375 
Q 47.609375 58.5 49.21875 52.21875 
Q 50.828125 45.953125 50.828125 35.296875 
Q 50.828125 22.703125 48.234375 14.96875 
Q 45.65625 7.234375 40.5 3 
Q 35.359375 -1.21875 27.484375 -1.21875 
Q 17.140625 -1.21875 11.234375 6.203125 
Q 4.15625 15.140625 4.15625 35.296875 
M 13.1875 35.296875 
Q 13.1875 17.671875 17.3125 11.828125 
Q 21.4375 6 27.484375 6 
Q 33.546875 6 37.671875 11.859375 
Q 41.796875 17.71875 41.796875 35.296875 
Q 41.796875 52.984375 37.671875 58.78125 
Q 33.546875 64.59375 27.390625 64.59375 
Q 21.34375 64.59375 17.71875 59.46875 
Q 13.1875 52.9375 13.1875 35.296875 
" id="ArialMT-30"/>
       <path d="M 52.828125 31.203125 
L 5.5625 31.203125 
L 5.5625 39.40625 
L 52.828125 39.40625 
z
" id="ArialMT-2212"/>
       <path d="M 50.34375 8.453125 
L 50.34375 0 
L 3.03125 0 
Q 2.9375 3.171875 4.046875 6.109375 
Q 5.859375 10.9375 9.828125 15.625 
Q 13.8125 20.3125 21.34375 26.46875 
Q 33.015625 36.03125 37.109375 41.625 
Q 41.21875 47.21875 41.21875 52.203125 
Q 41.21875 57.421875 37.46875 61 
Q 33.734375 64.59375 27.734375 64.59375 
Q 21.390625 64.59375 17.578125 60.78125 
Q 13.765625 56.984375 13.71875 50.25 
L 4.6875 51.171875 
Q 5.609375 61.28125 11.65625 66.578125 
Q 17.71875 71.875 27.9375 71.875 
Q 38.234375 71.875 44.234375 66.15625 
Q 50.25 60.453125 50.25 52 
Q 50.25 47.703125 48.484375 43.546875 
Q 46.734375 39.40625 42.65625 34.8125 
Q 38.578125 30.21875 29.109375 22.21875 
Q 21.1875 15.578125 18.9375 13.203125 
Q 16.703125 10.84375 15.234375 8.453125 
z
" id="ArialMT-32"/>
      </defs>
      <g style="fill:#262626;" transform="translate(60.73828125 370.5578125)scale(0.1 -0.1)">
       <use xlink:href="#ArialMT-2212"/>
       <use x="58.3984375" xlink:href="#ArialMT-32"/>
       <use x="114.013671875" xlink:href="#ArialMT-30"/>
       <use x="169.62890625" xlink:href="#ArialMT-30"/>
      </g>
     </g>
    </g>
    <g id="xtick_2">
     <g id="line2d_4">
      <path clip-path="url(#p3701a1a4e3)" d="M 135.771429 356.4 
L 135.771429 39.6 
" style="fill:none;stroke:#ffffff;stroke-linecap:round;"/>
     </g>
     <g id="line2d_5"/>
     <g id="line2d_6"/>
     <g id="text_2">
      <!-- 0 -->
      <g style="fill:#262626;" transform="translate(132.990959821 370.5578125)scale(0.1 -0.1)">
       <use xlink:href="#ArialMT-30"/>
      </g>
     </g>
    </g>
    <g id="xtick_3">
     <g id="line2d_7">
      <path clip-path="url(#p3701a1a4e3)" d="M 199.542857 356.4 
L 199.542857 39.6 
" style="fill:none;stroke:#ffffff;stroke-linecap:round;"/>
     </g>
     <g id="line2d_8"/>
     <g id="line2d_9"/>
     <g id="text_3">
      <!-- 200 -->
      <g style="fill:#262626;" transform="translate(191.201450893 370.5578125)scale(0.1 -0.1)">
       <use xlink:href="#ArialMT-32"/>
       <use x="55.615234375" xlink:href="#ArialMT-30"/>
       <use x="111.23046875" xlink:href="#ArialMT-30"/>
      </g>
     </g>
    </g>
    <g id="xtick_4">
     <g id="line2d_10">
      <path clip-path="url(#p3701a1a4e3)" d="M 263.314286 356.4 
L 263.314286 39.6 
" style="fill:none;stroke:#ffffff;stroke-linecap:round;"/>
     </g>
     <g id="line2d_11"/>
     <g id="line2d_12"/>
     <g id="text_4">
      <!-- 400 -->
      <defs>
       <path d="M 32.328125 0 
L 32.328125 17.140625 
L 1.265625 17.140625 
L 1.265625 25.203125 
L 33.9375 71.578125 
L 41.109375 71.578125 
L 41.109375 25.203125 
L 50.78125 25.203125 
L 50.78125 17.140625 
L 41.109375 17.140625 
L 41.109375 0 
z
M 32.328125 25.203125 
L 32.328125 57.46875 
L 9.90625 25.203125 
z
" id="ArialMT-34"/>
      </defs>
      <g style="fill:#262626;" transform="translate(254.972879464 370.5578125)scale(0.1 -0.1)">
       <use xlink:href="#ArialMT-34"/>
       <use x="55.615234375" xlink:href="#ArialMT-30"/>
       <use x="111.23046875" xlink:href="#ArialMT-30"/>
      </g>
     </g>
    </g>
    <g id="xtick_5">
     <g id="line2d_13">
      <path clip-path="url(#p3701a1a4e3)" d="M 327.085714 356.4 
L 327.085714 39.6 
" style="fill:none;stroke:#ffffff;stroke-linecap:round;"/>
     </g>
     <g id="line2d_14"/>
     <g id="line2d_15"/>
     <g id="text_5">
      <!-- 600 -->
      <defs>
       <path d="M 49.75 54.046875 
L 41.015625 53.375 
Q 39.84375 58.546875 37.703125 60.890625 
Q 34.125 64.65625 28.90625 64.65625 
Q 24.703125 64.65625 21.53125 62.3125 
Q 17.390625 59.28125 14.984375 53.46875 
Q 12.59375 47.65625 12.5 36.921875 
Q 15.671875 41.75 20.265625 44.09375 
Q 24.859375 46.4375 29.890625 46.4375 
Q 38.671875 46.4375 44.84375 39.96875 
Q 51.03125 33.5 51.03125 23.25 
Q 51.03125 16.5 48.125 10.71875 
Q 45.21875 4.9375 40.140625 1.859375 
Q 35.0625 -1.21875 28.609375 -1.21875 
Q 17.625 -1.21875 10.6875 6.859375 
Q 3.765625 14.9375 3.765625 33.5 
Q 3.765625 54.25 11.421875 63.671875 
Q 18.109375 71.875 29.4375 71.875 
Q 37.890625 71.875 43.28125 67.140625 
Q 48.6875 62.40625 49.75 54.046875 
M 13.875 23.1875 
Q 13.875 18.65625 15.796875 14.5 
Q 17.71875 10.359375 21.1875 8.171875 
Q 24.65625 6 28.46875 6 
Q 34.03125 6 38.03125 10.484375 
Q 42.046875 14.984375 42.046875 22.703125 
Q 42.046875 30.125 38.078125 34.390625 
Q 34.125 38.671875 28.125 38.671875 
Q 22.171875 38.671875 18.015625 34.390625 
Q 13.875 30.125 13.875 23.1875 
" id="ArialMT-36"/>
      </defs>
      <g style="fill:#262626;" transform="translate(318.744308036 370.5578125)scale(0.1 -0.1)">
       <use xlink:href="#ArialMT-36"/>
       <use x="55.615234375" xlink:href="#ArialMT-30"/>
       <use x="111.23046875" xlink:href="#ArialMT-30"/>
      </g>
     </g>
    </g>
    <g id="xtick_6">
     <g id="line2d_16">
      <path clip-path="url(#p3701a1a4e3)" d="M 390.857143 356.4 
L 390.857143 39.6 
" style="fill:none;stroke:#ffffff;stroke-linecap:round;"/>
     </g>
     <g id="line2d_17"/>
     <g id="line2d_18"/>
     <g id="text_6">
      <!-- 800 -->
      <defs>
       <path d="M 17.671875 38.8125 
Q 12.203125 40.828125 9.5625 44.53125 
Q 6.9375 48.25 6.9375 53.421875 
Q 6.9375 61.234375 12.546875 66.546875 
Q 18.171875 71.875 27.484375 71.875 
Q 36.859375 71.875 42.578125 66.421875 
Q 48.296875 60.984375 48.296875 53.171875 
Q 48.296875 48.1875 45.671875 44.5 
Q 43.0625 40.828125 37.75 38.8125 
Q 44.34375 36.671875 47.78125 31.875 
Q 51.21875 27.09375 51.21875 20.453125 
Q 51.21875 11.28125 44.71875 5.03125 
Q 38.234375 -1.21875 27.640625 -1.21875 
Q 17.046875 -1.21875 10.546875 5.046875 
Q 4.046875 11.328125 4.046875 20.703125 
Q 4.046875 27.6875 7.59375 32.390625 
Q 11.140625 37.109375 17.671875 38.8125 
M 15.921875 53.71875 
Q 15.921875 48.640625 19.1875 45.40625 
Q 22.46875 42.1875 27.6875 42.1875 
Q 32.765625 42.1875 36.015625 45.375 
Q 39.265625 48.578125 39.265625 53.21875 
Q 39.265625 58.0625 35.90625 61.359375 
Q 32.5625 64.65625 27.59375 64.65625 
Q 22.5625 64.65625 19.234375 61.421875 
Q 15.921875 58.203125 15.921875 53.71875 
M 13.09375 20.65625 
Q 13.09375 16.890625 14.875 13.375 
Q 16.65625 9.859375 20.171875 7.921875 
Q 23.6875 6 27.734375 6 
Q 34.03125 6 38.125 10.046875 
Q 42.234375 14.109375 42.234375 20.359375 
Q 42.234375 26.703125 38.015625 30.859375 
Q 33.796875 35.015625 27.4375 35.015625 
Q 21.234375 35.015625 17.15625 30.90625 
Q 13.09375 26.8125 13.09375 20.65625 
" id="ArialMT-38"/>
      </defs>
      <g style="fill:#262626;" transform="translate(382.515736607 370.5578125)scale(0.1 -0.1)">
       <use xlink:href="#ArialMT-38"/>
       <use x="55.615234375" xlink:href="#ArialMT-30"/>
       <use x="111.23046875" xlink:href="#ArialMT-30"/>
      </g>
     </g>
    </g>
    <g id="xtick_7">
     <g id="line2d_19">
      <path clip-path="url(#p3701a1a4e3)" d="M 454.628571 356.4 
L 454.628571 39.6 
" style="fill:none;stroke:#ffffff;stroke-linecap:round;"/>
     </g>
     <g id="line2d_20"/>
     <g id="line2d_21"/>
     <g id="text_7">
      <!-- 1000 -->
      <defs>
       <path d="M 37.25 0 
L 28.46875 0 
L 28.46875 56 
Q 25.296875 52.984375 20.140625 49.953125 
Q 14.984375 46.921875 10.890625 45.40625 
L 10.890625 53.90625 
Q 18.265625 57.375 23.78125 62.296875 
Q 29.296875 67.234375 31.59375 71.875 
L 37.25 71.875 
z
" id="ArialMT-31"/>
      </defs>
      <g style="fill:#262626;" transform="translate(443.506696429 370.5578125)scale(0.1 -0.1)">
       <use xlink:href="#ArialMT-31"/>
       <use x="55.615234375" xlink:href="#ArialMT-30"/>
       <use x="111.23046875" xlink:href="#ArialMT-30"/>
       <use x="166.845703125" xlink:href="#ArialMT-30"/>
      </g>
     </g>
    </g>
    <g id="xtick_8">
     <g id="line2d_22">
      <path clip-path="url(#p3701a1a4e3)" d="M 518.4 356.4 
L 518.4 39.6 
" style="fill:none;stroke:#ffffff;stroke-linecap:round;"/>
     </g>
     <g id="line2d_23"/>
     <g id="line2d_24"/>
     <g id="text_8">
      <!-- 1200 -->
      <g style="fill:#262626;" transform="translate(507.278125 370.5578125)scale(0.1 -0.1)">
       <use xlink:href="#ArialMT-31"/>
       <use x="55.615234375" xlink:href="#ArialMT-32"/>
       <use x="111.23046875" xlink:href="#ArialMT-30"/>
       <use x="166.845703125" xlink:href="#ArialMT-30"/>
      </g>
     </g>
    </g>
    <g id="text_9">
     <!-- orbital_period -->
     <defs>
      <path d="M 14.703125 0 
L 6.546875 0 
L 6.546875 71.578125 
L 15.328125 71.578125 
L 15.328125 46.046875 
Q 20.90625 53.03125 29.546875 53.03125 
Q 34.328125 53.03125 38.59375 51.09375 
Q 42.875 49.171875 45.625 45.671875 
Q 48.390625 42.1875 49.953125 37.25 
Q 51.515625 32.328125 51.515625 26.703125 
Q 51.515625 13.375 44.921875 6.09375 
Q 38.328125 -1.171875 29.109375 -1.171875 
Q 19.921875 -1.171875 14.703125 6.5 
z
M 14.59375 26.3125 
Q 14.59375 17 17.140625 12.84375 
Q 21.296875 6.0625 28.375 6.0625 
Q 34.125 6.0625 38.328125 11.0625 
Q 42.53125 16.0625 42.53125 25.984375 
Q 42.53125 36.140625 38.5 40.96875 
Q 34.46875 45.796875 28.765625 45.796875 
Q 23 45.796875 18.796875 40.796875 
Q 14.59375 35.796875 14.59375 26.3125 
" id="ArialMT-62"/>
      <path d="M 40.4375 6.390625 
Q 35.546875 2.25 31.03125 0.53125 
Q 26.515625 -1.171875 21.34375 -1.171875 
Q 12.796875 -1.171875 8.203125 3 
Q 3.609375 7.171875 3.609375 13.671875 
Q 3.609375 17.484375 5.34375 20.625 
Q 7.078125 23.78125 9.890625 25.6875 
Q 12.703125 27.59375 16.21875 28.5625 
Q 18.796875 29.25 24.03125 29.890625 
Q 34.671875 31.15625 39.703125 32.90625 
Q 39.75 34.71875 39.75 35.203125 
Q 39.75 40.578125 37.25 42.78125 
Q 33.890625 45.75 27.25 45.75 
Q 21.046875 45.75 18.09375 43.578125 
Q 15.140625 41.40625 13.71875 35.890625 
L 5.125 37.0625 
Q 6.296875 42.578125 8.984375 45.96875 
Q 11.671875 49.359375 16.75 51.1875 
Q 21.828125 53.03125 28.515625 53.03125 
Q 35.15625 53.03125 39.296875 51.46875 
Q 43.453125 49.90625 45.40625 47.53125 
Q 47.359375 45.171875 48.140625 41.546875 
Q 48.578125 39.3125 48.578125 33.453125 
L 48.578125 21.734375 
Q 48.578125 9.46875 49.140625 6.21875 
Q 49.703125 2.984375 51.375 0 
L 42.1875 0 
Q 40.828125 2.734375 40.4375 6.390625 
M 39.703125 26.03125 
Q 34.90625 24.078125 25.34375 22.703125 
Q 19.921875 21.921875 17.671875 20.9375 
Q 15.4375 19.96875 14.203125 18.09375 
Q 12.984375 16.21875 12.984375 13.921875 
Q 12.984375 10.40625 15.640625 8.0625 
Q 18.3125 5.71875 23.4375 5.71875 
Q 28.515625 5.71875 32.46875 7.9375 
Q 36.421875 10.15625 38.28125 14.015625 
Q 39.703125 17 39.703125 22.796875 
z
" id="ArialMT-61"/>
      <path d="M 42.09375 16.703125 
L 51.171875 15.578125 
Q 49.03125 7.625 43.21875 3.21875 
Q 37.40625 -1.171875 28.375 -1.171875 
Q 17 -1.171875 10.328125 5.828125 
Q 3.65625 12.84375 3.65625 25.484375 
Q 3.65625 38.578125 10.390625 45.796875 
Q 17.140625 53.03125 27.875 53.03125 
Q 38.28125 53.03125 44.875 45.953125 
Q 51.46875 38.875 51.46875 26.03125 
Q 51.46875 25.25 51.421875 23.6875 
L 12.75 23.6875 
Q 13.234375 15.140625 17.578125 10.59375 
Q 21.921875 6.0625 28.421875 6.0625 
Q 33.25 6.0625 36.671875 8.59375 
Q 40.09375 11.140625 42.09375 16.703125 
M 13.234375 30.90625 
L 42.1875 30.90625 
Q 41.609375 37.453125 38.875 40.71875 
Q 34.671875 45.796875 27.984375 45.796875 
Q 21.921875 45.796875 17.796875 41.75 
Q 13.671875 37.703125 13.234375 30.90625 
" id="ArialMT-65"/>
      <path d="M 40.234375 0 
L 40.234375 6.546875 
Q 35.296875 -1.171875 25.734375 -1.171875 
Q 19.53125 -1.171875 14.328125 2.25 
Q 9.125 5.671875 6.265625 11.796875 
Q 3.421875 17.921875 3.421875 25.875 
Q 3.421875 33.640625 6 39.96875 
Q 8.59375 46.296875 13.765625 49.65625 
Q 18.953125 53.03125 25.34375 53.03125 
Q 30.03125 53.03125 33.6875 51.046875 
Q 37.359375 49.078125 39.65625 45.90625 
L 39.65625 71.578125 
L 48.390625 71.578125 
L 48.390625 0 
z
M 12.453125 25.875 
Q 12.453125 15.921875 16.640625 10.984375 
Q 20.84375 6.0625 26.5625 6.0625 
Q 32.328125 6.0625 36.34375 10.765625 
Q 40.375 15.484375 40.375 25.140625 
Q 40.375 35.796875 36.265625 40.765625 
Q 32.171875 45.75 26.171875 45.75 
Q 20.3125 45.75 16.375 40.96875 
Q 12.453125 36.1875 12.453125 25.875 
" id="ArialMT-64"/>
      <path d="M 25.78125 7.859375 
L 27.046875 0.09375 
Q 23.34375 -0.6875 20.40625 -0.6875 
Q 15.625 -0.6875 12.984375 0.828125 
Q 10.359375 2.34375 9.28125 4.8125 
Q 8.203125 7.28125 8.203125 15.1875 
L 8.203125 45.015625 
L 1.765625 45.015625 
L 1.765625 51.859375 
L 8.203125 51.859375 
L 8.203125 64.703125 
L 16.9375 69.96875 
L 16.9375 51.859375 
L 25.78125 51.859375 
L 25.78125 45.015625 
L 16.9375 45.015625 
L 16.9375 14.703125 
Q 16.9375 10.9375 17.40625 9.859375 
Q 17.875 8.796875 18.921875 8.15625 
Q 19.96875 7.515625 21.921875 7.515625 
Q 23.390625 7.515625 25.78125 7.859375 
" id="ArialMT-74"/>
      <path d="M 6.640625 61.46875 
L 6.640625 71.578125 
L 15.4375 71.578125 
L 15.4375 61.46875 
z
M 6.640625 0 
L 6.640625 51.859375 
L 15.4375 51.859375 
L 15.4375 0 
z
" id="ArialMT-69"/>
      <path d="M 6.59375 -19.875 
L 6.59375 51.859375 
L 14.59375 51.859375 
L 14.59375 45.125 
Q 17.4375 49.078125 21 51.046875 
Q 24.5625 53.03125 29.640625 53.03125 
Q 36.28125 53.03125 41.359375 49.609375 
Q 46.4375 46.1875 49.015625 39.953125 
Q 51.609375 33.734375 51.609375 26.3125 
Q 51.609375 18.359375 48.75 11.984375 
Q 45.90625 5.609375 40.453125 2.21875 
Q 35.015625 -1.171875 29 -1.171875 
Q 24.609375 -1.171875 21.109375 0.6875 
Q 17.625 2.546875 15.375 5.375 
L 15.375 -19.875 
z
M 14.546875 25.640625 
Q 14.546875 15.625 18.59375 10.84375 
Q 22.65625 6.0625 28.421875 6.0625 
Q 34.28125 6.0625 38.453125 11.015625 
Q 42.625 15.96875 42.625 26.375 
Q 42.625 36.28125 38.546875 41.203125 
Q 34.46875 46.140625 28.8125 46.140625 
Q 23.1875 46.140625 18.859375 40.890625 
Q 14.546875 35.640625 14.546875 25.640625 
" id="ArialMT-70"/>
      <path d="M 6.5 0 
L 6.5 51.859375 
L 14.40625 51.859375 
L 14.40625 44 
Q 17.4375 49.515625 20 51.265625 
Q 22.5625 53.03125 25.640625 53.03125 
Q 30.078125 53.03125 34.671875 50.203125 
L 31.640625 42.046875 
Q 28.421875 43.953125 25.203125 43.953125 
Q 22.3125 43.953125 20.015625 42.21875 
Q 17.71875 40.484375 16.75 37.40625 
Q 15.28125 32.71875 15.28125 27.15625 
L 15.28125 0 
z
" id="ArialMT-72"/>
      <path d="M 6.390625 0 
L 6.390625 71.578125 
L 15.1875 71.578125 
L 15.1875 0 
z
" id="ArialMT-6c"/>
      <path d="M 3.328125 25.921875 
Q 3.328125 40.328125 11.328125 47.265625 
Q 18.015625 53.03125 27.640625 53.03125 
Q 38.328125 53.03125 45.109375 46.015625 
Q 51.90625 39.015625 51.90625 26.65625 
Q 51.90625 16.65625 48.90625 10.90625 
Q 45.90625 5.171875 40.15625 2 
Q 34.421875 -1.171875 27.640625 -1.171875 
Q 16.75 -1.171875 10.03125 5.8125 
Q 3.328125 12.796875 3.328125 25.921875 
M 12.359375 25.921875 
Q 12.359375 15.96875 16.703125 11.015625 
Q 21.046875 6.0625 27.640625 6.0625 
Q 34.1875 6.0625 38.53125 11.03125 
Q 42.875 16.015625 42.875 26.21875 
Q 42.875 35.84375 38.5 40.796875 
Q 34.125 45.75 27.640625 45.75 
Q 21.046875 45.75 16.703125 40.8125 
Q 12.359375 35.890625 12.359375 25.921875 
" id="ArialMT-6f"/>
      <path d="M -1.515625 -19.875 
L -1.515625 -13.53125 
L 56.734375 -13.53125 
L 56.734375 -19.875 
z
" id="ArialMT-5f"/>
     </defs>
     <g style="fill:#262626;" transform="translate(261.87515625 385.41890625)scale(0.11 -0.11)">
      <use xlink:href="#ArialMT-6f"/>
      <use x="55.615234375" xlink:href="#ArialMT-72"/>
      <use x="88.916015625" xlink:href="#ArialMT-62"/>
      <use x="144.53125" xlink:href="#ArialMT-69"/>
      <use x="166.748046875" xlink:href="#ArialMT-74"/>
      <use x="194.53125" xlink:href="#ArialMT-61"/>
      <use x="250.146484375" xlink:href="#ArialMT-6c"/>
      <use x="272.36328125" xlink:href="#ArialMT-5f"/>
      <use x="327.978515625" xlink:href="#ArialMT-70"/>
      <use x="383.59375" xlink:href="#ArialMT-65"/>
      <use x="439.208984375" xlink:href="#ArialMT-72"/>
      <use x="472.509765625" xlink:href="#ArialMT-69"/>
      <use x="494.7265625" xlink:href="#ArialMT-6f"/>
      <use x="550.341796875" xlink:href="#ArialMT-64"/>
     </g>
    </g>
   </g>
   <g id="matplotlib.axis_2">
    <g id="ytick_1">
     <g id="line2d_25"/>
     <g id="line2d_26"/>
     <g id="text_10">
      <!-- Radial Velocity -->
      <defs>
       <path d="M 7.859375 0 
L 7.859375 71.578125 
L 39.59375 71.578125 
Q 49.171875 71.578125 54.140625 69.640625 
Q 59.125 67.71875 62.109375 62.828125 
Q 65.09375 57.953125 65.09375 52.046875 
Q 65.09375 44.4375 60.15625 39.203125 
Q 55.21875 33.984375 44.921875 32.5625 
Q 48.6875 30.765625 50.640625 29 
Q 54.78125 25.203125 58.5 19.484375 
L 70.953125 0 
L 59.03125 0 
L 49.5625 14.890625 
Q 45.40625 21.34375 42.71875 24.75 
Q 40.046875 28.171875 37.921875 29.53125 
Q 35.796875 30.90625 33.59375 31.453125 
Q 31.984375 31.78125 28.328125 31.78125 
L 17.328125 31.78125 
L 17.328125 0 
z
M 17.328125 39.984375 
L 37.703125 39.984375 
Q 44.1875 39.984375 47.84375 41.328125 
Q 51.515625 42.671875 53.421875 45.625 
Q 55.328125 48.578125 55.328125 52.046875 
Q 55.328125 57.125 51.640625 60.390625 
Q 47.953125 63.671875 39.984375 63.671875 
L 17.328125 63.671875 
z
" id="ArialMT-52"/>
       <path d="M 40.4375 19 
L 49.078125 17.875 
Q 47.65625 8.9375 41.8125 3.875 
Q 35.984375 -1.171875 27.484375 -1.171875 
Q 16.84375 -1.171875 10.375 5.78125 
Q 3.90625 12.75 3.90625 25.734375 
Q 3.90625 34.125 6.6875 40.421875 
Q 9.46875 46.734375 15.15625 49.875 
Q 20.84375 53.03125 27.546875 53.03125 
Q 35.984375 53.03125 41.359375 48.75 
Q 46.734375 44.484375 48.25 36.625 
L 39.703125 35.296875 
Q 38.484375 40.53125 35.375 43.15625 
Q 32.28125 45.796875 27.875 45.796875 
Q 21.234375 45.796875 17.078125 41.03125 
Q 12.9375 36.28125 12.9375 25.984375 
Q 12.9375 15.53125 16.9375 10.796875 
Q 20.953125 6.0625 27.390625 6.0625 
Q 32.5625 6.0625 36.03125 9.234375 
Q 39.5 12.40625 40.4375 19 
" id="ArialMT-63"/>
       <path d="M 28.171875 0 
L 0.4375 71.578125 
L 10.6875 71.578125 
L 29.296875 19.578125 
Q 31.546875 13.328125 33.0625 7.859375 
Q 34.71875 13.71875 36.921875 19.578125 
L 56.25 71.578125 
L 65.921875 71.578125 
L 37.890625 0 
z
" id="ArialMT-56"/>
       <path d="M 6.203125 -19.96875 
L 5.21875 -11.71875 
Q 8.109375 -12.5 10.25 -12.5 
Q 13.1875 -12.5 14.9375 -11.515625 
Q 16.703125 -10.546875 17.828125 -8.796875 
Q 18.65625 -7.46875 20.515625 -2.25 
Q 20.75 -1.515625 21.296875 -0.09375 
L 1.609375 51.859375 
L 11.078125 51.859375 
L 21.875 21.828125 
Q 23.96875 16.109375 25.640625 9.8125 
Q 27.15625 15.875 29.25 21.625 
L 40.328125 51.859375 
L 49.125 51.859375 
L 29.390625 -0.875 
Q 26.21875 -9.421875 24.46875 -12.640625 
Q 22.125 -17 19.09375 -19.015625 
Q 16.0625 -21.046875 11.859375 -21.046875 
Q 9.328125 -21.046875 6.203125 -19.96875 
" id="ArialMT-79"/>
       <path id="ArialMT-20"/>
      </defs>
      <g style="fill:#262626;" transform="translate(-1.1328125 68.5265625)scale(0.1 -0.1)">
       <use xlink:href="#ArialMT-52"/>
       <use x="72.216796875" xlink:href="#ArialMT-61"/>
       <use x="127.83203125" xlink:href="#ArialMT-64"/>
       <use x="183.447265625" xlink:href="#ArialMT-69"/>
       <use x="205.6640625" xlink:href="#ArialMT-61"/>
       <use x="261.279296875" xlink:href="#ArialMT-6c"/>
       <use x="283.49609375" xlink:href="#ArialMT-20"/>
       <use x="311.279296875" xlink:href="#ArialMT-56"/>
       <use x="377.900390625" xlink:href="#ArialMT-65"/>
       <use x="433.515625" xlink:href="#ArialMT-6c"/>
       <use x="455.732421875" xlink:href="#ArialMT-6f"/>
       <use x="511.34765625" xlink:href="#ArialMT-63"/>
       <use x="561.34765625" xlink:href="#ArialMT-69"/>
       <use x="583.564453125" xlink:href="#ArialMT-74"/>
       <use x="611.34765625" xlink:href="#ArialMT-79"/>
      </g>
     </g>
    </g>
    <g id="ytick_2">
     <g id="line2d_27"/>
     <g id="line2d_28"/>
     <g id="text_11">
      <!-- Transit -->
      <defs>
       <path d="M 6.59375 0 
L 6.59375 51.859375 
L 14.5 51.859375 
L 14.5 44.484375 
Q 20.21875 53.03125 31 53.03125 
Q 35.6875 53.03125 39.625 51.34375 
Q 43.5625 49.65625 45.515625 46.921875 
Q 47.46875 44.1875 48.25 40.4375 
Q 48.734375 37.984375 48.734375 31.890625 
L 48.734375 0 
L 39.9375 0 
L 39.9375 31.546875 
Q 39.9375 36.921875 38.90625 39.578125 
Q 37.890625 42.234375 35.28125 43.8125 
Q 32.671875 45.40625 29.15625 45.40625 
Q 23.53125 45.40625 19.453125 41.84375 
Q 15.375 38.28125 15.375 28.328125 
L 15.375 0 
z
" id="ArialMT-6e"/>
       <path d="M 25.921875 0 
L 25.921875 63.140625 
L 2.34375 63.140625 
L 2.34375 71.578125 
L 59.078125 71.578125 
L 59.078125 63.140625 
L 35.40625 63.140625 
L 35.40625 0 
z
" id="ArialMT-54"/>
       <path d="M 3.078125 15.484375 
L 11.765625 16.84375 
Q 12.5 11.625 15.84375 8.84375 
Q 19.1875 6.0625 25.203125 6.0625 
Q 31.25 6.0625 34.171875 8.515625 
Q 37.109375 10.984375 37.109375 14.3125 
Q 37.109375 17.28125 34.515625 19 
Q 32.71875 20.171875 25.53125 21.96875 
Q 15.875 24.421875 12.140625 26.203125 
Q 8.40625 27.984375 6.46875 31.125 
Q 4.546875 34.28125 4.546875 38.09375 
Q 4.546875 41.546875 6.125 44.5 
Q 7.71875 47.46875 10.453125 49.421875 
Q 12.5 50.921875 16.03125 51.96875 
Q 19.578125 53.03125 23.640625 53.03125 
Q 29.734375 53.03125 34.34375 51.265625 
Q 38.96875 49.515625 41.15625 46.5 
Q 43.359375 43.5 44.1875 38.484375 
L 35.59375 37.3125 
Q 35.015625 41.3125 32.203125 43.546875 
Q 29.390625 45.796875 24.265625 45.796875 
Q 18.21875 45.796875 15.625 43.796875 
Q 13.03125 41.796875 13.03125 39.109375 
Q 13.03125 37.40625 14.109375 36.03125 
Q 15.1875 34.625 17.484375 33.6875 
Q 18.796875 33.203125 25.25 31.453125 
Q 34.578125 28.953125 38.25 27.359375 
Q 41.9375 25.78125 44.03125 22.75 
Q 46.140625 19.734375 46.140625 15.234375 
Q 46.140625 10.84375 43.578125 6.953125 
Q 41.015625 3.078125 36.171875 0.953125 
Q 31.34375 -1.171875 25.25 -1.171875 
Q 15.140625 -1.171875 9.84375 3.03125 
Q 4.546875 7.234375 3.078125 15.484375 
" id="ArialMT-73"/>
      </defs>
      <g style="fill:#262626;" transform="translate(34.4453125 121.38515625)scale(0.1 -0.1)">
       <use xlink:href="#ArialMT-54"/>
       <use x="61.037109375" xlink:href="#ArialMT-72"/>
       <use x="94.337890625" xlink:href="#ArialMT-61"/>
       <use x="149.953125" xlink:href="#ArialMT-6e"/>
       <use x="205.568359375" xlink:href="#ArialMT-73"/>
       <use x="255.568359375" xlink:href="#ArialMT-69"/>
       <use x="277.78515625" xlink:href="#ArialMT-74"/>
      </g>
     </g>
    </g>
    <g id="ytick_3">
     <g id="line2d_29"/>
     <g id="line2d_30"/>
     <g id="text_12">
      <!-- Astrometry -->
      <defs>
       <path d="M -0.140625 0 
L 27.34375 71.578125 
L 37.546875 71.578125 
L 66.84375 0 
L 56.0625 0 
L 47.703125 21.6875 
L 17.78125 21.6875 
L 9.90625 0 
z
M 20.515625 29.390625 
L 44.78125 29.390625 
L 37.3125 49.21875 
Q 33.890625 58.25 32.234375 64.0625 
Q 30.859375 57.171875 28.375 50.390625 
z
" id="ArialMT-41"/>
       <path d="M 6.59375 0 
L 6.59375 51.859375 
L 14.453125 51.859375 
L 14.453125 44.578125 
Q 16.890625 48.390625 20.9375 50.703125 
Q 25 53.03125 30.171875 53.03125 
Q 35.9375 53.03125 39.625 50.640625 
Q 43.3125 48.25 44.828125 43.953125 
Q 50.984375 53.03125 60.84375 53.03125 
Q 68.5625 53.03125 72.703125 48.75 
Q 76.859375 44.484375 76.859375 35.59375 
L 76.859375 0 
L 68.109375 0 
L 68.109375 32.671875 
Q 68.109375 37.9375 67.25 40.25 
Q 66.40625 42.578125 64.15625 43.984375 
Q 61.921875 45.40625 58.890625 45.40625 
Q 53.421875 45.40625 49.796875 41.765625 
Q 46.1875 38.140625 46.1875 30.125 
L 46.1875 0 
L 37.40625 0 
L 37.40625 33.6875 
Q 37.40625 39.546875 35.25 42.46875 
Q 33.109375 45.40625 28.21875 45.40625 
Q 24.515625 45.40625 21.359375 43.453125 
Q 18.21875 41.5 16.796875 37.734375 
Q 15.375 33.984375 15.375 26.90625 
L 15.375 0 
z
" id="ArialMT-6d"/>
      </defs>
      <g style="fill:#262626;" transform="translate(16.6625 174.1265625)scale(0.1 -0.1)">
       <use xlink:href="#ArialMT-41"/>
       <use x="66.69921875" xlink:href="#ArialMT-73"/>
       <use x="116.69921875" xlink:href="#ArialMT-74"/>
       <use x="144.482421875" xlink:href="#ArialMT-72"/>
       <use x="177.783203125" xlink:href="#ArialMT-6f"/>
       <use x="233.3984375" xlink:href="#ArialMT-6d"/>
       <use x="316.69921875" xlink:href="#ArialMT-65"/>
       <use x="372.314453125" xlink:href="#ArialMT-74"/>
       <use x="400.09765625" xlink:href="#ArialMT-72"/>
       <use x="433.3984375" xlink:href="#ArialMT-79"/>
      </g>
     </g>
    </g>
    <g id="ytick_4">
     <g id="line2d_31"/>
     <g id="line2d_32"/>
     <g id="text_13">
      <!-- Transit Timing Variations -->
      <defs>
       <path d="M 4.984375 -4.296875 
L 13.53125 -5.5625 
Q 14.0625 -9.515625 16.5 -11.328125 
Q 19.78125 -13.765625 25.4375 -13.765625 
Q 31.546875 -13.765625 34.859375 -11.328125 
Q 38.1875 -8.890625 39.359375 -4.5 
Q 40.046875 -1.8125 39.984375 6.78125 
Q 34.234375 0 25.640625 0 
Q 14.9375 0 9.078125 7.71875 
Q 3.21875 15.4375 3.21875 26.21875 
Q 3.21875 33.640625 5.90625 39.90625 
Q 8.59375 46.1875 13.6875 49.609375 
Q 18.796875 53.03125 25.6875 53.03125 
Q 34.859375 53.03125 40.828125 45.609375 
L 40.828125 51.859375 
L 48.921875 51.859375 
L 48.921875 7.03125 
Q 48.921875 -5.078125 46.453125 -10.125 
Q 44 -15.1875 38.640625 -18.109375 
Q 33.296875 -21.046875 25.484375 -21.046875 
Q 16.21875 -21.046875 10.5 -16.875 
Q 4.78125 -12.703125 4.984375 -4.296875 
M 12.25 26.859375 
Q 12.25 16.65625 16.296875 11.96875 
Q 20.359375 7.28125 26.46875 7.28125 
Q 32.515625 7.28125 36.609375 11.9375 
Q 40.71875 16.609375 40.71875 26.5625 
Q 40.71875 36.078125 36.5 40.90625 
Q 32.28125 45.75 26.3125 45.75 
Q 20.453125 45.75 16.34375 40.984375 
Q 12.25 36.234375 12.25 26.859375 
" id="ArialMT-67"/>
      </defs>
      <g style="fill:#262626;" transform="translate(-45.5625 226.9265625)scale(0.1 -0.1)">
       <use xlink:href="#ArialMT-54"/>
       <use x="61.037109375" xlink:href="#ArialMT-72"/>
       <use x="94.337890625" xlink:href="#ArialMT-61"/>
       <use x="149.953125" xlink:href="#ArialMT-6e"/>
       <use x="205.568359375" xlink:href="#ArialMT-73"/>
       <use x="255.568359375" xlink:href="#ArialMT-69"/>
       <use x="277.78515625" xlink:href="#ArialMT-74"/>
       <use x="305.568359375" xlink:href="#ArialMT-20"/>
       <use x="333.3359375" xlink:href="#ArialMT-54"/>
       <use x="394.373046875" xlink:href="#ArialMT-69"/>
       <use x="416.58984375" xlink:href="#ArialMT-6d"/>
       <use x="499.890625" xlink:href="#ArialMT-69"/>
       <use x="522.107421875" xlink:href="#ArialMT-6e"/>
       <use x="577.72265625" xlink:href="#ArialMT-67"/>
       <use x="633.337890625" xlink:href="#ArialMT-20"/>
       <use x="661.12109375" xlink:href="#ArialMT-56"/>
       <use x="727.7109375" xlink:href="#ArialMT-61"/>
       <use x="783.326171875" xlink:href="#ArialMT-72"/>
       <use x="816.626953125" xlink:href="#ArialMT-69"/>
       <use x="838.84375" xlink:href="#ArialMT-61"/>
       <use x="894.458984375" xlink:href="#ArialMT-74"/>
       <use x="922.2421875" xlink:href="#ArialMT-69"/>
       <use x="944.458984375" xlink:href="#ArialMT-6f"/>
       <use x="1000.07421875" xlink:href="#ArialMT-6e"/>
       <use x="1055.68945312" xlink:href="#ArialMT-73"/>
      </g>
     </g>
    </g>
    <g id="ytick_5">
     <g id="line2d_33"/>
     <g id="line2d_34"/>
     <g id="text_14">
      <!-- Orbital Brightness Modulation -->
      <defs>
       <path d="M 40.578125 0 
L 40.578125 7.625 
Q 34.515625 -1.171875 24.125 -1.171875 
Q 19.53125 -1.171875 15.546875 0.578125 
Q 11.578125 2.34375 9.640625 5 
Q 7.71875 7.671875 6.9375 11.53125 
Q 6.390625 14.109375 6.390625 19.734375 
L 6.390625 51.859375 
L 15.1875 51.859375 
L 15.1875 23.09375 
Q 15.1875 16.21875 15.71875 13.8125 
Q 16.546875 10.359375 19.234375 8.375 
Q 21.921875 6.390625 25.875 6.390625 
Q 29.828125 6.390625 33.296875 8.421875 
Q 36.765625 10.453125 38.203125 13.9375 
Q 39.65625 17.4375 39.65625 24.078125 
L 39.65625 51.859375 
L 48.4375 51.859375 
L 48.4375 0 
z
" id="ArialMT-75"/>
       <path d="M 7.421875 0 
L 7.421875 71.578125 
L 21.6875 71.578125 
L 38.625 20.90625 
Q 40.96875 13.8125 42.046875 10.296875 
Q 43.265625 14.203125 45.84375 21.78125 
L 62.984375 71.578125 
L 75.734375 71.578125 
L 75.734375 0 
L 66.609375 0 
L 66.609375 59.90625 
L 45.796875 0 
L 37.25 0 
L 16.546875 60.9375 
L 16.546875 0 
z
" id="ArialMT-4d"/>
       <path d="M 7.328125 0 
L 7.328125 71.578125 
L 34.1875 71.578125 
Q 42.390625 71.578125 47.34375 69.40625 
Q 52.296875 67.234375 55.09375 62.71875 
Q 57.90625 58.203125 57.90625 53.265625 
Q 57.90625 48.6875 55.421875 44.625 
Q 52.9375 40.578125 47.90625 38.09375 
Q 54.390625 36.1875 57.875 31.59375 
Q 61.375 27 61.375 20.75 
Q 61.375 15.71875 59.25 11.390625 
Q 57.125 7.078125 54 4.734375 
Q 50.875 2.390625 46.15625 1.1875 
Q 41.453125 0 34.625 0 
z
M 16.796875 41.5 
L 32.28125 41.5 
Q 38.578125 41.5 41.3125 42.328125 
Q 44.921875 43.40625 46.75 45.890625 
Q 48.578125 48.390625 48.578125 52.15625 
Q 48.578125 55.71875 46.875 58.421875 
Q 45.171875 61.140625 41.984375 62.140625 
Q 38.8125 63.140625 31.109375 63.140625 
L 16.796875 63.140625 
z
M 16.796875 8.453125 
L 34.625 8.453125 
Q 39.203125 8.453125 41.0625 8.796875 
Q 44.34375 9.375 46.53125 10.734375 
Q 48.734375 12.109375 50.140625 14.71875 
Q 51.5625 17.328125 51.5625 20.75 
Q 51.5625 24.75 49.515625 27.703125 
Q 47.46875 30.671875 43.828125 31.859375 
Q 40.1875 33.0625 33.34375 33.0625 
L 16.796875 33.0625 
z
" id="ArialMT-42"/>
       <path d="M 6.59375 0 
L 6.59375 71.578125 
L 15.375 71.578125 
L 15.375 45.90625 
Q 21.53125 53.03125 30.90625 53.03125 
Q 36.671875 53.03125 40.921875 50.75 
Q 45.171875 48.484375 47 44.484375 
Q 48.828125 40.484375 48.828125 32.859375 
L 48.828125 0 
L 40.046875 0 
L 40.046875 32.859375 
Q 40.046875 39.453125 37.1875 42.453125 
Q 34.328125 45.453125 29.109375 45.453125 
Q 25.203125 45.453125 21.75 43.421875 
Q 18.3125 41.40625 16.84375 37.9375 
Q 15.375 34.46875 15.375 28.375 
L 15.375 0 
z
" id="ArialMT-68"/>
       <path d="M 4.828125 34.859375 
Q 4.828125 52.6875 14.390625 62.765625 
Q 23.96875 72.859375 39.109375 72.859375 
Q 49.03125 72.859375 56.984375 68.109375 
Q 64.9375 63.375 69.109375 54.90625 
Q 73.296875 46.4375 73.296875 35.6875 
Q 73.296875 24.8125 68.890625 16.21875 
Q 64.5 7.625 56.4375 3.203125 
Q 48.390625 -1.21875 39.0625 -1.21875 
Q 28.953125 -1.21875 20.984375 3.65625 
Q 13.03125 8.546875 8.921875 16.984375 
Q 4.828125 25.4375 4.828125 34.859375 
M 14.59375 34.71875 
Q 14.59375 21.78125 21.546875 14.328125 
Q 28.515625 6.890625 39.015625 6.890625 
Q 49.703125 6.890625 56.609375 14.40625 
Q 63.53125 21.921875 63.53125 35.75 
Q 63.53125 44.484375 60.578125 51 
Q 57.625 57.515625 51.921875 61.109375 
Q 46.234375 64.703125 39.15625 64.703125 
Q 29.109375 64.703125 21.84375 57.78125 
Q 14.59375 50.875 14.59375 34.71875 
" id="ArialMT-4f"/>
      </defs>
      <g style="fill:#262626;" transform="translate(-66.16875 279.790625)scale(0.1 -0.1)">
       <use xlink:href="#ArialMT-4f"/>
       <use x="77.783203125" xlink:href="#ArialMT-72"/>
       <use x="111.083984375" xlink:href="#ArialMT-62"/>
       <use x="166.69921875" xlink:href="#ArialMT-69"/>
       <use x="188.916015625" xlink:href="#ArialMT-74"/>
       <use x="216.69921875" xlink:href="#ArialMT-61"/>
       <use x="272.314453125" xlink:href="#ArialMT-6c"/>
       <use x="294.53125" xlink:href="#ArialMT-20"/>
       <use x="322.314453125" xlink:href="#ArialMT-42"/>
       <use x="389.013671875" xlink:href="#ArialMT-72"/>
       <use x="422.314453125" xlink:href="#ArialMT-69"/>
       <use x="444.53125" xlink:href="#ArialMT-67"/>
       <use x="500.146484375" xlink:href="#ArialMT-68"/>
       <use x="555.76171875" xlink:href="#ArialMT-74"/>
       <use x="583.544921875" xlink:href="#ArialMT-6e"/>
       <use x="639.16015625" xlink:href="#ArialMT-65"/>
       <use x="694.775390625" xlink:href="#ArialMT-73"/>
       <use x="744.775390625" xlink:href="#ArialMT-73"/>
       <use x="794.775390625" xlink:href="#ArialMT-20"/>
       <use x="822.55859375" xlink:href="#ArialMT-4d"/>
       <use x="905.859375" xlink:href="#ArialMT-6f"/>
       <use x="961.474609375" xlink:href="#ArialMT-64"/>
       <use x="1017.08984375" xlink:href="#ArialMT-75"/>
       <use x="1072.70507812" xlink:href="#ArialMT-6c"/>
       <use x="1094.921875" xlink:href="#ArialMT-61"/>
       <use x="1150.53710938" xlink:href="#ArialMT-74"/>
       <use x="1178.3203125" xlink:href="#ArialMT-69"/>
       <use x="1200.53710938" xlink:href="#ArialMT-6f"/>
       <use x="1256.15234375" xlink:href="#ArialMT-6e"/>
      </g>
     </g>
    </g>
    <g id="ytick_6">
     <g id="line2d_35"/>
     <g id="line2d_36"/>
     <g id="text_15">
      <!-- Pulsar Timing -->
      <defs>
       <path d="M 7.71875 0 
L 7.71875 71.578125 
L 34.71875 71.578125 
Q 41.84375 71.578125 45.609375 70.90625 
Q 50.875 70.015625 54.4375 67.546875 
Q 58.015625 65.09375 60.1875 60.640625 
Q 62.359375 56.203125 62.359375 50.875 
Q 62.359375 41.75 56.546875 35.421875 
Q 50.734375 29.109375 35.546875 29.109375 
L 17.1875 29.109375 
L 17.1875 0 
z
M 17.1875 37.546875 
L 35.6875 37.546875 
Q 44.875 37.546875 48.734375 40.96875 
Q 52.59375 44.390625 52.59375 50.59375 
Q 52.59375 55.078125 50.3125 58.265625 
Q 48.046875 61.46875 44.34375 62.5 
Q 41.9375 63.140625 35.5 63.140625 
L 17.1875 63.140625 
z
" id="ArialMT-50"/>
      </defs>
      <g style="fill:#262626;" transform="translate(3.88125 332.5265625)scale(0.1 -0.1)">
       <use xlink:href="#ArialMT-50"/>
       <use x="66.69921875" xlink:href="#ArialMT-75"/>
       <use x="122.314453125" xlink:href="#ArialMT-6c"/>
       <use x="144.53125" xlink:href="#ArialMT-73"/>
       <use x="194.53125" xlink:href="#ArialMT-61"/>
       <use x="250.146484375" xlink:href="#ArialMT-72"/>
       <use x="283.447265625" xlink:href="#ArialMT-20"/>
       <use x="311.21484375" xlink:href="#ArialMT-54"/>
       <use x="372.251953125" xlink:href="#ArialMT-69"/>
       <use x="394.46875" xlink:href="#ArialMT-6d"/>
       <use x="477.76953125" xlink:href="#ArialMT-69"/>
       <use x="499.986328125" xlink:href="#ArialMT-6e"/>
       <use x="555.6015625" xlink:href="#ArialMT-67"/>
      </g>
     </g>
    </g>
    <g id="text_16">
     <!-- method -->
     <g style="fill:#262626;" transform="translate(-73.355 216.343359375)rotate(-90.0)scale(0.11 -0.11)">
      <use xlink:href="#ArialMT-6d"/>
      <use x="83.30078125" xlink:href="#ArialMT-65"/>
      <use x="138.916015625" xlink:href="#ArialMT-74"/>
      <use x="166.69921875" xlink:href="#ArialMT-68"/>
      <use x="222.314453125" xlink:href="#ArialMT-6f"/>
      <use x="277.9296875" xlink:href="#ArialMT-64"/>
     </g>
    </g>
   </g>
   <g id="PolyCollection_1">
    <defs>
     <path d="M 99.353097 -328.320047 
L 99.353097 -331.679953 
L 103.290393 -332.618007 
L 107.227689 -333.903811 
L 111.164986 -335.571521 
L 115.102282 -337.613316 
L 119.039578 -339.96483 
L 122.976874 -342.499291 
L 126.91417 -345.034871 
L 130.851466 -347.356662 
L 134.788762 -349.250263 
L 138.726058 -350.53969 
L 142.663354 -351.12 
L 146.60065 -350.97583 
L 150.537947 -350.180887 
L 154.475243 -348.87904 
L 158.412539 -347.252906 
L 162.349835 -345.488869 
L 166.287131 -343.747336 
L 170.224427 -342.144245 
L 174.161723 -340.745656 
L 178.099019 -339.573412 
L 182.036315 -338.617488 
L 185.973611 -337.850182 
L 189.910907 -337.238371 
L 193.848204 -336.751816 
L 197.7855 -336.367233 
L 201.722796 -336.069004 
L 205.660092 -335.847847 
L 209.597388 -335.698665 
L 213.534684 -335.618371 
L 217.47198 -335.604043 
L 221.409276 -335.651494 
L 225.346572 -335.754185 
L 229.283868 -335.902532 
L 233.221165 -336.083719 
L 237.158461 -336.282171 
L 241.095757 -336.480741 
L 245.033053 -336.662441 
L 248.970349 -336.812328 
L 252.907645 -336.919064 
L 256.844941 -336.975734 
L 260.782237 -336.979781 
L 264.719533 -336.932217 
L 268.656829 -336.836477 
L 272.594126 -336.697364 
L 276.531422 -336.520386 
L 280.468718 -336.311571 
L 284.406014 -336.077623 
L 288.34331 -335.826169 
L 292.280606 -335.565818 
L 296.217902 -335.305863 
L 300.155198 -335.055572 
L 304.092494 -334.82319 
L 308.02979 -334.614854 
L 311.967087 -334.433727 
L 315.904383 -334.279598 
L 319.841679 -334.149089 
L 323.778975 -334.036432 
L 327.716271 -333.934612 
L 331.653567 -333.836549 
L 335.590863 -333.736088 
L 339.528159 -333.628641 
L 343.465455 -333.511531 
L 347.402751 -333.384153 
L 351.340048 -333.248043 
L 355.277344 -333.106839 
L 359.21464 -332.966004 
L 363.151936 -332.832203 
L 367.089232 -332.712304 
L 371.026528 -332.612188 
L 374.963824 -332.535665 
L 378.90112 -332.483822 
L 382.838416 -332.455006 
L 386.775712 -332.445427 
L 390.713009 -332.450178 
L 394.650305 -332.464344 
L 398.587601 -332.483906 
L 402.524897 -332.506201 
L 406.462193 -332.529884 
L 410.399489 -332.554395 
L 414.336785 -332.579085 
L 418.274081 -332.602206 
L 422.211377 -332.620043 
L 426.148673 -332.626474 
L 430.085969 -332.613232 
L 434.023266 -332.570958 
L 437.960562 -332.490933 
L 441.897858 -332.367112 
L 445.835154 -332.197931 
L 449.77245 -331.987335 
L 453.709746 -331.74468 
L 457.647042 -331.483458 
L 461.584338 -331.219159 
L 465.521634 -330.966808 
L 469.45893 -330.73878 
L 473.396227 -330.543365 
L 477.333523 -330.38429 
L 481.270819 -330.261141 
L 485.208115 -330.170392 
L 489.145411 -330.106692 
L 489.145411 -329.893308 
L 489.145411 -329.893308 
L 485.208115 -329.829608 
L 481.270819 -329.738859 
L 477.333523 -329.61571 
L 473.396227 -329.456635 
L 469.45893 -329.26122 
L 465.521634 -329.033192 
L 461.584338 -328.780841 
L 457.647042 -328.516542 
L 453.709746 -328.25532 
L 449.77245 -328.012665 
L 445.835154 -327.802069 
L 441.897858 -327.632888 
L 437.960562 -327.509067 
L 434.023266 -327.429042 
L 430.085969 -327.386768 
L 426.148673 -327.373526 
L 422.211377 -327.379957 
L 418.274081 -327.397794 
L 414.336785 -327.420915 
L 410.399489 -327.445605 
L 406.462193 -327.470116 
L 402.524897 -327.493799 
L 398.587601 -327.516094 
L 394.650305 -327.535656 
L 390.713009 -327.549822 
L 386.775712 -327.554573 
L 382.838416 -327.544994 
L 378.90112 -327.516178 
L 374.963824 -327.464335 
L 371.026528 -327.387812 
L 367.089232 -327.287696 
L 363.151936 -327.167797 
L 359.21464 -327.033996 
L 355.277344 -326.893161 
L 351.340048 -326.751957 
L 347.402751 -326.615847 
L 343.465455 -326.488469 
L 339.528159 -326.371359 
L 335.590863 -326.263912 
L 331.653567 -326.163451 
L 327.716271 -326.065388 
L 323.778975 -325.963568 
L 319.841679 -325.850911 
L 315.904383 -325.720402 
L 311.967087 -325.566273 
L 308.02979 -325.385146 
L 304.092494 -325.17681 
L 300.155198 -324.944428 
L 296.217902 -324.694137 
L 292.280606 -324.434182 
L 288.34331 -324.173831 
L 284.406014 -323.922377 
L 280.468718 -323.688429 
L 276.531422 -323.479614 
L 272.594126 -323.302636 
L 268.656829 -323.163523 
L 264.719533 -323.067783 
L 260.782237 -323.020219 
L 256.844941 -323.024266 
L 252.907645 -323.080936 
L 248.970349 -323.187672 
L 245.033053 -323.337559 
L 241.095757 -323.519259 
L 237.158461 -323.717829 
L 233.221165 -323.916281 
L 229.283868 -324.097468 
L 225.346572 -324.245815 
L 221.409276 -324.348506 
L 217.47198 -324.395957 
L 213.534684 -324.381629 
L 209.597388 -324.301335 
L 205.660092 -324.152153 
L 201.722796 -323.930996 
L 197.7855 -323.632767 
L 193.848204 -323.248184 
L 189.910907 -322.761629 
L 185.973611 -322.149818 
L 182.036315 -321.382512 
L 178.099019 -320.426588 
L 174.161723 -319.254344 
L 170.224427 -317.855755 
L 166.287131 -316.252664 
L 162.349835 -314.511131 
L 158.412539 -312.747094 
L 154.475243 -311.12096 
L 150.537947 -309.819113 
L 146.60065 -309.02417 
L 142.663354 -308.88 
L 138.726058 -309.46031 
L 134.788762 -310.749737 
L 130.851466 -312.643338 
L 126.91417 -314.965129 
L 122.976874 -317.500709 
L 119.039578 -320.03517 
L 115.102282 -322.386684 
L 111.164986 -324.428479 
L 107.227689 -326.096189 
L 103.290393 -327.381993 
L 99.353097 -328.320047 
z
" id="m0c8457c135" style="stroke:#595959;stroke-width:1.75;"/>
    </defs>
    <g clip-path="url(#p3701a1a4e3)">
     <use style="fill:#72b7a1;stroke:#595959;stroke-width:1.75;" x="0.0" xlink:href="#m0c8457c135" y="396.0"/>
    </g>
   </g>
   <g id="PolyCollection_2">
    <defs>
     <path d="M 129.993942 -275.994702 
L 129.993942 -278.405298 
L 131.179815 -280.021218 
L 132.365687 -282.866642 
L 133.55156 -286.987188 
L 134.737432 -291.777494 
L 135.923305 -296.000733 
L 137.109178 -298.32 
L 138.29505 -298.044168 
L 139.480923 -295.504252 
L 140.666795 -291.768339 
L 141.852668 -287.984818 
L 143.03854 -284.881322 
L 144.224413 -282.672122 
L 145.410285 -281.244149 
L 146.596158 -280.373713 
L 147.782031 -279.846878 
L 148.967903 -279.496264 
L 150.153776 -279.207984 
L 151.339648 -278.923848 
L 152.525521 -278.634692 
L 153.711393 -278.360032 
L 154.897266 -278.123047 
L 156.083139 -277.934911 
L 157.269011 -277.793704 
L 158.454884 -277.69197 
L 159.640756 -277.623445 
L 160.826629 -277.583641 
L 162.012501 -277.565865 
L 163.198374 -277.558562 
L 164.384247 -277.548411 
L 165.570119 -277.527521 
L 166.755992 -277.498373 
L 167.941864 -277.471872 
L 169.127737 -277.459989 
L 170.313609 -277.468404 
L 171.499482 -277.493386 
L 172.685354 -277.523749 
L 173.871227 -277.546435 
L 175.0571 -277.552814 
L 176.242972 -277.54196 
L 177.428845 -277.518671 
L 178.614717 -277.488129 
L 179.80059 -277.452116 
L 180.986462 -277.409945 
L 182.172335 -277.362401 
L 183.358208 -277.314134 
L 184.54408 -277.272168 
L 185.729953 -277.242389 
L 186.915825 -277.227429 
L 188.101698 -277.226991 
L 189.28757 -277.238975 
L 190.473443 -277.259778 
L 191.659315 -277.284175 
L 192.845188 -277.30611 
L 194.031061 -277.320512 
L 195.216933 -277.324878 
L 196.402806 -277.319881 
L 197.588678 -277.309195 
L 198.774551 -277.298344 
L 199.960423 -277.292063 
L 201.146296 -277.291408 
L 202.332169 -277.293531 
L 203.518041 -277.29498 
L 204.703914 -277.29526 
L 205.889786 -277.296741 
L 207.075659 -277.301357 
L 208.261531 -277.308151 
L 209.447404 -277.314078 
L 210.633276 -277.316204 
L 211.819149 -277.31269 
L 213.005022 -277.30292 
L 214.190894 -277.288339 
L 215.376767 -277.273359 
L 216.562639 -277.264083 
L 217.748512 -277.264788 
L 218.934384 -277.27517 
L 220.120257 -277.291325 
L 221.30613 -277.309889 
L 222.492002 -277.331218 
L 223.677875 -277.357845 
L 224.863747 -277.389236 
L 226.04962 -277.418457 
L 227.235492 -277.435079 
L 228.421365 -277.432268 
L 229.607238 -277.411287 
L 230.79311 -277.379391 
L 231.978983 -277.344157 
L 233.164855 -277.310272 
L 234.350728 -277.280675 
L 235.5366 -277.258735 
L 236.722473 -277.247947 
L 237.908345 -277.249366 
L 239.094218 -277.259489 
L 240.280091 -277.27085 
L 241.465963 -277.275553 
L 242.651836 -277.269591 
L 243.837708 -277.254756 
L 245.023581 -277.236685 
L 246.209453 -277.220908 
L 247.395326 -277.210134 
L 247.395326 -277.189866 
L 247.395326 -277.189866 
L 246.209453 -277.179092 
L 245.023581 -277.163315 
L 243.837708 -277.145244 
L 242.651836 -277.130409 
L 241.465963 -277.124447 
L 240.280091 -277.12915 
L 239.094218 -277.140511 
L 237.908345 -277.150634 
L 236.722473 -277.152053 
L 235.5366 -277.141265 
L 234.350728 -277.119325 
L 233.164855 -277.089728 
L 231.978983 -277.055843 
L 230.79311 -277.020609 
L 229.607238 -276.988713 
L 228.421365 -276.967732 
L 227.235492 -276.964921 
L 226.04962 -276.981543 
L 224.863747 -277.010764 
L 223.677875 -277.042155 
L 222.492002 -277.068782 
L 221.30613 -277.090111 
L 220.120257 -277.108675 
L 218.934384 -277.12483 
L 217.748512 -277.135212 
L 216.562639 -277.135917 
L 215.376767 -277.126641 
L 214.190894 -277.111661 
L 213.005022 -277.09708 
L 211.819149 -277.08731 
L 210.633276 -277.083796 
L 209.447404 -277.085922 
L 208.261531 -277.091849 
L 207.075659 -277.098643 
L 205.889786 -277.103259 
L 204.703914 -277.10474 
L 203.518041 -277.10502 
L 202.332169 -277.106469 
L 201.146296 -277.108592 
L 199.960423 -277.107937 
L 198.774551 -277.101656 
L 197.588678 -277.090805 
L 196.402806 -277.080119 
L 195.216933 -277.075122 
L 194.031061 -277.079488 
L 192.845188 -277.09389 
L 191.659315 -277.115825 
L 190.473443 -277.140222 
L 189.28757 -277.161025 
L 188.101698 -277.173009 
L 186.915825 -277.172571 
L 185.729953 -277.157611 
L 184.54408 -277.127832 
L 183.358208 -277.085866 
L 182.172335 -277.037599 
L 180.986462 -276.990055 
L 179.80059 -276.947884 
L 178.614717 -276.911871 
L 177.428845 -276.881329 
L 176.242972 -276.85804 
L 175.0571 -276.847186 
L 173.871227 -276.853565 
L 172.685354 -276.876251 
L 171.499482 -276.906614 
L 170.313609 -276.931596 
L 169.127737 -276.940011 
L 167.941864 -276.928128 
L 166.755992 -276.901627 
L 165.570119 -276.872479 
L 164.384247 -276.851589 
L 163.198374 -276.841438 
L 162.012501 -276.834135 
L 160.826629 -276.816359 
L 159.640756 -276.776555 
L 158.454884 -276.70803 
L 157.269011 -276.606296 
L 156.083139 -276.465089 
L 154.897266 -276.276953 
L 153.711393 -276.039968 
L 152.525521 -275.765308 
L 151.339648 -275.476152 
L 150.153776 -275.192016 
L 148.967903 -274.903736 
L 147.782031 -274.553122 
L 146.596158 -274.026287 
L 145.410285 -273.155851 
L 144.224413 -271.727878 
L 143.03854 -269.518678 
L 141.852668 -266.415182 
L 140.666795 -262.631661 
L 139.480923 -258.895748 
L 138.29505 -256.355832 
L 137.109178 -256.08 
L 135.923305 -258.399267 
L 134.737432 -262.622506 
L 133.55156 -267.412812 
L 132.365687 -271.533358 
L 131.179815 -274.378782 
L 129.993942 -275.994702 
z
" id="me75888682a" style="stroke:#595959;stroke-width:1.75;"/>
    </defs>
    <g clip-path="url(#p3701a1a4e3)">
     <use style="fill:#e79676;stroke:#595959;stroke-width:1.75;" x="0.0" xlink:href="#me75888682a" y="396.0"/>
    </g>
   </g>
   <g id="PolyCollection_3">
    <defs>
     <path d="M 133.762484 -168.915161 
L 133.762484 -174.284839 
L 134.390344 -175.102043 
L 135.018204 -176.082718 
L 135.646064 -177.231051 
L 136.273924 -178.541945 
L 136.901784 -179.999209 
L 137.529644 -181.574505 
L 138.157504 -183.227394 
L 138.785364 -184.906691 
L 139.413224 -186.553254 
L 140.041084 -188.104096 
L 140.668944 -189.497536 
L 141.296804 -190.678889 
L 141.924664 -191.606058 
L 142.552524 -192.254326 
L 143.180384 -192.619662 
L 143.808244 -192.72 
L 144.436104 -192.594183 
L 145.063964 -192.298522 
L 145.691824 -191.901265 
L 146.319684 -191.475535 
L 146.947544 -191.091516 
L 147.575404 -190.808802 
L 148.203264 -190.669805 
L 148.831124 -190.695028 
L 149.458984 -190.880765 
L 150.086844 -191.19952 
L 150.714704 -191.603081 
L 151.342564 -192.027888 
L 151.970424 -192.402033 
L 152.598284 -192.653064 
L 153.226144 -192.715655 
L 153.854004 -192.538287 
L 154.481864 -192.088191 
L 155.109724 -191.354079 
L 155.737584 -190.346481 
L 156.365444 -189.095805 
L 156.993304 -187.648514 
L 157.621164 -186.062019 
L 158.249024 -184.398984 
L 158.876884 -182.721735 
L 159.504744 -181.087383 
L 160.132604 -179.544089 
L 160.760464 -178.12871 
L 161.388325 -176.865855 
L 162.016185 -175.768205 
L 162.644045 -174.837832 
L 163.271905 -174.068176 
L 163.899765 -173.446337 
L 164.527625 -172.955392 
L 165.155485 -172.576479 
L 165.783345 -172.290527 
L 166.411205 -172.079543 
L 167.039065 -171.927464 
L 167.666925 -171.820642 
L 168.294785 -171.748014 
L 168.922645 -171.701086 
L 169.550505 -171.673798 
L 170.178365 -171.662359 
L 170.806225 -171.665108 
L 171.434085 -171.682449 
L 172.061945 -171.716863 
L 172.689805 -171.773014 
L 173.317665 -171.857894 
L 173.945525 -171.98099 
L 174.573385 -172.154379 
L 175.201245 -172.392682 
L 175.829105 -172.712775 
L 176.456965 -173.133165 
L 177.084825 -173.672956 
L 177.712685 -174.350371 
L 178.340545 -175.180843 
L 178.968405 -176.174768 
L 179.596265 -177.335111 
L 180.224125 -178.655098 
L 180.851985 -180.116334 
L 181.479845 -181.687666 
L 182.107705 -183.325111 
L 182.735565 -184.973084 
L 183.363425 -186.566989 
L 183.991285 -188.037117 
L 184.619145 -189.313531 
L 185.247005 -190.331516 
L 185.874865 -191.036991 
L 186.502725 -191.391259 
L 187.130585 -191.374528 
L 187.758445 -190.987737 
L 188.386305 -190.252473 
L 189.014165 -189.208973 
L 189.642025 -187.912478 
L 190.269885 -186.428395 
L 190.897745 -184.826856 
L 191.525605 -183.177304 
L 192.153465 -181.543666 
L 192.781325 -179.980578 
L 193.409185 -178.5309 
L 194.037045 -177.224626 
L 194.664905 -176.079051 
L 195.292765 -175.099988 
L 195.920625 -174.283709 
L 195.920625 -168.916291 
L 195.920625 -168.916291 
L 195.292765 -168.100012 
L 194.664905 -167.120949 
L 194.037045 -165.975374 
L 193.409185 -164.6691 
L 192.781325 -163.219422 
L 192.153465 -161.656334 
L 191.525605 -160.022696 
L 190.897745 -158.373144 
L 190.269885 -156.771605 
L 189.642025 -155.287522 
L 189.014165 -153.991027 
L 188.386305 -152.947527 
L 187.758445 -152.212263 
L 187.130585 -151.825472 
L 186.502725 -151.808741 
L 185.874865 -152.163009 
L 185.247005 -152.868484 
L 184.619145 -153.886469 
L 183.991285 -155.162883 
L 183.363425 -156.633011 
L 182.735565 -158.226916 
L 182.107705 -159.874889 
L 181.479845 -161.512334 
L 180.851985 -163.083666 
L 180.224125 -164.544902 
L 179.596265 -165.864889 
L 178.968405 -167.025232 
L 178.340545 -168.019157 
L 177.712685 -168.849629 
L 177.084825 -169.527044 
L 176.456965 -170.066835 
L 175.829105 -170.487225 
L 175.201245 -170.807318 
L 174.573385 -171.045621 
L 173.945525 -171.21901 
L 173.317665 -171.342106 
L 172.689805 -171.426986 
L 172.061945 -171.483137 
L 171.434085 -171.517551 
L 170.806225 -171.534892 
L 170.178365 -171.537641 
L 169.550505 -171.526202 
L 168.922645 -171.498914 
L 168.294785 -171.451986 
L 167.666925 -171.379358 
L 167.039065 -171.272536 
L 166.411205 -171.120457 
L 165.783345 -170.909473 
L 165.155485 -170.623521 
L 164.527625 -170.244608 
L 163.899765 -169.753663 
L 163.271905 -169.131824 
L 162.644045 -168.362168 
L 162.016185 -167.431795 
L 161.388325 -166.334145 
L 160.760464 -165.07129 
L 160.132604 -163.655911 
L 159.504744 -162.112617 
L 158.876884 -160.478265 
L 158.249024 -158.801016 
L 157.621164 -157.137981 
L 156.993304 -155.551486 
L 156.365444 -154.104195 
L 155.737584 -152.853519 
L 155.109724 -151.845921 
L 154.481864 -151.111809 
L 153.854004 -150.661713 
L 153.226144 -150.484345 
L 152.598284 -150.546936 
L 151.970424 -150.797967 
L 151.342564 -151.172112 
L 150.714704 -151.596919 
L 150.086844 -152.00048 
L 149.458984 -152.319235 
L 148.831124 -152.504972 
L 148.203264 -152.530195 
L 147.575404 -152.391198 
L 146.947544 -152.108484 
L 146.319684 -151.724465 
L 145.691824 -151.298735 
L 145.063964 -150.901478 
L 144.436104 -150.605817 
L 143.808244 -150.48 
L 143.180384 -150.580338 
L 142.552524 -150.945674 
L 141.924664 -151.593942 
L 141.296804 -152.521111 
L 140.668944 -153.702464 
L 140.041084 -155.095904 
L 139.413224 -156.646746 
L 138.785364 -158.293309 
L 138.157504 -159.972606 
L 137.529644 -161.625495 
L 136.901784 -163.200791 
L 136.273924 -164.658055 
L 135.646064 -165.968949 
L 135.018204 -167.117282 
L 134.390344 -168.097957 
L 133.762484 -168.915161 
z
" id="m1d3c015012" style="stroke:#595959;stroke-width:1.75;"/>
    </defs>
    <g clip-path="url(#p3701a1a4e3)">
     <use style="fill:#db96c0;stroke:#595959;stroke-width:1.75;" x="0.0" xlink:href="#m1d3c015012" y="396.0"/>
    </g>
   </g>
   <g id="PolyCollection_4">
    <defs>
     <path d="M 135.755456 -116.991169 
L 135.755456 -120.608831 
L 135.761528 -121.167641 
L 135.7676 -121.84991 
L 135.773672 -122.666736 
L 135.779744 -123.625267 
L 135.785815 -124.727224 
L 135.791887 -125.967502 
L 135.797959 -127.333042 
L 135.804031 -128.802116 
L 135.810103 -130.344181 
L 135.816175 -131.920408 
L 135.822247 -133.484954 
L 135.828319 -134.986934 
L 135.83439 -136.373024 
L 135.840462 -137.590512 
L 135.846534 -138.590549 
L 135.852606 -139.331357 
L 135.858678 -139.781076 
L 135.86475 -139.92 
L 135.870822 -139.741989 
L 135.876894 -139.254906 
L 135.882965 -138.480058 
L 135.889037 -137.450667 
L 135.895109 -136.209551 
L 135.901181 -134.806214 
L 135.907253 -133.29362 
L 135.913325 -131.724949 
L 135.919397 -130.15059 
L 135.925469 -128.615614 
L 135.93154 -127.157876 
L 135.937612 -125.806843 
L 135.943684 -124.583148 
L 135.949756 -123.498818 
L 135.955828 -122.558044 
L 135.9619 -121.758356 
L 135.967972 -121.092035 
L 135.974044 -120.547597 
L 135.980115 -120.111229 
L 135.986187 -119.768059 
L 135.992259 -119.503203 
L 135.998331 -119.302559 
L 136.004403 -119.15334 
L 136.010475 -119.044385 
L 136.016547 -118.966269 
L 136.022618 -118.911274 
L 136.02869 -118.873257 
L 136.034762 -118.847456 
L 136.040834 -118.830278 
L 136.046906 -118.81908 
L 136.052978 -118.811973 
L 136.05905 -118.807657 
L 136.065122 -118.805281 
L 136.071193 -118.804352 
L 136.077265 -118.804663 
L 136.083337 -118.806274 
L 136.089409 -118.809507 
L 136.095481 -118.814987 
L 136.101553 -118.82371 
L 136.107625 -118.837133 
L 136.113697 -118.857303 
L 136.119768 -118.886991 
L 136.12584 -118.929839 
L 136.131912 -118.990502 
L 136.137984 -119.074742 
L 136.144056 -119.189472 
L 136.150128 -119.342686 
L 136.1562 -119.543261 
L 136.162272 -119.800585 
L 136.168343 -120.123995 
L 136.174415 -120.522021 
L 136.180487 -121.001459 
L 136.186559 -121.566321 
L 136.192631 -122.216759 
L 136.198703 -122.948069 
L 136.204775 -123.749912 
L 136.210847 -124.605889 
L 136.216918 -125.493601 
L 136.22299 -126.385265 
L 136.229062 -127.248926 
L 136.235134 -128.050221 
L 136.241206 -128.75457 
L 136.247278 -129.329621 
L 136.25335 -129.747698 
L 136.259422 -129.988006 
L 136.265493 -130.038347 
L 136.271565 -129.896142 
L 136.277637 -129.568653 
L 136.283709 -129.072368 
L 136.289781 -128.431626 
L 136.295853 -127.676638 
L 136.301925 -126.841132 
L 136.307997 -125.959879 
L 136.314068 -125.066342 
L 136.32014 -124.190664 
L 136.326212 -123.358167 
L 136.332284 -122.58842 
L 136.338356 -121.894894 
L 136.344428 -121.285154 
L 136.3505 -120.761465 
L 136.356572 -120.321695 
L 136.356572 -117.278305 
L 136.356572 -117.278305 
L 136.3505 -116.838535 
L 136.344428 -116.314846 
L 136.338356 -115.705106 
L 136.332284 -115.01158 
L 136.326212 -114.241833 
L 136.32014 -113.409336 
L 136.314068 -112.533658 
L 136.307997 -111.640121 
L 136.301925 -110.758868 
L 136.295853 -109.923362 
L 136.289781 -109.168374 
L 136.283709 -108.527632 
L 136.277637 -108.031347 
L 136.271565 -107.703858 
L 136.265493 -107.561653 
L 136.259422 -107.611994 
L 136.25335 -107.852302 
L 136.247278 -108.270379 
L 136.241206 -108.84543 
L 136.235134 -109.549779 
L 136.229062 -110.351074 
L 136.22299 -111.214735 
L 136.216918 -112.106399 
L 136.210847 -112.994111 
L 136.204775 -113.850088 
L 136.198703 -114.651931 
L 136.192631 -115.383241 
L 136.186559 -116.033679 
L 136.180487 -116.598541 
L 136.174415 -117.077979 
L 136.168343 -117.476005 
L 136.162272 -117.799415 
L 136.1562 -118.056739 
L 136.150128 -118.257314 
L 136.144056 -118.410528 
L 136.137984 -118.525258 
L 136.131912 -118.609498 
L 136.12584 -118.670161 
L 136.119768 -118.713009 
L 136.113697 -118.742697 
L 136.107625 -118.762867 
L 136.101553 -118.77629 
L 136.095481 -118.785013 
L 136.089409 -118.790493 
L 136.083337 -118.793726 
L 136.077265 -118.795337 
L 136.071193 -118.795648 
L 136.065122 -118.794719 
L 136.05905 -118.792343 
L 136.052978 -118.788027 
L 136.046906 -118.78092 
L 136.040834 -118.769722 
L 136.034762 -118.752544 
L 136.02869 -118.726743 
L 136.022618 -118.688726 
L 136.016547 -118.633731 
L 136.010475 -118.555615 
L 136.004403 -118.44666 
L 135.998331 -118.297441 
L 135.992259 -118.096797 
L 135.986187 -117.831941 
L 135.980115 -117.488771 
L 135.974044 -117.052403 
L 135.967972 -116.507965 
L 135.9619 -115.841644 
L 135.955828 -115.041956 
L 135.949756 -114.101182 
L 135.943684 -113.016852 
L 135.937612 -111.793157 
L 135.93154 -110.442124 
L 135.925469 -108.984386 
L 135.919397 -107.44941 
L 135.913325 -105.875051 
L 135.907253 -104.30638 
L 135.901181 -102.793786 
L 135.895109 -101.390449 
L 135.889037 -100.149333 
L 135.882965 -99.119942 
L 135.876894 -98.345094 
L 135.870822 -97.858011 
L 135.86475 -97.68 
L 135.858678 -97.818924 
L 135.852606 -98.268643 
L 135.846534 -99.009451 
L 135.840462 -100.009488 
L 135.83439 -101.226976 
L 135.828319 -102.613066 
L 135.822247 -104.115046 
L 135.816175 -105.679592 
L 135.810103 -107.255819 
L 135.804031 -108.797884 
L 135.797959 -110.266958 
L 135.791887 -111.632498 
L 135.785815 -112.872776 
L 135.779744 -113.974733 
L 135.773672 -114.933264 
L 135.7676 -115.75009 
L 135.761528 -116.432359 
L 135.755456 -116.991169 
z
" id="m3b5ae10026" style="stroke:#595959;stroke-width:1.75;"/>
    </defs>
    <g clip-path="url(#p3701a1a4e3)">
     <use style="fill:#a2c764;stroke:#595959;stroke-width:1.75;" x="0.0" xlink:href="#m3b5ae10026" y="396.0"/>
    </g>
   </g>
   <g id="PolyCollection_5">
    <defs>
     <path d="M 130.252404 -63.185132 
L 130.252404 -68.814868 
L 130.680509 -69.787443 
L 131.108614 -70.976188 
L 131.536719 -72.384306 
L 131.964824 -73.998389 
L 132.392928 -75.785252 
L 132.821033 -77.690579 
L 133.249138 -79.640051 
L 133.677243 -81.543384 
L 134.105348 -83.301234 
L 134.533452 -84.814477 
L 134.961557 -85.994827 
L 135.389662 -86.775444 
L 135.817767 -87.12 
L 136.245872 -87.028785 
L 136.673977 -86.540819 
L 137.102081 -85.731461 
L 137.530186 -84.705672 
L 137.958291 -83.587686 
L 138.386396 -82.508304 
L 138.814501 -81.591319 
L 139.242606 -80.940621 
L 139.67071 -80.62938 
L 140.098815 -80.692456 
L 140.52692 -81.122791 
L 140.955025 -81.87214 
L 141.38313 -82.856065 
L 141.811234 -83.962709 
L 142.239339 -85.064446 
L 142.667444 -86.031172 
L 143.095549 -86.743769 
L 143.523654 -87.106178 
L 143.951759 -87.054662 
L 144.379863 -86.56316 
L 144.807968 -85.644197 
L 145.236073 -84.345408 
L 145.664178 -82.742382 
L 146.092283 -80.92905 
L 146.520387 -79.007096 
L 146.948492 -77.075913 
L 147.376597 -75.224402 
L 147.804702 -73.525456 
L 148.232807 -72.033479 
L 148.660912 -70.784766 
L 149.089016 -69.800149 
L 149.517121 -69.089044 
L 149.945226 -68.653938 
L 150.373331 -68.494398 
L 150.801436 -68.609868 
L 151.229541 -69.000755 
L 151.657645 -69.667629 
L 152.08575 -70.608664 
L 152.513855 -71.815755 
L 152.94196 -73.270023 
L 153.370065 -74.937566 
L 153.798169 -76.766448 
L 154.226274 -78.685775 
L 154.654379 -80.607507 
L 155.082484 -82.431239 
L 155.510589 -84.051692 
L 155.938694 -85.36814 
L 156.366798 -86.294579 
L 156.794903 -86.769204 
L 157.223008 -86.761779 
L 157.651113 -86.277773 
L 158.079218 -85.358649 
L 158.507323 -84.078298 
L 158.935427 -82.536234 
L 159.363532 -80.848618 
L 159.791637 -79.138386 
L 160.219742 -77.525726 
L 160.647847 -76.119865 
L 161.075951 -75.012696 
L 161.504056 -74.274355 
L 161.932161 -73.950497 
L 162.360266 -74.06086 
L 162.788371 -74.598738 
L 163.216476 -75.531151 
L 163.64458 -76.799798 
L 164.072685 -78.323086 
L 164.50079 -79.999669 
L 164.928895 -81.71385 
L 165.357 -83.34292 
L 165.785104 -84.766132 
L 166.213209 -85.874537 
L 166.641314 -86.580565 
L 167.069419 -86.826044 
L 167.497524 -86.58746 
L 167.925629 -85.877584 
L 168.353733 -84.743152 
L 168.781838 -83.258905 
L 169.209943 -81.518873 
L 169.638048 -79.626203 
L 170.066153 -77.682943 
L 170.494258 -75.781144 
L 170.922362 -73.996231 
L 171.350467 -72.3832 
L 171.778572 -70.975635 
L 172.206677 -69.787172 
L 172.634782 -68.814739 
L 172.634782 -63.185261 
L 172.634782 -63.185261 
L 172.206677 -62.212828 
L 171.778572 -61.024365 
L 171.350467 -59.6168 
L 170.922362 -58.003769 
L 170.494258 -56.218856 
L 170.066153 -54.317057 
L 169.638048 -52.373797 
L 169.209943 -50.481127 
L 168.781838 -48.741095 
L 168.353733 -47.256848 
L 167.925629 -46.122416 
L 167.497524 -45.41254 
L 167.069419 -45.173956 
L 166.641314 -45.419435 
L 166.213209 -46.125463 
L 165.785104 -47.233868 
L 165.357 -48.65708 
L 164.928895 -50.28615 
L 164.50079 -52.000331 
L 164.072685 -53.676914 
L 163.64458 -55.200202 
L 163.216476 -56.468849 
L 162.788371 -57.401262 
L 162.360266 -57.93914 
L 161.932161 -58.049503 
L 161.504056 -57.725645 
L 161.075951 -56.987304 
L 160.647847 -55.880135 
L 160.219742 -54.474274 
L 159.791637 -52.861614 
L 159.363532 -51.151382 
L 158.935427 -49.463766 
L 158.507323 -47.921702 
L 158.079218 -46.641351 
L 157.651113 -45.722227 
L 157.223008 -45.238221 
L 156.794903 -45.230796 
L 156.366798 -45.705421 
L 155.938694 -46.63186 
L 155.510589 -47.948308 
L 155.082484 -49.568761 
L 154.654379 -51.392493 
L 154.226274 -53.314225 
L 153.798169 -55.233552 
L 153.370065 -57.062434 
L 152.94196 -58.729977 
L 152.513855 -60.184245 
L 152.08575 -61.391336 
L 151.657645 -62.332371 
L 151.229541 -62.999245 
L 150.801436 -63.390132 
L 150.373331 -63.505602 
L 149.945226 -63.346062 
L 149.517121 -62.910956 
L 149.089016 -62.199851 
L 148.660912 -61.215234 
L 148.232807 -59.966521 
L 147.804702 -58.474544 
L 147.376597 -56.775598 
L 146.948492 -54.924087 
L 146.520387 -52.992904 
L 146.092283 -51.07095 
L 145.664178 -49.257618 
L 145.236073 -47.654592 
L 144.807968 -46.355803 
L 144.379863 -45.43684 
L 143.951759 -44.945338 
L 143.523654 -44.893822 
L 143.095549 -45.256231 
L 142.667444 -45.968828 
L 142.239339 -46.935554 
L 141.811234 -48.037291 
L 141.38313 -49.143935 
L 140.955025 -50.12786 
L 140.52692 -50.877209 
L 140.098815 -51.307544 
L 139.67071 -51.37062 
L 139.242606 -51.059379 
L 138.814501 -50.408681 
L 138.386396 -49.491696 
L 137.958291 -48.412314 
L 137.530186 -47.294328 
L 137.102081 -46.268539 
L 136.673977 -45.459181 
L 136.245872 -44.971215 
L 135.817767 -44.88 
L 135.389662 -45.224556 
L 134.961557 -46.005173 
L 134.533452 -47.185523 
L 134.105348 -48.698766 
L 133.677243 -50.456616 
L 133.249138 -52.359949 
L 132.821033 -54.309421 
L 132.392928 -56.214748 
L 131.964824 -58.001611 
L 131.536719 -59.615694 
L 131.108614 -61.023812 
L 130.680509 -62.212557 
L 130.252404 -63.185132 
z
" id="m49493e2786" style="stroke:#595959;stroke-width:1.75;"/>
    </defs>
    <g clip-path="url(#p3701a1a4e3)">
     <use style="fill:#e5c849;stroke:#595959;stroke-width:1.75;" x="0.0" xlink:href="#m49493e2786" y="396.0"/>
    </g>
   </g>
   <g id="line2d_37">
    <path clip-path="url(#p3701a1a4e3)" d="M 136.00628 66 
L 452.492229 66 
" style="fill:none;stroke:#595959;stroke-linecap:round;stroke-width:1.75;"/>
   </g>
   <g id="line2d_38">
    <path clip-path="url(#p3701a1a4e3)" d="M 141.246206 66 
L 281.259566 66 
" style="fill:none;stroke:#595959;stroke-linecap:round;stroke-width:5.25;"/>
   </g>
   <g id="line2d_39">
    <path clip-path="url(#p3701a1a4e3)" d="M 135.884623 118.8 
L 147.03764 118.8 
" style="fill:none;stroke:#595959;stroke-linecap:round;stroke-width:1.75;"/>
   </g>
   <g id="line2d_40">
    <path clip-path="url(#p3701a1a4e3)" d="M 136.779218 118.8 
L 140.9196 118.8 
" style="fill:none;stroke:#595959;stroke-linecap:round;stroke-width:5.25;"/>
   </g>
   <g id="line2d_41">
    <path clip-path="url(#p3701a1a4e3)" d="M 214.325074 150.48 
L 214.325074 192.72 
" style="fill:none;stroke:#595959;stroke-linecap:round;stroke-width:1.75;"/>
   </g>
   <g id="line2d_42">
    <path clip-path="url(#p3701a1a4e3)" d="M 142.894538 224.4 
L 186.788571 224.4 
" style="fill:none;stroke:#595959;stroke-linecap:round;stroke-width:1.75;"/>
   </g>
   <g id="line2d_43">
    <path clip-path="url(#p3701a1a4e3)" d="M 148.422165 224.4 
L 170.369182 224.4 
" style="fill:none;stroke:#595959;stroke-linecap:round;stroke-width:5.25;"/>
   </g>
   <g id="line2d_44">
    <path clip-path="url(#p3701a1a4e3)" d="M 135.847987 277.2 
L 136.26404 277.2 
" style="fill:none;stroke:#595959;stroke-linecap:round;stroke-width:1.75;"/>
   </g>
   <g id="line2d_45">
    <path clip-path="url(#p3701a1a4e3)" d="M 135.864374 277.2 
L 136.0724 277.2 
" style="fill:none;stroke:#595959;stroke-linecap:round;stroke-width:5.25;"/>
   </g>
   <g id="line2d_46">
    <path clip-path="url(#p3701a1a4e3)" d="M 135.800351 330 
L 167.086835 330 
" style="fill:none;stroke:#595959;stroke-linecap:round;stroke-width:1.75;"/>
   </g>
   <g id="line2d_47">
    <path clip-path="url(#p3701a1a4e3)" d="M 141.819886 330 
L 159.5133 330 
" style="fill:none;stroke:#595959;stroke-linecap:round;stroke-width:5.25;"/>
   </g>
   <g id="patch_3">
    <path d="M 72 39.6 
L 518.4 39.6 
" style="fill:none;"/>
   </g>
   <g id="patch_4">
    <path d="M 518.4 356.4 
L 518.4 39.6 
" style="fill:none;"/>
   </g>
   <g id="patch_5">
    <path d="M 72 356.4 
L 518.4 356.4 
" style="fill:none;"/>
   </g>
   <g id="patch_6">
    <path d="M 72 356.4 
L 72 39.6 
" style="fill:none;"/>
   </g>
   <g id="PathCollection_1">
    <defs>
     <path d="M 0 1.75 
C 0.464105 1.75 0.909265 1.565609 1.237437 1.237437 
C 1.565609 0.909265 1.75 0.464105 1.75 0 
C 1.75 -0.464105 1.565609 -0.909265 1.237437 -1.237437 
C 0.909265 -1.565609 0.464105 -1.75 0 -1.75 
C -0.464105 -1.75 -0.909265 -1.565609 -1.237437 -1.237437 
C -1.565609 -0.909265 -1.75 -0.464105 -1.75 0 
C -1.75 0.464105 -1.565609 0.909265 -1.237437 1.237437 
C -0.909265 1.565609 -0.464105 1.75 0 1.75 
z
" id="mc7227012eb" style="stroke:#595959;stroke-width:0.3;"/>
    </defs>
    <g clip-path="url(#p3701a1a4e3)">
     <use style="fill:#ffffff;stroke:#595959;stroke-width:0.3;" x="187.41672" xlink:href="#mc7227012eb" y="66.0"/>
    </g>
   </g>
   <g id="PathCollection_2">
    <g clip-path="url(#p3701a1a4e3)">
     <use style="fill:#ffffff;stroke:#595959;stroke-width:0.3;" x="137.593675461" xlink:href="#mc7227012eb" y="118.8"/>
    </g>
   </g>
   <g id="PathCollection_3">
    <g clip-path="url(#p3701a1a4e3)">
     <use style="fill:#ffffff;stroke:#595959;stroke-width:0.3;" x="153.949793143" xlink:href="#mc7227012eb" y="224.4"/>
    </g>
   </g>
   <g id="PathCollection_4">
    <g clip-path="url(#p3701a1a4e3)">
     <use style="fill:#ffffff;stroke:#595959;stroke-width:0.3;" x="135.880760541" xlink:href="#mc7227012eb" y="277.2"/>
    </g>
   </g>
   <g id="PathCollection_5">
    <g clip-path="url(#p3701a1a4e3)">
     <use style="fill:#ffffff;stroke:#595959;stroke-width:0.3;" x="150.4075932" xlink:href="#mc7227012eb" y="330.0"/>
    </g>
   </g>
   <g id="text_17">
    <!-- horizontal violin plot -->
    <defs>
     <path d="M 21 0 
L 1.265625 51.859375 
L 10.546875 51.859375 
L 21.6875 20.796875 
Q 23.484375 15.765625 25 10.359375 
Q 26.171875 14.453125 28.265625 20.21875 
L 39.796875 51.859375 
L 48.828125 51.859375 
L 29.203125 0 
z
" id="ArialMT-76"/>
     <path d="M 1.953125 0 
L 1.953125 7.125 
L 34.96875 45.015625 
Q 29.34375 44.734375 25.046875 44.734375 
L 3.90625 44.734375 
L 3.90625 51.859375 
L 46.296875 51.859375 
L 46.296875 46.046875 
L 18.21875 13.140625 
L 12.796875 7.125 
Q 18.703125 7.5625 23.875 7.5625 
L 47.859375 7.5625 
L 47.859375 0 
z
" id="ArialMT-7a"/>
    </defs>
    <g style="fill:#262626;" transform="translate(242.506875 34.6)scale(0.12 -0.12)">
     <use xlink:href="#ArialMT-68"/>
     <use x="55.615234375" xlink:href="#ArialMT-6f"/>
     <use x="111.23046875" xlink:href="#ArialMT-72"/>
     <use x="144.53125" xlink:href="#ArialMT-69"/>
     <use x="166.748046875" xlink:href="#ArialMT-7a"/>
     <use x="216.748046875" xlink:href="#ArialMT-6f"/>
     <use x="272.36328125" xlink:href="#ArialMT-6e"/>
     <use x="327.978515625" xlink:href="#ArialMT-74"/>
     <use x="355.76171875" xlink:href="#ArialMT-61"/>
     <use x="411.376953125" xlink:href="#ArialMT-6c"/>
     <use x="433.59375" xlink:href="#ArialMT-20"/>
     <use x="461.376953125" xlink:href="#ArialMT-76"/>
     <use x="511.376953125" xlink:href="#ArialMT-69"/>
     <use x="533.59375" xlink:href="#ArialMT-6f"/>
     <use x="589.208984375" xlink:href="#ArialMT-6c"/>
     <use x="611.42578125" xlink:href="#ArialMT-69"/>
     <use x="633.642578125" xlink:href="#ArialMT-6e"/>
     <use x="689.2578125" xlink:href="#ArialMT-20"/>
     <use x="717.041015625" xlink:href="#ArialMT-70"/>
     <use x="772.65625" xlink:href="#ArialMT-6c"/>
     <use x="794.873046875" xlink:href="#ArialMT-6f"/>
     <use x="850.48828125" xlink:href="#ArialMT-74"/>
    </g>
   </g>
  </g>
 </g>
 <defs>
  <clipPath id="p3701a1a4e3">
   <rect height="316.8" width="446.4" x="72.0" y="39.6"/>
  </clipPath>
 </defs>
</svg>
