<?xml version="1.0" encoding="utf-8" standalone="no"?>
<!DOCTYPE svg PUBLIC "-//W3C//DTD SVG 1.1//EN"
  "http://www.w3.org/Graphics/SVG/1.1/DTD/svg11.dtd">
<!-- Created with matplotlib (http://matplotlib.org/) -->
<svg height="396pt" version="1.1" viewBox="0 0 576 396" width="576pt" xmlns="http://www.w3.org/2000/svg" xmlns:xlink="http://www.w3.org/1999/xlink">
 <defs>
  <style type="text/css">
*{stroke-linecap:butt;stroke-linejoin:round;stroke-miterlimit:100000;}
  </style>
 </defs>
 <g id="figure_1">
  <g id="patch_1">
   <path d="M 0 396 
L 576 396 
L 576 0 
L 0 0 
z
" style="fill:#ffffff;"/>
  </g>
  <g id="axes_1">
   <g id="patch_2">
    <path d="M 72 356.4 
L 518.4 356.4 
L 518.4 39.6 
L 72 39.6 
z
" style="fill:#eaeaf2;"/>
   </g>
   <g id="matplotlib.axis_1">
    <g id="xtick_1">
     <g id="line2d_1"/>
     <g id="line2d_2"/>
     <g id="text_1">
      <!-- Sun -->
      <defs>
       <path d="M 4.5 23 
L 13.421875 23.78125 
Q 14.0625 18.40625 16.375 14.96875 
Q 18.703125 11.53125 23.578125 9.40625 
Q 28.46875 7.28125 34.578125 7.28125 
Q 39.984375 7.28125 44.140625 8.890625 
Q 48.296875 10.5 50.3125 13.296875 
Q 52.34375 16.109375 52.34375 19.4375 
Q 52.34375 22.796875 50.390625 25.3125 
Q 48.4375 27.828125 43.953125 29.546875 
Q 41.0625 30.671875 31.203125 33.03125 
Q 21.34375 35.40625 17.390625 37.5 
Q 12.25 40.1875 9.734375 44.15625 
Q 7.234375 48.140625 7.234375 53.078125 
Q 7.234375 58.5 10.296875 63.203125 
Q 13.375 67.921875 19.28125 70.359375 
Q 25.203125 72.796875 32.421875 72.796875 
Q 40.375 72.796875 46.453125 70.234375 
Q 52.546875 67.671875 55.8125 62.6875 
Q 59.078125 57.71875 59.328125 51.421875 
L 50.25 50.734375 
Q 49.515625 57.515625 45.28125 60.984375 
Q 41.0625 64.453125 32.8125 64.453125 
Q 24.21875 64.453125 20.28125 61.296875 
Q 16.359375 58.15625 16.359375 53.71875 
Q 16.359375 49.859375 19.140625 47.359375 
Q 21.875 44.875 33.421875 42.265625 
Q 44.96875 39.65625 49.265625 37.703125 
Q 55.515625 34.8125 58.484375 30.390625 
Q 61.46875 25.984375 61.46875 20.21875 
Q 61.46875 14.5 58.203125 9.4375 
Q 54.9375 4.390625 48.796875 1.578125 
Q 42.671875 -1.21875 35.015625 -1.21875 
Q 25.296875 -1.21875 18.71875 1.609375 
Q 12.15625 4.4375 8.421875 10.125 
Q 4.6875 15.828125 4.5 23 
" id="ArialMT-53"/>
       <path d="M 6.59375 0 
L 6.59375 51.859375 
L 14.5 51.859375 
L 14.5 44.484375 
Q 20.21875 53.03125 31 53.03125 
Q 35.6875 53.03125 39.625 51.34375 
Q 43.5625 49.65625 45.515625 46.921875 
Q 47.46875 44.1875 48.25 40.4375 
Q 48.734375 37.984375 48.734375 31.890625 
L 48.734375 0 
L 39.9375 0 
L 39.9375 31.546875 
Q 39.9375 36.921875 38.90625 39.578125 
Q 37.890625 42.234375 35.28125 43.8125 
Q 32.671875 45.40625 29.15625 45.40625 
Q 23.53125 45.40625 19.453125 41.84375 
Q 15.375 38.28125 15.375 28.328125 
L 15.375 0 
z
" id="ArialMT-6e"/>
       <path d="M 40.578125 0 
L 40.578125 7.625 
Q 34.515625 -1.171875 24.125 -1.171875 
Q 19.53125 -1.171875 15.546875 0.578125 
Q 11.578125 2.34375 9.640625 5 
Q 7.71875 7.671875 6.9375 11.53125 
Q 6.390625 14.109375 6.390625 19.734375 
L 6.390625 51.859375 
L 15.1875 51.859375 
L 15.1875 23.09375 
Q 15.1875 16.21875 15.71875 13.8125 
Q 16.546875 10.359375 19.234375 8.375 
Q 21.921875 6.390625 25.875 6.390625 
Q 29.828125 6.390625 33.296875 8.421875 
Q 36.765625 10.453125 38.203125 13.9375 
Q 39.65625 17.4375 39.65625 24.078125 
L 39.65625 51.859375 
L 48.4375 51.859375 
L 48.4375 0 
z
" id="ArialMT-75"/>
      </defs>
      <g style="fill:#262626;" transform="translate(118.90390625 370.5578125)scale(0.1 -0.1)">
       <use xlink:href="#ArialMT-53"/>
       <use x="66.69921875" xlink:href="#ArialMT-75"/>
       <use x="122.314453125" xlink:href="#ArialMT-6e"/>
      </g>
     </g>
    </g>
    <g id="xtick_2">
     <g id="line2d_3"/>
     <g id="line2d_4"/>
     <g id="text_2">
      <!-- Sat -->
      <defs>
       <path d="M 25.78125 7.859375 
L 27.046875 0.09375 
Q 23.34375 -0.6875 20.40625 -0.6875 
Q 15.625 -0.6875 12.984375 0.828125 
Q 10.359375 2.34375 9.28125 4.8125 
Q 8.203125 7.28125 8.203125 15.1875 
L 8.203125 45.015625 
L 1.765625 45.015625 
L 1.765625 51.859375 
L 8.203125 51.859375 
L 8.203125 64.703125 
L 16.9375 69.96875 
L 16.9375 51.859375 
L 25.78125 51.859375 
L 25.78125 45.015625 
L 16.9375 45.015625 
L 16.9375 14.703125 
Q 16.9375 10.9375 17.40625 9.859375 
Q 17.875 8.796875 18.921875 8.15625 
Q 19.96875 7.515625 21.921875 7.515625 
Q 23.390625 7.515625 25.78125 7.859375 
" id="ArialMT-74"/>
       <path d="M 40.4375 6.390625 
Q 35.546875 2.25 31.03125 0.53125 
Q 26.515625 -1.171875 21.34375 -1.171875 
Q 12.796875 -1.171875 8.203125 3 
Q 3.609375 7.171875 3.609375 13.671875 
Q 3.609375 17.484375 5.34375 20.625 
Q 7.078125 23.78125 9.890625 25.6875 
Q 12.703125 27.59375 16.21875 28.5625 
Q 18.796875 29.25 24.03125 29.890625 
Q 34.671875 31.15625 39.703125 32.90625 
Q 39.75 34.71875 39.75 35.203125 
Q 39.75 40.578125 37.25 42.78125 
Q 33.890625 45.75 27.25 45.75 
Q 21.046875 45.75 18.09375 43.578125 
Q 15.140625 41.40625 13.71875 35.890625 
L 5.125 37.0625 
Q 6.296875 42.578125 8.984375 45.96875 
Q 11.671875 49.359375 16.75 51.1875 
Q 21.828125 53.03125 28.515625 53.03125 
Q 35.15625 53.03125 39.296875 51.46875 
Q 43.453125 49.90625 45.40625 47.53125 
Q 47.359375 45.171875 48.140625 41.546875 
Q 48.578125 39.3125 48.578125 33.453125 
L 48.578125 21.734375 
Q 48.578125 9.46875 49.140625 6.21875 
Q 49.703125 2.984375 51.375 0 
L 42.1875 0 
Q 40.828125 2.734375 40.4375 6.390625 
M 39.703125 26.03125 
Q 34.90625 24.078125 25.34375 22.703125 
Q 19.921875 21.921875 17.671875 20.9375 
Q 15.4375 19.96875 14.203125 18.09375 
Q 12.984375 16.21875 12.984375 13.921875 
Q 12.984375 10.40625 15.640625 8.0625 
Q 18.3125 5.71875 23.4375 5.71875 
Q 28.515625 5.71875 32.46875 7.9375 
Q 36.421875 10.15625 38.28125 14.015625 
Q 39.703125 17 39.703125 22.796875 
z
" id="ArialMT-61"/>
      </defs>
      <g style="fill:#262626;" transform="translate(231.8953125 370.5578125)scale(0.1 -0.1)">
       <use xlink:href="#ArialMT-53"/>
       <use x="66.69921875" xlink:href="#ArialMT-61"/>
       <use x="122.314453125" xlink:href="#ArialMT-74"/>
      </g>
     </g>
    </g>
    <g id="xtick_3">
     <g id="line2d_5"/>
     <g id="line2d_6"/>
     <g id="text_3">
      <!-- Thur -->
      <defs>
       <path d="M 6.59375 0 
L 6.59375 71.578125 
L 15.375 71.578125 
L 15.375 45.90625 
Q 21.53125 53.03125 30.90625 53.03125 
Q 36.671875 53.03125 40.921875 50.75 
Q 45.171875 48.484375 47 44.484375 
Q 48.828125 40.484375 48.828125 32.859375 
L 48.828125 0 
L 40.046875 0 
L 40.046875 32.859375 
Q 40.046875 39.453125 37.1875 42.453125 
Q 34.328125 45.453125 29.109375 45.453125 
Q 25.203125 45.453125 21.75 43.421875 
Q 18.3125 41.40625 16.84375 37.9375 
Q 15.375 34.46875 15.375 28.375 
L 15.375 0 
z
" id="ArialMT-68"/>
       <path d="M 6.5 0 
L 6.5 51.859375 
L 14.40625 51.859375 
L 14.40625 44 
Q 17.4375 49.515625 20 51.265625 
Q 22.5625 53.03125 25.640625 53.03125 
Q 30.078125 53.03125 34.671875 50.203125 
L 31.640625 42.046875 
Q 28.421875 43.953125 25.203125 43.953125 
Q 22.3125 43.953125 20.015625 42.21875 
Q 17.71875 40.484375 16.75 37.40625 
Q 15.28125 32.71875 15.28125 27.15625 
L 15.28125 0 
z
" id="ArialMT-72"/>
       <path d="M 25.921875 0 
L 25.921875 63.140625 
L 2.34375 63.140625 
L 2.34375 71.578125 
L 59.078125 71.578125 
L 59.078125 63.140625 
L 35.40625 63.140625 
L 35.40625 0 
z
" id="ArialMT-54"/>
      </defs>
      <g style="fill:#262626;" transform="translate(340.7203125 370.5578125)scale(0.1 -0.1)">
       <use xlink:href="#ArialMT-54"/>
       <use x="61.083984375" xlink:href="#ArialMT-68"/>
       <use x="116.69921875" xlink:href="#ArialMT-75"/>
       <use x="172.314453125" xlink:href="#ArialMT-72"/>
      </g>
     </g>
    </g>
    <g id="xtick_4">
     <g id="line2d_7"/>
     <g id="line2d_8"/>
     <g id="text_4">
      <!-- Fri -->
      <defs>
       <path d="M 6.640625 61.46875 
L 6.640625 71.578125 
L 15.4375 71.578125 
L 15.4375 61.46875 
z
M 6.640625 0 
L 6.640625 51.859375 
L 15.4375 51.859375 
L 15.4375 0 
z
" id="ArialMT-69"/>
       <path d="M 8.203125 0 
L 8.203125 71.578125 
L 56.5 71.578125 
L 56.5 63.140625 
L 17.671875 63.140625 
L 17.671875 40.96875 
L 51.265625 40.96875 
L 51.265625 32.515625 
L 17.671875 32.515625 
L 17.671875 0 
z
" id="ArialMT-46"/>
      </defs>
      <g style="fill:#262626;" transform="translate(456.7703125 370.5578125)scale(0.1 -0.1)">
       <use xlink:href="#ArialMT-46"/>
       <use x="61.083984375" xlink:href="#ArialMT-72"/>
       <use x="94.384765625" xlink:href="#ArialMT-69"/>
      </g>
     </g>
    </g>
    <g id="text_5">
     <!-- day -->
     <defs>
      <path d="M 6.203125 -19.96875 
L 5.21875 -11.71875 
Q 8.109375 -12.5 10.25 -12.5 
Q 13.1875 -12.5 14.9375 -11.515625 
Q 16.703125 -10.546875 17.828125 -8.796875 
Q 18.65625 -7.46875 20.515625 -2.25 
Q 20.75 -1.515625 21.296875 -0.09375 
L 1.609375 51.859375 
L 11.078125 51.859375 
L 21.875 21.828125 
Q 23.96875 16.109375 25.640625 9.8125 
Q 27.15625 15.875 29.25 21.625 
L 40.328125 51.859375 
L 49.125 51.859375 
L 29.390625 -0.875 
Q 26.21875 -9.421875 24.46875 -12.640625 
Q 22.125 -17 19.09375 -19.015625 
Q 16.0625 -21.046875 11.859375 -21.046875 
Q 9.328125 -21.046875 6.203125 -19.96875 
" id="ArialMT-79"/>
      <path d="M 40.234375 0 
L 40.234375 6.546875 
Q 35.296875 -1.171875 25.734375 -1.171875 
Q 19.53125 -1.171875 14.328125 2.25 
Q 9.125 5.671875 6.265625 11.796875 
Q 3.421875 17.921875 3.421875 25.875 
Q 3.421875 33.640625 6 39.96875 
Q 8.59375 46.296875 13.765625 49.65625 
Q 18.953125 53.03125 25.34375 53.03125 
Q 30.03125 53.03125 33.6875 51.046875 
Q 37.359375 49.078125 39.65625 45.90625 
L 39.65625 71.578125 
L 48.390625 71.578125 
L 48.390625 0 
z
M 12.453125 25.875 
Q 12.453125 15.921875 16.640625 10.984375 
Q 20.84375 6.0625 26.5625 6.0625 
Q 32.328125 6.0625 36.34375 10.765625 
Q 40.375 15.484375 40.375 25.140625 
Q 40.375 35.796875 36.265625 40.765625 
Q 32.171875 45.75 26.171875 45.75 
Q 20.3125 45.75 16.375 40.96875 
Q 12.453125 36.1875 12.453125 25.875 
" id="ArialMT-64"/>
     </defs>
     <g style="fill:#262626;" transform="translate(286.33296875 385.41890625)scale(0.11 -0.11)">
      <use xlink:href="#ArialMT-64"/>
      <use x="55.615234375" xlink:href="#ArialMT-61"/>
      <use x="111.23046875" xlink:href="#ArialMT-79"/>
     </g>
    </g>
   </g>
   <g id="matplotlib.axis_2">
    <g id="ytick_1">
     <g id="line2d_9">
      <path clip-path="url(#pc9ac00ad59)" d="M 72 356.4 
L 518.4 356.4 
" style="fill:none;stroke:#ffffff;stroke-linecap:round;"/>
     </g>
     <g id="line2d_10"/>
     <g id="line2d_11"/>
     <g id="text_6">
      <!-- −20 -->
      <defs>
       <path d="M 4.15625 35.296875 
Q 4.15625 48 6.765625 55.734375 
Q 9.375 63.484375 14.515625 67.671875 
Q 19.671875 71.875 27.484375 71.875 
Q 33.25 71.875 37.59375 69.546875 
Q 41.9375 67.234375 44.765625 62.859375 
Q 47.609375 58.5 49.21875 52.21875 
Q 50.828125 45.953125 50.828125 35.296875 
Q 50.828125 22.703125 48.234375 14.96875 
Q 45.65625 7.234375 40.5 3 
Q 35.359375 -1.21875 27.484375 -1.21875 
Q 17.140625 -1.21875 11.234375 6.203125 
Q 4.15625 15.140625 4.15625 35.296875 
M 13.1875 35.296875 
Q 13.1875 17.671875 17.3125 11.828125 
Q 21.4375 6 27.484375 6 
Q 33.546875 6 37.671875 11.859375 
Q 41.796875 17.71875 41.796875 35.296875 
Q 41.796875 52.984375 37.671875 58.78125 
Q 33.546875 64.59375 27.390625 64.59375 
Q 21.34375 64.59375 17.71875 59.46875 
Q 13.1875 52.9375 13.1875 35.296875 
" id="ArialMT-30"/>
       <path d="M 52.828125 31.203125 
L 5.5625 31.203125 
L 5.5625 39.40625 
L 52.828125 39.40625 
z
" id="ArialMT-2212"/>
       <path d="M 50.34375 8.453125 
L 50.34375 0 
L 3.03125 0 
Q 2.9375 3.171875 4.046875 6.109375 
Q 5.859375 10.9375 9.828125 15.625 
Q 13.8125 20.3125 21.34375 26.46875 
Q 33.015625 36.03125 37.109375 41.625 
Q 41.21875 47.21875 41.21875 52.203125 
Q 41.21875 57.421875 37.46875 61 
Q 33.734375 64.59375 27.734375 64.59375 
Q 21.390625 64.59375 17.578125 60.78125 
Q 13.765625 56.984375 13.71875 50.25 
L 4.6875 51.171875 
Q 5.609375 61.28125 11.65625 66.578125 
Q 17.71875 71.875 27.9375 71.875 
Q 38.234375 71.875 44.234375 66.15625 
Q 50.25 60.453125 50.25 52 
Q 50.25 47.703125 48.484375 43.546875 
Q 46.734375 39.40625 42.65625 34.8125 
Q 38.578125 30.21875 29.109375 22.21875 
Q 21.1875 15.578125 18.9375 13.203125 
Q 16.703125 10.84375 15.234375 8.453125 
z
" id="ArialMT-32"/>
      </defs>
      <g style="fill:#262626;" transform="translate(48.0375 358.98515625)scale(0.1 -0.1)">
       <use xlink:href="#ArialMT-2212"/>
       <use x="58.3984375" xlink:href="#ArialMT-32"/>
       <use x="114.013671875" xlink:href="#ArialMT-30"/>
      </g>
     </g>
    </g>
    <g id="ytick_2">
     <g id="line2d_12">
      <path clip-path="url(#pc9ac00ad59)" d="M 72 321.2 
L 518.4 321.2 
" style="fill:none;stroke:#ffffff;stroke-linecap:round;"/>
     </g>
     <g id="line2d_13"/>
     <g id="line2d_14"/>
     <g id="text_7">
      <!-- −10 -->
      <defs>
       <path d="M 37.25 0 
L 28.46875 0 
L 28.46875 56 
Q 25.296875 52.984375 20.140625 49.953125 
Q 14.984375 46.921875 10.890625 45.40625 
L 10.890625 53.90625 
Q 18.265625 57.375 23.78125 62.296875 
Q 29.296875 67.234375 31.59375 71.875 
L 37.25 71.875 
z
" id="ArialMT-31"/>
      </defs>
      <g style="fill:#262626;" transform="translate(48.0375 323.78515625)scale(0.1 -0.1)">
       <use xlink:href="#ArialMT-2212"/>
       <use x="58.3984375" xlink:href="#ArialMT-31"/>
       <use x="114.013671875" xlink:href="#ArialMT-30"/>
      </g>
     </g>
    </g>
    <g id="ytick_3">
     <g id="line2d_15">
      <path clip-path="url(#pc9ac00ad59)" d="M 72 286 
L 518.4 286 
" style="fill:none;stroke:#ffffff;stroke-linecap:round;"/>
     </g>
     <g id="line2d_16"/>
     <g id="line2d_17"/>
     <g id="text_8">
      <!-- 0 -->
      <g style="fill:#262626;" transform="translate(59.4390625 288.58515625)scale(0.1 -0.1)">
       <use xlink:href="#ArialMT-30"/>
      </g>
     </g>
    </g>
    <g id="ytick_4">
     <g id="line2d_18">
      <path clip-path="url(#pc9ac00ad59)" d="M 72 250.8 
L 518.4 250.8 
" style="fill:none;stroke:#ffffff;stroke-linecap:round;"/>
     </g>
     <g id="line2d_19"/>
     <g id="line2d_20"/>
     <g id="text_9">
      <!-- 10 -->
      <g style="fill:#262626;" transform="translate(53.878125 253.38515625)scale(0.1 -0.1)">
       <use xlink:href="#ArialMT-31"/>
       <use x="55.615234375" xlink:href="#ArialMT-30"/>
      </g>
     </g>
    </g>
    <g id="ytick_5">
     <g id="line2d_21">
      <path clip-path="url(#pc9ac00ad59)" d="M 72 215.6 
L 518.4 215.6 
" style="fill:none;stroke:#ffffff;stroke-linecap:round;"/>
     </g>
     <g id="line2d_22"/>
     <g id="line2d_23"/>
     <g id="text_10">
      <!-- 20 -->
      <g style="fill:#262626;" transform="translate(53.878125 218.18515625)scale(0.1 -0.1)">
       <use xlink:href="#ArialMT-32"/>
       <use x="55.615234375" xlink:href="#ArialMT-30"/>
      </g>
     </g>
    </g>
    <g id="ytick_6">
     <g id="line2d_24">
      <path clip-path="url(#pc9ac00ad59)" d="M 72 180.4 
L 518.4 180.4 
" style="fill:none;stroke:#ffffff;stroke-linecap:round;"/>
     </g>
     <g id="line2d_25"/>
     <g id="line2d_26"/>
     <g id="text_11">
      <!-- 30 -->
      <defs>
       <path d="M 4.203125 18.890625 
L 12.984375 20.0625 
Q 14.5 12.59375 18.140625 9.296875 
Q 21.78125 6 27 6 
Q 33.203125 6 37.46875 10.296875 
Q 41.75 14.59375 41.75 20.953125 
Q 41.75 27 37.796875 30.921875 
Q 33.84375 34.859375 27.734375 34.859375 
Q 25.25 34.859375 21.53125 33.890625 
L 22.515625 41.609375 
Q 23.390625 41.5 23.921875 41.5 
Q 29.546875 41.5 34.03125 44.421875 
Q 38.53125 47.359375 38.53125 53.46875 
Q 38.53125 58.296875 35.25 61.46875 
Q 31.984375 64.65625 26.8125 64.65625 
Q 21.6875 64.65625 18.265625 61.421875 
Q 14.84375 58.203125 13.875 51.765625 
L 5.078125 53.328125 
Q 6.6875 62.15625 12.390625 67.015625 
Q 18.109375 71.875 26.609375 71.875 
Q 32.46875 71.875 37.390625 69.359375 
Q 42.328125 66.84375 44.9375 62.5 
Q 47.5625 58.15625 47.5625 53.265625 
Q 47.5625 48.640625 45.0625 44.828125 
Q 42.578125 41.015625 37.703125 38.765625 
Q 44.046875 37.3125 47.5625 32.6875 
Q 51.078125 28.078125 51.078125 21.140625 
Q 51.078125 11.765625 44.234375 5.25 
Q 37.40625 -1.265625 26.953125 -1.265625 
Q 17.53125 -1.265625 11.296875 4.34375 
Q 5.078125 9.96875 4.203125 18.890625 
" id="ArialMT-33"/>
      </defs>
      <g style="fill:#262626;" transform="translate(53.878125 182.98515625)scale(0.1 -0.1)">
       <use xlink:href="#ArialMT-33"/>
       <use x="55.615234375" xlink:href="#ArialMT-30"/>
      </g>
     </g>
    </g>
    <g id="ytick_7">
     <g id="line2d_27">
      <path clip-path="url(#pc9ac00ad59)" d="M 72 145.2 
L 518.4 145.2 
" style="fill:none;stroke:#ffffff;stroke-linecap:round;"/>
     </g>
     <g id="line2d_28"/>
     <g id="line2d_29"/>
     <g id="text_12">
      <!-- 40 -->
      <defs>
       <path d="M 32.328125 0 
L 32.328125 17.140625 
L 1.265625 17.140625 
L 1.265625 25.203125 
L 33.9375 71.578125 
L 41.109375 71.578125 
L 41.109375 25.203125 
L 50.78125 25.203125 
L 50.78125 17.140625 
L 41.109375 17.140625 
L 41.109375 0 
z
M 32.328125 25.203125 
L 32.328125 57.46875 
L 9.90625 25.203125 
z
" id="ArialMT-34"/>
      </defs>
      <g style="fill:#262626;" transform="translate(53.878125 147.78515625)scale(0.1 -0.1)">
       <use xlink:href="#ArialMT-34"/>
       <use x="55.615234375" xlink:href="#ArialMT-30"/>
      </g>
     </g>
    </g>
    <g id="ytick_8">
     <g id="line2d_30">
      <path clip-path="url(#pc9ac00ad59)" d="M 72 110 
L 518.4 110 
" style="fill:none;stroke:#ffffff;stroke-linecap:round;"/>
     </g>
     <g id="line2d_31"/>
     <g id="line2d_32"/>
     <g id="text_13">
      <!-- 50 -->
      <defs>
       <path d="M 4.15625 18.75 
L 13.375 19.53125 
Q 14.40625 12.796875 18.140625 9.390625 
Q 21.875 6 27.15625 6 
Q 33.5 6 37.890625 10.78125 
Q 42.28125 15.578125 42.28125 23.484375 
Q 42.28125 31 38.0625 35.34375 
Q 33.84375 39.703125 27 39.703125 
Q 22.75 39.703125 19.328125 37.765625 
Q 15.921875 35.84375 13.96875 32.765625 
L 5.71875 33.84375 
L 12.640625 70.609375 
L 48.25 70.609375 
L 48.25 62.203125 
L 19.671875 62.203125 
L 15.828125 42.96875 
Q 22.265625 47.46875 29.34375 47.46875 
Q 38.71875 47.46875 45.15625 40.96875 
Q 51.609375 34.46875 51.609375 24.265625 
Q 51.609375 14.546875 45.953125 7.46875 
Q 39.0625 -1.21875 27.15625 -1.21875 
Q 17.390625 -1.21875 11.203125 4.25 
Q 5.03125 9.71875 4.15625 18.75 
" id="ArialMT-35"/>
      </defs>
      <g style="fill:#262626;" transform="translate(53.878125 112.58515625)scale(0.1 -0.1)">
       <use xlink:href="#ArialMT-35"/>
       <use x="55.615234375" xlink:href="#ArialMT-30"/>
      </g>
     </g>
    </g>
    <g id="ytick_9">
     <g id="line2d_33">
      <path clip-path="url(#pc9ac00ad59)" d="M 72 74.8 
L 518.4 74.8 
" style="fill:none;stroke:#ffffff;stroke-linecap:round;"/>
     </g>
     <g id="line2d_34"/>
     <g id="line2d_35"/>
     <g id="text_14">
      <!-- 60 -->
      <defs>
       <path d="M 49.75 54.046875 
L 41.015625 53.375 
Q 39.84375 58.546875 37.703125 60.890625 
Q 34.125 64.65625 28.90625 64.65625 
Q 24.703125 64.65625 21.53125 62.3125 
Q 17.390625 59.28125 14.984375 53.46875 
Q 12.59375 47.65625 12.5 36.921875 
Q 15.671875 41.75 20.265625 44.09375 
Q 24.859375 46.4375 29.890625 46.4375 
Q 38.671875 46.4375 44.84375 39.96875 
Q 51.03125 33.5 51.03125 23.25 
Q 51.03125 16.5 48.125 10.71875 
Q 45.21875 4.9375 40.140625 1.859375 
Q 35.0625 -1.21875 28.609375 -1.21875 
Q 17.625 -1.21875 10.6875 6.859375 
Q 3.765625 14.9375 3.765625 33.5 
Q 3.765625 54.25 11.421875 63.671875 
Q 18.109375 71.875 29.4375 71.875 
Q 37.890625 71.875 43.28125 67.140625 
Q 48.6875 62.40625 49.75 54.046875 
M 13.875 23.1875 
Q 13.875 18.65625 15.796875 14.5 
Q 17.71875 10.359375 21.1875 8.171875 
Q 24.65625 6 28.46875 6 
Q 34.03125 6 38.03125 10.484375 
Q 42.046875 14.984375 42.046875 22.703125 
Q 42.046875 30.125 38.078125 34.390625 
Q 34.125 38.671875 28.125 38.671875 
Q 22.171875 38.671875 18.015625 34.390625 
Q 13.875 30.125 13.875 23.1875 
" id="ArialMT-36"/>
      </defs>
      <g style="fill:#262626;" transform="translate(53.878125 77.38515625)scale(0.1 -0.1)">
       <use xlink:href="#ArialMT-36"/>
       <use x="55.615234375" xlink:href="#ArialMT-30"/>
      </g>
     </g>
    </g>
    <g id="ytick_10">
     <g id="line2d_36">
      <path clip-path="url(#pc9ac00ad59)" d="M 72 39.6 
L 518.4 39.6 
" style="fill:none;stroke:#ffffff;stroke-linecap:round;"/>
     </g>
     <g id="line2d_37"/>
     <g id="line2d_38"/>
     <g id="text_15">
      <!-- 70 -->
      <defs>
       <path d="M 4.734375 62.203125 
L 4.734375 70.65625 
L 51.078125 70.65625 
L 51.078125 63.8125 
Q 44.234375 56.546875 37.515625 44.484375 
Q 30.8125 32.421875 27.15625 19.671875 
Q 24.515625 10.6875 23.78125 0 
L 14.75 0 
Q 14.890625 8.453125 18.0625 20.40625 
Q 21.234375 32.375 27.171875 43.484375 
Q 33.109375 54.59375 39.796875 62.203125 
z
" id="ArialMT-37"/>
      </defs>
      <g style="fill:#262626;" transform="translate(53.878125 42.18515625)scale(0.1 -0.1)">
       <use xlink:href="#ArialMT-37"/>
       <use x="55.615234375" xlink:href="#ArialMT-30"/>
      </g>
     </g>
    </g>
    <g id="text_16">
     <!-- total_bill -->
     <defs>
      <path d="M 6.390625 0 
L 6.390625 71.578125 
L 15.1875 71.578125 
L 15.1875 0 
z
" id="ArialMT-6c"/>
      <path d="M 14.703125 0 
L 6.546875 0 
L 6.546875 71.578125 
L 15.328125 71.578125 
L 15.328125 46.046875 
Q 20.90625 53.03125 29.546875 53.03125 
Q 34.328125 53.03125 38.59375 51.09375 
Q 42.875 49.171875 45.625 45.671875 
Q 48.390625 42.1875 49.953125 37.25 
Q 51.515625 32.328125 51.515625 26.703125 
Q 51.515625 13.375 44.921875 6.09375 
Q 38.328125 -1.171875 29.109375 -1.171875 
Q 19.921875 -1.171875 14.703125 6.5 
z
M 14.59375 26.3125 
Q 14.59375 17 17.140625 12.84375 
Q 21.296875 6.0625 28.375 6.0625 
Q 34.125 6.0625 38.328125 11.0625 
Q 42.53125 16.0625 42.53125 25.984375 
Q 42.53125 36.140625 38.5 40.96875 
Q 34.46875 45.796875 28.765625 45.796875 
Q 23 45.796875 18.796875 40.796875 
Q 14.59375 35.796875 14.59375 26.3125 
" id="ArialMT-62"/>
      <path d="M -1.515625 -19.875 
L -1.515625 -13.53125 
L 56.734375 -13.53125 
L 56.734375 -19.875 
z
" id="ArialMT-5f"/>
      <path d="M 3.328125 25.921875 
Q 3.328125 40.328125 11.328125 47.265625 
Q 18.015625 53.03125 27.640625 53.03125 
Q 38.328125 53.03125 45.109375 46.015625 
Q 51.90625 39.015625 51.90625 26.65625 
Q 51.90625 16.65625 48.90625 10.90625 
Q 45.90625 5.171875 40.15625 2 
Q 34.421875 -1.171875 27.640625 -1.171875 
Q 16.75 -1.171875 10.03125 5.8125 
Q 3.328125 12.796875 3.328125 25.921875 
M 12.359375 25.921875 
Q 12.359375 15.96875 16.703125 11.015625 
Q 21.046875 6.0625 27.640625 6.0625 
Q 34.1875 6.0625 38.53125 11.03125 
Q 42.875 16.015625 42.875 26.21875 
Q 42.875 35.84375 38.5 40.796875 
Q 34.125 45.75 27.640625 45.75 
Q 21.046875 45.75 16.703125 40.8125 
Q 12.359375 35.890625 12.359375 25.921875 
" id="ArialMT-6f"/>
     </defs>
     <g style="fill:#262626;" transform="translate(40.85125 218.178125)rotate(-90.0)scale(0.11 -0.11)">
      <use xlink:href="#ArialMT-74"/>
      <use x="27.783203125" xlink:href="#ArialMT-6f"/>
      <use x="83.3984375" xlink:href="#ArialMT-74"/>
      <use x="111.181640625" xlink:href="#ArialMT-61"/>
      <use x="166.796875" xlink:href="#ArialMT-6c"/>
      <use x="189.013671875" xlink:href="#ArialMT-5f"/>
      <use x="244.62890625" xlink:href="#ArialMT-62"/>
      <use x="300.244140625" xlink:href="#ArialMT-69"/>
      <use x="322.4609375" xlink:href="#ArialMT-6c"/>
      <use x="344.677734375" xlink:href="#ArialMT-6c"/>
     </g>
    </g>
   </g>
   <g id="PolyCollection_1">
    <defs>
     <path d="M 106.230299 -114.760726 
L 104.729701 -114.760726 
L 104.513784 -116.23006 
L 104.250235 -117.699395 
L 103.93293 -119.16873 
L 103.556129 -120.638065 
L 103.114824 -122.1074 
L 102.605103 -123.576735 
L 102.024507 -125.046069 
L 101.37236 -126.515404 
L 100.650029 -127.984739 
L 99.861086 -129.454074 
L 99.011354 -130.923409 
L 98.108804 -132.392744 
L 97.163313 -133.862078 
L 96.186279 -135.331413 
L 95.190117 -136.800748 
L 94.187684 -138.270083 
L 93.191655 -139.739418 
L 92.213939 -141.208753 
L 91.26515 -142.678087 
L 90.354215 -144.147422 
L 89.488139 -145.616757 
L 88.671947 -147.086092 
L 87.908814 -148.555427 
L 87.200356 -150.024762 
L 86.547041 -151.494096 
L 85.948678 -152.963431 
L 85.404912 -154.432766 
L 84.915677 -155.902101 
L 84.481535 -157.371436 
L 84.103878 -158.840771 
L 83.784957 -160.310106 
L 83.527743 -161.77944 
L 83.335637 -163.248775 
L 83.212063 -164.71811 
L 83.16 -166.187445 
L 83.181502 -167.65678 
L 83.277272 -169.126115 
L 83.446331 -170.595449 
L 83.685833 -172.064784 
L 83.991034 -173.534119 
L 84.35543 -175.003454 
L 84.771046 -176.472789 
L 85.228853 -177.942124 
L 85.719256 -179.411458 
L 86.232635 -180.880793 
L 86.759854 -182.350128 
L 87.292722 -183.819463 
L 87.824352 -185.288798 
L 88.349399 -186.758133 
L 88.864156 -188.227467 
L 89.36652 -189.696802 
L 89.855825 -191.166137 
L 90.332582 -192.635472 
L 90.798148 -194.104807 
L 91.254361 -195.574142 
L 91.703174 -197.043476 
L 92.146334 -198.512811 
L 92.585112 -199.982146 
L 93.020127 -201.451481 
L 93.451253 -202.920816 
L 93.87763 -204.390151 
L 94.297757 -205.859485 
L 94.709655 -207.32882 
L 95.111094 -208.798155 
L 95.499834 -210.26749 
L 95.873882 -211.736825 
L 96.231726 -213.20616 
L 96.572526 -214.675494 
L 96.896256 -216.144829 
L 97.203768 -217.614164 
L 97.496791 -219.083499 
L 97.777853 -220.552834 
L 98.050138 -222.022169 
L 98.317282 -223.491504 
L 98.583137 -224.960838 
L 98.851502 -226.430173 
L 99.125864 -227.899508 
L 99.409146 -229.368843 
L 99.703496 -230.838178 
L 100.010129 -232.307513 
L 100.329232 -233.776847 
L 100.65994 -235.246182 
L 101.000382 -236.715517 
L 101.347796 -238.184852 
L 101.6987 -239.654187 
L 102.049104 -241.123522 
L 102.39475 -242.592856 
L 102.731353 -244.062191 
L 103.054838 -245.531526 
L 103.36154 -247.000861 
L 103.648376 -248.470196 
L 103.912953 -249.939531 
L 104.153639 -251.408865 
L 104.36957 -252.8782 
L 104.56062 -254.347535 
L 104.727327 -255.81687 
L 104.870791 -257.286205 
L 104.99256 -258.75554 
L 105.0945 -260.224874 
L 105.8655 -260.224874 
L 105.8655 -260.224874 
L 105.96744 -258.75554 
L 106.089209 -257.286205 
L 106.232673 -255.81687 
L 106.39938 -254.347535 
L 106.59043 -252.8782 
L 106.806361 -251.408865 
L 107.047047 -249.939531 
L 107.311624 -248.470196 
L 107.59846 -247.000861 
L 107.905162 -245.531526 
L 108.228647 -244.062191 
L 108.56525 -242.592856 
L 108.910896 -241.123522 
L 109.2613 -239.654187 
L 109.612204 -238.184852 
L 109.959618 -236.715517 
L 110.30006 -235.246182 
L 110.630768 -233.776847 
L 110.949871 -232.307513 
L 111.256504 -230.838178 
L 111.550854 -229.368843 
L 111.834136 -227.899508 
L 112.108498 -226.430173 
L 112.376863 -224.960838 
L 112.642718 -223.491504 
L 112.909862 -222.022169 
L 113.182147 -220.552834 
L 113.463209 -219.083499 
L 113.756232 -217.614164 
L 114.063744 -216.144829 
L 114.387474 -214.675494 
L 114.728274 -213.20616 
L 115.086118 -211.736825 
L 115.460166 -210.26749 
L 115.848906 -208.798155 
L 116.250345 -207.32882 
L 116.662243 -205.859485 
L 117.08237 -204.390151 
L 117.508747 -202.920816 
L 117.939873 -201.451481 
L 118.374888 -199.982146 
L 118.813666 -198.512811 
L 119.256826 -197.043476 
L 119.705639 -195.574142 
L 120.161852 -194.104807 
L 120.627418 -192.635472 
L 121.104175 -191.166137 
L 121.59348 -189.696802 
L 122.095844 -188.227467 
L 122.610601 -186.758133 
L 123.135648 -185.288798 
L 123.667278 -183.819463 
L 124.200146 -182.350128 
L 124.727365 -180.880793 
L 125.240744 -179.411458 
L 125.731147 -177.942124 
L 126.188954 -176.472789 
L 126.60457 -175.003454 
L 126.968966 -173.534119 
L 127.274167 -172.064784 
L 127.513669 -170.595449 
L 127.682728 -169.126115 
L 127.778498 -167.65678 
L 127.8 -166.187445 
L 127.747937 -164.71811 
L 127.624363 -163.248775 
L 127.432257 -161.77944 
L 127.175043 -160.310106 
L 126.856122 -158.840771 
L 126.478465 -157.371436 
L 126.044323 -155.902101 
L 125.555088 -154.432766 
L 125.011322 -152.963431 
L 124.412959 -151.494096 
L 123.759644 -150.024762 
L 123.051186 -148.555427 
L 122.288053 -147.086092 
L 121.471861 -145.616757 
L 120.605785 -144.147422 
L 119.69485 -142.678087 
L 118.746061 -141.208753 
L 117.768345 -139.739418 
L 116.772316 -138.270083 
L 115.769883 -136.800748 
L 114.773721 -135.331413 
L 113.796687 -133.862078 
L 112.851196 -132.392744 
L 111.948646 -130.923409 
L 111.098914 -129.454074 
L 110.309971 -127.984739 
L 109.58764 -126.515404 
L 108.935493 -125.046069 
L 108.354897 -123.576735 
L 107.845176 -122.1074 
L 107.403871 -120.638065 
L 107.02707 -119.16873 
L 106.709765 -117.699395 
L 106.446216 -116.23006 
L 106.230299 -114.760726 
z
" id="mdce8921cce" style="stroke:#4c4c4c;stroke-width:1.75;"/>
    </defs>
    <g clip-path="url(#pc9ac00ad59)">
     <use style="fill:#5875a4;stroke:#4c4c4c;stroke-width:1.75;" x="0.0" xlink:href="#mdce8921cce" y="396.0"/>
    </g>
   </g>
   <g id="PolyCollection_2">
    <defs>
     <path d="M 217.371373 -116.828582 
L 216.788627 -116.828582 
L 216.678622 -118.746453 
L 216.53625 -120.664324 
L 216.35528 -122.582195 
L 216.129245 -124.500066 
L 215.85166 -126.417937 
L 215.516254 -128.335808 
L 215.117195 -130.253679 
L 214.649273 -132.17155 
L 214.108036 -134.089421 
L 213.489877 -136.007293 
L 212.792084 -137.925164 
L 212.01287 -139.843035 
L 211.151457 -141.760906 
L 210.208226 -143.678777 
L 209.185002 -145.596648 
L 208.085483 -147.514519 
L 206.915811 -149.43239 
L 205.685243 -151.350261 
L 204.406839 -153.268132 
L 203.098052 -155.186003 
L 201.781098 -157.103874 
L 200.482962 -159.021745 
L 199.23496 -160.939616 
L 198.071777 -162.857488 
L 197.029988 -164.775359 
L 196.146146 -166.69323 
L 195.454547 -168.611101 
L 194.984883 -170.528972 
L 194.76 -172.446843 
L 194.793984 -174.364714 
L 195.090792 -176.282585 
L 195.643584 -178.200456 
L 196.434852 -180.118327 
L 197.437359 -182.036198 
L 198.615796 -183.954069 
L 199.929026 -185.87194 
L 201.332691 -187.789812 
L 202.781934 -189.707683 
L 204.233992 -191.625554 
L 205.650439 -193.543425 
L 206.998909 -195.461296 
L 208.254193 -197.379167 
L 209.398692 -199.297038 
L 210.422279 -201.214909 
L 211.321643 -203.13278 
L 212.099275 -205.050651 
L 212.762233 -206.968522 
L 213.320814 -208.886393 
L 213.787262 -210.804264 
L 214.174599 -212.722136 
L 214.495634 -214.640007 
L 214.762186 -216.557878 
L 214.984542 -218.475749 
L 215.171142 -220.39362 
L 215.328494 -222.311491 
L 215.461271 -224.229362 
L 215.572593 -226.147233 
L 215.664416 -228.065104 
L 215.738001 -229.982975 
L 215.794376 -231.900846 
L 215.834757 -233.818717 
L 215.860846 -235.736588 
L 215.874987 -237.65446 
L 215.880147 -239.572331 
L 215.879744 -241.490202 
L 215.877335 -243.408073 
L 215.876242 -245.325944 
L 215.87916 -247.243815 
L 215.88783 -249.161686 
L 215.902831 -251.079557 
L 215.923526 -252.997428 
L 215.94819 -254.915299 
L 215.974292 -256.83317 
L 215.9989 -258.751041 
L 216.019156 -260.668912 
L 216.032741 -262.586784 
L 216.038267 -264.504655 
L 216.035548 -266.422526 
L 216.025692 -268.340397 
L 216.011018 -270.258268 
L 215.99481 -272.176139 
L 215.980928 -274.09401 
L 215.973356 -276.011881 
L 215.975725 -277.929752 
L 215.990898 -279.847623 
L 216.020657 -281.765494 
L 216.065522 -283.683365 
L 216.124743 -285.601236 
L 216.196421 -287.519107 
L 216.277763 -289.436979 
L 216.365403 -291.35485 
L 216.455758 -293.272721 
L 216.545368 -295.190592 
L 216.631173 -297.108463 
L 216.710715 -299.026334 
L 216.782247 -300.944205 
L 216.84475 -302.862076 
L 216.897879 -304.779947 
L 216.941857 -306.697818 
L 217.218143 -306.697818 
L 217.218143 -306.697818 
L 217.262121 -304.779947 
L 217.31525 -302.862076 
L 217.377753 -300.944205 
L 217.449285 -299.026334 
L 217.528827 -297.108463 
L 217.614632 -295.190592 
L 217.704242 -293.272721 
L 217.794597 -291.35485 
L 217.882237 -289.436979 
L 217.963579 -287.519107 
L 218.035257 -285.601236 
L 218.094478 -283.683365 
L 218.139343 -281.765494 
L 218.169102 -279.847623 
L 218.184275 -277.929752 
L 218.186644 -276.011881 
L 218.179072 -274.09401 
L 218.16519 -272.176139 
L 218.148982 -270.258268 
L 218.134308 -268.340397 
L 218.124452 -266.422526 
L 218.121733 -264.504655 
L 218.127259 -262.586784 
L 218.140844 -260.668912 
L 218.1611 -258.751041 
L 218.185708 -256.83317 
L 218.21181 -254.915299 
L 218.236474 -252.997428 
L 218.257169 -251.079557 
L 218.27217 -249.161686 
L 218.28084 -247.243815 
L 218.283758 -245.325944 
L 218.282665 -243.408073 
L 218.280256 -241.490202 
L 218.279853 -239.572331 
L 218.285013 -237.65446 
L 218.299154 -235.736588 
L 218.325243 -233.818717 
L 218.365624 -231.900846 
L 218.421999 -229.982975 
L 218.495584 -228.065104 
L 218.587407 -226.147233 
L 218.698729 -224.229362 
L 218.831506 -222.311491 
L 218.988858 -220.39362 
L 219.175458 -218.475749 
L 219.397814 -216.557878 
L 219.664366 -214.640007 
L 219.985401 -212.722136 
L 220.372738 -210.804264 
L 220.839186 -208.886393 
L 221.397767 -206.968522 
L 222.060725 -205.050651 
L 222.838357 -203.13278 
L 223.737721 -201.214909 
L 224.761308 -199.297038 
L 225.905807 -197.379167 
L 227.161091 -195.461296 
L 228.509561 -193.543425 
L 229.926008 -191.625554 
L 231.378066 -189.707683 
L 232.827309 -187.789812 
L 234.230974 -185.87194 
L 235.544204 -183.954069 
L 236.722641 -182.036198 
L 237.725148 -180.118327 
L 238.516416 -178.200456 
L 239.069208 -176.282585 
L 239.366016 -174.364714 
L 239.4 -172.446843 
L 239.175117 -170.528972 
L 238.705453 -168.611101 
L 238.013854 -166.69323 
L 237.130012 -164.775359 
L 236.088223 -162.857488 
L 234.92504 -160.939616 
L 233.677038 -159.021745 
L 232.378902 -157.103874 
L 231.061948 -155.186003 
L 229.753161 -153.268132 
L 228.474757 -151.350261 
L 227.244189 -149.43239 
L 226.074517 -147.514519 
L 224.974998 -145.596648 
L 223.951774 -143.678777 
L 223.008543 -141.760906 
L 222.14713 -139.843035 
L 221.367916 -137.925164 
L 220.670123 -136.007293 
L 220.051964 -134.089421 
L 219.510727 -132.17155 
L 219.042805 -130.253679 
L 218.643746 -128.335808 
L 218.30834 -126.417937 
L 218.030755 -124.500066 
L 217.80472 -122.582195 
L 217.62375 -120.664324 
L 217.481378 -118.746453 
L 217.371373 -116.828582 
z
" id="m8c0b9fce61" style="stroke:#4c4c4c;stroke-width:1.75;"/>
    </defs>
    <g clip-path="url(#pc9ac00ad59)">
     <use style="fill:#5875a4;stroke:#4c4c4c;stroke-width:1.75;" x="0.0" xlink:href="#m8c0b9fce61" y="396.0"/>
    </g>
   </g>
   <g id="PolyCollection_3">
    <defs>
     <path d="M 261.940126 -73.590969 
L 261.499874 -73.590969 
L 261.447501 -76.010772 
L 261.385595 -78.430574 
L 261.313098 -80.850377 
L 261.228959 -83.27018 
L 261.132148 -85.689982 
L 261.021671 -88.109785 
L 260.896579 -90.529588 
L 260.755978 -92.94939 
L 260.599023 -95.369193 
L 260.424923 -97.788995 
L 260.232934 -100.208798 
L 260.022352 -102.628601 
L 259.792518 -105.048403 
L 259.542814 -107.468206 
L 259.272681 -109.888009 
L 258.98164 -112.307811 
L 258.669334 -114.727614 
L 258.335571 -117.147417 
L 257.980394 -119.567219 
L 257.604152 -121.987022 
L 257.207575 -124.406825 
L 256.791857 -126.826627 
L 256.358723 -129.24643 
L 255.910489 -131.666233 
L 255.450096 -134.086035 
L 254.98112 -136.505838 
L 254.507755 -138.92564 
L 254.034756 -141.345443 
L 253.567359 -143.765246 
L 253.111166 -146.185048 
L 252.67201 -148.604851 
L 252.255799 -151.024654 
L 251.868362 -153.444456 
L 251.51528 -155.864259 
L 251.201735 -158.284062 
L 250.932373 -160.703864 
L 250.711182 -163.123667 
L 250.541402 -165.54347 
L 250.425454 -167.963272 
L 250.364897 -170.383075 
L 250.360412 -172.802878 
L 250.4118 -175.22268 
L 250.518006 -177.642483 
L 250.677148 -180.062285 
L 250.886565 -182.482088 
L 251.142864 -184.901891 
L 251.441986 -187.321693 
L 251.779263 -189.741496 
L 252.149501 -192.161299 
L 252.547055 -194.581101 
L 252.965924 -197.000904 
L 253.399858 -199.420707 
L 253.842473 -201.840509 
L 254.287381 -204.260312 
L 254.72833 -206.680115 
L 255.159354 -209.099917 
L 255.574919 -211.51972 
L 255.970069 -213.939522 
L 256.340562 -216.359325 
L 256.682982 -218.779128 
L 256.994836 -221.19893 
L 257.274605 -223.618733 
L 257.521775 -226.038536 
L 257.736818 -228.458338 
L 257.92114 -230.878141 
L 258.076994 -233.297944 
L 258.207356 -235.717746 
L 258.315782 -238.137549 
L 258.406239 -240.557352 
L 258.482935 -242.977154 
L 258.550137 -245.396957 
L 258.612007 -247.81676 
L 258.672443 -250.236562 
L 258.734943 -252.656365 
L 258.802501 -255.076167 
L 258.877521 -257.49597 
L 258.961768 -259.915773 
L 259.056345 -262.335575 
L 259.161709 -264.755378 
L 259.277696 -267.175181 
L 259.403588 -269.594983 
L 259.538185 -272.014786 
L 259.679899 -274.434589 
L 259.826852 -276.854391 
L 259.976983 -279.274194 
L 260.128147 -281.693997 
L 260.278215 -284.113799 
L 260.42516 -286.533602 
L 260.567131 -288.953405 
L 260.702514 -291.373207 
L 260.82997 -293.79301 
L 260.948465 -296.212812 
L 261.057276 -298.632615 
L 261.155984 -301.052418 
L 261.244457 -303.47222 
L 261.322817 -305.892023 
L 261.391409 -308.311826 
L 261.450751 -310.731628 
L 261.501498 -313.151431 
L 261.938502 -313.151431 
L 261.938502 -313.151431 
L 261.989249 -310.731628 
L 262.048591 -308.311826 
L 262.117183 -305.892023 
L 262.195543 -303.47222 
L 262.284016 -301.052418 
L 262.382724 -298.632615 
L 262.491535 -296.212812 
L 262.61003 -293.79301 
L 262.737486 -291.373207 
L 262.872869 -288.953405 
L 263.01484 -286.533602 
L 263.161785 -284.113799 
L 263.311853 -281.693997 
L 263.463017 -279.274194 
L 263.613148 -276.854391 
L 263.760101 -274.434589 
L 263.901815 -272.014786 
L 264.036412 -269.594983 
L 264.162304 -267.175181 
L 264.278291 -264.755378 
L 264.383655 -262.335575 
L 264.478232 -259.915773 
L 264.562479 -257.49597 
L 264.637499 -255.076167 
L 264.705057 -252.656365 
L 264.767557 -250.236562 
L 264.827993 -247.81676 
L 264.889863 -245.396957 
L 264.957065 -242.977154 
L 265.033761 -240.557352 
L 265.124218 -238.137549 
L 265.232644 -235.717746 
L 265.363006 -233.297944 
L 265.51886 -230.878141 
L 265.703182 -228.458338 
L 265.918225 -226.038536 
L 266.165395 -223.618733 
L 266.445164 -221.19893 
L 266.757018 -218.779128 
L 267.099438 -216.359325 
L 267.469931 -213.939522 
L 267.865081 -211.51972 
L 268.280646 -209.099917 
L 268.71167 -206.680115 
L 269.152619 -204.260312 
L 269.597527 -201.840509 
L 270.040142 -199.420707 
L 270.474076 -197.000904 
L 270.892945 -194.581101 
L 271.290499 -192.161299 
L 271.660737 -189.741496 
L 271.998014 -187.321693 
L 272.297136 -184.901891 
L 272.553435 -182.482088 
L 272.762852 -180.062285 
L 272.921994 -177.642483 
L 273.0282 -175.22268 
L 273.079588 -172.802878 
L 273.075103 -170.383075 
L 273.014546 -167.963272 
L 272.898598 -165.54347 
L 272.728818 -163.123667 
L 272.507627 -160.703864 
L 272.238265 -158.284062 
L 271.92472 -155.864259 
L 271.571638 -153.444456 
L 271.184201 -151.024654 
L 270.76799 -148.604851 
L 270.328834 -146.185048 
L 269.872641 -143.765246 
L 269.405244 -141.345443 
L 268.932245 -138.92564 
L 268.45888 -136.505838 
L 267.989904 -134.086035 
L 267.529511 -131.666233 
L 267.081277 -129.24643 
L 266.648143 -126.826627 
L 266.232425 -124.406825 
L 265.835848 -121.987022 
L 265.459606 -119.567219 
L 265.104429 -117.147417 
L 264.770666 -114.727614 
L 264.45836 -112.307811 
L 264.167319 -109.888009 
L 263.897186 -107.468206 
L 263.647482 -105.048403 
L 263.417648 -102.628601 
L 263.207066 -100.208798 
L 263.015077 -97.788995 
L 262.840977 -95.369193 
L 262.684022 -92.94939 
L 262.543421 -90.529588 
L 262.418329 -88.109785 
L 262.307852 -85.689982 
L 262.211041 -83.27018 
L 262.126902 -80.850377 
L 262.054405 -78.430574 
L 261.992499 -76.010772 
L 261.940126 -73.590969 
z
" id="m8d5123a5fb" style="stroke:#4c4c4c;stroke-width:1.75;"/>
    </defs>
    <g clip-path="url(#pc9ac00ad59)">
     <use style="fill:#5f9e6e;stroke:#4c4c4c;stroke-width:1.75;" x="0.0" xlink:href="#m8d5123a5fb" y="396.0"/>
    </g>
   </g>
   <g id="PolyCollection_4">
    <defs>
     <path d="M 329.286049 -115.021967 
L 328.073951 -115.021967 
L 327.932728 -116.516958 
L 327.766088 -118.011948 
L 327.57123 -119.506939 
L 327.345397 -121.001929 
L 327.085952 -122.49692 
L 326.790442 -123.991911 
L 326.456673 -125.486901 
L 326.082774 -126.981892 
L 325.667253 -128.476882 
L 325.209048 -129.971873 
L 324.707561 -131.466863 
L 324.162686 -132.961854 
L 323.574824 -134.456845 
L 322.94489 -135.951835 
L 322.274316 -137.446826 
L 321.56505 -138.941816 
L 320.819559 -140.436807 
L 320.040835 -141.931797 
L 319.232403 -143.426788 
L 318.398343 -144.921778 
L 317.543306 -146.416769 
L 316.672534 -147.91176 
L 315.791876 -149.40675 
L 314.907783 -150.901741 
L 314.027289 -152.396731 
L 313.157959 -153.891722 
L 312.307801 -155.386712 
L 311.485145 -156.881703 
L 310.698481 -158.376694 
L 309.956257 -159.871684 
L 309.266659 -161.366675 
L 308.63737 -162.861665 
L 308.075325 -164.356656 
L 307.586486 -165.851646 
L 307.175641 -167.346637 
L 306.84625 -168.841627 
L 306.600355 -170.336618 
L 306.438546 -171.831609 
L 306.36 -173.326599 
L 306.362589 -174.82159 
L 306.443042 -176.31658 
L 306.597156 -177.811571 
L 306.820035 -179.306561 
L 307.106339 -180.801552 
L 307.450528 -182.296542 
L 307.847079 -183.791533 
L 308.290658 -185.286524 
L 308.776251 -186.781514 
L 309.299222 -188.276505 
L 309.855332 -189.771495 
L 310.440687 -191.266486 
L 311.051658 -192.761476 
L 311.684759 -194.256467 
L 312.336521 -195.751458 
L 313.003357 -197.246448 
L 313.681449 -198.741439 
L 314.366675 -200.236429 
L 315.054559 -201.73142 
L 315.740291 -203.22641 
L 316.418784 -204.721401 
L 317.084787 -206.216391 
L 317.733039 -207.711382 
L 318.358457 -209.206373 
L 318.956341 -210.701363 
L 319.522581 -212.196354 
L 320.053858 -213.691344 
L 320.547808 -215.186335 
L 321.003148 -216.681325 
L 321.419749 -218.176316 
L 321.798645 -219.671306 
L 322.141985 -221.166297 
L 322.452913 -222.661288 
L 322.735405 -224.156278 
L 322.994047 -225.651269 
L 323.233799 -227.146259 
L 323.459726 -228.64125 
L 323.676741 -230.13624 
L 323.889367 -231.631231 
L 324.101521 -233.126222 
L 324.316356 -234.621212 
L 324.536145 -236.116203 
L 324.762229 -237.611193 
L 324.995019 -239.106184 
L 325.234053 -240.601174 
L 325.4781 -242.096165 
L 325.7253 -243.591155 
L 325.973323 -245.086146 
L 326.219547 -246.581137 
L 326.461236 -248.076127 
L 326.695695 -249.571118 
L 326.920421 -251.066108 
L 327.133217 -252.561099 
L 327.332275 -254.056089 
L 327.51623 -255.55108 
L 327.684185 -257.046071 
L 327.835702 -258.541061 
L 327.970774 -260.036052 
L 328.089775 -261.531042 
L 328.1934 -263.026033 
L 329.1666 -263.026033 
L 329.1666 -263.026033 
L 329.270225 -261.531042 
L 329.389226 -260.036052 
L 329.524298 -258.541061 
L 329.675815 -257.046071 
L 329.84377 -255.55108 
L 330.027725 -254.056089 
L 330.226783 -252.561099 
L 330.439579 -251.066108 
L 330.664305 -249.571118 
L 330.898764 -248.076127 
L 331.140453 -246.581137 
L 331.386677 -245.086146 
L 331.6347 -243.591155 
L 331.8819 -242.096165 
L 332.125947 -240.601174 
L 332.364981 -239.106184 
L 332.597771 -237.611193 
L 332.823855 -236.116203 
L 333.043644 -234.621212 
L 333.258479 -233.126222 
L 333.470633 -231.631231 
L 333.683259 -230.13624 
L 333.900274 -228.64125 
L 334.126201 -227.146259 
L 334.365953 -225.651269 
L 334.624595 -224.156278 
L 334.907087 -222.661288 
L 335.218015 -221.166297 
L 335.561355 -219.671306 
L 335.940251 -218.176316 
L 336.356852 -216.681325 
L 336.812192 -215.186335 
L 337.306142 -213.691344 
L 337.837419 -212.196354 
L 338.403659 -210.701363 
L 339.001543 -209.206373 
L 339.626961 -207.711382 
L 340.275213 -206.216391 
L 340.941216 -204.721401 
L 341.619709 -203.22641 
L 342.305441 -201.73142 
L 342.993325 -200.236429 
L 343.678551 -198.741439 
L 344.356643 -197.246448 
L 345.023479 -195.751458 
L 345.675241 -194.256467 
L 346.308342 -192.761476 
L 346.919313 -191.266486 
L 347.504668 -189.771495 
L 348.060778 -188.276505 
L 348.583749 -186.781514 
L 349.069342 -185.286524 
L 349.512921 -183.791533 
L 349.909472 -182.296542 
L 350.253661 -180.801552 
L 350.539965 -179.306561 
L 350.762844 -177.811571 
L 350.916958 -176.31658 
L 350.997411 -174.82159 
L 351 -173.326599 
L 350.921454 -171.831609 
L 350.759645 -170.336618 
L 350.51375 -168.841627 
L 350.184359 -167.346637 
L 349.773514 -165.851646 
L 349.284675 -164.356656 
L 348.72263 -162.861665 
L 348.093341 -161.366675 
L 347.403743 -159.871684 
L 346.661519 -158.376694 
L 345.874855 -156.881703 
L 345.052199 -155.386712 
L 344.202041 -153.891722 
L 343.332711 -152.396731 
L 342.452217 -150.901741 
L 341.568124 -149.40675 
L 340.687466 -147.91176 
L 339.816694 -146.416769 
L 338.961657 -144.921778 
L 338.127597 -143.426788 
L 337.319165 -141.931797 
L 336.540441 -140.436807 
L 335.79495 -138.941816 
L 335.085684 -137.446826 
L 334.41511 -135.951835 
L 333.785176 -134.456845 
L 333.197314 -132.961854 
L 332.652439 -131.466863 
L 332.150952 -129.971873 
L 331.692747 -128.476882 
L 331.277226 -126.981892 
L 330.903327 -125.486901 
L 330.569558 -123.991911 
L 330.274048 -122.49692 
L 330.014603 -121.001929 
L 329.78877 -119.506939 
L 329.593912 -118.011948 
L 329.427272 -116.516958 
L 329.286049 -115.021967 
z
" id="mf48f57f8c3" style="stroke:#4c4c4c;stroke-width:1.75;"/>
    </defs>
    <g clip-path="url(#pc9ac00ad59)">
     <use style="fill:#5875a4;stroke:#4c4c4c;stroke-width:1.75;" x="0.0" xlink:href="#mf48f57f8c3" y="396.0"/>
    </g>
   </g>
   <g id="PolyCollection_5">
    <defs>
     <path d="M 374.744087 -121.051561 
L 371.895913 -121.051561 
L 371.725539 -122.681453 
L 371.540366 -124.311344 
L 371.339885 -125.941236 
L 371.123668 -127.571128 
L 370.891391 -129.201019 
L 370.64284 -130.830911 
L 370.377925 -132.460803 
L 370.096692 -134.090694 
L 369.799332 -135.720586 
L 369.48619 -137.350478 
L 369.15777 -138.98037 
L 368.814738 -140.610261 
L 368.457928 -142.240153 
L 368.088333 -143.870045 
L 367.707107 -145.499936 
L 367.315553 -147.129828 
L 366.915116 -148.75972 
L 366.507367 -150.389611 
L 366.093986 -152.019503 
L 365.676749 -153.649395 
L 365.257499 -155.279287 
L 364.838129 -156.909178 
L 364.420555 -158.53907 
L 364.006691 -160.168962 
L 363.598425 -161.798853 
L 363.197593 -163.428745 
L 362.805956 -165.058637 
L 362.425174 -166.688528 
L 362.05679 -168.31842 
L 361.702209 -169.948312 
L 361.362686 -171.578204 
L 361.039313 -173.208095 
L 360.733012 -174.837987 
L 360.444533 -176.467879 
L 360.174455 -178.09777 
L 359.92319 -179.727662 
L 359.690993 -181.357554 
L 359.477976 -182.987445 
L 359.284121 -184.617337 
L 359.109302 -186.247229 
L 358.953305 -187.877121 
L 358.815848 -189.507012 
L 358.696606 -191.136904 
L 358.595235 -192.766796 
L 358.511392 -194.396687 
L 358.444755 -196.026579 
L 358.395044 -197.656471 
L 358.362035 -199.286362 
L 358.34557 -200.916254 
L 358.34557 -202.546146 
L 358.362035 -204.176038 
L 358.395044 -205.805929 
L 358.444755 -207.435821 
L 358.511392 -209.065713 
L 358.595235 -210.695604 
L 358.696606 -212.325496 
L 358.815848 -213.955388 
L 358.953305 -215.585279 
L 359.109302 -217.215171 
L 359.284121 -218.845063 
L 359.477976 -220.474955 
L 359.690993 -222.104846 
L 359.92319 -223.734738 
L 360.174455 -225.36463 
L 360.444533 -226.994521 
L 360.733012 -228.624413 
L 361.039313 -230.254305 
L 361.362686 -231.884196 
L 361.702209 -233.514088 
L 362.05679 -235.14398 
L 362.425174 -236.773872 
L 362.805956 -238.403763 
L 363.197593 -240.033655 
L 363.598425 -241.663547 
L 364.006691 -243.293438 
L 364.420555 -244.92333 
L 364.838129 -246.553222 
L 365.257499 -248.183113 
L 365.676749 -249.813005 
L 366.093986 -251.442897 
L 366.507367 -253.072789 
L 366.915116 -254.70268 
L 367.315553 -256.332572 
L 367.707107 -257.962464 
L 368.088333 -259.592355 
L 368.457928 -261.222247 
L 368.814738 -262.852139 
L 369.15777 -264.48203 
L 369.48619 -266.111922 
L 369.799332 -267.741814 
L 370.096692 -269.371706 
L 370.377925 -271.001597 
L 370.64284 -272.631489 
L 370.891391 -274.261381 
L 371.123668 -275.891272 
L 371.339885 -277.521164 
L 371.540366 -279.151056 
L 371.725539 -280.780947 
L 371.895913 -282.410839 
L 374.744087 -282.410839 
L 374.744087 -282.410839 
L 374.914461 -280.780947 
L 375.099634 -279.151056 
L 375.300115 -277.521164 
L 375.516332 -275.891272 
L 375.748609 -274.261381 
L 375.99716 -272.631489 
L 376.262075 -271.001597 
L 376.543308 -269.371706 
L 376.840668 -267.741814 
L 377.15381 -266.111922 
L 377.48223 -264.48203 
L 377.825262 -262.852139 
L 378.182072 -261.222247 
L 378.551667 -259.592355 
L 378.932893 -257.962464 
L 379.324447 -256.332572 
L 379.724884 -254.70268 
L 380.132633 -253.072789 
L 380.546014 -251.442897 
L 380.963251 -249.813005 
L 381.382501 -248.183113 
L 381.801871 -246.553222 
L 382.219445 -244.92333 
L 382.633309 -243.293438 
L 383.041575 -241.663547 
L 383.442407 -240.033655 
L 383.834044 -238.403763 
L 384.214826 -236.773872 
L 384.58321 -235.14398 
L 384.937791 -233.514088 
L 385.277314 -231.884196 
L 385.600687 -230.254305 
L 385.906988 -228.624413 
L 386.195467 -226.994521 
L 386.465545 -225.36463 
L 386.71681 -223.734738 
L 386.949007 -222.104846 
L 387.162024 -220.474955 
L 387.355879 -218.845063 
L 387.530698 -217.215171 
L 387.686695 -215.585279 
L 387.824152 -213.955388 
L 387.943394 -212.325496 
L 388.044765 -210.695604 
L 388.128608 -209.065713 
L 388.195245 -207.435821 
L 388.244956 -205.805929 
L 388.277965 -204.176038 
L 388.29443 -202.546146 
L 388.29443 -200.916254 
L 388.277965 -199.286362 
L 388.244956 -197.656471 
L 388.195245 -196.026579 
L 388.128608 -194.396687 
L 388.044765 -192.766796 
L 387.943394 -191.136904 
L 387.824152 -189.507012 
L 387.686695 -187.877121 
L 387.530698 -186.247229 
L 387.355879 -184.617337 
L 387.162024 -182.987445 
L 386.949007 -181.357554 
L 386.71681 -179.727662 
L 386.465545 -178.09777 
L 386.195467 -176.467879 
L 385.906988 -174.837987 
L 385.600687 -173.208095 
L 385.277314 -171.578204 
L 384.937791 -169.948312 
L 384.58321 -168.31842 
L 384.214826 -166.688528 
L 383.834044 -165.058637 
L 383.442407 -163.428745 
L 383.041575 -161.798853 
L 382.633309 -160.168962 
L 382.219445 -158.53907 
L 381.801871 -156.909178 
L 381.382501 -155.279287 
L 380.963251 -153.649395 
L 380.546014 -152.019503 
L 380.132633 -150.389611 
L 379.724884 -148.75972 
L 379.324447 -147.129828 
L 378.932893 -145.499936 
L 378.551667 -143.870045 
L 378.182072 -142.240153 
L 377.825262 -140.610261 
L 377.48223 -138.98037 
L 377.15381 -137.350478 
L 376.840668 -135.720586 
L 376.543308 -134.090694 
L 376.262075 -132.460803 
L 375.99716 -130.830911 
L 375.748609 -129.201019 
L 375.516332 -127.571128 
L 375.300115 -125.941236 
L 375.099634 -124.311344 
L 374.914461 -122.681453 
L 374.744087 -121.051561 
z
" id="m66fdc7b2df" style="stroke:#4c4c4c;stroke-width:1.75;"/>
    </defs>
    <g clip-path="url(#pc9ac00ad59)">
     <use style="fill:#5f9e6e;stroke:#4c4c4c;stroke-width:1.75;" x="0.0" xlink:href="#m66fdc7b2df" y="396.0"/>
    </g>
   </g>
   <g id="PolyCollection_6">
    <defs>
     <path d="M 441.715374 -120.701216 
L 438.844626 -120.701216 
L 438.656157 -121.736941 
L 438.449997 -122.772666 
L 438.22557 -123.808391 
L 437.98244 -124.844116 
L 437.720339 -125.879841 
L 437.439183 -126.915566 
L 437.139094 -127.951291 
L 436.820414 -128.987016 
L 436.48372 -130.02274 
L 436.129832 -131.058465 
L 435.759815 -132.09419 
L 435.374981 -133.129915 
L 434.976878 -134.16564 
L 434.567277 -135.201365 
L 434.14815 -136.23709 
L 433.721647 -137.272815 
L 433.290055 -138.30854 
L 432.855764 -139.344265 
L 432.421222 -140.37999 
L 431.988878 -141.415715 
L 431.561135 -142.45144 
L 431.140292 -143.487165 
L 430.728488 -144.522889 
L 430.327644 -145.558614 
L 429.939412 -146.594339 
L 429.565122 -147.630064 
L 429.205746 -148.665789 
L 428.861853 -149.701514 
L 428.533592 -150.737239 
L 428.220667 -151.772964 
L 427.922343 -152.808689 
L 427.637446 -153.844414 
L 427.364389 -154.880139 
L 427.101207 -155.915864 
L 426.845604 -156.951589 
L 426.595014 -157.987313 
L 426.346671 -159.023038 
L 426.097691 -160.058763 
L 425.845161 -161.094488 
L 425.586233 -162.130213 
L 425.318222 -163.165938 
L 425.0387 -164.201663 
L 424.745596 -165.237388 
L 424.437284 -166.273113 
L 424.112661 -167.308838 
L 423.771224 -168.344563 
L 423.41312 -169.380288 
L 423.039194 -170.416013 
L 422.651011 -171.451738 
L 422.250859 -172.487462 
L 421.841741 -173.523187 
L 421.427338 -174.558912 
L 421.01196 -175.594637 
L 420.600471 -176.630362 
L 420.19821 -177.666087 
L 419.810882 -178.701812 
L 419.444447 -179.737537 
L 419.104997 -180.773262 
L 418.798628 -181.808987 
L 418.531305 -182.844712 
L 418.30873 -183.880437 
L 418.136219 -184.916162 
L 418.018579 -185.951887 
L 417.96 -186.987611 
L 417.963958 -188.023336 
L 418.033138 -189.059061 
L 418.169371 -190.094786 
L 418.373592 -191.130511 
L 418.645819 -192.166236 
L 418.985151 -193.201961 
L 419.389787 -194.237686 
L 419.857066 -195.273411 
L 420.38352 -196.309136 
L 420.964949 -197.344861 
L 421.596505 -198.380586 
L 422.272793 -199.416311 
L 422.987973 -200.452035 
L 423.735874 -201.48776 
L 424.510106 -202.523485 
L 425.304174 -203.55921 
L 426.111592 -204.594935 
L 426.925984 -205.63066 
L 427.741184 -206.666385 
L 428.551322 -207.70211 
L 429.350902 -208.737835 
L 430.134868 -209.77356 
L 430.898651 -210.809285 
L 431.638213 -211.84501 
L 432.350068 -212.880735 
L 433.031297 -213.91646 
L 433.679547 -214.952184 
L 434.29302 -215.987909 
L 434.870456 -217.023634 
L 435.411102 -218.059359 
L 435.914675 -219.095084 
L 436.381324 -220.130809 
L 436.811583 -221.166534 
L 437.206324 -222.202259 
L 437.566706 -223.237984 
L 442.993294 -223.237984 
L 442.993294 -223.237984 
L 443.353676 -222.202259 
L 443.748417 -221.166534 
L 444.178676 -220.130809 
L 444.645325 -219.095084 
L 445.148898 -218.059359 
L 445.689544 -217.023634 
L 446.26698 -215.987909 
L 446.880453 -214.952184 
L 447.528703 -213.91646 
L 448.209932 -212.880735 
L 448.921787 -211.84501 
L 449.661349 -210.809285 
L 450.425132 -209.77356 
L 451.209098 -208.737835 
L 452.008678 -207.70211 
L 452.818816 -206.666385 
L 453.634016 -205.63066 
L 454.448408 -204.594935 
L 455.255826 -203.55921 
L 456.049894 -202.523485 
L 456.824126 -201.48776 
L 457.572027 -200.452035 
L 458.287207 -199.416311 
L 458.963495 -198.380586 
L 459.595051 -197.344861 
L 460.17648 -196.309136 
L 460.702934 -195.273411 
L 461.170213 -194.237686 
L 461.574849 -193.201961 
L 461.914181 -192.166236 
L 462.186408 -191.130511 
L 462.390629 -190.094786 
L 462.526862 -189.059061 
L 462.596042 -188.023336 
L 462.6 -186.987611 
L 462.541421 -185.951887 
L 462.423781 -184.916162 
L 462.25127 -183.880437 
L 462.028695 -182.844712 
L 461.761372 -181.808987 
L 461.455003 -180.773262 
L 461.115553 -179.737537 
L 460.749118 -178.701812 
L 460.36179 -177.666087 
L 459.959529 -176.630362 
L 459.54804 -175.594637 
L 459.132662 -174.558912 
L 458.718259 -173.523187 
L 458.309141 -172.487462 
L 457.908989 -171.451738 
L 457.520806 -170.416013 
L 457.14688 -169.380288 
L 456.788776 -168.344563 
L 456.447339 -167.308838 
L 456.122716 -166.273113 
L 455.814404 -165.237388 
L 455.5213 -164.201663 
L 455.241778 -163.165938 
L 454.973767 -162.130213 
L 454.714839 -161.094488 
L 454.462309 -160.058763 
L 454.213329 -159.023038 
L 453.964986 -157.987313 
L 453.714396 -156.951589 
L 453.458793 -155.915864 
L 453.195611 -154.880139 
L 452.922554 -153.844414 
L 452.637657 -152.808689 
L 452.339333 -151.772964 
L 452.026408 -150.737239 
L 451.698147 -149.701514 
L 451.354254 -148.665789 
L 450.994878 -147.630064 
L 450.620588 -146.594339 
L 450.232356 -145.558614 
L 449.831512 -144.522889 
L 449.419708 -143.487165 
L 448.998865 -142.45144 
L 448.571122 -141.415715 
L 448.138778 -140.37999 
L 447.704236 -139.344265 
L 447.269945 -138.30854 
L 446.838353 -137.272815 
L 446.41185 -136.23709 
L 445.992723 -135.201365 
L 445.583122 -134.16564 
L 445.185019 -133.129915 
L 444.800185 -132.09419 
L 444.430168 -131.058465 
L 444.07628 -130.02274 
L 443.739586 -128.987016 
L 443.420906 -127.951291 
L 443.120817 -126.915566 
L 442.839661 -125.879841 
L 442.57756 -124.844116 
L 442.33443 -123.808391 
L 442.110003 -122.772666 
L 441.903843 -121.736941 
L 441.715374 -120.701216 
z
" id="m43cb5b9212" style="stroke:#4c4c4c;stroke-width:1.75;"/>
    </defs>
    <g clip-path="url(#pc9ac00ad59)">
     <use style="fill:#5875a4;stroke:#4c4c4c;stroke-width:1.75;" x="0.0" xlink:href="#m43cb5b9212" y="396.0"/>
    </g>
   </g>
   <g id="PolyCollection_7">
    <defs>
     <path d="M 485.339431 -81.663471 
L 484.500569 -81.663471 
L 484.409166 -83.868637 
L 484.30207 -86.073803 
L 484.177536 -88.27897 
L 484.033811 -90.484136 
L 483.869175 -92.689302 
L 483.681981 -94.894468 
L 483.470706 -97.099635 
L 483.233999 -99.304801 
L 482.970735 -101.509967 
L 482.680066 -103.715133 
L 482.361475 -105.9203 
L 482.014826 -108.125466 
L 481.640408 -110.330632 
L 481.238976 -112.535798 
L 480.811788 -114.740965 
L 480.360626 -116.946131 
L 479.88781 -119.151297 
L 479.396204 -121.356463 
L 478.889201 -123.56163 
L 478.3707 -125.766796 
L 477.845062 -127.971962 
L 477.317055 -130.177128 
L 476.791777 -132.382295 
L 476.274571 -134.587461 
L 475.770916 -136.792627 
L 475.286312 -138.997793 
L 474.826155 -141.202959 
L 474.395602 -143.408126 
L 473.999442 -145.613292 
L 473.641959 -147.818458 
L 473.326821 -150.023624 
L 473.056968 -152.228791 
L 472.834527 -154.433957 
L 472.660757 -156.639123 
L 472.536016 -158.844289 
L 472.459762 -161.049456 
L 472.43059 -163.254622 
L 472.446295 -165.459788 
L 472.503977 -167.664954 
L 472.600155 -169.870121 
L 472.730917 -172.075287 
L 472.892074 -174.280453 
L 473.079322 -176.485619 
L 473.288396 -178.690786 
L 473.51522 -180.895952 
L 473.756029 -183.101118 
L 474.007473 -185.306284 
L 474.266683 -187.511451 
L 474.531308 -189.716617 
L 474.799517 -191.921783 
L 475.069973 -194.126949 
L 475.341772 -196.332116 
L 475.614363 -198.537282 
L 475.88746 -200.742448 
L 476.160937 -202.947614 
L 476.434728 -205.152781 
L 476.708743 -207.357947 
L 476.982791 -209.563113 
L 477.256529 -211.768279 
L 477.529437 -213.973446 
L 477.800813 -216.178612 
L 478.0698 -218.383778 
L 478.335427 -220.588944 
L 478.596672 -222.794111 
L 478.852529 -224.999277 
L 479.102085 -227.204443 
L 479.344585 -229.409609 
L 479.579495 -231.614776 
L 479.806539 -233.819942 
L 480.025728 -236.025108 
L 480.237352 -238.230274 
L 480.44197 -240.435441 
L 480.640358 -242.640607 
L 480.833459 -244.845773 
L 481.022308 -247.050939 
L 481.207958 -249.256105 
L 481.391402 -251.461272 
L 481.573504 -253.666438 
L 481.754935 -255.871604 
L 481.936128 -258.07677 
L 482.117248 -260.281937 
L 482.298184 -262.487103 
L 482.478553 -264.692269 
L 482.657727 -266.897435 
L 482.834875 -269.102602 
L 483.009007 -271.307768 
L 483.179036 -273.512934 
L 483.343837 -275.7181 
L 483.502302 -277.923267 
L 483.6534 -280.128433 
L 483.796218 -282.333599 
L 483.929998 -284.538765 
L 484.054167 -286.743932 
L 484.168344 -288.949098 
L 484.27235 -291.154264 
L 484.366199 -293.35943 
L 484.450083 -295.564597 
L 484.524351 -297.769763 
L 484.589484 -299.974929 
L 485.250516 -299.974929 
L 485.250516 -299.974929 
L 485.315649 -297.769763 
L 485.389917 -295.564597 
L 485.473801 -293.35943 
L 485.56765 -291.154264 
L 485.671656 -288.949098 
L 485.785833 -286.743932 
L 485.910002 -284.538765 
L 486.043782 -282.333599 
L 486.1866 -280.128433 
L 486.337698 -277.923267 
L 486.496163 -275.7181 
L 486.660964 -273.512934 
L 486.830993 -271.307768 
L 487.005125 -269.102602 
L 487.182273 -266.897435 
L 487.361447 -264.692269 
L 487.541816 -262.487103 
L 487.722752 -260.281937 
L 487.903872 -258.07677 
L 488.085065 -255.871604 
L 488.266496 -253.666438 
L 488.448598 -251.461272 
L 488.632042 -249.256105 
L 488.817692 -247.050939 
L 489.006541 -244.845773 
L 489.199642 -242.640607 
L 489.39803 -240.435441 
L 489.602648 -238.230274 
L 489.814272 -236.025108 
L 490.033461 -233.819942 
L 490.260505 -231.614776 
L 490.495415 -229.409609 
L 490.737915 -227.204443 
L 490.987471 -224.999277 
L 491.243328 -222.794111 
L 491.504573 -220.588944 
L 491.7702 -218.383778 
L 492.039187 -216.178612 
L 492.310563 -213.973446 
L 492.583471 -211.768279 
L 492.857209 -209.563113 
L 493.131257 -207.357947 
L 493.405272 -205.152781 
L 493.679063 -202.947614 
L 493.95254 -200.742448 
L 494.225637 -198.537282 
L 494.498228 -196.332116 
L 494.770027 -194.126949 
L 495.040483 -191.921783 
L 495.308692 -189.716617 
L 495.573317 -187.511451 
L 495.832527 -185.306284 
L 496.083971 -183.101118 
L 496.32478 -180.895952 
L 496.551604 -178.690786 
L 496.760678 -176.485619 
L 496.947926 -174.280453 
L 497.109083 -172.075287 
L 497.239845 -169.870121 
L 497.336023 -167.664954 
L 497.393705 -165.459788 
L 497.40941 -163.254622 
L 497.380238 -161.049456 
L 497.303984 -158.844289 
L 497.179243 -156.639123 
L 497.005473 -154.433957 
L 496.783032 -152.228791 
L 496.513179 -150.023624 
L 496.198041 -147.818458 
L 495.840558 -145.613292 
L 495.444398 -143.408126 
L 495.013845 -141.202959 
L 494.553688 -138.997793 
L 494.069084 -136.792627 
L 493.565429 -134.587461 
L 493.048223 -132.382295 
L 492.522945 -130.177128 
L 491.994938 -127.971962 
L 491.4693 -125.766796 
L 490.950799 -123.56163 
L 490.443796 -121.356463 
L 489.95219 -119.151297 
L 489.479374 -116.946131 
L 489.028212 -114.740965 
L 488.601024 -112.535798 
L 488.199592 -110.330632 
L 487.825174 -108.125466 
L 487.478525 -105.9203 
L 487.159934 -103.715133 
L 486.869265 -101.509967 
L 486.606001 -99.304801 
L 486.369294 -97.099635 
L 486.158019 -94.894468 
L 485.970825 -92.689302 
L 485.806189 -90.484136 
L 485.662464 -88.27897 
L 485.53793 -86.073803 
L 485.430834 -83.868637 
L 485.339431 -81.663471 
z
" id="m945e81feb4" style="stroke:#4c4c4c;stroke-width:1.75;"/>
    </defs>
    <g clip-path="url(#pc9ac00ad59)">
     <use style="fill:#5f9e6e;stroke:#4c4c4c;stroke-width:1.75;" x="0.0" xlink:href="#m945e81feb4" y="396.0"/>
    </g>
   </g>
   <g id="patch_3">
    <path clip-path="url(#pc9ac00ad59)" d="M 127.8 286 
L 127.8 286 
L 127.8 286 
L 127.8 286 
z
" style="fill:#5875a4;stroke:#4c4c4c;stroke-linejoin:miter;stroke-width:0.875;"/>
   </g>
   <g id="patch_4">
    <path clip-path="url(#pc9ac00ad59)" d="M 127.8 286 
L 127.8 286 
L 127.8 286 
L 127.8 286 
z
" style="fill:#5f9e6e;stroke:#4c4c4c;stroke-linejoin:miter;stroke-width:0.875;"/>
   </g>
   <g id="line2d_39">
    <path clip-path="url(#pc9ac00ad59)" d="M 105.48 255.1296 
L 105.48 161.8848 
" style="fill:none;stroke:#4c4c4c;stroke-linecap:round;stroke-width:1.75;"/>
   </g>
   <g id="line2d_40">
    <path clip-path="url(#pc9ac00ad59)" d="M 105.48 236.192 
L 105.48 200.244 
" style="fill:none;stroke:#4c4c4c;stroke-linecap:round;stroke-width:5.25;"/>
   </g>
   <g id="line2d_41">
    <path clip-path="url(#pc9ac00ad59)" d="M 217.08 252.384 
L 217.08 193.0368 
" style="fill:none;stroke:#4c4c4c;stroke-linecap:round;stroke-width:1.75;"/>
   </g>
   <g id="line2d_42">
    <path clip-path="url(#pc9ac00ad59)" d="M 217.08 229.5392 
L 217.08 213.312 
" style="fill:none;stroke:#4c4c4c;stroke-linecap:round;stroke-width:5.25;"/>
   </g>
   <g id="line2d_43">
    <path clip-path="url(#pc9ac00ad59)" d="M 261.72 275.1936 
L 261.72 152.2048 
" style="fill:none;stroke:#4c4c4c;stroke-linecap:round;stroke-width:1.75;"/>
   </g>
   <g id="line2d_44">
    <path clip-path="url(#pc9ac00ad59)" d="M 261.72 237.3888 
L 261.72 197.0144 
" style="fill:none;stroke:#4c4c4c;stroke-linecap:round;stroke-width:5.25;"/>
   </g>
   <g id="line2d_45">
    <path clip-path="url(#pc9ac00ad59)" d="M 328.68 250.5536 
L 328.68 163.3984 
" style="fill:none;stroke:#4c4c4c;stroke-linecap:round;stroke-width:1.75;"/>
   </g>
   <g id="line2d_46">
    <path clip-path="url(#pc9ac00ad59)" d="M 328.68 228.5536 
L 328.68 202.4528 
" style="fill:none;stroke:#4c4c4c;stroke-linecap:round;stroke-width:5.25;"/>
   </g>
   <g id="line2d_47">
    <path clip-path="url(#pc9ac00ad59)" d="M 373.32 217.5712 
L 373.32 170.9664 
" style="fill:none;stroke:#4c4c4c;stroke-linecap:round;stroke-width:1.75;"/>
   </g>
   <g id="line2d_48">
    <path clip-path="url(#pc9ac00ad59)" d="M 373.32 205.92 
L 373.32 182.6176 
" style="fill:none;stroke:#4c4c4c;stroke-linecap:round;stroke-width:5.25;"/>
   </g>
   <g id="line2d_49">
    <path clip-path="url(#pc9ac00ad59)" d="M 440.28 242.1408 
L 440.28 205.92 
" style="fill:none;stroke:#4c4c4c;stroke-linecap:round;stroke-width:1.75;"/>
   </g>
   <g id="line2d_50">
    <path clip-path="url(#pc9ac00ad59)" d="M 440.28 224.488 
L 440.28 206.3776 
" style="fill:none;stroke:#4c4c4c;stroke-linecap:round;stroke-width:5.25;"/>
   </g>
   <g id="line2d_51">
    <path clip-path="url(#pc9ac00ad59)" d="M 484.92 265.76 
L 484.92 144.6016 
" style="fill:none;stroke:#4c4c4c;stroke-linecap:round;stroke-width:1.75;"/>
   </g>
   <g id="line2d_52">
    <path clip-path="url(#pc9ac00ad59)" d="M 484.92 243.6544 
L 484.92 189.9744 
" style="fill:none;stroke:#4c4c4c;stroke-linecap:round;stroke-width:5.25;"/>
   </g>
   <g id="patch_5">
    <path d="M 72 39.6 
L 518.4 39.6 
" style="fill:none;"/>
   </g>
   <g id="patch_6">
    <path d="M 518.4 356.4 
L 518.4 39.6 
" style="fill:none;"/>
   </g>
   <g id="patch_7">
    <path d="M 72 356.4 
L 518.4 356.4 
" style="fill:none;"/>
   </g>
   <g id="patch_8">
    <path d="M 72 356.4 
L 72 39.6 
" style="fill:none;"/>
   </g>
   <g id="PathCollection_1">
    <defs>
     <path d="M 0 1.75 
C 0.464105 1.75 0.909265 1.565609 1.237437 1.237437 
C 1.565609 0.909265 1.75 0.464105 1.75 0 
C 1.75 -0.464105 1.565609 -0.909265 1.237437 -1.237437 
C 0.909265 -1.565609 0.464105 -1.75 0 -1.75 
C -0.464105 -1.75 -0.909265 -1.565609 -1.237437 -1.237437 
C -1.565609 -0.909265 -1.75 -0.464105 -1.75 0 
C -1.75 0.464105 -1.565609 0.909265 -1.237437 1.237437 
C -0.909265 1.565609 -0.464105 1.75 0 1.75 
z
" id="me051223e2c" style="stroke:#4c4c4c;stroke-width:0.3;"/>
    </defs>
    <g clip-path="url(#pc9ac00ad59)">
     <use style="fill:#ffffff;stroke:#4c4c4c;stroke-width:0.3;" x="105.48" xlink:href="#me051223e2c" y="223.52"/>
    </g>
   </g>
   <g id="PathCollection_2">
    <g clip-path="url(#pc9ac00ad59)">
     <use style="fill:#ffffff;stroke:#4c4c4c;stroke-width:0.3;" x="217.08" xlink:href="#me051223e2c" y="222.9216"/>
    </g>
   </g>
   <g id="PathCollection_3">
    <g clip-path="url(#pc9ac00ad59)">
     <use style="fill:#ffffff;stroke:#4c4c4c;stroke-width:0.3;" x="261.72" xlink:href="#me051223e2c" y="221.6192"/>
    </g>
   </g>
   <g id="PathCollection_4">
    <g clip-path="url(#pc9ac00ad59)">
     <use style="fill:#ffffff;stroke:#4c4c4c;stroke-width:0.3;" x="328.68" xlink:href="#me051223e2c" y="221.6544"/>
    </g>
   </g>
   <g id="PathCollection_5">
    <g clip-path="url(#pc9ac00ad59)">
     <use style="fill:#ffffff;stroke:#4c4c4c;stroke-width:0.3;" x="373.32" xlink:href="#me051223e2c" y="194.2688"/>
    </g>
   </g>
   <g id="PathCollection_6">
    <g clip-path="url(#pc9ac00ad59)">
     <use style="fill:#ffffff;stroke:#4c4c4c;stroke-width:0.3;" x="440.28" xlink:href="#me051223e2c" y="206.8352"/>
    </g>
   </g>
   <g id="PathCollection_7">
    <g clip-path="url(#pc9ac00ad59)">
     <use style="fill:#ffffff;stroke:#4c4c4c;stroke-width:0.3;" x="484.92" xlink:href="#me051223e2c" y="228.5536"/>
    </g>
   </g>
   <g id="text_17">
    <!-- violin plot -->
    <defs>
     <path d="M 21 0 
L 1.265625 51.859375 
L 10.546875 51.859375 
L 21.6875 20.796875 
Q 23.484375 15.765625 25 10.359375 
Q 26.171875 14.453125 28.265625 20.21875 
L 39.796875 51.859375 
L 48.828125 51.859375 
L 29.203125 0 
z
" id="ArialMT-76"/>
     <path d="M 6.59375 -19.875 
L 6.59375 51.859375 
L 14.59375 51.859375 
L 14.59375 45.125 
Q 17.4375 49.078125 21 51.046875 
Q 24.5625 53.03125 29.640625 53.03125 
Q 36.28125 53.03125 41.359375 49.609375 
Q 46.4375 46.1875 49.015625 39.953125 
Q 51.609375 33.734375 51.609375 26.3125 
Q 51.609375 18.359375 48.75 11.984375 
Q 45.90625 5.609375 40.453125 2.21875 
Q 35.015625 -1.171875 29 -1.171875 
Q 24.609375 -1.171875 21.109375 0.6875 
Q 17.625 2.546875 15.375 5.375 
L 15.375 -19.875 
z
M 14.546875 25.640625 
Q 14.546875 15.625 18.59375 10.84375 
Q 22.65625 6.0625 28.421875 6.0625 
Q 34.28125 6.0625 38.453125 11.015625 
Q 42.625 15.96875 42.625 26.375 
Q 42.625 36.28125 38.546875 41.203125 
Q 34.46875 46.140625 28.8125 46.140625 
Q 23.1875 46.140625 18.859375 40.890625 
Q 14.546875 35.640625 14.546875 25.640625 
" id="ArialMT-70"/>
     <path id="ArialMT-20"/>
    </defs>
    <g style="fill:#262626;" transform="translate(270.1875 34.6)scale(0.12 -0.12)">
     <use xlink:href="#ArialMT-76"/>
     <use x="50.0" xlink:href="#ArialMT-69"/>
     <use x="72.216796875" xlink:href="#ArialMT-6f"/>
     <use x="127.83203125" xlink:href="#ArialMT-6c"/>
     <use x="150.048828125" xlink:href="#ArialMT-69"/>
     <use x="172.265625" xlink:href="#ArialMT-6e"/>
     <use x="227.880859375" xlink:href="#ArialMT-20"/>
     <use x="255.6640625" xlink:href="#ArialMT-70"/>
     <use x="311.279296875" xlink:href="#ArialMT-6c"/>
     <use x="333.49609375" xlink:href="#ArialMT-6f"/>
     <use x="389.111328125" xlink:href="#ArialMT-74"/>
    </g>
   </g>
   <g id="legend_1">
    <g id="text_18">
     <!-- smoker -->
     <defs>
      <path d="M 6.640625 0 
L 6.640625 71.578125 
L 15.4375 71.578125 
L 15.4375 30.765625 
L 36.234375 51.859375 
L 47.609375 51.859375 
L 27.78125 32.625 
L 49.609375 0 
L 38.765625 0 
L 21.625 26.515625 
L 15.4375 20.5625 
L 15.4375 0 
z
" id="ArialMT-6b"/>
      <path d="M 6.59375 0 
L 6.59375 51.859375 
L 14.453125 51.859375 
L 14.453125 44.578125 
Q 16.890625 48.390625 20.9375 50.703125 
Q 25 53.03125 30.171875 53.03125 
Q 35.9375 53.03125 39.625 50.640625 
Q 43.3125 48.25 44.828125 43.953125 
Q 50.984375 53.03125 60.84375 53.03125 
Q 68.5625 53.03125 72.703125 48.75 
Q 76.859375 44.484375 76.859375 35.59375 
L 76.859375 0 
L 68.109375 0 
L 68.109375 32.671875 
Q 68.109375 37.9375 67.25 40.25 
Q 66.40625 42.578125 64.15625 43.984375 
Q 61.921875 45.40625 58.890625 45.40625 
Q 53.421875 45.40625 49.796875 41.765625 
Q 46.1875 38.140625 46.1875 30.125 
L 46.1875 0 
L 37.40625 0 
L 37.40625 33.6875 
Q 37.40625 39.546875 35.25 42.46875 
Q 33.109375 45.40625 28.21875 45.40625 
Q 24.515625 45.40625 21.359375 43.453125 
Q 18.21875 41.5 16.796875 37.734375 
Q 15.375 33.984375 15.375 26.90625 
L 15.375 0 
z
" id="ArialMT-6d"/>
      <path d="M 42.09375 16.703125 
L 51.171875 15.578125 
Q 49.03125 7.625 43.21875 3.21875 
Q 37.40625 -1.171875 28.375 -1.171875 
Q 17 -1.171875 10.328125 5.828125 
Q 3.65625 12.84375 3.65625 25.484375 
Q 3.65625 38.578125 10.390625 45.796875 
Q 17.140625 53.03125 27.875 53.03125 
Q 38.28125 53.03125 44.875 45.953125 
Q 51.46875 38.875 51.46875 26.03125 
Q 51.46875 25.25 51.421875 23.6875 
L 12.75 23.6875 
Q 13.234375 15.140625 17.578125 10.59375 
Q 21.921875 6.0625 28.421875 6.0625 
Q 33.25 6.0625 36.671875 8.59375 
Q 40.09375 11.140625 42.09375 16.703125 
M 13.234375 30.90625 
L 42.1875 30.90625 
Q 41.609375 37.453125 38.875 40.71875 
Q 34.671875 45.796875 27.984375 45.796875 
Q 21.921875 45.796875 17.796875 41.75 
Q 13.671875 37.703125 13.234375 30.90625 
" id="ArialMT-65"/>
      <path d="M 3.078125 15.484375 
L 11.765625 16.84375 
Q 12.5 11.625 15.84375 8.84375 
Q 19.1875 6.0625 25.203125 6.0625 
Q 31.25 6.0625 34.171875 8.515625 
Q 37.109375 10.984375 37.109375 14.3125 
Q 37.109375 17.28125 34.515625 19 
Q 32.71875 20.171875 25.53125 21.96875 
Q 15.875 24.421875 12.140625 26.203125 
Q 8.40625 27.984375 6.46875 31.125 
Q 4.546875 34.28125 4.546875 38.09375 
Q 4.546875 41.546875 6.125 44.5 
Q 7.71875 47.46875 10.453125 49.421875 
Q 12.5 50.921875 16.03125 51.96875 
Q 19.578125 53.03125 23.640625 53.03125 
Q 29.734375 53.03125 34.34375 51.265625 
Q 38.96875 49.515625 41.15625 46.5 
Q 43.359375 43.5 44.1875 38.484375 
L 35.59375 37.3125 
Q 35.015625 41.3125 32.203125 43.546875 
Q 29.390625 45.796875 24.265625 45.796875 
Q 18.21875 45.796875 15.625 43.796875 
Q 13.03125 41.796875 13.03125 39.109375 
Q 13.03125 37.40625 14.109375 36.03125 
Q 15.1875 34.625 17.484375 33.6875 
Q 18.796875 33.203125 25.25 31.453125 
Q 34.578125 28.953125 38.25 27.359375 
Q 41.9375 25.78125 44.03125 22.75 
Q 46.140625 19.734375 46.140625 15.234375 
Q 46.140625 10.84375 43.578125 6.953125 
Q 41.015625 3.078125 36.171875 0.953125 
Q 31.34375 -1.171875 25.25 -1.171875 
Q 15.140625 -1.171875 9.84375 3.03125 
Q 4.546875 7.234375 3.078125 15.484375 
" id="ArialMT-73"/>
     </defs>
     <g style="fill:#262626;" transform="translate(471.466171875 55.2925546875)scale(0.0935 -0.0935)">
      <use xlink:href="#ArialMT-73"/>
      <use x="50.0" xlink:href="#ArialMT-6d"/>
      <use x="133.30078125" xlink:href="#ArialMT-6f"/>
      <use x="188.916015625" xlink:href="#ArialMT-6b"/>
      <use x="238.916015625" xlink:href="#ArialMT-65"/>
      <use x="294.53125" xlink:href="#ArialMT-72"/>
     </g>
    </g>
    <g id="patch_9">
     <path d="M 464.182812 69.30868 
L 484.182812 69.30868 
L 484.182812 62.30868 
L 464.182812 62.30868 
z
" style="fill:#5875a4;stroke:#4c4c4c;stroke-linejoin:miter;stroke-width:0.875;"/>
    </g>
    <g id="text_19">
     <!-- No -->
     <defs>
      <path d="M 7.625 0 
L 7.625 71.578125 
L 17.328125 71.578125 
L 54.9375 15.375 
L 54.9375 71.578125 
L 64.015625 71.578125 
L 64.015625 0 
L 54.296875 0 
L 16.703125 56.25 
L 16.703125 0 
z
" id="ArialMT-4e"/>
     </defs>
     <g style="fill:#262626;" transform="translate(492.1828125 69.3086796875)scale(0.1 -0.1)">
      <use xlink:href="#ArialMT-4e"/>
      <use x="72.216796875" xlink:href="#ArialMT-6f"/>
     </g>
    </g>
    <g id="patch_10">
     <path d="M 464.182812 83.453992 
L 484.182812 83.453992 
L 484.182812 76.453992 
L 464.182812 76.453992 
z
" style="fill:#5f9e6e;stroke:#4c4c4c;stroke-linejoin:miter;stroke-width:0.875;"/>
    </g>
    <g id="text_20">
     <!-- Yes -->
     <defs>
      <path d="M 27.875 0 
L 27.875 30.328125 
L 0.296875 71.578125 
L 11.8125 71.578125 
L 25.921875 50 
Q 29.828125 43.953125 33.203125 37.890625 
Q 36.421875 43.5 41.015625 50.53125 
L 54.890625 71.578125 
L 65.921875 71.578125 
L 37.359375 30.328125 
L 37.359375 0 
z
" id="ArialMT-59"/>
     </defs>
     <g style="fill:#262626;" transform="translate(492.1828125 83.4539921875)scale(0.1 -0.1)">
      <use xlink:href="#ArialMT-59"/>
      <use x="66.55859375" xlink:href="#ArialMT-65"/>
      <use x="122.173828125" xlink:href="#ArialMT-73"/>
     </g>
    </g>
   </g>
  </g>
 </g>
 <defs>
  <clipPath id="pc9ac00ad59">
   <rect height="316.8" width="446.4" x="72.0" y="39.6"/>
  </clipPath>
 </defs>
</svg>
